<svg xmlns="http://www.w3.org/2000/svg" width="800" height="647" viewBox="0 0 800 647">
  <g>
    <path d="M157.1,102.779a2.247,2.247,0,0,1-.671,1.655,2.171,2.171,0,0,1-1.632.671,2.292,2.292,0,0,1-2.326-2.326,2.17,2.17,0,0,1,.671-1.632,2.248,2.248,0,0,1,1.655-.671,2.291,2.291,0,0,1,2.3,2.3Z" fill="#3a3a3a"/>
    <path d="M172.913,102.779a2.251,2.251,0,0,1-.671,1.655,2.173,2.173,0,0,1-1.633.671,2.29,2.29,0,0,1-2.325-2.326,2.169,2.169,0,0,1,.67-1.632,2.251,2.251,0,0,1,1.655-.671,2.291,2.291,0,0,1,2.3,2.3Z" fill="#3a3a3a"/>
    <path d="M188.728,102.779a2.251,2.251,0,0,1-.671,1.655,2.172,2.172,0,0,1-1.632.671,2.292,2.292,0,0,1-2.326-2.326,2.17,2.17,0,0,1,.671-1.632,2.248,2.248,0,0,1,1.655-.671,2.291,2.291,0,0,1,2.3,2.3Z" fill="#3a3a3a"/>
    <path d="M204.542,102.779a2.251,2.251,0,0,1-.671,1.655,2.173,2.173,0,0,1-1.633.671,2.292,2.292,0,0,1-2.325-2.326,2.166,2.166,0,0,1,.671-1.632,2.247,2.247,0,0,1,1.654-.671,2.291,2.291,0,0,1,2.3,2.3Z" fill="#3a3a3a"/>
    <path d="M220.357,102.779a2.247,2.247,0,0,1-.671,1.655,2.172,2.172,0,0,1-1.632.671,2.292,2.292,0,0,1-2.326-2.326,2.17,2.17,0,0,1,.671-1.632,2.248,2.248,0,0,1,1.655-.671,2.291,2.291,0,0,1,2.3,2.3Z" fill="#3a3a3a"/>
    <path d="M236.173,102.779a2.251,2.251,0,0,1-.671,1.655,2.173,2.173,0,0,1-1.633.671,2.292,2.292,0,0,1-2.326-2.326,2.17,2.17,0,0,1,.671-1.632,2.251,2.251,0,0,1,1.655-.671,2.291,2.291,0,0,1,2.3,2.3Z" fill="#3a3a3a"/>
    <path d="M251.988,102.779a2.251,2.251,0,0,1-.671,1.655,2.173,2.173,0,0,1-1.633.671,2.292,2.292,0,0,1-2.325-2.326,2.166,2.166,0,0,1,.671-1.632,2.247,2.247,0,0,1,1.654-.671,2.291,2.291,0,0,1,2.3,2.3Z" fill="#3a3a3a"/>
    <path d="M267.8,102.779a2.247,2.247,0,0,1-.671,1.655,2.172,2.172,0,0,1-1.632.671,2.292,2.292,0,0,1-2.326-2.326,2.17,2.17,0,0,1,.671-1.632,2.248,2.248,0,0,1,1.655-.671,2.291,2.291,0,0,1,2.3,2.3Z" fill="#3a3a3a"/>
    <path d="M283.617,102.779a2.251,2.251,0,0,1-.671,1.655,2.172,2.172,0,0,1-1.632.671,2.292,2.292,0,0,1-2.326-2.326,2.166,2.166,0,0,1,.671-1.632,2.248,2.248,0,0,1,1.655-.671,2.291,2.291,0,0,1,2.3,2.3Z" fill="#3a3a3a"/>
    <path d="M299.432,102.779a2.247,2.247,0,0,1-.671,1.655,2.171,2.171,0,0,1-1.632.671,2.292,2.292,0,0,1-2.326-2.326,2.17,2.17,0,0,1,.671-1.632,2.248,2.248,0,0,1,1.655-.671,2.291,2.291,0,0,1,2.3,2.3Z" fill="#3a3a3a"/>
    <path d="M315.248,102.779a2.251,2.251,0,0,1-.671,1.655,2.173,2.173,0,0,1-1.633.671,2.29,2.29,0,0,1-2.325-2.326,2.169,2.169,0,0,1,.67-1.632,2.251,2.251,0,0,1,1.655-.671,2.291,2.291,0,0,1,2.3,2.3Z" fill="#3a3a3a"/>
    <path d="M331.063,102.779a2.251,2.251,0,0,1-.671,1.655,2.172,2.172,0,0,1-1.632.671,2.292,2.292,0,0,1-2.326-2.326,2.17,2.17,0,0,1,.671-1.632,2.248,2.248,0,0,1,1.655-.671,2.291,2.291,0,0,1,2.3,2.3Z" fill="#3a3a3a"/>
    <path d="M346.878,102.779a2.25,2.25,0,0,1-.67,1.655,2.173,2.173,0,0,1-1.633.671,2.292,2.292,0,0,1-2.326-2.326,2.17,2.17,0,0,1,.671-1.632,2.25,2.25,0,0,1,1.655-.671,2.289,2.289,0,0,1,2.3,2.3Z" fill="#3a3a3a"/>
    <path d="M362.692,102.779a2.247,2.247,0,0,1-.671,1.655,2.172,2.172,0,0,1-1.632.671,2.292,2.292,0,0,1-2.326-2.326,2.17,2.17,0,0,1,.671-1.632,2.248,2.248,0,0,1,1.655-.671,2.291,2.291,0,0,1,2.3,2.3Z" fill="#3a3a3a"/>
    <path d="M378.508,102.779a2.251,2.251,0,0,1-.671,1.655,2.173,2.173,0,0,1-1.633.671,2.292,2.292,0,0,1-2.326-2.326,2.17,2.17,0,0,1,.671-1.632,2.251,2.251,0,0,1,1.655-.671,2.291,2.291,0,0,1,2.3,2.3Z" fill="#3a3a3a"/>
    <path d="M394.323,102.779a2.251,2.251,0,0,1-.671,1.655,2.172,2.172,0,0,1-1.632.671,2.292,2.292,0,0,1-2.326-2.326,2.166,2.166,0,0,1,.671-1.632,2.248,2.248,0,0,1,1.655-.671,2.291,2.291,0,0,1,2.3,2.3Z" fill="#3a3a3a"/>
    <path d="M410.138,102.779a2.247,2.247,0,0,1-.671,1.655,2.171,2.171,0,0,1-1.632.671,2.292,2.292,0,0,1-2.326-2.326,2.17,2.17,0,0,1,.671-1.632,2.248,2.248,0,0,1,1.655-.671,2.291,2.291,0,0,1,2.3,2.3Z" fill="#3a3a3a"/>
    <path d="M425.954,102.779a2.251,2.251,0,0,1-.671,1.655,2.175,2.175,0,0,1-1.633.671,2.29,2.29,0,0,1-2.325-2.326,2.169,2.169,0,0,1,.67-1.632,2.253,2.253,0,0,1,1.655-.671,2.291,2.291,0,0,1,2.3,2.3Z" fill="#3a3a3a"/>
    <path d="M441.766,102.779a2.251,2.251,0,0,1-.671,1.655,2.173,2.173,0,0,1-1.633.671,2.292,2.292,0,0,1-2.325-2.326,2.166,2.166,0,0,1,.671-1.632,2.25,2.25,0,0,1,1.654-.671,2.291,2.291,0,0,1,2.3,2.3Z" fill="#3a3a3a"/>
    <path d="M457.583,102.779a2.251,2.251,0,0,1-.671,1.655,2.173,2.173,0,0,1-1.633.671,2.292,2.292,0,0,1-2.325-2.326,2.166,2.166,0,0,1,.671-1.632,2.249,2.249,0,0,1,1.654-.671,2.291,2.291,0,0,1,2.3,2.3Z" fill="#3a3a3a"/>
    <path d="M473.4,102.779a2.251,2.251,0,0,1-.671,1.655,2.175,2.175,0,0,1-1.633.671,2.292,2.292,0,0,1-2.326-2.326,2.17,2.17,0,0,1,.671-1.632,2.253,2.253,0,0,1,1.655-.671,2.291,2.291,0,0,1,2.3,2.3Z" fill="#3a3a3a"/>
    <path d="M489.21,102.779a2.247,2.247,0,0,1-.671,1.655,2.171,2.171,0,0,1-1.632.671,2.292,2.292,0,0,1-2.326-2.326,2.17,2.17,0,0,1,.671-1.632,2.251,2.251,0,0,1,1.655-.671,2.291,2.291,0,0,1,2.3,2.3Z" fill="#3a3a3a"/>
    <path d="M505.027,102.779a2.247,2.247,0,0,1-.671,1.655,2.171,2.171,0,0,1-1.632.671,2.292,2.292,0,0,1-2.326-2.326,2.17,2.17,0,0,1,.671-1.632,2.251,2.251,0,0,1,1.655-.671,2.291,2.291,0,0,1,2.3,2.3Z" fill="#3a3a3a"/>
    <path d="M520.841,102.779a2.251,2.251,0,0,1-.671,1.655,2.171,2.171,0,0,1-1.632.671,2.292,2.292,0,0,1-2.326-2.326,2.17,2.17,0,0,1,.671-1.632,2.251,2.251,0,0,1,1.655-.671,2.291,2.291,0,0,1,2.3,2.3Z" fill="#3a3a3a"/>
    <path d="M536.658,102.779a2.251,2.251,0,0,1-.671,1.655,2.172,2.172,0,0,1-1.632.671,2.292,2.292,0,0,1-2.326-2.326,2.166,2.166,0,0,1,.671-1.632,2.251,2.251,0,0,1,1.655-.671,2.291,2.291,0,0,1,2.3,2.3Z" fill="#3a3a3a"/>
    <path d="M552.472,102.779a2.251,2.251,0,0,1-.671,1.655,2.173,2.173,0,0,1-1.633.671,2.29,2.29,0,0,1-2.325-2.326,2.169,2.169,0,0,1,.67-1.632,2.253,2.253,0,0,1,1.655-.671,2.291,2.291,0,0,1,2.3,2.3Z" fill="#3a3a3a"/>
    <path d="M568.285,102.779a2.25,2.25,0,0,1-.67,1.655,2.175,2.175,0,0,1-1.633.671,2.292,2.292,0,0,1-2.326-2.326,2.17,2.17,0,0,1,.671-1.632,2.253,2.253,0,0,1,1.655-.671,2.289,2.289,0,0,1,2.3,2.3Z" fill="#3a3a3a"/>
    <path d="M625.464,105.105a3.821,3.821,0,0,1-3.817-3.817V69.372l-.1.052a3.875,3.875,0,0,1-1.681.393,3.82,3.82,0,0,1-1.6-7.288l5.287-2.8-.019-.061.821-.278.7-.214.032.07c.054-.009.188-.022.188-.022l.166-.006a2.094,2.094,0,0,1,.262.016l.026-.083,1.527.447-.013.073c.1.051.182.1.268.154a2.849,2.849,0,0,1,.307.223,2.631,2.631,0,0,1,.275.234,3.32,3.32,0,0,1,.265.284,3.112,3.112,0,0,1,.214.268c.081.116.155.247.23.377a2.411,2.411,0,0,1,.125.237l.048.1.019.057c.025.061.064.182.1.3a2.716,2.716,0,0,1,.086.3,2.353,2.353,0,0,1,.051.345l.01.061c.006.061.022.131.025.2v38.468A3.815,3.815,0,0,1,625.464,105.105Z" fill="#3a3a3a"/>
    <path d="M681.621,94.879a10.2,10.2,0,0,1-17.52,7.1v10.434a1.441,1.441,0,0,1-2.882,0V94.879a10.2,10.2,0,0,1,20.4,0Zm-2.885,0a7.318,7.318,0,1,0-7.316,7.319A7.326,7.326,0,0,0,678.736,94.879Z" fill="#3a3a3a"/>
    <path d="M704.5,94.911a10.2,10.2,0,1,1-10.2-10.2A10.2,10.2,0,0,1,704.5,94.911Zm-2.882,0a7.319,7.319,0,1,0-7.319,7.316A7.328,7.328,0,0,0,701.616,94.911Z" fill="#3a3a3a"/>
    <path d="M726.474,103.658a1.441,1.441,0,1,1-2.881,0v-1.406a9.351,9.351,0,0,1-6.808,2.834c-5.636,0-9.255-4.568-9.255-10.2v-8.75a1.441,1.441,0,1,1,2.881,0v8.75c0,4.035,2.336,7.319,6.374,7.319s6.8-3.271,6.808-7.3V86.122a1.441,1.441,0,1,1,2.881,0v17.536Z" fill="#3a3a3a"/>
    <path d="M749.863,94.9v8.75a1.441,1.441,0,0,1-2.882,0V94.9c0-4.035-2.332-7.316-6.373-7.316-4.026,0-6.8,3.268-6.808,7.294v8.788a1.441,1.441,0,0,1-2.882,0V86.122a1.441,1.441,0,0,1,2.882,0v1.406a9.351,9.351,0,0,1,6.808-2.834C746.243,84.694,749.863,89.263,749.863,94.9Z" fill="#3a3a3a"/>
    <path d="M773.305,94.911a10.206,10.206,0,1,1-2.884-7.105V77.372a1.442,1.442,0,0,1,2.884,0Zm-2.884,0a7.318,7.318,0,1,0-7.316,7.313A7.34,7.34,0,0,0,770.421,94.914Z" fill="#3a3a3a"/>
    <path d="M145.81,233.634a2.25,2.25,0,0,1-.67,1.655,2.177,2.177,0,0,1-1.633.671,2.292,2.292,0,0,1-2.326-2.326,2.175,2.175,0,0,1,.671-1.632,2.25,2.25,0,0,1,1.655-.671,2.289,2.289,0,0,1,2.3,2.3Z" fill="#3a3a3a"/>
    <path d="M161.626,233.634a2.251,2.251,0,0,1-.671,1.655,2.177,2.177,0,0,1-1.633.671A2.292,2.292,0,0,1,157,233.634a2.171,2.171,0,0,1,.671-1.632,2.247,2.247,0,0,1,1.654-.671,2.291,2.291,0,0,1,2.3,2.3Z" fill="#3a3a3a"/>
    <path d="M177.441,233.634a2.247,2.247,0,0,1-.671,1.655,2.176,2.176,0,0,1-1.632.671,2.292,2.292,0,0,1-2.326-2.326,2.175,2.175,0,0,1,.671-1.632,2.248,2.248,0,0,1,1.655-.671,2.291,2.291,0,0,1,2.3,2.3Z" fill="#3a3a3a"/>
    <path d="M193.255,233.634a2.251,2.251,0,0,1-.671,1.655,2.176,2.176,0,0,1-1.632.671,2.292,2.292,0,0,1-2.326-2.326A2.171,2.171,0,0,1,189.3,232a2.248,2.248,0,0,1,1.655-.671,2.291,2.291,0,0,1,2.3,2.3Z" fill="#3a3a3a"/>
    <path d="M209.07,233.634a2.247,2.247,0,0,1-.671,1.655,2.175,2.175,0,0,1-1.632.671,2.292,2.292,0,0,1-2.326-2.326,2.175,2.175,0,0,1,.671-1.632,2.248,2.248,0,0,1,1.655-.671,2.291,2.291,0,0,1,2.3,2.3Z" fill="#3a3a3a"/>
    <path d="M224.886,233.634a2.251,2.251,0,0,1-.671,1.655,2.177,2.177,0,0,1-1.633.671,2.29,2.29,0,0,1-2.325-2.326,2.174,2.174,0,0,1,.67-1.632,2.251,2.251,0,0,1,1.655-.671,2.291,2.291,0,0,1,2.3,2.3Z" fill="#3a3a3a"/>
    <path d="M240.7,233.634a2.251,2.251,0,0,1-.671,1.655,2.176,2.176,0,0,1-1.632.671,2.292,2.292,0,0,1-2.326-2.326,2.171,2.171,0,0,1,.671-1.632,2.248,2.248,0,0,1,1.655-.671,2.291,2.291,0,0,1,2.3,2.3Z" fill="#3a3a3a"/>
    <path d="M256.516,233.634a2.247,2.247,0,0,1-.671,1.655,2.175,2.175,0,0,1-1.632.671,2.292,2.292,0,0,1-2.326-2.326,2.175,2.175,0,0,1,.671-1.632,2.248,2.248,0,0,1,1.655-.671,2.291,2.291,0,0,1,2.3,2.3Z" fill="#3a3a3a"/>
    <path d="M272.33,233.634a2.251,2.251,0,0,1-.671,1.655,2.176,2.176,0,0,1-1.632.671,2.292,2.292,0,0,1-2.326-2.326,2.175,2.175,0,0,1,.671-1.632,2.248,2.248,0,0,1,1.655-.671,2.291,2.291,0,0,1,2.3,2.3Z" fill="#3a3a3a"/>
    <path d="M288.145,233.634a2.25,2.25,0,0,1-.67,1.655,2.177,2.177,0,0,1-1.633.671,2.292,2.292,0,0,1-2.326-2.326,2.175,2.175,0,0,1,.671-1.632,2.25,2.25,0,0,1,1.655-.671,2.289,2.289,0,0,1,2.3,2.3Z" fill="#3a3a3a"/>
    <path d="M303.961,233.634a2.251,2.251,0,0,1-.671,1.655,2.177,2.177,0,0,1-1.633.671,2.292,2.292,0,0,1-2.325-2.326A2.171,2.171,0,0,1,300,232a2.247,2.247,0,0,1,1.654-.671,2.291,2.291,0,0,1,2.3,2.3Z" fill="#3a3a3a"/>
    <path d="M319.776,233.634a2.247,2.247,0,0,1-.671,1.655,2.176,2.176,0,0,1-1.632.671,2.292,2.292,0,0,1-2.326-2.326,2.175,2.175,0,0,1,.671-1.632,2.248,2.248,0,0,1,1.655-.671,2.291,2.291,0,0,1,2.3,2.3Z" fill="#3a3a3a"/>
    <path d="M335.592,233.634a2.251,2.251,0,0,1-.671,1.655,2.177,2.177,0,0,1-1.633.671,2.292,2.292,0,0,1-2.326-2.326,2.175,2.175,0,0,1,.671-1.632,2.251,2.251,0,0,1,1.655-.671,2.291,2.291,0,0,1,2.3,2.3Z" fill="#3a3a3a"/>
    <path d="M351.405,233.634a2.247,2.247,0,0,1-.671,1.655,2.175,2.175,0,0,1-1.632.671,2.292,2.292,0,0,1-2.326-2.326,2.175,2.175,0,0,1,.671-1.632,2.248,2.248,0,0,1,1.655-.671,2.291,2.291,0,0,1,2.3,2.3Z" fill="#3a3a3a"/>
    <path d="M367.221,233.634a2.251,2.251,0,0,1-.671,1.655,2.177,2.177,0,0,1-1.633.671,2.29,2.29,0,0,1-2.325-2.326,2.174,2.174,0,0,1,.67-1.632,2.251,2.251,0,0,1,1.655-.671,2.291,2.291,0,0,1,2.3,2.3Z" fill="#3a3a3a"/>
    <path d="M383.036,233.634a2.251,2.251,0,0,1-.671,1.655,2.176,2.176,0,0,1-1.632.671,2.292,2.292,0,0,1-2.326-2.326,2.175,2.175,0,0,1,.671-1.632,2.248,2.248,0,0,1,1.655-.671,2.291,2.291,0,0,1,2.3,2.3Z" fill="#3a3a3a"/>
    <path d="M398.851,233.634a2.25,2.25,0,0,1-.67,1.655,2.177,2.177,0,0,1-1.633.671,2.292,2.292,0,0,1-2.326-2.326,2.175,2.175,0,0,1,.671-1.632,2.25,2.25,0,0,1,1.655-.671,2.289,2.289,0,0,1,2.3,2.3Z" fill="#3a3a3a"/>
    <path d="M414.667,233.634a2.251,2.251,0,0,1-.671,1.655,2.177,2.177,0,0,1-1.633.671,2.292,2.292,0,0,1-2.325-2.326,2.171,2.171,0,0,1,.671-1.632,2.247,2.247,0,0,1,1.654-.671,2.291,2.291,0,0,1,2.3,2.3Z" fill="#3a3a3a"/>
    <path d="M430.481,233.634a2.251,2.251,0,0,1-.671,1.655,2.178,2.178,0,0,1-1.633.671,2.292,2.292,0,0,1-2.326-2.326,2.175,2.175,0,0,1,.671-1.632,2.253,2.253,0,0,1,1.655-.671,2.291,2.291,0,0,1,2.3,2.3Z" fill="#3a3a3a"/>
    <path d="M446.3,233.634a2.251,2.251,0,0,1-.671,1.655,2.176,2.176,0,0,1-1.632.671,2.292,2.292,0,0,1-2.326-2.326,2.171,2.171,0,0,1,.671-1.632,2.251,2.251,0,0,1,1.655-.671,2.291,2.291,0,0,1,2.3,2.3Z" fill="#3a3a3a"/>
    <path d="M462.11,233.634a2.251,2.251,0,0,1-.671,1.655,2.178,2.178,0,0,1-1.633.671,2.29,2.29,0,0,1-2.325-2.326,2.174,2.174,0,0,1,.67-1.632,2.253,2.253,0,0,1,1.655-.671,2.291,2.291,0,0,1,2.3,2.3Z" fill="#3a3a3a"/>
    <path d="M477.923,233.634a2.25,2.25,0,0,1-.67,1.655,2.178,2.178,0,0,1-1.633.671,2.292,2.292,0,0,1-2.326-2.326,2.175,2.175,0,0,1,.671-1.632,2.251,2.251,0,0,1,1.655-.671,2.289,2.289,0,0,1,2.3,2.3Z" fill="#3a3a3a"/>
    <path d="M493.74,233.634a2.247,2.247,0,0,1-.671,1.655,2.175,2.175,0,0,1-1.632.671,2.292,2.292,0,0,1-2.326-2.326,2.175,2.175,0,0,1,.671-1.632,2.251,2.251,0,0,1,1.655-.671,2.291,2.291,0,0,1,2.3,2.3Z" fill="#3a3a3a"/>
    <path d="M509.554,233.634a2.251,2.251,0,0,1-.671,1.655,2.175,2.175,0,0,1-1.632.671,2.292,2.292,0,0,1-2.326-2.326A2.175,2.175,0,0,1,505.6,232a2.251,2.251,0,0,1,1.655-.671,2.291,2.291,0,0,1,2.3,2.3Z" fill="#3a3a3a"/>
    <path d="M525.371,233.634a2.251,2.251,0,0,1-.671,1.655,2.175,2.175,0,0,1-1.632.671,2.292,2.292,0,0,1-2.326-2.326,2.175,2.175,0,0,1,.671-1.632,2.251,2.251,0,0,1,1.655-.671,2.291,2.291,0,0,1,2.3,2.3Z" fill="#3a3a3a"/>
    <path d="M541.185,233.634a2.251,2.251,0,0,1-.671,1.655,2.177,2.177,0,0,1-1.633.671,2.292,2.292,0,0,1-2.325-2.326,2.171,2.171,0,0,1,.671-1.632,2.25,2.25,0,0,1,1.654-.671,2.291,2.291,0,0,1,2.3,2.3Z" fill="#3a3a3a"/>
    <path d="M557,233.634a2.251,2.251,0,0,1-.671,1.655,2.178,2.178,0,0,1-1.633.671,2.292,2.292,0,0,1-2.326-2.326A2.175,2.175,0,0,1,553.04,232a2.253,2.253,0,0,1,1.655-.671,2.291,2.291,0,0,1,2.3,2.3Z" fill="#3a3a3a"/>
    <path d="M572.816,233.634a2.251,2.251,0,0,1-.671,1.655,2.178,2.178,0,0,1-1.633.671,2.292,2.292,0,0,1-2.326-2.326,2.175,2.175,0,0,1,.671-1.632,2.253,2.253,0,0,1,1.655-.671,2.291,2.291,0,0,1,2.3,2.3Z" fill="#3a3a3a"/>
    <path d="M619.947,235.96A14.474,14.474,0,0,1,605.488,221.5a14.285,14.285,0,0,1,5.143-11.063,12.18,12.18,0,0,1-2.98-8.025,12.3,12.3,0,1,1,21.615,8.025,14.283,14.283,0,0,1,5.14,11.063A14.474,14.474,0,0,1,619.947,235.96Zm-.361-21.264a6.824,6.824,0,1,0,.722,0l-.045,0c-.1.007-.207.013-.316.013s-.22-.006-.326-.013Zm.361-7.654c.15,0,.3,0,.447.009a4.672,4.672,0,1,0-.878,0C619.675,207.045,619.81,207.042,619.947,207.042Z" fill="#3a3a3a"/>
    <path d="M681.621,225.737a10.2,10.2,0,0,1-17.52,7.1v10.434a1.441,1.441,0,1,1-2.882,0V225.737a10.2,10.2,0,0,1,20.4,0Zm-2.885,0a7.318,7.318,0,1,0-7.316,7.316A7.324,7.324,0,0,0,678.736,225.737Z" fill="#3a3a3a"/>
    <path d="M704.5,225.766a10.2,10.2,0,1,1-10.2-10.2A10.2,10.2,0,0,1,704.5,225.766Zm-2.882,0a7.319,7.319,0,1,0-7.319,7.319A7.328,7.328,0,0,0,701.616,225.766Z" fill="#3a3a3a"/>
    <path d="M726.474,234.516a1.441,1.441,0,1,1-2.881,0v-1.409a9.351,9.351,0,0,1-6.808,2.834c-5.636,0-9.255-4.568-9.255-10.2v-8.75a1.441,1.441,0,1,1,2.881,0v8.75c0,4.035,2.336,7.316,6.374,7.316s6.8-3.271,6.808-7.293v-8.789a1.441,1.441,0,1,1,2.881,0Z" fill="#3a3a3a"/>
    <path d="M749.863,225.75v8.75a1.441,1.441,0,0,1-2.882,0v-8.75c0-4.035-2.332-7.316-6.373-7.316-4.026,0-6.8,3.268-6.808,7.293v8.789a1.441,1.441,0,1,1-2.882,0V216.977a1.441,1.441,0,0,1,2.882,0v1.406a9.361,9.361,0,0,1,6.808-2.831C746.243,215.552,749.863,220.118,749.863,225.75Z" fill="#3a3a3a"/>
    <path d="M773.305,225.766a10.211,10.211,0,1,1-2.884-7.1V208.227a1.442,1.442,0,0,1,2.884,0Zm-2.884,0a7.318,7.318,0,1,0-7.316,7.316A7.339,7.339,0,0,0,770.421,225.769Z" fill="#3a3a3a"/>
    <path d="M789.771,232.823c-.074.1-.153.211-.237.316a8.025,8.025,0,0,1-6.331,2.668,9.727,9.727,0,0,1-2.639-.355,7.01,7.01,0,0,1-4.179-3.31l-.045-.073a1.441,1.441,0,0,1,2.447-1.521l.068.109a4.206,4.206,0,0,0,2.5,2.022c1.942.553,4.684.194,5.936-1.345.044-.054.082-.109.121-.166a2.832,2.832,0,0,0,.268-2.54,3.186,3.186,0,0,0-2.118-2.032c-.438-.129-1.386-.309-2.143-.453-.675-.125-1.256-.236-1.62-.329a5.234,5.234,0,0,1-4-5.7,5.594,5.594,0,0,1,3.91-4.189c2.764-.913,6.72-.085,8.3,2.834a1.441,1.441,0,1,1-2.533,1.374c-.807-1.5-3.236-2.01-4.866-1.473a2.76,2.76,0,0,0-1.967,1.907,2.394,2.394,0,0,0,1.878,2.454c.268.07.856.179,1.428.287.907.173,1.847.348,2.425.518a6.025,6.025,0,0,1,4.025,3.846A5.7,5.7,0,0,1,789.771,232.823Z" fill="#3a3a3a"/>
    <path d="M145.81,364.489a2.25,2.25,0,0,1-.67,1.655,2.177,2.177,0,0,1-1.633.671,2.292,2.292,0,0,1-2.326-2.326,2.175,2.175,0,0,1,.671-1.632,2.246,2.246,0,0,1,1.655-.671,2.289,2.289,0,0,1,2.3,2.3Z" fill="#3a3a3a"/>
    <path d="M161.626,364.489a2.251,2.251,0,0,1-.671,1.655,2.177,2.177,0,0,1-1.633.671A2.292,2.292,0,0,1,157,364.489a2.171,2.171,0,0,1,.671-1.632,2.243,2.243,0,0,1,1.654-.671,2.291,2.291,0,0,1,2.3,2.3Z" fill="#3a3a3a"/>
    <path d="M177.441,364.489a2.247,2.247,0,0,1-.671,1.655,2.176,2.176,0,0,1-1.632.671,2.292,2.292,0,0,1-2.326-2.326,2.175,2.175,0,0,1,.671-1.632,2.244,2.244,0,0,1,1.655-.671,2.291,2.291,0,0,1,2.3,2.3Z" fill="#3a3a3a"/>
    <path d="M193.255,364.489a2.251,2.251,0,0,1-.671,1.655,2.176,2.176,0,0,1-1.632.671,2.292,2.292,0,0,1-2.326-2.326,2.171,2.171,0,0,1,.671-1.632,2.244,2.244,0,0,1,1.655-.671,2.291,2.291,0,0,1,2.3,2.3Z" fill="#3a3a3a"/>
    <path d="M209.07,364.489a2.247,2.247,0,0,1-.671,1.655,2.175,2.175,0,0,1-1.632.671,2.292,2.292,0,0,1-2.326-2.326,2.175,2.175,0,0,1,.671-1.632,2.244,2.244,0,0,1,1.655-.671,2.291,2.291,0,0,1,2.3,2.3Z" fill="#3a3a3a"/>
    <path d="M224.886,364.489a2.251,2.251,0,0,1-.671,1.655,2.177,2.177,0,0,1-1.633.671,2.29,2.29,0,0,1-2.325-2.326,2.174,2.174,0,0,1,.67-1.632,2.247,2.247,0,0,1,1.655-.671,2.291,2.291,0,0,1,2.3,2.3Z" fill="#3a3a3a"/>
    <path d="M240.7,364.489a2.251,2.251,0,0,1-.671,1.655,2.176,2.176,0,0,1-1.632.671,2.292,2.292,0,0,1-2.326-2.326,2.171,2.171,0,0,1,.671-1.632,2.244,2.244,0,0,1,1.655-.671,2.291,2.291,0,0,1,2.3,2.3Z" fill="#3a3a3a"/>
    <path d="M256.516,364.489a2.247,2.247,0,0,1-.671,1.655,2.175,2.175,0,0,1-1.632.671,2.292,2.292,0,0,1-2.326-2.326,2.175,2.175,0,0,1,.671-1.632,2.244,2.244,0,0,1,1.655-.671,2.291,2.291,0,0,1,2.3,2.3Z" fill="#3a3a3a"/>
    <path d="M272.33,364.489a2.251,2.251,0,0,1-.671,1.655,2.176,2.176,0,0,1-1.632.671,2.292,2.292,0,0,1-2.326-2.326,2.175,2.175,0,0,1,.671-1.632,2.244,2.244,0,0,1,1.655-.671,2.291,2.291,0,0,1,2.3,2.3Z" fill="#3a3a3a"/>
    <path d="M288.145,364.489a2.25,2.25,0,0,1-.67,1.655,2.177,2.177,0,0,1-1.633.671,2.292,2.292,0,0,1-2.326-2.326,2.175,2.175,0,0,1,.671-1.632,2.246,2.246,0,0,1,1.655-.671,2.289,2.289,0,0,1,2.3,2.3Z" fill="#3a3a3a"/>
    <path d="M303.961,364.489a2.251,2.251,0,0,1-.671,1.655,2.177,2.177,0,0,1-1.633.671,2.292,2.292,0,0,1-2.325-2.326,2.171,2.171,0,0,1,.671-1.632,2.243,2.243,0,0,1,1.654-.671,2.291,2.291,0,0,1,2.3,2.3Z" fill="#3a3a3a"/>
    <path d="M319.776,364.489a2.247,2.247,0,0,1-.671,1.655,2.176,2.176,0,0,1-1.632.671,2.292,2.292,0,0,1-2.326-2.326,2.175,2.175,0,0,1,.671-1.632,2.244,2.244,0,0,1,1.655-.671,2.291,2.291,0,0,1,2.3,2.3Z" fill="#3a3a3a"/>
    <path d="M335.592,364.489a2.251,2.251,0,0,1-.671,1.655,2.177,2.177,0,0,1-1.633.671,2.292,2.292,0,0,1-2.326-2.326,2.175,2.175,0,0,1,.671-1.632,2.247,2.247,0,0,1,1.655-.671,2.291,2.291,0,0,1,2.3,2.3Z" fill="#3a3a3a"/>
    <path d="M351.405,364.489a2.247,2.247,0,0,1-.671,1.655,2.175,2.175,0,0,1-1.632.671,2.292,2.292,0,0,1-2.326-2.326,2.175,2.175,0,0,1,.671-1.632,2.244,2.244,0,0,1,1.655-.671,2.291,2.291,0,0,1,2.3,2.3Z" fill="#3a3a3a"/>
    <path d="M367.221,364.489a2.251,2.251,0,0,1-.671,1.655,2.177,2.177,0,0,1-1.633.671,2.29,2.29,0,0,1-2.325-2.326,2.174,2.174,0,0,1,.67-1.632,2.247,2.247,0,0,1,1.655-.671,2.291,2.291,0,0,1,2.3,2.3Z" fill="#3a3a3a"/>
    <path d="M383.036,364.489a2.251,2.251,0,0,1-.671,1.655,2.176,2.176,0,0,1-1.632.671,2.292,2.292,0,0,1-2.326-2.326,2.175,2.175,0,0,1,.671-1.632,2.244,2.244,0,0,1,1.655-.671,2.291,2.291,0,0,1,2.3,2.3Z" fill="#3a3a3a"/>
    <path d="M398.851,364.489a2.25,2.25,0,0,1-.67,1.655,2.177,2.177,0,0,1-1.633.671,2.292,2.292,0,0,1-2.326-2.326,2.175,2.175,0,0,1,.671-1.632,2.246,2.246,0,0,1,1.655-.671,2.289,2.289,0,0,1,2.3,2.3Z" fill="#3a3a3a"/>
    <path d="M414.667,364.489a2.251,2.251,0,0,1-.671,1.655,2.177,2.177,0,0,1-1.633.671,2.292,2.292,0,0,1-2.325-2.326,2.171,2.171,0,0,1,.671-1.632,2.243,2.243,0,0,1,1.654-.671,2.291,2.291,0,0,1,2.3,2.3Z" fill="#3a3a3a"/>
    <path d="M430.481,364.489a2.251,2.251,0,0,1-.671,1.655,2.178,2.178,0,0,1-1.633.671,2.292,2.292,0,0,1-2.326-2.326,2.175,2.175,0,0,1,.671-1.632,2.249,2.249,0,0,1,1.655-.671,2.291,2.291,0,0,1,2.3,2.3Z" fill="#3a3a3a"/>
    <path d="M446.3,364.489a2.251,2.251,0,0,1-.671,1.655,2.176,2.176,0,0,1-1.632.671,2.292,2.292,0,0,1-2.326-2.326,2.171,2.171,0,0,1,.671-1.632,2.247,2.247,0,0,1,1.655-.671,2.291,2.291,0,0,1,2.3,2.3Z" fill="#3a3a3a"/>
    <path d="M462.11,364.489a2.251,2.251,0,0,1-.671,1.655,2.178,2.178,0,0,1-1.633.671,2.29,2.29,0,0,1-2.325-2.326,2.174,2.174,0,0,1,.67-1.632,2.249,2.249,0,0,1,1.655-.671,2.291,2.291,0,0,1,2.3,2.3Z" fill="#3a3a3a"/>
    <path d="M477.923,364.489a2.25,2.25,0,0,1-.67,1.655,2.178,2.178,0,0,1-1.633.671,2.292,2.292,0,0,1-2.326-2.326,2.175,2.175,0,0,1,.671-1.632,2.247,2.247,0,0,1,1.655-.671,2.289,2.289,0,0,1,2.3,2.3Z" fill="#3a3a3a"/>
    <path d="M493.74,364.489a2.247,2.247,0,0,1-.671,1.655,2.175,2.175,0,0,1-1.632.671,2.292,2.292,0,0,1-2.326-2.326,2.175,2.175,0,0,1,.671-1.632,2.247,2.247,0,0,1,1.655-.671,2.291,2.291,0,0,1,2.3,2.3Z" fill="#3a3a3a"/>
    <path d="M509.554,364.489a2.251,2.251,0,0,1-.671,1.655,2.175,2.175,0,0,1-1.632.671,2.292,2.292,0,0,1-2.326-2.326,2.175,2.175,0,0,1,.671-1.632,2.247,2.247,0,0,1,1.655-.671,2.291,2.291,0,0,1,2.3,2.3Z" fill="#3a3a3a"/>
    <path d="M525.371,364.489a2.251,2.251,0,0,1-.671,1.655,2.175,2.175,0,0,1-1.632.671,2.292,2.292,0,0,1-2.326-2.326,2.175,2.175,0,0,1,.671-1.632,2.247,2.247,0,0,1,1.655-.671,2.291,2.291,0,0,1,2.3,2.3Z" fill="#3a3a3a"/>
    <path d="M541.185,364.489a2.251,2.251,0,0,1-.671,1.655,2.177,2.177,0,0,1-1.633.671,2.292,2.292,0,0,1-2.325-2.326,2.171,2.171,0,0,1,.671-1.632,2.247,2.247,0,0,1,1.654-.671,2.291,2.291,0,0,1,2.3,2.3Z" fill="#3a3a3a"/>
    <path d="M557,364.489a2.251,2.251,0,0,1-.671,1.655,2.178,2.178,0,0,1-1.633.671,2.292,2.292,0,0,1-2.326-2.326,2.175,2.175,0,0,1,.671-1.632,2.249,2.249,0,0,1,1.655-.671,2.291,2.291,0,0,1,2.3,2.3Z" fill="#3a3a3a"/>
    <path d="M572.816,364.489a2.251,2.251,0,0,1-.671,1.655,2.178,2.178,0,0,1-1.633.671,2.292,2.292,0,0,1-2.326-2.326,2.175,2.175,0,0,1,.671-1.632,2.249,2.249,0,0,1,1.655-.671,2.291,2.291,0,0,1,2.3,2.3Z" fill="#3a3a3a"/>
    <path d="M594.134,366.815A3.821,3.821,0,0,1,590.316,363V331.082l-.1.051a3.811,3.811,0,0,1-5.15-1.83,3.817,3.817,0,0,1,1.872-5.061l5.288-2.8-.02-.058.512-.176c.092-.035.182-.063.268-.089l.041-.013a1.966,1.966,0,0,1,.189-.057l.514-.16.032.07.189-.019.169-.009a2.3,2.3,0,0,1,.259.015l.025-.083,1.527.448-.012.073c.1.051.182.1.268.154a2.952,2.952,0,0,1,.307.223,3.378,3.378,0,0,1,.274.233,3.2,3.2,0,0,1,.266.285c.1.118.159.191.214.268.083.118.154.247.23.38a2.579,2.579,0,0,1,.124.233l.048.1.019.057c.026.061.064.182.1.307a2.941,2.941,0,0,1,.086.3,2.735,2.735,0,0,1,.051.345l.01.061c.006.06.022.131.025.2V363A3.816,3.816,0,0,1,594.134,366.815Z" fill="#3a3a3a"/>
    <path d="M608.2,366.789c-.083-.006-.157-.013-.23-.025A3.853,3.853,0,0,1,604.708,363a3.791,3.791,0,0,1,.189-1.147,1.912,1.912,0,0,1,.067-.21c.048-.122.091-.214.137-.307a4.286,4.286,0,0,1,.227-.415l.054-.08.051-.067a3.066,3.066,0,0,1,.269-.352l9.571-10.571h-.14l8.926-9.7v-1.039l.859-.012a6.836,6.836,0,1,0-12.587-3.706v1.734h-.377a3.8,3.8,0,0,1-6.846,0h-.365l-.016-1.725a14.46,14.46,0,1,1,26.021,8.671v.035l-.22.278-.141.156a3.46,3.46,0,0,1-.29.365L617.168,359.18h12.66a3.818,3.818,0,1,1,0,7.635h-21.3A2.235,2.235,0,0,1,608.2,366.789Z" fill="#3a3a3a"/>
    <path d="M681.621,356.592a10.2,10.2,0,0,1-17.52,7.1v10.434a1.441,1.441,0,1,1-2.882,0V356.592a10.2,10.2,0,0,1,20.4,0Zm-2.885,0a7.318,7.318,0,1,0-7.316,7.316A7.324,7.324,0,0,0,678.736,356.592Z" fill="#3a3a3a"/>
    <path d="M704.5,356.621a10.2,10.2,0,1,1-10.2-10.2A10.2,10.2,0,0,1,704.5,356.621Zm-2.882,0a7.319,7.319,0,1,0-7.319,7.319A7.328,7.328,0,0,0,701.616,356.621Z" fill="#3a3a3a"/>
    <path d="M726.474,365.371a1.441,1.441,0,1,1-2.881,0v-1.409a9.351,9.351,0,0,1-6.808,2.834c-5.636,0-9.255-4.569-9.255-10.2v-8.75a1.441,1.441,0,1,1,2.881,0v8.75c0,4.035,2.336,7.316,6.374,7.316s6.8-3.271,6.808-7.293v-8.789a1.441,1.441,0,1,1,2.881,0Z" fill="#3a3a3a"/>
    <path d="M749.863,356.605v8.75a1.441,1.441,0,1,1-2.882,0v-8.75c0-4.035-2.332-7.316-6.373-7.316-4.026,0-6.8,3.268-6.808,7.293v8.789a1.441,1.441,0,1,1-2.882,0V347.832a1.441,1.441,0,1,1,2.882,0v1.406a9.361,9.361,0,0,1,6.808-2.831C746.243,346.407,749.863,350.972,749.863,356.605Z" fill="#3a3a3a"/>
    <path d="M773.305,356.621a10.211,10.211,0,1,1-2.884-7.1V339.082a1.442,1.442,0,0,1,2.884,0Zm-2.884,0a7.318,7.318,0,1,0-7.316,7.316A7.339,7.339,0,0,0,770.421,356.624Z" fill="#3a3a3a"/>
    <path d="M789.771,363.678c-.074.105-.153.211-.237.316a8.025,8.025,0,0,1-6.331,2.668,9.727,9.727,0,0,1-2.639-.355,7.014,7.014,0,0,1-4.179-3.31l-.045-.073a1.441,1.441,0,0,1,2.447-1.521l.068.109a4.206,4.206,0,0,0,2.5,2.022c1.942.553,4.684.194,5.936-1.345.044-.055.083-.108.124-.166a2.8,2.8,0,0,0,.265-2.54,3.184,3.184,0,0,0-2.118-2.032c-.438-.13-1.386-.31-2.143-.453-.675-.125-1.256-.236-1.62-.329a5.234,5.234,0,0,1-4-5.7,5.594,5.594,0,0,1,3.91-4.188c2.764-.913,6.72-.085,8.3,2.834a1.441,1.441,0,1,1-2.533,1.374c-.807-1.5-3.236-2.01-4.866-1.473a2.76,2.76,0,0,0-1.967,1.907,2.394,2.394,0,0,0,1.878,2.454c.268.07.856.179,1.428.287.907.173,1.847.348,2.425.518a6.025,6.025,0,0,1,4.025,3.846A5.7,5.7,0,0,1,789.771,363.678Z" fill="#3a3a3a"/>
    <path d="M145.81,495.344a2.25,2.25,0,0,1-.67,1.655,2.177,2.177,0,0,1-1.633.671,2.292,2.292,0,0,1-2.326-2.326,2.175,2.175,0,0,1,.671-1.632,2.246,2.246,0,0,1,1.655-.671,2.289,2.289,0,0,1,2.3,2.3Z" fill="#3a3a3a"/>
    <path d="M161.626,495.344a2.251,2.251,0,0,1-.671,1.655,2.177,2.177,0,0,1-1.633.671A2.292,2.292,0,0,1,157,495.344a2.171,2.171,0,0,1,.671-1.632,2.243,2.243,0,0,1,1.654-.671,2.291,2.291,0,0,1,2.3,2.3Z" fill="#3a3a3a"/>
    <path d="M177.441,495.344A2.247,2.247,0,0,1,176.77,497a2.176,2.176,0,0,1-1.632.671,2.292,2.292,0,0,1-2.326-2.326,2.175,2.175,0,0,1,.671-1.632,2.244,2.244,0,0,1,1.655-.671,2.291,2.291,0,0,1,2.3,2.3Z" fill="#3a3a3a"/>
    <path d="M193.255,495.344a2.251,2.251,0,0,1-.671,1.655,2.176,2.176,0,0,1-1.632.671,2.292,2.292,0,0,1-2.326-2.326,2.171,2.171,0,0,1,.671-1.632,2.244,2.244,0,0,1,1.655-.671,2.291,2.291,0,0,1,2.3,2.3Z" fill="#3a3a3a"/>
    <path d="M209.07,495.344A2.247,2.247,0,0,1,208.4,497a2.175,2.175,0,0,1-1.632.671,2.292,2.292,0,0,1-2.326-2.326,2.175,2.175,0,0,1,.671-1.632,2.244,2.244,0,0,1,1.655-.671,2.291,2.291,0,0,1,2.3,2.3Z" fill="#3a3a3a"/>
    <path d="M224.886,495.344a2.251,2.251,0,0,1-.671,1.655,2.177,2.177,0,0,1-1.633.671,2.29,2.29,0,0,1-2.325-2.326,2.174,2.174,0,0,1,.67-1.632,2.247,2.247,0,0,1,1.655-.671,2.291,2.291,0,0,1,2.3,2.3Z" fill="#3a3a3a"/>
    <path d="M240.7,495.344A2.251,2.251,0,0,1,240.03,497a2.176,2.176,0,0,1-1.632.671,2.292,2.292,0,0,1-2.326-2.326,2.171,2.171,0,0,1,.671-1.632,2.244,2.244,0,0,1,1.655-.671,2.291,2.291,0,0,1,2.3,2.3Z" fill="#3a3a3a"/>
    <path d="M256.516,495.344a2.247,2.247,0,0,1-.671,1.655,2.175,2.175,0,0,1-1.632.671,2.292,2.292,0,0,1-2.326-2.326,2.175,2.175,0,0,1,.671-1.632,2.244,2.244,0,0,1,1.655-.671,2.291,2.291,0,0,1,2.3,2.3Z" fill="#3a3a3a"/>
    <path d="M272.33,495.344a2.251,2.251,0,0,1-.671,1.655,2.176,2.176,0,0,1-1.632.671,2.292,2.292,0,0,1-2.326-2.326,2.175,2.175,0,0,1,.671-1.632,2.244,2.244,0,0,1,1.655-.671,2.291,2.291,0,0,1,2.3,2.3Z" fill="#3a3a3a"/>
    <path d="M288.145,495.344a2.25,2.25,0,0,1-.67,1.655,2.177,2.177,0,0,1-1.633.671,2.292,2.292,0,0,1-2.326-2.326,2.175,2.175,0,0,1,.671-1.632,2.246,2.246,0,0,1,1.655-.671,2.289,2.289,0,0,1,2.3,2.3Z" fill="#3a3a3a"/>
    <path d="M303.961,495.344A2.251,2.251,0,0,1,303.29,497a2.177,2.177,0,0,1-1.633.671,2.292,2.292,0,0,1-2.325-2.326,2.171,2.171,0,0,1,.671-1.632,2.243,2.243,0,0,1,1.654-.671,2.291,2.291,0,0,1,2.3,2.3Z" fill="#3a3a3a"/>
    <path d="M319.776,495.344a2.247,2.247,0,0,1-.671,1.655,2.176,2.176,0,0,1-1.632.671,2.292,2.292,0,0,1-2.326-2.326,2.175,2.175,0,0,1,.671-1.632,2.244,2.244,0,0,1,1.655-.671,2.291,2.291,0,0,1,2.3,2.3Z" fill="#3a3a3a"/>
    <path d="M335.592,495.344a2.251,2.251,0,0,1-.671,1.655,2.177,2.177,0,0,1-1.633.671,2.292,2.292,0,0,1-2.326-2.326,2.175,2.175,0,0,1,.671-1.632,2.247,2.247,0,0,1,1.655-.671,2.291,2.291,0,0,1,2.3,2.3Z" fill="#3a3a3a"/>
    <path d="M351.405,495.344a2.247,2.247,0,0,1-.671,1.655,2.175,2.175,0,0,1-1.632.671,2.292,2.292,0,0,1-2.326-2.326,2.175,2.175,0,0,1,.671-1.632,2.244,2.244,0,0,1,1.655-.671,2.291,2.291,0,0,1,2.3,2.3Z" fill="#3a3a3a"/>
    <path d="M367.221,495.344A2.251,2.251,0,0,1,366.55,497a2.177,2.177,0,0,1-1.633.671,2.29,2.29,0,0,1-2.325-2.326,2.174,2.174,0,0,1,.67-1.632,2.247,2.247,0,0,1,1.655-.671,2.291,2.291,0,0,1,2.3,2.3Z" fill="#3a3a3a"/>
    <path d="M383.036,495.344a2.251,2.251,0,0,1-.671,1.655,2.176,2.176,0,0,1-1.632.671,2.292,2.292,0,0,1-2.326-2.326,2.175,2.175,0,0,1,.671-1.632,2.244,2.244,0,0,1,1.655-.671,2.291,2.291,0,0,1,2.3,2.3Z" fill="#3a3a3a"/>
    <path d="M398.851,495.344a2.25,2.25,0,0,1-.67,1.655,2.177,2.177,0,0,1-1.633.671,2.292,2.292,0,0,1-2.326-2.326,2.175,2.175,0,0,1,.671-1.632,2.246,2.246,0,0,1,1.655-.671,2.289,2.289,0,0,1,2.3,2.3Z" fill="#3a3a3a"/>
    <path d="M414.667,495.344A2.251,2.251,0,0,1,414,497a2.177,2.177,0,0,1-1.633.671,2.292,2.292,0,0,1-2.325-2.326,2.171,2.171,0,0,1,.671-1.632,2.243,2.243,0,0,1,1.654-.671,2.291,2.291,0,0,1,2.3,2.3Z" fill="#3a3a3a"/>
    <path d="M430.481,495.344A2.251,2.251,0,0,1,429.81,497a2.178,2.178,0,0,1-1.633.671,2.292,2.292,0,0,1-2.326-2.326,2.175,2.175,0,0,1,.671-1.632,2.249,2.249,0,0,1,1.655-.671,2.291,2.291,0,0,1,2.3,2.3Z" fill="#3a3a3a"/>
    <path d="M446.3,495.344a2.251,2.251,0,0,1-.671,1.655,2.176,2.176,0,0,1-1.632.671,2.292,2.292,0,0,1-2.326-2.326,2.171,2.171,0,0,1,.671-1.632,2.247,2.247,0,0,1,1.655-.671,2.291,2.291,0,0,1,2.3,2.3Z" fill="#3a3a3a"/>
    <path d="M462.11,495.344a2.251,2.251,0,0,1-.671,1.655,2.178,2.178,0,0,1-1.633.671,2.29,2.29,0,0,1-2.325-2.326,2.174,2.174,0,0,1,.67-1.632,2.249,2.249,0,0,1,1.655-.671,2.291,2.291,0,0,1,2.3,2.3Z" fill="#3a3a3a"/>
    <path d="M477.923,495.344a2.25,2.25,0,0,1-.67,1.655,2.178,2.178,0,0,1-1.633.671,2.292,2.292,0,0,1-2.326-2.326,2.175,2.175,0,0,1,.671-1.632,2.247,2.247,0,0,1,1.655-.671,2.289,2.289,0,0,1,2.3,2.3Z" fill="#3a3a3a"/>
    <path d="M493.74,495.344a2.247,2.247,0,0,1-.671,1.655,2.175,2.175,0,0,1-1.632.671,2.292,2.292,0,0,1-2.326-2.326,2.175,2.175,0,0,1,.671-1.632,2.247,2.247,0,0,1,1.655-.671,2.291,2.291,0,0,1,2.3,2.3Z" fill="#3a3a3a"/>
    <path d="M509.554,495.344a2.251,2.251,0,0,1-.671,1.655,2.175,2.175,0,0,1-1.632.671,2.292,2.292,0,0,1-2.326-2.326,2.175,2.175,0,0,1,.671-1.632,2.247,2.247,0,0,1,1.655-.671,2.291,2.291,0,0,1,2.3,2.3Z" fill="#3a3a3a"/>
    <path d="M525.371,495.344A2.251,2.251,0,0,1,524.7,497a2.175,2.175,0,0,1-1.632.671,2.292,2.292,0,0,1-2.326-2.326,2.175,2.175,0,0,1,.671-1.632,2.247,2.247,0,0,1,1.655-.671,2.291,2.291,0,0,1,2.3,2.3Z" fill="#3a3a3a"/>
    <path d="M541.185,495.344a2.251,2.251,0,0,1-.671,1.655,2.177,2.177,0,0,1-1.633.671,2.292,2.292,0,0,1-2.325-2.326,2.171,2.171,0,0,1,.671-1.632,2.247,2.247,0,0,1,1.654-.671,2.291,2.291,0,0,1,2.3,2.3Z" fill="#3a3a3a"/>
    <path d="M557,495.344a2.251,2.251,0,0,1-.671,1.655,2.178,2.178,0,0,1-1.633.671,2.292,2.292,0,0,1-2.326-2.326,2.175,2.175,0,0,1,.671-1.632,2.249,2.249,0,0,1,1.655-.671,2.291,2.291,0,0,1,2.3,2.3Z" fill="#3a3a3a"/>
    <path d="M572.816,495.344a2.251,2.251,0,0,1-.671,1.655,2.178,2.178,0,0,1-1.633.671,2.292,2.292,0,0,1-2.326-2.326,2.175,2.175,0,0,1,.671-1.632,2.249,2.249,0,0,1,1.655-.671,2.291,2.291,0,0,1,2.3,2.3Z" fill="#3a3a3a"/>
    <path d="M597.8,497.67a3.822,3.822,0,0,1-3.818-3.818V461.937l-.1.051a3.81,3.81,0,0,1-5.149-1.83A3.817,3.817,0,0,1,590.6,455.1l5.287-2.8-.019-.058.511-.176c.093-.035.179-.064.268-.089l.042-.013a1.865,1.865,0,0,1,.188-.057l.515-.16.032.07.188-.019.166-.01a2.3,2.3,0,0,1,.262.016l.026-.083,1.527.448-.013.073c.1.051.182.1.268.153a3.008,3.008,0,0,1,.307.224,3.424,3.424,0,0,1,.275.233,3.193,3.193,0,0,1,.265.285,3.229,3.229,0,0,1,.214.268c.083.118.154.247.23.38.037.065.086.147.125.233l.047.1.02.057c.025.061.064.182.1.307a2.7,2.7,0,0,1,.086.3,2.414,2.414,0,0,1,.051.345l.01.061c.006.06.022.131.025.2v38.467A3.816,3.816,0,0,1,597.8,497.67Z" fill="#3a3a3a"/>
    <path d="M622.832,497.67a14.474,14.474,0,0,1-14.459-14.459,14.289,14.289,0,0,1,5.143-11.064,12.172,12.172,0,0,1-2.981-8.025,12.3,12.3,0,1,1,21.616,8.025,14.286,14.286,0,0,1,5.14,11.064A14.474,14.474,0,0,1,622.832,497.67Zm-.361-21.264a6.824,6.824,0,1,0,.722,0l-.045,0c-.1.007-.208.013-.316.013s-.221-.006-.326-.013Zm.361-7.655c.15,0,.3,0,.447.01a4.669,4.669,0,1,0-.879,0C622.56,468.755,622.694,468.751,622.832,468.751Z" fill="#3a3a3a"/>
    <path d="M681.621,487.447a10.2,10.2,0,0,1-17.52,7.1v10.434a1.441,1.441,0,1,1-2.882,0V487.447a10.2,10.2,0,0,1,20.4,0Zm-2.885,0a7.318,7.318,0,1,0-7.316,7.316A7.324,7.324,0,0,0,678.736,487.447Z" fill="#3a3a3a"/>
    <path d="M704.5,487.476a10.2,10.2,0,1,1-10.2-10.2A10.2,10.2,0,0,1,704.5,487.476Zm-2.882,0A7.319,7.319,0,1,0,694.3,494.8,7.328,7.328,0,0,0,701.616,487.476Z" fill="#3a3a3a"/>
    <path d="M726.474,496.226a1.441,1.441,0,1,1-2.881,0v-1.409a9.351,9.351,0,0,1-6.808,2.834c-5.636,0-9.255-4.569-9.255-10.2V478.7a1.441,1.441,0,1,1,2.881,0v8.75c0,4.035,2.336,7.316,6.374,7.316s6.8-3.271,6.808-7.293v-8.789a1.441,1.441,0,1,1,2.881,0Z" fill="#3a3a3a"/>
    <path d="M749.863,487.46v8.75a1.441,1.441,0,1,1-2.882,0v-8.75c0-4.035-2.332-7.316-6.373-7.316-4.026,0-6.8,3.268-6.808,7.293v8.789a1.441,1.441,0,1,1-2.882,0V478.687a1.441,1.441,0,1,1,2.882,0v1.406a9.361,9.361,0,0,1,6.808-2.831C746.243,477.262,749.863,481.827,749.863,487.46Z" fill="#3a3a3a"/>
    <path d="M773.305,487.476a10.211,10.211,0,1,1-2.884-7.1V469.937a1.442,1.442,0,0,1,2.884,0Zm-2.884,0a7.318,7.318,0,1,0-7.316,7.316A7.339,7.339,0,0,0,770.421,487.479Z" fill="#3a3a3a"/>
    <path d="M789.771,494.533c-.074.1-.153.211-.237.316a8.025,8.025,0,0,1-6.331,2.668,9.727,9.727,0,0,1-2.639-.355,7.014,7.014,0,0,1-4.179-3.31l-.045-.073a1.441,1.441,0,0,1,2.447-1.521l.068.109a4.206,4.206,0,0,0,2.5,2.022c1.942.553,4.684.194,5.936-1.345.044-.055.082-.109.121-.166a2.832,2.832,0,0,0,.268-2.54,3.184,3.184,0,0,0-2.118-2.032c-.438-.13-1.386-.31-2.143-.453-.675-.125-1.256-.236-1.62-.329a5.234,5.234,0,0,1-4-5.7,5.594,5.594,0,0,1,3.91-4.188c2.764-.914,6.72-.085,8.3,2.834a1.441,1.441,0,1,1-2.533,1.374c-.807-1.5-3.236-2.01-4.866-1.473a2.76,2.76,0,0,0-1.967,1.907,2.4,2.4,0,0,0,1.878,2.454c.268.07.856.178,1.428.287.907.173,1.847.347,2.425.518a6.025,6.025,0,0,1,4.025,3.846A5.7,5.7,0,0,1,789.771,494.533Z" fill="#3a3a3a"/>
    <path d="M178.876,626.2a2.251,2.251,0,0,1-.671,1.655,2.177,2.177,0,0,1-1.633.671,2.292,2.292,0,0,1-2.326-2.326,2.175,2.175,0,0,1,.671-1.632,2.247,2.247,0,0,1,1.655-.671,2.291,2.291,0,0,1,2.3,2.3Z" fill="#3a3a3a"/>
    <path d="M194.691,626.2a2.251,2.251,0,0,1-.671,1.655,2.176,2.176,0,0,1-1.632.671,2.292,2.292,0,0,1-2.326-2.326,2.171,2.171,0,0,1,.671-1.632,2.244,2.244,0,0,1,1.655-.671,2.291,2.291,0,0,1,2.3,2.3Z" fill="#3a3a3a"/>
    <path d="M210.506,626.2a2.247,2.247,0,0,1-.671,1.655,2.175,2.175,0,0,1-1.632.671,2.292,2.292,0,0,1-2.326-2.326,2.175,2.175,0,0,1,.671-1.632,2.244,2.244,0,0,1,1.655-.671,2.291,2.291,0,0,1,2.3,2.3Z" fill="#3a3a3a"/>
    <path d="M226.32,626.2a2.251,2.251,0,0,1-.671,1.655,2.176,2.176,0,0,1-1.632.671,2.292,2.292,0,0,1-2.326-2.326,2.175,2.175,0,0,1,.671-1.632,2.244,2.244,0,0,1,1.655-.671,2.291,2.291,0,0,1,2.3,2.3Z" fill="#3a3a3a"/>
    <path d="M242.135,626.2a2.25,2.25,0,0,1-.67,1.655,2.177,2.177,0,0,1-1.633.671,2.292,2.292,0,0,1-2.326-2.326,2.175,2.175,0,0,1,.671-1.632,2.246,2.246,0,0,1,1.655-.671,2.289,2.289,0,0,1,2.3,2.3Z" fill="#3a3a3a"/>
    <path d="M257.951,626.2a2.251,2.251,0,0,1-.671,1.655,2.177,2.177,0,0,1-1.633.671,2.292,2.292,0,0,1-2.325-2.326,2.171,2.171,0,0,1,.671-1.632,2.243,2.243,0,0,1,1.654-.671,2.291,2.291,0,0,1,2.3,2.3Z" fill="#3a3a3a"/>
    <path d="M273.766,626.2a2.247,2.247,0,0,1-.671,1.655,2.176,2.176,0,0,1-1.632.671,2.292,2.292,0,0,1-2.326-2.326,2.175,2.175,0,0,1,.671-1.632,2.244,2.244,0,0,1,1.655-.671,2.291,2.291,0,0,1,2.3,2.3Z" fill="#3a3a3a"/>
    <path d="M289.581,626.2a2.25,2.25,0,0,1-.67,1.655,2.177,2.177,0,0,1-1.633.671,2.292,2.292,0,0,1-2.326-2.326,2.175,2.175,0,0,1,.671-1.632,2.247,2.247,0,0,1,1.655-.671,2.289,2.289,0,0,1,2.3,2.3Z" fill="#3a3a3a"/>
    <path d="M305.4,626.2a2.247,2.247,0,0,1-.671,1.655,2.176,2.176,0,0,1-1.632.671,2.292,2.292,0,0,1-2.326-2.326,2.175,2.175,0,0,1,.671-1.632,2.244,2.244,0,0,1,1.655-.671,2.291,2.291,0,0,1,2.3,2.3Z" fill="#3a3a3a"/>
    <path d="M321.211,626.2a2.251,2.251,0,0,1-.671,1.655,2.177,2.177,0,0,1-1.633.671,2.292,2.292,0,0,1-2.326-2.326,2.175,2.175,0,0,1,.671-1.632,2.247,2.247,0,0,1,1.655-.671,2.291,2.291,0,0,1,2.3,2.3Z" fill="#3a3a3a"/>
    <path d="M337.026,626.2a2.251,2.251,0,0,1-.671,1.655,2.176,2.176,0,0,1-1.632.671A2.292,2.292,0,0,1,332.4,626.2a2.171,2.171,0,0,1,.671-1.632,2.244,2.244,0,0,1,1.655-.671,2.291,2.291,0,0,1,2.3,2.3Z" fill="#3a3a3a"/>
    <path d="M352.841,626.2a2.247,2.247,0,0,1-.671,1.655,2.175,2.175,0,0,1-1.632.671,2.292,2.292,0,0,1-2.326-2.326,2.175,2.175,0,0,1,.671-1.632,2.244,2.244,0,0,1,1.655-.671,2.291,2.291,0,0,1,2.3,2.3Z" fill="#3a3a3a"/>
    <path d="M368.657,626.2a2.251,2.251,0,0,1-.671,1.655,2.177,2.177,0,0,1-1.633.671,2.29,2.29,0,0,1-2.325-2.326,2.174,2.174,0,0,1,.67-1.632,2.247,2.247,0,0,1,1.655-.671,2.291,2.291,0,0,1,2.3,2.3Z" fill="#3a3a3a"/>
    <path d="M384.47,626.2a2.25,2.25,0,0,1-.67,1.655,2.177,2.177,0,0,1-1.633.671,2.292,2.292,0,0,1-2.326-2.326,2.175,2.175,0,0,1,.671-1.632,2.246,2.246,0,0,1,1.655-.671,2.289,2.289,0,0,1,2.3,2.3Z" fill="#3a3a3a"/>
    <path d="M400.286,626.2a2.251,2.251,0,0,1-.671,1.655,2.177,2.177,0,0,1-1.633.671,2.292,2.292,0,0,1-2.325-2.326,2.171,2.171,0,0,1,.671-1.632,2.243,2.243,0,0,1,1.654-.671,2.291,2.291,0,0,1,2.3,2.3Z" fill="#3a3a3a"/>
    <path d="M416.1,626.2a2.247,2.247,0,0,1-.671,1.655,2.176,2.176,0,0,1-1.632.671,2.292,2.292,0,0,1-2.326-2.326,2.175,2.175,0,0,1,.671-1.632,2.244,2.244,0,0,1,1.655-.671,2.291,2.291,0,0,1,2.3,2.3Z" fill="#3a3a3a"/>
    <path d="M431.915,626.2a2.251,2.251,0,0,1-.671,1.655,2.176,2.176,0,0,1-1.632.671,2.292,2.292,0,0,1-2.326-2.326,2.171,2.171,0,0,1,.671-1.632,2.247,2.247,0,0,1,1.655-.671,2.291,2.291,0,0,1,2.3,2.3Z" fill="#3a3a3a"/>
    <path d="M447.73,626.2a2.247,2.247,0,0,1-.671,1.655,2.175,2.175,0,0,1-1.632.671A2.292,2.292,0,0,1,443.1,626.2a2.175,2.175,0,0,1,.671-1.632,2.247,2.247,0,0,1,1.655-.671,2.291,2.291,0,0,1,2.3,2.3Z" fill="#3a3a3a"/>
    <path d="M463.544,626.2a2.251,2.251,0,0,1-.671,1.655,2.175,2.175,0,0,1-1.632.671,2.292,2.292,0,0,1-2.326-2.326,2.175,2.175,0,0,1,.671-1.632,2.247,2.247,0,0,1,1.655-.671,2.291,2.291,0,0,1,2.3,2.3Z" fill="#3a3a3a"/>
    <path d="M479.361,626.2a2.251,2.251,0,0,1-.671,1.655,2.175,2.175,0,0,1-1.632.671,2.292,2.292,0,0,1-2.326-2.326,2.175,2.175,0,0,1,.671-1.632,2.247,2.247,0,0,1,1.655-.671,2.291,2.291,0,0,1,2.3,2.3Z" fill="#3a3a3a"/>
    <path d="M495.175,626.2a2.251,2.251,0,0,1-.671,1.655,2.177,2.177,0,0,1-1.633.671,2.292,2.292,0,0,1-2.325-2.326,2.171,2.171,0,0,1,.671-1.632,2.245,2.245,0,0,1,1.654-.671,2.291,2.291,0,0,1,2.3,2.3Z" fill="#3a3a3a"/>
    <path d="M510.989,626.2a2.251,2.251,0,0,1-.671,1.655,2.178,2.178,0,0,1-1.633.671,2.292,2.292,0,0,1-2.326-2.326,2.175,2.175,0,0,1,.671-1.632,2.249,2.249,0,0,1,1.655-.671,2.291,2.291,0,0,1,2.3,2.3Z" fill="#3a3a3a"/>
    <path d="M526.806,626.2a2.251,2.251,0,0,1-.671,1.655,2.178,2.178,0,0,1-1.633.671,2.292,2.292,0,0,1-2.326-2.326,2.175,2.175,0,0,1,.671-1.632,2.249,2.249,0,0,1,1.655-.671,2.291,2.291,0,0,1,2.3,2.3Z" fill="#3a3a3a"/>
    <path d="M542.619,626.2a2.247,2.247,0,0,1-.671,1.655,2.175,2.175,0,0,1-1.632.671,2.292,2.292,0,0,1-2.326-2.326,2.175,2.175,0,0,1,.671-1.632,2.247,2.247,0,0,1,1.655-.671,2.291,2.291,0,0,1,2.3,2.3Z" fill="#3a3a3a"/>
    <path d="M558.436,626.2a2.247,2.247,0,0,1-.671,1.655,2.175,2.175,0,0,1-1.632.671,2.292,2.292,0,0,1-2.326-2.326,2.175,2.175,0,0,1,.671-1.632,2.247,2.247,0,0,1,1.655-.671,2.291,2.291,0,0,1,2.3,2.3Z" fill="#3a3a3a"/>
    <path d="M574.25,626.2a2.251,2.251,0,0,1-.671,1.655,2.175,2.175,0,0,1-1.632.671,2.292,2.292,0,0,1-2.326-2.326,2.171,2.171,0,0,1,.671-1.632,2.247,2.247,0,0,1,1.655-.671,2.291,2.291,0,0,1,2.3,2.3Z" fill="#3a3a3a"/>
    <path d="M621.381,628.525a14.474,14.474,0,0,1-14.459-14.459A14.29,14.29,0,0,1,612.066,603a12.172,12.172,0,0,1-2.981-8.025,12.3,12.3,0,0,1,24.6,0A12.188,12.188,0,0,1,630.7,603a14.287,14.287,0,0,1,5.141,11.064A14.475,14.475,0,0,1,621.381,628.525Zm-.361-21.264a6.824,6.824,0,1,0,.722,0l-.044,0c-.1.006-.208.013-.317.013s-.22-.007-.325-.013Zm.361-7.655c.151,0,.3,0,.448.01a4.67,4.67,0,1,0-.879,0C621.11,599.61,621.244,599.606,621.381,599.606Z" fill="#3a3a3a"/>
    <path d="M681.621,618.3a10.2,10.2,0,0,1-17.52,7.1v10.433a1.441,1.441,0,1,1-2.882,0V618.3a10.2,10.2,0,1,1,20.4,0Zm-2.885,0a7.318,7.318,0,1,0-7.316,7.316A7.324,7.324,0,0,0,678.736,618.3Z" fill="#3a3a3a"/>
    <path d="M704.5,618.33a10.2,10.2,0,1,1-10.2-10.2A10.2,10.2,0,0,1,704.5,618.33Zm-2.882,0a7.319,7.319,0,1,0-7.319,7.32A7.329,7.329,0,0,0,701.616,618.33Z" fill="#3a3a3a"/>
    <path d="M726.027,627.081a1.441,1.441,0,0,1-2.882,0v-1.409a9.351,9.351,0,0,1-6.808,2.834c-5.635,0-9.255-4.569-9.255-10.2v-8.75a1.441,1.441,0,0,1,2.882,0v8.75c0,4.035,2.335,7.316,6.373,7.316s6.8-3.271,6.808-7.294v-8.788a1.441,1.441,0,0,1,2.882,0Z" fill="#3a3a3a"/>
    <path d="M749.415,618.315v8.75a1.441,1.441,0,1,1-2.881,0v-8.75c0-4.035-2.332-7.316-6.374-7.316-4.025,0-6.795,3.268-6.808,7.293v8.789a1.441,1.441,0,1,1-2.881,0V609.542a1.441,1.441,0,1,1,2.881,0v1.406a9.361,9.361,0,0,1,6.808-2.831C745.8,608.117,749.415,612.682,749.415,618.315Z" fill="#3a3a3a"/>
    <path d="M772.858,618.33a10.213,10.213,0,1,1-2.885-7.1V600.792a1.443,1.443,0,0,1,2.885,0Zm-2.885,0a7.318,7.318,0,1,0-7.316,7.316A7.339,7.339,0,0,0,769.973,618.334Z" fill="#3a3a3a"/>
    <path d="M789.324,625.388c-.074.105-.153.211-.237.316a8.026,8.026,0,0,1-6.332,2.667,9.738,9.738,0,0,1-2.639-.354,7.014,7.014,0,0,1-4.178-3.31l-.045-.073a1.441,1.441,0,0,1,2.447-1.521l.067.109a4.213,4.213,0,0,0,2.5,2.022c1.942.553,4.683.194,5.935-1.345.045-.055.083-.109.122-.166a2.835,2.835,0,0,0,.268-2.54,3.181,3.181,0,0,0-2.118-2.032c-.438-.13-1.387-.31-2.144-.454-.674-.124-1.255-.235-1.619-.329a5.233,5.233,0,0,1-4-5.7,5.594,5.594,0,0,1,3.91-4.188c2.764-.914,6.72-.085,8.3,2.834a1.441,1.441,0,1,1-2.533,1.373c-.807-1.5-3.236-2.009-4.866-1.472a2.763,2.763,0,0,0-1.968,1.907,2.394,2.394,0,0,0,1.879,2.453c.268.071.856.179,1.428.288.907.172,1.847.347,2.425.517a6.029,6.029,0,0,1,4.025,3.847A5.708,5.708,0,0,1,789.324,625.388Z" fill="#3a3a3a"/>
    <g>
      <path d="M331.26,82.3a2.1,2.1,0,0,1-1.48-.629,2.039,2.039,0,0,1-.242-.294s-.078-.125-.1-.163a1.811,1.811,0,0,1-.107-.227.824.824,0,0,1-.047-.134c-.011-.032-.027-.1-.027-.1a2.011,2.011,0,0,1-.075-.537V54.437c0-.067,0-.14.011-.207l.015-.119a2.22,2.22,0,0,1,.071-.3c.015-.045.05-.14.063-.172l.019-.058.024-.035c.019-.035.069-.128.089-.163l.045-.077c.035-.048.07-.1.107-.14a1.648,1.648,0,0,1,.107-.128,1.99,1.99,0,0,1,.208-.195c.059-.045.112-.083.166-.118l.086-.058c.034-.019.094-.051.128-.067l.31.527-.267-.549a2.062,2.062,0,0,1,.895-.205l5.712,0a14.963,14.963,0,0,1,0,29.925Zm5.1-4.143.611-.007a10.814,10.814,0,0,0,0-21.628l-.611-.005h-3.027v21.64Z" fill="#3a3a3a"/>
      <path d="M376.511,71.471V80.2a2.081,2.081,0,0,1-4.161,0v-.3a10.871,10.871,0,0,1-6.815,2.374,10.98,10.98,0,1,1,10.981-10.993Zm-4.147-.175a6.83,6.83,0,1,0-6.829,6.83A6.836,6.836,0,0,0,372.364,71.3Z" fill="#3a3a3a"/>
      <path d="M379.963,55.769a2.086,2.086,0,0,1,.917-1.354.9.9,0,0,1,.032-.78.86.86,0,0,1,.731-.415c.04,0,.078,0,.115,0a1.645,1.645,0,0,1,.5.073,1.033,1.033,0,0,1,.9-.581.924.924,0,0,1,.759.418,1.452,1.452,0,0,1,.211,1.032,2.118,2.118,0,0,1,1.481,1.524,2.5,2.5,0,0,1-.8,2.435,2.748,2.748,0,0,1-1.9,1.012,2.944,2.944,0,0,1-1.763-.821A2.655,2.655,0,0,1,379.963,55.769Zm4.91,6.623V80.2a2.075,2.075,0,1,1-4.15,0V62.392a2.075,2.075,0,0,1,4.15,0Z" fill="#3a3a3a"/>
      <path d="M405.7,63.136a2.093,2.093,0,0,1-2.092,2.09,2.046,2.046,0,0,1-.863-.186A7.711,7.711,0,0,0,400,64.5a6.919,6.919,0,0,0-5.105,2.4,7.484,7.484,0,0,0-1.657,5.048v8.261a2.076,2.076,0,1,1-4.151,0V62.382a2.076,2.076,0,1,1,4.151,0v.262a12.217,12.217,0,0,1,6.947-2.239,11.365,11.365,0,0,1,4.118.76c.056.022.093.035.131.051l.048.023a2.057,2.057,0,0,1,.856.728s.032.048.05.083a2.06,2.06,0,0,1,.241.559l.022.077A2.32,2.32,0,0,1,405.7,63.136Z" fill="#3a3a3a"/>
      <path d="M425.433,63.063l-10.9,26.807a2.067,2.067,0,0,1-1.924,1.294h0a2.072,2.072,0,0,1-1.922-2.853l3.306-8.134-6.848-17.005a2.075,2.075,0,0,1,3.848-1.556l5.248,13.034,5.343-13.143a2.075,2.075,0,0,1,3.848,1.556Z" fill="#3a3a3a"/>
    </g>
    <g>
      <path d="M314.965,216.223a2.076,2.076,0,0,1-2.075-2.073v-16.6A10.98,10.98,0,1,1,323.869,208.5a10.884,10.884,0,0,1-6.829-2.38v8.028A2.075,2.075,0,0,1,314.965,216.223Zm2.075-18.7a6.809,6.809,0,1,0,0-.045Z" fill="#3a3a3a"/>
      <path d="M354.824,197.311a2.092,2.092,0,0,1-2.091,2.089,2.063,2.063,0,0,1-.863-.185,7.687,7.687,0,0,0-2.741-.537,6.921,6.921,0,0,0-5.105,2.4,7.484,7.484,0,0,0-1.656,5.048v8.261a2.076,2.076,0,1,1-4.152,0V196.557a2.076,2.076,0,1,1,4.152,0v.262a12.212,12.212,0,0,1,6.948-2.24,11.362,11.362,0,0,1,4.116.76l.131.052.048.022a2.057,2.057,0,0,1,.856.728s.032.048.05.083a2.06,2.06,0,0,1,.241.559l.023.077A2.33,2.33,0,0,1,354.824,197.311Z" fill="#3a3a3a"/>
      <path d="M377.762,205.473a10.98,10.98,0,1,1-10.981-10.98A10.993,10.993,0,0,1,377.762,205.473Zm-4.15,0a6.83,6.83,0,1,0-6.831,6.827A6.838,6.838,0,0,0,373.612,205.473Z" fill="#3a3a3a"/>
      <path d="M392.558,214.354a2.079,2.079,0,0,1-2.042,2.077c-.062.006-.2.016-.4.016a7.982,7.982,0,0,1-5.843-2.735c-2.265-2.479-2.134-6.578-2.073-8.549v-6.587h-.733a2.077,2.077,0,0,1,0-4.153h.736v-6.738a2.076,2.076,0,1,1,4.152,0v6.754h3.2a2.075,2.075,0,1,1,0,4.149h-3.2v5.735a14.129,14.129,0,0,1,.022,1.623,7.37,7.37,0,0,0,.922,4.613,4.031,4.031,0,0,0,3.158,1.722A2.081,2.081,0,0,1,392.558,214.354Z" fill="#3a3a3a"/>
      <path d="M415.868,205.454a2.109,2.109,0,0,1-.617,1.5,2.079,2.079,0,0,1-1.474.61H398.39a6.839,6.839,0,0,0,6.047,4.7h3.094a2.078,2.078,0,0,1,2.075,2.075,2.052,2.052,0,0,1-.26,1.009,2.076,2.076,0,0,1-1.815,1.067s-2.432.016-2.64.016-.417-.006-.626-.019a10.749,10.749,0,0,1-1.748-.243,10.98,10.98,0,1,1,13.351-10.718Zm-4.473-2.073a6.828,6.828,0,0,0-13.013,0Z" fill="#3a3a3a"/>
      <path d="M418.492,189.944a2.088,2.088,0,0,1,.917-1.355.9.9,0,0,1,.032-.779.864.864,0,0,1,.732-.416c.04,0,.078,0,.115,0a1.617,1.617,0,0,1,.5.074,1.032,1.032,0,0,1,.9-.582.922.922,0,0,1,.759.419,1.45,1.45,0,0,1,.211,1.032,2.119,2.119,0,0,1,1.48,1.523,2.5,2.5,0,0,1-.8,2.435,2.747,2.747,0,0,1-1.894,1.012,2.946,2.946,0,0,1-1.764-.821A2.656,2.656,0,0,1,418.492,189.944Zm4.911,6.622v17.811a2.075,2.075,0,1,1-4.15,0V196.566a2.075,2.075,0,0,1,4.15,0Z" fill="#3a3a3a"/>
      <path d="M448.142,205.457v8.894a2.075,2.075,0,1,1-4.149,0v-8.894c0-3.4-1.815-6.83-5.869-6.83-3.588,0-6.3,2.926-6.311,6.808v8.932a2.075,2.075,0,1,1-4.15,0v-17.83a2.075,2.075,0,1,1,4.15,0v.068a10.209,10.209,0,0,1,6.311-2.128C443.929,194.477,448.142,199.1,448.142,205.457Z" fill="#3a3a3a"/>
    </g>
    <g>
      <path d="M336.667,351.471a2.077,2.077,0,0,1-2.075-2.077V323.616a2.076,2.076,0,0,1,2.075-2.073H352.69a2.075,2.075,0,1,1,0,4.15H338.743v8.737H347.4a2.077,2.077,0,0,1,0,4.153h-8.661V349.4A2.077,2.077,0,0,1,336.667,351.471Z" fill="#3a3a3a"/>
      <path d="M370.436,332.309a2.092,2.092,0,0,1-2.092,2.089,2.048,2.048,0,0,1-.863-.185,7.692,7.692,0,0,0-2.741-.537,6.921,6.921,0,0,0-5.105,2.4,7.488,7.488,0,0,0-1.657,5.047v8.262a2.076,2.076,0,1,1-4.151,0v-17.83a2.076,2.076,0,1,1,4.151,0v.262a12.217,12.217,0,0,1,6.947-2.239,11.344,11.344,0,0,1,4.118.76c.056.022.093.035.131.051l.048.022a2.066,2.066,0,0,1,.856.729s.032.048.05.083a2.033,2.033,0,0,1,.241.559l.022.077A2.312,2.312,0,0,1,370.436,332.309Z" fill="#3a3a3a"/>
      <path d="M393.358,331.536v17.83a2.075,2.075,0,1,1-4.15,0V349.3a10.222,10.222,0,0,1-6.311,2.124c-5.805,0-10.019-4.616-10.019-10.98v-8.894a2.076,2.076,0,1,1,4.152,0v8.894c0,3.4,1.815,6.83,5.867,6.83,3.588,0,6.3-2.926,6.311-6.808v-8.932a2.075,2.075,0,1,1,4.15,0Z" fill="#3a3a3a"/>
      <path d="M396.732,324.942a2.084,2.084,0,0,1,.917-1.354.9.9,0,0,1,.032-.78.858.858,0,0,1,.731-.415c.04,0,.078,0,.115,0a1.612,1.612,0,0,1,.5.074,1.033,1.033,0,0,1,.9-.581.924.924,0,0,1,.759.418,1.45,1.45,0,0,1,.211,1.032,2.118,2.118,0,0,1,1.481,1.524,2.494,2.494,0,0,1-.8,2.434,2.748,2.748,0,0,1-1.894,1.013,2.95,2.95,0,0,1-1.763-.821A2.656,2.656,0,0,1,396.732,324.942Zm4.91,6.623v17.81a2.075,2.075,0,1,1-4.15,0v-17.81a2.075,2.075,0,0,1,4.15,0Z" fill="#3a3a3a"/>
      <path d="M417.968,349.353a2.078,2.078,0,0,1-2.041,2.076c-.062.007-.2.016-.4.016a7.981,7.981,0,0,1-5.843-2.734c-2.265-2.479-2.134-6.578-2.073-8.549v-6.588h-.734a2.077,2.077,0,0,1,0-4.153h.737v-6.738a2.076,2.076,0,1,1,4.151,0v6.754h3.2a2.075,2.075,0,1,1,0,4.15h-3.2v5.734a14.121,14.121,0,0,1,.023,1.623,7.361,7.361,0,0,0,.921,4.613,4.033,4.033,0,0,0,3.158,1.722A2.08,2.08,0,0,1,417.968,349.353Z" fill="#3a3a3a"/>
    </g>
    <g>
      <path d="M310.23,477.026,302.3,451.213a2.075,2.075,0,0,1,3.813-1.639l6.033,19.641,6.037-19.593a2.123,2.123,0,0,1,1.913-1.272,2.076,2.076,0,0,1,1.914,2.879L314.067,477a2.088,2.088,0,0,1-.715.863l-.04.028a.782.782,0,0,1-.1.061,1.694,1.694,0,0,1-.24.134,2,2,0,0,1-.838.179A2.074,2.074,0,0,1,310.23,477.026Z" fill="#3a3a3a"/>
      <path d="M344.2,467.247a2.11,2.11,0,0,1-.616,1.5,2.079,2.079,0,0,1-1.474.61H326.726a6.84,6.84,0,0,0,6.048,4.7h3.094a2.078,2.078,0,0,1,2.075,2.075,2.046,2.046,0,0,1-.261,1.01,2.075,2.075,0,0,1-1.814,1.067s-2.433.016-2.641.016-.416-.006-.626-.019a10.721,10.721,0,0,1-1.747-.243,10.98,10.98,0,1,1,13.35-10.718Zm-4.472-2.074a6.829,6.829,0,0,0-13.014,0Z" fill="#3a3a3a"/>
      <path d="M368.618,467.6v9.23c0,5.68-4.926,10.3-10.98,10.3a11.033,11.033,0,0,1-10.02-6.093l-.021-.035a2.148,2.148,0,0,1-.241-.562l-.021-.077a2.229,2.229,0,0,1-.044-.447,2.093,2.093,0,0,1,2.09-2.092,2.129,2.129,0,0,1,1.874,1.166c.017.032.032.064.046.1a6.922,6.922,0,0,0,6.337,3.808c3.765,0,6.829-2.722,6.829-6.067v-.968a10.979,10.979,0,1,1,4.151-8.6Zm-4.151-.338a6.831,6.831,0,1,0-13.284,2.239,6.759,6.759,0,0,0,1.435,2.39,6.814,6.814,0,0,0,10.036,0,6.757,6.757,0,0,0,1.434-2.39A6.886,6.886,0,0,0,364.467,467.263Z" fill="#3a3a3a"/>
      <path d="M393.9,467.6v9.23c0,5.68-4.925,10.3-10.979,10.3a11.033,11.033,0,0,1-10.02-6.093l-.021-.035a2.148,2.148,0,0,1-.241-.562l-.021-.077a2.23,2.23,0,0,1-.045-.447,2.094,2.094,0,0,1,2.091-2.092,2.13,2.13,0,0,1,1.874,1.166c.017.032.031.064.046.1a6.92,6.92,0,0,0,6.337,3.808c3.765,0,6.829-2.722,6.829-6.067v-.968a10.98,10.98,0,1,1,4.15-8.6Zm-4.15-.338a6.826,6.826,0,1,0-.379,2.239A6.836,6.836,0,0,0,389.747,467.263Z" fill="#3a3a3a"/>
      <path d="M397.39,451.736a2.086,2.086,0,0,1,.917-1.354.9.9,0,0,1,.032-.78.86.86,0,0,1,.731-.415c.04,0,.079,0,.115,0a1.645,1.645,0,0,1,.5.073,1.034,1.034,0,0,1,.9-.581.922.922,0,0,1,.758.418,1.452,1.452,0,0,1,.211,1.032,2.12,2.12,0,0,1,1.481,1.524,2.5,2.5,0,0,1-.8,2.435,2.748,2.748,0,0,1-1.895,1.012,2.944,2.944,0,0,1-1.763-.821A2.655,2.655,0,0,1,397.39,451.736Zm4.91,6.623V476.17a2.075,2.075,0,1,1-4.15,0V458.359a2.075,2.075,0,0,1,4.15,0Z" fill="#3a3a3a"/>
      <path d="M427.969,467.247a2.11,2.11,0,0,1-.616,1.5,2.079,2.079,0,0,1-1.474.61H410.491a6.841,6.841,0,0,0,6.048,4.7h3.094a2.078,2.078,0,0,1,2.075,2.075,2.056,2.056,0,0,1-.26,1.01,2.078,2.078,0,0,1-1.815,1.067s-2.433.016-2.641.016-.416-.006-.626-.019a10.721,10.721,0,0,1-1.747-.243,10.98,10.98,0,1,1,13.35-10.718Zm-4.472-2.074a6.829,6.829,0,0,0-13.014,0Z" fill="#3a3a3a"/>
      <path d="M437.111,478.265a10.316,10.316,0,0,1-2.8-.377,7.525,7.525,0,0,1-4.487-3.546l-.045-.073a1.871,1.871,0,0,1,.6-2.572,1.87,1.87,0,0,1,2.58.6l.067.111a3.922,3.922,0,0,0,2.306,1.879,6.539,6.539,0,0,0,1.77.233,4.975,4.975,0,0,0,3.834-1.466c.04-.049.077-.1.112-.144a2.438,2.438,0,0,0,.22-2.217,2.831,2.831,0,0,0-1.885-1.808c-.428-.127-1.38-.307-2.144-.451-.693-.131-1.287-.242-1.67-.342a5.732,5.732,0,0,1-4.366-6.248,6.089,6.089,0,0,1,4.251-4.582,7.991,7.991,0,0,1,2.46-.377,7.252,7.252,0,0,1,6.466,3.454,1.872,1.872,0,1,1-3.294,1.779,3.666,3.666,0,0,0-3.185-1.488,4.141,4.141,0,0,0-1.275.188,2.431,2.431,0,0,0-1.725,1.617c-.176,1.1.961,1.866,1.61,2.035.259.067.85.178,1.419.284.936.179,1.9.359,2.511.54a6.535,6.535,0,0,1,4.36,4.166,6.179,6.179,0,0,1-.69,5.6c-.079.112-.166.227-.255.339A8.5,8.5,0,0,1,437.111,478.265Z" fill="#3a3a3a"/>
    </g>
    <g>
      <path d="M331.06,610.238c-.155,0-.315,0-.471-.009a14.961,14.961,0,0,1-10.342-25.3,14.766,14.766,0,0,1,10.338-4.616c.159,0,.318-.01.475-.01a14.914,14.914,0,0,1,10.343,4.15l.45.431-.059.061a2.071,2.071,0,0,1-1.76,3.163,2.07,2.07,0,0,1-1.093-.31l-.131-.09a2.026,2.026,0,0,1-.239-.207l-.063-.067a10.849,10.849,0,0,0-7.448-2.978c-.144,0-.283,0-.422.01a10.812,10.812,0,0,0-.011,21.606c.149.006.289.012.433.012a10.808,10.808,0,0,0,6.9-2.5v-4.779h-5.687a2.075,2.075,0,1,1,0-4.15H339.9a1,1,0,0,1,.13-.009,2.075,2.075,0,0,1,2.075,2.073v7.763a2.082,2.082,0,0,1-.478,1.316,1.8,1.8,0,0,1-.217.272l-.066.061A14.961,14.961,0,0,1,331.06,610.238Z" fill="#3a3a3a"/>
      <path d="M362.935,591.077a2.093,2.093,0,0,1-2.093,2.089,2.059,2.059,0,0,1-.862-.185,7.692,7.692,0,0,0-2.741-.537,6.919,6.919,0,0,0-5.1,2.4,7.484,7.484,0,0,0-1.657,5.048v8.261a2.076,2.076,0,1,1-4.151,0V590.323a2.076,2.076,0,1,1,4.151,0v.262a12.216,12.216,0,0,1,6.947-2.24,11.365,11.365,0,0,1,4.118.76l.131.051.048.023a2.057,2.057,0,0,1,.856.728s.032.048.05.083a2.06,2.06,0,0,1,.241.559l.022.077A2.33,2.33,0,0,1,362.935,591.077Z" fill="#3a3a3a"/>
      <path d="M385.868,599.411v8.732a2.081,2.081,0,0,1-4.161,0v-.3a10.868,10.868,0,0,1-6.814,2.374,10.98,10.98,0,1,1,10.98-10.993Zm-4.147-.175a6.83,6.83,0,1,0-6.828,6.83A6.835,6.835,0,0,0,381.721,599.236Z" fill="#3a3a3a"/>
      <path d="M389.322,583.71a2.084,2.084,0,0,1,.916-1.355.906.906,0,0,1,.032-.78.864.864,0,0,1,.732-.415c.04,0,.078,0,.115,0a1.645,1.645,0,0,1,.5.073,1.033,1.033,0,0,1,.9-.581.922.922,0,0,1,.759.419,1.448,1.448,0,0,1,.211,1.031,2.12,2.12,0,0,1,1.481,1.524,2.5,2.5,0,0,1-.8,2.435,2.747,2.747,0,0,1-1.894,1.012,2.949,2.949,0,0,1-1.764-.821A2.653,2.653,0,0,1,389.322,583.71Zm4.91,6.622v17.811a2.075,2.075,0,1,1-4.15,0V590.332a2.075,2.075,0,0,1,4.15,0Z" fill="#3a3a3a"/>
      <path d="M418.972,599.223v8.894a2.076,2.076,0,1,1-4.152,0v-8.894c0-3.4-1.813-6.83-5.867-6.83-3.588,0-6.3,2.926-6.311,6.808v8.932a2.075,2.075,0,1,1-4.15,0V590.3a2.075,2.075,0,1,1,4.15,0v.067a10.21,10.21,0,0,1,6.311-2.127C414.758,588.243,418.972,592.862,418.972,599.223Z" fill="#3a3a3a"/>
      <path d="M429.407,610.238a10.327,10.327,0,0,1-2.795-.377,7.528,7.528,0,0,1-4.486-3.546l-.044-.073a1.872,1.872,0,0,1,.6-2.572,1.869,1.869,0,0,1,2.579.6l.07.111a3.905,3.905,0,0,0,2.305,1.879,6.568,6.568,0,0,0,1.77.233,4.9,4.9,0,0,0,3.833-1.466c.039-.048.074-.1.109-.144a2.438,2.438,0,0,0,.22-2.217,2.829,2.829,0,0,0-1.881-1.808c-.43-.128-1.38-.307-2.144-.451-.693-.131-1.289-.243-1.671-.342a5.734,5.734,0,0,1-4.365-6.248,6.086,6.086,0,0,1,4.249-4.582,7.98,7.98,0,0,1,2.46-.377,7.262,7.262,0,0,1,6.464,3.454,1.873,1.873,0,0,1-.754,2.536,1.87,1.87,0,0,1-2.54-.757,3.661,3.661,0,0,0-3.183-1.488,4.137,4.137,0,0,0-1.273.188,2.434,2.434,0,0,0-1.727,1.617c-.176,1.1.961,1.866,1.61,2.035.259.067.85.179,1.42.284.936.179,1.9.359,2.511.54a6.54,6.54,0,0,1,4.361,4.166,6.177,6.177,0,0,1-.693,5.6c-.08.112-.164.226-.256.339A8.562,8.562,0,0,1,429.407,610.238Z" fill="#3a3a3a"/>
    </g>
    <g>
      <g>
        <path d="M117.338,92.761v61.09a11.3,11.3,0,0,1-11.292,11.293H56.3a11.3,11.3,0,0,1-11.292-11.293V93.7c0-.169,0-.339.008-.508l-.008-.427c0-9.179,1.532-20.06,4.557-32.345.024-.1.057-.217.081-.322.008-.024.008-.049.016-.073A247.957,247.957,0,0,1,59.7,28.863l.411-.992h42.128l.411.992C103.247,30.315,117.338,64.659,117.338,92.761Zm-1.613,61.09V93.7c0-.314-.008-.621-.024-.935h.024c0-10.284-1.952-21.512-4.42-31.619-.064-.266-.137-.532-.193-.8a244.714,244.714,0,0,0-9.954-30.86H61.192a242.143,242.143,0,0,0-9.235,28.093c-.283,1.057-.557,2.138-.823,3.227-.04.153-.073.306-.113.467-2.452,10.075-4.4,21.254-4.4,31.49h.024c-.016.314-.024.621-.024.935v60.155A9.707,9.707,0,0,0,56.3,163.53h49.742A9.707,9.707,0,0,0,115.725,153.851Z" fill="#343434"/>
        <path d="M115.725,93.7v60.155a9.707,9.707,0,0,1-9.679,9.679H56.3a9.707,9.707,0,0,1-9.679-9.679V93.7c0-.314.008-.621.024-.935h-.024c0-10.236,1.944-21.415,4.4-31.49.04-.161.073-.314.113-.467.266-1.089.54-2.17.823-3.227a242.143,242.143,0,0,1,9.235-28.093h39.966a244.714,244.714,0,0,1,9.954,30.86c.056.266.129.532.193.8,2.468,10.107,4.42,21.335,4.42,31.619H115.7C115.717,93.075,115.725,93.382,115.725,93.7Zm-1.613,60.155V93.7c0-.29-.008-.564-.024-.855L114,91.147h.1a136.1,136.1,0,0,0-3.9-27.585c-.258-1.121-.524-2.226-.8-3.323A251.984,251.984,0,0,0,100.069,31.1H62.281A249.77,249.77,0,0,0,54.11,55.738c-.476,1.775-.952,3.59-1.411,5.453-.033.129-.065.258-.089.379a138.918,138.918,0,0,0-4.356,29.577h.073l-.065,1.694c-.016.291-.024.565-.024.855v60.155a8.079,8.079,0,0,0,8.066,8.066h49.742A8.078,8.078,0,0,0,114.112,153.851Z" fill="#343434"/>
        <path d="M114.112,93.7v60.155a8.078,8.078,0,0,1-8.066,8.066H56.3a8.079,8.079,0,0,1-8.066-8.066V93.7c0-.29.008-.564.024-.855l.065-1.694h-.073A138.918,138.918,0,0,1,52.61,61.57c.024-.121.056-.25.089-.379.459-1.863.935-3.678,1.411-5.453a12.208,12.208,0,0,1,9.534-2.452,17.968,17.968,0,0,1,6.735,2.767,19.464,19.464,0,0,0,6.009,2.67c2.912.669,4.912-.484,7.445-1.944,2.645-1.525,5.638-3.251,10.058-2.888,4.194.347,7.09,2.138,9.639,3.711a15.961,15.961,0,0,0,5.872,2.637c.274,1.1.54,2.2.8,3.323a136.1,136.1,0,0,1,3.9,27.585H114l.089,1.694C114.1,93.132,114.112,93.406,114.112,93.7Z" fill="#dfdfdf"/>
      </g>
      <g>
        <path d="M106.78,16.143v8.413a4.945,4.945,0,0,1-4.936,4.928H60.506a4.95,4.95,0,0,1-4.936-4.928V16.143a4.95,4.95,0,0,1,4.936-4.928h41.338A4.945,4.945,0,0,1,106.78,16.143Z" fill="#429cb4"/>
        <path d="M101.844,31.5H60.507a6.956,6.956,0,0,1-6.953-6.945V16.143A6.956,6.956,0,0,1,60.507,9.2h41.337a6.956,6.956,0,0,1,6.953,6.945v8.412A6.956,6.956,0,0,1,101.844,31.5ZM60.507,13.231a2.919,2.919,0,0,0-2.92,2.912v8.412a2.919,2.919,0,0,0,2.92,2.912h41.337a2.919,2.919,0,0,0,2.92-2.912V16.143a2.919,2.919,0,0,0-2.92-2.912Z" fill="#343434"/>
      </g>
      <path d="M111.418,63.57c-.2.008-.4.008-.6.008-.21,0-.419-.008-.621-.016-3.42-.169-5.928-1.71-8.364-3.218-2.46-1.516-4.783-2.952-8.211-3.235s-5.727,1.057-8.179,2.469c-2.775,1.6-5.638,3.242-9.784,2.282a22.5,22.5,0,0,1-6.936-3.032,14.72,14.72,0,0,0-5.59-2.356c-3.767-.6-6.671.8-10.526,5.1-.186.194-.363.4-.54.6l-1.049-.9L49.65,60.094l-.024-.024c.016-.017.024-.033.04-.049.734-.847,1.492-1.677,2.291-2.444a22.055,22.055,0,0,1,2.153-1.839,12.209,12.209,0,0,1,9.534-2.452,17.968,17.968,0,0,1,6.735,2.767,19.464,19.464,0,0,0,6.009,2.67c2.912.669,4.912-.484,7.445-1.944,2.645-1.525,5.638-3.251,10.058-2.888,4.194.347,7.09,2.138,9.639,3.711a15.961,15.961,0,0,0,5.872,2.637,8.4,8.4,0,0,0,1.71.105.977.977,0,0,0,.153,0l.04.8Z" fill="#343434"/>
      <g>
        <path d="M168.473,115.008,66.2,127.38l30.563-14.988a9.945,9.945,0,0,0,7.216,3.187c5.8,0,10.5-5.2,10.5-11.615a2.415,2.415,0,0,0-.009-.255L137.652,92.35Z" fill="#eee418"/>
        <path d="M66.2,128.993a1.613,1.613,0,0,1-.709-3.061l30.563-14.988a1.611,1.611,0,0,1,1.877.334,8.34,8.34,0,0,0,6.049,2.687c4.9,0,8.886-4.487,8.886-10v-.094a1.69,1.69,0,0,1,.9-1.61L136.942,90.9a1.617,1.617,0,0,1,1.665.149l30.821,22.658a1.613,1.613,0,0,1-.761,2.9L66.4,128.981A1.62,1.62,0,0,1,66.2,128.993Zm30.266-14.658-21,10.3,88.77-10.739L137.484,94.228,116.076,104.72c-.36,6.943-5.647,12.471-12.093,12.471A11.421,11.421,0,0,1,96.469,114.335Z" fill="#343434"/>
      </g>
      <g>
        <path d="M161.969,128.52c0,3.964,2.918,7.179,6.5,7.179v15.086L66.2,163.157v-8.733a8.708,8.708,0,0,0,0-16.787V127.38l102.269-12.372v6.324C164.887,121.332,161.969,124.547,161.969,128.52Z" fill="#d2c918"/>
        <path d="M66.2,164.77a1.613,1.613,0,0,1-1.613-1.613v-8.733a1.614,1.614,0,0,1,1.312-1.585c2.942-.557,5.076-3.423,5.076-6.814a6.684,6.684,0,0,0-5.076-6.8,1.612,1.612,0,0,1-1.312-1.585V127.38a1.612,1.612,0,0,1,1.419-1.6l102.269-12.372a1.611,1.611,0,0,1,1.807,1.6v6.323a1.614,1.614,0,0,1-1.613,1.614c-2.7,0-4.891,2.5-4.891,5.576s2.194,5.565,4.891,5.565a1.614,1.614,0,0,1,1.613,1.614v15.085a1.613,1.613,0,0,1-1.419,1.6L66.4,164.758A1.591,1.591,0,0,1,66.2,164.77Zm1.613-9.117v5.683l99.043-11.98V137.139a8.968,8.968,0,0,1,0-17.246v-3.065L67.817,128.81v7.6a10.441,10.441,0,0,1,0,19.245Z" fill="#343434"/>
      </g>
      <g>
        <ellipse cx="90.634" cy="143.222" rx="5.812" ry="6.424" fill="#a49c24"/>
        <ellipse cx="90.634" cy="143.222" rx="5.812" ry="6.424" fill="none"/>
      </g>
      <g>
        <ellipse cx="130.824" cy="128.233" rx="4.746" ry="5.246" fill="#a49c24"/>
        <ellipse cx="130.824" cy="128.233" rx="4.746" ry="5.246" fill="none"/>
      </g>
      <g>
        <ellipse cx="138.407" cy="103.001" rx="4.746" ry="3.628" fill="#a49c24"/>
        <ellipse cx="138.407" cy="103.001" rx="4.746" ry="3.628" fill="none"/>
      </g>
      <g>
        <ellipse cx="119.781" cy="113.893" rx="3.851" ry="3.141" fill="#a49c24"/>
        <ellipse cx="119.781" cy="113.893" rx="3.851" ry="3.141" fill="none"/>
      </g>
      <g>
        <ellipse cx="150.817" cy="141.176" rx="7.663" ry="8.47" fill="#a49c24"/>
        <ellipse cx="150.817" cy="141.176" rx="7.663" ry="8.47" fill="none"/>
      </g>
    </g>
    <g>
      <path d="M143.439,226.225V235.1c-.072.173-.133.357-.2.541a17.436,17.436,0,0,0-.643,1.948,21.305,21.305,0,0,1-6.936,11.189c-12.147,10.332-24.713,16.3-38.412,18.247a72.191,72.191,0,0,0-19.481,5.345,24.376,24.376,0,0,1-10,2.489,14.824,14.824,0,0,1-3.468-.4,14.274,14.274,0,0,0-3.366-.429c-4.9,0-7.986,3.081-10.138,5.763a.486.486,0,0,1-.143.143,4.708,4.708,0,0,0-1.469,5.477,10.237,10.237,0,0,1-.326,7.1c-1.255,3.407-3.764,5.59-8.364,7.263H36.474c-4.671-1.592-7.6-4.366-8.955-8.476a3.959,3.959,0,0,0-2.428-2.51c-3.5-1.285-5.813-3.876-7.486-8.4v-3.978c.061-.184.132-.357.2-.53.173-.449.347-.9.51-1.347A10.852,10.852,0,0,1,28.4,267.055a10.453,10.453,0,0,1,2.295.265,11.053,11.053,0,0,0,2.407.3,7.465,7.465,0,0,0,6.1-3.162,17.078,17.078,0,0,1,1.774-1.775,5.391,5.391,0,0,0,1.7-5.793,27.859,27.859,0,0,1,2.743-21,34.534,34.534,0,0,0,4.029-12.7,70.474,70.474,0,0,1,6.018-22.236c4.712-10.067,9.568-16.829,15.738-21.9,2.479-2.039,5.4-3.07,8.5-4.161.857-.3,1.744-.612,2.611-.938h9.047c.143.051.3.1.449.153.51.173,1.03.346,1.591.479,19.349,4.58,33.965,16.289,44.695,35.791,2.071,3.774,3.183,7.823,4.355,12.107.245.9.49,1.795.745,2.693A2.839,2.839,0,0,0,143.439,226.225Zm-9.914,17.962c3.447-3.641,5.191-8.823,4.9-14.616a33.862,33.862,0,0,0-1.622-9.027c-5.375-16.442-16.667-29.069-33.557-37.525a36.11,36.11,0,0,0-16.259-4.07c-.581,0-1.173.021-1.754.051-9.4.51-15.963,6.6-16.717,15.524a35.684,35.684,0,0,0,2.672,16.952,64.834,64.834,0,0,0,22.3,27.744c6.558,4.722,14.963,9.587,27.59,9.842.326.021.642.031.959.031A15.711,15.711,0,0,0,133.525,244.187Zm-21.338,13.535c1.428-.459,2.081-1.306,1.938-2.489a2.415,2.415,0,0,0-2.234-2.019,1.917,1.917,0,0,1-.255-.051c-.734-.225-1.489-.418-2.213-.612a27.938,27.938,0,0,1-3.886-1.214c-22.164-9.435-35.74-24.643-41.5-46.46-.01-.071-.02-.163-.031-.255-.183-2-1.326-2.438-2.254-2.458H61.7c-1.54,0-2.07,1.448-2.264,2-.031.082-.061.174-.092.245a50.109,50.109,0,0,0-4.11,13.872c-1.071,8.629-3.989,16.391-6.691,22.857-3,7.14-2.55,14.229,1.254,19.951a19.27,19.27,0,0,0,15.84,8.547c.368,0,.745-.01,1.112-.041.316.021.632.021.949.021a17.932,17.932,0,0,0,7.364-1.489c6.517-2.928,13.841-4.917,23.051-6.263a54.741,54.741,0,0,0,13.862-4.059C112.034,257.773,112.115,257.753,112.187,257.722Zm-62.769,16.2A4.071,4.071,0,0,0,51,270.91a3.5,3.5,0,0,0-1.469-2.539,8.727,8.727,0,0,1-.653-.592,4.477,4.477,0,0,0-3.09-1.673,3.941,3.941,0,0,0-2.826,1.418c-1.53,1.6-3.141,3.182-4.7,4.7l-.428.418c-1.306,1.285-2,1.755-2.57,1.755a6.3,6.3,0,0,1-2.652-1.1,7.534,7.534,0,0,0-3.774-1.132,6.1,6.1,0,0,0-3.519,1.163,5.685,5.685,0,0,0-2.4,6.191c.581,2.631,2.387,4.284,5.385,4.916,1.673.357,2.877.612,3.2.969.337.388.51,1.632.775,3.529a6.243,6.243,0,0,0,6.14,5.722h.072a5.85,5.85,0,0,0,5.181-2.845,6.832,6.832,0,0,0-.163-6.834c-1.662-3.009-1.6-3.509.775-5.937l.2-.214C46.093,277.2,47.745,275.521,49.418,273.919Z" fill="#343434"/>
      <path d="M138.421,229.571c.3,5.793-1.449,10.975-4.9,14.616a15.711,15.711,0,0,1-11.5,4.906c-.317,0-.633-.01-.959-.031-12.627-.255-21.032-5.12-27.59-9.842a64.834,64.834,0,0,1-22.3-27.744,35.684,35.684,0,0,1-2.672-16.952C69.266,185.6,75.825,179.51,85.229,179c.581-.03,1.173-.051,1.754-.051a36.11,36.11,0,0,1,16.259,4.07c16.89,8.456,28.182,21.083,33.557,37.525A33.862,33.862,0,0,1,138.421,229.571Zm-23.062-7.334a7.682,7.682,0,0,0,1.907-5.334c-.02-7.324-8.078-16.085-15.4-16.738-.4-.031-.786-.051-1.163-.051a8.043,8.043,0,0,0-5.549,1.866,6.372,6.372,0,0,0-1.978,4.856,10.639,10.639,0,0,0,.489,3.08c2.254,7.527,7.283,12.26,14.943,14.075a9.034,9.034,0,0,0,1.989.235A6.322,6.322,0,0,0,115.359,222.237Z" fill="#c77b80"/>
      <path d="M117.266,216.9a7.682,7.682,0,0,1-1.907,5.334,6.322,6.322,0,0,1-4.763,1.989,9.034,9.034,0,0,1-1.989-.235c-7.66-1.815-12.689-6.548-14.943-14.075a10.639,10.639,0,0,1-.489-3.08,6.372,6.372,0,0,1,1.978-4.856,8.043,8.043,0,0,1,5.549-1.866c.377,0,.765.02,1.163.051C109.188,200.818,117.246,209.579,117.266,216.9Zm-5.6,1.183a2.7,2.7,0,0,0,.663-1.816,4.687,4.687,0,0,0-.337-1.581,15.486,15.486,0,0,0-6.8-8.078,9.217,9.217,0,0,0-3.784-1.52l-.133-.02-.132.01a2.627,2.627,0,0,0-2.8,2.652,4.559,4.559,0,0,0,.326,1.561,15.612,15.612,0,0,0,9.445,9.445,4.291,4.291,0,0,0,1.459.306A2.722,2.722,0,0,0,111.667,218.086Z" fill="#343434"/>
      <path d="M114.125,255.233c.143,1.183-.51,2.03-1.938,2.489-.072.031-.153.051-.214.082a54.741,54.741,0,0,1-13.862,4.059c-9.21,1.346-16.534,3.335-23.051,6.263a17.932,17.932,0,0,1-7.364,1.489c-.317,0-.633,0-.949-.021-.367.031-.744.041-1.112.041a19.27,19.27,0,0,1-15.84-8.547c-3.8-5.722-4.253-12.811-1.254-19.951,2.7-6.466,5.62-14.228,6.691-22.857a50.109,50.109,0,0,1,4.11-13.872c.031-.071.061-.163.092-.245.194-.551.724-2,2.264-2h.051c.928.02,2.071.459,2.254,2.458.011.092.021.184.031.255,5.763,21.817,19.339,37.025,41.5,46.46a27.938,27.938,0,0,0,3.886,1.214c.724.194,1.479.387,2.213.612a1.917,1.917,0,0,0,.255.051A2.415,2.415,0,0,1,114.125,255.233Z" fill="#925c14"/>
      <path d="M112.33,216.27a2.75,2.75,0,0,1-2.754,2.775,4.291,4.291,0,0,1-1.459-.306,15.612,15.612,0,0,1-9.445-9.445,4.559,4.559,0,0,1-.326-1.561,2.627,2.627,0,0,1,2.8-2.652l.132-.01.133.02a9.217,9.217,0,0,1,3.784,1.52,15.486,15.486,0,0,1,6.8,8.078A4.687,4.687,0,0,1,112.33,216.27Z" fill="#fff0a6"/>
      <path d="M51,270.91a4.071,4.071,0,0,1-1.581,3.009c-1.673,1.6-3.325,3.284-4.927,4.906l-.2.214c-2.376,2.428-2.437,2.928-.775,5.937a6.832,6.832,0,0,1,.163,6.834,5.85,5.85,0,0,1-5.181,2.845h-.072a6.243,6.243,0,0,1-6.14-5.722c-.265-1.9-.438-3.141-.775-3.529-.326-.357-1.53-.612-3.2-.969-3-.632-4.8-2.285-5.385-4.916a5.685,5.685,0,0,1,2.4-6.191,6.1,6.1,0,0,1,3.519-1.163,7.534,7.534,0,0,1,3.774,1.132,6.3,6.3,0,0,0,2.652,1.1c.571,0,1.264-.47,2.57-1.755l.428-.418c1.561-1.52,3.172-3.1,4.7-4.7a3.941,3.941,0,0,1,2.826-1.418,4.477,4.477,0,0,1,3.09,1.673,8.727,8.727,0,0,0,.653.592A3.5,3.5,0,0,1,51,270.91Z" fill="#fff0a6"/>
    </g>
    <g>
      <path d="M88.836,330.571a.528.528,0,0,1-.148.143c-.327.207-.89.045-1.313.007a40.952,40.952,0,0,1-7.661-1.539,20.53,20.53,0,0,1-11.021-7.019A23.615,23.615,0,0,1,65.08,315.9a22.27,22.27,0,0,1-1.192-11.638,21.242,21.242,0,0,1,4.433-10.233,3.357,3.357,0,0,1,1-.833,3.3,3.3,0,0,1,2.893.289,22.108,22.108,0,0,1,6.223,4.388,30.009,30.009,0,0,1,6.1,10.055c.35.913.665,1.841.954,2.779a91.886,91.886,0,0,1,2.783,13.658c.2,1.393.41,2.786.5,4.191C88.809,328.972,89.064,330.231,88.836,330.571Z" fill="#009c53"/>
      <path d="M84.538,307.93a1.9,1.9,0,0,1-1.377-.512c-2.076-1.552-3.66-3.682-5.676-5.317s-4.779-2.763-7.2-1.819a8.951,8.951,0,0,0-3.647,3.263,49.7,49.7,0,0,0-3.05,4.63,22.06,22.06,0,0,1,.3-3.911,21.242,21.242,0,0,1,4.433-10.233,3.357,3.357,0,0,1,1-.833,3.3,3.3,0,0,1,2.893.289,22.108,22.108,0,0,1,6.223,4.388A30.009,30.009,0,0,1,84.538,307.93Z" fill="#46bc5d"/>
      <path d="M88.241,332.088a4.9,4.9,0,0,1-.734-.068c-.086-.012-.169-.026-.246-.033a41.862,41.862,0,0,1-7.9-1.585c-5.155-1.507-8.751-3.8-11.659-7.445a24.849,24.849,0,0,1-3.8-6.6,23.551,23.551,0,0,1-1.261-12.3,22.336,22.336,0,0,1,4.732-10.865,4.6,4.6,0,0,1,1.4-1.136,4.468,4.468,0,0,1,4.039.3A23.687,23.687,0,0,1,79.368,297a33.083,33.083,0,0,1,7.341,13.333,93.431,93.431,0,0,1,2.825,13.846l.017.123c.2,1.354.4,2.753.5,4.167.005.078.022.2.04.333a3.551,3.551,0,0,1-.2,2.476l-.006.008a1.785,1.785,0,0,1-.489.483l-.028.018A2.062,2.062,0,0,1,88.241,332.088Zm.595-1.517ZM70.35,294.246a1.061,1.061,0,0,0-.466.094,2.287,2.287,0,0,0-.609.532,19.756,19.756,0,0,0-4.132,9.6,21.028,21.028,0,0,0,1.124,10.975,22.356,22.356,0,0,0,3.419,5.924c2.6,3.251,5.7,5.222,10.385,6.592a39.4,39.4,0,0,0,7.422,1.493l.118.013c-.016-.127-.031-.244-.042-.325-.027-.2-.049-.378-.057-.5-.09-1.317-.287-2.667-.478-3.973l-.018-.122a91,91,0,0,0-2.739-13.467,30.614,30.614,0,0,0-6.761-12.337,20.459,20.459,0,0,0-5.876-4.128A2.957,2.957,0,0,0,70.35,294.246Z" fill="#303030"/>
      <path d="M112.28,308.681a22.6,22.6,0,0,1-.757,5.059,23.379,23.379,0,0,1-3.081,6.849,35.67,35.67,0,0,1-9.5,9.324c-1.876,1.313-3.825,2.512-5.8,3.66q-1.479.858-2.973,1.689c-.471.264-2.684,1.109-2.834,1.58,0,0-6.738,21.271-7.091,6.382-.1-4.232-.133-8.471.1-12.7a41.482,41.482,0,0,1,.925-6.831,23.034,23.034,0,0,1,6.516-12.179A25.262,25.262,0,0,1,99.6,305.51a24.922,24.922,0,0,1,6.662-.5c1.724.108,4.713-.054,5.7,1.7A3.7,3.7,0,0,1,112.28,308.681Z" fill="#009c53"/>
      <path d="M112.28,308.681a22.6,22.6,0,0,1-.757,5.059,11.546,11.546,0,0,0-2.779-1.307,18.277,18.277,0,0,0-6.1-.34c-4.614.5-8.942,2.432-13.1,4.493-3.386,1.682-7.005,3.774-8.261,7.342l-.01-.232a23.034,23.034,0,0,1,6.516-12.179A25.262,25.262,0,0,1,99.6,305.51a24.922,24.922,0,0,1,6.662-.5c1.724.108,4.713-.054,5.7,1.7A3.7,3.7,0,0,1,112.28,308.681Z" fill="#46bc5d"/>
      <path d="M81.611,349.789a2.194,2.194,0,0,1-.292-.021c-1.83-.261-2.263-2.793-2.352-6.514-.091-3.781-.149-8.26.107-12.8a42.837,42.837,0,0,1,.955-7.041c1.236-5.461,3.556-9.78,6.9-12.836a26.636,26.636,0,0,1,19.408-6.833c.229.014.478.023.743.033,1.906.071,4.786.179,5.992,2.315a4.838,4.838,0,0,1,.481,2.636,23.925,23.925,0,0,1-.8,5.341,24.561,24.561,0,0,1-3.249,7.221,36.643,36.643,0,0,1-9.833,9.664c-1.7,1.186-3.568,2.368-5.895,3.718-.964.56-1.971,1.132-2.993,1.7-.171.1-.423.209-.771.365a16.5,16.5,0,0,0-1.558.765c-.264.815-1.085,3.282-2.094,5.761C84.217,348.522,82.878,349.789,81.611,349.789Zm23.148-43.549a24.158,24.158,0,0,0-16.115,6.215c-2.951,2.7-5.015,6.576-6.134,11.522a40.3,40.3,0,0,0-.9,6.622c-.251,4.448-.193,8.863-.1,12.6a19.207,19.207,0,0,0,.322,3.541c1.145-1.635,3-6.228,4.285-10.277.256-.805,1.065-1.24,2.852-2.041.221-.1.5-.223.572-.265,1.012-.563,2-1.127,2.957-1.679,2.262-1.313,4.078-2.458,5.712-3.6a34.176,34.176,0,0,0,9.17-8.984,21.992,21.992,0,0,0,2.913-6.475,21.314,21.314,0,0,0,.715-4.776v0a2.7,2.7,0,0,0-.157-1.292c-.5-.894-2.529-.97-3.869-1.02-.288-.011-.559-.021-.805-.036C105.706,306.255,105.232,306.24,104.759,306.24Z" fill="#303030"/>
      <g>
        <g>
          <path d="M132.956,360.66a38.188,38.188,0,0,1-1.158,8.986,38.943,38.943,0,0,1-10.159,18.014,131.9,131.9,0,0,1-11.62,10.316c-16.354,12.882-30.438,17.769-30.438,17.769-.436-.155-4.188-1.6-4.43-1.694C63.958,409.545,53.066,403.57,44.4,395.159c-.087-.085-.591-.56-.757-.722-.238-.229-1.316-1.3-1.571-1.565-.34-.35-.677-.7-1.005-1.055,0,0-.588-.636-.709-.776a49.413,49.413,0,0,1-11.2-19.671,37.738,37.738,0,0,1-1.37-9.785c0-.391,0-.789.013-1.186,0-.061,0-.121.006-.181.016-.484.039-.967.074-1.454.022-.292.083-.973.088-1.02.024-.219.045-.436.07-.655.013-.131.029-.258.048-.385s.034-.27.054-.407.034-.254.054-.382c.036-.228.067-.455.108-.683.06-.379.127-.76.2-1.139.05-.257.1-.512.159-.766a.254.254,0,0,1,.012-.051c.048-.229.1-.461.156-.69.029-.127.061-.258.095-.385.023-.105.048-.21.077-.315l.133-.505c.172-.64.375-1.272.573-1.908q.081-.261.171-.519c.023-.07.045-.143.074-.213.066-.2.136-.4.213-.6s.155-.426.238-.636c.064-.168.131-.337.2-.5l0,0,.019-.058q.481-1.192,1.043-2.35c.143-.3.289-.591.438-.88.124-.239.4-.764.42-.792q.215-.391.442-.782a.566.566,0,0,1,.048-.086c.133-.229.442-.741.458-.767.152-.251.311-.5.474-.75s.337-.515.512-.77c.133-.194.556-.788.636-.893.117-.162.235-.321.356-.48.076-.1.528-.681.68-.872s.334-.4.506-.6c.181-.216.366-.426.55-.633.1-.114.556-.6.68-.734.093-.1.185-.194.28-.29.07-.073.388-.394.477-.48.226-.226.455-.442.687-.655.2-.191.407-.375.617-.556.229-.2.465-.405.7-.6.159-.13.8-.645.966-.769s.827-.613,1-.731.337-.235.508-.353c.007,0,.013-.01.023-.016.162-.108.836-.547,1.008-.658.349-.216.7-.429,1.055-.636.179-.1.36-.2.538-.3.359-.2.722-.395,1.087-.576s.735-.365,1.11-.537c.188-.086.372-.172.56-.255l.553-.238.013,0c.35-.147.7-.29,1.059-.423.455-.175.909-.337,1.37-.49q.477-.162.961-.308c.028-.007.057-.017.086-.026.3-.094.607-.175.912-.257.169-.045.334-.089.5-.131.206-.054.41-.1.613-.149.131-.029.732-.162.9-.2a.343.343,0,0,1,.061-.016c.3-.055.594-.118.893-.169.207-.038.417-.073.623-.105.169-.028.341-.051.509-.076.134-.02.267-.041.4-.057q.311-.043.621-.076c.178-.019.358-.039.536-.055.153-.016.3-.031.455-.041.226-.019.455-.038.681-.051.254-.016.512-.029.766-.038s.487-.019.728-.022a43.687,43.687,0,0,1,4.786.175c.188.015,1.533.155,1.73.178.34.041,1.9.248,2.239.3.636.1,1.268.2,1.9.305.986.172,6.29,1.17,6.548,1.221A.686.686,0,0,0,79,327.4c.283.054.951.184,1.043.2a.08.08,0,0,0,.025,0c.057.013.115.022.169.032l.365.07.291-.118c1.465-.575,8.133-3.116,12.515-3.377a40.182,40.182,0,0,1,13.868,1.7,38.989,38.989,0,0,1,11.018,5.27,35.121,35.121,0,0,1,14.3,23.963A36.51,36.51,0,0,1,132.956,360.66Z" fill="#eb937c"/>
          <path d="M69.1,337.161c-16.862-2.669-31.869,6.934-39.65,21.214-.262.48-1.668,2.317-1.616,2.783a13.317,13.317,0,0,1,.038-2.394c.7-9.71,5.186-19.547,12.751-25.8a34.276,34.276,0,0,1,17.929-7.554c7.416-.841,14.8.947,22.045,2.289l.291-.118a39.681,39.681,0,0,1,14.7,15.98c3.856,7.448,5.818,15.04,3.655,23.143C99.243,366.708,94.028,341.108,69.1,337.161Z" fill="#efa694"/>
          <path d="M73.475,333.141c5.09-4.206,11.148-7.666,17.7-8.408a43.481,43.481,0,0,1,22.277,3.143c8.916,4.046,12.451,10.658,15.61,15.107,4.856,6.838,5.142,20.7,2.979,28.807,0,0-1.815-32.009-31.833-35.619a40.729,40.729,0,0,0-10.3-.133Z" fill="#efa694"/>
        </g>
        <path d="M110.019,397.976c-16.354,12.882-30.438,17.769-30.438,17.769-.436-.155-4.188-1.6-4.43-1.694C63.958,409.545,53.066,403.57,44.4,395.159c-.087-.085-.591-.56-.757-.722-.238-.229-1.316-1.3-1.571-1.565-.34-.35-.677-.7-1.005-1.055-.114-.124-.588-.636-.709-.776a49.413,49.413,0,0,1-11.2-19.671c4.767,6.986,9.686,14.09,16.517,19.073,8.395,6.124,18.539,12.522,28.886,13.441C86.249,404.924,98.085,402.294,110.019,397.976Z" fill="#de896e"/>
      </g>
      <path d="M98.529,367.551c.7-10.4-2.087-22.664-8.422-30.313a37.412,37.412,0,0,0-9.922-8.429s-7.923-1.473-8.141-1.522a42.362,42.362,0,0,0-10.2-.918,38.447,38.447,0,0,0-6.1.669l-.073.017a31.813,31.813,0,0,0-14.49,6.78,32.619,32.619,0,0,0-9.471,13.526l0,.01c-.008.021-.015.041-.024.061a42.519,42.519,0,0,0-2.716,12.843c-.014.293-.022.554-.028.782-.219,9.962,4.029,20.063,12.284,29.206l.019.022q.159.185.33.363l.032.035c.074.084.152.167.231.252,0,0,.737.783,1.071,1.125.25.259,1.31,1.311,1.546,1.538.16.154.709.676.757.722,7.82,7.322,18.33,13.775,30.383,18.65,0,0,3.96,1.527,4.388,1.682a1.164,1.164,0,0,1-.4,2.259,1.149,1.149,0,0,1-.4-.07c-.439-.159-4.461-1.709-4.461-1.709-12.5-5.056-22.967-11.49-31.122-19.126,0,0-1.537-1.482-1.567-1.513-.28-.278-.542-.543-.8-.811-.344-.353-1.626-1.725-1.752-1.871-8.654-9.589-13.1-20.242-12.872-30.808.007-.247.015-.527.031-.84a44.885,44.885,0,0,1,2.873-13.579s.02-.054.029-.075a34.926,34.926,0,0,1,10.146-14.462,34.117,34.117,0,0,1,15.5-7.27c.039-.01.078-.018.116-.025a41,41,0,0,1,6.47-.711,44.806,44.806,0,0,1,10.777.972c.207.046,8.268,1.545,8.268,1.545a1.172,1.172,0,0,1,.37.137A39.767,39.767,0,0,1,91.9,335.753c6.718,8.11,9.692,20.96,8.953,31.955Zm-42.842-40.5-.013,0Zm0,0Z" fill="#303030"/>
      <path d="M79.579,416.911a1.148,1.148,0,0,1-.4-.07c-.439-.159-4.461-1.709-4.461-1.709C62.2,410.093,51.735,403.66,43.6,396.006l-.266-.25c-.174-.16-.346-.325-.517-.5-.22-.208-1.326-1.309-1.586-1.577-.344-.353-.689-.712-1.024-1.074-.112-.121-.223-.241-.333-.362-.139-.146-.275-.295-.405-.447-8.339-9.274-12.79-19.727-12.853-30.208,0-.488,0-.965.021-1.417.015-.511.041-1.017.075-1.494a40.212,40.212,0,0,1,2.8-12.108l.029-.075A36.281,36.281,0,0,1,39.883,332.07a35.281,35.281,0,0,1,15.292-7.291c.039-.01.077-.019.116-.026,1.052-.212,2.105-.379,3.131-.5,1.066-.124,2.166-.195,3.361-.217A56.672,56.672,0,0,1,72.491,325c1.628.276,7.989,1.493,7.989,1.493,1.924-.757,8.4-3.185,12.856-3.449a41.935,41.935,0,0,1,25.62,7.175,36.292,36.292,0,0,1,14.789,24.757,37.848,37.848,0,0,1,.375,5.689,40.146,40.146,0,0,1-11.66,27.815c-20.615,20.616-42.283,28.288-42.5,28.364A1.16,1.16,0,0,1,79.579,416.911Zm-47.9-69.467a37.119,37.119,0,0,0-2.641,11.4c-.031.445-.055.918-.07,1.407-.016.426-.023.868-.02,1.322.076,12.511,6.716,22.5,12.275,28.687.124.145.235.266.349.385l.346.376c.323.349.654.694.988,1.036.25.259,1.307,1.31,1.54,1.532.171.171.322.316.475.456l.024.022c.039.038.216.2.264.25,7.912,7.444,18.139,13.722,30.383,18.65,0,0,3.694,1.428,3.99,1.537,2.952-1.112,22.51-8.945,41.236-27.67a37.8,37.8,0,0,0,10.978-26.189,35.593,35.593,0,0,0-.352-5.34,33.961,33.961,0,0,0-13.816-23.176,39.5,39.5,0,0,0-24.151-6.76c-4.234.25-10.87,2.79-12.157,3.3l-.285.114a1.163,1.163,0,0,1-.647.063S73.707,327.57,72.1,327.3a54.373,54.373,0,0,0-10.276-.93c-1.12.021-2.146.087-3.14.2-.965.11-1.956.267-2.946.467l-.061.015a32.939,32.939,0,0,0-14.314,6.812A33.926,33.926,0,0,0,31.7,347.371C31.694,347.4,31.684,347.42,31.675,347.444Zm24.012-20.4-.013,0Zm0,0Z" fill="#303030"/>
    </g>
    <g>
      <path d="M101.562,500.139c-4.017,3.271-9.2,7.521-14.894,12.106-2.656,2.144-5.424,4.362-8.238,6.58-10.215,8.08-20.97,16.226-28.957,21.24-4.959,3.113-10.243-.7-9.376-6.487.354-2.348.941-5.163,1.7-8.294v-.01c.774-3.187,1.725-6.7,2.778-10.354,4.324-14.986,10.354-32.312,12.908-39.489.764-2.143,1.211-3.383,1.211-3.383a16.4,16.4,0,0,1,3.309-5.759c5.993-6.878,17.391-9.637,25.35-5.266a1.581,1.581,0,0,1,.214.121c.364.2.727.42,1.072.662l3.281,1.845.708.4,7.642,4.3C110.127,475.087,110.807,492.59,101.562,500.139Z" fill="#f29049"/>
      <path d="M80.684,483.2a5.076,5.076,0,0,1-4.166,2.172,5.009,5.009,0,0,1-2.861-.895l-14.67-10.149c.765-2.144,1.212-3.383,1.212-3.383a16.4,16.4,0,0,1,3.309-5.76L79.4,476.171A5.072,5.072,0,0,1,80.684,483.2Z" fill="#be681c"/>
      <path d="M88.168,511.139c-2.656,2.144-5.424,4.362-8.239,6.58l-13.858-9.581a5.047,5.047,0,0,1,2.889-9.2,5.008,5.008,0,0,1,2.861.894Z" fill="#be681c"/>
      <path d="M52.286,524.252a5.073,5.073,0,0,1-4.166,2.172,5.012,5.012,0,0,1-2.861-.895L43.3,524.178v-.01c.774-3.187,1.724-6.7,2.777-10.354l4.931,3.411A5.061,5.061,0,0,1,52.286,524.252Z" fill="#be681c"/>
      <g>
        <path d="M87.5,459.478q-2.946-4.882-6.067-9.66c-2.911-4.442-7.386-8.5-8.817-13.735-.9-3.283-.165-7.574,3.2-9.2a7.879,7.879,0,0,1,6,.029C93.872,431.238,93.011,450.493,87.5,459.478Z" fill="#60b463"/>
        <path d="M87.492,462.739l-1.439-2.384c-2.028-3.362-4.058-6.594-6.033-9.608-.89-1.359-1.933-2.68-3.037-4.077-2.425-3.072-4.934-6.248-6-10.139-1.1-4.039-.05-9.17,4.1-11.17a9.484,9.484,0,0,1,7.312-.036c4.324,1.55,7.521,4.956,9.242,9.847,3.021,8.584.868,19.385-2.69,25.193ZM78.538,428a4.573,4.573,0,0,0-1.983.415c-2.453,1.183-3.017,4.606-2.3,7.225.884,3.224,3.174,6.125,5.389,8.933,1.1,1.392,2.239,2.835,3.212,4.318,1.484,2.263,3,4.65,4.519,7.119,2.307-5.459,3.265-13.473,1.069-19.711-1.391-3.952-3.81-6.571-7.19-7.783A8.254,8.254,0,0,0,78.538,428Z" fill="#333"/>
      </g>
      <g>
        <path d="M91.374,463.4c1.607-.321,2.583-15.036,2.805-16.792.8-6.27,1.511-12.594,1.833-18.91.281-5.506,2.408-8.969,7.451-11.346,6.5-3.06,13.751,1.3,16.469,7.518,3.739,8.554-2.434,17.7-7.616,24.2C107.1,454.608,99.892,461.7,91.374,463.4Z" fill="#60b463"/>
        <path d="M91.7,465.063l-.663-3.324a1.2,1.2,0,0,0-.738.435c.607-.962,1.283-5.609,2.01-13.811.084-.955.146-1.657.185-1.968.716-5.629,1.489-12.264,1.823-18.784.319-6.251,2.915-10.195,8.418-12.791a12.283,12.283,0,0,1,9.74-.313,16.393,16.393,0,0,1,9,8.683c4.028,9.218-2.076,18.7-7.843,25.934C106.376,458.237,99,463.6,91.721,465.06A.038.038,0,0,0,91.7,465.063Zm16.2-48.019a8.635,8.635,0,0,0-3.718.84c-4.348,2.051-6.227,4.919-6.481,9.9-.337,6.632-1.121,13.346-1.843,19.039-.037.29-.094.947-.173,1.837a122.093,122.093,0,0,1-1.477,12.163c5.489-2.077,11.12-6.709,16.782-13.812,5.175-6.489,10.691-14.906,7.388-22.462a12.94,12.94,0,0,0-7.093-6.869A9.641,9.641,0,0,0,107.9,417.044Z" fill="#333"/>
      </g>
      <g>
        <path d="M98.268,466.807c1.189.755,6.29-2.946,7.485-3.577,4.285-2.263,8.035-5.134,12.125-7.662,3.341-2.065,7.761-2.839,10.462.646a7.318,7.318,0,0,1,1.025,6.256C126.056,475.311,106.553,472.209,98.268,466.807Z" fill="#60b463"/>
        <path d="M115.047,473.166a34.737,34.737,0,0,1-17.7-4.94l1.833-2.85a.792.792,0,0,0-.5-.163c.866-.059,3.75-1.9,4.836-2.593.636-.405,1.154-.731,1.449-.889a83.374,83.374,0,0,0,7.527-4.67c1.482-.992,2.967-1.987,4.5-2.934,4.882-3.016,9.864-2.6,12.692,1.049a8.988,8.988,0,0,1,1.326,7.716,12.736,12.736,0,0,1-8.074,8.956A21.952,21.952,0,0,1,115.047,473.166Zm-12.479-6c5.77,2.489,13.751,3.611,19.137,1.519a9.351,9.351,0,0,0,6.02-6.642,5.607,5.607,0,0,0-.724-4.8c-2.592-3.342-6.958-1.028-8.232-.242-1.5.926-2.947,1.9-4.4,2.868a87.364,87.364,0,0,1-7.831,4.853c-.247.13-.677.408-1.209.749C104.33,466.119,103.409,466.694,102.568,467.17Z" fill="#333"/>
      </g>
      <path d="M45.832,542.878a7.247,7.247,0,0,1-4-1.2,8.3,8.3,0,0,1-3.407-8.355c.344-2.281.913-5.06,1.69-8.259l.045-.193c.742-3.052,1.682-6.561,2.8-10.424,4.563-15.817,11.058-34.3,12.94-39.588l1.214-3.389a17.967,17.967,0,0,1,3.625-6.3c6.729-7.724,19.043-10.251,27.441-5.635l.377.219a11.543,11.543,0,0,1,1.066.659l11.49,6.454c5.171,3.53,8.362,9.832,8.664,16.937.3,7.151-2.366,13.746-7.137,17.642h0l-2.9,2.369c-3.49,2.851-7.59,6.2-12,9.745-2.658,2.145-5.432,4.367-8.252,6.591-12.653,10.01-22.174,16.993-29.1,21.345A8.565,8.565,0,0,1,45.832,542.878Zm-2.336-17.4-.048.209c-.776,3.181-1.34,5.919-1.676,8.144a4.958,4.958,0,0,0,1.91,5.016,4.4,4.4,0,0,0,4.89-.216C55.3,534.406,65,527.295,77.379,517.5c2.812-2.217,5.573-4.428,8.224-6.571,4.4-3.543,8.5-6.884,11.983-9.73l2.905-2.372c3.948-3.224,6.151-8.782,5.894-14.872-.256-6.042-2.9-11.354-7.066-14.206l-11.506-6.465c-.443-.3-.761-.486-1.078-.664-7.156-3.937-17.808-1.69-23.449,4.785a14.7,14.7,0,0,0-2.974,5.166L59.084,476c-1.873,5.265-8.34,23.668-12.876,39.391C45.131,519.126,44.219,522.518,43.5,525.478Z" fill="#333"/>
    </g>
    <g>
      <path d="M151.8,613.729a20.209,20.209,0,0,1-.509,3.133,365.988,365.988,0,0,1-67,6c-39.979,0-67.988-6.025-68.389-6.105l-3.856-.937c-.081-.589-.161-1.206-.188-1.795-.562-9.773,7.23-18.931,13.844-24.849a60.989,60.989,0,0,1,15.37-9.693c-1.687,3.963-3.668,11-1.2,18.53a5.883,5.883,0,0,0,2.946,3.32,6.016,6.016,0,0,0,2.651.616,5.834,5.834,0,0,0,1.928-.321,5.9,5.9,0,0,0,3.641-7.552c-2.918-8.89,1.393-17.325,2.41-19.172a102.444,102.444,0,0,1,15.344-3.294c-1.607,3.428-4.1,11.032-2.089,22.413a6.768,6.768,0,0,0,6.641,5.623,4.5,4.5,0,0,0,.589-.027,6.581,6.581,0,0,0,4.659-2.57,6.672,6.672,0,0,0,1.339-5.2c-1.9-11.889,1.473-19.226,2.624-21.261.322-.027.616-.027.938-.027a93.863,93.863,0,0,1,18.1,1.687c-.268.348-.509.7-.75,1.071a24.76,24.76,0,0,0-2.6,20.94c.589,1.874,2.3,7.23,6.614,7.23a5.112,5.112,0,0,0,1.392-.188,5.373,5.373,0,0,0,3.8-3.534,9.751,9.751,0,0,0-.188-4.9,15.263,15.263,0,0,1-.321-1.874,24.175,24.175,0,0,1,.268-5.891,20.746,20.746,0,0,1,4.364-9.452,71.65,71.65,0,0,1,21.262,11.889C146.823,596.859,152.339,605.7,151.8,613.729Z" fill="#fabb48"/>
      <path d="M151.295,616.862c-1.848,6.748-7.846,11.7-12.907,14.835a24.428,24.428,0,0,1-12.8,3.534H35.51a20.345,20.345,0,0,1-11.756-3.615q-10.242-7.189-11.7-15.8l3.856.937c.4.08,28.41,6.105,68.389,6.105A365.988,365.988,0,0,0,151.295,616.862Z" fill="#f6a42c"/>
      <path d="M109.87,592.869a9.751,9.751,0,0,1,.188,4.9,5.373,5.373,0,0,1-3.8,3.534,5.112,5.112,0,0,1-1.392.188c-4.311,0-6.025-5.356-6.614-7.23a24.76,24.76,0,0,1,2.6-20.94c.241-.375.482-.723.75-1.071.911.16,1.848.375,2.758.562-.428.536-.857,1.152-1.365,1.9a22.444,22.444,0,0,0-2.33,18.771c1.74,5.356,3.561,5.677,5.007,5.329a2.694,2.694,0,0,0,1.928-1.821,7.975,7.975,0,0,0-.214-3.588,20.5,20.5,0,0,1-.375-2.169,25.917,25.917,0,0,1,.3-6.587,22.763,22.763,0,0,1,4.311-9.854c.83.241,1.714.562,2.57.857a20.746,20.746,0,0,0-4.364,9.452,24.175,24.175,0,0,0-.268,5.891A15.263,15.263,0,0,0,109.87,592.869Z" fill="#3d0f1c"/>
      <path d="M107.38,593.405a7.975,7.975,0,0,1,.214,3.588,2.694,2.694,0,0,1-1.928,1.821c-1.446.348-3.267.027-5.007-5.329a22.444,22.444,0,0,1,2.33-18.771c.508-.749.937-1.365,1.365-1.9,2.437.536,4.874,1.205,7.257,1.982a22.763,22.763,0,0,0-4.311,9.854,25.917,25.917,0,0,0-.3,6.587A20.5,20.5,0,0,0,107.38,593.405Z" fill="#f6a42c"/>
      <path d="M79.933,591.852a6.672,6.672,0,0,1-1.339,5.2,6.581,6.581,0,0,1-4.659,2.57,4.5,4.5,0,0,1-.589.027,6.768,6.768,0,0,1-6.641-5.623c-2.008-11.381.482-18.985,2.089-22.413,1.044-.16,2.062-.294,3.106-.4-.777,1.312-5.007,9.078-2.678,22.387a4.183,4.183,0,0,0,4.472,3.454,4.009,4.009,0,0,0,2.865-1.553,4.058,4.058,0,0,0,.83-3.24c-1.74-10.926.67-18.236,2.223-21.583.964-.08,1.981-.08,2.945-.08C81.406,572.626,78.032,579.963,79.933,591.852Z" fill="#3d0f1c"/>
      <path d="M77.389,592.254a4.058,4.058,0,0,1-.83,3.24,4.009,4.009,0,0,1-2.865,1.553,4.183,4.183,0,0,1-4.472-3.454c-2.329-13.309,1.9-21.075,2.678-22.387,2.544-.294,5.114-.455,7.712-.535C78.059,574.018,75.649,581.328,77.389,592.254Z" fill="#f6a42c"/>
      <path d="M51.04,594.074a5.9,5.9,0,0,1-3.641,7.552,5.834,5.834,0,0,1-1.928.321,6.016,6.016,0,0,1-2.651-.616,5.883,5.883,0,0,1-2.946-3.32c-2.463-7.525-.482-14.567,1.2-18.53,1.152-.536,2.33-1.045,3.562-1.527-1.1,1.982-5.275,10.417-2.33,19.226a3.353,3.353,0,0,0,1.633,1.848,3.57,3.57,0,0,0,2.625.187,3.384,3.384,0,0,0,2.062-4.31c-2.571-7.82-.3-15.13,1.445-18.959,1.1-.348,2.223-.723,3.374-1.044C52.433,576.749,48.122,585.184,51.04,594.074Z" fill="#3d0f1c"/>
      <path d="M48.631,594.905a3.384,3.384,0,0,1-2.062,4.31,3.57,3.57,0,0,1-2.625-.187,3.353,3.353,0,0,1-1.633-1.848c-2.945-8.809,1.232-17.244,2.33-19.226,1.74-.723,3.561-1.392,5.435-2.008C48.336,579.775,46.06,587.085,48.631,594.905Z" fill="#f6a42c"/>
      <path d="M137.049,585.586a76.622,76.622,0,0,0-33.793-15.558c-21.1-4.311-43.54-1.071-60.517,5.972A66.783,66.783,0,0,0,24,587.273c-7.042,6.293-15.343,16.093-14.7,26.911.428,7.2,4.793,13.79,12.987,19.494A22.645,22.645,0,0,0,35.51,637.8h90.079a27.031,27.031,0,0,0,14.138-3.937c6.32-3.909,14-10.5,14.62-19.949C154.963,605,149.126,595.467,137.049,585.586Zm-111.34,3.588a60.989,60.989,0,0,1,15.37-9.693c1.152-.536,2.33-1.045,3.562-1.527,1.74-.723,3.561-1.392,5.435-2.008,1.1-.348,2.223-.723,3.374-1.044a102.444,102.444,0,0,1,15.344-3.294c1.044-.16,2.062-.294,3.106-.4,2.544-.294,5.114-.455,7.712-.535.964-.08,1.981-.08,2.945-.08.322-.027.616-.027.938-.027a93.863,93.863,0,0,1,18.1,1.687c.911.16,1.848.375,2.758.562,2.437.536,4.874,1.205,7.257,1.982.83.241,1.714.562,2.57.857a71.65,71.65,0,0,1,21.262,11.889c11.38,9.318,16.9,18.155,16.361,26.188a20.209,20.209,0,0,1-.509,3.133c-1.848,6.748-7.846,11.7-12.907,14.835a24.428,24.428,0,0,1-12.8,3.534H35.51a20.345,20.345,0,0,1-11.756-3.615q-10.242-7.189-11.7-15.8c-.081-.589-.161-1.206-.188-1.795C11.3,604.25,19.1,595.092,25.709,589.174Z" fill="#333"/>
    </g>
  </g>
</svg>
