<svg xmlns="http://www.w3.org/2000/svg" width="506" height="413" viewBox="0 0 506 413">
  <g>
    <path d="M95.723,63.586a1.457,1.457,0,0,1-.434,1.071,1.407,1.407,0,0,1-1.057.435,1.484,1.484,0,0,1-1.506-1.506,1.407,1.407,0,0,1,.434-1.057,1.455,1.455,0,0,1,1.072-.434,1.482,1.482,0,0,1,1.491,1.491Z" fill="#3a3a3a"/>
    <path d="M105.964,63.586a1.454,1.454,0,0,1-.435,1.071,1.407,1.407,0,0,1-1.057.435,1.486,1.486,0,0,1-1.506-1.506,1.4,1.4,0,0,1,.435-1.057,1.452,1.452,0,0,1,1.071-.434,1.484,1.484,0,0,1,1.492,1.491Z" fill="#3a3a3a"/>
    <path d="M116.2,63.586a1.454,1.454,0,0,1-.435,1.071,1.407,1.407,0,0,1-1.057.435,1.484,1.484,0,0,1-1.505-1.506,1.4,1.4,0,0,1,.434-1.057,1.453,1.453,0,0,1,1.071-.434,1.484,1.484,0,0,1,1.492,1.491Z" fill="#3a3a3a"/>
    <path d="M126.443,63.586a1.457,1.457,0,0,1-.434,1.071,1.409,1.409,0,0,1-1.057.435,1.484,1.484,0,0,1-1.506-1.506,1.407,1.407,0,0,1,.434-1.057,1.455,1.455,0,0,1,1.072-.434,1.482,1.482,0,0,1,1.491,1.491Z" fill="#3a3a3a"/>
    <path d="M136.683,63.586a1.453,1.453,0,0,1-.434,1.071,1.407,1.407,0,0,1-1.057.435,1.484,1.484,0,0,1-1.506-1.506,1.407,1.407,0,0,1,.434-1.057,1.455,1.455,0,0,1,1.072-.434,1.482,1.482,0,0,1,1.491,1.491Z" fill="#3a3a3a"/>
    <path d="M146.924,63.586a1.454,1.454,0,0,1-.435,1.071,1.407,1.407,0,0,1-1.057.435,1.486,1.486,0,0,1-1.506-1.506,1.4,1.4,0,0,1,.435-1.057,1.452,1.452,0,0,1,1.071-.434,1.484,1.484,0,0,1,1.492,1.491Z" fill="#3a3a3a"/>
    <path d="M157.164,63.586a1.454,1.454,0,0,1-.435,1.071,1.406,1.406,0,0,1-1.057.435,1.484,1.484,0,0,1-1.5-1.506,1.4,1.4,0,0,1,.434-1.057,1.453,1.453,0,0,1,1.071-.434,1.484,1.484,0,0,1,1.492,1.491Z" fill="#3a3a3a"/>
    <path d="M167.4,63.586a1.457,1.457,0,0,1-.434,1.071,1.409,1.409,0,0,1-1.057.435,1.484,1.484,0,0,1-1.506-1.506,1.407,1.407,0,0,1,.434-1.057,1.455,1.455,0,0,1,1.072-.434,1.482,1.482,0,0,1,1.491,1.491Z" fill="#3a3a3a"/>
    <path d="M177.643,63.586a1.453,1.453,0,0,1-.434,1.071,1.407,1.407,0,0,1-1.057.435,1.484,1.484,0,0,1-1.506-1.506,1.407,1.407,0,0,1,.434-1.057,1.455,1.455,0,0,1,1.072-.434,1.482,1.482,0,0,1,1.491,1.491Z" fill="#3a3a3a"/>
    <path d="M187.884,63.586a1.454,1.454,0,0,1-.435,1.071,1.407,1.407,0,0,1-1.057.435,1.486,1.486,0,0,1-1.506-1.506,1.4,1.4,0,0,1,.435-1.057,1.452,1.452,0,0,1,1.071-.434,1.484,1.484,0,0,1,1.492,1.491Z" fill="#3a3a3a"/>
    <path d="M198.124,63.586a1.454,1.454,0,0,1-.435,1.071,1.406,1.406,0,0,1-1.057.435,1.484,1.484,0,0,1-1.5-1.506,1.4,1.4,0,0,1,.434-1.057,1.453,1.453,0,0,1,1.071-.434,1.484,1.484,0,0,1,1.492,1.491Z" fill="#3a3a3a"/>
    <path d="M208.364,63.586a1.457,1.457,0,0,1-.434,1.071,1.409,1.409,0,0,1-1.057.435,1.484,1.484,0,0,1-1.506-1.506,1.407,1.407,0,0,1,.434-1.057,1.455,1.455,0,0,1,1.072-.434,1.482,1.482,0,0,1,1.491,1.491Z" fill="#3a3a3a"/>
    <path d="M218.6,63.586a1.453,1.453,0,0,1-.434,1.071,1.407,1.407,0,0,1-1.057.435,1.484,1.484,0,0,1-1.506-1.506,1.407,1.407,0,0,1,.434-1.057,1.455,1.455,0,0,1,1.072-.434,1.482,1.482,0,0,1,1.491,1.491Z" fill="#3a3a3a"/>
    <path d="M228.844,63.586a1.454,1.454,0,0,1-.435,1.071,1.407,1.407,0,0,1-1.057.435,1.486,1.486,0,0,1-1.506-1.506,1.4,1.4,0,0,1,.435-1.057,1.452,1.452,0,0,1,1.071-.434,1.484,1.484,0,0,1,1.492,1.491Z" fill="#3a3a3a"/>
    <path d="M239.084,63.586a1.454,1.454,0,0,1-.435,1.071,1.406,1.406,0,0,1-1.057.435,1.484,1.484,0,0,1-1.505-1.506,1.4,1.4,0,0,1,.434-1.057,1.453,1.453,0,0,1,1.071-.434,1.484,1.484,0,0,1,1.492,1.491Z" fill="#3a3a3a"/>
    <path d="M249.324,63.586a1.457,1.457,0,0,1-.434,1.071,1.409,1.409,0,0,1-1.057.435,1.484,1.484,0,0,1-1.506-1.506,1.407,1.407,0,0,1,.434-1.057,1.455,1.455,0,0,1,1.072-.434,1.482,1.482,0,0,1,1.491,1.491Z" fill="#3a3a3a"/>
    <path d="M259.564,63.586a1.453,1.453,0,0,1-.434,1.071,1.407,1.407,0,0,1-1.057.435,1.486,1.486,0,0,1-1.506-1.506A1.4,1.4,0,0,1,257,62.529a1.452,1.452,0,0,1,1.071-.434,1.482,1.482,0,0,1,1.491,1.491Z" fill="#3a3a3a"/>
    <path d="M269.805,63.586a1.454,1.454,0,0,1-.435,1.071,1.407,1.407,0,0,1-1.057.435,1.486,1.486,0,0,1-1.506-1.506,1.4,1.4,0,0,1,.435-1.057,1.453,1.453,0,0,1,1.071-.434,1.484,1.484,0,0,1,1.492,1.491Z" fill="#3a3a3a"/>
    <path d="M280.043,63.586a1.454,1.454,0,0,1-.435,1.071,1.406,1.406,0,0,1-1.057.435,1.484,1.484,0,0,1-1.5-1.506,1.4,1.4,0,0,1,.434-1.057,1.455,1.455,0,0,1,1.071-.434,1.484,1.484,0,0,1,1.492,1.491Z" fill="#3a3a3a"/>
    <path d="M290.284,63.586a1.457,1.457,0,0,1-.434,1.071,1.407,1.407,0,0,1-1.057.435,1.484,1.484,0,0,1-1.506-1.506,1.407,1.407,0,0,1,.434-1.057,1.457,1.457,0,0,1,1.072-.434,1.482,1.482,0,0,1,1.491,1.491Z" fill="#3a3a3a"/>
    <path d="M300.523,63.586a1.453,1.453,0,0,1-.434,1.071,1.407,1.407,0,0,1-1.057.435,1.484,1.484,0,0,1-1.506-1.506,1.407,1.407,0,0,1,.434-1.057,1.457,1.457,0,0,1,1.072-.434,1.482,1.482,0,0,1,1.491,1.491Z" fill="#3a3a3a"/>
    <path d="M310.763,63.586a1.454,1.454,0,0,1-.435,1.071,1.407,1.407,0,0,1-1.057.435,1.486,1.486,0,0,1-1.506-1.506,1.4,1.4,0,0,1,.435-1.057,1.453,1.453,0,0,1,1.071-.434,1.484,1.484,0,0,1,1.492,1.491Z" fill="#3a3a3a"/>
    <path d="M321,63.586a1.457,1.457,0,0,1-.434,1.071,1.409,1.409,0,0,1-1.057.435,1.484,1.484,0,0,1-1.506-1.506,1.4,1.4,0,0,1,.434-1.057,1.455,1.455,0,0,1,1.072-.434A1.482,1.482,0,0,1,321,63.586Z" fill="#3a3a3a"/>
    <path d="M331.243,63.586a1.457,1.457,0,0,1-.434,1.071,1.407,1.407,0,0,1-1.057.435,1.484,1.484,0,0,1-1.506-1.506,1.407,1.407,0,0,1,.434-1.057,1.457,1.457,0,0,1,1.072-.434,1.482,1.482,0,0,1,1.491,1.491Z" fill="#3a3a3a"/>
    <path d="M341.484,63.586a1.453,1.453,0,0,1-.434,1.071,1.407,1.407,0,0,1-1.057.435,1.486,1.486,0,0,1-1.506-1.506,1.4,1.4,0,0,1,.435-1.057,1.453,1.453,0,0,1,1.071-.434,1.482,1.482,0,0,1,1.491,1.491Z" fill="#3a3a3a"/>
    <path d="M351.724,63.586a1.454,1.454,0,0,1-.435,1.071,1.407,1.407,0,0,1-1.057.435,1.486,1.486,0,0,1-1.506-1.506,1.4,1.4,0,0,1,.435-1.057,1.453,1.453,0,0,1,1.071-.434,1.484,1.484,0,0,1,1.492,1.491Z" fill="#3a3a3a"/>
    <path d="M361.963,63.586a1.457,1.457,0,0,1-.434,1.071,1.409,1.409,0,0,1-1.057.435,1.484,1.484,0,0,1-1.506-1.506,1.4,1.4,0,0,1,.434-1.057,1.455,1.455,0,0,1,1.072-.434,1.482,1.482,0,0,1,1.491,1.491Z" fill="#3a3a3a"/>
    <path d="M398.985,65.092a2.474,2.474,0,0,1-2.471-2.472V41.955l-.065.033a2.465,2.465,0,0,1-3.334-1.185,2.475,2.475,0,0,1,1.212-3.278l3.424-1.812-.013-.04.532-.18.455-.138.021.045c.035-.006.122-.014.122-.014l.107,0a1.468,1.468,0,0,1,.17.01l.016-.054.989.29-.008.047c.062.033.118.064.174.1a1.969,1.969,0,0,1,.2.144,1.913,1.913,0,0,1,.178.151,2.92,2.92,0,0,1,.31.358c.053.075.1.16.149.244a1.508,1.508,0,0,1,.081.153l.031.067.012.037c.017.039.042.118.067.2a1.7,1.7,0,0,1,.055.2,1.518,1.518,0,0,1,.033.223l.007.039c0,.04.014.085.016.131V62.62A2.471,2.471,0,0,1,398.985,65.092Z" fill="#3a3a3a"/>
    <path d="M435.346,58.471A6.605,6.605,0,0,1,424,63.071v6.756a.933.933,0,0,1-1.866,0V58.471a6.6,6.6,0,0,1,13.21,0Zm-1.868,0a4.738,4.738,0,1,0-4.737,4.739A4.743,4.743,0,0,0,433.478,58.471Z" fill="#3a3a3a"/>
    <path d="M450.159,58.491a6.605,6.605,0,1,1-6.605-6.6A6.6,6.6,0,0,1,450.159,58.491Zm-1.866,0a4.739,4.739,0,1,0-4.739,4.737A4.745,4.745,0,0,0,448.293,58.491Z" fill="#3a3a3a"/>
    <path d="M464.388,64.155a.933.933,0,1,1-1.866,0v-.91a6.055,6.055,0,0,1-4.408,1.834c-3.648,0-5.992-2.958-5.992-6.6V52.809a.933.933,0,1,1,1.866,0v5.666c0,2.612,1.512,4.739,4.126,4.739a4.472,4.472,0,0,0,4.408-4.725V52.8a.933.933,0,1,1,1.866,0V64.155Z" fill="#3a3a3a"/>
    <path d="M479.532,58.481v5.666a.933.933,0,0,1-1.866,0V58.481c0-2.613-1.51-4.737-4.127-4.737a4.472,4.472,0,0,0-4.408,4.722v5.691a.933.933,0,1,1-1.865,0V52.8a.933.933,0,1,1,1.865,0v.91a6.055,6.055,0,0,1,4.408-1.835C477.188,51.876,479.532,54.834,479.532,58.481Z" fill="#3a3a3a"/>
    <path d="M494.711,58.491a6.61,6.61,0,1,1-1.868-4.6V47.135a.934.934,0,0,1,1.868,0Zm-1.868,0a4.738,4.738,0,1,0-4.737,4.735A4.752,4.752,0,0,0,492.843,58.493Z" fill="#3a3a3a"/>
    <path d="M88.415,148.313a1.461,1.461,0,0,1-.434,1.072,1.411,1.411,0,0,1-1.057.434,1.482,1.482,0,0,1-1.506-1.506,1.41,1.41,0,0,1,.434-1.057,1.455,1.455,0,0,1,1.072-.434,1.482,1.482,0,0,1,1.491,1.491Z" fill="#3a3a3a"/>
    <path d="M98.655,148.313a1.457,1.457,0,0,1-.434,1.072,1.41,1.41,0,0,1-1.057.434,1.484,1.484,0,0,1-1.506-1.506,1.407,1.407,0,0,1,.435-1.057,1.452,1.452,0,0,1,1.071-.434,1.482,1.482,0,0,1,1.491,1.491Z" fill="#3a3a3a"/>
    <path d="M108.9,148.313a1.458,1.458,0,0,1-.435,1.072,1.41,1.41,0,0,1-1.057.434,1.484,1.484,0,0,1-1.506-1.506,1.407,1.407,0,0,1,.435-1.057,1.452,1.452,0,0,1,1.071-.434,1.484,1.484,0,0,1,1.492,1.491Z" fill="#3a3a3a"/>
    <path d="M119.135,148.313a1.461,1.461,0,0,1-.434,1.072,1.411,1.411,0,0,1-1.057.434,1.482,1.482,0,0,1-1.506-1.506,1.406,1.406,0,0,1,.434-1.057,1.454,1.454,0,0,1,1.072-.434,1.482,1.482,0,0,1,1.491,1.491Z" fill="#3a3a3a"/>
    <path d="M129.375,148.313a1.461,1.461,0,0,1-.434,1.072,1.41,1.41,0,0,1-1.057.434,1.482,1.482,0,0,1-1.506-1.506,1.41,1.41,0,0,1,.434-1.057,1.455,1.455,0,0,1,1.072-.434,1.482,1.482,0,0,1,1.491,1.491Z" fill="#3a3a3a"/>
    <path d="M139.615,148.313a1.457,1.457,0,0,1-.434,1.072,1.41,1.41,0,0,1-1.057.434,1.484,1.484,0,0,1-1.506-1.506,1.407,1.407,0,0,1,.435-1.057,1.452,1.452,0,0,1,1.071-.434,1.482,1.482,0,0,1,1.491,1.491Z" fill="#3a3a3a"/>
    <path d="M149.856,148.313a1.458,1.458,0,0,1-.435,1.072,1.41,1.41,0,0,1-1.057.434,1.484,1.484,0,0,1-1.506-1.506,1.407,1.407,0,0,1,.435-1.057,1.452,1.452,0,0,1,1.071-.434,1.484,1.484,0,0,1,1.492,1.491Z" fill="#3a3a3a"/>
    <path d="M160.1,148.313a1.461,1.461,0,0,1-.434,1.072,1.411,1.411,0,0,1-1.057.434,1.482,1.482,0,0,1-1.506-1.506,1.406,1.406,0,0,1,.434-1.057,1.454,1.454,0,0,1,1.072-.434,1.482,1.482,0,0,1,1.491,1.491Z" fill="#3a3a3a"/>
    <path d="M170.335,148.313a1.461,1.461,0,0,1-.434,1.072,1.41,1.41,0,0,1-1.057.434,1.482,1.482,0,0,1-1.506-1.506,1.41,1.41,0,0,1,.434-1.057,1.455,1.455,0,0,1,1.072-.434,1.482,1.482,0,0,1,1.491,1.491Z" fill="#3a3a3a"/>
    <path d="M180.575,148.313a1.457,1.457,0,0,1-.434,1.072,1.41,1.41,0,0,1-1.057.434,1.484,1.484,0,0,1-1.506-1.506,1.407,1.407,0,0,1,.435-1.057,1.452,1.452,0,0,1,1.071-.434,1.482,1.482,0,0,1,1.491,1.491Z" fill="#3a3a3a"/>
    <path d="M190.816,148.313a1.458,1.458,0,0,1-.435,1.072,1.41,1.41,0,0,1-1.057.434,1.484,1.484,0,0,1-1.506-1.506,1.407,1.407,0,0,1,.435-1.057,1.452,1.452,0,0,1,1.071-.434,1.484,1.484,0,0,1,1.492,1.491Z" fill="#3a3a3a"/>
    <path d="M201.056,148.313a1.461,1.461,0,0,1-.434,1.072,1.411,1.411,0,0,1-1.057.434,1.482,1.482,0,0,1-1.506-1.506,1.41,1.41,0,0,1,.434-1.057,1.455,1.455,0,0,1,1.072-.434,1.482,1.482,0,0,1,1.491,1.491Z" fill="#3a3a3a"/>
    <path d="M211.3,148.313a1.461,1.461,0,0,1-.434,1.072,1.41,1.41,0,0,1-1.057.434,1.482,1.482,0,0,1-1.506-1.506,1.41,1.41,0,0,1,.434-1.057,1.455,1.455,0,0,1,1.072-.434,1.482,1.482,0,0,1,1.491,1.491Z" fill="#3a3a3a"/>
    <path d="M221.536,148.313a1.458,1.458,0,0,1-.435,1.072,1.41,1.41,0,0,1-1.057.434,1.484,1.484,0,0,1-1.506-1.506,1.407,1.407,0,0,1,.435-1.057,1.452,1.452,0,0,1,1.071-.434,1.484,1.484,0,0,1,1.492,1.491Z" fill="#3a3a3a"/>
    <path d="M231.776,148.313a1.458,1.458,0,0,1-.435,1.072,1.41,1.41,0,0,1-1.057.434,1.484,1.484,0,0,1-1.506-1.506,1.407,1.407,0,0,1,.435-1.057,1.452,1.452,0,0,1,1.071-.434,1.484,1.484,0,0,1,1.492,1.491Z" fill="#3a3a3a"/>
    <path d="M242.016,148.313a1.461,1.461,0,0,1-.434,1.072,1.411,1.411,0,0,1-1.057.434,1.482,1.482,0,0,1-1.506-1.506,1.41,1.41,0,0,1,.434-1.057,1.455,1.455,0,0,1,1.072-.434,1.482,1.482,0,0,1,1.491,1.491Z" fill="#3a3a3a"/>
    <path d="M252.256,148.313a1.461,1.461,0,0,1-.434,1.072,1.41,1.41,0,0,1-1.057.434,1.482,1.482,0,0,1-1.506-1.506,1.41,1.41,0,0,1,.434-1.057,1.455,1.455,0,0,1,1.072-.434,1.482,1.482,0,0,1,1.491,1.491Z" fill="#3a3a3a"/>
    <path d="M262.5,148.313a1.458,1.458,0,0,1-.435,1.072,1.41,1.41,0,0,1-1.057.434,1.484,1.484,0,0,1-1.506-1.506,1.407,1.407,0,0,1,.435-1.057,1.452,1.452,0,0,1,1.071-.434,1.484,1.484,0,0,1,1.492,1.491Z" fill="#3a3a3a"/>
    <path d="M272.736,148.313a1.458,1.458,0,0,1-.435,1.072,1.41,1.41,0,0,1-1.057.434,1.484,1.484,0,0,1-1.506-1.506,1.407,1.407,0,0,1,.435-1.057,1.453,1.453,0,0,1,1.071-.434,1.484,1.484,0,0,1,1.492,1.491Z" fill="#3a3a3a"/>
    <path d="M282.976,148.313a1.461,1.461,0,0,1-.434,1.072,1.411,1.411,0,0,1-1.057.434,1.482,1.482,0,0,1-1.506-1.506,1.41,1.41,0,0,1,.434-1.057,1.457,1.457,0,0,1,1.072-.434,1.482,1.482,0,0,1,1.491,1.491Z" fill="#3a3a3a"/>
    <path d="M293.215,148.313a1.461,1.461,0,0,1-.434,1.072,1.41,1.41,0,0,1-1.057.434,1.482,1.482,0,0,1-1.506-1.506,1.41,1.41,0,0,1,.434-1.057,1.457,1.457,0,0,1,1.072-.434,1.482,1.482,0,0,1,1.491,1.491Z" fill="#3a3a3a"/>
    <path d="M303.455,148.313a1.458,1.458,0,0,1-.435,1.072,1.41,1.41,0,0,1-1.057.434,1.484,1.484,0,0,1-1.506-1.506,1.407,1.407,0,0,1,.435-1.057,1.453,1.453,0,0,1,1.071-.434,1.484,1.484,0,0,1,1.492,1.491Z" fill="#3a3a3a"/>
    <path d="M313.7,148.313a1.458,1.458,0,0,1-.435,1.072,1.41,1.41,0,0,1-1.057.434,1.482,1.482,0,0,1-1.5-1.506,1.406,1.406,0,0,1,.434-1.057,1.453,1.453,0,0,1,1.071-.434,1.484,1.484,0,0,1,1.492,1.491Z" fill="#3a3a3a"/>
    <path d="M323.935,148.313a1.461,1.461,0,0,1-.434,1.072,1.411,1.411,0,0,1-1.057.434,1.482,1.482,0,0,1-1.506-1.506,1.41,1.41,0,0,1,.434-1.057,1.457,1.457,0,0,1,1.072-.434,1.482,1.482,0,0,1,1.491,1.491Z" fill="#3a3a3a"/>
    <path d="M334.176,148.313a1.457,1.457,0,0,1-.434,1.072,1.41,1.41,0,0,1-1.057.434,1.482,1.482,0,0,1-1.506-1.506,1.41,1.41,0,0,1,.434-1.057,1.457,1.457,0,0,1,1.072-.434,1.482,1.482,0,0,1,1.491,1.491Z" fill="#3a3a3a"/>
    <path d="M344.416,148.313a1.458,1.458,0,0,1-.435,1.072,1.41,1.41,0,0,1-1.057.434,1.484,1.484,0,0,1-1.506-1.506,1.407,1.407,0,0,1,.435-1.057,1.453,1.453,0,0,1,1.071-.434,1.484,1.484,0,0,1,1.492,1.491Z" fill="#3a3a3a"/>
    <path d="M354.655,148.313a1.458,1.458,0,0,1-.435,1.072,1.41,1.41,0,0,1-1.057.434,1.484,1.484,0,0,1-1.506-1.506,1.407,1.407,0,0,1,.435-1.057,1.453,1.453,0,0,1,1.071-.434,1.484,1.484,0,0,1,1.492,1.491Z" fill="#3a3a3a"/>
    <path d="M364.9,148.313a1.461,1.461,0,0,1-.434,1.072,1.411,1.411,0,0,1-1.057.434,1.482,1.482,0,0,1-1.506-1.506,1.41,1.41,0,0,1,.434-1.057,1.457,1.457,0,0,1,1.072-.434,1.482,1.482,0,0,1,1.491,1.491Z" fill="#3a3a3a"/>
    <path d="M395.413,149.819a9.372,9.372,0,0,1-9.362-9.362,9.254,9.254,0,0,1,3.33-7.164,7.884,7.884,0,0,1-1.93-5.2,7.963,7.963,0,1,1,14,5.2,9.252,9.252,0,0,1,3.328,7.164A9.372,9.372,0,0,1,395.413,149.819Zm-.234-13.768a4.419,4.419,0,1,0,.468,0l-.029,0c-.062,0-.135.008-.2.008s-.143,0-.211-.008Zm.234-4.956c.1,0,.195,0,.29.006a3.026,3.026,0,1,0-.569,0C395.237,131.1,395.324,131.1,395.413,131.1Z" fill="#3a3a3a"/>
    <path d="M435.346,143.2A6.605,6.605,0,0,1,424,147.8v6.756a.933.933,0,1,1-1.866,0V143.2a6.6,6.6,0,0,1,13.21,0Zm-1.868,0a4.738,4.738,0,1,0-4.737,4.737A4.741,4.741,0,0,0,433.478,143.2Z" fill="#3a3a3a"/>
    <path d="M450.159,143.218a6.605,6.605,0,1,1-6.605-6.6A6.606,6.606,0,0,1,450.159,143.218Zm-1.866,0a4.739,4.739,0,1,0-4.739,4.739A4.745,4.745,0,0,0,448.293,143.218Z" fill="#3a3a3a"/>
    <path d="M464.388,148.884a.933.933,0,0,1-1.866,0v-.912a6.056,6.056,0,0,1-4.408,1.835c-3.648,0-5.992-2.958-5.992-6.6v-5.666a.933.933,0,1,1,1.866,0V143.2c0,2.612,1.512,4.737,4.126,4.737a4.471,4.471,0,0,0,4.408-4.723v-5.69a.933.933,0,1,1,1.866,0Z" fill="#3a3a3a"/>
    <path d="M479.532,143.208v5.666a.933.933,0,0,1-1.866,0v-5.666c0-2.613-1.51-4.737-4.127-4.737a4.472,4.472,0,0,0-4.408,4.722v5.691a.933.933,0,1,1-1.865,0V137.528a.933.933,0,1,1,1.865,0v.91a6.062,6.062,0,0,1,4.408-1.833C477.188,136.6,479.532,139.561,479.532,143.208Z" fill="#3a3a3a"/>
    <path d="M494.711,143.218a6.613,6.613,0,1,1-1.868-4.6v-6.758a.934.934,0,0,1,1.868,0Zm-1.868,0a4.738,4.738,0,1,0-4.737,4.737A4.752,4.752,0,0,0,492.843,143.22Z" fill="#3a3a3a"/>
    <path d="M505.372,147.788q-.072.1-.153.2a5.2,5.2,0,0,1-4.1,1.728,6.316,6.316,0,0,1-1.708-.23,4.543,4.543,0,0,1-2.706-2.143l-.029-.048a.933.933,0,0,1,1.585-.984l.043.07a2.726,2.726,0,0,0,1.618,1.31,3.914,3.914,0,0,0,3.843-.871c.029-.036.053-.071.078-.108a1.831,1.831,0,0,0,.174-1.644,2.059,2.059,0,0,0-1.371-1.316c-.284-.084-.9-.2-1.388-.294-.437-.08-.813-.152-1.049-.213a3.388,3.388,0,0,1-2.59-3.688,3.624,3.624,0,0,1,2.532-2.712c1.789-.591,4.351-.055,5.376,1.835a.933.933,0,1,1-1.64.889,2.818,2.818,0,0,0-3.15-.953,1.789,1.789,0,0,0-1.275,1.235,1.551,1.551,0,0,0,1.217,1.588c.173.046.554.116.924.187.588.111,1.2.225,1.57.335a3.9,3.9,0,0,1,2.607,2.49A3.7,3.7,0,0,1,505.372,147.788Z" fill="#3a3a3a"/>
    <path d="M88.415,233.04a1.461,1.461,0,0,1-.434,1.072,1.411,1.411,0,0,1-1.057.434,1.482,1.482,0,0,1-1.506-1.506,1.41,1.41,0,0,1,.434-1.057,1.455,1.455,0,0,1,1.072-.434,1.482,1.482,0,0,1,1.491,1.491Z" fill="#3a3a3a"/>
    <path d="M98.655,233.04a1.457,1.457,0,0,1-.434,1.072,1.41,1.41,0,0,1-1.057.434,1.484,1.484,0,0,1-1.506-1.506,1.407,1.407,0,0,1,.435-1.057,1.452,1.452,0,0,1,1.071-.434,1.482,1.482,0,0,1,1.491,1.491Z" fill="#3a3a3a"/>
    <path d="M108.9,233.04a1.458,1.458,0,0,1-.435,1.072,1.41,1.41,0,0,1-1.057.434,1.484,1.484,0,0,1-1.506-1.506,1.407,1.407,0,0,1,.435-1.057,1.452,1.452,0,0,1,1.071-.434,1.484,1.484,0,0,1,1.492,1.491Z" fill="#3a3a3a"/>
    <path d="M119.135,233.04a1.461,1.461,0,0,1-.434,1.072,1.411,1.411,0,0,1-1.057.434,1.482,1.482,0,0,1-1.506-1.506,1.406,1.406,0,0,1,.434-1.057,1.454,1.454,0,0,1,1.072-.434,1.482,1.482,0,0,1,1.491,1.491Z" fill="#3a3a3a"/>
    <path d="M129.375,233.04a1.461,1.461,0,0,1-.434,1.072,1.41,1.41,0,0,1-1.057.434,1.482,1.482,0,0,1-1.506-1.506,1.41,1.41,0,0,1,.434-1.057,1.455,1.455,0,0,1,1.072-.434,1.482,1.482,0,0,1,1.491,1.491Z" fill="#3a3a3a"/>
    <path d="M139.615,233.04a1.457,1.457,0,0,1-.434,1.072,1.41,1.41,0,0,1-1.057.434,1.484,1.484,0,0,1-1.506-1.506,1.407,1.407,0,0,1,.435-1.057,1.452,1.452,0,0,1,1.071-.434,1.482,1.482,0,0,1,1.491,1.491Z" fill="#3a3a3a"/>
    <path d="M149.856,233.04a1.458,1.458,0,0,1-.435,1.072,1.41,1.41,0,0,1-1.057.434,1.484,1.484,0,0,1-1.506-1.506,1.407,1.407,0,0,1,.435-1.057,1.452,1.452,0,0,1,1.071-.434,1.484,1.484,0,0,1,1.492,1.491Z" fill="#3a3a3a"/>
    <path d="M160.1,233.04a1.461,1.461,0,0,1-.434,1.072,1.411,1.411,0,0,1-1.057.434,1.482,1.482,0,0,1-1.506-1.506,1.406,1.406,0,0,1,.434-1.057,1.454,1.454,0,0,1,1.072-.434,1.482,1.482,0,0,1,1.491,1.491Z" fill="#3a3a3a"/>
    <path d="M170.335,233.04a1.461,1.461,0,0,1-.434,1.072,1.41,1.41,0,0,1-1.057.434,1.482,1.482,0,0,1-1.506-1.506,1.41,1.41,0,0,1,.434-1.057,1.455,1.455,0,0,1,1.072-.434,1.482,1.482,0,0,1,1.491,1.491Z" fill="#3a3a3a"/>
    <path d="M180.575,233.04a1.457,1.457,0,0,1-.434,1.072,1.41,1.41,0,0,1-1.057.434,1.484,1.484,0,0,1-1.506-1.506,1.407,1.407,0,0,1,.435-1.057,1.452,1.452,0,0,1,1.071-.434,1.482,1.482,0,0,1,1.491,1.491Z" fill="#3a3a3a"/>
    <path d="M190.816,233.04a1.458,1.458,0,0,1-.435,1.072,1.41,1.41,0,0,1-1.057.434,1.484,1.484,0,0,1-1.506-1.506,1.407,1.407,0,0,1,.435-1.057,1.452,1.452,0,0,1,1.071-.434,1.484,1.484,0,0,1,1.492,1.491Z" fill="#3a3a3a"/>
    <path d="M201.056,233.04a1.461,1.461,0,0,1-.434,1.072,1.411,1.411,0,0,1-1.057.434,1.482,1.482,0,0,1-1.506-1.506,1.41,1.41,0,0,1,.434-1.057,1.455,1.455,0,0,1,1.072-.434,1.482,1.482,0,0,1,1.491,1.491Z" fill="#3a3a3a"/>
    <path d="M211.3,233.04a1.461,1.461,0,0,1-.434,1.072,1.41,1.41,0,0,1-1.057.434,1.482,1.482,0,0,1-1.506-1.506,1.41,1.41,0,0,1,.434-1.057,1.455,1.455,0,0,1,1.072-.434,1.482,1.482,0,0,1,1.491,1.491Z" fill="#3a3a3a"/>
    <path d="M221.536,233.04a1.458,1.458,0,0,1-.435,1.072,1.41,1.41,0,0,1-1.057.434,1.484,1.484,0,0,1-1.506-1.506,1.407,1.407,0,0,1,.435-1.057,1.452,1.452,0,0,1,1.071-.434,1.484,1.484,0,0,1,1.492,1.491Z" fill="#3a3a3a"/>
    <path d="M231.776,233.04a1.458,1.458,0,0,1-.435,1.072,1.41,1.41,0,0,1-1.057.434,1.484,1.484,0,0,1-1.506-1.506,1.407,1.407,0,0,1,.435-1.057,1.452,1.452,0,0,1,1.071-.434,1.484,1.484,0,0,1,1.492,1.491Z" fill="#3a3a3a"/>
    <path d="M242.016,233.04a1.461,1.461,0,0,1-.434,1.072,1.411,1.411,0,0,1-1.057.434,1.482,1.482,0,0,1-1.506-1.506,1.41,1.41,0,0,1,.434-1.057,1.455,1.455,0,0,1,1.072-.434,1.482,1.482,0,0,1,1.491,1.491Z" fill="#3a3a3a"/>
    <path d="M252.256,233.04a1.461,1.461,0,0,1-.434,1.072,1.41,1.41,0,0,1-1.057.434,1.482,1.482,0,0,1-1.506-1.506,1.41,1.41,0,0,1,.434-1.057,1.455,1.455,0,0,1,1.072-.434,1.482,1.482,0,0,1,1.491,1.491Z" fill="#3a3a3a"/>
    <path d="M262.5,233.04a1.458,1.458,0,0,1-.435,1.072,1.41,1.41,0,0,1-1.057.434,1.484,1.484,0,0,1-1.506-1.506,1.407,1.407,0,0,1,.435-1.057,1.452,1.452,0,0,1,1.071-.434,1.484,1.484,0,0,1,1.492,1.491Z" fill="#3a3a3a"/>
    <path d="M272.736,233.04a1.458,1.458,0,0,1-.435,1.072,1.41,1.41,0,0,1-1.057.434,1.484,1.484,0,0,1-1.506-1.506,1.407,1.407,0,0,1,.435-1.057,1.453,1.453,0,0,1,1.071-.434,1.484,1.484,0,0,1,1.492,1.491Z" fill="#3a3a3a"/>
    <path d="M282.976,233.04a1.461,1.461,0,0,1-.434,1.072,1.411,1.411,0,0,1-1.057.434,1.482,1.482,0,0,1-1.506-1.506,1.41,1.41,0,0,1,.434-1.057,1.457,1.457,0,0,1,1.072-.434,1.482,1.482,0,0,1,1.491,1.491Z" fill="#3a3a3a"/>
    <path d="M293.215,233.04a1.461,1.461,0,0,1-.434,1.072,1.41,1.41,0,0,1-1.057.434,1.482,1.482,0,0,1-1.506-1.506,1.41,1.41,0,0,1,.434-1.057,1.457,1.457,0,0,1,1.072-.434,1.482,1.482,0,0,1,1.491,1.491Z" fill="#3a3a3a"/>
    <path d="M303.455,233.04a1.458,1.458,0,0,1-.435,1.072,1.41,1.41,0,0,1-1.057.434,1.484,1.484,0,0,1-1.506-1.506,1.407,1.407,0,0,1,.435-1.057,1.453,1.453,0,0,1,1.071-.434,1.484,1.484,0,0,1,1.492,1.491Z" fill="#3a3a3a"/>
    <path d="M313.7,233.04a1.458,1.458,0,0,1-.435,1.072,1.41,1.41,0,0,1-1.057.434,1.482,1.482,0,0,1-1.5-1.506,1.406,1.406,0,0,1,.434-1.057,1.453,1.453,0,0,1,1.071-.434,1.484,1.484,0,0,1,1.492,1.491Z" fill="#3a3a3a"/>
    <path d="M323.935,233.04a1.461,1.461,0,0,1-.434,1.072,1.411,1.411,0,0,1-1.057.434,1.482,1.482,0,0,1-1.506-1.506,1.41,1.41,0,0,1,.434-1.057,1.457,1.457,0,0,1,1.072-.434,1.482,1.482,0,0,1,1.491,1.491Z" fill="#3a3a3a"/>
    <path d="M334.176,233.04a1.457,1.457,0,0,1-.434,1.072,1.41,1.41,0,0,1-1.057.434,1.482,1.482,0,0,1-1.506-1.506,1.41,1.41,0,0,1,.434-1.057,1.457,1.457,0,0,1,1.072-.434,1.482,1.482,0,0,1,1.491,1.491Z" fill="#3a3a3a"/>
    <path d="M344.416,233.04a1.458,1.458,0,0,1-.435,1.072,1.41,1.41,0,0,1-1.057.434,1.484,1.484,0,0,1-1.506-1.506,1.407,1.407,0,0,1,.435-1.057,1.453,1.453,0,0,1,1.071-.434,1.484,1.484,0,0,1,1.492,1.491Z" fill="#3a3a3a"/>
    <path d="M354.655,233.04a1.458,1.458,0,0,1-.435,1.072,1.41,1.41,0,0,1-1.057.434,1.484,1.484,0,0,1-1.506-1.506,1.407,1.407,0,0,1,.435-1.057,1.453,1.453,0,0,1,1.071-.434,1.484,1.484,0,0,1,1.492,1.491Z" fill="#3a3a3a"/>
    <path d="M364.9,233.04a1.461,1.461,0,0,1-.434,1.072,1.411,1.411,0,0,1-1.057.434,1.482,1.482,0,0,1-1.506-1.506,1.41,1.41,0,0,1,.434-1.057,1.457,1.457,0,0,1,1.072-.434,1.482,1.482,0,0,1,1.491,1.491Z" fill="#3a3a3a"/>
    <path d="M378.7,234.546a2.474,2.474,0,0,1-2.471-2.472V211.409l-.065.034a2.51,2.51,0,0,1-1.088.254,2.471,2.471,0,0,1-2.318-3.328,2.451,2.451,0,0,1,1.284-1.388l3.423-1.814-.012-.038.331-.113c.06-.023.118-.042.174-.058l.027-.009c.039-.014.08-.026.122-.037l.333-.1.02.045.122-.012.11-.006a1.46,1.46,0,0,1,.168.01l.016-.054.989.29-.008.047a2.178,2.178,0,0,1,.372.244c.083.067.132.106.178.151a2.062,2.062,0,0,1,.172.185,2.167,2.167,0,0,1,.138.173c.054.077.1.161.149.246.024.042.056.1.081.151l.031.067.012.037c.017.039.042.118.066.2a1.723,1.723,0,0,1,.056.193,1.559,1.559,0,0,1,.033.223l.007.04c0,.039.014.084.016.13v24.907A2.471,2.471,0,0,1,378.7,234.546Z" fill="#3a3a3a"/>
    <path d="M435.346,227.927a6.605,6.605,0,0,1-11.344,4.6v6.756a.933.933,0,1,1-1.866,0V227.927a6.6,6.6,0,0,1,13.21,0Zm-1.868,0a4.738,4.738,0,1,0-4.737,4.737A4.741,4.741,0,0,0,433.478,227.927Z" fill="#3a3a3a"/>
    <path d="M450.159,227.945a6.605,6.605,0,1,1-6.605-6.6A6.606,6.606,0,0,1,450.159,227.945Zm-1.866,0a4.739,4.739,0,1,0-4.739,4.739A4.745,4.745,0,0,0,448.293,227.945Z" fill="#3a3a3a"/>
    <path d="M464.388,233.611a.933.933,0,0,1-1.866,0V232.7a6.056,6.056,0,0,1-4.408,1.835c-3.648,0-5.992-2.958-5.992-6.6v-5.666a.933.933,0,1,1,1.866,0v5.666c0,2.612,1.512,4.737,4.126,4.737a4.471,4.471,0,0,0,4.408-4.723v-5.69a.933.933,0,0,1,1.866,0Z" fill="#3a3a3a"/>
    <path d="M479.532,227.935V233.6a.933.933,0,1,1-1.866,0v-5.666c0-2.613-1.51-4.737-4.127-4.737a4.472,4.472,0,0,0-4.408,4.722v5.691a.933.933,0,1,1-1.865,0V222.255a.933.933,0,1,1,1.865,0v.91a6.062,6.062,0,0,1,4.408-1.833C477.188,221.332,479.532,224.288,479.532,227.935Z" fill="#3a3a3a"/>
    <path d="M494.711,227.945a6.613,6.613,0,1,1-1.868-4.6v-6.758a.934.934,0,0,1,1.868,0Zm-1.868,0a4.738,4.738,0,1,0-4.737,4.737A4.752,4.752,0,0,0,492.843,227.947Z" fill="#3a3a3a"/>
    <path d="M505.372,232.515q-.072.1-.153.2a5.2,5.2,0,0,1-4.1,1.728,6.316,6.316,0,0,1-1.708-.23,4.543,4.543,0,0,1-2.706-2.143l-.029-.048a.933.933,0,0,1,1.585-.984l.043.07a2.726,2.726,0,0,0,1.618,1.31,3.914,3.914,0,0,0,3.843-.871c.029-.036.054-.07.081-.108a1.81,1.81,0,0,0,.171-1.644,2.059,2.059,0,0,0-1.371-1.316c-.284-.084-.9-.2-1.388-.294-.437-.08-.813-.152-1.049-.213a3.388,3.388,0,0,1-2.59-3.688,3.624,3.624,0,0,1,2.532-2.712c1.789-.591,4.351-.055,5.376,1.835a.933.933,0,1,1-1.64.89,2.816,2.816,0,0,0-3.15-.954,1.789,1.789,0,0,0-1.275,1.235,1.55,1.55,0,0,0,1.217,1.588c.173.046.554.116.924.187.588.111,1.2.225,1.57.335a3.9,3.9,0,0,1,2.607,2.49A3.7,3.7,0,0,1,505.372,232.515Z" fill="#3a3a3a"/>
    <path d="M88.415,317.767a1.461,1.461,0,0,1-.434,1.072,1.411,1.411,0,0,1-1.057.434,1.482,1.482,0,0,1-1.506-1.506,1.41,1.41,0,0,1,.434-1.057,1.455,1.455,0,0,1,1.072-.434,1.482,1.482,0,0,1,1.491,1.491Z" fill="#3a3a3a"/>
    <path d="M98.655,317.767a1.457,1.457,0,0,1-.434,1.072,1.41,1.41,0,0,1-1.057.434,1.484,1.484,0,0,1-1.506-1.506,1.407,1.407,0,0,1,.435-1.057,1.452,1.452,0,0,1,1.071-.434,1.482,1.482,0,0,1,1.491,1.491Z" fill="#3a3a3a"/>
    <path d="M108.9,317.767a1.458,1.458,0,0,1-.435,1.072,1.41,1.41,0,0,1-1.057.434,1.484,1.484,0,0,1-1.506-1.506,1.407,1.407,0,0,1,.435-1.057,1.452,1.452,0,0,1,1.071-.434,1.484,1.484,0,0,1,1.492,1.491Z" fill="#3a3a3a"/>
    <path d="M119.135,317.767a1.461,1.461,0,0,1-.434,1.072,1.411,1.411,0,0,1-1.057.434,1.482,1.482,0,0,1-1.506-1.506,1.406,1.406,0,0,1,.434-1.057,1.454,1.454,0,0,1,1.072-.434,1.482,1.482,0,0,1,1.491,1.491Z" fill="#3a3a3a"/>
    <path d="M129.375,317.767a1.461,1.461,0,0,1-.434,1.072,1.41,1.41,0,0,1-1.057.434,1.482,1.482,0,0,1-1.506-1.506,1.41,1.41,0,0,1,.434-1.057,1.455,1.455,0,0,1,1.072-.434,1.482,1.482,0,0,1,1.491,1.491Z" fill="#3a3a3a"/>
    <path d="M139.615,317.767a1.457,1.457,0,0,1-.434,1.072,1.41,1.41,0,0,1-1.057.434,1.484,1.484,0,0,1-1.506-1.506,1.407,1.407,0,0,1,.435-1.057,1.452,1.452,0,0,1,1.071-.434,1.482,1.482,0,0,1,1.491,1.491Z" fill="#3a3a3a"/>
    <path d="M149.856,317.767a1.458,1.458,0,0,1-.435,1.072,1.41,1.41,0,0,1-1.057.434,1.484,1.484,0,0,1-1.506-1.506,1.407,1.407,0,0,1,.435-1.057,1.452,1.452,0,0,1,1.071-.434,1.484,1.484,0,0,1,1.492,1.491Z" fill="#3a3a3a"/>
    <path d="M160.1,317.767a1.461,1.461,0,0,1-.434,1.072,1.411,1.411,0,0,1-1.057.434,1.482,1.482,0,0,1-1.506-1.506,1.406,1.406,0,0,1,.434-1.057,1.454,1.454,0,0,1,1.072-.434,1.482,1.482,0,0,1,1.491,1.491Z" fill="#3a3a3a"/>
    <path d="M170.335,317.767a1.461,1.461,0,0,1-.434,1.072,1.41,1.41,0,0,1-1.057.434,1.482,1.482,0,0,1-1.506-1.506,1.41,1.41,0,0,1,.434-1.057,1.455,1.455,0,0,1,1.072-.434,1.482,1.482,0,0,1,1.491,1.491Z" fill="#3a3a3a"/>
    <path d="M180.575,317.767a1.457,1.457,0,0,1-.434,1.072,1.41,1.41,0,0,1-1.057.434,1.484,1.484,0,0,1-1.506-1.506,1.407,1.407,0,0,1,.435-1.057,1.452,1.452,0,0,1,1.071-.434,1.482,1.482,0,0,1,1.491,1.491Z" fill="#3a3a3a"/>
    <path d="M190.816,317.767a1.458,1.458,0,0,1-.435,1.072,1.41,1.41,0,0,1-1.057.434,1.484,1.484,0,0,1-1.506-1.506,1.407,1.407,0,0,1,.435-1.057,1.452,1.452,0,0,1,1.071-.434,1.484,1.484,0,0,1,1.492,1.491Z" fill="#3a3a3a"/>
    <path d="M201.056,317.767a1.461,1.461,0,0,1-.434,1.072,1.411,1.411,0,0,1-1.057.434,1.482,1.482,0,0,1-1.506-1.506,1.41,1.41,0,0,1,.434-1.057,1.455,1.455,0,0,1,1.072-.434,1.482,1.482,0,0,1,1.491,1.491Z" fill="#3a3a3a"/>
    <path d="M211.3,317.767a1.461,1.461,0,0,1-.434,1.072,1.41,1.41,0,0,1-1.057.434,1.482,1.482,0,0,1-1.506-1.506,1.41,1.41,0,0,1,.434-1.057,1.455,1.455,0,0,1,1.072-.434,1.482,1.482,0,0,1,1.491,1.491Z" fill="#3a3a3a"/>
    <path d="M221.536,317.767a1.458,1.458,0,0,1-.435,1.072,1.41,1.41,0,0,1-1.057.434,1.484,1.484,0,0,1-1.506-1.506,1.407,1.407,0,0,1,.435-1.057,1.452,1.452,0,0,1,1.071-.434,1.484,1.484,0,0,1,1.492,1.491Z" fill="#3a3a3a"/>
    <path d="M231.776,317.767a1.458,1.458,0,0,1-.435,1.072,1.41,1.41,0,0,1-1.057.434,1.484,1.484,0,0,1-1.506-1.506,1.407,1.407,0,0,1,.435-1.057,1.452,1.452,0,0,1,1.071-.434,1.484,1.484,0,0,1,1.492,1.491Z" fill="#3a3a3a"/>
    <path d="M242.016,317.767a1.461,1.461,0,0,1-.434,1.072,1.411,1.411,0,0,1-1.057.434,1.482,1.482,0,0,1-1.506-1.506,1.41,1.41,0,0,1,.434-1.057,1.455,1.455,0,0,1,1.072-.434,1.482,1.482,0,0,1,1.491,1.491Z" fill="#3a3a3a"/>
    <path d="M252.256,317.767a1.461,1.461,0,0,1-.434,1.072,1.41,1.41,0,0,1-1.057.434,1.482,1.482,0,0,1-1.506-1.506,1.41,1.41,0,0,1,.434-1.057,1.455,1.455,0,0,1,1.072-.434,1.482,1.482,0,0,1,1.491,1.491Z" fill="#3a3a3a"/>
    <path d="M262.5,317.767a1.458,1.458,0,0,1-.435,1.072,1.41,1.41,0,0,1-1.057.434,1.484,1.484,0,0,1-1.506-1.506,1.407,1.407,0,0,1,.435-1.057,1.452,1.452,0,0,1,1.071-.434,1.484,1.484,0,0,1,1.492,1.491Z" fill="#3a3a3a"/>
    <path d="M272.736,317.767a1.458,1.458,0,0,1-.435,1.072,1.41,1.41,0,0,1-1.057.434,1.484,1.484,0,0,1-1.506-1.506,1.407,1.407,0,0,1,.435-1.057,1.453,1.453,0,0,1,1.071-.434,1.484,1.484,0,0,1,1.492,1.491Z" fill="#3a3a3a"/>
    <path d="M282.976,317.767a1.461,1.461,0,0,1-.434,1.072,1.411,1.411,0,0,1-1.057.434,1.482,1.482,0,0,1-1.506-1.506,1.41,1.41,0,0,1,.434-1.057,1.457,1.457,0,0,1,1.072-.434,1.482,1.482,0,0,1,1.491,1.491Z" fill="#3a3a3a"/>
    <path d="M293.215,317.767a1.461,1.461,0,0,1-.434,1.072,1.41,1.41,0,0,1-1.057.434,1.482,1.482,0,0,1-1.506-1.506,1.41,1.41,0,0,1,.434-1.057,1.457,1.457,0,0,1,1.072-.434,1.482,1.482,0,0,1,1.491,1.491Z" fill="#3a3a3a"/>
    <path d="M303.455,317.767a1.458,1.458,0,0,1-.435,1.072,1.41,1.41,0,0,1-1.057.434,1.484,1.484,0,0,1-1.506-1.506,1.407,1.407,0,0,1,.435-1.057,1.453,1.453,0,0,1,1.071-.434,1.484,1.484,0,0,1,1.492,1.491Z" fill="#3a3a3a"/>
    <path d="M313.7,317.767a1.458,1.458,0,0,1-.435,1.072,1.41,1.41,0,0,1-1.057.434,1.482,1.482,0,0,1-1.5-1.506,1.406,1.406,0,0,1,.434-1.057,1.453,1.453,0,0,1,1.071-.434,1.484,1.484,0,0,1,1.492,1.491Z" fill="#3a3a3a"/>
    <path d="M323.935,317.767a1.461,1.461,0,0,1-.434,1.072,1.411,1.411,0,0,1-1.057.434,1.482,1.482,0,0,1-1.506-1.506,1.41,1.41,0,0,1,.434-1.057,1.457,1.457,0,0,1,1.072-.434,1.482,1.482,0,0,1,1.491,1.491Z" fill="#3a3a3a"/>
    <path d="M334.176,317.767a1.457,1.457,0,0,1-.434,1.072,1.41,1.41,0,0,1-1.057.434,1.482,1.482,0,0,1-1.506-1.506,1.41,1.41,0,0,1,.434-1.057,1.457,1.457,0,0,1,1.072-.434,1.482,1.482,0,0,1,1.491,1.491Z" fill="#3a3a3a"/>
    <path d="M344.416,317.767a1.458,1.458,0,0,1-.435,1.072,1.41,1.41,0,0,1-1.057.434,1.484,1.484,0,0,1-1.506-1.506,1.407,1.407,0,0,1,.435-1.057,1.453,1.453,0,0,1,1.071-.434,1.484,1.484,0,0,1,1.492,1.491Z" fill="#3a3a3a"/>
    <path d="M354.655,317.767a1.458,1.458,0,0,1-.435,1.072,1.41,1.41,0,0,1-1.057.434,1.484,1.484,0,0,1-1.506-1.506,1.407,1.407,0,0,1,.435-1.057,1.453,1.453,0,0,1,1.071-.434,1.484,1.484,0,0,1,1.492,1.491Z" fill="#3a3a3a"/>
    <path d="M364.9,317.767a1.461,1.461,0,0,1-.434,1.072,1.411,1.411,0,0,1-1.057.434,1.482,1.482,0,0,1-1.506-1.506,1.41,1.41,0,0,1,.434-1.057,1.457,1.457,0,0,1,1.072-.434,1.482,1.482,0,0,1,1.491,1.491Z" fill="#3a3a3a"/>
    <path d="M381.072,319.273A2.475,2.475,0,0,1,378.6,316.8V296.136l-.064.034a2.51,2.51,0,0,1-1.088.254,2.471,2.471,0,0,1-1.034-4.716l3.423-1.814-.012-.038.331-.113c.06-.023.115-.042.173-.058l.027-.009c.04-.014.081-.026.122-.037l.333-.1.021.045.122-.012.108-.006a1.437,1.437,0,0,1,.169.01l.017-.054.989.29-.009.047c.062.034.118.065.174.1a2.1,2.1,0,0,1,.2.144c.082.067.132.106.178.152a2.05,2.05,0,0,1,.171.184c.066.076.1.124.139.173.054.077.1.161.149.247a1.383,1.383,0,0,1,.08.151l.031.066.013.037c.016.039.041.118.066.2a1.658,1.658,0,0,1,.056.192,1.714,1.714,0,0,1,.033.223l.006.04c0,.039.015.084.017.13V316.8A2.471,2.471,0,0,1,381.072,319.273Z" fill="#3a3a3a"/>
    <path d="M435.346,312.654a6.605,6.605,0,0,1-11.344,4.6v6.756a.933.933,0,1,1-1.866,0V312.654a6.605,6.605,0,1,1,13.21,0Zm-1.868,0a4.738,4.738,0,1,0-4.737,4.737A4.741,4.741,0,0,0,433.478,312.654Z" fill="#3a3a3a"/>
    <path d="M450.159,312.672a6.605,6.605,0,1,1-6.605-6.605A6.606,6.606,0,0,1,450.159,312.672Zm-1.866,0a4.739,4.739,0,1,0-4.739,4.739A4.745,4.745,0,0,0,448.293,312.672Z" fill="#3a3a3a"/>
    <path d="M464.388,318.338a.933.933,0,0,1-1.866,0v-.912a6.056,6.056,0,0,1-4.408,1.835c-3.648,0-5.992-2.958-5.992-6.6v-5.666a.933.933,0,0,1,1.866,0v5.666c0,2.612,1.512,4.737,4.126,4.737a4.471,4.471,0,0,0,4.408-4.723v-5.69a.933.933,0,0,1,1.866,0Z" fill="#3a3a3a"/>
    <path d="M479.532,312.662v5.666a.933.933,0,1,1-1.866,0v-5.666c0-2.613-1.51-4.737-4.127-4.737a4.472,4.472,0,0,0-4.408,4.722v5.691a.933.933,0,1,1-1.865,0V306.982a.933.933,0,1,1,1.865,0v.91a6.062,6.062,0,0,1,4.408-1.833C477.188,306.059,479.532,309.015,479.532,312.662Z" fill="#3a3a3a"/>
    <path d="M494.711,312.672a6.613,6.613,0,1,1-1.868-4.6v-6.758a.934.934,0,0,1,1.868,0Zm-1.868,0a4.738,4.738,0,1,0-4.737,4.737A4.752,4.752,0,0,0,492.843,312.674Z" fill="#3a3a3a"/>
    <path d="M505.372,317.242q-.072.1-.153.2a5.2,5.2,0,0,1-4.1,1.728,6.316,6.316,0,0,1-1.708-.23,4.543,4.543,0,0,1-2.706-2.143l-.029-.047a.933.933,0,1,1,1.585-.985l.043.07a2.726,2.726,0,0,0,1.618,1.31,3.914,3.914,0,0,0,3.843-.871c.029-.036.053-.071.078-.108a1.831,1.831,0,0,0,.174-1.644,2.059,2.059,0,0,0-1.371-1.316c-.284-.084-.9-.2-1.388-.294-.437-.08-.813-.152-1.049-.213a3.388,3.388,0,0,1-2.59-3.688,3.624,3.624,0,0,1,2.532-2.712c1.789-.591,4.351-.055,5.376,1.835a.933.933,0,1,1-1.64.89,2.816,2.816,0,0,0-3.15-.954,1.789,1.789,0,0,0-1.275,1.235,1.552,1.552,0,0,0,1.217,1.589c.173.045.554.115.924.186.588.111,1.2.225,1.57.335a3.9,3.9,0,0,1,2.607,2.49A3.7,3.7,0,0,1,505.372,317.242Z" fill="#3a3a3a"/>
    <path d="M109.824,402.494a1.457,1.457,0,0,1-.434,1.072,1.41,1.41,0,0,1-1.057.434,1.484,1.484,0,0,1-1.506-1.506,1.407,1.407,0,0,1,.435-1.057,1.455,1.455,0,0,1,1.071-.434,1.482,1.482,0,0,1,1.491,1.491Z" fill="#3a3a3a"/>
    <path d="M120.065,402.494a1.458,1.458,0,0,1-.435,1.072,1.41,1.41,0,0,1-1.057.434,1.484,1.484,0,0,1-1.506-1.506,1.407,1.407,0,0,1,.435-1.057,1.455,1.455,0,0,1,1.071-.434,1.484,1.484,0,0,1,1.492,1.491Z" fill="#3a3a3a"/>
    <path d="M130.305,402.494a1.461,1.461,0,0,1-.434,1.072,1.411,1.411,0,0,1-1.057.434,1.482,1.482,0,0,1-1.506-1.506,1.406,1.406,0,0,1,.434-1.057,1.459,1.459,0,0,1,1.072-.434,1.482,1.482,0,0,1,1.491,1.491Z" fill="#3a3a3a"/>
    <path d="M140.544,402.494a1.461,1.461,0,0,1-.434,1.072,1.41,1.41,0,0,1-1.057.434,1.482,1.482,0,0,1-1.506-1.506,1.41,1.41,0,0,1,.434-1.057,1.459,1.459,0,0,1,1.072-.434,1.482,1.482,0,0,1,1.491,1.491Z" fill="#3a3a3a"/>
    <path d="M150.784,402.494a1.457,1.457,0,0,1-.434,1.072,1.41,1.41,0,0,1-1.057.434,1.484,1.484,0,0,1-1.506-1.506,1.407,1.407,0,0,1,.435-1.057,1.455,1.455,0,0,1,1.071-.434,1.482,1.482,0,0,1,1.491,1.491Z" fill="#3a3a3a"/>
    <path d="M161.025,402.494a1.458,1.458,0,0,1-.435,1.072,1.41,1.41,0,0,1-1.057.434,1.484,1.484,0,0,1-1.506-1.506,1.407,1.407,0,0,1,.435-1.057,1.455,1.455,0,0,1,1.071-.434,1.484,1.484,0,0,1,1.492,1.491Z" fill="#3a3a3a"/>
    <path d="M171.265,402.494a1.461,1.461,0,0,1-.434,1.072,1.411,1.411,0,0,1-1.057.434,1.482,1.482,0,0,1-1.506-1.506,1.41,1.41,0,0,1,.434-1.057,1.459,1.459,0,0,1,1.072-.434,1.482,1.482,0,0,1,1.491,1.491Z" fill="#3a3a3a"/>
    <path d="M181.505,402.494a1.461,1.461,0,0,1-.434,1.072,1.41,1.41,0,0,1-1.057.434,1.482,1.482,0,0,1-1.506-1.506,1.41,1.41,0,0,1,.434-1.057,1.459,1.459,0,0,1,1.072-.434,1.482,1.482,0,0,1,1.491,1.491Z" fill="#3a3a3a"/>
    <path d="M191.745,402.494a1.458,1.458,0,0,1-.435,1.072,1.41,1.41,0,0,1-1.057.434,1.484,1.484,0,0,1-1.506-1.506,1.407,1.407,0,0,1,.435-1.057,1.455,1.455,0,0,1,1.071-.434,1.484,1.484,0,0,1,1.492,1.491Z" fill="#3a3a3a"/>
    <path d="M201.985,402.494a1.458,1.458,0,0,1-.435,1.072,1.41,1.41,0,0,1-1.057.434,1.484,1.484,0,0,1-1.506-1.506,1.407,1.407,0,0,1,.435-1.057,1.455,1.455,0,0,1,1.071-.434,1.484,1.484,0,0,1,1.492,1.491Z" fill="#3a3a3a"/>
    <path d="M212.225,402.494a1.461,1.461,0,0,1-.434,1.072,1.411,1.411,0,0,1-1.057.434,1.482,1.482,0,0,1-1.506-1.506,1.41,1.41,0,0,1,.434-1.057,1.459,1.459,0,0,1,1.072-.434,1.482,1.482,0,0,1,1.491,1.491Z" fill="#3a3a3a"/>
    <path d="M222.465,402.494a1.457,1.457,0,0,1-.434,1.072,1.41,1.41,0,0,1-1.057.434,1.482,1.482,0,0,1-1.506-1.506,1.41,1.41,0,0,1,.434-1.057,1.459,1.459,0,0,1,1.072-.434,1.482,1.482,0,0,1,1.491,1.491Z" fill="#3a3a3a"/>
    <path d="M232.706,402.494a1.458,1.458,0,0,1-.435,1.072,1.41,1.41,0,0,1-1.057.434,1.484,1.484,0,0,1-1.506-1.506,1.407,1.407,0,0,1,.435-1.057,1.455,1.455,0,0,1,1.071-.434,1.484,1.484,0,0,1,1.492,1.491Z" fill="#3a3a3a"/>
    <path d="M242.945,402.494a1.458,1.458,0,0,1-.435,1.072,1.41,1.41,0,0,1-1.057.434,1.484,1.484,0,0,1-1.506-1.506,1.407,1.407,0,0,1,.435-1.057,1.455,1.455,0,0,1,1.071-.434,1.484,1.484,0,0,1,1.492,1.491Z" fill="#3a3a3a"/>
    <path d="M253.185,402.494a1.461,1.461,0,0,1-.434,1.072,1.411,1.411,0,0,1-1.057.434,1.482,1.482,0,0,1-1.506-1.506,1.41,1.41,0,0,1,.434-1.057,1.459,1.459,0,0,1,1.072-.434,1.482,1.482,0,0,1,1.491,1.491Z" fill="#3a3a3a"/>
    <path d="M263.425,402.494a1.457,1.457,0,0,1-.434,1.072,1.41,1.41,0,0,1-1.057.434,1.482,1.482,0,0,1-1.506-1.506,1.41,1.41,0,0,1,.434-1.057,1.459,1.459,0,0,1,1.072-.434,1.482,1.482,0,0,1,1.491,1.491Z" fill="#3a3a3a"/>
    <path d="M273.665,402.494a1.458,1.458,0,0,1-.435,1.072,1.41,1.41,0,0,1-1.057.434,1.484,1.484,0,0,1-1.506-1.506,1.407,1.407,0,0,1,.435-1.057,1.457,1.457,0,0,1,1.071-.434,1.484,1.484,0,0,1,1.492,1.491Z" fill="#3a3a3a"/>
    <path d="M283.9,402.494a1.458,1.458,0,0,1-.435,1.072,1.41,1.41,0,0,1-1.057.434,1.482,1.482,0,0,1-1.5-1.506,1.406,1.406,0,0,1,.434-1.057,1.459,1.459,0,0,1,1.071-.434,1.484,1.484,0,0,1,1.492,1.491Z" fill="#3a3a3a"/>
    <path d="M294.144,402.494a1.461,1.461,0,0,1-.434,1.072,1.411,1.411,0,0,1-1.057.434,1.482,1.482,0,0,1-1.506-1.506,1.41,1.41,0,0,1,.434-1.057,1.461,1.461,0,0,1,1.072-.434,1.482,1.482,0,0,1,1.491,1.491Z" fill="#3a3a3a"/>
    <path d="M304.385,402.494a1.457,1.457,0,0,1-.434,1.072,1.41,1.41,0,0,1-1.057.434,1.482,1.482,0,0,1-1.506-1.506,1.41,1.41,0,0,1,.434-1.057,1.461,1.461,0,0,1,1.072-.434,1.482,1.482,0,0,1,1.491,1.491Z" fill="#3a3a3a"/>
    <path d="M314.625,402.494a1.458,1.458,0,0,1-.435,1.072,1.41,1.41,0,0,1-1.057.434,1.484,1.484,0,0,1-1.506-1.506,1.407,1.407,0,0,1,.435-1.057,1.457,1.457,0,0,1,1.071-.434,1.484,1.484,0,0,1,1.492,1.491Z" fill="#3a3a3a"/>
    <path d="M324.864,402.494a1.458,1.458,0,0,1-.435,1.072,1.41,1.41,0,0,1-1.057.434,1.482,1.482,0,0,1-1.5-1.506,1.406,1.406,0,0,1,.434-1.057,1.457,1.457,0,0,1,1.071-.434,1.484,1.484,0,0,1,1.492,1.491Z" fill="#3a3a3a"/>
    <path d="M335.105,402.494a1.461,1.461,0,0,1-.434,1.072,1.411,1.411,0,0,1-1.057.434,1.482,1.482,0,0,1-1.506-1.506,1.41,1.41,0,0,1,.434-1.057,1.461,1.461,0,0,1,1.072-.434,1.482,1.482,0,0,1,1.491,1.491Z" fill="#3a3a3a"/>
    <path d="M345.344,402.494a1.457,1.457,0,0,1-.434,1.072,1.41,1.41,0,0,1-1.057.434,1.482,1.482,0,0,1-1.506-1.506,1.41,1.41,0,0,1,.434-1.057,1.461,1.461,0,0,1,1.072-.434,1.482,1.482,0,0,1,1.491,1.491Z" fill="#3a3a3a"/>
    <path d="M355.586,402.494a1.458,1.458,0,0,1-.435,1.072,1.41,1.41,0,0,1-1.057.434,1.484,1.484,0,0,1-1.506-1.506,1.407,1.407,0,0,1,.435-1.057,1.457,1.457,0,0,1,1.071-.434,1.484,1.484,0,0,1,1.492,1.491Z" fill="#3a3a3a"/>
    <path d="M365.825,402.494a1.458,1.458,0,0,1-.435,1.072,1.41,1.41,0,0,1-1.057.434,1.482,1.482,0,0,1-1.505-1.506,1.406,1.406,0,0,1,.434-1.057,1.459,1.459,0,0,1,1.071-.434,1.484,1.484,0,0,1,1.492,1.491Z" fill="#3a3a3a"/>
    <path d="M396.342,404a9.372,9.372,0,0,1-9.362-9.362,9.25,9.25,0,0,1,3.33-7.163,7.888,7.888,0,0,1-1.93-5.2,7.963,7.963,0,1,1,14,5.2,9.248,9.248,0,0,1,3.328,7.163A9.372,9.372,0,0,1,396.342,404Zm-.234-13.768a4.418,4.418,0,1,0,.468,0l-.029,0c-.062,0-.135.008-.205.008s-.143,0-.211-.008Zm.234-4.956c.1,0,.194,0,.289.006a3.023,3.023,0,1,0-.568,0C396.166,385.278,396.253,385.276,396.342,385.276Z" fill="#3a3a3a"/>
    <path d="M435.346,397.381a6.605,6.605,0,0,1-11.344,4.6v6.756a.933.933,0,1,1-1.866,0V397.381a6.605,6.605,0,0,1,13.21,0Zm-1.868,0a4.738,4.738,0,1,0-4.737,4.737A4.741,4.741,0,0,0,433.478,397.381Z" fill="#3a3a3a"/>
    <path d="M450.159,397.4a6.605,6.605,0,1,1-6.605-6.6A6.606,6.606,0,0,1,450.159,397.4Zm-1.866,0a4.739,4.739,0,1,0-4.739,4.739A4.745,4.745,0,0,0,448.293,397.4Z" fill="#3a3a3a"/>
    <path d="M464.1,403.065a.933.933,0,0,1-1.866,0v-.912a6.054,6.054,0,0,1-4.408,1.835c-3.649,0-5.993-2.958-5.993-6.6v-5.666a.933.933,0,1,1,1.866,0v5.666c0,2.612,1.512,4.737,4.127,4.737a4.471,4.471,0,0,0,4.408-4.723v-5.69a.933.933,0,0,1,1.866,0Z" fill="#3a3a3a"/>
    <path d="M479.242,397.389v5.666a.933.933,0,1,1-1.865,0v-5.666c0-2.613-1.51-4.737-4.127-4.737a4.472,4.472,0,0,0-4.408,4.723v5.69a.933.933,0,0,1-1.866,0V391.709a.933.933,0,1,1,1.866,0v.91a6.058,6.058,0,0,1,4.408-1.833C476.9,390.786,479.242,393.742,479.242,397.389Z" fill="#3a3a3a"/>
    <path d="M494.421,397.4a6.612,6.612,0,1,1-1.868-4.6v-6.758a.934.934,0,0,1,1.868,0Zm-1.868,0a4.738,4.738,0,1,0-4.737,4.737A4.752,4.752,0,0,0,492.553,397.4Z" fill="#3a3a3a"/>
    <path d="M505.083,401.969c-.048.068-.1.137-.154.2a5.2,5.2,0,0,1-4.1,1.727,6.284,6.284,0,0,1-1.709-.23,4.546,4.546,0,0,1-2.706-2.143l-.029-.047a.933.933,0,1,1,1.585-.985l.043.07a2.729,2.729,0,0,0,1.618,1.31,3.91,3.91,0,0,0,3.843-.871c.029-.036.054-.071.079-.108a1.837,1.837,0,0,0,.174-1.644,2.062,2.062,0,0,0-1.372-1.316c-.283-.084-.9-.2-1.388-.294-.436-.08-.813-.152-1.049-.213a3.387,3.387,0,0,1-2.589-3.688,3.621,3.621,0,0,1,2.532-2.712,4.632,4.632,0,0,1,5.376,1.835.933.933,0,0,1-1.641.89,2.815,2.815,0,0,0-3.15-.954,1.786,1.786,0,0,0-1.274,1.235,1.549,1.549,0,0,0,1.216,1.589c.174.045.554.115.925.186.587.111,1.195.225,1.57.335a3.9,3.9,0,0,1,2.606,2.49A3.7,3.7,0,0,1,505.083,401.969Z" fill="#3a3a3a"/>
    <g>
      <path d="M208.491,50.325a1.386,1.386,0,0,1-1.115-.6s-.05-.081-.064-.106a1.165,1.165,0,0,1-.069-.147.532.532,0,0,1-.03-.086c-.007-.021-.018-.065-.018-.065a1.28,1.28,0,0,1-.048-.347V32.285c0-.043,0-.091.007-.134l.009-.077a1.383,1.383,0,0,1,.047-.194c.009-.029.032-.091.04-.112l.013-.037.015-.023.058-.106.029-.049c.023-.031.046-.062.069-.091a.93.93,0,0,1,.07-.083,1.285,1.285,0,0,1,.134-.126c.038-.029.072-.054.108-.077l.055-.037.083-.043.2.341-.173-.356a1.334,1.334,0,0,1,.579-.132l3.7,0a9.688,9.688,0,1,1,0,19.376Zm3.3-2.683.4,0a7,7,0,0,0,0-14l-.4,0h-1.96V47.642Z" fill="#3a3a3a"/>
      <path d="M237.791,43.314v5.654a1.347,1.347,0,0,1-2.694,0v-.193a7.041,7.041,0,0,1-4.412,1.537,7.11,7.11,0,1,1,7.109-7.118Zm-2.685-.113a4.422,4.422,0,1,0-4.421,4.422A4.427,4.427,0,0,0,235.106,43.2Z" fill="#3a3a3a"/>
      <path d="M240.026,33.148a1.354,1.354,0,0,1,.594-.878.582.582,0,0,1,.02-.5.56.56,0,0,1,.474-.269c.026,0,.051,0,.075,0a1.048,1.048,0,0,1,.32.047.668.668,0,0,1,.58-.376.6.6,0,0,1,.492.271.941.941,0,0,1,.136.668,1.37,1.37,0,0,1,.959.987,1.616,1.616,0,0,1-.518,1.576,1.782,1.782,0,0,1-1.227.656,1.913,1.913,0,0,1-1.142-.532A1.721,1.721,0,0,1,240.026,33.148Zm3.179,4.288V48.968a1.344,1.344,0,1,1-2.687,0V37.436a1.344,1.344,0,0,1,2.687,0Z" fill="#3a3a3a"/>
      <path d="M256.688,37.918a1.355,1.355,0,0,1-1.355,1.352,1.324,1.324,0,0,1-.558-.12A5,5,0,0,0,253,38.8a4.484,4.484,0,0,0-3.306,1.553,4.85,4.85,0,0,0-1.072,3.269v5.349a1.344,1.344,0,1,1-2.688,0V37.429a1.344,1.344,0,1,1,2.688,0v.17a7.911,7.911,0,0,1,4.5-1.45,7.357,7.357,0,0,1,2.666.492l.085.033.031.015a1.329,1.329,0,0,1,.554.472s.021.031.033.053a1.335,1.335,0,0,1,.156.362l.014.05A1.483,1.483,0,0,1,256.688,37.918Z" fill="#3a3a3a"/>
      <path d="M269.468,37.87l-7.057,17.357a1.34,1.34,0,0,1-1.246.838h0a1.361,1.361,0,0,1-.5-.1,1.344,1.344,0,0,1-.741-1.75l2.141-5.267L257.627,37.94a1.344,1.344,0,0,1,.742-1.75,1.359,1.359,0,0,1,.5-.1,1.339,1.339,0,0,1,1.247.84l3.4,8.44,3.46-8.51a1.344,1.344,0,0,1,2.492,1.007Z" fill="#3a3a3a"/>
    </g>
    <g>
      <path d="M197.941,137.04A1.345,1.345,0,0,1,196.6,135.7V124.949a7.109,7.109,0,1,1,7.109,7.091,7.05,7.05,0,0,1-4.422-1.541v5.2A1.344,1.344,0,0,1,197.941,137.04Zm1.343-12.108a4.408,4.408,0,1,0,0-.029Z" fill="#3a3a3a"/>
      <path d="M223.749,124.794a1.355,1.355,0,0,1-1.913,1.233,4.971,4.971,0,0,0-1.774-.348,4.481,4.481,0,0,0-3.306,1.554,4.847,4.847,0,0,0-1.072,3.268v5.349a1.344,1.344,0,1,1-2.688,0V124.306a1.344,1.344,0,1,1,2.688,0v.169a7.912,7.912,0,0,1,4.5-1.45,7.339,7.339,0,0,1,2.665.493c.036.014.06.022.085.033l.031.014a1.335,1.335,0,0,1,.554.472.528.528,0,0,1,.032.054,1.279,1.279,0,0,1,.156.362l.015.049A1.417,1.417,0,0,1,223.749,124.794Z" fill="#3a3a3a"/>
      <path d="M238.6,130.079a7.109,7.109,0,1,1-7.11-7.11A7.117,7.117,0,0,1,238.6,130.079Zm-2.687,0a4.422,4.422,0,1,0-4.423,4.42A4.428,4.428,0,0,0,235.914,130.079Z" fill="#3a3a3a"/>
      <path d="M248.181,135.829a1.345,1.345,0,0,1-1.322,1.345c-.04,0-.13.01-.259.01a5.165,5.165,0,0,1-3.783-1.77c-1.467-1.606-1.382-4.259-1.343-5.536v-4.265H241a1.345,1.345,0,0,1,0-2.689h.477v-4.363a1.344,1.344,0,1,1,2.688,0v4.373h2.07a1.344,1.344,0,0,1,0,2.687h-2.07v3.713a9.259,9.259,0,0,1,.015,1.051,4.769,4.769,0,0,0,.6,2.987,2.612,2.612,0,0,0,2.045,1.115A1.347,1.347,0,0,1,248.181,135.829Z" fill="#3a3a3a"/>
      <path d="M263.274,130.067a1.37,1.37,0,0,1-.4.97,1.35,1.35,0,0,1-.955.395h-9.963a4.431,4.431,0,0,0,3.916,3.046h2a1.345,1.345,0,0,1,1.344,1.343,1.325,1.325,0,0,1-.169.654,1.343,1.343,0,0,1-1.175.691l-1.709.01c-.136,0-.27,0-.406-.012a6.865,6.865,0,0,1-1.131-.158,7.109,7.109,0,1,1,8.644-6.939Zm-2.9-1.343a4.421,4.421,0,0,0-8.426,0Z" fill="#3a3a3a"/>
      <path d="M264.974,120.024a1.348,1.348,0,0,1,.593-.877.588.588,0,0,1,.021-.505.558.558,0,0,1,.474-.269c.026,0,.05,0,.074,0a1.053,1.053,0,0,1,.321.048.669.669,0,0,1,.58-.377.6.6,0,0,1,.491.271.941.941,0,0,1,.137.668,1.377,1.377,0,0,1,.959.987,1.617,1.617,0,0,1-.519,1.576,1.779,1.779,0,0,1-1.226.656,1.91,1.91,0,0,1-1.142-.532A1.717,1.717,0,0,1,264.974,120.024Zm3.179,4.288v11.532a1.344,1.344,0,1,1-2.687,0V124.312a1.344,1.344,0,0,1,2.687,0Z" fill="#3a3a3a"/>
      <path d="M284.172,130.069v5.758a1.344,1.344,0,1,1-2.687,0v-5.758c0-2.2-1.175-4.423-3.8-4.423a4.172,4.172,0,0,0-4.087,4.408v5.784a1.344,1.344,0,1,1-2.687,0V124.293a1.344,1.344,0,1,1,2.687,0v.044a6.616,6.616,0,0,1,4.087-1.378C281.443,122.959,284.172,125.95,284.172,130.069Z" fill="#3a3a3a"/>
    </g>
    <g>
      <path d="M211.992,224.611a1.345,1.345,0,0,1-1.343-1.345V206.575a1.344,1.344,0,0,1,1.343-1.342h10.375a1.344,1.344,0,1,1,0,2.687h-9.03v5.657h5.608a1.345,1.345,0,0,1,0,2.689h-5.608v7A1.345,1.345,0,0,1,211.992,224.611Z" fill="#3a3a3a"/>
      <path d="M233.858,212.2a1.356,1.356,0,0,1-1.355,1.353,1.341,1.341,0,0,1-.559-.12,4.976,4.976,0,0,0-1.774-.348,4.481,4.481,0,0,0-3.306,1.554,4.842,4.842,0,0,0-1.072,3.268v5.349a1.345,1.345,0,1,1-2.689,0V211.716a1.345,1.345,0,1,1,2.689,0v.169a7.911,7.911,0,0,1,4.5-1.45,7.361,7.361,0,0,1,2.666.492c.036.015.06.023.085.034l.031.014a1.335,1.335,0,0,1,.554.472.6.6,0,0,1,.032.053,1.335,1.335,0,0,1,.156.362l.015.05A1.571,1.571,0,0,1,233.858,212.2Z" fill="#3a3a3a"/>
      <path d="M248.7,211.7v11.545a1.344,1.344,0,1,1-2.687,0v-.042a6.618,6.618,0,0,1-4.086,1.376c-3.758,0-6.487-2.989-6.487-7.11v-5.758a1.344,1.344,0,1,1,2.688,0v5.758c0,2.2,1.175,4.423,3.8,4.423a4.17,4.17,0,0,0,4.086-4.408V211.7a1.344,1.344,0,1,1,2.687,0Z" fill="#3a3a3a"/>
      <path d="M250.884,207.434a1.348,1.348,0,0,1,.593-.877.588.588,0,0,1,.021-.5.558.558,0,0,1,.474-.269c.026,0,.051,0,.074,0a1.053,1.053,0,0,1,.321.048.669.669,0,0,1,.58-.377.6.6,0,0,1,.491.271.936.936,0,0,1,.137.668,1.37,1.37,0,0,1,.959.987,1.618,1.618,0,0,1-.518,1.576,1.782,1.782,0,0,1-1.227.656,1.91,1.91,0,0,1-1.142-.532A1.717,1.717,0,0,1,250.884,207.434Zm3.179,4.288v11.532a1.344,1.344,0,1,1-2.687,0V211.722a1.344,1.344,0,0,1,2.687,0Z" fill="#3a3a3a"/>
      <path d="M264.634,223.239a1.346,1.346,0,0,1-1.321,1.345c-.041,0-.131.01-.26.01a5.169,5.169,0,0,1-3.783-1.77c-1.467-1.606-1.382-4.26-1.343-5.536v-4.265h-.475a1.345,1.345,0,0,1,0-2.689h.477v-4.363a1.344,1.344,0,1,1,2.688,0v4.373h2.07a1.344,1.344,0,0,1,0,2.687h-2.07v3.713a9.259,9.259,0,0,1,.015,1.051,4.763,4.763,0,0,0,.6,2.987,2.609,2.609,0,0,0,2.044,1.115A1.347,1.347,0,0,1,264.634,223.239Z" fill="#3a3a3a"/>
    </g>
    <g>
      <path d="M194.875,305.906l-5.134-16.714a1.343,1.343,0,0,1,1.238-1.861,1.346,1.346,0,0,1,1.231.8l3.906,12.718,3.909-12.687a1.374,1.374,0,0,1,1.239-.823A1.345,1.345,0,0,1,202.5,289.2L197.36,305.89a1.361,1.361,0,0,1-.464.558l-.026.019a.511.511,0,0,1-.067.039,1.171,1.171,0,0,1-.155.087,1.312,1.312,0,0,1-.543.116A1.343,1.343,0,0,1,194.875,305.906Z" fill="#3a3a3a"/>
      <path d="M216.873,299.574a1.37,1.37,0,0,1-.4.971,1.35,1.35,0,0,1-.955.395h-9.963a4.43,4.43,0,0,0,3.916,3.046h2a1.345,1.345,0,0,1,1.344,1.343,1.325,1.325,0,0,1-.169.654,1.346,1.346,0,0,1-1.175.691l-1.709.01c-.136,0-.27,0-.406-.012a6.973,6.973,0,0,1-1.131-.158,7.109,7.109,0,1,1,8.644-6.94Zm-2.9-1.342a4.421,4.421,0,0,0-8.426,0Z" fill="#3a3a3a"/>
      <path d="M232.68,299.8v5.976a6.908,6.908,0,0,1-7.109,6.671,7.143,7.143,0,0,1-6.488-3.945l-.013-.022a1.406,1.406,0,0,1-.156-.365l-.014-.049a1.486,1.486,0,0,1-.029-.29,1.356,1.356,0,0,1,1.354-1.355,1.38,1.38,0,0,1,1.213.755c.011.021.021.042.03.062a4.481,4.481,0,0,0,4.1,2.466,4.2,4.2,0,0,0,4.422-3.928v-.627a7.109,7.109,0,1,1,2.687-5.568Zm-2.687-.219a4.423,4.423,0,1,0-8.6,1.45,4.364,4.364,0,0,0,.929,1.547,4.412,4.412,0,0,0,6.5,0,4.379,4.379,0,0,0,.929-1.547A4.469,4.469,0,0,0,229.993,299.585Z" fill="#3a3a3a"/>
      <path d="M249.049,299.8v5.976a6.909,6.909,0,0,1-7.11,6.671,7.142,7.142,0,0,1-6.487-3.945l-.014-.022a1.406,1.406,0,0,1-.156-.365l-.014-.049a1.485,1.485,0,0,1-.028-.29,1.356,1.356,0,0,1,1.353-1.355,1.383,1.383,0,0,1,1.214.755l.03.062a4.479,4.479,0,0,0,4.1,2.466,4.2,4.2,0,0,0,4.422-3.928v-.627a7.109,7.109,0,1,1,2.688-5.568Zm-2.688-.219a4.423,4.423,0,1,0-8.6,1.45,4.379,4.379,0,0,0,.929,1.547,4.412,4.412,0,0,0,6.5,0,4.379,4.379,0,0,0,.929-1.547A4.469,4.469,0,0,0,246.361,299.585Z" fill="#3a3a3a"/>
      <path d="M251.31,289.532a1.346,1.346,0,0,1,.594-.877.584.584,0,0,1,.02-.5.56.56,0,0,1,.474-.269c.026,0,.051,0,.074,0a1.081,1.081,0,0,1,.321.047.668.668,0,0,1,.58-.376.6.6,0,0,1,.492.271.941.941,0,0,1,.136.668,1.372,1.372,0,0,1,.959.987,1.616,1.616,0,0,1-.518,1.576,1.782,1.782,0,0,1-1.227.656,1.91,1.91,0,0,1-1.142-.532A1.719,1.719,0,0,1,251.31,289.532Zm3.179,4.288v11.532a1.344,1.344,0,1,1-2.687,0V293.82a1.344,1.344,0,0,1,2.687,0Z" fill="#3a3a3a"/>
      <path d="M271.11,299.574a1.37,1.37,0,0,1-.4.971,1.35,1.35,0,0,1-.955.395h-9.963a4.43,4.43,0,0,0,3.916,3.046h2a1.344,1.344,0,1,1,0,2.688l-1.71.01c-.135,0-.269,0-.405-.012a6.973,6.973,0,0,1-1.131-.158,7.109,7.109,0,1,1,8.644-6.94Zm-2.9-1.342a4.421,4.421,0,0,0-8.426,0Z" fill="#3a3a3a"/>
      <path d="M277.029,306.709a6.722,6.722,0,0,1-1.81-.244,4.879,4.879,0,0,1-2.9-2.3l-.029-.048a1.211,1.211,0,0,1,.391-1.665,1.21,1.21,0,0,1,1.67.389l.044.072a2.532,2.532,0,0,0,1.493,1.216,4.227,4.227,0,0,0,1.146.151,3.219,3.219,0,0,0,2.482-.949c.027-.032.05-.062.073-.093a1.58,1.58,0,0,0,.142-1.436,1.829,1.829,0,0,0-1.22-1.17c-.277-.083-.894-.2-1.388-.292-.449-.085-.834-.157-1.082-.221a3.713,3.713,0,0,1-2.827-4.047,3.945,3.945,0,0,1,2.753-2.966,5.153,5.153,0,0,1,1.592-.244,4.7,4.7,0,0,1,4.187,2.236,1.213,1.213,0,0,1-.49,1.643,1.227,1.227,0,0,1-.575.146,1.214,1.214,0,0,1-1.068-.637,2.373,2.373,0,0,0-2.062-.964,2.685,2.685,0,0,0-.825.122,1.573,1.573,0,0,0-1.117,1.047c-.114.71.622,1.209,1.042,1.318.168.043.551.116.919.184.606.116,1.23.232,1.626.349a4.235,4.235,0,0,1,2.823,2.7,4,4,0,0,1-.447,3.626c-.051.073-.107.147-.165.219A5.5,5.5,0,0,1,277.029,306.709Z" fill="#3a3a3a"/>
    </g>
    <g>
      <path d="M208.362,392.16c-.1,0-.2,0-.305-.006a9.687,9.687,0,0,1-6.7-16.379,9.562,9.562,0,0,1,6.694-2.989c.1,0,.206-.006.307-.006a9.654,9.654,0,0,1,6.7,2.687l.292.279-.039.039a1.342,1.342,0,0,1-1.847,1.847l-.085-.057a1.513,1.513,0,0,1-.155-.135l-.04-.043a7.025,7.025,0,0,0-4.823-1.928c-.093,0-.183,0-.273.006a7,7,0,0,0-.007,13.989c.1,0,.187.009.28.009a7,7,0,0,0,4.467-1.616v-3.094h-3.682a1.344,1.344,0,0,1,0-2.687h4.942a.634.634,0,0,1,.084-.007,1.344,1.344,0,0,1,1.343,1.343v5.026a1.35,1.35,0,0,1-.309.853,1.217,1.217,0,0,1-.141.176l-.042.039A9.691,9.691,0,0,1,208.362,392.16Z" fill="#3a3a3a"/>
      <path d="M229,379.753a1.356,1.356,0,0,1-1.914,1.233,4.971,4.971,0,0,0-1.774-.348,4.481,4.481,0,0,0-3.306,1.554,4.842,4.842,0,0,0-1.072,3.268v5.349a1.344,1.344,0,1,1-2.688,0V379.265a1.344,1.344,0,1,1,2.688,0v.169a7.911,7.911,0,0,1,4.5-1.45,7.361,7.361,0,0,1,2.666.492l.085.034.031.014a1.335,1.335,0,0,1,.554.472.6.6,0,0,1,.032.053,1.335,1.335,0,0,1,.156.362l.015.05A1.571,1.571,0,0,1,229,379.753Z" fill="#3a3a3a"/>
      <path d="M243.85,385.15V390.8a1.347,1.347,0,0,1-2.694,0v-.193a7.041,7.041,0,0,1-4.413,1.537,7.11,7.11,0,1,1,7.11-7.117Zm-2.685-.114a4.422,4.422,0,1,0-4.422,4.422A4.427,4.427,0,0,0,241.165,385.036Z" fill="#3a3a3a"/>
      <path d="M246.086,374.983a1.346,1.346,0,0,1,.594-.877.584.584,0,0,1,.02-.5.558.558,0,0,1,.474-.269c.026,0,.051,0,.074,0a1.087,1.087,0,0,1,.321.047.667.667,0,0,1,.58-.376.6.6,0,0,1,.492.271.941.941,0,0,1,.136.668,1.372,1.372,0,0,1,.959.987,1.618,1.618,0,0,1-.518,1.576,1.782,1.782,0,0,1-1.227.656,1.91,1.91,0,0,1-1.142-.532A1.717,1.717,0,0,1,246.086,374.983Zm3.179,4.288V390.8a1.344,1.344,0,1,1-2.687,0V379.271a1.344,1.344,0,0,1,2.687,0Z" fill="#3a3a3a"/>
      <path d="M265.284,385.027v5.759a1.344,1.344,0,1,1-2.688,0v-5.759c0-2.2-1.174-4.422-3.8-4.422a4.171,4.171,0,0,0-4.086,4.408V390.8a1.344,1.344,0,1,1-2.687,0V379.252a1.344,1.344,0,1,1,2.687,0v.044a6.609,6.609,0,0,1,4.086-1.378C262.556,377.918,265.284,380.909,265.284,385.027Z" fill="#3a3a3a"/>
      <path d="M272.041,392.16a6.722,6.722,0,0,1-1.81-.244,4.869,4.869,0,0,1-2.9-2.3l-.029-.048a1.211,1.211,0,0,1,.391-1.665,1.209,1.209,0,0,1,1.669.389l.045.072a2.529,2.529,0,0,0,1.493,1.216,4.211,4.211,0,0,0,1.146.151,3.172,3.172,0,0,0,2.482-.949c.025-.031.048-.062.07-.093a1.577,1.577,0,0,0,.143-1.436,1.832,1.832,0,0,0-1.218-1.17c-.279-.083-.894-.2-1.388-.292-.449-.085-.835-.157-1.082-.221a3.714,3.714,0,0,1-2.827-4.046,3.941,3.941,0,0,1,2.751-2.967,5.169,5.169,0,0,1,1.593-.244,4.7,4.7,0,0,1,4.186,2.236,1.215,1.215,0,0,1-.488,1.643,1.23,1.23,0,0,1-.577.147,1.214,1.214,0,0,1-1.068-.638,2.372,2.372,0,0,0-2.061-.964,2.653,2.653,0,0,0-.824.123,1.572,1.572,0,0,0-1.118,1.046c-.114.71.622,1.209,1.042,1.318.168.043.55.116.92.184.606.116,1.23.232,1.625.35a4.235,4.235,0,0,1,2.824,2.7,4,4,0,0,1-.449,3.626q-.077.11-.165.219A5.543,5.543,0,0,1,272.041,392.16Z" fill="#3a3a3a"/>
    </g>
    <g>
      <g>
        <path d="M69.98,57.1V96.654a7.32,7.32,0,0,1-7.312,7.312H30.461a7.32,7.32,0,0,1-7.312-7.312V57.705c0-.11,0-.22.006-.329l-.006-.277A89.652,89.652,0,0,1,26.1,36.156c.016-.067.037-.141.052-.208,0-.016,0-.032.011-.047a160.461,160.461,0,0,1,6.5-20.175l.266-.643H60.2l.267.643C60.856,16.666,69.98,38.9,69.98,57.1ZM68.935,96.654V57.705c0-.2,0-.4-.015-.606h.015a89.353,89.353,0,0,0-2.862-20.473c-.041-.172-.088-.344-.125-.517A158.441,158.441,0,0,0,59.5,16.128H33.626a156.788,156.788,0,0,0-5.98,18.19c-.183.684-.36,1.384-.533,2.089-.026.1-.047.2-.073.3A89.3,89.3,0,0,0,24.194,57.1h.015c-.01.2-.015.4-.015.606V96.654a6.285,6.285,0,0,0,6.267,6.267H62.668A6.285,6.285,0,0,0,68.935,96.654Z" fill="#343434"/>
        <path d="M68.935,57.705V96.654a6.285,6.285,0,0,1-6.267,6.267H30.461a6.285,6.285,0,0,1-6.267-6.267V57.705c0-.2.005-.4.015-.606h-.015A89.3,89.3,0,0,1,27.04,36.71c.026-.1.047-.2.073-.3.173-.7.35-1.4.533-2.089a156.788,156.788,0,0,1,5.98-18.19H59.5a158.441,158.441,0,0,1,6.445,19.981c.037.173.084.345.125.517A89.353,89.353,0,0,1,68.935,57.1H68.92C68.93,57.3,68.935,57.5,68.935,57.705ZM67.891,96.654V57.705c0-.188-.005-.366-.016-.554l-.057-1.1h.062a88.029,88.029,0,0,0-2.522-17.861c-.167-.726-.34-1.441-.517-2.151A163.13,163.13,0,0,0,58.8,17.173H34.331A161.709,161.709,0,0,0,29.04,33.127c-.308,1.149-.616,2.324-.914,3.531-.021.083-.041.167-.057.245a89.881,89.881,0,0,0-2.82,19.151H25.3l-.042,1.1c-.01.188-.016.366-.016.554V96.654a5.231,5.231,0,0,0,5.223,5.223H62.668A5.231,5.231,0,0,0,67.891,96.654Z" fill="#343434"/>
        <path d="M67.891,57.705V96.654a5.231,5.231,0,0,1-5.223,5.223H30.461a5.231,5.231,0,0,1-5.223-5.223V57.705c0-.188.006-.366.016-.554l.042-1.1h-.047A89.881,89.881,0,0,1,28.069,36.9c.016-.078.036-.162.057-.245.3-1.207.606-2.382.914-3.531a7.9,7.9,0,0,1,6.173-1.587,11.623,11.623,0,0,1,4.361,1.791,12.618,12.618,0,0,0,3.891,1.729c1.885.433,3.181-.314,4.82-1.259a10.47,10.47,0,0,1,6.513-1.87,13.393,13.393,0,0,1,6.241,2.4,10.345,10.345,0,0,0,3.8,1.708c.177.71.35,1.425.517,2.151A88.029,88.029,0,0,1,67.88,56.054h-.062l.057,1.1C67.886,57.339,67.891,57.517,67.891,57.705Z" fill="#dfdfdf"/>
      </g>
      <g>
        <path d="M63.144,7.49v5.447a3.2,3.2,0,0,1-3.2,3.191H33.182a3.2,3.2,0,0,1-3.2-3.191V7.49a3.2,3.2,0,0,1,3.2-3.191H59.947A3.2,3.2,0,0,1,63.144,7.49Z" fill="#429cb4"/>
        <path d="M59.947,17.434H33.182a4.5,4.5,0,0,1-4.5-4.5V7.49a4.5,4.5,0,0,1,4.5-4.5H59.947a4.5,4.5,0,0,1,4.5,4.5v5.447A4.5,4.5,0,0,1,59.947,17.434ZM33.182,5.6A1.89,1.89,0,0,0,31.291,7.49v5.447a1.89,1.89,0,0,0,1.891,1.885H59.947a1.89,1.89,0,0,0,1.891-1.885V7.49A1.89,1.89,0,0,0,59.947,5.6Z" fill="#343434"/>
      </g>
      <path d="M66.147,38.2c-.131.006-.262.006-.387.006s-.272-.006-.4-.011a10.986,10.986,0,0,1-5.416-2.084,11.363,11.363,0,0,0-5.316-2.094,8.541,8.541,0,0,0-5.3,1.6c-1.8,1.034-3.651,2.1-6.335,1.478A14.572,14.572,0,0,1,38.5,35.128a9.517,9.517,0,0,0-3.62-1.525c-2.439-.387-4.319.517-6.815,3.3-.12.126-.235.256-.35.392l-.679-.585-.888-.762-.015-.016a.388.388,0,0,1,.026-.031c.475-.549.966-1.087,1.483-1.583a14.46,14.46,0,0,1,1.394-1.191,7.9,7.9,0,0,1,6.173-1.587,11.623,11.623,0,0,1,4.361,1.791,12.618,12.618,0,0,0,3.891,1.729c1.885.433,3.181-.314,4.82-1.259a10.47,10.47,0,0,1,6.513-1.87,13.393,13.393,0,0,1,6.241,2.4,10.345,10.345,0,0,0,3.8,1.708,5.448,5.448,0,0,0,1.107.067.546.546,0,0,0,.1,0l.026.517Z" fill="#343434"/>
      <g>
        <path d="M103.089,71.5l-66.218,8.01,19.789-9.7a6.441,6.441,0,0,0,4.672,2.063c3.757,0,6.8-3.368,6.8-7.52a1.517,1.517,0,0,0-.006-.165l15.007-7.355Z" fill="#eee418"/>
        <path d="M36.87,80.559a1.044,1.044,0,0,1-.459-1.982l19.789-9.7a1.044,1.044,0,0,1,1.216.217,5.4,5.4,0,0,0,3.916,1.74c3.173,0,5.754-2.9,5.754-6.476v-.061a1.092,1.092,0,0,1,.579-1.042L82.673,55.9a1.045,1.045,0,0,1,1.078.1l19.956,14.671a1.045,1.045,0,0,1-.493,1.879L37,80.551A.888.888,0,0,1,36.87,80.559Zm19.6-9.491-13.6,6.669,57.478-6.953L83.024,58.049,69.162,64.843c-.233,4.495-3.656,8.075-7.83,8.075A7.394,7.394,0,0,1,56.467,71.068Z" fill="#343434"/>
      </g>
      <g>
        <path d="M98.877,80.253a4.45,4.45,0,0,0,4.212,4.648v9.768L36.871,102.68V97.025a5.638,5.638,0,0,0,0-10.869V79.514l66.218-8.01V75.6A4.452,4.452,0,0,0,98.877,80.253Z" fill="#d2c918"/>
        <path d="M36.871,103.724a1.045,1.045,0,0,1-1.045-1.045V97.025A1.045,1.045,0,0,1,36.676,96a4.6,4.6,0,0,0,0-8.817,1.045,1.045,0,0,1-.85-1.026V79.515a1.044,1.044,0,0,1,.919-1.037l66.218-8.011a1.043,1.043,0,0,1,1.17,1.037V75.6a1.044,1.044,0,0,1-1.044,1.045,3.638,3.638,0,0,0,0,7.214,1.044,1.044,0,0,1,1.044,1.044v9.768a1.043,1.043,0,0,1-.919,1.037L37,103.716A1.049,1.049,0,0,1,36.871,103.724Zm1.044-5.9v3.68l64.129-7.758v-7.91a5.807,5.807,0,0,1,0-11.166V72.682L37.915,80.44v4.92a6.76,6.76,0,0,1,0,12.461Z" fill="#343434"/>
      </g>
      <g>
        <ellipse cx="52.689" cy="89.772" rx="3.763" ry="4.159" fill="#a49c24"/>
        <ellipse cx="52.689" cy="89.772" rx="3.763" ry="4.159" fill="none"/>
      </g>
      <g>
        <ellipse cx="78.712" cy="80.067" rx="3.073" ry="3.397" fill="#a49c24"/>
        <ellipse cx="78.712" cy="80.067" rx="3.073" ry="3.397" fill="none"/>
      </g>
      <g>
        <ellipse cx="83.622" cy="63.729" rx="3.073" ry="2.349" fill="#a49c24"/>
        <ellipse cx="83.622" cy="63.729" rx="3.073" ry="2.349" fill="none"/>
      </g>
      <g>
        <ellipse cx="71.562" cy="70.782" rx="2.494" ry="2.034" fill="#a49c24"/>
        <ellipse cx="71.562" cy="70.782" rx="2.494" ry="2.034" fill="none"/>
      </g>
      <g>
        <ellipse cx="91.657" cy="88.447" rx="4.962" ry="5.484" fill="#a49c24"/>
        <ellipse cx="91.657" cy="88.447" rx="4.962" ry="5.484" fill="none"/>
      </g>
    </g>
    <g>
      <path d="M86.88,143.516v5.745c-.047.113-.086.232-.132.35a11.448,11.448,0,0,0-.417,1.262,13.8,13.8,0,0,1-4.49,7.245c-7.866,6.69-16,10.553-24.872,11.815a46.713,46.713,0,0,0-12.614,3.46,15.776,15.776,0,0,1-6.472,1.612,9.572,9.572,0,0,1-2.245-.258,9.257,9.257,0,0,0-2.18-.277c-3.17,0-5.171,1.994-6.564,3.731a.3.3,0,0,1-.093.092,3.05,3.05,0,0,0-.951,3.547,6.631,6.631,0,0,1-.211,4.6c-.813,2.206-2.437,3.62-5.416,4.7h-2.6a8.476,8.476,0,0,1-5.8-5.488,2.562,2.562,0,0,0-1.572-1.625c-2.265-.832-3.764-2.51-4.848-5.442v-2.576c.04-.118.086-.231.133-.343.112-.291.224-.581.33-.872a7.027,7.027,0,0,1,6.525-4.841,6.78,6.78,0,0,1,1.486.172,7.126,7.126,0,0,0,1.558.192,4.836,4.836,0,0,0,3.95-2.048,11.122,11.122,0,0,1,1.149-1.149,3.493,3.493,0,0,0,1.1-3.751,18.032,18.032,0,0,1,1.776-13.6,22.373,22.373,0,0,0,2.609-8.222,45.634,45.634,0,0,1,3.9-14.4c3.051-6.518,6.2-10.9,10.191-14.179a17.266,17.266,0,0,1,5.5-2.694c.555-.192,1.129-.4,1.691-.608h5.858c.092.033.191.066.29.1.33.112.667.225,1.03.311,12.529,2.965,21.992,10.547,28.94,23.174a35.188,35.188,0,0,1,2.82,7.839c.159.581.317,1.162.482,1.743A1.848,1.848,0,0,0,86.88,143.516Zm-6.42,11.63a12.606,12.606,0,0,0,3.17-9.464,21.879,21.879,0,0,0-1.05-5.845c-3.48-10.646-10.791-18.822-21.728-24.3a23.377,23.377,0,0,0-10.527-2.635c-.376,0-.759.013-1.136.033-6.089.33-10.335,4.273-10.824,10.052a23.108,23.108,0,0,0,1.73,10.976,41.991,41.991,0,0,0,14.437,17.963c4.247,3.058,9.689,6.208,17.865,6.374.211.013.416.019.62.019A10.173,10.173,0,0,0,80.46,155.146ZM66.644,163.91c.925-.3,1.348-.846,1.255-1.612a1.564,1.564,0,0,0-1.446-1.308,1.025,1.025,0,0,1-.165-.033c-.476-.145-.965-.27-1.433-.4a18.139,18.139,0,0,1-2.517-.786C47.987,153.666,39.2,143.82,35.466,129.693c-.007-.046-.013-.106-.02-.165-.119-1.294-.859-1.578-1.459-1.592h-.034c-1,0-1.34.938-1.466,1.295-.019.053-.039.112-.059.158a32.484,32.484,0,0,0-2.662,8.982,56.429,56.429,0,0,1-4.332,14.8c-1.942,4.623-1.651,9.213.812,12.918A12.479,12.479,0,0,0,36.5,171.623c.237,0,.482-.006.72-.026.2.013.409.013.614.013a11.617,11.617,0,0,0,4.768-.964,55.184,55.184,0,0,1,14.926-4.055,35.436,35.436,0,0,0,8.975-2.629C66.545,163.943,66.6,163.929,66.644,163.91ZM26,174.4a2.637,2.637,0,0,0,1.024-1.948,2.272,2.272,0,0,0-.951-1.645,5.123,5.123,0,0,1-.423-.383,2.9,2.9,0,0,0-2-1.083,2.552,2.552,0,0,0-1.829.918c-.991,1.037-2.035,2.061-3.045,3.045l-.277.27c-.846.833-1.3,1.136-1.665,1.136a4.078,4.078,0,0,1-1.717-.713,4.876,4.876,0,0,0-2.443-.733,3.957,3.957,0,0,0-2.279.753,3.683,3.683,0,0,0-1.552,4.009,4.067,4.067,0,0,0,3.487,3.183,5.74,5.74,0,0,1,2.074.627,6.567,6.567,0,0,1,.5,2.285,4.041,4.041,0,0,0,3.976,3.705h.046a3.787,3.787,0,0,0,3.355-1.842,4.424,4.424,0,0,0-.106-4.425c-1.076-1.948-1.037-2.272.5-3.844l.132-.138C23.849,176.524,24.919,175.434,26,174.4Z" fill="#343434"/>
      <path d="M83.63,145.682a12.606,12.606,0,0,1-3.17,9.464,10.173,10.173,0,0,1-7.443,3.176c-.2,0-.409-.006-.62-.019-8.176-.166-13.618-3.316-17.865-6.374A41.991,41.991,0,0,1,40.1,133.966a23.108,23.108,0,0,1-1.73-10.976c.489-5.779,4.735-9.722,10.824-10.052.377-.02.76-.033,1.136-.033a23.377,23.377,0,0,1,10.527,2.635c10.937,5.475,18.248,13.651,21.728,24.3A21.879,21.879,0,0,1,83.63,145.682ZM68.7,140.933a4.973,4.973,0,0,0,1.235-3.454c-.013-4.741-5.23-10.414-9.972-10.837-.258-.02-.509-.033-.753-.033a5.2,5.2,0,0,0-3.593,1.209,4.124,4.124,0,0,0-1.281,3.143,6.9,6.9,0,0,0,.317,1.995,12.519,12.519,0,0,0,9.675,9.113,5.858,5.858,0,0,0,1.288.152A4.092,4.092,0,0,0,68.7,140.933Z" fill="#c77b80"/>
      <path d="M69.933,137.479a4.973,4.973,0,0,1-1.235,3.454,4.092,4.092,0,0,1-3.084,1.288,5.858,5.858,0,0,1-1.288-.152,12.519,12.519,0,0,1-9.675-9.113,6.9,6.9,0,0,1-.317-1.995,4.124,4.124,0,0,1,1.281-3.143,5.2,5.2,0,0,1,3.593-1.209c.244,0,.5.013.753.033C64.7,127.065,69.92,132.738,69.933,137.479Zm-3.625.767a1.756,1.756,0,0,0,.429-1.176,3.04,3.04,0,0,0-.218-1.024,10.031,10.031,0,0,0-4.405-5.23,5.971,5.971,0,0,0-2.45-.984l-.086-.013-.086.006a1.7,1.7,0,0,0-1.81,1.717,2.946,2.946,0,0,0,.212,1.011,10.105,10.105,0,0,0,6.115,6.115,2.781,2.781,0,0,0,.945.2A1.764,1.764,0,0,0,66.308,138.246Z" fill="#343434"/>
      <path d="M67.9,162.3c.093.766-.33,1.314-1.255,1.612-.046.019-.1.033-.138.052a35.436,35.436,0,0,1-8.975,2.629,55.184,55.184,0,0,0-14.926,4.055,11.617,11.617,0,0,1-4.768.964c-.205,0-.41,0-.614-.013-.238.02-.483.026-.72.026a12.479,12.479,0,0,1-10.257-5.534c-2.463-3.705-2.754-8.295-.812-12.918a56.429,56.429,0,0,0,4.332-14.8,32.484,32.484,0,0,1,2.662-8.982c.02-.046.04-.105.059-.158.126-.357.469-1.295,1.466-1.295h.034c.6.014,1.34.3,1.459,1.592.007.059.013.119.02.165,3.731,14.127,12.521,23.973,26.872,30.082a18.139,18.139,0,0,0,2.517.786c.468.126.957.251,1.433.4a1.025,1.025,0,0,0,.165.033A1.564,1.564,0,0,1,67.9,162.3Z" fill="#925c14"/>
      <path d="M66.737,137.07a1.779,1.779,0,0,1-1.783,1.8,2.781,2.781,0,0,1-.945-.2,10.105,10.105,0,0,1-6.115-6.115,2.946,2.946,0,0,1-.212-1.011,1.7,1.7,0,0,1,1.81-1.717l.086-.006.086.013a5.971,5.971,0,0,1,2.45.984,10.031,10.031,0,0,1,4.405,5.23A3.04,3.04,0,0,1,66.737,137.07Z" fill="#fff0a6"/>
      <path d="M27.026,172.449A2.637,2.637,0,0,1,26,174.4c-1.083,1.037-2.153,2.127-3.19,3.177l-.132.138c-1.539,1.572-1.578,1.9-.5,3.844a4.424,4.424,0,0,1,.106,4.425,3.787,3.787,0,0,1-3.355,1.842h-.046a4.041,4.041,0,0,1-3.976-3.705,6.567,6.567,0,0,0-.5-2.285,5.74,5.74,0,0,0-2.074-.627,4.067,4.067,0,0,1-3.487-3.183,3.683,3.683,0,0,1,1.552-4.009,3.957,3.957,0,0,1,2.279-.753,4.876,4.876,0,0,1,2.443.733,4.078,4.078,0,0,0,1.717.713c.37,0,.819-.3,1.665-1.136l.277-.27c1.01-.984,2.054-2.008,3.045-3.045a2.552,2.552,0,0,1,1.829-.918,2.9,2.9,0,0,1,2,1.083,5.123,5.123,0,0,0,.423.383A2.272,2.272,0,0,1,27.026,172.449Z" fill="#fff0a6"/>
    </g>
    <g>
      <path d="M51.525,211.079a.349.349,0,0,1-.1.092c-.212.134-.576.029-.85,0a26.473,26.473,0,0,1-4.96-1,13.3,13.3,0,0,1-7.137-4.544,15.315,15.315,0,0,1-2.339-4.054,14.44,14.44,0,0,1-.772-7.536,13.756,13.756,0,0,1,2.871-6.626,2.174,2.174,0,0,1,.65-.539,2.134,2.134,0,0,1,1.874.187,14.341,14.341,0,0,1,4.029,2.841,19.431,19.431,0,0,1,3.947,6.511c.227.591.431,1.192.618,1.8a59.668,59.668,0,0,1,1.8,8.843c.131.9.265,1.8.327,2.714C51.507,210.043,51.673,210.858,51.525,211.079Z" fill="#009c53"/>
      <path d="M48.742,196.419a1.232,1.232,0,0,1-.891-.332c-1.345-1-2.37-2.384-3.676-3.442s-3.094-1.79-4.659-1.178a5.8,5.8,0,0,0-2.362,2.112,32.353,32.353,0,0,0-1.974,3,14.2,14.2,0,0,1,.191-2.532,13.756,13.756,0,0,1,2.871-6.626,2.174,2.174,0,0,1,.65-.539,2.134,2.134,0,0,1,1.874.187,14.341,14.341,0,0,1,4.029,2.841A19.431,19.431,0,0,1,48.742,196.419Z" fill="#46bc5d"/>
      <path d="M51.14,212.061a3.2,3.2,0,0,1-.476-.044c-.055-.008-.109-.017-.159-.021a27.216,27.216,0,0,1-5.117-1.027,14.072,14.072,0,0,1-7.549-4.82,16.082,16.082,0,0,1-2.464-4.273,15.254,15.254,0,0,1-.816-7.965,14.456,14.456,0,0,1,3.064-7.035,2.987,2.987,0,0,1,.905-.735,2.891,2.891,0,0,1,2.615.194,15.325,15.325,0,0,1,4.251,3.008,21.422,21.422,0,0,1,4.753,8.634,60.407,60.407,0,0,1,1.83,8.965l.011.079c.128.877.261,1.783.323,2.7,0,.05.014.126.026.215a2.3,2.3,0,0,1-.13,1.6l0,0a1.166,1.166,0,0,1-.317.313l-.018.012A1.337,1.337,0,0,1,51.14,212.061Zm.385-.982Zm-11.97-23.521a.679.679,0,0,0-.3.061,1.481,1.481,0,0,0-.395.345,12.793,12.793,0,0,0-2.675,6.214,13.608,13.608,0,0,0,.728,7.106,14.471,14.471,0,0,0,2.213,3.836,12.371,12.371,0,0,0,6.725,4.268,25.445,25.445,0,0,0,4.805.967l.076.008c-.009-.082-.019-.157-.026-.21-.018-.132-.032-.245-.038-.321-.058-.853-.185-1.727-.309-2.573l-.011-.078a58.931,58.931,0,0,0-1.774-8.72,19.822,19.822,0,0,0-4.378-7.988,13.237,13.237,0,0,0-3.8-2.673A1.917,1.917,0,0,0,39.555,187.558Z" fill="#303030"/>
      <path d="M66.705,196.905a14.648,14.648,0,0,1-.49,3.275,15.124,15.124,0,0,1-2,4.435,23.064,23.064,0,0,1-6.152,6.037c-1.215.851-2.477,1.627-3.757,2.37q-.959.557-1.925,1.094c-.3.17-1.738.718-1.835,1.023,0,0-4.363,13.772-4.591,4.132-.066-2.74-.087-5.485.067-8.221a26.89,26.89,0,0,1,.6-4.423,14.92,14.92,0,0,1,4.218-7.886,16.359,16.359,0,0,1,7.647-3.889,16.108,16.108,0,0,1,4.314-.321c1.116.07,3.051-.035,3.694,1.1A2.4,2.4,0,0,1,66.705,196.905Z" fill="#009c53"/>
      <path d="M66.705,196.905a14.648,14.648,0,0,1-.49,3.275,7.524,7.524,0,0,0-1.8-.846,11.873,11.873,0,0,0-3.951-.22,25.679,25.679,0,0,0-8.483,2.909c-2.193,1.089-4.536,2.444-5.349,4.754l-.006-.15a14.92,14.92,0,0,1,4.218-7.886,16.359,16.359,0,0,1,7.647-3.889,16.108,16.108,0,0,1,4.314-.321c1.116.07,3.051-.035,3.694,1.1A2.4,2.4,0,0,1,66.705,196.905Z" fill="#46bc5d"/>
      <path d="M46.847,223.522a1.339,1.339,0,0,1-.19-.014c-1.184-.169-1.465-1.808-1.522-4.217-.059-2.449-.1-5.349.069-8.288a27.639,27.639,0,0,1,.619-4.559,15.622,15.622,0,0,1,4.466-8.311,17.1,17.1,0,0,1,8.033-4.087,16.928,16.928,0,0,1,4.533-.337c.148.009.31.015.481.021,1.234.046,3.1.116,3.88,1.5a3.132,3.132,0,0,1,.312,1.707,15.507,15.507,0,0,1-.518,3.458,15.925,15.925,0,0,1-2.1,4.676,23.75,23.75,0,0,1-6.367,6.257c-1.1.768-2.31,1.533-3.817,2.408-.624.362-1.277.732-1.938,1.1-.111.062-.274.135-.5.237a10.554,10.554,0,0,0-1.008.5c-.171.527-.7,2.125-1.356,3.73C48.534,222.7,47.667,223.522,46.847,223.522Zm14.988-28.2A15.652,15.652,0,0,0,51.4,199.349a14.029,14.029,0,0,0-3.971,7.46,26.088,26.088,0,0,0-.58,4.287c-.163,2.881-.125,5.739-.067,8.155a12.47,12.47,0,0,0,.209,2.293,32.707,32.707,0,0,0,2.774-6.654c.166-.521.69-.8,1.847-1.321.143-.065.321-.144.37-.172.655-.364,1.3-.73,1.914-1.087,1.465-.851,2.641-1.592,3.7-2.332a22.135,22.135,0,0,0,5.938-5.817,14.247,14.247,0,0,0,1.886-4.193,13.847,13.847,0,0,0,.463-3.092v0a1.75,1.75,0,0,0-.1-.836c-.327-.579-1.638-.628-2.505-.661-.186-.007-.362-.013-.521-.023C62.448,195.334,62.141,195.324,61.835,195.324Z" fill="#303030"/>
      <g>
        <g>
          <path d="M80.092,230.56a24.721,24.721,0,0,1-.749,5.819,25.223,25.223,0,0,1-6.579,11.664,85.431,85.431,0,0,1-7.523,6.679,75.717,75.717,0,0,1-19.709,11.506c-.282-.1-2.711-1.036-2.868-1.1-7.247-2.917-14.3-6.786-19.914-12.232-.057-.055-.383-.362-.49-.467-.155-.148-.853-.844-1.017-1.013-.221-.227-.439-.453-.651-.684,0,0-.381-.412-.459-.5A31.991,31.991,0,0,1,12.879,237.5a24.417,24.417,0,0,1-.887-6.335c0-.254,0-.511.008-.768,0-.04,0-.079,0-.118.01-.313.025-.626.048-.941.014-.189.054-.63.057-.661.016-.141.029-.282.045-.424.009-.084.019-.167.031-.249s.023-.175.035-.263.022-.165.035-.248c.024-.147.044-.294.07-.442.039-.245.083-.492.132-.737.033-.167.066-.332.1-.5a.15.15,0,0,1,.008-.032c.031-.149.066-.3.1-.447.019-.083.039-.167.062-.249s.031-.136.049-.2l.087-.328c.111-.413.242-.823.37-1.235.035-.113.073-.224.112-.336.014-.045.028-.092.047-.138.043-.129.089-.257.138-.387s.1-.276.154-.411c.042-.11.085-.219.128-.328l0,0,.012-.037q.312-.772.676-1.522c.092-.191.187-.382.284-.57.08-.154.261-.494.272-.513q.138-.252.286-.506a.313.313,0,0,1,.031-.056c.086-.148.286-.479.3-.5.1-.162.2-.325.307-.486s.218-.333.332-.5c.086-.126.36-.511.411-.579.077-.1.153-.208.231-.31.049-.064.342-.441.441-.565s.216-.261.327-.391.237-.276.356-.41c.068-.074.36-.391.441-.475.059-.064.119-.126.181-.188.045-.047.251-.255.309-.31.146-.147.294-.287.445-.425.131-.123.263-.243.4-.36.148-.132.3-.262.453-.388.1-.084.521-.417.626-.5s.535-.4.644-.474l.33-.228.014-.011c.105-.07.542-.354.653-.426.226-.14.455-.278.683-.412.116-.066.233-.131.348-.195.233-.13.468-.256.7-.373s.475-.237.718-.348c.122-.056.241-.111.363-.165l.358-.154.008,0c.226-.095.455-.187.686-.274q.441-.169.887-.317c.206-.07.414-.136.622-.2a.57.57,0,0,0,.055-.016c.2-.061.394-.113.591-.167.109-.029.217-.058.326-.084.134-.035.265-.066.4-.1l.583-.128a.279.279,0,0,1,.039-.01c.192-.036.385-.076.578-.109.134-.025.27-.048.4-.068.109-.019.221-.033.329-.05.087-.013.173-.026.26-.037.134-.018.268-.034.4-.049.115-.012.232-.025.347-.035.1-.01.2-.021.295-.027.146-.012.294-.025.44-.033.165-.01.332-.018.5-.025s.315-.012.471-.014a28.371,28.371,0,0,1,3.1.113c.121.011.992.1,1.12.116.22.026,1.229.16,1.449.193q.618.093,1.232.2c.638.111,4.072.757,4.239.79a.244.244,0,0,0,.047.009c.184.035.616.119.676.129a.05.05,0,0,0,.016,0c.037.009.074.015.109.021s.2.039.237.045l.188-.076c.949-.372,5.266-2.018,8.1-2.186a26.013,26.013,0,0,1,8.979,1.1,25.229,25.229,0,0,1,7.134,3.412,22.744,22.744,0,0,1,9.261,15.516A23.667,23.667,0,0,1,80.092,230.56Z" fill="#eb937c"/>
          <path d="M38.747,215.346c-10.918-1.729-20.635,4.489-25.673,13.735-.17.311-1.08,1.5-1.047,1.8a8.645,8.645,0,0,1,.025-1.55,24.17,24.17,0,0,1,8.256-16.7,22.2,22.2,0,0,1,11.609-4.891c4.8-.544,9.582.613,14.274,1.482l.188-.076A25.687,25.687,0,0,1,55.9,219.492c2.5,4.822,3.768,9.738,2.367,14.985C58.263,234.477,54.887,217.9,38.747,215.346Z" fill="#efa694"/>
          <path d="M41.579,212.742c3.3-2.723,7.218-4.963,11.459-5.443a28.147,28.147,0,0,1,14.423,2.034c5.773,2.62,8.063,6.9,10.108,9.782,3.144,4.428,3.329,13.406,1.929,18.652,0,0-1.175-20.725-20.612-23.063a26.409,26.409,0,0,0-6.666-.086Z" fill="#efa694"/>
        </g>
        <path d="M65.241,254.722a75.717,75.717,0,0,1-19.709,11.506c-.282-.1-2.711-1.036-2.868-1.1-7.247-2.917-14.3-6.786-19.914-12.232-.057-.055-.383-.362-.49-.467-.155-.148-.853-.844-1.017-1.013-.221-.227-.439-.453-.651-.684-.074-.08-.381-.412-.459-.5A31.991,31.991,0,0,1,12.879,237.5c3.087,4.524,6.272,9.123,10.694,12.35,5.436,3.965,12,8.108,18.7,8.7C49.85,259.221,57.513,257.518,65.241,254.722Z" fill="#de896e"/>
      </g>
      <path d="M57.8,235.022c.453-6.732-1.351-14.674-5.453-19.627a24.231,24.231,0,0,0-6.424-5.457s-5.131-.954-5.271-.986a27.457,27.457,0,0,0-6.607-.595,24.974,24.974,0,0,0-3.95.434l-.047.011a20.594,20.594,0,0,0-9.382,4.39,21.126,21.126,0,0,0-6.133,8.757l0,.007-.015.04a27.522,27.522,0,0,0-1.759,8.315q-.013.285-.018.507c-.142,6.45,2.608,12.99,7.953,18.91l.013.015c.068.079.14.158.213.234l.021.023c.048.055.1.109.149.163,0,0,.478.507.694.729.162.167.849.848,1,1,.1.1.459.438.491.468a64.168,64.168,0,0,0,19.672,12.076s2.564.989,2.841,1.089a.754.754,0,1,1-.514,1.417c-.284-.1-2.887-1.107-2.887-1.107a64.779,64.779,0,0,1-20.152-12.383l-1.015-.98c-.181-.18-.351-.351-.519-.525-.223-.229-1.053-1.117-1.134-1.211-5.6-6.209-8.485-13.107-8.334-19.949,0-.159.009-.341.019-.543a29.07,29.07,0,0,1,1.861-8.792l.018-.049a22.614,22.614,0,0,1,6.57-9.364,22.08,22.08,0,0,1,10.034-4.707c.025-.006.05-.012.074-.016A26.585,26.585,0,0,1,34,206.85a29,29,0,0,1,6.977.63c.135.03,5.354,1,5.354,1a.758.758,0,0,1,.239.089,25.753,25.753,0,0,1,6.94,5.864c4.349,5.252,6.275,13.572,5.8,20.691ZM30.062,208.8h0Zm0,0Z" fill="#303030"/>
      <path d="M45.531,266.983a.761.761,0,0,1-.257-.046c-.284-.1-2.887-1.107-2.887-1.107a64.055,64.055,0,0,1-20.152-12.383l-.172-.162c-.113-.1-.224-.211-.335-.322-.142-.135-.859-.847-1.027-1.021-.223-.229-.446-.461-.663-.7-.072-.078-.144-.155-.216-.234-.09-.094-.178-.191-.262-.289-5.4-6.005-8.281-12.773-8.322-19.559,0-.317,0-.625.014-.918.01-.331.026-.658.048-.967a26.065,26.065,0,0,1,1.815-7.84l.019-.048a23.484,23.484,0,0,1,6.694-9.342,22.855,22.855,0,0,1,9.9-4.721c.025-.006.05-.012.075-.016.681-.138,1.363-.246,2.027-.321.69-.08,1.4-.126,2.176-.141a36.8,36.8,0,0,1,6.934.623c1.054.179,5.173.967,5.173.967a33.31,33.31,0,0,1,8.324-2.233,27.145,27.145,0,0,1,16.588,4.646A23.5,23.5,0,0,1,80.6,226.882a24.588,24.588,0,0,1,.243,3.684,25.993,25.993,0,0,1-7.55,18.01,81.845,81.845,0,0,1-27.517,18.365A.756.756,0,0,1,45.531,266.983ZM14.514,222a24.054,24.054,0,0,0-1.71,7.384c-.021.288-.036.594-.045.911-.011.276-.015.562-.013.856.048,8.1,4.348,14.572,7.947,18.574.081.094.153.173.226.249l.224.244q.315.339.64.671c.162.167.846.848,1,.992.11.11.208.2.307.3l.015.015.172.161a62.564,62.564,0,0,0,19.672,12.076s2.392.925,2.583,1a81.163,81.163,0,0,0,26.7-17.916,24.473,24.473,0,0,0,7.108-16.957,22.908,22.908,0,0,0-.228-3.458,21.988,21.988,0,0,0-8.945-15.006,25.578,25.578,0,0,0-15.638-4.377c-2.741.162-7.038,1.807-7.872,2.135l-.184.074a.759.759,0,0,1-.419.041s-4.323-.826-5.362-1a35.174,35.174,0,0,0-6.653-.6c-.725.013-1.39.056-2.033.13-.625.071-1.267.173-1.908.3l-.039.009a21.329,21.329,0,0,0-9.268,4.411,21.96,21.96,0,0,0-6.257,8.745C14.526,221.973,14.52,221.988,14.514,222ZM30.062,208.8h0Zm0,0Z" fill="#303030"/>
    </g>
    <g>
      <path d="M59.765,320.871c-2.6,2.119-5.957,4.87-9.644,7.839-1.719,1.388-3.512,2.824-5.334,4.261-6.614,5.232-13.578,10.506-18.749,13.752-3.211,2.016-6.632-.452-6.071-4.2.229-1.52.609-3.343,1.1-5.37v-.006c.5-2.064,1.117-4.339,1.8-6.7,2.8-9.7,6.705-20.921,8.358-25.568.5-1.388.785-2.191.785-2.191a10.611,10.611,0,0,1,2.142-3.729c3.88-4.453,11.26-6.24,16.414-3.409a1.1,1.1,0,0,1,.139.078c.235.133.47.272.694.428l2.124,1.195.458.26,4.949,2.782C65.31,304.651,65.751,315.984,59.765,320.871Z" fill="#f29049"/>
      <path d="M46.247,309.9a3.288,3.288,0,0,1-2.7,1.406,3.239,3.239,0,0,1-1.852-.58l-9.5-6.571c.495-1.388.785-2.191.785-2.191a10.611,10.611,0,0,1,2.142-3.729l10.289,7.115A3.285,3.285,0,0,1,46.247,309.9Z" fill="#be681c"/>
      <path d="M51.092,327.994c-1.719,1.388-3.512,2.824-5.334,4.261l-8.973-6.2a3.27,3.27,0,0,1,3.723-5.377Z" fill="#be681c"/>
      <path d="M27.859,336.485a3.285,3.285,0,0,1-2.7,1.406,3.249,3.249,0,0,1-1.853-.579l-1.267-.875v-.007c.5-2.063,1.117-4.338,1.8-6.7l3.193,2.209A3.277,3.277,0,0,1,27.859,336.485Z" fill="#be681c"/>
      <g>
        <path d="M50.662,294.544q-1.907-3.16-3.928-6.255c-1.885-2.876-4.782-5.5-5.709-8.893-.581-2.125-.107-4.9,2.072-5.954a5.1,5.1,0,0,1,3.887.02C54.785,276.259,54.228,288.726,50.662,294.544Z" fill="#60b463"/>
        <path d="M50.655,296.656l-.932-1.544c-1.313-2.177-2.627-4.27-3.906-6.221-.577-.88-1.252-1.735-1.967-2.64a19.046,19.046,0,0,1-3.883-6.565c-.714-2.615-.032-5.937,2.654-7.232a6.138,6.138,0,0,1,4.734-.023,9.9,9.9,0,0,1,5.984,6.375c1.956,5.559.562,12.552-1.741,16.312Zm-5.8-22.5a2.964,2.964,0,0,0-1.284.269c-1.588.766-1.953,2.982-1.49,4.678.572,2.088,2.055,3.966,3.489,5.784.713.9,1.449,1.836,2.08,2.8.96,1.465,1.941,3.011,2.925,4.609,1.494-3.534,2.115-8.723.693-12.762a7.684,7.684,0,0,0-4.656-5.039A5.326,5.326,0,0,0,44.857,274.161Z" fill="#333"/>
      </g>
      <g>
        <path d="M53.168,297.084c1.04-.208,1.672-9.736,1.817-10.873.514-4.06.978-8.155,1.186-12.244.182-3.565,1.56-5.808,4.825-7.346,4.2-1.982,8.9.841,10.663,4.868,2.421,5.538-1.576,11.46-4.931,15.668C63.352,291.391,58.683,295.982,53.168,297.084Z" fill="#60b463"/>
        <path d="M53.382,298.16l-.429-2.152a.774.774,0,0,0-.478.282c.393-.623.831-3.632,1.3-8.943.054-.618.095-1.073.12-1.274.463-3.645.964-7.941,1.18-12.162.207-4.048,1.888-6.6,5.451-8.282a7.956,7.956,0,0,1,6.306-.2,10.616,10.616,0,0,1,5.831,5.622c2.608,5.969-1.344,12.109-5.078,16.792-4.7,5.9-9.479,9.373-14.193,10.319ZM63.87,267.069a5.594,5.594,0,0,0-2.408.544c-2.815,1.328-4.031,3.185-4.2,6.41-.218,4.294-.726,8.641-1.193,12.327-.024.188-.061.613-.112,1.19A78.919,78.919,0,0,1,55,295.415c3.555-1.345,7.2-4.344,10.866-8.943,3.351-4.2,6.923-9.651,4.784-14.544a8.374,8.374,0,0,0-4.593-4.447A6.232,6.232,0,0,0,63.87,267.069Z" fill="#333"/>
      </g>
      <g>
        <path d="M57.632,299.29c.77.489,4.073-1.908,4.846-2.316,2.775-1.466,5.2-3.325,7.851-4.961,2.163-1.337,5.025-1.839,6.774.418a4.742,4.742,0,0,1,.664,4.051C75.624,304.8,63,302.787,57.632,299.29Z" fill="#60b463"/>
        <path d="M68.5,303.407a22.5,22.5,0,0,1-11.463-3.2l1.187-1.846a.513.513,0,0,0-.324-.106,14.142,14.142,0,0,0,3.131-1.679c.412-.262.748-.473.939-.575a54,54,0,0,0,4.873-3.024c.96-.642,1.922-1.287,2.914-1.9,3.16-1.952,6.386-1.684,8.217.679a5.824,5.824,0,0,1,.859,5,8.246,8.246,0,0,1-5.228,5.8A14.2,14.2,0,0,1,68.5,303.407Zm-8.08-3.882c3.736,1.611,8.9,2.338,12.391.983a6.057,6.057,0,0,0,3.9-4.3,3.632,3.632,0,0,0-.469-3.107c-1.678-2.163-4.505-.665-5.33-.156-.969.6-1.908,1.229-2.846,1.857a56.432,56.432,0,0,1-5.07,3.142c-.16.084-.438.264-.783.485C61.557,298.844,60.961,299.217,60.416,299.525Z" fill="#333"/>
      </g>
      <path d="M23.681,348.545a4.688,4.688,0,0,1-2.593-.775,5.373,5.373,0,0,1-2.206-5.41c.222-1.476.591-3.275,1.094-5.347l.029-.125c.48-1.976,1.089-4.248,1.811-6.75,2.955-10.241,7.16-22.208,8.378-25.632l.786-2.195a11.637,11.637,0,0,1,2.348-4.078c4.357-5,12.33-6.638,17.768-3.649l.244.142a7.579,7.579,0,0,1,.69.427l7.439,4.179a14.821,14.821,0,0,1,.989,22.389h0l-1.88,1.534c-2.26,1.846-4.915,4.013-7.768,6.31-1.721,1.389-3.517,2.828-5.343,4.268a232.45,232.45,0,0,1-18.845,13.82A5.538,5.538,0,0,1,23.681,348.545Zm-1.513-11.267-.031.136c-.5,2.059-.868,3.832-1.086,5.273a3.213,3.213,0,0,0,1.237,3.248,2.851,2.851,0,0,0,3.166-.14c4.358-2.736,10.634-7.34,18.652-13.684,1.821-1.435,3.609-2.867,5.325-4.255,2.851-2.294,5.5-4.457,7.759-6.3l1.881-1.535a12.665,12.665,0,0,0-.759-18.829l-7.449-4.185c-.287-.195-.493-.315-.7-.43-4.634-2.55-11.531-1.094-15.184,3.1a9.519,9.519,0,0,0-1.925,3.345l-.795,2.221c-1.213,3.409-5.4,15.325-8.337,25.5C23.227,333.165,22.636,335.362,22.168,337.278Z" fill="#333"/>
    </g>
    <g>
      <path d="M92.3,394.42a13.017,13.017,0,0,1-.33,2.028,236.916,236.916,0,0,1-43.379,3.884c-25.886,0-44.022-3.9-44.282-3.953l-2.5-.607c-.052-.381-.1-.78-.122-1.161-.364-6.329,4.681-12.258,8.964-16.09a39.469,39.469,0,0,1,9.952-6.276,17.268,17.268,0,0,0-.78,12,3.8,3.8,0,0,0,1.907,2.15,3.9,3.9,0,0,0,1.716.4,3.767,3.767,0,0,0,1.249-.208,3.823,3.823,0,0,0,2.358-4.889c-1.89-5.757.9-11.218,1.56-12.414a66.364,66.364,0,0,1,9.935-2.133c-1.04,2.219-2.653,7.143-1.353,14.512a4.383,4.383,0,0,0,4.3,3.641,3,3,0,0,0,.382-.017,4.267,4.267,0,0,0,3.017-1.665,4.321,4.321,0,0,0,.866-3.363c-1.231-7.7.954-12.449,1.7-13.767.208-.017.4-.017.606-.017a60.81,60.81,0,0,1,11.721,1.092c-.173.226-.33.451-.486.694a16.034,16.034,0,0,0-1.681,13.558C58,383.029,59.111,386.5,61.9,386.5a3.3,3.3,0,0,0,.9-.121,3.479,3.479,0,0,0,2.462-2.289,6.32,6.32,0,0,0-.122-3.172,10.069,10.069,0,0,1-.208-1.214,15.686,15.686,0,0,1,.174-3.814,13.435,13.435,0,0,1,2.826-6.121,46.429,46.429,0,0,1,13.766,7.7C89.071,383.5,92.642,389.218,92.3,394.42Z" fill="#fabb48"/>
      <path d="M91.966,396.448c-1.2,4.37-5.08,7.577-8.357,9.606a15.816,15.816,0,0,1-8.287,2.288H17A13.174,13.174,0,0,1,9.385,406q-6.631-4.656-7.576-10.23l2.5.607c.26.052,18.4,3.953,44.282,3.953A236.916,236.916,0,0,0,91.966,396.448Z" fill="#f6a42c"/>
      <path d="M65.144,380.914a6.32,6.32,0,0,1,.122,3.172,3.479,3.479,0,0,1-2.462,2.289,3.3,3.3,0,0,1-.9.121c-2.791,0-3.9-3.467-4.282-4.681A16.034,16.034,0,0,1,59.3,368.257c.156-.243.313-.468.486-.694.589.1,1.2.243,1.786.364-.278.347-.555.746-.885,1.231a14.535,14.535,0,0,0-1.508,12.154c1.127,3.468,2.306,3.676,3.242,3.451a1.748,1.748,0,0,0,1.249-1.179,5.191,5.191,0,0,0-.139-2.324,13.217,13.217,0,0,1-.243-1.4,16.776,16.776,0,0,1,.191-4.265,14.746,14.746,0,0,1,2.791-6.381c.538.156,1.11.365,1.665.555a13.435,13.435,0,0,0-2.826,6.121,15.686,15.686,0,0,0-.174,3.814A10.069,10.069,0,0,0,65.144,380.914Z" fill="#3d0f1c"/>
      <path d="M63.532,381.26a5.191,5.191,0,0,1,.139,2.324,1.748,1.748,0,0,1-1.249,1.179c-.936.225-2.115.017-3.242-3.451a14.535,14.535,0,0,1,1.508-12.154c.33-.485.607-.884.885-1.231,1.577.347,3.155.781,4.7,1.283a14.746,14.746,0,0,0-2.791,6.381,16.776,16.776,0,0,0-.191,4.265A13.217,13.217,0,0,0,63.532,381.26Z" fill="#f6a42c"/>
      <path d="M45.76,380.255a4.321,4.321,0,0,1-.866,3.363,4.267,4.267,0,0,1-3.017,1.665,3,3,0,0,1-.382.017,4.383,4.383,0,0,1-4.3-3.641c-1.3-7.369.313-12.293,1.353-14.512.676-.1,1.335-.191,2.011-.26-.5.85-3.242,5.878-1.734,14.5a2.708,2.708,0,0,0,2.9,2.236,2.6,2.6,0,0,0,1.855-1,2.629,2.629,0,0,0,.537-2.1c-1.127-7.074.434-11.807,1.439-13.975.625-.052,1.283-.052,1.908-.052C46.714,367.806,44.529,372.557,45.76,380.255Z" fill="#3d0f1c"/>
      <path d="M44.113,380.515a2.629,2.629,0,0,1-.537,2.1,2.6,2.6,0,0,1-1.855,1,2.708,2.708,0,0,1-2.9-2.236c-1.508-8.617,1.231-13.645,1.734-14.5,1.647-.191,3.312-.3,4.993-.347C44.547,368.708,42.986,373.441,44.113,380.515Z" fill="#f6a42c"/>
      <path d="M27.053,381.694a3.823,3.823,0,0,1-2.358,4.889,3.767,3.767,0,0,1-1.249.208,3.9,3.9,0,0,1-1.716-.4,3.8,3.8,0,0,1-1.907-2.15,17.268,17.268,0,0,1,.78-12c.745-.347,1.508-.677,2.306-.989C22.2,372.539,19.493,378,21.4,383.705a2.164,2.164,0,0,0,1.057,1.2,2.314,2.314,0,0,0,1.7.122,2.192,2.192,0,0,0,1.335-2.792,17.185,17.185,0,0,1,.937-12.275c.71-.226,1.439-.468,2.184-.676C27.954,370.476,25.163,375.937,27.053,381.694Z" fill="#3d0f1c"/>
      <path d="M25.492,382.231a2.192,2.192,0,0,1-1.335,2.792,2.314,2.314,0,0,1-1.7-.122,2.164,2.164,0,0,1-1.057-1.2c-1.908-5.7.8-11.166,1.508-12.449,1.127-.468,2.306-.9,3.52-1.3A17.185,17.185,0,0,0,25.492,382.231Z" fill="#f6a42c"/>
      <path d="M82.743,376.2a49.617,49.617,0,0,0-21.881-10.074,69.53,69.53,0,0,0-39.184,3.867,43.261,43.261,0,0,0-12.137,7.3c-4.56,4.074-9.934,10.42-9.518,17.425.277,4.663,3.1,8.929,8.409,12.622A14.668,14.668,0,0,0,17,410.007H75.322a17.5,17.5,0,0,0,9.154-2.549c4.092-2.531,9.068-6.8,9.467-12.917C94.342,388.768,90.562,382.6,82.743,376.2Zm-72.092,2.323a39.469,39.469,0,0,1,9.952-6.276c.745-.347,1.508-.677,2.306-.989,1.127-.468,2.306-.9,3.52-1.3.71-.226,1.439-.468,2.184-.676a66.364,66.364,0,0,1,9.935-2.133c.676-.1,1.335-.191,2.011-.26,1.647-.191,3.312-.3,4.993-.347.625-.052,1.283-.052,1.908-.052.208-.017.4-.017.606-.017a60.81,60.81,0,0,1,11.721,1.092c.589.1,1.2.243,1.786.364,1.577.347,3.155.781,4.7,1.283.538.156,1.11.365,1.665.555a46.429,46.429,0,0,1,13.766,7.7c7.369,6.034,10.94,11.755,10.594,16.957a13.017,13.017,0,0,1-.33,2.028c-1.2,4.37-5.08,7.577-8.357,9.606a15.816,15.816,0,0,1-8.287,2.288H17A13.174,13.174,0,0,1,9.385,406q-6.631-4.656-7.576-10.23c-.052-.381-.1-.78-.122-1.161C1.323,388.282,6.368,382.353,10.651,378.521Z" fill="#333"/>
    </g>
    <path d="M396.344,319.251a9.675,9.675,0,0,1-9.664-9.664,9.562,9.562,0,0,1,1.969-5.841l8.951-13.117a2.471,2.471,0,0,1,4.1,2.764l-4.484,6.569a9.664,9.664,0,0,1-.869,19.289Zm0-14.384a4.74,4.74,0,0,0-3.8,1.94l-.209.306a4.64,4.64,0,0,0-.709,2.474,4.721,4.721,0,1,0,4.722-4.72Z" fill="#3a3a3a"/>
    <path d="M398.071,217.293l.553-.676a4.392,4.392,0,0,0-3.687-6.776,4.768,4.768,0,0,0-4.529,4.475,7.773,7.773,0,0,1-.235,1.033,2.083,2.083,0,0,1-2.093,1.381,2.456,2.456,0,0,1-2.2-1.381s-.214-.829-.244-1.112c-.555-5.1,4.174-9.306,9.3-9.306a9.3,9.3,0,0,1,7.438,14.884v.025l-.142.177-.09.1a2.144,2.144,0,0,1-.187.233l-8.318,9.187h8.145a2.456,2.456,0,0,1,0,4.912H388.078a1.838,1.838,0,0,1-.211-.017c-.054,0-.1-.009-.148-.016A2.478,2.478,0,0,1,385.624,232a2.411,2.411,0,0,1,.12-.738,1.074,1.074,0,0,1,.043-.136c.031-.078.059-.137.088-.2a2.8,2.8,0,0,1,.146-.267l.035-.054.033-.041a1.9,1.9,0,0,1,.173-.226l6.157-6.8Z" fill="#3a3a3a"/>
  </g>
</svg>
