<svg xmlns="http://www.w3.org/2000/svg" width="506" height="413" viewBox="0 0 506 413">
  <g>
    <path d="M95.237,66.626a1.445,1.445,0,0,1-.431,1.062,1.4,1.4,0,0,1-1.047.431,1.472,1.472,0,0,1-1.493-1.493,1.394,1.394,0,0,1,.431-1.047,1.442,1.442,0,0,1,1.062-.431,1.472,1.472,0,0,1,1.478,1.478Z" fill="#3a3a3a"/>
    <path d="M105.385,66.626a1.444,1.444,0,0,1-.43,1.062,1.4,1.4,0,0,1-1.048.431,1.47,1.47,0,0,1-1.492-1.493,1.393,1.393,0,0,1,.43-1.047,1.443,1.443,0,0,1,1.062-.431,1.47,1.47,0,0,1,1.478,1.478Z" fill="#3a3a3a"/>
    <path d="M115.534,66.626a1.445,1.445,0,0,1-.431,1.062,1.4,1.4,0,0,1-1.047.431,1.472,1.472,0,0,1-1.493-1.493,1.394,1.394,0,0,1,.431-1.047,1.442,1.442,0,0,1,1.062-.431,1.472,1.472,0,0,1,1.478,1.478Z" fill="#3a3a3a"/>
    <path d="M125.681,66.626a1.444,1.444,0,0,1-.43,1.062,1.4,1.4,0,0,1-1.048.431,1.47,1.47,0,0,1-1.492-1.493,1.393,1.393,0,0,1,.43-1.047,1.443,1.443,0,0,1,1.062-.431,1.47,1.47,0,0,1,1.478,1.478Z" fill="#3a3a3a"/>
    <path d="M135.83,66.626a1.445,1.445,0,0,1-.431,1.062,1.4,1.4,0,0,1-1.048.431,1.472,1.472,0,0,1-1.492-1.493,1.394,1.394,0,0,1,.431-1.047,1.441,1.441,0,0,1,1.061-.431,1.472,1.472,0,0,1,1.479,1.478Z" fill="#3a3a3a"/>
    <path d="M145.978,66.626a1.445,1.445,0,0,1-.431,1.062,1.394,1.394,0,0,1-1.047.431,1.47,1.47,0,0,1-1.492-1.493,1.393,1.393,0,0,1,.43-1.047,1.443,1.443,0,0,1,1.062-.431,1.472,1.472,0,0,1,1.478,1.478Z" fill="#3a3a3a"/>
    <path d="M156.126,66.626a1.444,1.444,0,0,1-.43,1.062,1.4,1.4,0,0,1-1.048.431,1.472,1.472,0,0,1-1.492-1.493,1.394,1.394,0,0,1,.431-1.047,1.441,1.441,0,0,1,1.061-.431,1.47,1.47,0,0,1,1.478,1.478Z" fill="#3a3a3a"/>
    <path d="M166.275,66.626a1.445,1.445,0,0,1-.431,1.062,1.394,1.394,0,0,1-1.047.431,1.472,1.472,0,0,1-1.493-1.493,1.394,1.394,0,0,1,.431-1.047,1.443,1.443,0,0,1,1.062-.431,1.472,1.472,0,0,1,1.478,1.478Z" fill="#3a3a3a"/>
    <path d="M176.422,66.626a1.444,1.444,0,0,1-.43,1.062,1.4,1.4,0,0,1-1.048.431,1.47,1.47,0,0,1-1.492-1.493,1.393,1.393,0,0,1,.43-1.047,1.443,1.443,0,0,1,1.062-.431,1.47,1.47,0,0,1,1.478,1.478Z" fill="#3a3a3a"/>
    <path d="M186.571,66.626a1.445,1.445,0,0,1-.431,1.062,1.394,1.394,0,0,1-1.047.431,1.472,1.472,0,0,1-1.493-1.493,1.394,1.394,0,0,1,.431-1.047,1.443,1.443,0,0,1,1.062-.431,1.472,1.472,0,0,1,1.478,1.478Z" fill="#3a3a3a"/>
    <path d="M196.719,66.626a1.444,1.444,0,0,1-.43,1.062,1.4,1.4,0,0,1-1.048.431,1.47,1.47,0,0,1-1.492-1.493,1.393,1.393,0,0,1,.43-1.047,1.443,1.443,0,0,1,1.062-.431,1.47,1.47,0,0,1,1.478,1.478Z" fill="#3a3a3a"/>
    <path d="M206.868,66.626a1.445,1.445,0,0,1-.431,1.062,1.394,1.394,0,0,1-1.047.431,1.472,1.472,0,0,1-1.493-1.493,1.394,1.394,0,0,1,.431-1.047,1.442,1.442,0,0,1,1.062-.431,1.472,1.472,0,0,1,1.478,1.478Z" fill="#3a3a3a"/>
    <path d="M217.016,66.626a1.444,1.444,0,0,1-.43,1.062,1.4,1.4,0,0,1-1.048.431,1.47,1.47,0,0,1-1.492-1.493,1.393,1.393,0,0,1,.43-1.047,1.443,1.443,0,0,1,1.062-.431,1.47,1.47,0,0,1,1.478,1.478Z" fill="#3a3a3a"/>
    <path d="M227.164,66.626a1.445,1.445,0,0,1-.431,1.062,1.4,1.4,0,0,1-1.047.431,1.472,1.472,0,0,1-1.493-1.493,1.394,1.394,0,0,1,.431-1.047,1.442,1.442,0,0,1,1.062-.431,1.472,1.472,0,0,1,1.478,1.478Z" fill="#3a3a3a"/>
    <path d="M237.312,66.626a1.444,1.444,0,0,1-.43,1.062,1.4,1.4,0,0,1-1.048.431,1.47,1.47,0,0,1-1.492-1.493,1.393,1.393,0,0,1,.43-1.047,1.443,1.443,0,0,1,1.062-.431,1.47,1.47,0,0,1,1.478,1.478Z" fill="#3a3a3a"/>
    <path d="M247.461,66.626a1.445,1.445,0,0,1-.431,1.062,1.4,1.4,0,0,1-1.047.431,1.472,1.472,0,0,1-1.493-1.493,1.394,1.394,0,0,1,.431-1.047,1.442,1.442,0,0,1,1.062-.431,1.472,1.472,0,0,1,1.478,1.478Z" fill="#3a3a3a"/>
    <path d="M257.609,66.626a1.444,1.444,0,0,1-.43,1.062,1.4,1.4,0,0,1-1.048.431,1.47,1.47,0,0,1-1.492-1.493,1.393,1.393,0,0,1,.43-1.047,1.443,1.443,0,0,1,1.062-.431,1.47,1.47,0,0,1,1.478,1.478Z" fill="#3a3a3a"/>
    <path d="M267.758,66.626a1.445,1.445,0,0,1-.431,1.062,1.4,1.4,0,0,1-1.047.431,1.472,1.472,0,0,1-1.493-1.493,1.394,1.394,0,0,1,.431-1.047,1.443,1.443,0,0,1,1.062-.431,1.472,1.472,0,0,1,1.478,1.478Z" fill="#3a3a3a"/>
    <path d="M277.9,66.626a1.444,1.444,0,0,1-.43,1.062,1.4,1.4,0,0,1-1.048.431,1.47,1.47,0,0,1-1.492-1.493,1.393,1.393,0,0,1,.43-1.047,1.445,1.445,0,0,1,1.062-.431,1.47,1.47,0,0,1,1.478,1.478Z" fill="#3a3a3a"/>
    <path d="M288.055,66.626a1.445,1.445,0,0,1-.431,1.062,1.4,1.4,0,0,1-1.048.431,1.472,1.472,0,0,1-1.492-1.493,1.394,1.394,0,0,1,.431-1.047,1.443,1.443,0,0,1,1.061-.431,1.472,1.472,0,0,1,1.479,1.478Z" fill="#3a3a3a"/>
    <path d="M298.2,66.626a1.445,1.445,0,0,1-.431,1.062,1.394,1.394,0,0,1-1.047.431,1.47,1.47,0,0,1-1.492-1.493,1.393,1.393,0,0,1,.43-1.047,1.445,1.445,0,0,1,1.062-.431,1.472,1.472,0,0,1,1.478,1.478Z" fill="#3a3a3a"/>
    <path d="M308.349,66.626a1.444,1.444,0,0,1-.43,1.062,1.4,1.4,0,0,1-1.048.431,1.47,1.47,0,0,1-1.492-1.493,1.393,1.393,0,0,1,.43-1.047,1.445,1.445,0,0,1,1.062-.431,1.47,1.47,0,0,1,1.478,1.478Z" fill="#3a3a3a"/>
    <path d="M318.5,66.626a1.445,1.445,0,0,1-.431,1.062,1.394,1.394,0,0,1-1.047.431,1.472,1.472,0,0,1-1.493-1.493,1.394,1.394,0,0,1,.431-1.047,1.445,1.445,0,0,1,1.062-.431,1.472,1.472,0,0,1,1.478,1.478Z" fill="#3a3a3a"/>
    <path d="M328.646,66.626a1.444,1.444,0,0,1-.43,1.062,1.4,1.4,0,0,1-1.048.431,1.47,1.47,0,0,1-1.492-1.493,1.393,1.393,0,0,1,.43-1.047,1.445,1.445,0,0,1,1.062-.431,1.47,1.47,0,0,1,1.478,1.478Z" fill="#3a3a3a"/>
    <path d="M338.8,66.626a1.445,1.445,0,0,1-.431,1.062,1.394,1.394,0,0,1-1.047.431,1.472,1.472,0,0,1-1.493-1.493,1.394,1.394,0,0,1,.431-1.047,1.445,1.445,0,0,1,1.062-.431,1.472,1.472,0,0,1,1.478,1.478Z" fill="#3a3a3a"/>
    <path d="M348.943,66.626a1.444,1.444,0,0,1-.43,1.062,1.4,1.4,0,0,1-1.048.431,1.47,1.47,0,0,1-1.492-1.493,1.393,1.393,0,0,1,.43-1.047,1.445,1.445,0,0,1,1.062-.431,1.47,1.47,0,0,1,1.478,1.478Z" fill="#3a3a3a"/>
    <path d="M359.091,66.626a1.445,1.445,0,0,1-.431,1.062,1.4,1.4,0,0,1-1.047.431,1.472,1.472,0,0,1-1.493-1.493,1.394,1.394,0,0,1,.431-1.047,1.443,1.443,0,0,1,1.062-.431,1.472,1.472,0,0,1,1.478,1.478Z" fill="#3a3a3a"/>
    <path d="M385.753,52.965a1.542,1.542,0,0,1-.463,1.13,1.566,1.566,0,0,1-1.153.463,1.581,1.581,0,0,1-1.592-1.593V37.533l-.775.213a1.625,1.625,0,0,1-.56.109,1.55,1.55,0,0,1-1.593-1.593,1.563,1.563,0,0,1,.259-.872,1.47,1.47,0,0,1,.666-.572l3.036-1.033a1.6,1.6,0,0,1,.559-.106,1.562,1.562,0,0,1,1.153.463,1.541,1.541,0,0,1,.463,1.13Zm17.691-19.286a2.158,2.158,0,0,1,.884.182,2.323,2.323,0,0,1,1.2,1.2,2.156,2.156,0,0,1,.182.882,2.372,2.372,0,0,1-.344,1.228L385.429,67.02a2.3,2.3,0,0,1-1.937,1.1,2.255,2.255,0,0,1-.884-.173,2.122,2.122,0,0,1-.709-.483,2.355,2.355,0,0,1-.474-.722,2.213,2.213,0,0,1-.172-.861,2.109,2.109,0,0,1,.322-1.2l20.061-30.092A2.028,2.028,0,0,1,403.444,33.679ZM408.7,64.933a1.619,1.619,0,0,1,1.132.451,1.589,1.589,0,0,1,0,2.284,1.619,1.619,0,0,1-1.132.451h-9.815a1.543,1.543,0,0,1-1.591-1.593,1.59,1.59,0,0,1,.451-1.1l8.372-9.278a3.259,3.259,0,0,0,.993-2.391,3.136,3.136,0,0,0-.271-1.291,3.444,3.444,0,0,0-.722-1.054,3.306,3.306,0,0,0-1.053-.709,3.2,3.2,0,0,0-1.271-.258,3.247,3.247,0,0,0-1.292.258,3.307,3.307,0,0,0-1.763,1.763,3.26,3.26,0,0,0-.258,1.291,1.593,1.593,0,1,1-3.186,0,6.22,6.22,0,0,1,.517-2.517,6.587,6.587,0,0,1,3.464-3.464,6.218,6.218,0,0,1,2.518-.517,6.132,6.132,0,0,1,2.509.527,6.791,6.791,0,0,1,2.076,1.408,6.888,6.888,0,0,1,1.411,2.066,6.111,6.111,0,0,1,.527,2.5,5.957,5.957,0,0,1-.507,2.456,7.854,7.854,0,0,1-1.408,2.13l-5.92,6.587Z" fill="#3a3a3a"/>
    <path d="M435.871,61.559a6.546,6.546,0,0,1-11.242,4.557v6.7a.925.925,0,1,1-1.849,0V61.559a6.546,6.546,0,1,1,13.091,0Zm-1.851,0a4.7,4.7,0,1,0-4.695,4.694A4.7,4.7,0,0,0,434.02,61.559Z" fill="#3a3a3a"/>
    <path d="M450.551,61.577a6.546,6.546,0,1,1-6.546-6.546A6.548,6.548,0,0,1,450.551,61.577Zm-1.849,0a4.7,4.7,0,1,0-4.7,4.7A4.7,4.7,0,0,0,448.7,61.577Z" fill="#3a3a3a"/>
    <path d="M464.653,67.192a.925.925,0,0,1-1.849,0v-.9a6,6,0,0,1-4.369,1.818c-3.616,0-5.939-2.931-5.939-6.543V55.948a.925.925,0,1,1,1.849,0v5.615c0,2.589,1.5,4.694,4.09,4.694a4.431,4.431,0,0,0,4.369-4.68v-5.64a.925.925,0,0,1,1.849,0Z" fill="#3a3a3a"/>
    <path d="M479.661,61.567v5.615a.925.925,0,0,1-1.849,0V61.567c0-2.589-1.5-4.695-4.09-4.695a4.432,4.432,0,0,0-4.369,4.68v5.64a.925.925,0,0,1-1.849,0V55.937a.925.925,0,0,1,1.849,0v.9a6.01,6.01,0,0,1,4.369-1.816C477.338,55.023,479.661,57.953,479.661,61.567Z" fill="#3a3a3a"/>
    <path d="M494.7,61.577a6.555,6.555,0,1,1-1.852-4.557v-6.7a.926.926,0,0,1,1.852,0Zm-1.852,0a4.7,4.7,0,1,0-4.694,4.7A4.709,4.709,0,0,0,492.852,61.579Z" fill="#3a3a3a"/>
    <path d="M87.994,150.594a1.444,1.444,0,0,1-.43,1.062,1.4,1.4,0,0,1-1.048.43,1.469,1.469,0,0,1-1.492-1.492,1.4,1.4,0,0,1,.43-1.048,1.443,1.443,0,0,1,1.062-.43,1.468,1.468,0,0,1,1.478,1.478Z" fill="#3a3a3a"/>
    <path d="M98.143,150.594a1.445,1.445,0,0,1-.431,1.062,1.4,1.4,0,0,1-1.048.43,1.47,1.47,0,0,1-1.492-1.492,1.4,1.4,0,0,1,.431-1.048,1.44,1.44,0,0,1,1.061-.43,1.47,1.47,0,0,1,1.479,1.478Z" fill="#3a3a3a"/>
    <path d="M108.291,150.594a1.444,1.444,0,0,1-.43,1.062,1.4,1.4,0,0,1-1.048.43,1.469,1.469,0,0,1-1.492-1.492,1.4,1.4,0,0,1,.43-1.048,1.443,1.443,0,0,1,1.062-.43,1.468,1.468,0,0,1,1.478,1.478Z" fill="#3a3a3a"/>
    <path d="M118.438,150.594a1.444,1.444,0,0,1-.43,1.062,1.4,1.4,0,0,1-1.048.43,1.47,1.47,0,0,1-1.492-1.492,1.4,1.4,0,0,1,.431-1.048,1.44,1.44,0,0,1,1.061-.43,1.468,1.468,0,0,1,1.478,1.478Z" fill="#3a3a3a"/>
    <path d="M128.587,150.594a1.445,1.445,0,0,1-.431,1.062,1.393,1.393,0,0,1-1.047.43,1.47,1.47,0,0,1-1.493-1.492,1.4,1.4,0,0,1,.431-1.048,1.443,1.443,0,0,1,1.062-.43,1.47,1.47,0,0,1,1.478,1.478Z" fill="#3a3a3a"/>
    <path d="M138.735,150.594a1.444,1.444,0,0,1-.43,1.062,1.4,1.4,0,0,1-1.048.43,1.469,1.469,0,0,1-1.492-1.492,1.4,1.4,0,0,1,.43-1.048,1.443,1.443,0,0,1,1.062-.43,1.468,1.468,0,0,1,1.478,1.478Z" fill="#3a3a3a"/>
    <path d="M148.884,150.594a1.445,1.445,0,0,1-.431,1.062,1.393,1.393,0,0,1-1.047.43,1.47,1.47,0,0,1-1.493-1.492,1.4,1.4,0,0,1,.431-1.048,1.443,1.443,0,0,1,1.062-.43,1.47,1.47,0,0,1,1.478,1.478Z" fill="#3a3a3a"/>
    <path d="M159.032,150.594a1.444,1.444,0,0,1-.43,1.062,1.4,1.4,0,0,1-1.048.43,1.469,1.469,0,0,1-1.492-1.492,1.4,1.4,0,0,1,.43-1.048,1.443,1.443,0,0,1,1.062-.43,1.468,1.468,0,0,1,1.478,1.478Z" fill="#3a3a3a"/>
    <path d="M169.18,150.594a1.445,1.445,0,0,1-.431,1.062,1.4,1.4,0,0,1-1.047.43,1.47,1.47,0,0,1-1.493-1.492,1.4,1.4,0,0,1,.431-1.048,1.441,1.441,0,0,1,1.062-.43,1.47,1.47,0,0,1,1.478,1.478Z" fill="#3a3a3a"/>
    <path d="M179.328,150.594a1.444,1.444,0,0,1-.43,1.062,1.4,1.4,0,0,1-1.048.43,1.469,1.469,0,0,1-1.492-1.492,1.4,1.4,0,0,1,.43-1.048,1.443,1.443,0,0,1,1.062-.43,1.468,1.468,0,0,1,1.478,1.478Z" fill="#3a3a3a"/>
    <path d="M189.477,150.594a1.445,1.445,0,0,1-.431,1.062,1.4,1.4,0,0,1-1.047.43,1.47,1.47,0,0,1-1.493-1.492,1.4,1.4,0,0,1,.431-1.048,1.441,1.441,0,0,1,1.062-.43,1.47,1.47,0,0,1,1.478,1.478Z" fill="#3a3a3a"/>
    <path d="M199.625,150.594a1.444,1.444,0,0,1-.43,1.062,1.4,1.4,0,0,1-1.048.43,1.469,1.469,0,0,1-1.492-1.492,1.4,1.4,0,0,1,.43-1.048,1.443,1.443,0,0,1,1.062-.43,1.468,1.468,0,0,1,1.478,1.478Z" fill="#3a3a3a"/>
    <path d="M209.774,150.594a1.445,1.445,0,0,1-.431,1.062,1.4,1.4,0,0,1-1.047.43,1.47,1.47,0,0,1-1.493-1.492,1.4,1.4,0,0,1,.431-1.048,1.441,1.441,0,0,1,1.062-.43,1.47,1.47,0,0,1,1.478,1.478Z" fill="#3a3a3a"/>
    <path d="M219.921,150.594a1.444,1.444,0,0,1-.43,1.062,1.4,1.4,0,0,1-1.048.43,1.469,1.469,0,0,1-1.492-1.492,1.4,1.4,0,0,1,.43-1.048,1.443,1.443,0,0,1,1.062-.43,1.468,1.468,0,0,1,1.478,1.478Z" fill="#3a3a3a"/>
    <path d="M230.07,150.594a1.445,1.445,0,0,1-.431,1.062,1.4,1.4,0,0,1-1.047.43,1.47,1.47,0,0,1-1.493-1.492,1.4,1.4,0,0,1,.431-1.048,1.441,1.441,0,0,1,1.062-.43,1.47,1.47,0,0,1,1.478,1.478Z" fill="#3a3a3a"/>
    <path d="M240.218,150.594a1.444,1.444,0,0,1-.43,1.062,1.4,1.4,0,0,1-1.048.43,1.469,1.469,0,0,1-1.492-1.492,1.4,1.4,0,0,1,.43-1.048,1.443,1.443,0,0,1,1.062-.43,1.468,1.468,0,0,1,1.478,1.478Z" fill="#3a3a3a"/>
    <path d="M250.366,150.594a1.444,1.444,0,0,1-.43,1.062,1.4,1.4,0,0,1-1.048.43,1.47,1.47,0,0,1-1.492-1.492,1.4,1.4,0,0,1,.431-1.048,1.44,1.44,0,0,1,1.061-.43,1.468,1.468,0,0,1,1.478,1.478Z" fill="#3a3a3a"/>
    <path d="M260.515,150.594a1.445,1.445,0,0,1-.431,1.062,1.393,1.393,0,0,1-1.047.43,1.469,1.469,0,0,1-1.492-1.492,1.4,1.4,0,0,1,.43-1.048,1.443,1.443,0,0,1,1.062-.43,1.47,1.47,0,0,1,1.478,1.478Z" fill="#3a3a3a"/>
    <path d="M270.662,150.594a1.444,1.444,0,0,1-.43,1.062,1.4,1.4,0,0,1-1.048.43,1.469,1.469,0,0,1-1.492-1.492,1.4,1.4,0,0,1,.43-1.048,1.444,1.444,0,0,1,1.062-.43,1.468,1.468,0,0,1,1.478,1.478Z" fill="#3a3a3a"/>
    <path d="M280.812,150.594a1.445,1.445,0,0,1-.431,1.062,1.393,1.393,0,0,1-1.047.43,1.47,1.47,0,0,1-1.493-1.492,1.4,1.4,0,0,1,.431-1.048,1.444,1.444,0,0,1,1.062-.43,1.47,1.47,0,0,1,1.478,1.478Z" fill="#3a3a3a"/>
    <path d="M290.959,150.594a1.444,1.444,0,0,1-.43,1.062,1.4,1.4,0,0,1-1.048.43,1.469,1.469,0,0,1-1.492-1.492,1.4,1.4,0,0,1,.43-1.048,1.444,1.444,0,0,1,1.062-.43,1.468,1.468,0,0,1,1.478,1.478Z" fill="#3a3a3a"/>
    <path d="M301.107,150.594a1.445,1.445,0,0,1-.431,1.062,1.393,1.393,0,0,1-1.047.43,1.47,1.47,0,0,1-1.493-1.492,1.4,1.4,0,0,1,.431-1.048,1.443,1.443,0,0,1,1.062-.43,1.47,1.47,0,0,1,1.478,1.478Z" fill="#3a3a3a"/>
    <path d="M311.256,150.594a1.444,1.444,0,0,1-.43,1.062,1.4,1.4,0,0,1-1.048.43,1.469,1.469,0,0,1-1.492-1.492,1.4,1.4,0,0,1,.43-1.048,1.444,1.444,0,0,1,1.062-.43,1.468,1.468,0,0,1,1.478,1.478Z" fill="#3a3a3a"/>
    <path d="M321.4,150.594a1.445,1.445,0,0,1-.431,1.062,1.4,1.4,0,0,1-1.047.43,1.47,1.47,0,0,1-1.493-1.492,1.4,1.4,0,0,1,.431-1.048,1.443,1.443,0,0,1,1.062-.43,1.47,1.47,0,0,1,1.478,1.478Z" fill="#3a3a3a"/>
    <path d="M331.553,150.594a1.444,1.444,0,0,1-.43,1.062,1.4,1.4,0,0,1-1.048.43,1.469,1.469,0,0,1-1.492-1.492,1.4,1.4,0,0,1,.43-1.048,1.444,1.444,0,0,1,1.062-.43,1.468,1.468,0,0,1,1.478,1.478Z" fill="#3a3a3a"/>
    <path d="M341.7,150.594a1.445,1.445,0,0,1-.431,1.062,1.4,1.4,0,0,1-1.047.43,1.47,1.47,0,0,1-1.493-1.492,1.4,1.4,0,0,1,.431-1.048,1.443,1.443,0,0,1,1.062-.43,1.47,1.47,0,0,1,1.478,1.478Z" fill="#3a3a3a"/>
    <path d="M351.848,150.594a1.444,1.444,0,0,1-.43,1.062,1.4,1.4,0,0,1-1.048.43,1.469,1.469,0,0,1-1.492-1.492,1.4,1.4,0,0,1,.43-1.048,1.444,1.444,0,0,1,1.062-.43,1.468,1.468,0,0,1,1.478,1.478Z" fill="#3a3a3a"/>
    <path d="M362,150.594a1.445,1.445,0,0,1-.431,1.062,1.4,1.4,0,0,1-1.047.43,1.47,1.47,0,0,1-1.493-1.492,1.4,1.4,0,0,1,.431-1.048,1.443,1.443,0,0,1,1.062-.43A1.47,1.47,0,0,1,362,150.594Z" fill="#3a3a3a"/>
    <path d="M395.954,152.086a2.453,2.453,0,0,1-2.45-2.45v-4.378h-9.8a1.752,1.752,0,0,1-.18-.013,2.117,2.117,0,0,1-.283-.033,2.067,2.067,0,0,1-.238-.063l-.039-.012a1.41,1.41,0,0,1-.2-.068,1.987,1.987,0,0,1-.285-.146.745.745,0,0,1-.121-.067l-.041-.029a2.419,2.419,0,0,1-.346-.285l-.051-.051-.054-.066-.039.019-.16-.271c-.039-.059-.068-.115-.1-.174a2.755,2.755,0,0,1-.127-.248l-.107-.218.029-.016a2.091,2.091,0,0,1-.074-.314,2.288,2.288,0,0,1-.035-.338l0-.039a1.3,1.3,0,0,1,.013-.2,2.443,2.443,0,0,1,.032-.287,1.811,1.811,0,0,1,.06-.219l.016-.055a1.846,1.846,0,0,1,.062-.187,2.878,2.878,0,0,1,.143-.283,1.539,1.539,0,0,1,.086-.147l12.14-17.72a2.428,2.428,0,0,1,2.034-1.081.905.905,0,0,1,.111-.006,2.452,2.452,0,0,1,2.449,2.45v15.266h1.683a2.45,2.45,0,0,1,0,4.9H398.4v4.378A2.452,2.452,0,0,1,395.954,152.086Zm-2.45-11.728v-7.517l-5.15,7.517Z" fill="#3a3a3a"/>
    <path d="M435.438,145.526a6.545,6.545,0,0,1-11.242,4.557v6.695a.925.925,0,1,1-1.849,0V145.526a6.546,6.546,0,1,1,13.091,0Zm-1.851,0a4.7,4.7,0,1,0-4.694,4.695A4.7,4.7,0,0,0,433.587,145.526Z" fill="#3a3a3a"/>
    <path d="M450.118,145.545A6.546,6.546,0,1,1,443.573,139,6.546,6.546,0,0,1,450.118,145.545Zm-1.849,0a4.7,4.7,0,1,0-4.7,4.7A4.7,4.7,0,0,0,448.269,145.545Z" fill="#3a3a3a"/>
    <path d="M464.22,151.159a.925.925,0,1,1-1.849,0v-.9A6,6,0,0,1,458,152.074c-3.617,0-5.939-2.932-5.939-6.544v-5.615a.925.925,0,0,1,1.849,0v5.615c0,2.589,1.5,4.695,4.09,4.695a4.431,4.431,0,0,0,4.368-4.68v-5.64a.925.925,0,1,1,1.849,0Z" fill="#3a3a3a"/>
    <path d="M479.228,145.534v5.615a.925.925,0,1,1-1.849,0v-5.615c0-2.589-1.5-4.694-4.09-4.694a4.431,4.431,0,0,0-4.368,4.68v5.639a.925.925,0,1,1-1.849,0V139.905a.925.925,0,1,1,1.849,0v.9a6.009,6.009,0,0,1,4.368-1.816C476.906,138.991,479.228,141.92,479.228,145.534Z" fill="#3a3a3a"/>
    <path d="M494.271,145.545a6.552,6.552,0,1,1-1.851-4.558v-6.7a.926.926,0,0,1,1.851,0Zm-1.851,0a4.7,4.7,0,1,0-4.695,4.694A4.71,4.71,0,0,0,492.42,145.547Z" fill="#3a3a3a"/>
    <path d="M504.837,150.073c-.048.067-.1.135-.152.2a5.15,5.15,0,0,1-4.063,1.712,6.245,6.245,0,0,1-1.693-.228,4.5,4.5,0,0,1-2.682-2.124l-.028-.047a.924.924,0,1,1,1.57-.976l.043.07a2.7,2.7,0,0,0,1.6,1.3,3.878,3.878,0,0,0,3.809-.863c.028-.035.053-.07.078-.107a1.82,1.82,0,0,0,.172-1.63,2.041,2.041,0,0,0-1.359-1.3c-.281-.084-.89-.2-1.376-.292-.432-.08-.806-.151-1.039-.211a3.358,3.358,0,0,1-2.567-3.655,3.588,3.588,0,0,1,2.51-2.687,4.587,4.587,0,0,1,5.327,1.818.924.924,0,1,1-1.625.881,2.794,2.794,0,0,0-3.122-.945,1.774,1.774,0,0,0-1.263,1.224,1.538,1.538,0,0,0,1.2,1.575c.172.045.55.114.917.184.582.111,1.185.223,1.556.332a3.87,3.87,0,0,1,2.583,2.468A3.664,3.664,0,0,1,504.837,150.073Z" fill="#3a3a3a"/>
    <path d="M87.994,234.561a1.444,1.444,0,0,1-.43,1.062,1.4,1.4,0,0,1-1.048.431,1.47,1.47,0,0,1-1.492-1.493,1.393,1.393,0,0,1,.43-1.047,1.443,1.443,0,0,1,1.062-.431,1.47,1.47,0,0,1,1.478,1.478Z" fill="#3a3a3a"/>
    <path d="M98.143,234.561a1.445,1.445,0,0,1-.431,1.062,1.4,1.4,0,0,1-1.048.431,1.472,1.472,0,0,1-1.492-1.493,1.394,1.394,0,0,1,.431-1.047,1.441,1.441,0,0,1,1.061-.431,1.472,1.472,0,0,1,1.479,1.478Z" fill="#3a3a3a"/>
    <path d="M108.291,234.561a1.444,1.444,0,0,1-.43,1.062,1.4,1.4,0,0,1-1.048.431,1.47,1.47,0,0,1-1.492-1.493,1.393,1.393,0,0,1,.43-1.047,1.443,1.443,0,0,1,1.062-.431,1.47,1.47,0,0,1,1.478,1.478Z" fill="#3a3a3a"/>
    <path d="M118.438,234.561a1.444,1.444,0,0,1-.43,1.062,1.4,1.4,0,0,1-1.048.431,1.472,1.472,0,0,1-1.492-1.493,1.394,1.394,0,0,1,.431-1.047,1.441,1.441,0,0,1,1.061-.431,1.47,1.47,0,0,1,1.478,1.478Z" fill="#3a3a3a"/>
    <path d="M128.587,234.561a1.445,1.445,0,0,1-.431,1.062,1.394,1.394,0,0,1-1.047.431,1.472,1.472,0,0,1-1.493-1.493,1.394,1.394,0,0,1,.431-1.047,1.443,1.443,0,0,1,1.062-.431,1.472,1.472,0,0,1,1.478,1.478Z" fill="#3a3a3a"/>
    <path d="M138.735,234.561a1.444,1.444,0,0,1-.43,1.062,1.4,1.4,0,0,1-1.048.431,1.47,1.47,0,0,1-1.492-1.493,1.393,1.393,0,0,1,.43-1.047,1.443,1.443,0,0,1,1.062-.431,1.47,1.47,0,0,1,1.478,1.478Z" fill="#3a3a3a"/>
    <path d="M148.884,234.561a1.445,1.445,0,0,1-.431,1.062,1.394,1.394,0,0,1-1.047.431,1.472,1.472,0,0,1-1.493-1.493,1.394,1.394,0,0,1,.431-1.047,1.443,1.443,0,0,1,1.062-.431,1.472,1.472,0,0,1,1.478,1.478Z" fill="#3a3a3a"/>
    <path d="M159.032,234.561a1.444,1.444,0,0,1-.43,1.062,1.4,1.4,0,0,1-1.048.431,1.47,1.47,0,0,1-1.492-1.493,1.393,1.393,0,0,1,.43-1.047,1.443,1.443,0,0,1,1.062-.431,1.47,1.47,0,0,1,1.478,1.478Z" fill="#3a3a3a"/>
    <path d="M169.18,234.561a1.445,1.445,0,0,1-.431,1.062,1.4,1.4,0,0,1-1.047.431,1.472,1.472,0,0,1-1.493-1.493,1.394,1.394,0,0,1,.431-1.047,1.442,1.442,0,0,1,1.062-.431,1.472,1.472,0,0,1,1.478,1.478Z" fill="#3a3a3a"/>
    <path d="M179.328,234.561a1.444,1.444,0,0,1-.43,1.062,1.4,1.4,0,0,1-1.048.431,1.47,1.47,0,0,1-1.492-1.493,1.393,1.393,0,0,1,.43-1.047,1.443,1.443,0,0,1,1.062-.431,1.47,1.47,0,0,1,1.478,1.478Z" fill="#3a3a3a"/>
    <path d="M189.477,234.561a1.445,1.445,0,0,1-.431,1.062,1.4,1.4,0,0,1-1.047.431,1.472,1.472,0,0,1-1.493-1.493,1.394,1.394,0,0,1,.431-1.047,1.442,1.442,0,0,1,1.062-.431,1.472,1.472,0,0,1,1.478,1.478Z" fill="#3a3a3a"/>
    <path d="M199.625,234.561a1.444,1.444,0,0,1-.43,1.062,1.4,1.4,0,0,1-1.048.431,1.47,1.47,0,0,1-1.492-1.493,1.393,1.393,0,0,1,.43-1.047,1.443,1.443,0,0,1,1.062-.431,1.47,1.47,0,0,1,1.478,1.478Z" fill="#3a3a3a"/>
    <path d="M209.774,234.561a1.445,1.445,0,0,1-.431,1.062,1.4,1.4,0,0,1-1.047.431,1.472,1.472,0,0,1-1.493-1.493,1.394,1.394,0,0,1,.431-1.047,1.442,1.442,0,0,1,1.062-.431,1.472,1.472,0,0,1,1.478,1.478Z" fill="#3a3a3a"/>
    <path d="M219.921,234.561a1.444,1.444,0,0,1-.43,1.062,1.4,1.4,0,0,1-1.048.431,1.47,1.47,0,0,1-1.492-1.493,1.393,1.393,0,0,1,.43-1.047,1.443,1.443,0,0,1,1.062-.431,1.47,1.47,0,0,1,1.478,1.478Z" fill="#3a3a3a"/>
    <path d="M230.07,234.561a1.445,1.445,0,0,1-.431,1.062,1.4,1.4,0,0,1-1.047.431,1.472,1.472,0,0,1-1.493-1.493,1.394,1.394,0,0,1,.431-1.047,1.442,1.442,0,0,1,1.062-.431,1.472,1.472,0,0,1,1.478,1.478Z" fill="#3a3a3a"/>
    <path d="M240.218,234.561a1.444,1.444,0,0,1-.43,1.062,1.4,1.4,0,0,1-1.048.431,1.47,1.47,0,0,1-1.492-1.493,1.393,1.393,0,0,1,.43-1.047,1.443,1.443,0,0,1,1.062-.431,1.47,1.47,0,0,1,1.478,1.478Z" fill="#3a3a3a"/>
    <path d="M250.366,234.561a1.444,1.444,0,0,1-.43,1.062,1.4,1.4,0,0,1-1.048.431,1.472,1.472,0,0,1-1.492-1.493,1.394,1.394,0,0,1,.431-1.047,1.441,1.441,0,0,1,1.061-.431,1.47,1.47,0,0,1,1.478,1.478Z" fill="#3a3a3a"/>
    <path d="M260.515,234.561a1.445,1.445,0,0,1-.431,1.062,1.394,1.394,0,0,1-1.047.431,1.47,1.47,0,0,1-1.492-1.493,1.393,1.393,0,0,1,.43-1.047,1.443,1.443,0,0,1,1.062-.431,1.472,1.472,0,0,1,1.478,1.478Z" fill="#3a3a3a"/>
    <path d="M270.662,234.561a1.444,1.444,0,0,1-.43,1.062,1.4,1.4,0,0,1-1.048.431,1.47,1.47,0,0,1-1.492-1.493,1.393,1.393,0,0,1,.43-1.047,1.445,1.445,0,0,1,1.062-.431,1.47,1.47,0,0,1,1.478,1.478Z" fill="#3a3a3a"/>
    <path d="M280.812,234.561a1.445,1.445,0,0,1-.431,1.062,1.394,1.394,0,0,1-1.047.431,1.472,1.472,0,0,1-1.493-1.493,1.394,1.394,0,0,1,.431-1.047,1.445,1.445,0,0,1,1.062-.431,1.472,1.472,0,0,1,1.478,1.478Z" fill="#3a3a3a"/>
    <path d="M290.959,234.561a1.444,1.444,0,0,1-.43,1.062,1.4,1.4,0,0,1-1.048.431,1.47,1.47,0,0,1-1.492-1.493,1.393,1.393,0,0,1,.43-1.047,1.445,1.445,0,0,1,1.062-.431,1.47,1.47,0,0,1,1.478,1.478Z" fill="#3a3a3a"/>
    <path d="M301.107,234.561a1.445,1.445,0,0,1-.431,1.062,1.394,1.394,0,0,1-1.047.431,1.472,1.472,0,0,1-1.493-1.493,1.394,1.394,0,0,1,.431-1.047,1.443,1.443,0,0,1,1.062-.431,1.472,1.472,0,0,1,1.478,1.478Z" fill="#3a3a3a"/>
    <path d="M311.256,234.561a1.444,1.444,0,0,1-.43,1.062,1.4,1.4,0,0,1-1.048.431,1.47,1.47,0,0,1-1.492-1.493,1.393,1.393,0,0,1,.43-1.047,1.445,1.445,0,0,1,1.062-.431,1.47,1.47,0,0,1,1.478,1.478Z" fill="#3a3a3a"/>
    <path d="M321.4,234.561a1.445,1.445,0,0,1-.431,1.062,1.4,1.4,0,0,1-1.047.431,1.472,1.472,0,0,1-1.493-1.493,1.394,1.394,0,0,1,.431-1.047,1.443,1.443,0,0,1,1.062-.431,1.472,1.472,0,0,1,1.478,1.478Z" fill="#3a3a3a"/>
    <path d="M331.553,234.561a1.444,1.444,0,0,1-.43,1.062,1.4,1.4,0,0,1-1.048.431,1.47,1.47,0,0,1-1.492-1.493,1.393,1.393,0,0,1,.43-1.047,1.445,1.445,0,0,1,1.062-.431,1.47,1.47,0,0,1,1.478,1.478Z" fill="#3a3a3a"/>
    <path d="M341.7,234.561a1.445,1.445,0,0,1-.431,1.062,1.4,1.4,0,0,1-1.047.431,1.472,1.472,0,0,1-1.493-1.493,1.394,1.394,0,0,1,.431-1.047,1.443,1.443,0,0,1,1.062-.431,1.472,1.472,0,0,1,1.478,1.478Z" fill="#3a3a3a"/>
    <path d="M351.848,234.561a1.444,1.444,0,0,1-.43,1.062,1.4,1.4,0,0,1-1.048.431,1.47,1.47,0,0,1-1.492-1.493,1.393,1.393,0,0,1,.43-1.047,1.445,1.445,0,0,1,1.062-.431,1.47,1.47,0,0,1,1.478,1.478Z" fill="#3a3a3a"/>
    <path d="M362,234.561a1.445,1.445,0,0,1-.431,1.062,1.4,1.4,0,0,1-1.047.431,1.472,1.472,0,0,1-1.493-1.493,1.394,1.394,0,0,1,.431-1.047,1.443,1.443,0,0,1,1.062-.431A1.472,1.472,0,0,1,362,234.561Z" fill="#3a3a3a"/>
    <path d="M392.319,236.054a9.589,9.589,0,0,1-9.578-9.578,9.481,9.481,0,0,1,1.952-5.789l8.87-13a2.449,2.449,0,0,1,4.061,2.739l-4.444,6.51a9.578,9.578,0,0,1-.861,19.117Zm0-14.256a4.7,4.7,0,0,0-3.77,1.923l-.207.3a4.6,4.6,0,0,0-.7,2.452,4.679,4.679,0,1,0,4.68-4.678Z" fill="#3a3a3a"/>
    <path d="M435.756,229.494a6.546,6.546,0,0,1-11.243,4.557v6.7a.925.925,0,1,1-1.849,0V229.494a6.546,6.546,0,1,1,13.092,0Zm-1.852,0a4.7,4.7,0,1,0-4.694,4.694A4.7,4.7,0,0,0,433.9,229.494Z" fill="#3a3a3a"/>
    <path d="M450.436,229.512a6.546,6.546,0,1,1-6.546-6.546A6.548,6.548,0,0,1,450.436,229.512Zm-1.849,0a4.7,4.7,0,1,0-4.7,4.7A4.7,4.7,0,0,0,448.587,229.512Z" fill="#3a3a3a"/>
    <path d="M464.537,235.127a.925.925,0,1,1-1.849,0v-.9a6,6,0,0,1-4.368,1.818c-3.616,0-5.939-2.931-5.939-6.543v-5.615a.925.925,0,1,1,1.849,0V229.5c0,2.589,1.5,4.694,4.09,4.694a4.431,4.431,0,0,0,4.368-4.68v-5.639a.925.925,0,1,1,1.849,0Z" fill="#3a3a3a"/>
    <path d="M479.545,229.5v5.615a.925.925,0,0,1-1.849,0V229.5c0-2.589-1.5-4.7-4.089-4.7a4.431,4.431,0,0,0-4.369,4.68v5.64a.925.925,0,1,1-1.849,0V223.873a.925.925,0,1,1,1.849,0v.9a6.006,6.006,0,0,1,4.369-1.817C477.223,222.958,479.545,225.888,479.545,229.5Z" fill="#3a3a3a"/>
    <path d="M494.588,229.512a6.554,6.554,0,1,1-1.851-4.557v-6.7a.926.926,0,0,1,1.851,0Zm-1.851,0a4.7,4.7,0,1,0-4.694,4.695A4.708,4.708,0,0,0,492.737,229.514Z" fill="#3a3a3a"/>
    <path d="M505.154,234.04c-.047.068-.1.136-.152.2a5.15,5.15,0,0,1-4.063,1.712,6.25,6.25,0,0,1-1.693-.227,4.5,4.5,0,0,1-2.682-2.124l-.028-.047a.924.924,0,1,1,1.57-.976l.043.07a2.7,2.7,0,0,0,1.6,1.3,3.873,3.873,0,0,0,3.809-.863c.029-.035.053-.07.078-.106a1.82,1.82,0,0,0,.172-1.63,2.041,2.041,0,0,0-1.359-1.3c-.281-.083-.89-.2-1.376-.291-.432-.08-.805-.151-1.039-.211a3.358,3.358,0,0,1-2.566-3.655,3.588,3.588,0,0,1,2.509-2.688,4.59,4.59,0,0,1,5.328,1.818.925.925,0,1,1-1.626.882,2.793,2.793,0,0,0-3.122-.945,1.771,1.771,0,0,0-1.263,1.224,1.536,1.536,0,0,0,1.2,1.574c.173.045.55.115.917.185.582.11,1.185.223,1.556.332a3.868,3.868,0,0,1,2.583,2.468A3.661,3.661,0,0,1,505.154,234.04Z" fill="#3a3a3a"/>
    <path d="M87.994,318.529a1.444,1.444,0,0,1-.43,1.062,1.4,1.4,0,0,1-1.048.43,1.469,1.469,0,0,1-1.492-1.492,1.4,1.4,0,0,1,.43-1.048,1.443,1.443,0,0,1,1.062-.43,1.468,1.468,0,0,1,1.478,1.478Z" fill="#3a3a3a"/>
    <path d="M98.143,318.529a1.445,1.445,0,0,1-.431,1.062,1.4,1.4,0,0,1-1.048.43,1.47,1.47,0,0,1-1.492-1.492,1.4,1.4,0,0,1,.431-1.048,1.44,1.44,0,0,1,1.061-.43,1.47,1.47,0,0,1,1.479,1.478Z" fill="#3a3a3a"/>
    <path d="M108.291,318.529a1.444,1.444,0,0,1-.43,1.062,1.4,1.4,0,0,1-1.048.43,1.469,1.469,0,0,1-1.492-1.492,1.4,1.4,0,0,1,.43-1.048,1.443,1.443,0,0,1,1.062-.43,1.468,1.468,0,0,1,1.478,1.478Z" fill="#3a3a3a"/>
    <path d="M118.438,318.529a1.444,1.444,0,0,1-.43,1.062,1.4,1.4,0,0,1-1.048.43,1.47,1.47,0,0,1-1.492-1.492,1.4,1.4,0,0,1,.431-1.048,1.44,1.44,0,0,1,1.061-.43,1.468,1.468,0,0,1,1.478,1.478Z" fill="#3a3a3a"/>
    <path d="M128.587,318.529a1.445,1.445,0,0,1-.431,1.062,1.393,1.393,0,0,1-1.047.43,1.47,1.47,0,0,1-1.493-1.492,1.4,1.4,0,0,1,.431-1.048,1.443,1.443,0,0,1,1.062-.43,1.47,1.47,0,0,1,1.478,1.478Z" fill="#3a3a3a"/>
    <path d="M138.735,318.529a1.444,1.444,0,0,1-.43,1.062,1.4,1.4,0,0,1-1.048.43,1.469,1.469,0,0,1-1.492-1.492,1.4,1.4,0,0,1,.43-1.048,1.443,1.443,0,0,1,1.062-.43,1.468,1.468,0,0,1,1.478,1.478Z" fill="#3a3a3a"/>
    <path d="M148.884,318.529a1.445,1.445,0,0,1-.431,1.062,1.393,1.393,0,0,1-1.047.43,1.47,1.47,0,0,1-1.493-1.492,1.4,1.4,0,0,1,.431-1.048,1.443,1.443,0,0,1,1.062-.43,1.47,1.47,0,0,1,1.478,1.478Z" fill="#3a3a3a"/>
    <path d="M159.032,318.529a1.444,1.444,0,0,1-.43,1.062,1.4,1.4,0,0,1-1.048.43,1.469,1.469,0,0,1-1.492-1.492,1.4,1.4,0,0,1,.43-1.048,1.443,1.443,0,0,1,1.062-.43,1.468,1.468,0,0,1,1.478,1.478Z" fill="#3a3a3a"/>
    <path d="M169.18,318.529a1.445,1.445,0,0,1-.431,1.062,1.4,1.4,0,0,1-1.047.43,1.47,1.47,0,0,1-1.493-1.492,1.4,1.4,0,0,1,.431-1.048,1.441,1.441,0,0,1,1.062-.43,1.47,1.47,0,0,1,1.478,1.478Z" fill="#3a3a3a"/>
    <path d="M179.328,318.529a1.444,1.444,0,0,1-.43,1.062,1.4,1.4,0,0,1-1.048.43,1.469,1.469,0,0,1-1.492-1.492,1.4,1.4,0,0,1,.43-1.048,1.443,1.443,0,0,1,1.062-.43,1.468,1.468,0,0,1,1.478,1.478Z" fill="#3a3a3a"/>
    <path d="M189.477,318.529a1.445,1.445,0,0,1-.431,1.062,1.4,1.4,0,0,1-1.047.43,1.47,1.47,0,0,1-1.493-1.492,1.4,1.4,0,0,1,.431-1.048,1.441,1.441,0,0,1,1.062-.43,1.47,1.47,0,0,1,1.478,1.478Z" fill="#3a3a3a"/>
    <path d="M199.625,318.529a1.444,1.444,0,0,1-.43,1.062,1.4,1.4,0,0,1-1.048.43,1.469,1.469,0,0,1-1.492-1.492,1.4,1.4,0,0,1,.43-1.048,1.443,1.443,0,0,1,1.062-.43,1.468,1.468,0,0,1,1.478,1.478Z" fill="#3a3a3a"/>
    <path d="M209.774,318.529a1.445,1.445,0,0,1-.431,1.062,1.4,1.4,0,0,1-1.047.43,1.47,1.47,0,0,1-1.493-1.492,1.4,1.4,0,0,1,.431-1.048,1.441,1.441,0,0,1,1.062-.43,1.47,1.47,0,0,1,1.478,1.478Z" fill="#3a3a3a"/>
    <path d="M219.921,318.529a1.444,1.444,0,0,1-.43,1.062,1.4,1.4,0,0,1-1.048.43,1.469,1.469,0,0,1-1.492-1.492,1.4,1.4,0,0,1,.43-1.048,1.443,1.443,0,0,1,1.062-.43,1.468,1.468,0,0,1,1.478,1.478Z" fill="#3a3a3a"/>
    <path d="M230.07,318.529a1.445,1.445,0,0,1-.431,1.062,1.4,1.4,0,0,1-1.047.43,1.47,1.47,0,0,1-1.493-1.492,1.4,1.4,0,0,1,.431-1.048,1.441,1.441,0,0,1,1.062-.43,1.47,1.47,0,0,1,1.478,1.478Z" fill="#3a3a3a"/>
    <path d="M240.218,318.529a1.444,1.444,0,0,1-.43,1.062,1.4,1.4,0,0,1-1.048.43,1.469,1.469,0,0,1-1.492-1.492,1.4,1.4,0,0,1,.43-1.048,1.443,1.443,0,0,1,1.062-.43,1.468,1.468,0,0,1,1.478,1.478Z" fill="#3a3a3a"/>
    <path d="M250.366,318.529a1.444,1.444,0,0,1-.43,1.062,1.4,1.4,0,0,1-1.048.43,1.47,1.47,0,0,1-1.492-1.492,1.4,1.4,0,0,1,.431-1.048,1.44,1.44,0,0,1,1.061-.43,1.468,1.468,0,0,1,1.478,1.478Z" fill="#3a3a3a"/>
    <path d="M260.515,318.529a1.445,1.445,0,0,1-.431,1.062,1.393,1.393,0,0,1-1.047.43,1.469,1.469,0,0,1-1.492-1.492,1.4,1.4,0,0,1,.43-1.048,1.443,1.443,0,0,1,1.062-.43,1.47,1.47,0,0,1,1.478,1.478Z" fill="#3a3a3a"/>
    <path d="M270.662,318.529a1.444,1.444,0,0,1-.43,1.062,1.4,1.4,0,0,1-1.048.43,1.469,1.469,0,0,1-1.492-1.492,1.4,1.4,0,0,1,.43-1.048,1.444,1.444,0,0,1,1.062-.43,1.468,1.468,0,0,1,1.478,1.478Z" fill="#3a3a3a"/>
    <path d="M280.812,318.529a1.445,1.445,0,0,1-.431,1.062,1.393,1.393,0,0,1-1.047.43,1.47,1.47,0,0,1-1.493-1.492,1.4,1.4,0,0,1,.431-1.048,1.444,1.444,0,0,1,1.062-.43,1.47,1.47,0,0,1,1.478,1.478Z" fill="#3a3a3a"/>
    <path d="M290.959,318.529a1.444,1.444,0,0,1-.43,1.062,1.4,1.4,0,0,1-1.048.43,1.469,1.469,0,0,1-1.492-1.492,1.4,1.4,0,0,1,.43-1.048,1.444,1.444,0,0,1,1.062-.43,1.468,1.468,0,0,1,1.478,1.478Z" fill="#3a3a3a"/>
    <path d="M301.107,318.529a1.445,1.445,0,0,1-.431,1.062,1.393,1.393,0,0,1-1.047.43,1.47,1.47,0,0,1-1.493-1.492,1.4,1.4,0,0,1,.431-1.048,1.443,1.443,0,0,1,1.062-.43,1.47,1.47,0,0,1,1.478,1.478Z" fill="#3a3a3a"/>
    <path d="M311.256,318.529a1.444,1.444,0,0,1-.43,1.062,1.4,1.4,0,0,1-1.048.43,1.469,1.469,0,0,1-1.492-1.492,1.4,1.4,0,0,1,.43-1.048,1.444,1.444,0,0,1,1.062-.43,1.468,1.468,0,0,1,1.478,1.478Z" fill="#3a3a3a"/>
    <path d="M321.4,318.529a1.445,1.445,0,0,1-.431,1.062,1.4,1.4,0,0,1-1.047.43,1.47,1.47,0,0,1-1.493-1.492,1.4,1.4,0,0,1,.431-1.048,1.443,1.443,0,0,1,1.062-.43,1.47,1.47,0,0,1,1.478,1.478Z" fill="#3a3a3a"/>
    <path d="M331.553,318.529a1.444,1.444,0,0,1-.43,1.062,1.4,1.4,0,0,1-1.048.43,1.469,1.469,0,0,1-1.492-1.492,1.4,1.4,0,0,1,.43-1.048,1.444,1.444,0,0,1,1.062-.43,1.468,1.468,0,0,1,1.478,1.478Z" fill="#3a3a3a"/>
    <path d="M341.7,318.529a1.445,1.445,0,0,1-.431,1.062,1.4,1.4,0,0,1-1.047.43,1.47,1.47,0,0,1-1.493-1.492,1.4,1.4,0,0,1,.431-1.048,1.443,1.443,0,0,1,1.062-.43,1.47,1.47,0,0,1,1.478,1.478Z" fill="#3a3a3a"/>
    <path d="M351.848,318.529a1.444,1.444,0,0,1-.43,1.062,1.4,1.4,0,0,1-1.048.43,1.469,1.469,0,0,1-1.492-1.492,1.4,1.4,0,0,1,.43-1.048,1.444,1.444,0,0,1,1.062-.43,1.468,1.468,0,0,1,1.478,1.478Z" fill="#3a3a3a"/>
    <path d="M362,318.529a1.445,1.445,0,0,1-.431,1.062,1.4,1.4,0,0,1-1.047.43,1.47,1.47,0,0,1-1.493-1.492,1.4,1.4,0,0,1,.431-1.048,1.443,1.443,0,0,1,1.062-.43A1.47,1.47,0,0,1,362,318.529Z" fill="#3a3a3a"/>
    <path d="M435.438,313.461a6.545,6.545,0,0,1-11.242,4.557v6.7a.925.925,0,1,1-1.849,0V313.461a6.546,6.546,0,0,1,13.091,0Zm-1.851,0a4.7,4.7,0,1,0-4.694,4.695A4.7,4.7,0,0,0,433.587,313.461Z" fill="#3a3a3a"/>
    <path d="M450.118,313.48a6.546,6.546,0,1,1-6.545-6.546A6.546,6.546,0,0,1,450.118,313.48Zm-1.849,0a4.7,4.7,0,1,0-4.7,4.7A4.7,4.7,0,0,0,448.269,313.48Z" fill="#3a3a3a"/>
    <path d="M464.22,319.1a.925.925,0,0,1-1.849,0v-.905A6,6,0,0,1,458,320.009c-3.617,0-5.939-2.932-5.939-6.544V307.85a.925.925,0,0,1,1.849,0v5.615c0,2.589,1.5,4.7,4.09,4.7a4.431,4.431,0,0,0,4.368-4.68v-5.64a.925.925,0,0,1,1.849,0Z" fill="#3a3a3a"/>
    <path d="M479.228,313.469v5.615a.925.925,0,1,1-1.849,0v-5.615c0-2.589-1.5-4.694-4.09-4.694a4.431,4.431,0,0,0-4.368,4.68v5.64a.925.925,0,0,1-1.849,0V307.84a.925.925,0,0,1,1.849,0v.9a6.009,6.009,0,0,1,4.368-1.816C476.906,306.926,479.228,309.855,479.228,313.469Z" fill="#3a3a3a"/>
    <path d="M494.271,313.48a6.552,6.552,0,1,1-1.851-4.558v-6.7a.926.926,0,0,1,1.851,0Zm-1.851,0a4.7,4.7,0,1,0-4.695,4.694A4.71,4.71,0,0,0,492.42,313.482Z" fill="#3a3a3a"/>
    <path d="M504.837,318.008c-.048.068-.1.136-.152.2a5.15,5.15,0,0,1-4.063,1.712,6.245,6.245,0,0,1-1.693-.228,4.5,4.5,0,0,1-2.682-2.124l-.028-.047a.924.924,0,1,1,1.57-.976l.043.07a2.7,2.7,0,0,0,1.6,1.3,3.878,3.878,0,0,0,3.809-.863c.028-.035.053-.07.08-.107a1.8,1.8,0,0,0,.17-1.63,2.041,2.041,0,0,0-1.359-1.3c-.281-.084-.89-.2-1.376-.292-.432-.079-.806-.151-1.039-.211a3.358,3.358,0,0,1-2.567-3.655,3.588,3.588,0,0,1,2.51-2.687,4.587,4.587,0,0,1,5.327,1.818.924.924,0,1,1-1.625.882,2.793,2.793,0,0,0-3.122-.946,1.774,1.774,0,0,0-1.263,1.224,1.538,1.538,0,0,0,1.2,1.575c.172.045.55.114.917.184.582.111,1.185.223,1.556.332a3.87,3.87,0,0,1,2.583,2.468A3.664,3.664,0,0,1,504.837,318.008Z" fill="#3a3a3a"/>
    <path d="M109.211,402.5a1.444,1.444,0,0,1-.43,1.062,1.4,1.4,0,0,1-1.048.431,1.472,1.472,0,0,1-1.492-1.493,1.394,1.394,0,0,1,.431-1.047,1.441,1.441,0,0,1,1.061-.431,1.47,1.47,0,0,1,1.478,1.478Z" fill="#3a3a3a"/>
    <path d="M119.36,402.5a1.445,1.445,0,0,1-.431,1.062,1.394,1.394,0,0,1-1.047.431,1.472,1.472,0,0,1-1.493-1.493,1.394,1.394,0,0,1,.431-1.047,1.443,1.443,0,0,1,1.062-.431,1.472,1.472,0,0,1,1.478,1.478Z" fill="#3a3a3a"/>
    <path d="M129.508,402.5a1.444,1.444,0,0,1-.43,1.062,1.4,1.4,0,0,1-1.048.431,1.47,1.47,0,0,1-1.492-1.493,1.393,1.393,0,0,1,.43-1.047,1.443,1.443,0,0,1,1.062-.431,1.47,1.47,0,0,1,1.478,1.478Z" fill="#3a3a3a"/>
    <path d="M139.656,402.5a1.445,1.445,0,0,1-.431,1.062,1.394,1.394,0,0,1-1.047.431,1.472,1.472,0,0,1-1.493-1.493,1.394,1.394,0,0,1,.431-1.047,1.443,1.443,0,0,1,1.062-.431,1.472,1.472,0,0,1,1.478,1.478Z" fill="#3a3a3a"/>
    <path d="M149.8,402.5a1.444,1.444,0,0,1-.43,1.062,1.4,1.4,0,0,1-1.048.431,1.47,1.47,0,0,1-1.492-1.493,1.393,1.393,0,0,1,.43-1.047,1.443,1.443,0,0,1,1.062-.431A1.47,1.47,0,0,1,149.8,402.5Z" fill="#3a3a3a"/>
    <path d="M159.953,402.5a1.445,1.445,0,0,1-.431,1.062,1.4,1.4,0,0,1-1.047.431,1.472,1.472,0,0,1-1.493-1.493,1.394,1.394,0,0,1,.431-1.047,1.442,1.442,0,0,1,1.062-.431,1.472,1.472,0,0,1,1.478,1.478Z" fill="#3a3a3a"/>
    <path d="M170.1,402.5a1.444,1.444,0,0,1-.43,1.062,1.4,1.4,0,0,1-1.048.431,1.47,1.47,0,0,1-1.492-1.493,1.393,1.393,0,0,1,.43-1.047,1.443,1.443,0,0,1,1.062-.431A1.47,1.47,0,0,1,170.1,402.5Z" fill="#3a3a3a"/>
    <path d="M180.25,402.5a1.445,1.445,0,0,1-.431,1.062,1.4,1.4,0,0,1-1.047.431,1.472,1.472,0,0,1-1.493-1.493,1.394,1.394,0,0,1,.431-1.047,1.442,1.442,0,0,1,1.062-.431,1.472,1.472,0,0,1,1.478,1.478Z" fill="#3a3a3a"/>
    <path d="M190.4,402.5a1.444,1.444,0,0,1-.43,1.062,1.4,1.4,0,0,1-1.048.431,1.47,1.47,0,0,1-1.492-1.493,1.393,1.393,0,0,1,.43-1.047,1.443,1.443,0,0,1,1.062-.431A1.47,1.47,0,0,1,190.4,402.5Z" fill="#3a3a3a"/>
    <path d="M200.546,402.5a1.445,1.445,0,0,1-.431,1.062,1.4,1.4,0,0,1-1.047.431,1.472,1.472,0,0,1-1.493-1.493,1.394,1.394,0,0,1,.431-1.047,1.442,1.442,0,0,1,1.062-.431,1.472,1.472,0,0,1,1.478,1.478Z" fill="#3a3a3a"/>
    <path d="M210.694,402.5a1.444,1.444,0,0,1-.43,1.062,1.4,1.4,0,0,1-1.048.431,1.47,1.47,0,0,1-1.492-1.493,1.393,1.393,0,0,1,.43-1.047,1.443,1.443,0,0,1,1.062-.431,1.47,1.47,0,0,1,1.478,1.478Z" fill="#3a3a3a"/>
    <path d="M220.843,402.5a1.445,1.445,0,0,1-.431,1.062,1.4,1.4,0,0,1-1.047.431,1.472,1.472,0,0,1-1.493-1.493,1.394,1.394,0,0,1,.431-1.047,1.442,1.442,0,0,1,1.062-.431,1.472,1.472,0,0,1,1.478,1.478Z" fill="#3a3a3a"/>
    <path d="M230.991,402.5a1.444,1.444,0,0,1-.43,1.062,1.4,1.4,0,0,1-1.048.431,1.47,1.47,0,0,1-1.492-1.493,1.393,1.393,0,0,1,.43-1.047,1.443,1.443,0,0,1,1.062-.431,1.47,1.47,0,0,1,1.478,1.478Z" fill="#3a3a3a"/>
    <path d="M241.138,402.5a1.444,1.444,0,0,1-.43,1.062,1.4,1.4,0,0,1-1.048.431,1.472,1.472,0,0,1-1.492-1.493,1.394,1.394,0,0,1,.431-1.047,1.441,1.441,0,0,1,1.061-.431,1.47,1.47,0,0,1,1.478,1.478Z" fill="#3a3a3a"/>
    <path d="M251.287,402.5a1.445,1.445,0,0,1-.431,1.062,1.394,1.394,0,0,1-1.047.431,1.472,1.472,0,0,1-1.493-1.493,1.394,1.394,0,0,1,.431-1.047,1.443,1.443,0,0,1,1.062-.431,1.472,1.472,0,0,1,1.478,1.478Z" fill="#3a3a3a"/>
    <path d="M261.435,402.5a1.444,1.444,0,0,1-.43,1.062,1.4,1.4,0,0,1-1.048.431,1.47,1.47,0,0,1-1.492-1.493,1.393,1.393,0,0,1,.43-1.047,1.443,1.443,0,0,1,1.062-.431,1.47,1.47,0,0,1,1.478,1.478Z" fill="#3a3a3a"/>
    <path d="M271.583,402.5a1.445,1.445,0,0,1-.431,1.062,1.394,1.394,0,0,1-1.047.431,1.472,1.472,0,0,1-1.493-1.493,1.394,1.394,0,0,1,.431-1.047,1.445,1.445,0,0,1,1.062-.431,1.472,1.472,0,0,1,1.478,1.478Z" fill="#3a3a3a"/>
    <path d="M281.732,402.5a1.444,1.444,0,0,1-.43,1.062,1.4,1.4,0,0,1-1.048.431,1.47,1.47,0,0,1-1.492-1.493,1.393,1.393,0,0,1,.43-1.047,1.445,1.445,0,0,1,1.062-.431,1.47,1.47,0,0,1,1.478,1.478Z" fill="#3a3a3a"/>
    <path d="M291.88,402.5a1.445,1.445,0,0,1-.431,1.062,1.394,1.394,0,0,1-1.047.431,1.472,1.472,0,0,1-1.493-1.493,1.394,1.394,0,0,1,.431-1.047,1.443,1.443,0,0,1,1.062-.431,1.472,1.472,0,0,1,1.478,1.478Z" fill="#3a3a3a"/>
    <path d="M302.029,402.5a1.444,1.444,0,0,1-.43,1.062,1.4,1.4,0,0,1-1.048.431,1.47,1.47,0,0,1-1.492-1.493,1.393,1.393,0,0,1,.43-1.047,1.445,1.445,0,0,1,1.062-.431,1.47,1.47,0,0,1,1.478,1.478Z" fill="#3a3a3a"/>
    <path d="M312.177,402.5a1.445,1.445,0,0,1-.431,1.062,1.4,1.4,0,0,1-1.047.431,1.472,1.472,0,0,1-1.493-1.493,1.394,1.394,0,0,1,.431-1.047,1.443,1.443,0,0,1,1.062-.431,1.472,1.472,0,0,1,1.478,1.478Z" fill="#3a3a3a"/>
    <path d="M322.324,402.5a1.444,1.444,0,0,1-.43,1.062,1.4,1.4,0,0,1-1.048.431,1.47,1.47,0,0,1-1.492-1.493,1.393,1.393,0,0,1,.43-1.047,1.445,1.445,0,0,1,1.062-.431,1.47,1.47,0,0,1,1.478,1.478Z" fill="#3a3a3a"/>
    <path d="M332.474,402.5a1.445,1.445,0,0,1-.431,1.062,1.4,1.4,0,0,1-1.047.431A1.472,1.472,0,0,1,329.5,402.5a1.394,1.394,0,0,1,.431-1.047,1.443,1.443,0,0,1,1.062-.431,1.472,1.472,0,0,1,1.478,1.478Z" fill="#3a3a3a"/>
    <path d="M342.621,402.5a1.444,1.444,0,0,1-.43,1.062,1.4,1.4,0,0,1-1.048.431,1.47,1.47,0,0,1-1.492-1.493,1.393,1.393,0,0,1,.43-1.047,1.445,1.445,0,0,1,1.062-.431,1.47,1.47,0,0,1,1.478,1.478Z" fill="#3a3a3a"/>
    <path d="M352.771,402.5a1.445,1.445,0,0,1-.431,1.062,1.4,1.4,0,0,1-1.047.431A1.472,1.472,0,0,1,349.8,402.5a1.394,1.394,0,0,1,.431-1.047,1.443,1.443,0,0,1,1.062-.431,1.472,1.472,0,0,1,1.478,1.478Z" fill="#3a3a3a"/>
    <path d="M362.918,402.5a1.444,1.444,0,0,1-.43,1.062,1.4,1.4,0,0,1-1.048.431,1.47,1.47,0,0,1-1.492-1.493,1.393,1.393,0,0,1,.43-1.047,1.445,1.445,0,0,1,1.062-.431,1.47,1.47,0,0,1,1.478,1.478Z" fill="#3a3a3a"/>
    <path d="M394.523,403.989a2.453,2.453,0,0,1-2.45-2.45V397.16h-9.8a1.774,1.774,0,0,1-.18-.012,2.3,2.3,0,0,1-.283-.033,1.882,1.882,0,0,1-.238-.064l-.039-.012a1.394,1.394,0,0,1-.2-.067,1.987,1.987,0,0,1-.285-.146.685.685,0,0,1-.121-.068l-.041-.028a2.488,2.488,0,0,1-.346-.285l-.051-.052-.054-.065-.039.018-.16-.27c-.038-.06-.068-.116-.1-.175a2.755,2.755,0,0,1-.127-.248l-.107-.217.029-.016a2.12,2.12,0,0,1-.074-.314,2.3,2.3,0,0,1-.035-.338l0-.039a1.293,1.293,0,0,1,.013-.2,2.4,2.4,0,0,1,.032-.287,1.761,1.761,0,0,1,.06-.219l.016-.056a1.835,1.835,0,0,1,.062-.186,2.771,2.771,0,0,1,.143-.283,1.579,1.579,0,0,1,.086-.148l12.14-17.72a2.429,2.429,0,0,1,2.034-1.08.905.905,0,0,1,.111-.006,2.451,2.451,0,0,1,2.449,2.449v15.267h1.683a2.45,2.45,0,1,1,0,4.9h-1.683v4.379A2.452,2.452,0,0,1,394.523,403.989Zm-2.45-11.728v-7.518l-5.15,7.518Z" fill="#3a3a3a"/>
    <path d="M434.942,397.429a6.546,6.546,0,0,1-11.242,4.557v6.695a.925.925,0,1,1-1.849,0V397.429a6.546,6.546,0,1,1,13.091,0Zm-1.851,0a4.7,4.7,0,1,0-4.694,4.694A4.7,4.7,0,0,0,433.091,397.429Z" fill="#3a3a3a"/>
    <path d="M449.622,397.447a6.546,6.546,0,1,1-6.545-6.545A6.547,6.547,0,0,1,449.622,397.447Zm-1.849,0a4.7,4.7,0,1,0-4.7,4.7A4.7,4.7,0,0,0,447.773,397.447Z" fill="#3a3a3a"/>
    <path d="M463.724,403.062a.925.925,0,1,1-1.849,0v-.9a6,6,0,0,1-4.368,1.818c-3.617,0-5.939-2.931-5.939-6.543v-5.615a.925.925,0,1,1,1.849,0v5.615c0,2.589,1.5,4.694,4.09,4.694a4.431,4.431,0,0,0,4.368-4.68v-5.639a.925.925,0,1,1,1.849,0Z" fill="#3a3a3a"/>
    <path d="M478.732,397.437v5.615a.925.925,0,0,1-1.849,0v-5.615c0-2.589-1.5-4.695-4.09-4.695a4.432,4.432,0,0,0-4.368,4.681v5.639a.925.925,0,1,1-1.849,0V391.808a.925.925,0,1,1,1.849,0v.9a6,6,0,0,1,4.368-1.817C476.409,390.893,478.732,393.823,478.732,397.437Z" fill="#3a3a3a"/>
    <path d="M493.775,397.447a6.552,6.552,0,1,1-1.851-4.557v-6.7a.926.926,0,0,1,1.851,0Zm-1.851,0a4.7,4.7,0,1,0-4.695,4.695A4.709,4.709,0,0,0,491.924,397.449Z" fill="#3a3a3a"/>
    <path d="M504.341,401.976c-.048.067-.1.135-.152.2a5.15,5.15,0,0,1-4.063,1.712,6.245,6.245,0,0,1-1.693-.227,4.5,4.5,0,0,1-2.682-2.124l-.029-.047a.925.925,0,0,1,1.571-.976l.043.07a2.7,2.7,0,0,0,1.6,1.3,3.874,3.874,0,0,0,3.809-.863c.028-.035.053-.07.078-.106a1.82,1.82,0,0,0,.172-1.63,2.043,2.043,0,0,0-1.359-1.3c-.281-.083-.89-.2-1.376-.291-.432-.08-.806-.151-1.039-.211a3.358,3.358,0,0,1-2.567-3.655,3.592,3.592,0,0,1,2.509-2.688,4.59,4.59,0,0,1,5.328,1.819.924.924,0,1,1-1.625.881,2.793,2.793,0,0,0-3.122-.945,1.771,1.771,0,0,0-1.263,1.224,1.535,1.535,0,0,0,1.205,1.574c.172.045.55.115.917.185.582.11,1.185.223,1.555.332a3.866,3.866,0,0,1,2.583,2.468A3.663,3.663,0,0,1,504.341,401.976Z" fill="#3a3a3a"/>
    <g>
      <path d="M211.628,53.426a1.343,1.343,0,0,1-.949-.4,1.267,1.267,0,0,1-.156-.188s-.05-.08-.064-.105a1.2,1.2,0,0,1-.068-.145.568.568,0,0,1-.03-.086c-.007-.021-.017-.064-.017-.064a1.271,1.271,0,0,1-.049-.344V35.548a1.187,1.187,0,0,1,.008-.133l.009-.076a1.308,1.308,0,0,1,.046-.193c.009-.028.032-.09.04-.11L210.41,35l.016-.023c.012-.022.044-.082.057-.1l.029-.049c.022-.031.045-.062.068-.091s.045-.055.069-.082a1.381,1.381,0,0,1,.133-.125c.038-.028.072-.053.107-.076l.055-.036c.022-.013.061-.033.082-.043l.2.338-.171-.353a1.322,1.322,0,0,1,.574-.131l3.665,0a9.6,9.6,0,1,1,0,19.2Zm3.274-2.659.391,0a6.939,6.939,0,0,0,0-13.878l-.391,0h-1.943V50.767Z" fill="#3a3a3a"/>
      <path d="M240.665,46.479v5.6a1.335,1.335,0,0,1-2.67,0v-.19a6.976,6.976,0,0,1-4.373,1.523,7.046,7.046,0,1,1,7.046-7.054ZM238,46.366a4.383,4.383,0,1,0-4.382,4.383A4.387,4.387,0,0,0,238,46.366Z" fill="#3a3a3a"/>
      <path d="M242.88,36.4a1.341,1.341,0,0,1,.588-.869.581.581,0,0,1,.021-.5.552.552,0,0,1,.469-.267c.026,0,.05,0,.074,0a1.066,1.066,0,0,1,.318.047.663.663,0,0,1,.575-.373.6.6,0,0,1,.487.269.93.93,0,0,1,.135.662,1.358,1.358,0,0,1,.95.978,1.6,1.6,0,0,1-.513,1.562,1.767,1.767,0,0,1-1.216.65,1.9,1.9,0,0,1-1.132-.527A1.7,1.7,0,0,1,242.88,36.4Zm3.151,4.25V52.081a1.332,1.332,0,1,1-2.663,0V40.653a1.332,1.332,0,0,1,2.663,0Z" fill="#3a3a3a"/>
      <path d="M259.393,41.13a1.343,1.343,0,0,1-1.343,1.341,1.321,1.321,0,0,1-.554-.119,4.947,4.947,0,0,0-1.759-.344,4.439,4.439,0,0,0-3.275,1.539,4.8,4.8,0,0,0-1.063,3.239v5.3a1.332,1.332,0,1,1-2.664,0V40.647a1.332,1.332,0,1,1,2.664,0v.168a7.835,7.835,0,0,1,4.457-1.437,7.277,7.277,0,0,1,2.643.488l.084.032.031.015a1.317,1.317,0,0,1,.549.467s.02.031.032.053a1.345,1.345,0,0,1,.155.359l.014.049A1.548,1.548,0,0,1,259.393,41.13Z" fill="#3a3a3a"/>
      <path d="M272.057,41.083l-6.993,17.2a1.327,1.327,0,0,1-1.235.83h0a1.329,1.329,0,0,1-1.233-1.831l2.121-5.219-4.394-10.912a1.332,1.332,0,1,1,2.469-1l3.368,8.364,3.428-8.434a1.332,1.332,0,0,1,2.469,1Z" fill="#3a3a3a"/>
    </g>
    <g>
      <path d="M201.173,139.364a1.333,1.333,0,0,1-1.332-1.331V127.382a7.042,7.042,0,1,1,2.663,5.5v5.151A1.332,1.332,0,0,1,201.173,139.364Zm1.331-12a4.369,4.369,0,1,0,0-.028Z" fill="#3a3a3a"/>
      <path d="M226.75,127.228a1.343,1.343,0,0,1-1.342,1.341,1.321,1.321,0,0,1-.554-.119,4.927,4.927,0,0,0-1.759-.345,4.439,4.439,0,0,0-3.275,1.54,4.8,4.8,0,0,0-1.063,3.239v5.3a1.332,1.332,0,1,1-2.664,0V126.744a1.332,1.332,0,1,1,2.664,0v.168a7.836,7.836,0,0,1,4.458-1.437,7.3,7.3,0,0,1,2.642.488l.084.033.031.014a1.319,1.319,0,0,1,.549.468.469.469,0,0,1,.032.053,1.331,1.331,0,0,1,.155.359l.014.049A1.46,1.46,0,0,1,226.75,127.228Z" fill="#3a3a3a"/>
      <path d="M241.469,132.466a7.046,7.046,0,1,1-7.046-7.046A7.054,7.054,0,0,1,241.469,132.466Zm-2.663,0a4.383,4.383,0,1,0-4.383,4.38A4.388,4.388,0,0,0,238.806,132.466Z" fill="#3a3a3a"/>
      <path d="M250.963,138.165a1.334,1.334,0,0,1-1.31,1.332c-.04,0-.129.01-.257.01a5.125,5.125,0,0,1-3.75-1.754c-1.453-1.591-1.369-4.221-1.33-5.486V128.04h-.471a1.333,1.333,0,0,1,0-2.665h.473v-4.324a1.332,1.332,0,1,1,2.664,0v4.334h2.051a1.332,1.332,0,0,1,0,2.663h-2.051v3.68a8.867,8.867,0,0,1,.014,1.041,4.726,4.726,0,0,0,.592,2.96,2.587,2.587,0,0,0,2.026,1.1A1.336,1.336,0,0,1,250.963,138.165Z" fill="#3a3a3a"/>
      <path d="M265.921,132.453a1.356,1.356,0,0,1-.4.962,1.335,1.335,0,0,1-.946.391h-9.874a4.391,4.391,0,0,0,3.881,3.019h1.985a1.332,1.332,0,1,1,0,2.664l-1.694.01q-.2,0-.4-.012a6.977,6.977,0,0,1-1.121-.156,7.046,7.046,0,1,1,8.567-6.878Zm-2.87-1.33a4.382,4.382,0,0,0-8.351,0Z" fill="#3a3a3a"/>
      <path d="M267.605,122.5a1.343,1.343,0,0,1,.588-.87.581.581,0,0,1,.021-.5.55.55,0,0,1,.469-.266c.026,0,.05,0,.074,0a1.039,1.039,0,0,1,.318.047.662.662,0,0,1,.575-.373.594.594,0,0,1,.487.268.932.932,0,0,1,.135.662,1.363,1.363,0,0,1,.95.978,1.6,1.6,0,0,1-.513,1.562,1.767,1.767,0,0,1-1.216.65,1.892,1.892,0,0,1-1.132-.527A1.7,1.7,0,0,1,267.605,122.5Zm3.151,4.249v11.429a1.332,1.332,0,1,1-2.663,0V126.75a1.332,1.332,0,0,1,2.663,0Z" fill="#3a3a3a"/>
      <path d="M286.631,132.455v5.708a1.332,1.332,0,0,1-2.664,0v-5.708c0-2.181-1.164-4.383-3.765-4.383a4.134,4.134,0,0,0-4.05,4.369v5.732a1.332,1.332,0,1,1-2.663,0V126.732a1.332,1.332,0,1,1,2.663,0v.043a6.55,6.55,0,0,1,4.05-1.365C283.927,125.41,286.631,128.374,286.631,132.455Z" fill="#3a3a3a"/>
    </g>
    <g>
      <path d="M215.1,226.152a1.333,1.333,0,0,1-1.331-1.332V208.278a1.332,1.332,0,0,1,1.331-1.33H225.38a1.332,1.332,0,1,1,0,2.663h-8.949v5.606h5.557a1.333,1.333,0,0,1,0,2.665h-5.557v6.94A1.333,1.333,0,0,1,215.1,226.152Z" fill="#3a3a3a"/>
      <path d="M236.768,213.856a1.343,1.343,0,0,1-1.343,1.341,1.313,1.313,0,0,1-.553-.119,4.929,4.929,0,0,0-1.759-.344,4.441,4.441,0,0,0-3.276,1.539,4.8,4.8,0,0,0-1.063,3.239v5.3a1.332,1.332,0,1,1-2.664,0V213.372a1.332,1.332,0,1,1,2.664,0v.169a7.836,7.836,0,0,1,4.458-1.437,7.292,7.292,0,0,1,2.642.487l.084.033.031.015a1.317,1.317,0,0,1,.549.467.6.6,0,0,1,.032.053,1.313,1.313,0,0,1,.155.359l.014.049A1.46,1.46,0,0,1,236.768,213.856Z" fill="#3a3a3a"/>
      <path d="M251.477,213.36V224.8a1.332,1.332,0,1,1-2.663,0v-.041a6.559,6.559,0,0,1-4.05,1.363c-3.725,0-6.429-2.962-6.429-7.045V213.37a1.332,1.332,0,1,1,2.664,0v5.708c0,2.181,1.164,4.382,3.765,4.382a4.133,4.133,0,0,0,4.05-4.368V213.36a1.332,1.332,0,1,1,2.663,0Z" fill="#3a3a3a"/>
      <path d="M253.641,209.129a1.338,1.338,0,0,1,.589-.869.577.577,0,0,1,.02-.5.554.554,0,0,1,.47-.267c.025,0,.05,0,.073,0a1.066,1.066,0,0,1,.318.047.664.664,0,0,1,.575-.373.593.593,0,0,1,.487.269.93.93,0,0,1,.135.662,1.358,1.358,0,0,1,.951.978,1.6,1.6,0,0,1-.514,1.562,1.763,1.763,0,0,1-1.216.65,1.9,1.9,0,0,1-1.131-.527A1.7,1.7,0,0,1,253.641,209.129Zm3.151,4.25v11.428a1.332,1.332,0,1,1-2.663,0V213.379a1.332,1.332,0,0,1,2.663,0Z" fill="#3a3a3a"/>
      <path d="M267.269,224.793a1.334,1.334,0,0,1-1.31,1.332,2.364,2.364,0,0,1-.258.011,5.121,5.121,0,0,1-3.749-1.755c-1.453-1.591-1.369-4.221-1.33-5.486v-4.227h-.471a1.333,1.333,0,0,1,0-2.665h.473V207.68a1.332,1.332,0,1,1,2.664,0v4.333h2.051a1.332,1.332,0,0,1,0,2.663h-2.051v3.68a9.327,9.327,0,0,1,.014,1.041,4.729,4.729,0,0,0,.591,2.961,2.589,2.589,0,0,0,2.027,1.1A1.335,1.335,0,0,1,267.269,224.793Z" fill="#3a3a3a"/>
    </g>
    <g>
      <path d="M198.135,306.717l-5.088-16.564a1.331,1.331,0,0,1,1.227-1.845,1.332,1.332,0,0,1,1.219.793l3.872,12.6,3.873-12.572a1.362,1.362,0,0,1,1.228-.816,1.333,1.333,0,0,1,1.228,1.847L200.6,306.7a1.345,1.345,0,0,1-.459.554l-.026.018a.418.418,0,0,1-.067.039,1.143,1.143,0,0,1-.153.086,1.292,1.292,0,0,1-.538.115A1.331,1.331,0,0,1,198.135,306.717Z" fill="#3a3a3a"/>
      <path d="M219.935,300.442a1.353,1.353,0,0,1-.4.961,1.338,1.338,0,0,1-.946.392H208.72a4.389,4.389,0,0,0,3.881,3.018h1.985a1.333,1.333,0,0,1,1.331,1.332,1.314,1.314,0,0,1-.167.648,1.331,1.331,0,0,1-1.164.684l-1.694.01c-.135,0-.268,0-.4-.012a6.745,6.745,0,0,1-1.121-.156,7.046,7.046,0,1,1,8.566-6.877Zm-2.87-1.331a4.382,4.382,0,0,0-8.35,0Z" fill="#3a3a3a"/>
      <path d="M235.6,300.669v5.923a6.847,6.847,0,0,1-7.045,6.611,7.081,7.081,0,0,1-6.43-3.909l-.013-.023a1.391,1.391,0,0,1-.155-.361l-.014-.049a1.454,1.454,0,0,1-.028-.287,1.343,1.343,0,0,1,1.341-1.343,1.368,1.368,0,0,1,1.2.748c.011.021.02.042.029.062a4.443,4.443,0,0,0,4.067,2.444,4.164,4.164,0,0,0,4.381-3.893v-.622a7.045,7.045,0,1,1,2.664-5.518Zm-2.664-.217a4.383,4.383,0,1,0-8.523,1.437,4.314,4.314,0,0,0,.92,1.533,4.371,4.371,0,0,0,6.44,0,4.34,4.34,0,0,0,.921-1.533A4.437,4.437,0,0,0,232.937,300.452Z" fill="#3a3a3a"/>
      <path d="M251.822,300.669v5.923a6.846,6.846,0,0,1-7.045,6.611,7.082,7.082,0,0,1-6.43-3.909l-.013-.023a1.391,1.391,0,0,1-.155-.361l-.013-.049a1.455,1.455,0,0,1-.029-.287,1.344,1.344,0,0,1,1.342-1.343,1.368,1.368,0,0,1,1.2.748c.011.021.021.042.03.062a4.44,4.44,0,0,0,4.066,2.444,4.165,4.165,0,0,0,4.382-3.893v-.622a7.045,7.045,0,1,1,2.663-5.518Zm-2.663-.217a4.383,4.383,0,1,0-8.524,1.437,4.316,4.316,0,0,0,.921,1.533,4.371,4.371,0,0,0,6.44,0,4.337,4.337,0,0,0,.92-1.533A4.412,4.412,0,0,0,249.159,300.452Z" fill="#3a3a3a"/>
      <path d="M254.064,290.489a1.337,1.337,0,0,1,.588-.869.58.58,0,0,1,.02-.5.554.554,0,0,1,.47-.267c.026,0,.05,0,.074,0a1.028,1.028,0,0,1,.317.047.664.664,0,0,1,.576-.373.589.589,0,0,1,.486.269.93.93,0,0,1,.136.662,1.36,1.36,0,0,1,.95.978,1.6,1.6,0,0,1-.514,1.562,1.763,1.763,0,0,1-1.215.65,1.9,1.9,0,0,1-1.132-.527A1.7,1.7,0,0,1,254.064,290.489Zm3.15,4.25v11.428a1.331,1.331,0,1,1-2.662,0V294.739a1.331,1.331,0,0,1,2.662,0Z" fill="#3a3a3a"/>
      <path d="M273.686,300.442a1.35,1.35,0,0,1-.4.961,1.334,1.334,0,0,1-.946.392h-9.873a4.388,4.388,0,0,0,3.88,3.018h1.986a1.333,1.333,0,0,1,1.331,1.332,1.314,1.314,0,0,1-.167.648,1.332,1.332,0,0,1-1.164.684l-1.695.01c-.134,0-.267,0-.4-.012a6.757,6.757,0,0,1-1.122-.156,7.046,7.046,0,1,1,8.567-6.877Zm-2.87-1.331a4.382,4.382,0,0,0-8.35,0Z" fill="#3a3a3a"/>
      <path d="M279.551,307.512a6.654,6.654,0,0,1-1.794-.242A4.834,4.834,0,0,1,274.879,305l-.028-.047a1.2,1.2,0,0,1,.387-1.651,1.2,1.2,0,0,1,1.654.386l.044.071a2.512,2.512,0,0,0,1.48,1.206,4.227,4.227,0,0,0,1.136.149,3.171,3.171,0,0,0,2.46-.94c.025-.031.049-.062.071-.093a1.561,1.561,0,0,0,.141-1.422,1.818,1.818,0,0,0-1.208-1.161c-.276-.081-.886-.2-1.376-.289-.445-.084-.827-.156-1.072-.219a3.679,3.679,0,0,1-2.8-4.01,3.905,3.905,0,0,1,2.726-2.94,5.138,5.138,0,0,1,1.579-.241,4.655,4.655,0,0,1,4.149,2.216,1.2,1.2,0,0,1-.485,1.627,1.2,1.2,0,0,1-1.627-.486,2.354,2.354,0,0,0-2.045-.955,2.643,2.643,0,0,0-.817.121,1.561,1.561,0,0,0-1.108,1.037c-.113.7.617,1.2,1.033,1.306.166.043.545.115.911.183.6.114,1.22.23,1.611.346a4.2,4.2,0,0,1,2.8,2.673,3.969,3.969,0,0,1-.444,3.594c-.051.072-.106.145-.164.217A5.476,5.476,0,0,1,279.551,307.512Z" fill="#3a3a3a"/>
    </g>
    <g>
      <path d="M211.5,392.2c-.1,0-.2,0-.3-.006a9.6,9.6,0,0,1-6.635-16.232A9.468,9.468,0,0,1,211.2,373c.1,0,.2-.006.305-.006a9.571,9.571,0,0,1,6.637,2.663l.289.276-.038.039a1.33,1.33,0,0,1-1.831,1.831l-.084-.057a1.3,1.3,0,0,1-.154-.134l-.04-.043a6.958,6.958,0,0,0-4.779-1.91c-.093,0-.182,0-.271.006a6.938,6.938,0,0,0-.007,13.864c.095,0,.185.008.278.008a6.938,6.938,0,0,0,4.427-1.6v-3.067h-3.649a1.332,1.332,0,1,1,0-2.663h4.9a.612.612,0,0,1,.083-.006,1.333,1.333,0,0,1,1.332,1.331v4.981a1.335,1.335,0,0,1-.307.845,1.2,1.2,0,0,1-.139.174l-.042.039A9.6,9.6,0,0,1,211.5,392.2Z" fill="#3a3a3a"/>
      <path d="M231.953,379.9a1.343,1.343,0,0,1-1.342,1.341,1.317,1.317,0,0,1-.554-.119,4.925,4.925,0,0,0-1.759-.344,4.443,4.443,0,0,0-3.276,1.539,4.805,4.805,0,0,0-1.062,3.239v5.3a1.332,1.332,0,1,1-2.664,0V379.417a1.332,1.332,0,1,1,2.664,0v.169a7.835,7.835,0,0,1,4.457-1.437,7.3,7.3,0,0,1,2.643.487l.084.033.03.015a1.319,1.319,0,0,1,.55.467s.02.031.032.053a1.311,1.311,0,0,1,.154.359l.015.049A1.539,1.539,0,0,1,231.953,379.9Z" fill="#3a3a3a"/>
      <path d="M246.669,385.25v5.6a1.335,1.335,0,0,1-2.67,0v-.19a6.974,6.974,0,0,1-4.372,1.523,7.046,7.046,0,1,1,7.045-7.054Zm-2.661-.113a4.382,4.382,0,1,0-4.381,4.383A4.386,4.386,0,0,0,244.008,385.137Z" fill="#3a3a3a"/>
      <path d="M248.885,375.174a1.338,1.338,0,0,1,.589-.869.577.577,0,0,1,.02-.5.554.554,0,0,1,.47-.267c.025,0,.05,0,.073,0a1.066,1.066,0,0,1,.318.047.664.664,0,0,1,.575-.373.593.593,0,0,1,.487.269.93.93,0,0,1,.135.662,1.36,1.36,0,0,1,.951.978,1.6,1.6,0,0,1-.514,1.562,1.763,1.763,0,0,1-1.216.65,1.9,1.9,0,0,1-1.131-.527A1.7,1.7,0,0,1,248.885,375.174Zm3.151,4.25v11.428a1.332,1.332,0,1,1-2.663,0V379.424a1.332,1.332,0,0,1,2.663,0Z" fill="#3a3a3a"/>
      <path d="M267.911,385.129v5.707a1.332,1.332,0,1,1-2.664,0v-5.707c0-2.181-1.163-4.383-3.764-4.383a4.133,4.133,0,0,0-4.05,4.368v5.732a1.332,1.332,0,1,1-2.663,0V379.405a1.332,1.332,0,1,1,2.663,0v.043a6.557,6.557,0,0,1,4.05-1.365C265.207,378.083,267.911,381.047,267.911,385.129Z" fill="#3a3a3a"/>
      <path d="M274.608,392.2a6.649,6.649,0,0,1-1.794-.242,4.827,4.827,0,0,1-2.878-2.275l-.029-.047a1.2,1.2,0,0,1,2.042-1.265l.045.071a2.505,2.505,0,0,0,1.479,1.206,4.221,4.221,0,0,0,1.136.15,3.173,3.173,0,0,0,2.46-.941c.025-.031.048-.062.07-.093a1.564,1.564,0,0,0,.142-1.422,1.819,1.819,0,0,0-1.209-1.161c-.275-.081-.885-.2-1.375-.289-.445-.084-.827-.155-1.072-.219a3.681,3.681,0,0,1-2.8-4.01,3.906,3.906,0,0,1,2.727-2.94,5.132,5.132,0,0,1,1.578-.241,4.654,4.654,0,0,1,4.149,2.216,1.2,1.2,0,0,1-.484,1.627,1.2,1.2,0,0,1-1.629-.486,2.353,2.353,0,0,0-2.044-.955,2.643,2.643,0,0,0-.817.121,1.563,1.563,0,0,0-1.108,1.037c-.113.7.617,1.2,1.033,1.306.166.043.546.115.912.183.6.114,1.219.23,1.611.346a4.2,4.2,0,0,1,2.8,2.673,3.962,3.962,0,0,1-.444,3.594c-.051.072-.106.145-.164.217A5.473,5.473,0,0,1,274.608,392.2Z" fill="#3a3a3a"/>
    </g>
    <g>
      <g>
        <path d="M69.576,57.013v39.2a7.254,7.254,0,0,1-7.246,7.246H30.412a7.254,7.254,0,0,1-7.246-7.246v-38.6c0-.109,0-.218,0-.327l0-.274A88.814,88.814,0,0,1,26.09,36.258c.015-.067.036-.139.052-.207,0-.015,0-.031.01-.046a158.828,158.828,0,0,1,6.439-19.994l.264-.637H59.887l.264.637C60.534,16.943,69.576,38.981,69.576,57.013Zm-1.035,39.2v-38.6c0-.2,0-.4-.015-.6h.015a88.584,88.584,0,0,0-2.836-20.289c-.041-.171-.088-.341-.124-.512a156.977,156.977,0,0,0-6.387-19.8H33.548a155.24,155.24,0,0,0-5.926,18.027c-.181.678-.357,1.371-.528,2.07-.026.1-.047.2-.072.3A88.492,88.492,0,0,0,24.2,57.013h.015c-.01.2-.015.4-.015.6v38.6a6.229,6.229,0,0,0,6.211,6.211H62.33A6.229,6.229,0,0,0,68.541,96.214Z" fill="#343434"/>
        <path d="M68.541,57.614v38.6a6.229,6.229,0,0,1-6.211,6.211H30.412A6.229,6.229,0,0,1,24.2,96.214v-38.6c0-.2,0-.4.015-.6H24.2a88.492,88.492,0,0,1,2.821-20.206c.025-.1.046-.2.072-.3.171-.7.347-1.392.528-2.07A155.24,155.24,0,0,1,33.548,16.41H59.194a156.977,156.977,0,0,1,6.387,19.8c.036.171.083.341.124.512a88.584,88.584,0,0,1,2.836,20.289h-.015C68.536,57.215,68.541,57.412,68.541,57.614Zm-1.035,38.6v-38.6c0-.187,0-.363-.015-.549l-.057-1.087H67.5a87.29,87.29,0,0,0-2.5-17.7q-.249-1.079-.512-2.132a161.834,161.834,0,0,0-5.989-18.7H34.247A160.12,160.12,0,0,0,29,33.257c-.3,1.138-.611,2.3-.906,3.5-.021.083-.041.166-.057.244a89.145,89.145,0,0,0-2.8,18.979h.047l-.042,1.087c-.01.186-.015.362-.015.549v38.6a5.185,5.185,0,0,0,5.176,5.176H62.33A5.185,5.185,0,0,0,67.506,96.214Z" fill="#343434"/>
        <path d="M67.506,57.614v38.6a5.185,5.185,0,0,1-5.176,5.176H30.412a5.185,5.185,0,0,1-5.176-5.176v-38.6c0-.187,0-.363.015-.549l.042-1.087h-.047A89.145,89.145,0,0,1,28.041,37c.016-.078.036-.161.057-.244.3-1.2.6-2.36.906-3.5a7.833,7.833,0,0,1,6.118-1.574,11.542,11.542,0,0,1,4.321,1.775A12.482,12.482,0,0,0,43.3,35.172c1.869.429,3.152-.311,4.777-1.248a10.377,10.377,0,0,1,6.455-1.853,13.288,13.288,0,0,1,6.185,2.381,10.229,10.229,0,0,0,3.768,1.693q.263,1.054.512,2.132a87.29,87.29,0,0,1,2.5,17.7h-.062l.057,1.087C67.5,57.251,67.506,57.427,67.506,57.614Z" fill="#dfdfdf"/>
      </g>
      <g>
        <rect x="29.941" y="4.686" width="32.861" height="11.723" rx="3.162" fill="#429cb4"/>
        <path d="M59.634,17.7H33.108a4.463,4.463,0,0,1-4.461-4.456v-5.4a4.464,4.464,0,0,1,4.461-4.457H59.634A4.464,4.464,0,0,1,64.1,7.849v5.4A4.463,4.463,0,0,1,59.634,17.7ZM33.108,5.98a1.873,1.873,0,0,0-1.873,1.869v5.4a1.873,1.873,0,0,0,1.873,1.869H59.634a1.873,1.873,0,0,0,1.873-1.869v-5.4A1.873,1.873,0,0,0,59.634,5.98Z" fill="#343434"/>
      </g>
      <path d="M65.777,38.282c-.129.005-.258.005-.383.005s-.269-.005-.4-.01a10.9,10.9,0,0,1-5.367-2.065,11.264,11.264,0,0,0-5.269-2.076,8.457,8.457,0,0,0-5.248,1.584c-1.781,1.025-3.618,2.081-6.279,1.465a14.447,14.447,0,0,1-4.451-1.946A9.441,9.441,0,0,0,34.8,33.727c-2.418-.383-4.281.513-6.755,3.272-.119.124-.233.253-.347.388l-.672-.58-.88-.756-.016-.015c.011-.011.016-.021.026-.031.471-.544.958-1.077,1.47-1.568A14.066,14.066,0,0,1,29,33.257a7.833,7.833,0,0,1,6.118-1.574,11.542,11.542,0,0,1,4.321,1.775A12.482,12.482,0,0,0,43.3,35.172c1.869.429,3.152-.311,4.777-1.248a10.377,10.377,0,0,1,6.455-1.853,13.288,13.288,0,0,1,6.185,2.381,10.232,10.232,0,0,0,3.767,1.693,5.435,5.435,0,0,0,1.1.067.641.641,0,0,0,.1,0l.026.512Z" fill="#343434"/>
      <g>
        <path d="M102.389,71.289,36.764,79.228l19.612-9.617a6.384,6.384,0,0,0,4.631,2.044c3.722,0,6.737-3.338,6.737-7.453a1.507,1.507,0,0,0-.006-.164L82.611,56.75Z" fill="#eee418"/>
        <path d="M36.763,80.263a1.035,1.035,0,0,1-.454-1.965L55.92,68.681a1.035,1.035,0,0,1,1.2.215,5.352,5.352,0,0,0,3.881,1.724c3.145,0,5.7-2.879,5.7-6.418v-.06a1.084,1.084,0,0,1,.574-1.033L82.155,55.82a1.038,1.038,0,0,1,1.069.095L103,70.455a1.035,1.035,0,0,1-.489,1.861L36.889,80.255A.888.888,0,0,1,36.763,80.263Zm19.422-9.406L42.708,77.466,99.67,70.575,82.5,57.955,68.766,64.687c-.231,4.455-3.623,8-7.76,8A7.328,7.328,0,0,1,56.185,70.857Z" fill="#343434"/>
      </g>
      <g>
        <path d="M98.215,79.96a4.409,4.409,0,0,0,4.174,4.606v9.681l-65.625,7.938v-5.6a5.588,5.588,0,0,0,0-10.772V79.228l65.625-7.939v4.058A4.411,4.411,0,0,0,98.215,79.96Z" fill="#d2c918"/>
        <path d="M36.764,103.22a1.035,1.035,0,0,1-1.035-1.035v-5.6a1.034,1.034,0,0,1,.842-1.017,4.559,4.559,0,0,0,0-8.739,1.034,1.034,0,0,1-.842-1.017V79.228A1.035,1.035,0,0,1,36.64,78.2l65.624-7.939a1.036,1.036,0,0,1,1.16,1.028v4.058a1.036,1.036,0,0,1-1.035,1.035,3.6,3.6,0,0,0,0,7.149,1.036,1.036,0,0,1,1.035,1.035v9.681a1.034,1.034,0,0,1-.911,1.027l-65.624,7.939A1.059,1.059,0,0,1,36.764,103.22ZM37.8,97.37v3.647l63.554-7.688V85.49a5.755,5.755,0,0,1,0-11.066V72.457L37.8,80.145v4.876a6.7,6.7,0,0,1,0,12.349Z" fill="#343434"/>
      </g>
      <g>
        <ellipse cx="52.441" cy="89.393" rx="3.729" ry="4.122" fill="#a49c24"/>
        <ellipse cx="52.441" cy="89.393" rx="3.729" ry="4.122" fill="none"/>
      </g>
      <g>
        <ellipse cx="78.23" cy="79.775" rx="3.046" ry="3.366" fill="#a49c24"/>
        <ellipse cx="78.23" cy="79.775" rx="3.046" ry="3.366" fill="none"/>
      </g>
      <g>
        <ellipse cx="83.096" cy="63.584" rx="3.046" ry="2.328" fill="#a49c24"/>
        <ellipse cx="83.096" cy="63.584" rx="3.046" ry="2.328" fill="none"/>
      </g>
      <g>
        <ellipse cx="71.144" cy="70.573" rx="2.471" ry="2.016" fill="#a49c24"/>
        <ellipse cx="71.144" cy="70.573" rx="2.471" ry="2.016" fill="none"/>
      </g>
      <g>
        <ellipse cx="91.059" cy="88.081" rx="4.917" ry="5.435" fill="#a49c24"/>
        <ellipse cx="91.059" cy="88.081" rx="4.917" ry="5.435" fill="none"/>
      </g>
    </g>
    <g>
      <path d="M86.325,142.655v5.694c-.046.112-.085.23-.131.347a11.3,11.3,0,0,0-.413,1.25,13.666,13.666,0,0,1-4.45,7.18c-7.8,6.63-15.859,10.459-24.649,11.709a46.354,46.354,0,0,0-12.5,3.43,15.641,15.641,0,0,1-6.414,1.6,9.514,9.514,0,0,1-2.225-.255,9.135,9.135,0,0,0-2.16-.275c-3.141,0-5.125,1.976-6.506,3.7a.3.3,0,0,1-.091.091,3.021,3.021,0,0,0-.943,3.515,6.567,6.567,0,0,1-.209,4.555c-.8,2.186-2.415,3.587-5.367,4.66H17.687a8.4,8.4,0,0,1-5.746-5.439,2.544,2.544,0,0,0-1.558-1.61c-2.245-.824-3.731-2.487-4.8-5.393v-2.552c.039-.118.085-.229.131-.341.111-.288.222-.576.327-.864a6.964,6.964,0,0,1,6.467-4.8,6.706,6.706,0,0,1,1.472.17,7.12,7.12,0,0,0,1.545.19,4.789,4.789,0,0,0,3.914-2.029,10.929,10.929,0,0,1,1.139-1.139,3.461,3.461,0,0,0,1.093-3.717,17.876,17.876,0,0,1,1.76-13.477,22.153,22.153,0,0,0,2.585-8.148,45.226,45.226,0,0,1,3.862-14.268c3.024-6.46,6.139-10.8,10.1-14.052a17.151,17.151,0,0,1,5.452-2.671c.55-.19,1.119-.392,1.675-.6h5.806c.091.033.19.066.288.1.327.112.661.223,1.021.308,12.416,2.939,21.8,10.452,28.68,22.966a34.933,34.933,0,0,1,2.8,7.769c.157.576.314,1.152.478,1.728A1.825,1.825,0,0,0,86.325,142.655Zm-6.362,11.526a12.5,12.5,0,0,0,3.142-9.379,21.735,21.735,0,0,0-1.041-5.792c-3.449-10.551-10.695-18.654-21.533-24.079A23.164,23.164,0,0,0,50.1,112.319c-.373,0-.753.013-1.126.033-6.034.327-10.243,4.235-10.727,9.961a22.9,22.9,0,0,0,1.715,10.878,41.6,41.6,0,0,0,14.307,17.8c4.209,3.03,9.6,6.152,17.7,6.316.21.013.413.019.616.019A10.082,10.082,0,0,0,79.963,154.181Zm-13.692,8.685c.916-.294,1.335-.837,1.243-1.6a1.55,1.55,0,0,0-1.433-1.3,1.162,1.162,0,0,1-.164-.032c-.471-.144-.955-.269-1.42-.393A17.985,17.985,0,0,1,62,158.769c-14.222-6.054-22.933-15.813-26.631-29.812-.007-.046-.013-.1-.02-.164-.118-1.283-.851-1.564-1.446-1.577h-.033c-.988,0-1.329.929-1.453,1.282-.02.053-.039.112-.059.158a32.173,32.173,0,0,0-2.638,8.9,55.935,55.935,0,0,1-4.293,14.667c-1.924,4.582-1.636,9.13.8,12.8A12.364,12.364,0,0,0,36.4,170.511c.236,0,.478-.007.714-.026.2.013.406.013.608.013a11.5,11.5,0,0,0,4.726-.956,54.722,54.722,0,0,1,14.792-4.018,35.13,35.13,0,0,0,8.894-2.6C66.173,162.9,66.225,162.886,66.271,162.866ZM25.993,173.26a2.613,2.613,0,0,0,1.014-1.931,2.247,2.247,0,0,0-.942-1.63,5.2,5.2,0,0,1-.419-.379,2.873,2.873,0,0,0-1.983-1.074,2.528,2.528,0,0,0-1.813.91c-.982,1.028-2.016,2.042-3.017,3.017l-.275.269c-.838.824-1.283,1.125-1.65,1.125a4.036,4.036,0,0,1-1.7-.706,4.834,4.834,0,0,0-2.422-.727,3.915,3.915,0,0,0-2.258.746,3.648,3.648,0,0,0-1.538,3.973,4.029,4.029,0,0,0,3.456,3.155,5.7,5.7,0,0,1,2.055.621,6.508,6.508,0,0,1,.5,2.265,4.007,4.007,0,0,0,3.94,3.672h.046a3.754,3.754,0,0,0,3.325-1.826,4.383,4.383,0,0,0-.105-4.385c-1.067-1.931-1.027-2.252.5-3.81l.131-.137C23.859,175.367,24.919,174.287,25.993,173.26Z" fill="#343434"/>
      <path d="M83.105,144.8a12.5,12.5,0,0,1-3.142,9.379,10.082,10.082,0,0,1-7.376,3.148c-.2,0-.406-.006-.616-.019-8.1-.164-13.5-3.286-17.7-6.316a41.6,41.6,0,0,1-14.307-17.8,22.9,22.9,0,0,1-1.715-10.878c.484-5.726,4.693-9.634,10.727-9.961.373-.02.753-.033,1.126-.033a23.164,23.164,0,0,1,10.433,2.612c10.838,5.425,18.084,13.528,21.533,24.079A21.735,21.735,0,0,1,83.105,144.8Zm-14.8-4.706a4.928,4.928,0,0,0,1.224-3.423c-.013-4.7-5.183-10.321-9.883-10.74-.255-.02-.5-.033-.746-.033a5.152,5.152,0,0,0-3.56,1.2,4.083,4.083,0,0,0-1.27,3.115,6.835,6.835,0,0,0,.314,1.977,12.407,12.407,0,0,0,9.588,9.032,5.81,5.81,0,0,0,1.277.15A4.056,4.056,0,0,0,68.306,140.1Z" fill="#c77b80"/>
      <path d="M69.53,136.673a4.928,4.928,0,0,1-1.224,3.423,4.056,4.056,0,0,1-3.056,1.276,5.81,5.81,0,0,1-1.277-.15,12.407,12.407,0,0,1-9.588-9.032,6.835,6.835,0,0,1-.314-1.977,4.083,4.083,0,0,1,1.27-3.115,5.152,5.152,0,0,1,3.56-1.2c.242,0,.491.013.746.033C64.347,126.352,69.517,131.974,69.53,136.673Zm-3.593.759a1.73,1.73,0,0,0,.425-1.165,2.986,2.986,0,0,0-.216-1.014,9.937,9.937,0,0,0-4.365-5.184,5.922,5.922,0,0,0-2.428-.975l-.085-.013-.085.007a1.686,1.686,0,0,0-1.794,1.7,2.912,2.912,0,0,0,.21,1,10.012,10.012,0,0,0,6.06,6.06,2.737,2.737,0,0,0,.936.2A1.744,1.744,0,0,0,65.937,137.432Z" fill="#343434"/>
      <path d="M67.514,161.269c.092.76-.327,1.3-1.243,1.6-.046.02-.1.033-.138.053a35.13,35.13,0,0,1-8.894,2.6,54.722,54.722,0,0,0-14.792,4.018,11.5,11.5,0,0,1-4.726.956c-.2,0-.4,0-.608-.013-.236.019-.478.026-.714.026a12.364,12.364,0,0,1-10.164-5.485c-2.441-3.672-2.729-8.22-.8-12.8a55.935,55.935,0,0,0,4.293-14.667,32.173,32.173,0,0,1,2.638-8.9c.02-.046.039-.105.059-.158.124-.353.465-1.282,1.453-1.282h.033c.595.013,1.328.294,1.446,1.577.007.059.013.118.02.164,3.7,14,12.409,23.758,26.631,29.812a17.985,17.985,0,0,0,2.494.779c.465.124.949.249,1.42.393a1.162,1.162,0,0,0,.164.032A1.55,1.55,0,0,1,67.514,161.269Z" fill="#925c14"/>
      <path d="M66.362,136.267a1.765,1.765,0,0,1-1.767,1.781,2.737,2.737,0,0,1-.936-.2,10.012,10.012,0,0,1-6.06-6.06,2.912,2.912,0,0,1-.21-1,1.686,1.686,0,0,1,1.794-1.7l.085-.007.085.013a5.922,5.922,0,0,1,2.428.975,9.937,9.937,0,0,1,4.365,5.184A2.986,2.986,0,0,1,66.362,136.267Z" fill="#fff0a6"/>
      <path d="M27.007,171.329a2.613,2.613,0,0,1-1.014,1.931c-1.074,1.027-2.134,2.107-3.161,3.148l-.131.137c-1.525,1.558-1.565,1.879-.5,3.81a4.383,4.383,0,0,1,.105,4.385,3.754,3.754,0,0,1-3.325,1.826h-.046A4.007,4.007,0,0,1,15,182.894a6.508,6.508,0,0,0-.5-2.265,5.7,5.7,0,0,0-2.055-.621,4.029,4.029,0,0,1-3.456-3.155,3.648,3.648,0,0,1,1.538-3.973,3.915,3.915,0,0,1,2.258-.746,4.834,4.834,0,0,1,2.422.727,4.036,4.036,0,0,0,1.7.706c.367,0,.812-.3,1.65-1.125l.275-.269c1-.975,2.035-1.989,3.017-3.017a2.528,2.528,0,0,1,1.813-.91,2.873,2.873,0,0,1,1.983,1.074,5.2,5.2,0,0,0,.419.379A2.247,2.247,0,0,1,27.007,171.329Z" fill="#fff0a6"/>
    </g>
    <g>
      <path d="M51.287,209.613a.342.342,0,0,1-.095.091c-.21.133-.571.029-.843,0a26.25,26.25,0,0,1-4.915-.987,13.17,13.17,0,0,1-7.073-4.5,15.164,15.164,0,0,1-2.318-4.017,14.291,14.291,0,0,1-.765-7.469,13.626,13.626,0,0,1,2.845-6.566,2.167,2.167,0,0,1,.644-.535,2.12,2.12,0,0,1,1.857.186,14.2,14.2,0,0,1,3.993,2.816,19.253,19.253,0,0,1,3.912,6.452c.225.586.427,1.182.612,1.783a58.988,58.988,0,0,1,1.786,8.764c.13.894.263,1.788.324,2.69C51.27,208.586,51.433,209.394,51.287,209.613Z" fill="#009c53"/>
      <path d="M48.529,195.084a1.224,1.224,0,0,1-.883-.328c-1.333-1-2.349-2.363-3.643-3.412s-3.067-1.773-4.617-1.167a5.737,5.737,0,0,0-2.341,2.093,31.982,31.982,0,0,0-1.957,2.971,14.147,14.147,0,0,1,.19-2.51,13.626,13.626,0,0,1,2.845-6.566,2.167,2.167,0,0,1,.644-.535,2.12,2.12,0,0,1,1.857.186,14.2,14.2,0,0,1,3.993,2.816A19.253,19.253,0,0,1,48.529,195.084Z" fill="#46bc5d"/>
      <path d="M50.905,210.586a3.123,3.123,0,0,1-.471-.044c-.055-.008-.108-.016-.158-.021a26.85,26.85,0,0,1-5.071-1.017,13.943,13.943,0,0,1-7.481-4.777,15.959,15.959,0,0,1-2.442-4.234,15.122,15.122,0,0,1-.809-7.894,14.335,14.335,0,0,1,3.036-6.972,2.952,2.952,0,0,1,.9-.729,2.863,2.863,0,0,1,2.591.193,15.184,15.184,0,0,1,4.213,2.981,21.228,21.228,0,0,1,4.711,8.556,59.86,59.86,0,0,1,1.812,8.885l.012.078c.127.869.258,1.767.32,2.675,0,.049.014.125.026.213a2.285,2.285,0,0,1-.129,1.589l0,0a1.173,1.173,0,0,1-.314.31l-.019.012A1.325,1.325,0,0,1,50.905,210.586Zm.382-.973ZM39.424,186.3a.686.686,0,0,0-.3.06,1.471,1.471,0,0,0-.391.342,12.663,12.663,0,0,0-2.651,6.159,13.482,13.482,0,0,0,.721,7.042,14.347,14.347,0,0,0,2.194,3.8,12.253,12.253,0,0,0,6.664,4.229,25.264,25.264,0,0,0,4.762.959l.076.008c-.01-.082-.02-.157-.027-.208-.018-.131-.032-.243-.037-.319-.057-.845-.184-1.712-.306-2.55l-.012-.078a58.405,58.405,0,0,0-1.758-8.641,19.648,19.648,0,0,0-4.338-7.917,13.123,13.123,0,0,0-3.771-2.648A1.884,1.884,0,0,0,39.424,186.3Z" fill="#303030"/>
      <path d="M66.331,195.566a14.513,14.513,0,0,1-.486,3.246,14.992,14.992,0,0,1-1.977,4.395,22.907,22.907,0,0,1-6.1,5.983c-1.2.843-2.455,1.612-3.724,2.349q-.949.551-1.908,1.083c-.3.17-1.722.712-1.818,1.014,0,0-4.324,13.649-4.551,4.1-.065-2.716-.085-5.436.068-8.148a26.511,26.511,0,0,1,.594-4.383,14.78,14.78,0,0,1,4.18-7.815,16.213,16.213,0,0,1,7.579-3.855,15.979,15.979,0,0,1,4.275-.318c1.106.069,3.024-.035,3.66,1.094A2.371,2.371,0,0,1,66.331,195.566Z" fill="#009c53"/>
      <path d="M66.331,195.566a14.513,14.513,0,0,1-.486,3.246,7.4,7.4,0,0,0-1.784-.839,11.738,11.738,0,0,0-3.915-.218,25.451,25.451,0,0,0-8.407,2.883c-2.173,1.08-4.495,2.422-5.3,4.712l-.006-.149a14.78,14.78,0,0,1,4.18-7.815,16.213,16.213,0,0,1,7.579-3.855,15.979,15.979,0,0,1,4.275-.318c1.106.069,3.024-.035,3.66,1.094A2.371,2.371,0,0,1,66.331,195.566Z" fill="#46bc5d"/>
      <path d="M46.651,221.944a1.311,1.311,0,0,1-.188-.014c-1.174-.167-1.452-1.791-1.509-4.179-.058-2.427-.095-5.3.069-8.213a27.372,27.372,0,0,1,.613-4.518,15.489,15.489,0,0,1,4.426-8.237A17.107,17.107,0,0,1,62.516,192.4c.147.009.307.015.476.022,1.223.045,3.072.115,3.845,1.485a3.105,3.105,0,0,1,.309,1.692,15.362,15.362,0,0,1-.513,3.427,15.75,15.75,0,0,1-2.084,4.633,23.521,23.521,0,0,1-6.31,6.2c-1.088.761-2.29,1.519-3.783,2.386-.618.359-1.265.726-1.921,1.091-.109.061-.271.134-.494.234a10.274,10.274,0,0,0-1,.491c-.169.522-.7,2.1-1.344,3.7C48.323,221.131,47.464,221.944,46.651,221.944ZM61.5,194a15.495,15.495,0,0,0-10.34,3.988,13.9,13.9,0,0,0-3.936,7.393,25.778,25.778,0,0,0-.575,4.249c-.161,2.855-.124,5.688-.067,8.082a12.4,12.4,0,0,0,.207,2.272,32.391,32.391,0,0,0,2.75-6.594c.164-.517.683-.8,1.83-1.31.142-.063.318-.143.367-.17.649-.361,1.287-.723,1.9-1.077,1.452-.843,2.617-1.577,3.666-2.312a21.925,21.925,0,0,0,5.884-5.764,14.129,14.129,0,0,0,1.869-4.155,13.721,13.721,0,0,0,.459-3.065v0a1.74,1.74,0,0,0-.1-.83c-.323-.573-1.623-.622-2.483-.654-.184-.007-.358-.014-.516-.023Q61.961,194,61.5,194Z" fill="#303030"/>
      <g>
        <g>
          <path d="M79.6,228.92a24.444,24.444,0,0,1-.743,5.766,24.992,24.992,0,0,1-6.519,11.56,84.871,84.871,0,0,1-7.456,6.619,75.026,75.026,0,0,1-19.532,11.4c-.28-.1-2.687-1.026-2.842-1.087-7.183-2.892-14.172-6.725-19.736-12.123-.056-.054-.38-.359-.486-.463-.153-.147-.845-.837-1.008-1-.218-.224-.434-.449-.645-.677,0,0-.377-.408-.455-.5a31.7,31.7,0,0,1-7.188-12.623,24.206,24.206,0,0,1-.88-6.278c0-.251,0-.506.008-.762,0-.038,0-.077,0-.116.011-.31.025-.62.048-.933.014-.187.053-.624.056-.654.016-.141.029-.28.045-.421.008-.083.019-.165.031-.247s.022-.173.035-.261.021-.163.034-.245c.023-.146.043-.291.07-.438.038-.243.081-.488.13-.731.033-.165.066-.328.1-.492a.15.15,0,0,1,.008-.032c.031-.147.066-.3.1-.443.019-.082.039-.165.062-.247.014-.067.03-.135.049-.2l.085-.324c.111-.411.241-.816.368-1.225.034-.111.071-.222.11-.332.014-.045.028-.092.047-.137.043-.129.087-.255.136-.384s.1-.273.154-.408c.04-.108.083-.216.126-.324l0,0,.012-.037c.206-.51.429-1.014.67-1.508.091-.19.185-.379.281-.565.08-.153.259-.49.27-.508q.137-.252.283-.5a.335.335,0,0,1,.031-.055c.085-.147.283-.476.294-.492.1-.161.2-.322.3-.482s.216-.33.328-.493c.086-.125.357-.506.408-.574.076-.1.151-.206.229-.308.049-.063.339-.437.436-.559s.215-.259.325-.388.235-.273.353-.406c.067-.073.357-.387.437-.471.059-.063.118-.125.179-.186.045-.047.249-.253.306-.308.145-.145.292-.284.441-.42.131-.123.261-.241.4-.357s.3-.26.449-.384c.1-.084.516-.414.62-.494s.531-.394.639-.469l.326-.227.015-.01c.1-.069.536-.351.646-.422.225-.139.451-.276.678-.408.114-.066.23-.131.345-.194.23-.129.463-.253.7-.369s.472-.235.713-.345c.12-.055.238-.11.359-.164l.355-.153.008,0c.224-.093.451-.185.679-.271.292-.112.584-.216.88-.314.2-.07.41-.135.616-.2a.5.5,0,0,0,.055-.017c.193-.06.39-.112.586-.165.108-.028.214-.057.322-.083.133-.035.263-.066.394-.1l.578-.127a.266.266,0,0,1,.038-.01c.191-.035.382-.076.574-.108.132-.025.267-.047.4-.068.108-.018.218-.032.326-.049.086-.012.172-.026.257-.036.133-.019.266-.035.4-.049.114-.012.23-.025.344-.035.1-.01.194-.02.292-.026.145-.013.292-.025.436-.033.164-.01.329-.018.492-.025s.312-.012.467-.014a28.352,28.352,0,0,1,3.071.112c.121.011.984.1,1.11.115.219.026,1.219.159,1.437.191q.612.093,1.22.2c.633.111,4.036.751,4.2.784a.306.306,0,0,0,.047.008l.669.129a.05.05,0,0,0,.016,0c.037.008.074.014.108.02s.2.039.235.045l.186-.075a33.078,33.078,0,0,1,8.031-2.168,25.8,25.8,0,0,1,8.9,1.092A25.019,25.019,0,0,1,70.187,210a22.542,22.542,0,0,1,9.178,15.377A23.387,23.387,0,0,1,79.6,228.92Z" fill="#eb937c"/>
          <path d="M38.623,213.841c-10.82-1.713-20.45,4.449-25.443,13.613-.168.308-1.07,1.486-1.037,1.785a8.584,8.584,0,0,1,.025-1.536,23.949,23.949,0,0,1,8.182-16.552A21.993,21.993,0,0,1,31.855,206.3c4.758-.54,9.5.608,14.146,1.469l.186-.075a25.447,25.447,0,0,1,9.432,10.253c2.475,4.78,3.734,9.651,2.346,14.851C57.965,232.8,54.619,216.374,38.623,213.841Z" fill="#efa694"/>
          <path d="M41.43,211.261c3.266-2.7,7.154-4.918,11.356-5.395a27.9,27.9,0,0,1,14.294,2.017c5.722,2.6,7.99,6.839,10.017,9.694,3.116,4.388,3.3,13.286,1.912,18.485,0,0-1.165-20.54-20.427-22.856a26.13,26.13,0,0,0-6.607-.086Z" fill="#efa694"/>
        </g>
        <path d="M64.88,252.865a75.026,75.026,0,0,1-19.532,11.4c-.28-.1-2.687-1.026-2.842-1.087-7.183-2.892-14.172-6.725-19.736-12.123-.056-.054-.38-.359-.486-.463-.153-.147-.845-.837-1.008-1-.218-.224-.434-.449-.645-.677-.073-.08-.377-.408-.455-.5a31.7,31.7,0,0,1-7.188-12.623c3.058,4.483,6.215,9.042,10.6,12.239,5.387,3.93,11.9,8.036,18.536,8.625C49.627,257.324,57.222,255.636,64.88,252.865Z" fill="#de896e"/>
      </g>
      <path d="M57.507,233.342c.449-6.672-1.339-14.543-5.405-19.452a24.021,24.021,0,0,0-6.366-5.408s-5.085-.946-5.224-.977a27.162,27.162,0,0,0-6.547-.589,24.779,24.779,0,0,0-3.915.429l-.047.011a20.41,20.41,0,0,0-9.3,4.351,20.923,20.923,0,0,0-6.078,8.679l0,.007-.015.039a27.321,27.321,0,0,0-1.743,8.241c-.009.188-.014.356-.017.5-.141,6.392,2.585,12.874,7.882,18.74l.012.015c.068.079.139.157.211.233l.021.022c.048.054.1.108.148.162,0,0,.474.5.688.722.16.166.841.841.992.986.1.1.455.434.486.464a63.616,63.616,0,0,0,19.5,11.968s2.541.979,2.816,1.079a.747.747,0,0,1-.255,1.449.76.76,0,0,1-.255-.044c-.281-.1-2.862-1.1-2.862-1.1A64.233,64.233,0,0,1,22.26,251.6s-.987-.951-1.006-.971c-.18-.178-.348-.348-.514-.52-.221-.227-1.044-1.107-1.124-1.2-5.554-6.153-8.41-12.989-8.26-19.769,0-.159.009-.338.019-.539a28.829,28.829,0,0,1,1.844-8.713l.018-.049a22.407,22.407,0,0,1,6.511-9.279,21.878,21.878,0,0,1,9.944-4.665c.025-.007.05-.012.074-.017a26.339,26.339,0,0,1,4.152-.456,28.8,28.8,0,0,1,6.915.624c.133.029,5.305.991,5.305.991a.776.776,0,0,1,.238.088,25.528,25.528,0,0,1,6.877,5.812c4.311,5.2,6.219,13.45,5.745,20.5ZM30.016,207.351l-.009,0Zm0,0Z" fill="#303030"/>
      <path d="M45.347,265.015a.773.773,0,0,1-.255-.044c-.281-.1-2.862-1.1-2.862-1.1A63.5,63.5,0,0,1,22.26,251.6l-.171-.161c-.112-.1-.222-.208-.332-.318-.141-.134-.851-.84-1.017-1.012-.221-.227-.442-.457-.658-.69-.072-.077-.142-.154-.213-.232-.09-.094-.177-.189-.26-.287-5.351-5.95-8.207-12.658-8.248-19.384,0-.313,0-.619.014-.909.01-.328.026-.652.048-.959a25.8,25.8,0,0,1,1.8-7.769c.006-.017.012-.032.018-.048a23.278,23.278,0,0,1,6.635-9.258,22.635,22.635,0,0,1,9.812-4.678c.025-.007.05-.012.074-.017.676-.136,1.352-.243,2.01-.318.684-.079,1.39-.125,2.156-.139a36.429,36.429,0,0,1,6.872.617c1.044.177,5.126.958,5.126.958a33.086,33.086,0,0,1,8.249-2.213,26.907,26.907,0,0,1,16.44,4.605,23.286,23.286,0,0,1,9.49,15.886,24.268,24.268,0,0,1,.241,3.65,25.764,25.764,0,0,1-7.482,17.849,81.106,81.106,0,0,1-27.271,18.2A.733.733,0,0,1,45.347,265.015Zm-30.74-44.576a23.842,23.842,0,0,0-1.694,7.317c-.02.286-.035.59-.045.9-.01.274-.015.557-.013.849.049,8.028,4.31,14.441,7.877,18.407.079.094.151.172.223.248l.223.241c.207.224.42.445.634.665.16.166.838.841.988.983.11.109.206.2.3.292l.015.015.17.16a62.022,62.022,0,0,0,19.5,11.968s2.37.916,2.56.986a80.444,80.444,0,0,0,26.461-17.756,24.26,24.26,0,0,0,7.044-16.805,22.9,22.9,0,0,0-.226-3.427,21.79,21.79,0,0,0-8.865-14.871,25.349,25.349,0,0,0-15.5-4.338,32.566,32.566,0,0,0-7.8,2.116l-.182.073a.758.758,0,0,1-.416.041s-4.284-.819-5.313-.993a34.934,34.934,0,0,0-6.595-.6c-.718.013-1.377.056-2.014.13-.619.07-1.255.171-1.891.3l-.039.01a21.14,21.14,0,0,0-9.185,4.371,21.777,21.777,0,0,0-6.2,8.667Zm15.409-13.088-.009,0Zm0,0Z" fill="#303030"/>
    </g>
    <g>
      <path d="M59.453,318.421c-2.578,2.1-5.9,4.826-9.557,7.769-1.7,1.375-3.481,2.8-5.287,4.222-6.554,5.185-13.456,10.412-18.581,13.629-3.182,2-6.572-.448-6.016-4.162.227-1.507.6-3.313,1.094-5.323v-.006c.5-2.045,1.106-4.3,1.782-6.644,2.775-9.616,6.645-20.734,8.283-25.339.491-1.375.778-2.171.778-2.171a10.521,10.521,0,0,1,2.123-3.7c3.845-4.413,11.159-6.183,16.266-3.379a1.026,1.026,0,0,1,.138.078c.233.132.467.269.688.425l2.1,1.184.454.257,4.9,2.757C64.949,302.346,65.385,313.577,59.453,318.421Z" fill="#f29049"/>
      <path d="M46.056,307.551a3.257,3.257,0,0,1-2.673,1.393,3.213,3.213,0,0,1-1.836-.574l-9.413-6.513c.49-1.375.777-2.17.777-2.17a10.519,10.519,0,0,1,2.123-3.7l10.2,7.051A3.254,3.254,0,0,1,46.056,307.551Z" fill="#be681c"/>
      <path d="M50.858,325.48c-1.7,1.376-3.48,2.8-5.286,4.222l-8.893-6.148a3.241,3.241,0,0,1,3.69-5.328Z" fill="#be681c"/>
      <path d="M27.834,333.9a3.257,3.257,0,0,1-2.674,1.393,3.213,3.213,0,0,1-1.836-.574l-1.256-.867v-.006c.5-2.046,1.107-4.3,1.783-6.644l3.163,2.188A3.25,3.25,0,0,1,27.834,333.9Z" fill="#be681c"/>
      <g>
        <path d="M50.432,292.33q-1.89-3.133-3.893-6.2c-1.868-2.85-4.739-5.454-5.658-8.813-.576-2.107-.106-4.861,2.053-5.9a5.057,5.057,0,0,1,3.853.019C54.518,274.209,53.966,286.564,50.432,292.33Z" fill="#60b463"/>
        <path d="M50.425,294.423l-.924-1.531c-1.3-2.157-2.6-4.231-3.871-6.164-.572-.873-1.24-1.72-1.949-2.617a18.862,18.862,0,0,1-3.848-6.506c-.708-2.591-.032-5.884,2.63-7.167a6.076,6.076,0,0,1,4.691-.023,9.813,9.813,0,0,1,5.931,6.318c1.938,5.509.557,12.439-1.726,16.166ZM44.679,272.13a2.92,2.92,0,0,0-1.272.266c-1.575.759-1.936,2.956-1.478,4.636a17.316,17.316,0,0,0,3.459,5.732c.706.893,1.436,1.819,2.06,2.771.953,1.452,1.924,2.984,2.9,4.568,1.48-3.5,2.095-8.645.686-12.648a7.617,7.617,0,0,0-4.614-4.994A5.293,5.293,0,0,0,44.679,272.13Z" fill="#333"/>
      </g>
      <g>
        <path d="M52.915,294.847c1.031-.206,1.658-9.649,1.8-10.775.51-4.024.969-8.082,1.176-12.135.18-3.533,1.545-5.755,4.781-7.28,4.168-1.964,8.824.834,10.568,4.824,2.4,5.489-1.562,11.357-4.887,15.528C63.008,289.205,58.381,293.755,52.915,294.847Z" fill="#60b463"/>
        <path d="M53.127,295.914l-.425-2.133a.767.767,0,0,0-.474.279c.39-.617.824-3.6,1.29-8.863.054-.612.094-1.063.119-1.262.459-3.612.955-7.87,1.169-12.054.205-4.011,1.871-6.542,5.4-8.208a7.887,7.887,0,0,1,6.25-.2,10.518,10.518,0,0,1,5.779,5.572c2.584,5.915-1.333,12-5.033,16.641-4.662,5.848-9.394,9.289-14.066,10.226ZM63.521,265.1a5.533,5.533,0,0,0-2.386.539c-2.79,1.316-3.995,3.156-4.158,6.352-.217,4.256-.72,8.564-1.183,12.217-.023.187-.06.608-.111,1.179a78.041,78.041,0,0,1-.948,7.805c3.523-1.333,7.136-4.305,10.769-8.863,3.321-4.164,6.86-9.565,4.741-14.413a8.3,8.3,0,0,0-4.552-4.408A6.183,6.183,0,0,0,63.521,265.1Z" fill="#333"/>
      </g>
      <g>
        <path d="M57.339,297.033c.763.484,4.036-1.891,4.8-2.3,2.75-1.452,5.156-3.294,7.78-4.916,2.144-1.325,4.981-1.822,6.714.414a4.7,4.7,0,0,1,.658,4.015C75.17,302.49,62.655,300.5,57.339,297.033Z" fill="#60b463"/>
        <path d="M68.106,301.113a22.292,22.292,0,0,1-11.36-3.169l1.176-1.83a.506.506,0,0,0-.321-.1,14.076,14.076,0,0,0,3.1-1.664c.408-.26.741-.469.93-.57a53.5,53.5,0,0,0,4.83-3c.951-.637,1.9-1.275,2.887-1.883,3.132-1.935,6.329-1.669,8.144.673a5.77,5.77,0,0,1,.851,4.952,8.171,8.171,0,0,1-5.181,5.746A14.08,14.08,0,0,1,68.106,301.113ZM60.1,297.266c3.7,1.6,8.825,2.317,12.28.975a6,6,0,0,0,3.863-4.263,3.6,3.6,0,0,0-.464-3.078c-1.664-2.144-4.465-.66-5.283-.155-.96.594-1.891,1.218-2.82,1.84a56.176,56.176,0,0,1-5.025,3.115c-.158.083-.434.261-.776.48C61.229,296.591,60.638,296.96,60.1,297.266Z" fill="#333"/>
      </g>
      <path d="M23.692,345.846a4.653,4.653,0,0,1-2.57-.767,5.325,5.325,0,0,1-2.185-5.361c.22-1.464.585-3.247,1.084-5.3l.029-.124c.476-1.958,1.079-4.21,1.794-6.689,2.928-10.15,7.1-22.009,8.3-25.4l.779-2.176a11.534,11.534,0,0,1,2.326-4.042c4.318-4.956,12.219-6.578,17.609-3.615l.241.14a7.519,7.519,0,0,1,.685.423l7.372,4.142a14.687,14.687,0,0,1,.98,22.188h0l-1.863,1.521c-2.24,1.829-4.871,3.976-7.7,6.253-1.7,1.376-3.485,2.8-5.3,4.229a230.328,230.328,0,0,1-18.676,13.7A5.491,5.491,0,0,1,23.692,345.846Zm-1.5-11.165-.031.134c-.5,2.041-.86,3.8-1.075,5.226a3.182,3.182,0,0,0,1.225,3.219,2.827,2.827,0,0,0,3.138-.139c4.319-2.711,10.538-7.274,18.485-13.561,1.8-1.423,3.576-2.842,5.277-4.217,2.825-2.273,5.452-4.417,7.689-6.243l1.865-1.522a12.553,12.553,0,0,0-.752-18.66L50.63,294.77c-.284-.192-.488-.311-.691-.426-4.592-2.526-11.428-1.084-15.047,3.07a9.437,9.437,0,0,0-1.909,3.316l-.787,2.2c-1.2,3.379-5.352,15.188-8.263,25.277C23.242,330.605,22.657,332.782,22.193,334.681Z" fill="#333"/>
    </g>
    <g>
      <path d="M91.692,391.31a12.916,12.916,0,0,1-.326,2.011,234.882,234.882,0,0,1-42.991,3.849c-25.654,0-43.627-3.866-43.885-3.918l-2.474-.6c-.051-.378-.1-.774-.12-1.152-.361-6.271,4.639-12.148,8.883-15.945a39.139,39.139,0,0,1,9.863-6.22,17.115,17.115,0,0,0-.773,11.89,3.777,3.777,0,0,0,1.89,2.131,3.861,3.861,0,0,0,1.7.395,3.747,3.747,0,0,0,1.237-.206,3.789,3.789,0,0,0,2.337-4.846c-1.873-5.7.894-11.117,1.546-12.3a65.755,65.755,0,0,1,9.846-2.114c-1.031,2.2-2.629,7.079-1.34,14.382a4.343,4.343,0,0,0,4.261,3.608,2.942,2.942,0,0,0,.378-.017,4.223,4.223,0,0,0,2.99-1.649,4.283,4.283,0,0,0,.859-3.334c-1.22-7.629.945-12.337,1.684-13.643.206-.017.395-.017.6-.017a60.277,60.277,0,0,1,11.616,1.082c-.172.224-.327.447-.481.688a15.886,15.886,0,0,0-1.667,13.437c.378,1.2,1.478,4.639,4.244,4.639a3.287,3.287,0,0,0,.894-.12,3.452,3.452,0,0,0,2.44-2.268,6.271,6.271,0,0,0-.121-3.145,9.666,9.666,0,0,1-.206-1.2,15.557,15.557,0,0,1,.172-3.78,13.3,13.3,0,0,1,2.8-6.065,46,46,0,0,1,13.643,7.629C88.5,380.485,92.036,386.156,91.692,391.31Z" fill="#fabb48"/>
      <path d="M91.366,393.321c-1.186,4.33-5.035,7.509-8.282,9.519a15.673,15.673,0,0,1-8.214,2.268h-57.8a13.055,13.055,0,0,1-7.543-2.32q-6.573-4.612-7.509-10.137l2.474.6c.258.052,18.231,3.918,43.885,3.918A234.882,234.882,0,0,0,91.366,393.321Z" fill="#f6a42c"/>
      <path d="M64.784,377.925a6.271,6.271,0,0,1,.121,3.145,3.452,3.452,0,0,1-2.44,2.268,3.287,3.287,0,0,1-.894.12c-2.766,0-3.866-3.437-4.244-4.639a15.886,15.886,0,0,1,1.667-13.437c.154-.241.309-.464.481-.688.584.1,1.185.241,1.77.361-.275.344-.55.739-.877,1.22a14.4,14.4,0,0,0-1.5,12.045c1.117,3.437,2.286,3.643,3.214,3.42a1.731,1.731,0,0,0,1.237-1.169,5.121,5.121,0,0,0-.138-2.3,12.988,12.988,0,0,1-.24-1.392,16.57,16.57,0,0,1,.189-4.227,14.6,14.6,0,0,1,2.766-6.323c.533.154,1.1.361,1.65.55a13.3,13.3,0,0,0-2.8,6.065,15.557,15.557,0,0,0-.172,3.78A9.666,9.666,0,0,0,64.784,377.925Z" fill="#3d0f1c"/>
      <path d="M63.186,378.269a5.121,5.121,0,0,1,.138,2.3,1.731,1.731,0,0,1-1.237,1.169c-.928.223-2.1.017-3.214-3.42a14.4,14.4,0,0,1,1.5-12.045c.327-.481.6-.876.877-1.22,1.563.344,3.127.774,4.656,1.272a14.6,14.6,0,0,0-2.766,6.323,16.57,16.57,0,0,0-.189,4.227A12.988,12.988,0,0,0,63.186,378.269Z" fill="#f6a42c"/>
      <path d="M45.574,377.272a4.283,4.283,0,0,1-.859,3.334,4.223,4.223,0,0,1-2.99,1.649,2.942,2.942,0,0,1-.378.017,4.343,4.343,0,0,1-4.261-3.608c-1.289-7.3.309-12.183,1.34-14.382.67-.1,1.323-.189,1.993-.258-.5.842-3.213,5.825-1.718,14.365a2.685,2.685,0,0,0,2.87,2.217,2.575,2.575,0,0,0,1.838-1,2.607,2.607,0,0,0,.533-2.079c-1.117-7.011.429-11.7,1.426-13.849.618-.052,1.271-.052,1.89-.052C46.519,364.935,44.354,369.643,45.574,377.272Z" fill="#3d0f1c"/>
      <path d="M43.942,377.53a2.607,2.607,0,0,1-.533,2.079,2.575,2.575,0,0,1-1.838,1,2.685,2.685,0,0,1-2.87-2.217c-1.495-8.54,1.22-13.523,1.718-14.365,1.633-.189,3.282-.292,4.949-.343C44.371,365.829,42.825,370.519,43.942,377.53Z" fill="#f6a42c"/>
      <path d="M27.034,378.7a3.789,3.789,0,0,1-2.337,4.846,3.747,3.747,0,0,1-1.237.206,3.861,3.861,0,0,1-1.7-.395,3.777,3.777,0,0,1-1.89-2.131,17.115,17.115,0,0,1,.773-11.89c.739-.344,1.5-.67,2.285-.98-.7,1.272-3.385,6.684-1.494,12.337a2.147,2.147,0,0,0,1.048,1.186,2.289,2.289,0,0,0,1.684.12,2.172,2.172,0,0,0,1.323-2.766,17.032,17.032,0,0,1,.927-12.165c.705-.224,1.427-.464,2.165-.67C27.928,367.581,25.161,372.994,27.034,378.7Z" fill="#3d0f1c"/>
      <path d="M25.488,379.231A2.172,2.172,0,0,1,24.165,382a2.289,2.289,0,0,1-1.684-.12,2.147,2.147,0,0,1-1.048-1.186c-1.891-5.653.79-11.065,1.494-12.337,1.117-.464,2.286-.893,3.488-1.288A17.032,17.032,0,0,0,25.488,379.231Z" fill="#f6a42c"/>
      <path d="M82.225,373.252a49.168,49.168,0,0,0-21.685-9.984A68.908,68.908,0,0,0,21.707,367.1,42.861,42.861,0,0,0,9.68,374.334C5.161,378.372-.166,384.661.246,391.6c.275,4.622,3.076,8.849,8.334,12.509a14.532,14.532,0,0,0,8.488,2.647h57.8a17.355,17.355,0,0,0,9.073-2.526c4.055-2.509,8.986-6.736,9.382-12.8C93.72,385.709,89.974,379.592,82.225,373.252Zm-71.446,2.3a39.139,39.139,0,0,1,9.863-6.22c.739-.344,1.5-.67,2.285-.98,1.117-.464,2.286-.893,3.488-1.288.705-.224,1.427-.464,2.165-.67a65.755,65.755,0,0,1,9.846-2.114c.67-.1,1.323-.189,1.993-.258,1.633-.189,3.282-.292,4.949-.343.618-.052,1.271-.052,1.89-.052.206-.017.395-.017.6-.017a60.277,60.277,0,0,1,11.616,1.082c.584.1,1.185.241,1.77.361,1.563.344,3.127.774,4.656,1.272.533.154,1.1.361,1.65.55a46,46,0,0,1,13.643,7.629c7.3,5.979,10.842,11.65,10.5,16.8a12.916,12.916,0,0,1-.326,2.011c-1.186,4.33-5.035,7.509-8.282,9.519a15.673,15.673,0,0,1-8.214,2.268h-57.8a13.055,13.055,0,0,1-7.543-2.32q-6.573-4.612-7.509-10.137c-.051-.378-.1-.774-.12-1.152C1.535,385.228,6.535,379.351,10.779,375.554Z" fill="#333"/>
    </g>
    <path d="M393.291,320.735a9.735,9.735,0,0,1-9.724-9.723,9.606,9.606,0,0,1,3.458-7.439,8.2,8.2,0,0,1-2-5.4,8.27,8.27,0,0,1,16.54,0,8.191,8.191,0,0,1-2,5.4,9.606,9.606,0,0,1,3.458,7.439A9.736,9.736,0,0,1,393.291,320.735Zm-.243-14.3a4.59,4.59,0,1,0,.485,0H393.5c-.064,0-.138.009-.211.009s-.147,0-.221-.009Zm.243-5.148c.1,0,.2,0,.3.007a3.141,3.141,0,1,0-.591,0C393.107,301.292,393.2,301.289,393.291,301.289Z" fill="#3a3a3a"/>
  </g>
</svg>
