<svg xmlns="http://www.w3.org/2000/svg" width="800" height="647" viewBox="0 0 800 647">
  <path d="M156.237,105.891a2.235,2.235,0,0,1-.666,1.644,2.16,2.16,0,0,1-1.622.667,2.278,2.278,0,0,1-2.312-2.311,2.162,2.162,0,0,1,.667-1.622,2.233,2.233,0,0,1,1.645-.667,2.276,2.276,0,0,1,2.288,2.289Z" fill="#3a3a3a"/>
  <path d="M171.953,105.891a2.235,2.235,0,0,1-.666,1.644,2.16,2.16,0,0,1-1.623.667,2.278,2.278,0,0,1-2.311-2.311,2.162,2.162,0,0,1,.667-1.622,2.231,2.231,0,0,1,1.644-.667,2.276,2.276,0,0,1,2.289,2.289Z" fill="#3a3a3a"/>
  <path d="M187.669,105.891a2.235,2.235,0,0,1-.666,1.644,2.162,2.162,0,0,1-1.623.667,2.278,2.278,0,0,1-2.311-2.311,2.162,2.162,0,0,1,.667-1.622,2.231,2.231,0,0,1,1.644-.667,2.276,2.276,0,0,1,2.289,2.289Z" fill="#3a3a3a"/>
  <path d="M203.384,105.891a2.236,2.236,0,0,1-.667,1.644,2.16,2.16,0,0,1-1.622.667,2.276,2.276,0,0,1-2.311-2.311,2.161,2.161,0,0,1,.666-1.622,2.233,2.233,0,0,1,1.645-.667,2.277,2.277,0,0,1,2.289,2.289Z" fill="#3a3a3a"/>
  <path d="M219.1,105.891a2.236,2.236,0,0,1-.667,1.644,2.16,2.16,0,0,1-1.622.667,2.276,2.276,0,0,1-2.311-2.311,2.161,2.161,0,0,1,.666-1.622,2.233,2.233,0,0,1,1.645-.667,2.277,2.277,0,0,1,2.289,2.289Z" fill="#3a3a3a"/>
  <path d="M234.816,105.891a2.236,2.236,0,0,1-.667,1.644,2.16,2.16,0,0,1-1.622.667,2.276,2.276,0,0,1-2.311-2.311,2.161,2.161,0,0,1,.666-1.622,2.233,2.233,0,0,1,1.645-.667,2.277,2.277,0,0,1,2.289,2.289Z" fill="#3a3a3a"/>
  <path d="M250.532,105.891a2.236,2.236,0,0,1-.667,1.644,2.16,2.16,0,0,1-1.622.667,2.278,2.278,0,0,1-2.312-2.311,2.162,2.162,0,0,1,.667-1.622,2.233,2.233,0,0,1,1.645-.667,2.277,2.277,0,0,1,2.289,2.289Z" fill="#3a3a3a"/>
  <path d="M266.247,105.891a2.235,2.235,0,0,1-.666,1.644,2.16,2.16,0,0,1-1.622.667,2.278,2.278,0,0,1-2.312-2.311,2.162,2.162,0,0,1,.667-1.622,2.233,2.233,0,0,1,1.645-.667,2.276,2.276,0,0,1,2.288,2.289Z" fill="#3a3a3a"/>
  <path d="M281.962,105.891a2.232,2.232,0,0,1-.667,1.644,2.16,2.16,0,0,1-1.622.667,2.276,2.276,0,0,1-2.311-2.311,2.161,2.161,0,0,1,.666-1.622,2.234,2.234,0,0,1,1.645-.667,2.277,2.277,0,0,1,2.289,2.289Z" fill="#3a3a3a"/>
  <path d="M297.678,105.891a2.232,2.232,0,0,1-.667,1.644,2.16,2.16,0,0,1-1.622.667,2.276,2.276,0,0,1-2.311-2.311,2.161,2.161,0,0,1,.666-1.622,2.233,2.233,0,0,1,1.645-.667,2.277,2.277,0,0,1,2.289,2.289Z" fill="#3a3a3a"/>
  <path d="M313.394,105.891a2.236,2.236,0,0,1-.667,1.644,2.16,2.16,0,0,1-1.622.667,2.276,2.276,0,0,1-2.311-2.311,2.161,2.161,0,0,1,.666-1.622,2.233,2.233,0,0,1,1.645-.667,2.277,2.277,0,0,1,2.289,2.289Z" fill="#3a3a3a"/>
  <path d="M329.11,105.891a2.236,2.236,0,0,1-.667,1.644,2.16,2.16,0,0,1-1.622.667,2.276,2.276,0,0,1-2.311-2.311,2.161,2.161,0,0,1,.666-1.622,2.233,2.233,0,0,1,1.645-.667,2.277,2.277,0,0,1,2.289,2.289Z" fill="#3a3a3a"/>
  <path d="M344.826,105.891a2.236,2.236,0,0,1-.667,1.644,2.16,2.16,0,0,1-1.622.667,2.276,2.276,0,0,1-2.311-2.311,2.161,2.161,0,0,1,.666-1.622,2.233,2.233,0,0,1,1.645-.667,2.277,2.277,0,0,1,2.289,2.289Z" fill="#3a3a3a"/>
  <path d="M360.54,105.891a2.232,2.232,0,0,1-.667,1.644,2.16,2.16,0,0,1-1.622.667,2.278,2.278,0,0,1-2.311-2.311,2.158,2.158,0,0,1,.667-1.622,2.231,2.231,0,0,1,1.644-.667,2.277,2.277,0,0,1,2.289,2.289Z" fill="#3a3a3a"/>
  <path d="M376.256,105.891a2.232,2.232,0,0,1-.667,1.644,2.16,2.16,0,0,1-1.622.667,2.278,2.278,0,0,1-2.311-2.311,2.158,2.158,0,0,1,.667-1.622,2.231,2.231,0,0,1,1.644-.667,2.277,2.277,0,0,1,2.289,2.289Z" fill="#3a3a3a"/>
  <path d="M391.972,105.891a2.232,2.232,0,0,1-.667,1.644,2.16,2.16,0,0,1-1.622.667,2.278,2.278,0,0,1-2.311-2.311,2.158,2.158,0,0,1,.667-1.622,2.231,2.231,0,0,1,1.644-.667,2.277,2.277,0,0,1,2.289,2.289Z" fill="#3a3a3a"/>
  <path d="M407.688,105.891a2.232,2.232,0,0,1-.667,1.644,2.16,2.16,0,0,1-1.622.667,2.276,2.276,0,0,1-2.311-2.311,2.161,2.161,0,0,1,.666-1.622,2.234,2.234,0,0,1,1.645-.667,2.277,2.277,0,0,1,2.289,2.289Z" fill="#3a3a3a"/>
  <path d="M423.4,105.891a2.232,2.232,0,0,1-.667,1.644,2.158,2.158,0,0,1-1.622.667,2.276,2.276,0,0,1-2.311-2.311,2.161,2.161,0,0,1,.666-1.622,2.236,2.236,0,0,1,1.645-.667,2.277,2.277,0,0,1,2.289,2.289Z" fill="#3a3a3a"/>
  <path d="M439.118,105.891a2.232,2.232,0,0,1-.667,1.644,2.158,2.158,0,0,1-1.622.667,2.278,2.278,0,0,1-2.311-2.311,2.158,2.158,0,0,1,.667-1.622,2.232,2.232,0,0,1,1.644-.667,2.277,2.277,0,0,1,2.289,2.289Z" fill="#3a3a3a"/>
  <path d="M454.836,105.891a2.236,2.236,0,0,1-.667,1.644,2.16,2.16,0,0,1-1.622.667,2.276,2.276,0,0,1-2.311-2.311,2.161,2.161,0,0,1,.666-1.622,2.236,2.236,0,0,1,1.645-.667,2.277,2.277,0,0,1,2.289,2.289Z" fill="#3a3a3a"/>
  <path d="M470.55,105.891a2.232,2.232,0,0,1-.667,1.644,2.158,2.158,0,0,1-1.622.667,2.278,2.278,0,0,1-2.311-2.311,2.158,2.158,0,0,1,.667-1.622,2.232,2.232,0,0,1,1.644-.667,2.277,2.277,0,0,1,2.289,2.289Z" fill="#3a3a3a"/>
  <path d="M486.264,105.891a2.235,2.235,0,0,1-.666,1.644,2.162,2.162,0,0,1-1.623.667,2.278,2.278,0,0,1-2.311-2.311,2.162,2.162,0,0,1,.667-1.622,2.234,2.234,0,0,1,1.644-.667,2.276,2.276,0,0,1,2.289,2.289Z" fill="#3a3a3a"/>
  <path d="M501.982,105.891a2.232,2.232,0,0,1-.667,1.644,2.158,2.158,0,0,1-1.622.667,2.278,2.278,0,0,1-2.311-2.311,2.158,2.158,0,0,1,.667-1.622,2.232,2.232,0,0,1,1.644-.667,2.277,2.277,0,0,1,2.289,2.289Z" fill="#3a3a3a"/>
  <path d="M517.7,105.891a2.235,2.235,0,0,1-.666,1.644,2.162,2.162,0,0,1-1.623.667,2.278,2.278,0,0,1-2.311-2.311,2.158,2.158,0,0,1,.667-1.622,2.234,2.234,0,0,1,1.644-.667,2.276,2.276,0,0,1,2.289,2.289Z" fill="#3a3a3a"/>
  <path d="M533.414,105.891a2.232,2.232,0,0,1-.667,1.644,2.158,2.158,0,0,1-1.622.667,2.276,2.276,0,0,1-2.311-2.311,2.161,2.161,0,0,1,.666-1.622,2.236,2.236,0,0,1,1.645-.667,2.277,2.277,0,0,1,2.289,2.289Z" fill="#3a3a3a"/>
  <path d="M549.128,105.891a2.232,2.232,0,0,1-.667,1.644,2.158,2.158,0,0,1-1.622.667,2.278,2.278,0,0,1-2.311-2.311,2.158,2.158,0,0,1,.667-1.622,2.232,2.232,0,0,1,1.644-.667,2.277,2.277,0,0,1,2.289,2.289Z" fill="#3a3a3a"/>
  <path d="M564.843,105.891a2.236,2.236,0,0,1-.667,1.644,2.161,2.161,0,0,1-1.622.667,2.278,2.278,0,0,1-2.312-2.311,2.162,2.162,0,0,1,.667-1.622,2.236,2.236,0,0,1,1.645-.667,2.277,2.277,0,0,1,2.289,2.289Z" fill="#3a3a3a"/>
  <path d="M606.132,84.735a2.384,2.384,0,0,1-.718,1.749,2.417,2.417,0,0,1-1.784.718,2.452,2.452,0,0,1-2.467-2.467v-23.9l-1.2.33a2.522,2.522,0,0,1-.866.168,2.4,2.4,0,0,1-2.467-2.467,2.425,2.425,0,0,1,.4-1.349,2.27,2.27,0,0,1,1.032-.885l4.7-1.6a2.468,2.468,0,0,1,.867-.166,2.421,2.421,0,0,1,1.784.718,2.384,2.384,0,0,1,.718,1.749Zm27.4-29.867a3.347,3.347,0,0,1,1.368.283A3.594,3.594,0,0,1,636.748,57a3.339,3.339,0,0,1,.282,1.365,3.677,3.677,0,0,1-.533,1.9L605.63,106.5a3.559,3.559,0,0,1-3,1.7,3.487,3.487,0,0,1-1.368-.267,3.282,3.282,0,0,1-1.1-.749,3.638,3.638,0,0,1-.733-1.117,3.4,3.4,0,0,1-.267-1.334,3.268,3.268,0,0,1,.5-1.866l31.067-46.6A3.141,3.141,0,0,1,633.529,54.868Zm8.133,48.4a2.5,2.5,0,0,1,1.752.7,2.46,2.46,0,0,1,0,3.537,2.5,2.5,0,0,1-1.752.7h-15.2A2.389,2.389,0,0,1,624,105.735a2.458,2.458,0,0,1,.7-1.7l12.965-14.368a5.045,5.045,0,0,0,1.536-3.7,4.836,4.836,0,0,0-.419-2,5.347,5.347,0,0,0-1.117-1.632,5.122,5.122,0,0,0-1.632-1.1,4.94,4.94,0,0,0-1.968-.4,5.017,5.017,0,0,0-2,.4,5.123,5.123,0,0,0-2.73,2.73,5.038,5.038,0,0,0-.4,2,2.467,2.467,0,1,1-4.934,0,9.65,9.65,0,0,1,.8-3.9,10.2,10.2,0,0,1,5.365-5.366,9.648,9.648,0,0,1,3.9-.8,9.507,9.507,0,0,1,3.886.816,10.55,10.55,0,0,1,3.216,2.181,10.669,10.669,0,0,1,2.184,3.2,9.447,9.447,0,0,1,.816,3.867,9.244,9.244,0,0,1-.785,3.8,12.177,12.177,0,0,1-2.181,3.3l-9.168,10.2Z" fill="#3a3a3a"/>
  <path d="M683.745,98.043a10.136,10.136,0,0,1-17.41,7.057v10.369a1.432,1.432,0,1,1-2.863,0V98.043a10.137,10.137,0,0,1,20.273,0Zm-2.867,0a7.272,7.272,0,1,0-7.27,7.27A7.278,7.278,0,0,0,680.878,98.043Z" fill="#3a3a3a"/>
  <path d="M706.478,98.072a10.137,10.137,0,1,1-10.136-10.137A10.138,10.138,0,0,1,706.478,98.072Zm-2.863,0a7.274,7.274,0,1,0-7.273,7.273A7.282,7.282,0,0,0,703.615,98.072Z" fill="#3a3a3a"/>
  <path d="M728.316,106.767a1.432,1.432,0,1,1-2.863,0v-1.4a9.293,9.293,0,0,1-6.765,2.816c-5.6,0-9.2-4.54-9.2-10.133v-8.7a1.432,1.432,0,0,1,2.863,0v8.7c0,4.009,2.321,7.269,6.334,7.269s6.755-3.25,6.765-7.247V89.338a1.432,1.432,0,0,1,2.863,0Z" fill="#3a3a3a"/>
  <path d="M751.558,98.056v8.7a1.432,1.432,0,0,1-2.864,0v-8.7c0-4.01-2.317-7.27-6.333-7.27-4,0-6.753,3.248-6.765,7.248v8.733a1.432,1.432,0,0,1-2.864,0V89.338a1.432,1.432,0,0,1,2.864,0v1.4a9.3,9.3,0,0,1,6.765-2.812C747.961,87.923,751.558,92.459,751.558,98.056Z" fill="#3a3a3a"/>
  <path d="M774.853,98.072a10.149,10.149,0,1,1-2.867-7.057V80.643a1.434,1.434,0,0,1,2.867,0Zm-2.867,0a7.272,7.272,0,1,0-7.27,7.27A7.292,7.292,0,0,0,771.986,98.075Z" fill="#3a3a3a"/>
  <path d="M145.021,235.923a2.239,2.239,0,0,1-.666,1.645,2.162,2.162,0,0,1-1.622.666,2.277,2.277,0,0,1-2.312-2.311,2.163,2.163,0,0,1,.667-1.622,2.237,2.237,0,0,1,1.645-.667,2.276,2.276,0,0,1,2.288,2.289Z" fill="#3a3a3a"/>
  <path d="M160.737,235.923a2.239,2.239,0,0,1-.666,1.645,2.162,2.162,0,0,1-1.622.666,2.277,2.277,0,0,1-2.312-2.311,2.163,2.163,0,0,1,.667-1.622,2.237,2.237,0,0,1,1.645-.667,2.276,2.276,0,0,1,2.288,2.289Z" fill="#3a3a3a"/>
  <path d="M176.453,235.923a2.239,2.239,0,0,1-.666,1.645,2.163,2.163,0,0,1-1.623.666,2.276,2.276,0,0,1-2.311-2.311,2.163,2.163,0,0,1,.667-1.622,2.234,2.234,0,0,1,1.644-.667,2.276,2.276,0,0,1,2.289,2.289Z" fill="#3a3a3a"/>
  <path d="M192.168,235.923a2.236,2.236,0,0,1-.667,1.645,2.162,2.162,0,0,1-1.622.666,2.275,2.275,0,0,1-2.311-2.311,2.162,2.162,0,0,1,.666-1.622,2.237,2.237,0,0,1,1.645-.667,2.277,2.277,0,0,1,2.289,2.289Z" fill="#3a3a3a"/>
  <path d="M207.884,235.923a2.24,2.24,0,0,1-.667,1.645,2.162,2.162,0,0,1-1.622.666,2.275,2.275,0,0,1-2.311-2.311,2.162,2.162,0,0,1,.666-1.622,2.237,2.237,0,0,1,1.645-.667,2.277,2.277,0,0,1,2.289,2.289Z" fill="#3a3a3a"/>
  <path d="M223.6,235.923a2.24,2.24,0,0,1-.667,1.645,2.162,2.162,0,0,1-1.622.666A2.275,2.275,0,0,1,219,235.923a2.162,2.162,0,0,1,.666-1.622,2.237,2.237,0,0,1,1.645-.667,2.277,2.277,0,0,1,2.289,2.289Z" fill="#3a3a3a"/>
  <path d="M239.316,235.923a2.24,2.24,0,0,1-.667,1.645,2.162,2.162,0,0,1-1.622.666,2.275,2.275,0,0,1-2.311-2.311,2.162,2.162,0,0,1,.666-1.622,2.237,2.237,0,0,1,1.645-.667,2.277,2.277,0,0,1,2.289,2.289Z" fill="#3a3a3a"/>
  <path d="M255.032,235.923a2.24,2.24,0,0,1-.667,1.645,2.162,2.162,0,0,1-1.622.666,2.275,2.275,0,0,1-2.311-2.311,2.162,2.162,0,0,1,.666-1.622,2.237,2.237,0,0,1,1.645-.667,2.277,2.277,0,0,1,2.289,2.289Z" fill="#3a3a3a"/>
  <path d="M270.746,235.923a2.236,2.236,0,0,1-.667,1.645,2.162,2.162,0,0,1-1.622.666,2.276,2.276,0,0,1-2.311-2.311,2.16,2.16,0,0,1,.667-1.622,2.234,2.234,0,0,1,1.644-.667,2.277,2.277,0,0,1,2.289,2.289Z" fill="#3a3a3a"/>
  <path d="M286.462,235.923a2.236,2.236,0,0,1-.667,1.645,2.162,2.162,0,0,1-1.622.666,2.275,2.275,0,0,1-2.311-2.311,2.162,2.162,0,0,1,.666-1.622,2.238,2.238,0,0,1,1.645-.667,2.277,2.277,0,0,1,2.289,2.289Z" fill="#3a3a3a"/>
  <path d="M302.178,235.923a2.236,2.236,0,0,1-.667,1.645,2.162,2.162,0,0,1-1.622.666,2.275,2.275,0,0,1-2.311-2.311,2.162,2.162,0,0,1,.666-1.622,2.238,2.238,0,0,1,1.645-.667,2.277,2.277,0,0,1,2.289,2.289Z" fill="#3a3a3a"/>
  <path d="M317.894,235.923a2.236,2.236,0,0,1-.667,1.645,2.162,2.162,0,0,1-1.622.666,2.275,2.275,0,0,1-2.311-2.311,2.162,2.162,0,0,1,.666-1.622,2.237,2.237,0,0,1,1.645-.667,2.277,2.277,0,0,1,2.289,2.289Z" fill="#3a3a3a"/>
  <path d="M333.61,235.923a2.24,2.24,0,0,1-.667,1.645,2.162,2.162,0,0,1-1.622.666,2.275,2.275,0,0,1-2.311-2.311,2.162,2.162,0,0,1,.666-1.622,2.237,2.237,0,0,1,1.645-.667,2.277,2.277,0,0,1,2.289,2.289Z" fill="#3a3a3a"/>
  <path d="M349.324,235.923a2.236,2.236,0,0,1-.667,1.645,2.161,2.161,0,0,1-1.622.666,2.276,2.276,0,0,1-2.311-2.311,2.16,2.16,0,0,1,.667-1.622,2.234,2.234,0,0,1,1.644-.667,2.277,2.277,0,0,1,2.289,2.289Z" fill="#3a3a3a"/>
  <path d="M365.04,235.923a2.236,2.236,0,0,1-.667,1.645,2.162,2.162,0,0,1-1.622.666,2.276,2.276,0,0,1-2.311-2.311,2.16,2.16,0,0,1,.667-1.622,2.234,2.234,0,0,1,1.644-.667,2.277,2.277,0,0,1,2.289,2.289Z" fill="#3a3a3a"/>
  <path d="M380.756,235.923a2.236,2.236,0,0,1-.667,1.645,2.162,2.162,0,0,1-1.622.666,2.276,2.276,0,0,1-2.311-2.311,2.16,2.16,0,0,1,.667-1.622,2.234,2.234,0,0,1,1.644-.667,2.277,2.277,0,0,1,2.289,2.289Z" fill="#3a3a3a"/>
  <path d="M396.472,235.923a2.236,2.236,0,0,1-.667,1.645,2.162,2.162,0,0,1-1.622.666,2.276,2.276,0,0,1-2.311-2.311,2.16,2.16,0,0,1,.667-1.622,2.234,2.234,0,0,1,1.644-.667,2.277,2.277,0,0,1,2.289,2.289Z" fill="#3a3a3a"/>
  <path d="M412.188,235.923a2.236,2.236,0,0,1-.667,1.645,2.162,2.162,0,0,1-1.622.666,2.275,2.275,0,0,1-2.311-2.311,2.162,2.162,0,0,1,.666-1.622,2.238,2.238,0,0,1,1.645-.667,2.277,2.277,0,0,1,2.289,2.289Z" fill="#3a3a3a"/>
  <path d="M427.9,235.923a2.239,2.239,0,0,1-.666,1.645,2.165,2.165,0,0,1-1.623.666,2.276,2.276,0,0,1-2.311-2.311,2.16,2.16,0,0,1,.667-1.622,2.236,2.236,0,0,1,1.644-.667,2.276,2.276,0,0,1,2.289,2.289Z" fill="#3a3a3a"/>
  <path d="M443.62,235.923a2.24,2.24,0,0,1-.667,1.645,2.162,2.162,0,0,1-1.622.666,2.275,2.275,0,0,1-2.311-2.311,2.162,2.162,0,0,1,.666-1.622,2.24,2.24,0,0,1,1.645-.667,2.277,2.277,0,0,1,2.289,2.289Z" fill="#3a3a3a"/>
  <path d="M459.334,235.923a2.236,2.236,0,0,1-.667,1.645,2.161,2.161,0,0,1-1.622.666,2.276,2.276,0,0,1-2.311-2.311,2.16,2.16,0,0,1,.667-1.622,2.236,2.236,0,0,1,1.644-.667,2.277,2.277,0,0,1,2.289,2.289Z" fill="#3a3a3a"/>
  <path d="M475.048,235.923a2.239,2.239,0,0,1-.666,1.645,2.164,2.164,0,0,1-1.622.666,2.277,2.277,0,0,1-2.312-2.311,2.163,2.163,0,0,1,.667-1.622,2.24,2.24,0,0,1,1.645-.667,2.276,2.276,0,0,1,2.288,2.289Z" fill="#3a3a3a"/>
  <path d="M490.766,235.923a2.236,2.236,0,0,1-.667,1.645,2.161,2.161,0,0,1-1.622.666,2.276,2.276,0,0,1-2.311-2.311,2.16,2.16,0,0,1,.667-1.622,2.236,2.236,0,0,1,1.644-.667,2.277,2.277,0,0,1,2.289,2.289Z" fill="#3a3a3a"/>
  <path d="M506.48,235.923a2.239,2.239,0,0,1-.666,1.645,2.165,2.165,0,0,1-1.623.666,2.276,2.276,0,0,1-2.311-2.311,2.163,2.163,0,0,1,.667-1.622,2.238,2.238,0,0,1,1.644-.667,2.276,2.276,0,0,1,2.289,2.289Z" fill="#3a3a3a"/>
  <path d="M522.2,235.923a2.236,2.236,0,0,1-.667,1.645,2.161,2.161,0,0,1-1.622.666,2.276,2.276,0,0,1-2.311-2.311,2.16,2.16,0,0,1,.667-1.622,2.236,2.236,0,0,1,1.644-.667,2.277,2.277,0,0,1,2.289,2.289Z" fill="#3a3a3a"/>
  <path d="M537.912,235.923a2.239,2.239,0,0,1-.666,1.645,2.165,2.165,0,0,1-1.623.666,2.276,2.276,0,0,1-2.311-2.311,2.16,2.16,0,0,1,.667-1.622,2.238,2.238,0,0,1,1.644-.667,2.276,2.276,0,0,1,2.289,2.289Z" fill="#3a3a3a"/>
  <path d="M553.627,235.923a2.24,2.24,0,0,1-.667,1.645,2.164,2.164,0,0,1-1.622.666,2.275,2.275,0,0,1-2.311-2.311,2.162,2.162,0,0,1,.666-1.622,2.24,2.24,0,0,1,1.645-.667,2.277,2.277,0,0,1,2.289,2.289Z" fill="#3a3a3a"/>
  <path d="M569.344,235.923a2.236,2.236,0,0,1-.667,1.645,2.161,2.161,0,0,1-1.622.666,2.276,2.276,0,0,1-2.311-2.311,2.16,2.16,0,0,1,.667-1.622,2.236,2.236,0,0,1,1.644-.667,2.277,2.277,0,0,1,2.289,2.289Z" fill="#3a3a3a"/>
  <path d="M621.928,238.234a3.8,3.8,0,0,1-3.793-3.793V227.66H602.963c-.095,0-.187-.01-.279-.019a3.7,3.7,0,0,1-.438-.051,3.041,3.041,0,0,1-.368-.1l-.061-.019a2.075,2.075,0,0,1-.3-.1,3,3,0,0,1-.442-.226,1.155,1.155,0,0,1-.187-.1l-.064-.045a3.86,3.86,0,0,1-.536-.441l-.079-.08-.083-.1-.06.028-.248-.419c-.06-.092-.106-.179-.155-.269a4.1,4.1,0,0,1-.2-.385l-.165-.336.044-.026a3.1,3.1,0,0,1-.114-.485,3.406,3.406,0,0,1-.054-.524l0-.06a2.143,2.143,0,0,1,.019-.308,3.448,3.448,0,0,1,.051-.445,2.622,2.622,0,0,1,.092-.339l.025-.086a2.749,2.749,0,0,1,.1-.289,4.484,4.484,0,0,1,.222-.438,2.321,2.321,0,0,1,.134-.229l18.8-27.441a3.758,3.758,0,0,1,3.149-1.673,1.42,1.42,0,0,1,.171-.01,3.8,3.8,0,0,1,3.794,3.794v23.641h2.607a3.794,3.794,0,0,1,0,7.588h-2.607v6.781A3.8,3.8,0,0,1,621.928,238.234Zm-3.793-18.162V208.431l-7.975,11.641Z" fill="#3a3a3a"/>
  <path d="M683.075,228.076a10.137,10.137,0,0,1-17.41,7.057V245.5a1.432,1.432,0,1,1-2.863,0V228.076a10.137,10.137,0,1,1,20.273,0Zm-2.867,0a7.272,7.272,0,1,0-7.27,7.269A7.277,7.277,0,0,0,680.208,228.076Z" fill="#3a3a3a"/>
  <path d="M705.808,228.1a10.137,10.137,0,1,1-10.136-10.136A10.138,10.138,0,0,1,705.808,228.1Zm-2.863,0a7.273,7.273,0,1,0-7.273,7.273A7.283,7.283,0,0,0,702.945,228.1Z" fill="#3a3a3a"/>
  <path d="M727.646,236.8a1.432,1.432,0,1,1-2.863,0v-1.4a9.293,9.293,0,0,1-6.765,2.816c-5.6,0-9.2-4.539-9.2-10.133v-8.695a1.432,1.432,0,1,1,2.863,0v8.695c0,4.009,2.321,7.27,6.334,7.27s6.755-3.251,6.765-7.248v-8.733a1.432,1.432,0,1,1,2.863,0Z" fill="#3a3a3a"/>
  <path d="M750.888,228.088v8.7a1.432,1.432,0,0,1-2.864,0v-8.7c0-4.009-2.317-7.27-6.333-7.27-4,0-6.752,3.248-6.765,7.248V236.8a1.432,1.432,0,0,1-2.864,0V219.371a1.432,1.432,0,1,1,2.864,0v1.4a9.3,9.3,0,0,1,6.765-2.813C747.291,217.955,750.888,222.491,750.888,228.088Z" fill="#3a3a3a"/>
  <path d="M774.183,228.1a10.146,10.146,0,1,1-2.866-7.057V210.676a1.433,1.433,0,0,1,2.866,0Zm-2.866,0a7.272,7.272,0,1,0-7.27,7.27A7.293,7.293,0,0,0,771.317,228.107Z" fill="#3a3a3a"/>
  <path d="M790.545,235.117c-.073.105-.152.21-.235.314a7.977,7.977,0,0,1-6.292,2.651,9.691,9.691,0,0,1-2.622-.352,6.969,6.969,0,0,1-4.152-3.289l-.045-.073a1.432,1.432,0,1,1,2.432-1.511l.066.108a4.188,4.188,0,0,0,2.483,2.009c1.93.549,4.654.193,5.9-1.336.045-.055.082-.109.121-.166a2.815,2.815,0,0,0,.267-2.523,3.161,3.161,0,0,0-2.105-2.019c-.435-.13-1.378-.308-2.13-.451-.67-.124-1.248-.234-1.61-.327a5.2,5.2,0,0,1-3.974-5.661,5.557,5.557,0,0,1,3.885-4.161c2.746-.908,6.678-.085,8.251,2.815a1.432,1.432,0,1,1-2.517,1.365c-.8-1.486-3.216-2-4.835-1.463a2.745,2.745,0,0,0-1.956,1.9,2.378,2.378,0,0,0,1.867,2.438c.267.07.851.178,1.419.286.9.171,1.835.345,2.41.514a5.991,5.991,0,0,1,4,3.823A5.67,5.67,0,0,1,790.545,235.117Z" fill="#3a3a3a"/>
  <path d="M145.021,365.956a2.237,2.237,0,0,1-.666,1.644,2.16,2.16,0,0,1-1.622.667,2.278,2.278,0,0,1-2.312-2.311,2.166,2.166,0,0,1,.667-1.623,2.236,2.236,0,0,1,1.645-.666,2.274,2.274,0,0,1,2.288,2.289Z" fill="#3a3a3a"/>
  <path d="M160.737,365.956a2.237,2.237,0,0,1-.666,1.644,2.16,2.16,0,0,1-1.622.667,2.278,2.278,0,0,1-2.312-2.311,2.166,2.166,0,0,1,.667-1.623,2.236,2.236,0,0,1,1.645-.666,2.274,2.274,0,0,1,2.288,2.289Z" fill="#3a3a3a"/>
  <path d="M176.453,365.956a2.237,2.237,0,0,1-.666,1.644,2.16,2.16,0,0,1-1.623.667,2.278,2.278,0,0,1-2.311-2.311,2.166,2.166,0,0,1,.667-1.623,2.234,2.234,0,0,1,1.644-.666,2.274,2.274,0,0,1,2.289,2.289Z" fill="#3a3a3a"/>
  <path d="M192.168,365.956a2.234,2.234,0,0,1-.667,1.644,2.16,2.16,0,0,1-1.622.667,2.276,2.276,0,0,1-2.311-2.311,2.165,2.165,0,0,1,.666-1.623,2.236,2.236,0,0,1,1.645-.666,2.276,2.276,0,0,1,2.289,2.289Z" fill="#3a3a3a"/>
  <path d="M207.884,365.956a2.238,2.238,0,0,1-.667,1.644,2.16,2.16,0,0,1-1.622.667,2.276,2.276,0,0,1-2.311-2.311,2.165,2.165,0,0,1,.666-1.623,2.236,2.236,0,0,1,1.645-.666,2.276,2.276,0,0,1,2.289,2.289Z" fill="#3a3a3a"/>
  <path d="M223.6,365.956a2.238,2.238,0,0,1-.667,1.644,2.16,2.16,0,0,1-1.622.667A2.276,2.276,0,0,1,219,365.956a2.165,2.165,0,0,1,.666-1.623,2.236,2.236,0,0,1,1.645-.666,2.276,2.276,0,0,1,2.289,2.289Z" fill="#3a3a3a"/>
  <path d="M239.316,365.956a2.238,2.238,0,0,1-.667,1.644,2.16,2.16,0,0,1-1.622.667,2.276,2.276,0,0,1-2.311-2.311,2.165,2.165,0,0,1,.666-1.623,2.236,2.236,0,0,1,1.645-.666,2.276,2.276,0,0,1,2.289,2.289Z" fill="#3a3a3a"/>
  <path d="M255.032,365.956a2.238,2.238,0,0,1-.667,1.644,2.16,2.16,0,0,1-1.622.667,2.276,2.276,0,0,1-2.311-2.311,2.165,2.165,0,0,1,.666-1.623,2.236,2.236,0,0,1,1.645-.666,2.276,2.276,0,0,1,2.289,2.289Z" fill="#3a3a3a"/>
  <path d="M270.746,365.956a2.234,2.234,0,0,1-.667,1.644,2.16,2.16,0,0,1-1.622.667,2.278,2.278,0,0,1-2.311-2.311,2.162,2.162,0,0,1,.667-1.623,2.234,2.234,0,0,1,1.644-.666,2.276,2.276,0,0,1,2.289,2.289Z" fill="#3a3a3a"/>
  <path d="M286.462,365.956a2.234,2.234,0,0,1-.667,1.644,2.16,2.16,0,0,1-1.622.667,2.276,2.276,0,0,1-2.311-2.311,2.165,2.165,0,0,1,.666-1.623,2.237,2.237,0,0,1,1.645-.666,2.276,2.276,0,0,1,2.289,2.289Z" fill="#3a3a3a"/>
  <path d="M302.178,365.956a2.234,2.234,0,0,1-.667,1.644,2.16,2.16,0,0,1-1.622.667,2.276,2.276,0,0,1-2.311-2.311,2.165,2.165,0,0,1,.666-1.623,2.237,2.237,0,0,1,1.645-.666,2.276,2.276,0,0,1,2.289,2.289Z" fill="#3a3a3a"/>
  <path d="M317.894,365.956a2.234,2.234,0,0,1-.667,1.644,2.16,2.16,0,0,1-1.622.667,2.276,2.276,0,0,1-2.311-2.311,2.165,2.165,0,0,1,.666-1.623,2.236,2.236,0,0,1,1.645-.666,2.276,2.276,0,0,1,2.289,2.289Z" fill="#3a3a3a"/>
  <path d="M333.61,365.956a2.238,2.238,0,0,1-.667,1.644,2.16,2.16,0,0,1-1.622.667,2.276,2.276,0,0,1-2.311-2.311,2.165,2.165,0,0,1,.666-1.623,2.236,2.236,0,0,1,1.645-.666,2.276,2.276,0,0,1,2.289,2.289Z" fill="#3a3a3a"/>
  <path d="M349.324,365.956a2.234,2.234,0,0,1-.667,1.644,2.158,2.158,0,0,1-1.622.667,2.278,2.278,0,0,1-2.311-2.311,2.162,2.162,0,0,1,.667-1.623,2.234,2.234,0,0,1,1.644-.666,2.276,2.276,0,0,1,2.289,2.289Z" fill="#3a3a3a"/>
  <path d="M365.04,365.956a2.234,2.234,0,0,1-.667,1.644,2.16,2.16,0,0,1-1.622.667,2.278,2.278,0,0,1-2.311-2.311,2.162,2.162,0,0,1,.667-1.623,2.234,2.234,0,0,1,1.644-.666,2.276,2.276,0,0,1,2.289,2.289Z" fill="#3a3a3a"/>
  <path d="M380.756,365.956a2.234,2.234,0,0,1-.667,1.644,2.16,2.16,0,0,1-1.622.667,2.278,2.278,0,0,1-2.311-2.311,2.162,2.162,0,0,1,.667-1.623,2.234,2.234,0,0,1,1.644-.666,2.276,2.276,0,0,1,2.289,2.289Z" fill="#3a3a3a"/>
  <path d="M396.472,365.956a2.234,2.234,0,0,1-.667,1.644,2.16,2.16,0,0,1-1.622.667,2.278,2.278,0,0,1-2.311-2.311,2.162,2.162,0,0,1,.667-1.623,2.234,2.234,0,0,1,1.644-.666,2.276,2.276,0,0,1,2.289,2.289Z" fill="#3a3a3a"/>
  <path d="M412.188,365.956a2.234,2.234,0,0,1-.667,1.644,2.16,2.16,0,0,1-1.622.667,2.276,2.276,0,0,1-2.311-2.311,2.165,2.165,0,0,1,.666-1.623,2.237,2.237,0,0,1,1.645-.666,2.276,2.276,0,0,1,2.289,2.289Z" fill="#3a3a3a"/>
  <path d="M427.9,365.956a2.237,2.237,0,0,1-.666,1.644,2.162,2.162,0,0,1-1.623.667,2.278,2.278,0,0,1-2.311-2.311,2.162,2.162,0,0,1,.667-1.623,2.235,2.235,0,0,1,1.644-.666,2.274,2.274,0,0,1,2.289,2.289Z" fill="#3a3a3a"/>
  <path d="M443.62,365.956a2.238,2.238,0,0,1-.667,1.644,2.16,2.16,0,0,1-1.622.667,2.276,2.276,0,0,1-2.311-2.311,2.165,2.165,0,0,1,.666-1.623,2.239,2.239,0,0,1,1.645-.666,2.276,2.276,0,0,1,2.289,2.289Z" fill="#3a3a3a"/>
  <path d="M459.334,365.956a2.234,2.234,0,0,1-.667,1.644,2.158,2.158,0,0,1-1.622.667,2.278,2.278,0,0,1-2.311-2.311,2.162,2.162,0,0,1,.667-1.623,2.235,2.235,0,0,1,1.644-.666,2.276,2.276,0,0,1,2.289,2.289Z" fill="#3a3a3a"/>
  <path d="M475.048,365.956a2.237,2.237,0,0,1-.666,1.644,2.161,2.161,0,0,1-1.622.667,2.278,2.278,0,0,1-2.312-2.311,2.166,2.166,0,0,1,.667-1.623,2.239,2.239,0,0,1,1.645-.666,2.274,2.274,0,0,1,2.288,2.289Z" fill="#3a3a3a"/>
  <path d="M490.766,365.956a2.234,2.234,0,0,1-.667,1.644,2.158,2.158,0,0,1-1.622.667,2.278,2.278,0,0,1-2.311-2.311,2.162,2.162,0,0,1,.667-1.623,2.235,2.235,0,0,1,1.644-.666,2.276,2.276,0,0,1,2.289,2.289Z" fill="#3a3a3a"/>
  <path d="M506.48,365.956a2.237,2.237,0,0,1-.666,1.644,2.162,2.162,0,0,1-1.623.667,2.278,2.278,0,0,1-2.311-2.311,2.166,2.166,0,0,1,.667-1.623,2.237,2.237,0,0,1,1.644-.666,2.274,2.274,0,0,1,2.289,2.289Z" fill="#3a3a3a"/>
  <path d="M522.2,365.956a2.234,2.234,0,0,1-.667,1.644,2.158,2.158,0,0,1-1.622.667,2.278,2.278,0,0,1-2.311-2.311,2.162,2.162,0,0,1,.667-1.623,2.235,2.235,0,0,1,1.644-.666,2.276,2.276,0,0,1,2.289,2.289Z" fill="#3a3a3a"/>
  <path d="M537.912,365.956a2.237,2.237,0,0,1-.666,1.644,2.162,2.162,0,0,1-1.623.667,2.278,2.278,0,0,1-2.311-2.311,2.162,2.162,0,0,1,.667-1.623,2.237,2.237,0,0,1,1.644-.666,2.274,2.274,0,0,1,2.289,2.289Z" fill="#3a3a3a"/>
  <path d="M553.627,365.956a2.238,2.238,0,0,1-.667,1.644,2.161,2.161,0,0,1-1.622.667,2.276,2.276,0,0,1-2.311-2.311,2.165,2.165,0,0,1,.666-1.623,2.239,2.239,0,0,1,1.645-.666,2.276,2.276,0,0,1,2.289,2.289Z" fill="#3a3a3a"/>
  <path d="M569.344,365.956a2.234,2.234,0,0,1-.667,1.644,2.158,2.158,0,0,1-1.622.667,2.278,2.278,0,0,1-2.311-2.311,2.162,2.162,0,0,1,.667-1.623,2.235,2.235,0,0,1,1.644-.666,2.276,2.276,0,0,1,2.289,2.289Z" fill="#3a3a3a"/>
  <path d="M616.3,368.267a14.849,14.849,0,0,1-14.832-14.832,14.684,14.684,0,0,1,3.022-8.965l13.737-20.13a3.793,3.793,0,0,1,6.289,4.241l-6.883,10.082a14.832,14.832,0,0,1-1.333,29.6Zm0-22.077a7.275,7.275,0,0,0-5.838,2.978l-.321.47a7.118,7.118,0,0,0-1.089,3.8,7.247,7.247,0,1,0,7.248-7.245Z" fill="#3a3a3a"/>
  <path d="M683.566,358.108a10.137,10.137,0,0,1-17.41,7.057v10.368a1.432,1.432,0,1,1-2.863,0V358.108a10.137,10.137,0,1,1,20.273,0Zm-2.867,0a7.272,7.272,0,1,0-7.27,7.27A7.277,7.277,0,0,0,680.7,358.108Z" fill="#3a3a3a"/>
  <path d="M706.3,358.137A10.137,10.137,0,1,1,696.163,348,10.138,10.138,0,0,1,706.3,358.137Zm-2.863,0a7.273,7.273,0,1,0-7.273,7.273A7.283,7.283,0,0,0,703.436,358.137Z" fill="#3a3a3a"/>
  <path d="M728.138,366.832a1.432,1.432,0,0,1-2.864,0v-1.4a9.291,9.291,0,0,1-6.765,2.816c-5.6,0-9.2-4.54-9.2-10.134v-8.695a1.432,1.432,0,0,1,2.864,0v8.695c0,4.01,2.32,7.27,6.333,7.27s6.756-3.251,6.765-7.247V349.4a1.432,1.432,0,1,1,2.864,0Z" fill="#3a3a3a"/>
  <path d="M751.379,358.121v8.695a1.432,1.432,0,1,1-2.863,0v-8.695c0-4.01-2.318-7.27-6.334-7.27-4,0-6.752,3.247-6.765,7.247v8.734a1.432,1.432,0,1,1-2.863,0V349.4a1.432,1.432,0,1,1,2.863,0v1.4a9.3,9.3,0,0,1,6.765-2.813C747.782,347.987,751.379,352.524,751.379,358.121Z" fill="#3a3a3a"/>
  <path d="M774.674,358.137a10.146,10.146,0,1,1-2.866-7.058V340.708a1.433,1.433,0,0,1,2.866,0Zm-2.866,0a7.272,7.272,0,1,0-7.27,7.27A7.293,7.293,0,0,0,771.808,358.14Z" fill="#3a3a3a"/>
  <path d="M791.036,365.149c-.073.105-.152.21-.235.315a7.978,7.978,0,0,1-6.292,2.65,9.691,9.691,0,0,1-2.622-.352,6.969,6.969,0,0,1-4.152-3.289l-.045-.073a1.432,1.432,0,0,1,2.432-1.511l.067.108a4.186,4.186,0,0,0,2.482,2.009c1.93.55,4.655.193,5.9-1.336.044-.054.081-.109.12-.165a2.817,2.817,0,0,0,.267-2.524,3.163,3.163,0,0,0-2.105-2.019c-.435-.129-1.378-.308-2.13-.451-.67-.124-1.248-.234-1.609-.327a5.2,5.2,0,0,1-3.975-5.66,5.556,5.556,0,0,1,3.886-4.162c2.746-.908,6.677-.085,8.25,2.816a1.432,1.432,0,1,1-2.517,1.365c-.8-1.486-3.216-2-4.835-1.464a2.747,2.747,0,0,0-1.956,1.9,2.38,2.38,0,0,0,1.867,2.438c.267.07.851.177,1.419.285.9.172,1.835.346,2.41.515a5.99,5.99,0,0,1,4,3.822A5.667,5.667,0,0,1,791.036,365.149Z" fill="#3a3a3a"/>
  <path d="M145.021,495.988a2.235,2.235,0,0,1-.666,1.644,2.16,2.16,0,0,1-1.622.667,2.278,2.278,0,0,1-2.312-2.311,2.162,2.162,0,0,1,.667-1.622,2.233,2.233,0,0,1,1.645-.667,2.276,2.276,0,0,1,2.288,2.289Z" fill="#3a3a3a"/>
  <path d="M160.737,495.988a2.235,2.235,0,0,1-.666,1.644,2.16,2.16,0,0,1-1.622.667,2.278,2.278,0,0,1-2.312-2.311,2.162,2.162,0,0,1,.667-1.622,2.233,2.233,0,0,1,1.645-.667,2.276,2.276,0,0,1,2.288,2.289Z" fill="#3a3a3a"/>
  <path d="M176.453,495.988a2.235,2.235,0,0,1-.666,1.644,2.16,2.16,0,0,1-1.623.667,2.278,2.278,0,0,1-2.311-2.311,2.162,2.162,0,0,1,.667-1.622,2.231,2.231,0,0,1,1.644-.667,2.276,2.276,0,0,1,2.289,2.289Z" fill="#3a3a3a"/>
  <path d="M192.168,495.988a2.232,2.232,0,0,1-.667,1.644,2.16,2.16,0,0,1-1.622.667,2.276,2.276,0,0,1-2.311-2.311,2.161,2.161,0,0,1,.666-1.622,2.233,2.233,0,0,1,1.645-.667,2.277,2.277,0,0,1,2.289,2.289Z" fill="#3a3a3a"/>
  <path d="M207.884,495.988a2.236,2.236,0,0,1-.667,1.644,2.16,2.16,0,0,1-1.622.667,2.276,2.276,0,0,1-2.311-2.311,2.161,2.161,0,0,1,.666-1.622,2.233,2.233,0,0,1,1.645-.667,2.277,2.277,0,0,1,2.289,2.289Z" fill="#3a3a3a"/>
  <path d="M223.6,495.988a2.236,2.236,0,0,1-.667,1.644,2.16,2.16,0,0,1-1.622.667A2.276,2.276,0,0,1,219,495.988a2.161,2.161,0,0,1,.666-1.622,2.233,2.233,0,0,1,1.645-.667,2.277,2.277,0,0,1,2.289,2.289Z" fill="#3a3a3a"/>
  <path d="M239.316,495.988a2.236,2.236,0,0,1-.667,1.644,2.16,2.16,0,0,1-1.622.667,2.276,2.276,0,0,1-2.311-2.311,2.161,2.161,0,0,1,.666-1.622,2.233,2.233,0,0,1,1.645-.667,2.277,2.277,0,0,1,2.289,2.289Z" fill="#3a3a3a"/>
  <path d="M255.032,495.988a2.236,2.236,0,0,1-.667,1.644,2.16,2.16,0,0,1-1.622.667,2.276,2.276,0,0,1-2.311-2.311,2.161,2.161,0,0,1,.666-1.622,2.233,2.233,0,0,1,1.645-.667,2.277,2.277,0,0,1,2.289,2.289Z" fill="#3a3a3a"/>
  <path d="M270.746,495.988a2.232,2.232,0,0,1-.667,1.644,2.16,2.16,0,0,1-1.622.667,2.278,2.278,0,0,1-2.311-2.311,2.158,2.158,0,0,1,.667-1.622,2.231,2.231,0,0,1,1.644-.667,2.277,2.277,0,0,1,2.289,2.289Z" fill="#3a3a3a"/>
  <path d="M286.462,495.988a2.232,2.232,0,0,1-.667,1.644,2.16,2.16,0,0,1-1.622.667,2.276,2.276,0,0,1-2.311-2.311,2.161,2.161,0,0,1,.666-1.622,2.234,2.234,0,0,1,1.645-.667,2.277,2.277,0,0,1,2.289,2.289Z" fill="#3a3a3a"/>
  <path d="M302.178,495.988a2.232,2.232,0,0,1-.667,1.644,2.16,2.16,0,0,1-1.622.667,2.276,2.276,0,0,1-2.311-2.311,2.161,2.161,0,0,1,.666-1.622,2.234,2.234,0,0,1,1.645-.667,2.277,2.277,0,0,1,2.289,2.289Z" fill="#3a3a3a"/>
  <path d="M317.894,495.988a2.232,2.232,0,0,1-.667,1.644,2.16,2.16,0,0,1-1.622.667,2.276,2.276,0,0,1-2.311-2.311,2.161,2.161,0,0,1,.666-1.622,2.233,2.233,0,0,1,1.645-.667,2.277,2.277,0,0,1,2.289,2.289Z" fill="#3a3a3a"/>
  <path d="M333.61,495.988a2.236,2.236,0,0,1-.667,1.644,2.16,2.16,0,0,1-1.622.667,2.276,2.276,0,0,1-2.311-2.311,2.161,2.161,0,0,1,.666-1.622,2.233,2.233,0,0,1,1.645-.667,2.277,2.277,0,0,1,2.289,2.289Z" fill="#3a3a3a"/>
  <path d="M349.324,495.988a2.232,2.232,0,0,1-.667,1.644,2.158,2.158,0,0,1-1.622.667,2.278,2.278,0,0,1-2.311-2.311,2.158,2.158,0,0,1,.667-1.622,2.231,2.231,0,0,1,1.644-.667,2.277,2.277,0,0,1,2.289,2.289Z" fill="#3a3a3a"/>
  <path d="M365.04,495.988a2.232,2.232,0,0,1-.667,1.644,2.16,2.16,0,0,1-1.622.667,2.278,2.278,0,0,1-2.311-2.311,2.158,2.158,0,0,1,.667-1.622,2.231,2.231,0,0,1,1.644-.667,2.277,2.277,0,0,1,2.289,2.289Z" fill="#3a3a3a"/>
  <path d="M380.756,495.988a2.232,2.232,0,0,1-.667,1.644,2.16,2.16,0,0,1-1.622.667,2.278,2.278,0,0,1-2.311-2.311,2.158,2.158,0,0,1,.667-1.622,2.231,2.231,0,0,1,1.644-.667,2.277,2.277,0,0,1,2.289,2.289Z" fill="#3a3a3a"/>
  <path d="M396.472,495.988a2.232,2.232,0,0,1-.667,1.644,2.16,2.16,0,0,1-1.622.667,2.278,2.278,0,0,1-2.311-2.311,2.158,2.158,0,0,1,.667-1.622,2.231,2.231,0,0,1,1.644-.667,2.277,2.277,0,0,1,2.289,2.289Z" fill="#3a3a3a"/>
  <path d="M412.188,495.988a2.232,2.232,0,0,1-.667,1.644,2.16,2.16,0,0,1-1.622.667,2.276,2.276,0,0,1-2.311-2.311,2.161,2.161,0,0,1,.666-1.622,2.234,2.234,0,0,1,1.645-.667,2.277,2.277,0,0,1,2.289,2.289Z" fill="#3a3a3a"/>
  <path d="M427.9,495.988a2.235,2.235,0,0,1-.666,1.644,2.162,2.162,0,0,1-1.623.667,2.278,2.278,0,0,1-2.311-2.311,2.158,2.158,0,0,1,.667-1.622,2.232,2.232,0,0,1,1.644-.667,2.276,2.276,0,0,1,2.289,2.289Z" fill="#3a3a3a"/>
  <path d="M443.62,495.988a2.236,2.236,0,0,1-.667,1.644,2.16,2.16,0,0,1-1.622.667,2.276,2.276,0,0,1-2.311-2.311,2.161,2.161,0,0,1,.666-1.622,2.236,2.236,0,0,1,1.645-.667,2.277,2.277,0,0,1,2.289,2.289Z" fill="#3a3a3a"/>
  <path d="M459.334,495.988a2.232,2.232,0,0,1-.667,1.644,2.158,2.158,0,0,1-1.622.667,2.278,2.278,0,0,1-2.311-2.311,2.158,2.158,0,0,1,.667-1.622,2.232,2.232,0,0,1,1.644-.667,2.277,2.277,0,0,1,2.289,2.289Z" fill="#3a3a3a"/>
  <path d="M475.048,495.988a2.235,2.235,0,0,1-.666,1.644,2.161,2.161,0,0,1-1.622.667,2.278,2.278,0,0,1-2.312-2.311,2.162,2.162,0,0,1,.667-1.622,2.236,2.236,0,0,1,1.645-.667,2.276,2.276,0,0,1,2.288,2.289Z" fill="#3a3a3a"/>
  <path d="M490.766,495.988a2.232,2.232,0,0,1-.667,1.644,2.158,2.158,0,0,1-1.622.667,2.278,2.278,0,0,1-2.311-2.311,2.158,2.158,0,0,1,.667-1.622,2.232,2.232,0,0,1,1.644-.667,2.277,2.277,0,0,1,2.289,2.289Z" fill="#3a3a3a"/>
  <path d="M506.48,495.988a2.235,2.235,0,0,1-.666,1.644,2.162,2.162,0,0,1-1.623.667,2.278,2.278,0,0,1-2.311-2.311,2.162,2.162,0,0,1,.667-1.622,2.234,2.234,0,0,1,1.644-.667,2.276,2.276,0,0,1,2.289,2.289Z" fill="#3a3a3a"/>
  <path d="M522.2,495.988a2.232,2.232,0,0,1-.667,1.644,2.158,2.158,0,0,1-1.622.667,2.278,2.278,0,0,1-2.311-2.311,2.158,2.158,0,0,1,.667-1.622,2.232,2.232,0,0,1,1.644-.667,2.277,2.277,0,0,1,2.289,2.289Z" fill="#3a3a3a"/>
  <path d="M537.912,495.988a2.235,2.235,0,0,1-.666,1.644,2.162,2.162,0,0,1-1.623.667,2.278,2.278,0,0,1-2.311-2.311,2.158,2.158,0,0,1,.667-1.622,2.234,2.234,0,0,1,1.644-.667,2.276,2.276,0,0,1,2.289,2.289Z" fill="#3a3a3a"/>
  <path d="M553.627,495.988a2.236,2.236,0,0,1-.667,1.644,2.161,2.161,0,0,1-1.622.667,2.276,2.276,0,0,1-2.311-2.311,2.161,2.161,0,0,1,.666-1.622,2.236,2.236,0,0,1,1.645-.667,2.277,2.277,0,0,1,2.289,2.289Z" fill="#3a3a3a"/>
  <path d="M569.344,495.988a2.232,2.232,0,0,1-.667,1.644,2.158,2.158,0,0,1-1.622.667,2.278,2.278,0,0,1-2.311-2.311,2.158,2.158,0,0,1,.667-1.622,2.232,2.232,0,0,1,1.644-.667,2.277,2.277,0,0,1,2.289,2.289Z" fill="#3a3a3a"/>
  <path d="M609.481,498.3a3.794,3.794,0,0,1-3.149-5.908l6.882-10.086a14.832,14.832,0,1,1,13.146-5.8l-13.736,20.13A3.783,3.783,0,0,1,609.481,498.3Zm5.067-38.01a7.245,7.245,0,1,0,5.838,11.512l.32-.47a7.235,7.235,0,0,0-6.158-11.042Z" fill="#3a3a3a"/>
  <path d="M683.075,488.14a10.136,10.136,0,0,1-17.41,7.057v10.369a1.432,1.432,0,1,1-2.863,0V488.14a10.137,10.137,0,0,1,20.273,0Zm-2.867,0a7.272,7.272,0,1,0-7.27,7.27A7.278,7.278,0,0,0,680.208,488.14Z" fill="#3a3a3a"/>
  <path d="M705.808,488.169a10.137,10.137,0,1,1-10.136-10.137A10.137,10.137,0,0,1,705.808,488.169Zm-2.863,0a7.273,7.273,0,1,0-7.273,7.273A7.282,7.282,0,0,0,702.945,488.169Z" fill="#3a3a3a"/>
  <path d="M727.646,496.864a1.432,1.432,0,1,1-2.863,0v-1.4a9.293,9.293,0,0,1-6.765,2.816c-5.6,0-9.2-4.54-9.2-10.133v-8.7a1.432,1.432,0,0,1,2.863,0v8.7c0,4.009,2.321,7.27,6.334,7.27s6.755-3.251,6.765-7.248v-8.733a1.432,1.432,0,1,1,2.863,0Z" fill="#3a3a3a"/>
  <path d="M750.888,488.153v8.695a1.432,1.432,0,1,1-2.864,0v-8.695c0-4.01-2.317-7.27-6.333-7.27-4,0-6.752,3.248-6.765,7.248v8.733a1.432,1.432,0,0,1-2.864,0V479.436a1.432,1.432,0,0,1,2.864,0v1.4a9.3,9.3,0,0,1,6.765-2.812C747.291,478.02,750.888,482.556,750.888,488.153Z" fill="#3a3a3a"/>
  <path d="M774.183,488.169a10.148,10.148,0,1,1-2.866-7.057V470.74a1.433,1.433,0,0,1,2.866,0Zm-2.866,0a7.272,7.272,0,1,0-7.27,7.27A7.293,7.293,0,0,0,771.317,488.172Z" fill="#3a3a3a"/>
  <path d="M790.545,495.182c-.073.1-.152.21-.235.314a7.977,7.977,0,0,1-6.292,2.651,9.652,9.652,0,0,1-2.622-.353,6.966,6.966,0,0,1-4.152-3.289l-.045-.073a1.432,1.432,0,0,1,2.432-1.511l.066.108a4.186,4.186,0,0,0,2.483,2.01c1.93.549,4.654.192,5.9-1.337.045-.054.083-.107.124-.165a2.779,2.779,0,0,0,.264-2.524,3.165,3.165,0,0,0-2.105-2.019c-.435-.129-1.378-.308-2.13-.451-.67-.123-1.248-.234-1.61-.326a5.2,5.2,0,0,1-3.974-5.661,5.56,5.56,0,0,1,3.885-4.162c2.746-.908,6.678-.084,8.251,2.816a1.432,1.432,0,1,1-2.517,1.365c-.8-1.486-3.216-2-4.835-1.463a2.745,2.745,0,0,0-1.956,1.895,2.38,2.38,0,0,0,1.867,2.438c.267.07.851.178,1.419.286.9.171,1.835.345,2.41.514a5.99,5.99,0,0,1,4,3.822A5.672,5.672,0,0,1,790.545,495.182Z" fill="#3a3a3a"/>
  <path d="M177.879,626.02a2.236,2.236,0,0,1-.667,1.645,2.162,2.162,0,0,1-1.622.666,2.275,2.275,0,0,1-2.311-2.311,2.164,2.164,0,0,1,.666-1.622,2.238,2.238,0,0,1,1.645-.667,2.277,2.277,0,0,1,2.289,2.289Z" fill="#3a3a3a"/>
  <path d="M193.6,626.02a2.236,2.236,0,0,1-.667,1.645,2.162,2.162,0,0,1-1.622.666A2.275,2.275,0,0,1,189,626.02a2.164,2.164,0,0,1,.666-1.622,2.237,2.237,0,0,1,1.645-.667,2.277,2.277,0,0,1,2.289,2.289Z" fill="#3a3a3a"/>
  <path d="M209.311,626.02a2.24,2.24,0,0,1-.667,1.645,2.162,2.162,0,0,1-1.622.666,2.275,2.275,0,0,1-2.311-2.311,2.164,2.164,0,0,1,.666-1.622,2.237,2.237,0,0,1,1.645-.667,2.277,2.277,0,0,1,2.289,2.289Z" fill="#3a3a3a"/>
  <path d="M225.025,626.02a2.236,2.236,0,0,1-.667,1.645,2.161,2.161,0,0,1-1.622.666,2.276,2.276,0,0,1-2.311-2.311,2.161,2.161,0,0,1,.667-1.622,2.234,2.234,0,0,1,1.644-.667,2.277,2.277,0,0,1,2.289,2.289Z" fill="#3a3a3a"/>
  <path d="M240.741,626.02a2.236,2.236,0,0,1-.667,1.645,2.162,2.162,0,0,1-1.622.666,2.276,2.276,0,0,1-2.311-2.311,2.161,2.161,0,0,1,.667-1.622,2.234,2.234,0,0,1,1.644-.667,2.277,2.277,0,0,1,2.289,2.289Z" fill="#3a3a3a"/>
  <path d="M256.457,626.02a2.236,2.236,0,0,1-.667,1.645,2.162,2.162,0,0,1-1.622.666,2.276,2.276,0,0,1-2.311-2.311,2.161,2.161,0,0,1,.667-1.622,2.234,2.234,0,0,1,1.644-.667,2.277,2.277,0,0,1,2.289,2.289Z" fill="#3a3a3a"/>
  <path d="M272.173,626.02a2.236,2.236,0,0,1-.667,1.645,2.162,2.162,0,0,1-1.622.666,2.276,2.276,0,0,1-2.311-2.311,2.161,2.161,0,0,1,.667-1.622,2.234,2.234,0,0,1,1.644-.667,2.277,2.277,0,0,1,2.289,2.289Z" fill="#3a3a3a"/>
  <path d="M287.889,626.02a2.236,2.236,0,0,1-.667,1.645,2.162,2.162,0,0,1-1.622.666,2.275,2.275,0,0,1-2.311-2.311,2.164,2.164,0,0,1,.666-1.622,2.238,2.238,0,0,1,1.645-.667,2.277,2.277,0,0,1,2.289,2.289Z" fill="#3a3a3a"/>
  <path d="M303.6,626.02a2.239,2.239,0,0,1-.666,1.645,2.165,2.165,0,0,1-1.623.666A2.276,2.276,0,0,1,299,626.02a2.161,2.161,0,0,1,.667-1.622,2.234,2.234,0,0,1,1.644-.667,2.276,2.276,0,0,1,2.289,2.289Z" fill="#3a3a3a"/>
  <path d="M319.319,626.02a2.236,2.236,0,0,1-.667,1.645,2.161,2.161,0,0,1-1.622.666,2.276,2.276,0,0,1-2.311-2.311,2.161,2.161,0,0,1,.667-1.622,2.234,2.234,0,0,1,1.644-.667,2.277,2.277,0,0,1,2.289,2.289Z" fill="#3a3a3a"/>
  <path d="M335.035,626.02a2.236,2.236,0,0,1-.667,1.645,2.161,2.161,0,0,1-1.622.666,2.276,2.276,0,0,1-2.311-2.311,2.161,2.161,0,0,1,.667-1.622,2.234,2.234,0,0,1,1.644-.667,2.277,2.277,0,0,1,2.289,2.289Z" fill="#3a3a3a"/>
  <path d="M350.751,626.02a2.236,2.236,0,0,1-.667,1.645,2.161,2.161,0,0,1-1.622.666,2.276,2.276,0,0,1-2.311-2.311,2.161,2.161,0,0,1,.667-1.622,2.234,2.234,0,0,1,1.644-.667,2.277,2.277,0,0,1,2.289,2.289Z" fill="#3a3a3a"/>
  <path d="M366.467,626.02a2.236,2.236,0,0,1-.667,1.645,2.162,2.162,0,0,1-1.622.666,2.276,2.276,0,0,1-2.311-2.311,2.161,2.161,0,0,1,.667-1.622,2.234,2.234,0,0,1,1.644-.667,2.277,2.277,0,0,1,2.289,2.289Z" fill="#3a3a3a"/>
  <path d="M382.181,626.02a2.239,2.239,0,0,1-.666,1.645,2.163,2.163,0,0,1-1.623.666,2.276,2.276,0,0,1-2.311-2.311,2.165,2.165,0,0,1,.667-1.622,2.234,2.234,0,0,1,1.644-.667,2.276,2.276,0,0,1,2.289,2.289Z" fill="#3a3a3a"/>
  <path d="M397.9,626.02a2.239,2.239,0,0,1-.666,1.645,2.165,2.165,0,0,1-1.623.666,2.276,2.276,0,0,1-2.311-2.311,2.161,2.161,0,0,1,.667-1.622,2.234,2.234,0,0,1,1.644-.667,2.276,2.276,0,0,1,2.289,2.289Z" fill="#3a3a3a"/>
  <path d="M413.613,626.02a2.239,2.239,0,0,1-.666,1.645,2.165,2.165,0,0,1-1.623.666,2.276,2.276,0,0,1-2.311-2.311,2.161,2.161,0,0,1,.667-1.622,2.234,2.234,0,0,1,1.644-.667,2.276,2.276,0,0,1,2.289,2.289Z" fill="#3a3a3a"/>
  <path d="M429.328,626.02a2.24,2.24,0,0,1-.667,1.645,2.164,2.164,0,0,1-1.622.666,2.275,2.275,0,0,1-2.311-2.311,2.164,2.164,0,0,1,.666-1.622,2.24,2.24,0,0,1,1.645-.667,2.277,2.277,0,0,1,2.289,2.289Z" fill="#3a3a3a"/>
  <path d="M445.045,626.02a2.236,2.236,0,0,1-.667,1.645,2.161,2.161,0,0,1-1.622.666,2.276,2.276,0,0,1-2.311-2.311,2.161,2.161,0,0,1,.667-1.622,2.236,2.236,0,0,1,1.644-.667,2.277,2.277,0,0,1,2.289,2.289Z" fill="#3a3a3a"/>
  <path d="M460.759,626.02a2.239,2.239,0,0,1-.666,1.645,2.164,2.164,0,0,1-1.622.666,2.277,2.277,0,0,1-2.312-2.311,2.165,2.165,0,0,1,.667-1.622,2.24,2.24,0,0,1,1.645-.667,2.276,2.276,0,0,1,2.288,2.289Z" fill="#3a3a3a"/>
  <path d="M476.477,626.02a2.236,2.236,0,0,1-.667,1.645,2.161,2.161,0,0,1-1.622.666,2.276,2.276,0,0,1-2.311-2.311,2.161,2.161,0,0,1,.667-1.622,2.236,2.236,0,0,1,1.644-.667,2.277,2.277,0,0,1,2.289,2.289Z" fill="#3a3a3a"/>
  <path d="M492.191,626.02a2.239,2.239,0,0,1-.666,1.645,2.165,2.165,0,0,1-1.623.666,2.276,2.276,0,0,1-2.311-2.311,2.165,2.165,0,0,1,.667-1.622,2.238,2.238,0,0,1,1.644-.667,2.276,2.276,0,0,1,2.289,2.289Z" fill="#3a3a3a"/>
  <path d="M507.906,626.02a2.236,2.236,0,0,1-.667,1.645,2.162,2.162,0,0,1-1.622.666,2.275,2.275,0,0,1-2.311-2.311,2.164,2.164,0,0,1,.666-1.622,2.24,2.24,0,0,1,1.645-.667,2.277,2.277,0,0,1,2.289,2.289Z" fill="#3a3a3a"/>
  <path d="M523.623,626.02a2.239,2.239,0,0,1-.666,1.645,2.165,2.165,0,0,1-1.623.666,2.276,2.276,0,0,1-2.311-2.311,2.161,2.161,0,0,1,.667-1.622,2.238,2.238,0,0,1,1.644-.667,2.276,2.276,0,0,1,2.289,2.289Z" fill="#3a3a3a"/>
  <path d="M539.338,626.02a2.24,2.24,0,0,1-.667,1.645,2.162,2.162,0,0,1-1.622.666,2.275,2.275,0,0,1-2.311-2.311,2.164,2.164,0,0,1,.666-1.622,2.24,2.24,0,0,1,1.645-.667,2.277,2.277,0,0,1,2.289,2.289Z" fill="#3a3a3a"/>
  <path d="M555.055,626.02a2.236,2.236,0,0,1-.667,1.645,2.161,2.161,0,0,1-1.622.666,2.276,2.276,0,0,1-2.311-2.311,2.161,2.161,0,0,1,.667-1.622,2.236,2.236,0,0,1,1.644-.667,2.277,2.277,0,0,1,2.289,2.289Z" fill="#3a3a3a"/>
  <path d="M570.77,626.02a2.24,2.24,0,0,1-.667,1.645,2.164,2.164,0,0,1-1.622.666,2.275,2.275,0,0,1-2.311-2.311,2.164,2.164,0,0,1,.666-1.622,2.24,2.24,0,0,1,1.645-.667,2.277,2.277,0,0,1,2.289,2.289Z" fill="#3a3a3a"/>
  <path d="M619.713,628.331a3.8,3.8,0,0,1-3.794-3.793v-6.781H600.747c-.095,0-.187-.01-.279-.019a3.5,3.5,0,0,1-.438-.051,3.041,3.041,0,0,1-.368-.1l-.061-.019a2.264,2.264,0,0,1-.3-.105,3,3,0,0,1-.442-.226,1.155,1.155,0,0,1-.187-.1l-.063-.045a3.812,3.812,0,0,1-.537-.441l-.079-.08-.083-.1-.06.028-.248-.419c-.06-.092-.106-.179-.155-.269a4.1,4.1,0,0,1-.2-.385l-.165-.336.044-.025a3.257,3.257,0,0,1-.114-.486,3.406,3.406,0,0,1-.054-.524l0-.06a2.143,2.143,0,0,1,.019-.308,3.448,3.448,0,0,1,.051-.445,2.622,2.622,0,0,1,.092-.339l.025-.086a2.749,2.749,0,0,1,.1-.289,4.276,4.276,0,0,1,.223-.438,2.16,2.16,0,0,1,.133-.229l18.8-27.441a3.76,3.76,0,0,1,3.149-1.673,1.425,1.425,0,0,1,.172-.01,3.8,3.8,0,0,1,3.793,3.794v23.641h2.607a3.794,3.794,0,0,1,0,7.588h-2.607v6.781A3.8,3.8,0,0,1,619.713,628.331Zm-3.794-18.162V598.528l-7.975,11.641Z" fill="#3a3a3a"/>
  <path d="M682.307,618.173a10.137,10.137,0,0,1-17.41,7.057V635.6a1.432,1.432,0,1,1-2.864,0V618.173a10.137,10.137,0,1,1,20.274,0Zm-2.867,0a7.272,7.272,0,1,0-7.27,7.27A7.277,7.277,0,0,0,679.44,618.173Z" fill="#3a3a3a"/>
  <path d="M705.04,618.2A10.137,10.137,0,1,1,694.9,608.065,10.139,10.139,0,0,1,705.04,618.2Zm-2.864,0a7.273,7.273,0,1,0-7.273,7.273A7.282,7.282,0,0,0,702.176,618.2Z" fill="#3a3a3a"/>
  <path d="M726.878,626.9a1.432,1.432,0,0,1-2.863,0v-1.4a9.294,9.294,0,0,1-6.765,2.815c-5.6,0-9.2-4.539-9.2-10.133v-8.695a1.432,1.432,0,1,1,2.863,0v8.695c0,4.01,2.321,7.27,6.334,7.27s6.755-3.251,6.765-7.248v-8.733a1.432,1.432,0,1,1,2.863,0Z" fill="#3a3a3a"/>
  <path d="M750.12,618.185v8.7a1.432,1.432,0,0,1-2.864,0v-8.7c0-4.009-2.317-7.269-6.333-7.269-4,0-6.753,3.247-6.765,7.247V626.9a1.432,1.432,0,0,1-2.864,0V609.468a1.432,1.432,0,0,1,2.864,0v1.4a9.3,9.3,0,0,1,6.765-2.813C746.523,608.052,750.12,612.589,750.12,618.185Z" fill="#3a3a3a"/>
  <path d="M773.415,618.2a10.148,10.148,0,1,1-2.867-7.057V600.773a1.434,1.434,0,0,1,2.867,0Zm-2.867,0a7.272,7.272,0,1,0-7.27,7.27A7.292,7.292,0,0,0,770.548,618.2Z" fill="#3a3a3a"/>
  <path d="M789.777,625.214c-.073.1-.152.21-.235.314a7.977,7.977,0,0,1-6.292,2.651,9.686,9.686,0,0,1-2.622-.352,6.976,6.976,0,0,1-4.153-3.289l-.044-.073a1.432,1.432,0,1,1,2.432-1.511l.066.108a4.185,4.185,0,0,0,2.483,2.009c1.93.549,4.654.193,5.9-1.336.044-.055.082-.109.121-.165a2.818,2.818,0,0,0,.267-2.524,3.163,3.163,0,0,0-2.105-2.019c-.435-.129-1.378-.308-2.13-.451-.67-.124-1.248-.234-1.61-.327a5.2,5.2,0,0,1-3.975-5.66,5.56,5.56,0,0,1,3.886-4.162c2.746-.908,6.678-.085,8.251,2.815a1.432,1.432,0,1,1-2.517,1.366c-.8-1.487-3.216-2-4.835-1.464a2.745,2.745,0,0,0-1.956,1.895,2.378,2.378,0,0,0,1.867,2.438c.266.07.85.178,1.419.286.9.172,1.835.345,2.409.514a5.991,5.991,0,0,1,4,3.823A5.669,5.669,0,0,1,789.777,625.214Z" fill="#3a3a3a"/>
  <g>
    <path d="M336.481,85.45a2.089,2.089,0,0,1-1.47-.626,2.014,2.014,0,0,1-.241-.292s-.077-.124-.1-.162a1.935,1.935,0,0,1-.107-.225.986.986,0,0,1-.046-.134c-.011-.031-.027-.1-.027-.1a1.987,1.987,0,0,1-.074-.533V57.764a2.05,2.05,0,0,1,.011-.207l.014-.117a2.323,2.323,0,0,1,.071-.3c.015-.044.05-.139.062-.171l.019-.057.024-.035c.019-.035.068-.127.089-.162l.045-.076c.034-.048.069-.095.106-.14s.069-.086.106-.127a1.843,1.843,0,0,1,.207-.193c.058-.045.111-.083.165-.118l.085-.057c.034-.019.094-.051.127-.067l.308.524-.265-.546a2.055,2.055,0,0,1,.889-.2l5.676,0a14.868,14.868,0,1,1,0,29.736Zm5.07-4.118.606-.006a10.746,10.746,0,0,0,0-21.492l-.606-.005h-3.008v21.5Z" fill="#3a3a3a"/>
    <path d="M381.448,74.691v8.676a2.068,2.068,0,0,1-4.135,0v-.3a10.8,10.8,0,0,1-6.771,2.358,10.911,10.911,0,1,1,10.911-10.923Zm-4.121-.175a6.787,6.787,0,1,0-6.785,6.787A6.793,6.793,0,0,0,377.327,74.516Z" fill="#3a3a3a"/>
    <path d="M384.878,59.088a2.077,2.077,0,0,1,.911-1.347.9.9,0,0,1,.032-.774.856.856,0,0,1,.727-.413c.04,0,.078,0,.114,0a1.624,1.624,0,0,1,.492.073,1.028,1.028,0,0,1,.891-.578.919.919,0,0,1,.754.416,1.443,1.443,0,0,1,.209,1.025A2.1,2.1,0,0,1,390.48,59a2.481,2.481,0,0,1-.8,2.419,2.731,2.731,0,0,1-1.883,1.006,2.925,2.925,0,0,1-1.752-.816A2.638,2.638,0,0,1,384.878,59.088Zm4.88,6.58v17.7a2.062,2.062,0,1,1-4.124,0v-17.7a2.062,2.062,0,0,1,4.124,0Z" fill="#3a3a3a"/>
    <path d="M410.45,66.408a2.08,2.08,0,0,1-2.08,2.076,2.039,2.039,0,0,1-.857-.184,7.657,7.657,0,0,0-2.724-.533,6.878,6.878,0,0,0-5.073,2.384,7.44,7.44,0,0,0-1.646,5.016v8.21a2.063,2.063,0,1,1-4.125,0V65.659a2.063,2.063,0,1,1,4.125,0v.26a12.139,12.139,0,0,1,6.9-2.225,11.293,11.293,0,0,1,4.092.755c.055.022.092.035.13.051l.047.022a2.048,2.048,0,0,1,.851.724.893.893,0,0,1,.049.083,2.019,2.019,0,0,1,.24.555l.022.077A2.282,2.282,0,0,1,410.45,66.408Z" fill="#3a3a3a"/>
    <path d="M430.063,66.335,419.232,92.973a2.054,2.054,0,0,1-1.912,1.286h0a2.058,2.058,0,0,1-1.91-2.835l3.286-8.082-6.805-16.9a2.062,2.062,0,0,1,3.824-1.546l5.214,12.952,5.31-13.06a2.062,2.062,0,0,1,3.824,1.546Z" fill="#3a3a3a"/>
  </g>
  <g>
    <path d="M320.291,218.533a2.063,2.063,0,0,1-2.062-2.061v-16.5a10.91,10.91,0,1,1,10.909,10.883,10.819,10.819,0,0,1-6.786-2.365v7.977A2.062,2.062,0,0,1,320.291,218.533Zm2.061-18.581a6.766,6.766,0,1,0,0-.045Z" fill="#3a3a3a"/>
    <path d="M359.9,199.739a2.078,2.078,0,0,1-2.078,2.076,2.035,2.035,0,0,1-.857-.184,7.639,7.639,0,0,0-2.724-.533,6.876,6.876,0,0,0-5.073,2.384,7.44,7.44,0,0,0-1.646,5.016v8.209a2.063,2.063,0,1,1-4.126,0V198.99a2.063,2.063,0,1,1,4.126,0v.26a12.14,12.14,0,0,1,6.9-2.225,11.283,11.283,0,0,1,4.09.755c.056.022.092.035.13.051l.048.022a2.047,2.047,0,0,1,.851.724s.031.048.049.083a2.019,2.019,0,0,1,.24.555l.022.076A2.3,2.3,0,0,1,359.9,199.739Z" fill="#3a3a3a"/>
    <path d="M382.692,207.85a10.91,10.91,0,1,1-10.911-10.911A10.923,10.923,0,0,1,382.692,207.85Zm-4.123,0a6.787,6.787,0,1,0-6.788,6.784A6.795,6.795,0,0,0,378.569,207.85Z" fill="#3a3a3a"/>
    <path d="M397.4,216.676a2.066,2.066,0,0,1-2.029,2.063c-.062.006-.2.016-.4.016a7.934,7.934,0,0,1-5.807-2.718c-2.25-2.463-2.12-6.536-2.06-8.5V201h-.729a2.064,2.064,0,0,1,0-4.127h.732v-6.695a2.063,2.063,0,1,1,4.126,0v6.711h3.176a2.062,2.062,0,1,1,0,4.124h-3.176v5.7a14.181,14.181,0,0,1,.022,1.613,7.314,7.314,0,0,0,.916,4.584,4,4,0,0,0,3.138,1.711A2.068,2.068,0,0,1,397.4,216.676Z" fill="#3a3a3a"/>
    <path d="M420.559,207.831a2.1,2.1,0,0,1-.612,1.489,2.071,2.071,0,0,1-1.465.606H403.191a6.8,6.8,0,0,0,6.01,4.675h3.074a2.064,2.064,0,0,1,2.062,2.062,2.039,2.039,0,0,1-.259,1,2.061,2.061,0,0,1-1.8,1.06s-2.417.016-2.624.016-.414-.006-.622-.019a10.712,10.712,0,0,1-1.736-.241,10.911,10.911,0,1,1,13.266-10.651Zm-4.444-2.06a6.786,6.786,0,0,0-12.932,0Z" fill="#3a3a3a"/>
    <path d="M423.167,192.418a2.077,2.077,0,0,1,.911-1.346.9.9,0,0,1,.032-.774.856.856,0,0,1,.727-.413c.04,0,.078,0,.114,0a1.594,1.594,0,0,1,.492.073,1.026,1.026,0,0,1,.891-.578.917.917,0,0,1,.754.416,1.437,1.437,0,0,1,.209,1.025,2.108,2.108,0,0,1,1.472,1.515,2.482,2.482,0,0,1-.8,2.419,2.735,2.735,0,0,1-1.883,1.006,2.925,2.925,0,0,1-1.752-.816A2.64,2.64,0,0,1,423.167,192.418Zm4.88,6.581v17.7a2.062,2.062,0,1,1-4.124,0V199a2.062,2.062,0,0,1,4.124,0Z" fill="#3a3a3a"/>
    <path d="M452.631,207.834v8.838a2.063,2.063,0,1,1-4.126,0v-8.838c0-3.378-1.8-6.787-5.83-6.787-3.565,0-6.26,2.908-6.271,6.765v8.876a2.062,2.062,0,1,1-4.124,0V198.971a2.062,2.062,0,1,1,4.124,0v.066a10.149,10.149,0,0,1,6.271-2.114C448.444,196.923,452.631,201.514,452.631,207.834Z" fill="#3a3a3a"/>
  </g>
  <g>
    <path d="M341.856,352.933a2.063,2.063,0,0,1-2.062-2.063V325.254a2.063,2.063,0,0,1,2.062-2.06h15.922a2.062,2.062,0,1,1,0,4.123H343.919V336h8.607a2.064,2.064,0,0,1,0,4.127h-8.607v10.746A2.063,2.063,0,0,1,341.856,352.933Z" fill="#3a3a3a"/>
    <path d="M375.413,333.892a2.079,2.079,0,0,1-2.079,2.076,2.032,2.032,0,0,1-.857-.184,7.639,7.639,0,0,0-2.724-.533,6.876,6.876,0,0,0-5.073,2.384,7.435,7.435,0,0,0-1.646,5.016v8.209a2.063,2.063,0,1,1-4.126,0V333.143a2.063,2.063,0,1,1,4.126,0v.26a12.138,12.138,0,0,1,6.9-2.225,11.29,11.29,0,0,1,4.092.755c.056.022.092.035.13.051l.048.022a2.038,2.038,0,0,1,.85.724s.032.048.05.083a2.047,2.047,0,0,1,.239.555l.023.076A2.379,2.379,0,0,1,375.413,333.892Z" fill="#3a3a3a"/>
    <path d="M398.191,333.124v17.717a2.062,2.062,0,1,1-4.124,0v-.063a10.16,10.16,0,0,1-6.271,2.111c-5.769,0-9.956-4.587-9.956-10.911V333.14a2.063,2.063,0,1,1,4.125,0v8.838c0,3.378,1.8,6.787,5.831,6.787,3.565,0,6.262-2.908,6.271-6.765v-8.876a2.062,2.062,0,1,1,4.124,0Z" fill="#3a3a3a"/>
    <path d="M401.543,326.571a2.077,2.077,0,0,1,.911-1.346.9.9,0,0,1,.032-.774.856.856,0,0,1,.727-.413c.04,0,.078,0,.114,0a1.605,1.605,0,0,1,.493.073,1.024,1.024,0,0,1,.89-.578.917.917,0,0,1,.754.416,1.442,1.442,0,0,1,.21,1.025,2.105,2.105,0,0,1,1.471,1.515,2.482,2.482,0,0,1-.795,2.419,2.735,2.735,0,0,1-1.883,1.006,2.925,2.925,0,0,1-1.752-.816A2.642,2.642,0,0,1,401.543,326.571Zm4.88,6.581v17.7a2.062,2.062,0,1,1-4.124,0v-17.7a2.062,2.062,0,0,1,4.124,0Z" fill="#3a3a3a"/>
    <path d="M422.647,350.829a2.066,2.066,0,0,1-2.029,2.063c-.062.006-.2.016-.4.016a7.934,7.934,0,0,1-5.807-2.718c-2.251-2.463-2.12-6.536-2.06-8.5v-6.546h-.729a2.064,2.064,0,0,1,0-4.127h.732v-6.695a2.063,2.063,0,1,1,4.125,0v6.711h3.177a2.062,2.062,0,1,1,0,4.124h-3.177v5.7a14.17,14.17,0,0,1,.023,1.613,7.314,7.314,0,0,0,.916,4.584,4,4,0,0,0,3.138,1.711A2.068,2.068,0,0,1,422.647,350.829Z" fill="#3a3a3a"/>
  </g>
  <g>
    <path d="M315.586,477.7l-7.88-25.651a2.062,2.062,0,0,1,3.789-1.629l6,19.518,6-19.47a2.111,2.111,0,0,1,1.9-1.264,2.063,2.063,0,0,1,1.9,2.861L319.4,477.67a2.074,2.074,0,0,1-.712.858l-.039.028a.715.715,0,0,1-.1.06,1.746,1.746,0,0,1-.239.134,2.006,2.006,0,0,1-.833.178A2.06,2.06,0,0,1,315.586,477.7Z" fill="#3a3a3a"/>
    <path d="M349.346,467.978a2.1,2.1,0,0,1-.612,1.489,2.072,2.072,0,0,1-1.466.607h-15.29a6.8,6.8,0,0,0,6.009,4.674h3.075a2.065,2.065,0,0,1,2.062,2.062,2.039,2.039,0,0,1-.259,1,2.062,2.062,0,0,1-1.8,1.061s-2.417.015-2.624.015-.414-.006-.622-.019a10.5,10.5,0,0,1-1.736-.241,10.911,10.911,0,1,1,13.266-10.651Zm-4.444-2.06a6.786,6.786,0,0,0-12.932,0Z" fill="#3a3a3a"/>
    <path d="M373.606,468.331V477.5c0,5.645-4.895,10.238-10.91,10.238a10.964,10.964,0,0,1-9.958-6.054l-.02-.035a2.168,2.168,0,0,1-.24-.558l-.021-.077a2.2,2.2,0,0,1-.044-.444,2.081,2.081,0,0,1,2.078-2.079,2.117,2.117,0,0,1,1.862,1.158l.046.1a6.875,6.875,0,0,0,6.3,3.784c3.741,0,6.785-2.7,6.785-6.029v-.962a10.91,10.91,0,1,1,4.125-8.546Zm-4.125-.337a6.787,6.787,0,1,0-13.2,2.226,6.709,6.709,0,0,0,1.426,2.374,6.77,6.77,0,0,0,9.973,0,6.721,6.721,0,0,0,1.425-2.374A6.832,6.832,0,0,0,369.481,467.994Z" fill="#3a3a3a"/>
    <path d="M398.727,468.331V477.5c0,5.645-4.895,10.238-10.911,10.238a10.964,10.964,0,0,1-9.957-6.054l-.021-.035a2.132,2.132,0,0,1-.239-.558l-.021-.077a2.2,2.2,0,0,1-.044-.444,2.08,2.08,0,0,1,2.077-2.079,2.116,2.116,0,0,1,1.862,1.158c.017.033.032.064.046.1a6.877,6.877,0,0,0,6.3,3.784c3.742,0,6.786-2.7,6.786-6.029v-.962a10.91,10.91,0,1,1,4.125-8.546Zm-4.125-.337a6.788,6.788,0,1,0-13.2,2.226,6.721,6.721,0,0,0,1.425,2.374,6.77,6.77,0,0,0,9.973,0,6.724,6.724,0,0,0,1.426-2.374A6.859,6.859,0,0,0,394.6,467.994Z" fill="#3a3a3a"/>
    <path d="M402.2,452.566a2.072,2.072,0,0,1,.911-1.346.9.9,0,0,1,.032-.775.856.856,0,0,1,.727-.413c.04,0,.078,0,.114,0a1.636,1.636,0,0,1,.493.073,1.026,1.026,0,0,1,.89-.578.919.919,0,0,1,.754.416,1.439,1.439,0,0,1,.209,1.026,2.1,2.1,0,0,1,1.472,1.514A2.481,2.481,0,0,1,407,454.9a2.731,2.731,0,0,1-1.883,1.006,2.925,2.925,0,0,1-1.752-.816A2.638,2.638,0,0,1,402.2,452.566Zm4.88,6.581v17.7a2.062,2.062,0,1,1-4.124,0v-17.7a2.062,2.062,0,0,1,4.124,0Z" fill="#3a3a3a"/>
    <path d="M432.585,467.978a2.1,2.1,0,0,1-.613,1.489,2.07,2.07,0,0,1-1.465.607H415.216a6.8,6.8,0,0,0,6.01,4.674H424.3a2.065,2.065,0,0,1,2.061,2.062,2.038,2.038,0,0,1-.258,1,2.063,2.063,0,0,1-1.8,1.061s-2.418.015-2.624.015-.415-.006-.622-.019a10.493,10.493,0,0,1-1.737-.241,10.911,10.911,0,1,1,13.267-10.651Zm-4.445-2.06a6.786,6.786,0,0,0-12.932,0Z" fill="#3a3a3a"/>
    <path d="M441.667,478.928a10.278,10.278,0,0,1-2.777-.375,7.48,7.48,0,0,1-4.458-3.524l-.044-.073A1.86,1.86,0,0,1,437.55,473l.068.112a3.89,3.89,0,0,0,2.292,1.866,6.492,6.492,0,0,0,1.759.232,4.906,4.906,0,0,0,3.809-1.457c.04-.048.076-.1.11-.143a2.425,2.425,0,0,0,.219-2.2,2.814,2.814,0,0,0-1.871-1.8c-.428-.127-1.372-.305-2.131-.448-.688-.13-1.281-.241-1.66-.339a5.7,5.7,0,0,1-4.338-6.21,6.047,6.047,0,0,1,4.222-4.552,7.918,7.918,0,0,1,2.445-.375,7.21,7.21,0,0,1,6.425,3.432,1.86,1.86,0,0,1-.751,2.52,1.853,1.853,0,0,1-2.52-.752,3.643,3.643,0,0,0-3.167-1.479,4.09,4.09,0,0,0-1.265.187,2.419,2.419,0,0,0-1.716,1.606c-.175,1.089.955,1.855,1.6,2.023.257.066.844.177,1.411.282.93.178,1.889.357,2.5.537a6.5,6.5,0,0,1,4.334,4.139,6.137,6.137,0,0,1-.688,5.565c-.078.112-.163.226-.254.337A8.478,8.478,0,0,1,441.667,478.928Z" fill="#3a3a3a"/>
  </g>
  <g>
    <path d="M336.283,610.071c-.154,0-.313,0-.469-.009a14.867,14.867,0,0,1-10.276-25.137,14.671,14.671,0,0,1,10.273-4.587c.157,0,.316-.01.472-.01a14.822,14.822,0,0,1,10.278,4.124l.447.428-.059.061a2.059,2.059,0,0,1-1.749,3.143,2.058,2.058,0,0,1-1.086-.308l-.13-.089a2.113,2.113,0,0,1-.238-.207l-.062-.066a10.78,10.78,0,0,0-7.4-2.959c-.143,0-.281,0-.419.01a10.744,10.744,0,0,0-.011,21.47c.147.006.287.012.43.012a10.737,10.737,0,0,0,6.855-2.479v-4.749h-5.651a2.062,2.062,0,0,1,0-4.124h7.585a.834.834,0,0,1,.128-.01,2.063,2.063,0,0,1,2.062,2.061v7.714a2.07,2.07,0,0,1-.474,1.308,1.843,1.843,0,0,1-.216.27l-.065.06A14.867,14.867,0,0,1,336.283,610.071Z" fill="#3a3a3a"/>
    <path d="M367.957,591.03a2.079,2.079,0,0,1-2.079,2.076,2.039,2.039,0,0,1-.857-.184,7.641,7.641,0,0,0-2.724-.534,6.877,6.877,0,0,0-5.073,2.385,7.436,7.436,0,0,0-1.646,5.015V608a2.063,2.063,0,1,1-4.125,0V590.28a2.063,2.063,0,1,1,4.125,0v.261a12.138,12.138,0,0,1,6.9-2.226,11.287,11.287,0,0,1,4.092.756c.056.022.092.035.13.051l.048.022a2.047,2.047,0,0,1,.851.724.822.822,0,0,1,.049.082,2.038,2.038,0,0,1,.24.556l.022.076A2.3,2.3,0,0,1,367.957,591.03Z" fill="#3a3a3a"/>
    <path d="M390.746,599.312v8.677a2.067,2.067,0,0,1-4.134,0v-.3a10.805,10.805,0,0,1-6.772,2.359,10.911,10.911,0,1,1,10.911-10.924Zm-4.12-.174a6.787,6.787,0,1,0-6.786,6.787A6.794,6.794,0,0,0,386.626,599.138Z" fill="#3a3a3a"/>
    <path d="M394.178,583.709a2.075,2.075,0,0,1,.911-1.346.9.9,0,0,1,.032-.775.858.858,0,0,1,.727-.412c.04,0,.078,0,.114,0a1.594,1.594,0,0,1,.492.073,1.026,1.026,0,0,1,.891-.578.917.917,0,0,1,.754.416,1.437,1.437,0,0,1,.209,1.025,2.108,2.108,0,0,1,1.472,1.514,2.481,2.481,0,0,1-.795,2.419,2.733,2.733,0,0,1-1.883,1.007,2.925,2.925,0,0,1-1.752-.816A2.64,2.64,0,0,1,394.178,583.709Zm4.88,6.581v17.7a2.062,2.062,0,1,1-4.124,0v-17.7a2.062,2.062,0,0,1,4.124,0Z" fill="#3a3a3a"/>
    <path d="M423.642,599.125v8.838a2.063,2.063,0,1,1-4.126,0v-8.838c0-3.378-1.8-6.787-5.83-6.787-3.565,0-6.26,2.908-6.271,6.765v8.876a2.062,2.062,0,1,1-4.124,0V590.261a2.062,2.062,0,1,1,4.124,0v.067a10.149,10.149,0,0,1,6.271-2.114C419.455,588.214,423.642,592.8,423.642,599.125Z" fill="#3a3a3a"/>
    <path d="M434.012,610.071a10.246,10.246,0,0,1-2.778-.375,7.477,7.477,0,0,1-4.457-3.523l-.045-.073a1.861,1.861,0,0,1,.6-2.556,1.854,1.854,0,0,1,2.562.6l.07.111a3.881,3.881,0,0,0,2.291,1.867,6.519,6.519,0,0,0,1.758.231,4.908,4.908,0,0,0,3.81-1.457c.039-.048.075-.1.109-.143a2.418,2.418,0,0,0,.219-2.2,2.812,2.812,0,0,0-1.871-1.8c-.427-.126-1.371-.3-2.13-.447-.689-.13-1.281-.241-1.66-.34a5.7,5.7,0,0,1-4.339-6.209,6.048,6.048,0,0,1,4.223-4.553,7.941,7.941,0,0,1,2.444-.374,7.211,7.211,0,0,1,6.426,3.431,1.861,1.861,0,0,1-.751,2.521,1.859,1.859,0,0,1-2.523-.752,3.64,3.64,0,0,0-3.165-1.48,4.12,4.12,0,0,0-1.265.187,2.42,2.42,0,0,0-1.716,1.607c-.174,1.089.956,1.854,1.6,2.022.258.067.845.178,1.412.283.93.177,1.888.356,2.5.536a6.5,6.5,0,0,1,4.333,4.14,6.137,6.137,0,0,1-.687,5.565c-.079.111-.164.225-.254.336A8.479,8.479,0,0,1,434.012,610.071Z" fill="#3a3a3a"/>
  </g>
  <g>
    <g>
      <path d="M116.5,91v60.707a11.233,11.233,0,0,1-11.221,11.221H55.849a11.233,11.233,0,0,1-11.221-11.221V91.934c0-.168,0-.337.008-.5L44.628,91c0-9.121,1.523-19.933,4.529-32.141.024-.1.056-.216.08-.32.008-.024.008-.048.016-.072a246.264,246.264,0,0,1,9.971-30.963l.408-.986H101.5l.408.986C102.5,28.951,116.5,63.079,116.5,91Zm-1.6,60.707V91.934c0-.313-.008-.617-.024-.93h.024c0-10.219-1.94-21.376-4.392-31.419-.065-.265-.137-.529-.193-.794a243.208,243.208,0,0,0-9.891-30.666H60.706a240.633,240.633,0,0,0-9.177,27.917c-.28,1.05-.553,2.124-.817,3.206-.041.152-.073.3-.113.465C48.163,69.724,46.231,80.833,46.231,91h.024c-.016.313-.024.617-.024.93v59.777a9.646,9.646,0,0,0,9.618,9.618h49.43A9.646,9.646,0,0,0,114.9,151.711Z" fill="#343434"/>
      <path d="M114.9,91.934v59.777a9.646,9.646,0,0,1-9.618,9.618H55.849a9.646,9.646,0,0,1-9.618-9.618V91.934c0-.313.008-.617.024-.93h-.024c0-10.171,1.932-21.28,4.368-31.291.04-.16.072-.313.113-.465.264-1.082.537-2.156.817-3.206a240.633,240.633,0,0,1,9.177-27.917h39.715a243.208,243.208,0,0,1,9.891,30.666c.056.265.128.529.193.794C112.957,69.628,114.9,80.785,114.9,91h-.024C114.889,91.317,114.9,91.621,114.9,91.934Zm-1.6,59.777V91.934c0-.289-.008-.561-.024-.85l-.088-1.683h.1a135.245,135.245,0,0,0-3.872-27.412c-.256-1.114-.521-2.212-.793-3.3a250.469,250.469,0,0,0-9.274-28.959H61.788a248.214,248.214,0,0,0-8.119,24.487c-.473,1.763-.946,3.566-1.4,5.418-.032.128-.064.256-.088.377A137.97,137.97,0,0,0,47.85,89.4h.072l-.064,1.683c-.016.289-.024.561-.024.85v59.777a8.029,8.029,0,0,0,8.015,8.015h49.43A8.029,8.029,0,0,0,113.294,151.711Z" fill="#343434"/>
      <path d="M113.294,91.934v59.777a8.029,8.029,0,0,1-8.015,8.015H55.849a8.029,8.029,0,0,1-8.015-8.015V91.934c0-.289.008-.561.024-.85l.064-1.683H47.85A137.97,137.97,0,0,1,52.178,60.01c.024-.121.056-.249.088-.377.457-1.852.93-3.655,1.4-5.418a12.129,12.129,0,0,1,9.474-2.437,17.852,17.852,0,0,1,6.693,2.749,19.332,19.332,0,0,0,5.971,2.653c2.893.666,4.881-.481,7.4-1.931,2.629-1.515,5.6-3.231,10-2.87,4.168.345,7.045,2.124,9.578,3.687a15.859,15.859,0,0,0,5.835,2.621c.272,1.09.537,2.188.793,3.3A135.245,135.245,0,0,1,113.278,89.4h-.1l.088,1.683C113.286,91.373,113.294,91.645,113.294,91.934Z" fill="#dfdfdf"/>
    </g>
    <g>
      <path d="M106.008,14.868v8.36a4.914,4.914,0,0,1-4.905,4.9H60.025a4.919,4.919,0,0,1-4.905-4.9v-8.36a4.919,4.919,0,0,1,4.905-4.9H101.1A4.914,4.914,0,0,1,106.008,14.868Z" fill="#429cb4"/>
      <path d="M101.1,30.129H60.025a6.913,6.913,0,0,1-6.909-6.9v-8.36a6.913,6.913,0,0,1,6.909-6.9H101.1a6.913,6.913,0,0,1,6.909,6.9v8.36A6.913,6.913,0,0,1,101.1,30.129ZM60.025,11.974a2.9,2.9,0,0,0-2.9,2.894v8.36a2.9,2.9,0,0,0,2.9,2.894H101.1a2.9,2.9,0,0,0,2.9-2.894v-8.36a2.9,2.9,0,0,0-2.9-2.894Z" fill="#343434"/>
    </g>
    <path d="M110.617,62c-.2.008-.4.008-.593.008-.209,0-.417-.008-.618-.016-3.4-.168-5.891-1.7-8.311-3.2-2.445-1.507-4.753-2.933-8.16-3.214s-5.69,1.05-8.127,2.453c-2.757,1.587-5.6,3.222-9.722,2.268a22.326,22.326,0,0,1-6.893-3.014,14.634,14.634,0,0,0-5.555-2.34c-3.743-.593-6.628.793-10.46,5.066-.184.192-.36.392-.537.6l-1.042-.9-1.362-1.17-.024-.024c.016-.016.024-.032.04-.048.729-.842,1.483-1.667,2.276-2.429a21.9,21.9,0,0,1,2.14-1.827,12.129,12.129,0,0,1,9.474-2.437,17.852,17.852,0,0,1,6.693,2.749,19.332,19.332,0,0,0,5.971,2.653c2.893.665,4.881-.481,7.4-1.931,2.629-1.515,5.6-3.23,10-2.87,4.168.345,7.045,2.124,9.578,3.687a15.859,15.859,0,0,0,5.835,2.621,8.364,8.364,0,0,0,1.7.1.964.964,0,0,0,.152,0l.041.794Z" fill="#343434"/>
    <g>
      <path d="M167.313,113.112,65.687,125.406l30.371-14.893a9.882,9.882,0,0,0,7.171,3.166c5.764,0,10.433-5.17,10.433-11.542a2.4,2.4,0,0,0-.009-.254L136.685,90.6Z" fill="#eee418"/>
      <path d="M65.686,127.009a1.6,1.6,0,0,1-.705-3.042l30.371-14.894a1.6,1.6,0,0,1,1.865.333,8.289,8.289,0,0,0,6.011,2.669c4.869,0,8.831-4.458,8.831-9.938v-.093a1.679,1.679,0,0,1,.889-1.6L135.98,89.156a1.608,1.608,0,0,1,1.655.148l30.627,22.516a1.6,1.6,0,0,1-.757,2.883L65.879,127A1.575,1.575,0,0,1,65.686,127.009Zm30.076-14.566L74.891,122.678,163.1,112.007,136.519,92.463l-21.274,10.426c-.357,6.9-5.611,12.392-12.017,12.392A11.347,11.347,0,0,1,95.762,112.443Z" fill="#343434"/>
    </g>
    <g>
      <path d="M160.85,126.539c0,3.939,2.9,7.134,6.463,7.134v14.991L65.687,160.958V152.28a8.654,8.654,0,0,0,0-16.682V125.406l101.626-12.294V119.4C163.75,119.4,160.85,122.591,160.85,126.539Z" fill="#d2c918"/>
      <path d="M65.687,162.561a1.6,1.6,0,0,1-1.6-1.6V152.28a1.6,1.6,0,0,1,1.3-1.575,7.06,7.06,0,0,0,0-13.532,1.6,1.6,0,0,1-1.3-1.575V125.406a1.6,1.6,0,0,1,1.41-1.591l101.626-12.3a1.6,1.6,0,0,1,1.8,1.592V119.4a1.6,1.6,0,0,1-1.6,1.6c-2.68,0-4.86,2.485-4.86,5.54s2.18,5.531,4.86,5.531a1.6,1.6,0,0,1,1.6,1.6v14.991a1.6,1.6,0,0,1-1.411,1.591L65.879,162.549A1.547,1.547,0,0,1,65.687,162.561Zm1.6-9.06v5.648l98.42-11.906V135.1a8.911,8.911,0,0,1,0-17.137v-3.045L67.29,126.827v7.55a10.376,10.376,0,0,1,0,19.124Z" fill="#343434"/>
    </g>
    <g>
      <ellipse cx="89.963" cy="141.148" rx="5.775" ry="6.383" fill="#a49c24"/>
      <ellipse cx="89.963" cy="141.148" rx="5.775" ry="6.383" fill="none"/>
    </g>
    <g>
      <ellipse cx="129.901" cy="126.254" rx="4.717" ry="5.213" fill="#a49c24"/>
      <ellipse cx="129.901" cy="126.254" rx="4.717" ry="5.213" fill="none"/>
    </g>
    <g>
      <ellipse cx="137.436" cy="101.18" rx="4.717" ry="3.605" fill="#a49c24"/>
      <ellipse cx="137.436" cy="101.18" rx="4.717" ry="3.605" fill="none"/>
    </g>
    <g>
      <ellipse cx="118.927" cy="112.004" rx="3.827" ry="3.121" fill="#a49c24"/>
      <ellipse cx="118.927" cy="112.004" rx="3.827" ry="3.121" fill="none"/>
    </g>
    <g>
      <ellipse cx="149.768" cy="139.115" rx="7.615" ry="8.416" fill="#a49c24"/>
      <ellipse cx="149.768" cy="139.115" rx="7.615" ry="8.416" fill="none"/>
    </g>
  </g>
  <g>
    <path d="M142.436,223.63v8.818c-.071.172-.131.355-.2.537a17.087,17.087,0,0,0-.639,1.936A21.168,21.168,0,0,1,134.7,246.04c-12.072,10.267-24.559,16.2-38.171,18.132a71.767,71.767,0,0,0-19.359,5.311,24.213,24.213,0,0,1-9.933,2.474,14.7,14.7,0,0,1-3.446-.4,14.2,14.2,0,0,0-3.345-.425c-4.865,0-7.936,3.061-10.075,5.726a.464.464,0,0,1-.141.142,4.677,4.677,0,0,0-1.46,5.443,10.172,10.172,0,0,1-.324,7.054c-1.247,3.386-3.74,5.555-8.312,7.217H36.144c-4.642-1.581-7.551-4.338-8.9-8.423a3.932,3.932,0,0,0-2.412-2.493c-3.477-1.277-5.778-3.852-7.44-8.352V273.5c.061-.182.132-.355.2-.527.172-.446.344-.892.507-1.338A10.784,10.784,0,0,1,28.117,264.2a10.376,10.376,0,0,1,2.28.263,10.969,10.969,0,0,0,2.392.294,7.415,7.415,0,0,0,6.061-3.142,16.959,16.959,0,0,1,1.764-1.763,5.357,5.357,0,0,0,1.692-5.757,27.689,27.689,0,0,1,2.727-20.87,34.333,34.333,0,0,0,4-12.618,69.957,69.957,0,0,1,5.98-22.1c4.682-10,9.507-16.724,15.639-21.761,2.463-2.027,5.362-3.051,8.443-4.136.851-.294,1.733-.608,2.595-.932h8.99c.142.051.294.1.446.152.507.172,1.023.345,1.581.476,19.227,4.551,33.752,16.187,44.414,35.566,2.058,3.75,3.163,7.774,4.328,12.031.243.892.487,1.784.74,2.676A2.84,2.84,0,0,0,142.436,223.63Zm-9.852,17.849c3.426-3.619,5.159-8.768,4.866-14.525a33.663,33.663,0,0,0-1.612-8.97C130.5,201.646,119.276,189.1,102.492,180.7a35.892,35.892,0,0,0-16.156-4.044c-.578,0-1.166.021-1.744.051-9.345.507-15.862,6.558-16.612,15.426a35.461,35.461,0,0,0,2.656,16.846,64.434,64.434,0,0,0,22.156,27.569c6.517,4.692,14.869,9.527,27.417,9.781.324.02.638.03.953.03A15.612,15.612,0,0,0,132.584,241.479Zm-21.2,13.45c1.419-.456,2.067-1.3,1.926-2.473a2.4,2.4,0,0,0-2.22-2.007,1.9,1.9,0,0,1-.254-.051c-.729-.223-1.479-.415-2.2-.608a27.812,27.812,0,0,1-3.862-1.206C82.748,239.208,69.257,224.1,63.53,202.416c-.01-.071-.02-.162-.03-.253-.182-1.987-1.318-2.423-2.24-2.443h-.051c-1.53,0-2.057,1.439-2.25,1.987-.03.081-.06.172-.091.243a49.832,49.832,0,0,0-4.085,13.784c-1.064,8.575-3.963,16.288-6.649,22.714-2.979,7.095-2.533,14.139,1.247,19.825a19.148,19.148,0,0,0,15.741,8.494c.365,0,.74-.01,1.105-.04.314.02.628.02.942.02a17.814,17.814,0,0,0,7.318-1.48,84.716,84.716,0,0,1,22.907-6.223,54.408,54.408,0,0,0,13.774-4.034C111.229,254.979,111.31,254.959,111.381,254.929Zm-62.375,16.1a4.044,4.044,0,0,0,1.571-2.99,3.479,3.479,0,0,0-1.459-2.524,8.221,8.221,0,0,1-.649-.588A4.454,4.454,0,0,0,45.4,263.26a3.919,3.919,0,0,0-2.808,1.409c-1.52,1.591-3.121,3.162-4.672,4.673l-.426.415c-1.3,1.277-1.987,1.743-2.554,1.743a6.253,6.253,0,0,1-2.635-1.094,7.49,7.49,0,0,0-3.751-1.125,6.062,6.062,0,0,0-3.5,1.155,5.65,5.65,0,0,0-2.382,6.153c.578,2.615,2.372,4.256,5.351,4.885,1.663.355,2.859.608,3.183.963.334.385.507,1.621.77,3.507a6.2,6.2,0,0,0,6.1,5.686h.071A5.813,5.813,0,0,0,43.3,288.8a6.791,6.791,0,0,0-.162-6.791c-1.652-2.99-1.592-3.487.77-5.9l.2-.213C45.7,274.288,47.344,272.615,49.006,271.024Z" fill="#343434"/>
    <path d="M137.45,226.954c.293,5.757-1.44,10.906-4.866,14.525a15.612,15.612,0,0,1-11.422,4.875c-.315,0-.629-.01-.953-.03-12.548-.254-20.9-5.089-27.417-9.781a64.434,64.434,0,0,1-22.156-27.569,35.461,35.461,0,0,1-2.656-16.846c.75-8.868,7.267-14.919,16.612-15.426.578-.03,1.166-.051,1.744-.051a35.892,35.892,0,0,1,16.156,4.044c16.784,8.4,28.005,20.951,33.346,37.289A33.663,33.663,0,0,1,137.45,226.954Zm-22.917-7.287a7.637,7.637,0,0,0,1.895-5.3c-.02-7.277-8.027-15.984-15.3-16.633-.4-.03-.78-.05-1.155-.05a7.984,7.984,0,0,0-5.514,1.855,6.327,6.327,0,0,0-1.966,4.824,10.571,10.571,0,0,0,.486,3.061c2.24,7.48,7.237,12.183,14.849,13.987a8.984,8.984,0,0,0,1.977.233A6.284,6.284,0,0,0,114.533,219.667Z" fill="#c77b80"/>
    <path d="M116.428,214.366a7.637,7.637,0,0,1-1.895,5.3,6.284,6.284,0,0,1-4.733,1.976,8.984,8.984,0,0,1-1.977-.233c-7.612-1.8-12.609-6.507-14.849-13.987a10.571,10.571,0,0,1-.486-3.061,6.327,6.327,0,0,1,1.966-4.824,7.984,7.984,0,0,1,5.514-1.855c.375,0,.76.02,1.155.05C108.4,198.382,116.408,207.089,116.428,214.366Zm-5.564,1.176a2.68,2.68,0,0,0,.659-1.8,4.652,4.652,0,0,0-.335-1.571,15.388,15.388,0,0,0-6.76-8.028,9.15,9.15,0,0,0-3.761-1.51l-.131-.02-.132.01a2.61,2.61,0,0,0-2.777,2.635,4.52,4.52,0,0,0,.324,1.551,15.51,15.51,0,0,0,9.386,9.385,4.238,4.238,0,0,0,1.449.3A2.7,2.7,0,0,0,110.864,215.542Z" fill="#343434"/>
    <path d="M113.307,252.456c.141,1.175-.507,2.017-1.926,2.473-.071.03-.152.05-.213.081a54.408,54.408,0,0,1-13.774,4.034,84.716,84.716,0,0,0-22.907,6.223,17.814,17.814,0,0,1-7.318,1.48c-.314,0-.628,0-.942-.02-.365.03-.74.04-1.105.04a19.148,19.148,0,0,1-15.741-8.494c-3.78-5.686-4.226-12.73-1.247-19.825,2.686-6.426,5.585-14.139,6.649-22.714a49.832,49.832,0,0,1,4.085-13.784c.031-.071.061-.162.091-.243.193-.548.72-1.987,2.25-1.987h.051c.922.02,2.058.456,2.24,2.443.01.091.02.182.03.253,5.727,21.68,19.218,36.792,41.242,46.168a27.812,27.812,0,0,0,3.862,1.206c.72.193,1.47.385,2.2.608a1.9,1.9,0,0,0,.254.051A2.4,2.4,0,0,1,113.307,252.456Z" fill="#925c14"/>
    <path d="M111.523,213.738a2.731,2.731,0,0,1-2.737,2.756,4.238,4.238,0,0,1-1.449-.3,15.51,15.51,0,0,1-9.386-9.385,4.52,4.52,0,0,1-.324-1.551,2.61,2.61,0,0,1,2.777-2.635l.132-.01.131.02a9.15,9.15,0,0,1,3.761,1.51,15.388,15.388,0,0,1,6.76,8.028A4.652,4.652,0,0,1,111.523,213.738Z" fill="#fff0a6"/>
    <path d="M50.577,268.034a4.044,4.044,0,0,1-1.571,2.99c-1.662,1.591-3.3,3.264-4.9,4.875l-.2.213c-2.362,2.412-2.422,2.909-.77,5.9A6.791,6.791,0,0,1,43.3,288.8a5.813,5.813,0,0,1-5.149,2.828H38.08a6.2,6.2,0,0,1-6.1-5.686c-.263-1.886-.436-3.122-.77-3.507-.324-.355-1.52-.608-3.183-.963-2.979-.629-4.773-2.27-5.351-4.885a5.65,5.65,0,0,1,2.382-6.153,6.062,6.062,0,0,1,3.5-1.155,7.49,7.49,0,0,1,3.751,1.125,6.253,6.253,0,0,0,2.635,1.094c.567,0,1.257-.466,2.554-1.743l.426-.415c1.551-1.511,3.152-3.082,4.672-4.673A3.919,3.919,0,0,1,45.4,263.26a4.454,4.454,0,0,1,3.071,1.662,8.221,8.221,0,0,0,.649.588A3.479,3.479,0,0,1,50.577,268.034Z" fill="#fff0a6"/>
  </g>
  <g>
    <path d="M88.176,327.32a.518.518,0,0,1-.146.142c-.326.206-.885.044-1.305.007a40.682,40.682,0,0,1-7.613-1.53,20.4,20.4,0,0,1-10.952-6.974,23.5,23.5,0,0,1-3.59-6.222,22.16,22.16,0,0,1-1.185-11.565,21.129,21.129,0,0,1,4.405-10.169,3.372,3.372,0,0,1,1-.828,3.281,3.281,0,0,1,2.875.288,21.978,21.978,0,0,1,6.184,4.361,29.812,29.812,0,0,1,6.058,9.991c.348.907.66,1.83.948,2.762a91.339,91.339,0,0,1,2.765,13.572c.2,1.384.408,2.768.5,4.165C88.15,325.731,88.4,326.982,88.176,327.32Z" fill="#009c53"/>
    <path d="M83.906,304.821a1.892,1.892,0,0,1-1.368-.508c-2.064-1.543-3.637-3.66-5.641-5.284s-4.749-2.746-7.151-1.807a8.886,8.886,0,0,0-3.624,3.242,49.134,49.134,0,0,0-3.03,4.6,21.976,21.976,0,0,1,.293-3.887,21.129,21.129,0,0,1,4.405-10.169,3.372,3.372,0,0,1,1-.828,3.281,3.281,0,0,1,2.875.288,21.978,21.978,0,0,1,6.184,4.361A29.812,29.812,0,0,1,83.906,304.821Z" fill="#46bc5d"/>
    <path d="M87.586,328.828a4.964,4.964,0,0,1-.73-.068c-.085-.013-.168-.026-.245-.033a41.633,41.633,0,0,1-7.853-1.575,21.6,21.6,0,0,1-11.586-7.4,24.735,24.735,0,0,1-3.781-6.557,23.417,23.417,0,0,1-1.253-12.225,22.2,22.2,0,0,1,4.7-10.8,4.553,4.553,0,0,1,1.39-1.128,4.438,4.438,0,0,1,4.013.3,23.541,23.541,0,0,1,6.524,4.616,32.888,32.888,0,0,1,7.3,13.25,92.743,92.743,0,0,1,2.807,13.759l.017.122c.2,1.345.4,2.736.5,4.141.005.077.022.194.04.331a3.529,3.529,0,0,1-.2,2.46l-.006.009a1.787,1.787,0,0,1-.486.479l-.028.018A2.046,2.046,0,0,1,87.586,328.828Zm.59-1.508Zm-18.37-36.1a1.046,1.046,0,0,0-.462.094,2.292,2.292,0,0,0-.606.528,19.624,19.624,0,0,0-4.105,9.538,20.887,20.887,0,0,0,1.117,10.905,22.2,22.2,0,0,0,3.4,5.888c2.58,3.23,5.667,5.189,10.32,6.55a39.2,39.2,0,0,0,7.375,1.484l.117.012c-.015-.125-.031-.242-.041-.322-.028-.2-.049-.376-.057-.493-.089-1.309-.285-2.651-.475-3.949l-.018-.12a90.481,90.481,0,0,0-2.722-13.383A30.418,30.418,0,0,0,76.928,295.7a20.314,20.314,0,0,0-5.839-4.1A2.932,2.932,0,0,0,69.806,291.223Z" fill="#303030"/>
    <path d="M111.473,305.567a22.482,22.482,0,0,1-.752,5.027,23.2,23.2,0,0,1-3.062,6.807,35.445,35.445,0,0,1-9.442,9.265c-1.864,1.305-3.8,2.5-5.767,3.637q-1.468.854-2.954,1.678c-.468.262-2.667,1.1-2.816,1.57,0,0-6.7,21.137-7.046,6.342-.1-4.2-.133-8.418.1-12.617a41.192,41.192,0,0,1,.92-6.788,22.884,22.884,0,0,1,6.474-12.1,25.1,25.1,0,0,1,11.736-5.969,24.732,24.732,0,0,1,6.62-.493c1.713.107,4.683-.054,5.669,1.693A3.67,3.67,0,0,1,111.473,305.567Z" fill="#009c53"/>
    <path d="M111.473,305.567a22.482,22.482,0,0,1-.752,5.027,11.458,11.458,0,0,0-2.762-1.3,18.175,18.175,0,0,0-6.063-.338c-4.586.5-8.886,2.417-13.019,4.465-3.366,1.671-6.962,3.75-8.21,7.3l-.009-.231a22.884,22.884,0,0,1,6.474-12.1,25.1,25.1,0,0,1,11.736-5.969,24.732,24.732,0,0,1,6.62-.493c1.713.107,4.683-.054,5.669,1.693A3.67,3.67,0,0,1,111.473,305.567Z" fill="#46bc5d"/>
    <path d="M81,346.417a2.191,2.191,0,0,1-.291-.021c-1.818-.259-2.248-2.775-2.336-6.473-.09-3.758-.148-8.208.106-12.719a42.642,42.642,0,0,1,.949-7c1.228-5.427,3.534-9.719,6.854-12.755a26.244,26.244,0,0,1,12.329-6.273,25.977,25.977,0,0,1,6.958-.518c.227.014.475.023.738.033,1.894.071,4.756.178,5.954,2.3a4.8,4.8,0,0,1,.478,2.619,23.745,23.745,0,0,1-.794,5.307,24.407,24.407,0,0,1-3.228,7.176,36.423,36.423,0,0,1-9.772,9.6c-1.684,1.179-3.545,2.353-5.857,3.695-.958.557-1.959,1.125-2.975,1.69-.17.095-.42.207-.766.362a16.419,16.419,0,0,0-1.548.761c-.262.809-1.078,3.26-2.081,5.724C83.587,345.158,82.256,346.417,81,346.417Zm23-43.275a23.991,23.991,0,0,0-16.013,6.176C85.053,312,83,315.852,81.89,320.767a40.033,40.033,0,0,0-.89,6.58c-.249,4.421-.192,8.808-.1,12.516a19.181,19.181,0,0,0,.321,3.519c1.137-1.624,2.982-6.188,4.257-10.212.255-.8,1.059-1.233,2.835-2.029.219-.1.492-.22.568-.262,1-.56,1.993-1.12,2.938-1.669,2.249-1.305,4.053-2.443,5.677-3.58a33.952,33.952,0,0,0,9.112-8.927,21.848,21.848,0,0,0,2.895-6.435,21.218,21.218,0,0,0,.71-4.745v0a2.68,2.68,0,0,0-.156-1.284c-.5-.888-2.513-.964-3.845-1.014-.285-.01-.555-.021-.8-.036Q104.706,303.142,104,303.142Z" fill="#303030"/>
    <g>
      <g>
        <path d="M132.019,357.219a37.916,37.916,0,0,1-1.15,8.93,38.7,38.7,0,0,1-10.1,17.9A131.223,131.223,0,0,1,109.227,394.3C92.975,407.1,78.98,411.959,78.98,411.959c-.433-.155-4.162-1.59-4.4-1.684C63.455,405.8,52.631,399.86,44.015,391.5c-.087-.084-.588-.556-.752-.717-.237-.227-1.308-1.3-1.561-1.555-.338-.347-.673-.695-1-1.049,0,0-.584-.632-.7-.771a49.087,49.087,0,0,1-11.133-19.547,37.525,37.525,0,0,1-1.362-9.723c0-.389,0-.784.013-1.179,0-.06,0-.12.006-.18.016-.48.039-.961.073-1.444.023-.291.083-.967.088-1.014.024-.218.045-.433.07-.651.013-.13.028-.256.047-.383s.034-.268.054-.4.034-.253.054-.379c.035-.227.066-.452.107-.68.06-.376.127-.755.2-1.131.051-.256.1-.509.158-.762a.365.365,0,0,1,.013-.05c.047-.228.1-.458.155-.686.028-.126.06-.256.095-.382.022-.1.047-.209.076-.313l.132-.5c.171-.636.372-1.264.569-1.9q.081-.26.171-.515c.022-.07.044-.143.072-.212.067-.2.136-.395.212-.594s.155-.424.237-.632c.063-.168.13-.335.2-.5l0,0,.019-.057q.478-1.185,1.037-2.335c.142-.294.287-.588.436-.875.123-.237.4-.759.417-.787.142-.259.287-.518.439-.777a.609.609,0,0,1,.047-.086c.133-.227.44-.736.455-.761.152-.25.31-.5.471-.746s.335-.512.509-.765c.133-.192.553-.783.632-.888.117-.161.234-.319.354-.477.076-.1.524-.676.676-.866s.332-.4.5-.6c.18-.215.363-.423.546-.629.105-.114.553-.6.676-.73.092-.1.184-.192.279-.287.069-.073.385-.392.474-.477.224-.225.451-.44.682-.651.2-.19.4-.373.613-.553.228-.2.462-.4.7-.6.158-.13.8-.641.96-.764s.822-.61.989-.727.335-.234.506-.351c.006,0,.012-.009.022-.015.161-.108.831-.544,1-.655.348-.214.7-.426,1.049-.632.177-.1.358-.2.535-.3.357-.2.717-.392,1.08-.572s.73-.363,1.1-.534c.186-.085.37-.17.556-.253l.55-.237.013,0c.347-.145.7-.287,1.052-.42.452-.174.9-.335,1.362-.487.316-.107.635-.208.954-.306a.829.829,0,0,0,.085-.025c.3-.094.6-.174.907-.256.168-.045.332-.089.5-.13.205-.054.407-.1.609-.148.13-.029.727-.162.9-.2a.333.333,0,0,1,.06-.016c.3-.055.591-.117.888-.168.2-.038.414-.072.619-.1.168-.028.339-.051.506-.076.133-.02.265-.041.4-.057q.307-.042.617-.075c.177-.019.356-.038.533-.054.152-.016.3-.032.452-.041.224-.019.452-.038.676-.051.253-.016.509-.028.762-.038s.483-.019.723-.022a43.388,43.388,0,0,1,4.756.174c.186.016,1.523.155,1.719.177.338.041,1.886.246,2.225.3.632.1,1.26.2,1.889.3.98.171,6.251,1.163,6.507,1.214a.515.515,0,0,0,.072.012c.281.054.945.184,1.037.2a.061.061,0,0,0,.025,0c.057.012.114.022.167.031s.307.06.364.069l.288-.116c1.457-.572,8.083-3.1,12.437-3.356a39.893,39.893,0,0,1,13.78,1.691,38.721,38.721,0,0,1,10.95,5.236,34.905,34.905,0,0,1,14.213,23.813A36.294,36.294,0,0,1,132.019,357.219Z" fill="#eb937c"/>
        <path d="M68.566,333.869c-16.756-2.653-31.669,6.889-39.4,21.08-.26.477-1.658,2.3-1.606,2.765a13.326,13.326,0,0,1,.037-2.378c.692-9.649,5.155-19.424,12.672-25.634A34.066,34.066,0,0,1,58.084,322.2c7.369-.836,14.7.941,21.907,2.274l.288-.116a39.418,39.418,0,0,1,14.607,15.879c3.832,7.4,5.781,14.946,3.632,23C98.518,363.23,93.336,337.791,68.566,333.869Z" fill="#efa694"/>
        <path d="M72.912,329.874c5.059-4.18,11.078-7.618,17.586-8.355a43.2,43.2,0,0,1,22.136,3.122c8.861,4.022,12.374,10.592,15.513,15.012,4.825,6.8,5.109,20.575,2.96,28.627,0,0-1.8-31.808-31.632-35.4a40.5,40.5,0,0,0-10.232-.132Z" fill="#efa694"/>
      </g>
      <path d="M109.227,394.3C92.975,407.1,78.98,411.959,78.98,411.959c-.433-.155-4.162-1.59-4.4-1.684C63.455,405.8,52.631,399.86,44.015,391.5c-.087-.084-.588-.556-.752-.717-.237-.227-1.308-1.3-1.561-1.555-.338-.347-.673-.695-1-1.049-.113-.123-.584-.632-.7-.771a49.087,49.087,0,0,1-11.133-19.547c4.737,6.942,9.625,14,16.413,18.953,8.342,6.086,18.422,12.444,28.7,13.357C85.606,401.206,97.367,398.592,109.227,394.3Z" fill="#de896e"/>
    </g>
    <path d="M97.809,364.067c.7-10.331-2.074-22.521-8.369-30.122a37.185,37.185,0,0,0-9.86-8.376s-7.873-1.464-8.089-1.512a42.1,42.1,0,0,0-10.139-.913,38.318,38.318,0,0,0-6.062.665l-.073.017a31.616,31.616,0,0,0-14.4,6.737A32.41,32.41,0,0,0,31.407,344l0,.01-.024.061a42.238,42.238,0,0,0-2.7,12.762c-.014.291-.022.551-.028.777-.218,9.9,4,19.937,12.207,29.022l.019.022c.1.123.215.243.327.361l.032.035c.074.084.152.166.23.25,0,0,.733.778,1.064,1.118.249.257,1.3,1.3,1.536,1.528.16.154.7.672.753.718,7.771,7.276,18.215,13.688,30.192,18.533,0,0,3.935,1.517,4.361,1.671a1.157,1.157,0,0,1-.789,2.176c-.436-.158-4.432-1.7-4.432-1.7-12.42-5.024-22.823-11.418-30.927-19,0,0-1.527-1.473-1.557-1.5-.279-.276-.539-.539-.8-.806-.342-.351-1.616-1.714-1.741-1.859-8.6-9.529-13.022-20.115-12.791-30.615.006-.245.015-.524.03-.834a44.633,44.633,0,0,1,2.855-13.494s.021-.054.029-.074a34.691,34.691,0,0,1,10.083-14.371,33.89,33.89,0,0,1,15.4-7.225c.038-.009.076-.018.115-.025a40.7,40.7,0,0,1,6.429-.706,44.5,44.5,0,0,1,10.709.966c.206.046,8.216,1.535,8.216,1.535a1.153,1.153,0,0,1,.367.136,39.526,39.526,0,0,1,10.651,9c6.675,8.059,9.63,20.828,8.9,31.754ZM55.236,323.818l-.013,0Zm0,0Z" fill="#303030"/>
    <path d="M78.978,413.117a1.159,1.159,0,0,1-.394-.069c-.436-.158-4.432-1.7-4.432-1.7-12.44-5.007-22.844-11.4-30.927-19l-.264-.249q-.26-.239-.514-.493c-.219-.208-1.318-1.3-1.576-1.568-.342-.351-.684-.708-1.018-1.068-.111-.12-.221-.238-.331-.359-.138-.145-.273-.293-.4-.444-8.287-9.215-12.71-19.6-12.772-30.018,0-.485,0-.959.021-1.408.015-.508.04-1.011.074-1.485a39.922,39.922,0,0,1,2.786-12.031c.009-.026.019-.051.029-.075a36.032,36.032,0,0,1,10.274-14.337,35.061,35.061,0,0,1,15.2-7.245c.038-.01.076-.018.114-.025,1.046-.211,2.093-.377,3.112-.493,1.059-.122,2.152-.193,3.339-.215a56.407,56.407,0,0,1,10.642.956c1.617.274,7.938,1.483,7.938,1.483,1.912-.752,8.35-3.165,12.775-3.427a41.664,41.664,0,0,1,25.459,7.13,36.062,36.062,0,0,1,14.7,24.6,37.655,37.655,0,0,1,.373,5.654,39.893,39.893,0,0,1-11.586,27.64c-20.486,20.486-42.017,28.11-42.232,28.185A1.153,1.153,0,0,1,78.978,413.117Zm-47.6-69.03a36.89,36.89,0,0,0-2.624,11.331c-.032.442-.055.912-.07,1.4-.016.424-.022.863-.02,1.314.075,12.433,6.674,22.363,12.2,28.506.123.144.234.265.346.383.008.007.235.256.345.374.321.346.65.689.981,1.029.249.257,1.3,1.3,1.531,1.523.17.169.319.314.472.453l.024.022c.039.038.214.2.262.248,7.862,7.4,18.025,13.636,30.192,18.533,0,0,3.671,1.419,3.965,1.527,2.934-1.105,22.369-8.888,40.977-27.5a37.571,37.571,0,0,0,10.909-26.024,35.417,35.417,0,0,0-.35-5.307,33.747,33.747,0,0,0-13.729-23.03,39.254,39.254,0,0,0-24-6.718c-4.207.249-10.8,2.773-12.082,3.277l-.282.113a1.161,1.161,0,0,1-.644.063s-6.634-1.268-8.228-1.538a54.051,54.051,0,0,0-10.212-.924c-1.112.021-2.132.087-3.12.2-.958.109-1.943.265-2.927.464l-.061.014a32.748,32.748,0,0,0-14.224,6.77,33.705,33.705,0,0,0-9.6,13.421C31.393,344.039,31.384,344.063,31.375,344.087Zm23.861-20.269-.013,0Zm0,0Z" fill="#303030"/>
  </g>
  <g>
    <path d="M100.822,495.821c-3.991,3.251-9.141,7.474-14.8,12.031-2.64,2.13-5.39,4.334-8.187,6.538C67.685,522.42,57,530.514,49.061,535.5c-4.927,3.093-10.178-.695-9.317-6.446.352-2.334.935-5.131,1.7-8.242v-.01c.768-3.167,1.713-6.659,2.759-10.289,4.3-14.892,10.29-32.109,12.827-39.24.76-2.13,1.2-3.362,1.2-3.362a16.318,16.318,0,0,1,3.288-5.724c5.955-6.834,17.282-9.576,25.191-5.232a1.627,1.627,0,0,1,.213.12c.361.2.722.417,1.065.658l3.26,1.833.7.4,7.594,4.269C109.333,470.927,110.009,488.32,100.822,495.821Z" fill="#f29049"/>
    <path d="M80.076,478.987a5.042,5.042,0,0,1-4.14,2.158,4.982,4.982,0,0,1-2.843-.889L58.516,470.171c.759-2.13,1.2-3.362,1.2-3.362a16.3,16.3,0,0,1,3.287-5.724L78.8,472.005A5.039,5.039,0,0,1,80.076,478.987Z" fill="#be681c"/>
    <path d="M87.513,506.753c-2.64,2.13-5.39,4.334-8.187,6.538l-13.772-9.52a5.016,5.016,0,0,1,2.871-9.141,4.977,4.977,0,0,1,2.843.889Z" fill="#be681c"/>
    <path d="M51.857,519.784a5.045,5.045,0,0,1-4.14,2.158,4.978,4.978,0,0,1-2.843-.89l-1.945-1.342v-.01c.769-3.167,1.713-6.659,2.76-10.289l4.9,3.39A5.03,5.03,0,0,1,51.857,519.784Z" fill="#be681c"/>
    <g>
      <path d="M86.853,455.417q-2.928-4.852-6.029-9.6c-2.893-4.414-7.339-8.446-8.761-13.648-.892-3.263-.164-7.527,3.179-9.138a7.825,7.825,0,0,1,5.966.03C93.181,427.354,92.325,446.488,86.853,455.417Z" fill="#60b463"/>
      <path d="M86.842,458.657l-1.431-2.369c-2.015-3.341-4.032-6.553-6-9.547-.885-1.351-1.92-2.663-3.018-4.052-2.41-3.052-4.9-6.208-5.959-10.075-1.1-4.014-.05-9.112,4.072-11.1a9.423,9.423,0,0,1,7.266-.035c4.3,1.54,7.473,4.924,9.184,9.784,3,8.531.863,19.264-2.673,25.035Zm-8.9-34.523a4.542,4.542,0,0,0-1.97.412c-2.438,1.176-3,4.578-2.287,7.18.877,3.2,3.153,6.087,5.355,8.877,1.094,1.383,2.224,2.817,3.191,4.291,1.475,2.249,2.98,4.621,4.491,7.074,2.292-5.425,3.244-13.388,1.062-19.587-1.382-3.927-3.786-6.53-7.145-7.734A8.212,8.212,0,0,0,77.943,424.134Z" fill="#333"/>
    </g>
    <g>
      <path d="M90.7,459.314c1.6-.319,2.567-14.942,2.788-16.686.79-6.231,1.5-12.516,1.822-18.791.279-5.473,2.393-8.914,7.4-11.275,6.455-3.042,13.665,1.291,16.366,7.47,3.715,8.5-2.419,17.589-7.568,24.047C106.328,450.577,99.163,457.623,90.7,459.314Z" fill="#60b463"/>
      <path d="M91.027,460.966l-.659-3.3a1.186,1.186,0,0,0-.733.433c.6-.956,1.274-5.574,2-13.725.084-.948.146-1.646.185-1.955.711-5.594,1.479-12.187,1.811-18.666.317-6.212,2.9-10.131,8.366-12.711a12.209,12.209,0,0,1,9.678-.311,16.3,16.3,0,0,1,8.949,8.629c4,9.16-2.064,18.583-7.794,25.77-7.219,9.056-14.547,14.385-21.783,15.837A.047.047,0,0,0,91.027,460.966Zm16.1-47.717a8.582,8.582,0,0,0-3.7.835c-4.321,2.038-6.187,4.888-6.44,9.838-.335,6.59-1.114,13.262-1.831,18.919-.037.288-.094.941-.172,1.826a121.384,121.384,0,0,1-1.468,12.086c5.455-2.064,11.05-6.667,16.676-13.725,5.143-6.449,10.624-14.812,7.342-22.321a12.855,12.855,0,0,0-7.049-6.825A9.573,9.573,0,0,0,107.123,413.249Z" fill="#333"/>
    </g>
    <g>
      <path d="M97.549,462.7c1.182.751,6.251-2.927,7.438-3.554,4.258-2.249,7.985-5.1,12.049-7.614,3.32-2.052,7.712-2.821,10.4.642a7.277,7.277,0,0,1,1.018,6.217C125.163,471.15,105.782,468.067,97.549,462.7Z" fill="#60b463"/>
      <path d="M114.223,469.018A34.521,34.521,0,0,1,96.63,464.11l1.822-2.833a.789.789,0,0,0-.5-.162c.86-.058,3.727-1.886,4.805-2.577.632-.4,1.147-.725,1.44-.882a83.294,83.294,0,0,0,7.48-4.641c1.473-.986,2.949-1.975,4.471-2.916,4.851-3,9.8-2.585,12.612,1.042a8.935,8.935,0,0,1,1.318,7.668,12.657,12.657,0,0,1-8.023,8.9A21.805,21.805,0,0,1,114.223,469.018Zm-12.4-5.958c5.734,2.473,13.665,3.589,19.017,1.51a9.3,9.3,0,0,0,5.982-6.6,5.57,5.57,0,0,0-.72-4.767c-2.575-3.32-6.914-1.022-8.18-.24-1.487.92-2.928,1.887-4.367,2.85a86.873,86.873,0,0,1-7.782,4.823c-.245.129-.673.4-1.2.743C103.573,462.016,102.658,462.587,101.822,463.06Z" fill="#333"/>
    </g>
    <path d="M45.443,538.292a7.2,7.2,0,0,1-3.979-1.188,8.246,8.246,0,0,1-3.385-8.3c.341-2.266.907-5.028,1.679-8.206l.044-.193c.738-3.032,1.672-6.519,2.78-10.358,4.534-15.718,10.988-34.084,12.858-39.339l1.207-3.368a17.88,17.88,0,0,1,3.6-6.26c6.687-7.675,18.923-10.186,27.269-5.6l.374.218a11.271,11.271,0,0,1,1.06.655l11.417,6.413c5.139,3.508,8.31,9.77,8.61,16.831.3,7.106-2.351,13.659-7.093,17.531h0L99,499.48c-3.469,2.832-7.543,6.158-11.922,9.684-2.642,2.131-5.4,4.339-8.2,6.55C66.3,525.66,56.843,532.6,49.956,536.924A8.5,8.5,0,0,1,45.443,538.292ZM43.122,521l-.048.207c-.772,3.161-1.332,5.882-1.666,8.093a4.928,4.928,0,0,0,1.9,4.984,4.375,4.375,0,0,0,4.86-.215c6.688-4.2,16.319-11.264,28.625-21,2.8-2.2,5.539-4.4,8.173-6.53,4.375-3.52,8.443-6.841,11.907-9.668l2.887-2.357c3.924-3.205,6.113-8.728,5.857-14.78-.254-6-2.879-11.282-7.021-14.117L87.16,459.2c-.44-.3-.756-.483-1.071-.66-7.111-3.913-17.7-1.679-23.3,4.754a14.62,14.62,0,0,0-2.955,5.134l-1.22,3.409c-1.862,5.233-8.288,23.52-12.8,39.144C44.747,514.689,43.84,518.06,43.122,521Z" fill="#333"/>
  </g>
  <g>
    <path d="M150.748,608.7a19.951,19.951,0,0,1-.5,3.113,363.666,363.666,0,0,1-66.576,5.96c-39.727,0-67.56-5.987-67.959-6.066l-3.832-.932c-.08-.585-.16-1.2-.186-1.783-.559-9.712,7.184-18.812,13.757-24.693a60.605,60.605,0,0,1,15.273-9.632c-1.676,3.938-3.645,10.936-1.2,18.413a5.846,5.846,0,0,0,2.927,3.3,5.984,5.984,0,0,0,2.634.612,5.864,5.864,0,0,0,5.535-7.823c-2.9-8.835,1.383-17.216,2.394-19.052a101.729,101.729,0,0,1,15.247-3.273c-1.6,3.406-4.071,10.963-2.075,22.272a6.726,6.726,0,0,0,6.6,5.588,4.435,4.435,0,0,0,.585-.027A6.539,6.539,0,0,0,78,592.12a6.627,6.627,0,0,0,1.331-5.162c-1.889-11.814,1.463-19.105,2.607-21.127.32-.027.612-.027.932-.027a93.316,93.316,0,0,1,17.987,1.676c-.266.346-.5.692-.745,1.065a24.607,24.607,0,0,0-2.581,20.808c.586,1.863,2.289,7.185,6.573,7.185a5.1,5.1,0,0,0,1.384-.187,5.341,5.341,0,0,0,3.778-3.512,9.694,9.694,0,0,0-.186-4.869,15.312,15.312,0,0,1-.32-1.863,24.12,24.12,0,0,1,.266-5.854,20.624,20.624,0,0,1,4.338-9.393,71.211,71.211,0,0,1,21.127,11.814C145.8,591.934,151.281,600.715,150.748,608.7Z" fill="#fabb48"/>
    <path d="M150.243,611.811c-1.836,6.706-7.8,11.628-12.826,14.742a24.28,24.28,0,0,1-12.719,3.512H35.185A20.215,20.215,0,0,1,23.5,626.473q-10.177-7.144-11.628-15.7l3.832.932c.4.079,28.232,6.066,67.959,6.066A363.666,363.666,0,0,0,150.243,611.811Z" fill="#f6a42c"/>
    <path d="M109.079,587.97a9.694,9.694,0,0,1,.186,4.869,5.341,5.341,0,0,1-3.778,3.512,5.1,5.1,0,0,1-1.384.187c-4.284,0-5.987-5.322-6.573-7.185a24.607,24.607,0,0,1,2.581-20.808c.24-.373.479-.719.745-1.065.905.16,1.836.373,2.741.559-.426.532-.851,1.144-1.357,1.89a22.3,22.3,0,0,0-2.315,18.652c1.73,5.322,3.539,5.642,4.976,5.3a2.679,2.679,0,0,0,1.916-1.81,7.93,7.93,0,0,0-.213-3.565,20,20,0,0,1-.372-2.156,25.734,25.734,0,0,1,.292-6.546,22.635,22.635,0,0,1,4.284-9.792c.825.24,1.7.559,2.555.852a20.624,20.624,0,0,0-4.338,9.393,24.12,24.12,0,0,0-.266,5.854A15.312,15.312,0,0,0,109.079,587.97Z" fill="#3d0f1c"/>
    <path d="M106.6,588.5a7.93,7.93,0,0,1,.213,3.565,2.679,2.679,0,0,1-1.916,1.81c-1.437.346-3.246.026-4.976-5.3a22.3,22.3,0,0,1,2.315-18.652c.506-.746.931-1.358,1.357-1.89,2.422.532,4.843,1.2,7.211,1.969a22.635,22.635,0,0,0-4.284,9.792,25.734,25.734,0,0,0-.292,6.546A20,20,0,0,0,106.6,588.5Z" fill="#f6a42c"/>
    <path d="M79.33,586.958A6.627,6.627,0,0,1,78,592.12a6.539,6.539,0,0,1-4.63,2.555,4.435,4.435,0,0,1-.585.027,6.726,6.726,0,0,1-6.6-5.588c-2-11.309.479-18.866,2.075-22.272,1.038-.16,2.049-.293,3.087-.4-.772,1.3-4.976,9.02-2.661,22.245a4.156,4.156,0,0,0,4.444,3.432,3.98,3.98,0,0,0,2.847-1.543,4.031,4.031,0,0,0,.825-3.219c-1.73-10.857.665-18.121,2.209-21.447.957-.08,1.969-.08,2.926-.08C80.793,567.853,77.441,575.144,79.33,586.958Z" fill="#3d0f1c"/>
    <path d="M76.8,587.358a4.031,4.031,0,0,1-.825,3.219,3.98,3.98,0,0,1-2.847,1.543,4.156,4.156,0,0,1-4.444-3.432c-2.315-13.225,1.889-20.942,2.661-22.245,2.528-.293,5.082-.453,7.664-.532C77.467,569.237,75.072,576.5,76.8,587.358Z" fill="#f6a42c"/>
    <path d="M50.619,589.167a5.864,5.864,0,0,1-5.535,7.823,5.984,5.984,0,0,1-2.634-.612,5.846,5.846,0,0,1-2.927-3.3c-2.448-7.477-.479-14.475,1.2-18.413,1.144-.532,2.315-1.038,3.539-1.517-1.091,1.969-5.242,10.351-2.315,19.105a3.329,3.329,0,0,0,1.623,1.836,3.545,3.545,0,0,0,2.608.187,3.363,3.363,0,0,0,2.049-4.284c-2.555-7.77-.293-15.035,1.437-18.84,1.091-.346,2.208-.718,3.352-1.037C52,571.951,47.718,580.332,50.619,589.167Z" fill="#3d0f1c"/>
    <path d="M48.224,589.992a3.363,3.363,0,0,1-2.049,4.284,3.545,3.545,0,0,1-2.608-.187,3.329,3.329,0,0,1-1.623-1.836c-2.927-8.754,1.224-17.136,2.315-19.105,1.73-.718,3.539-1.384,5.4-2C47.931,574.957,45.669,582.222,48.224,589.992Z" fill="#f6a42c"/>
    <path d="M136.087,580.732a76.132,76.132,0,0,0-33.581-15.46c-20.968-4.284-43.266-1.065-60.136,5.934a66.386,66.386,0,0,0-18.626,11.2c-7,6.253-15.247,15.992-14.609,26.742.426,7.158,4.763,13.7,12.906,19.372a22.508,22.508,0,0,0,13.144,4.1H124.7a26.874,26.874,0,0,0,14.05-3.912c6.28-3.885,13.916-10.431,14.528-19.824C153.888,600.023,148.087,590.551,136.087,580.732ZM25.447,584.3a60.605,60.605,0,0,1,15.273-9.632c1.144-.532,2.315-1.038,3.539-1.517,1.73-.718,3.539-1.384,5.4-2,1.091-.346,2.208-.718,3.352-1.037a101.729,101.729,0,0,1,15.247-3.273c1.038-.16,2.049-.293,3.087-.4,2.528-.293,5.082-.453,7.664-.532.957-.08,1.969-.08,2.926-.08.32-.027.612-.027.932-.027a93.316,93.316,0,0,1,17.987,1.676c.905.16,1.836.373,2.741.559,2.422.532,4.843,1.2,7.211,1.969.825.24,1.7.559,2.555.852a71.211,71.211,0,0,1,21.127,11.814c11.309,9.26,16.791,18.041,16.258,26.024a19.951,19.951,0,0,1-.5,3.113c-1.836,6.706-7.8,11.628-12.826,14.742a24.28,24.28,0,0,1-12.719,3.512H35.185A20.215,20.215,0,0,1,23.5,626.473q-10.177-7.144-11.628-15.7c-.08-.585-.16-1.2-.186-1.783C11.131,599.278,18.874,590.178,25.447,584.3Z" fill="#333"/>
  </g>
</svg>
