<svg xmlns="http://www.w3.org/2000/svg" width="471" height="350" viewBox="0 0 471 350">
  <rect x="-18.694" y="-4.962" width="505.29" height="255.484" fill="#69c2d6"/>
  <rect x="-56.371" y="260.328" width="630.194" height="59.86" fill="#424242"/>
  <rect x="15.887" y="287.419" width="42.839" height="5.677" fill="#d8d8d8"/>
  <rect x="80.919" y="287.419" width="42.839" height="5.677" fill="#d8d8d8"/>
  <rect x="145.435" y="287.419" width="42.839" height="5.677" fill="#d8d8d8"/>
  <rect x="210.468" y="287.419" width="42.839" height="5.677" fill="#d8d8d8"/>
  <rect x="276.274" y="287.419" width="42.839" height="5.677" fill="#d8d8d8"/>
  <rect x="341.306" y="287.419" width="42.839" height="5.677" fill="#d8d8d8"/>
  <rect x="407.371" y="287.419" width="42.839" height="5.677" fill="#d8d8d8"/>
  <rect x="-56.371" y="260.328" width="630.194" height="7.742" fill="#3a3a3a"/>
  <rect x="-69.79" y="317.53" width="563.613" height="65.545" fill="#4d9347"/>
  <rect x="-69.79" y="245.876" width="563.613" height="14.452" fill="#4d9347"/>
  <ellipse cx="71.371" cy="34.005" rx="36.645" ry="22.71" fill="#ddf9fd"/>
  <ellipse cx="93.565" cy="50.779" rx="28.903" ry="18.323" fill="#ddf9fd"/>
  <ellipse cx="49.339" cy="48.199" rx="38.032" ry="18.323" fill="#ddf9fd"/>
  <ellipse cx="402.362" cy="37.554" rx="22.089" ry="25.548" fill="#ddf9fd"/>
  <ellipse cx="417.399" cy="55.296" rx="49.854" ry="20.839" fill="#ddf9fd"/>
  <ellipse cx="432.918" cy="37.554" rx="27.63" ry="21.677" fill="#ddf9fd"/>
  <ellipse cx="309.133" cy="38.566" rx="27.525" ry="19.548" fill="#ddf9fd"/>
  <ellipse cx="307.548" cy="54.928" rx="32.644" ry="12.828" fill="#ddf9fd"/>
  <ellipse cx="190.339" cy="95.361" rx="68.387" ry="15.162" fill="#ddf9fd"/>
  <ellipse cx="154.975" cy="87.057" rx="19.241" ry="27.863" transform="translate(2.094 177.741) rotate(-60)" fill="#ddf9fd"/>
  <ellipse cx="225.702" cy="87.057" rx="27.863" ry="19.241" transform="translate(-14.839 112.755) rotate(-27.19)" fill="#ddf9fd"/>
  <ellipse cx="190.339" cy="76.558" rx="35.364" ry="21.062" fill="#ddf9fd"/>
  <g>
    <rect x="87.908" y="235.411" width="25.557" height="4.9" rx="2.45" fill="#efe66f"/>
    <path d="M77.084,231.814H89.118a6.019,6.019,0,0,1,4.16,1.675h4.7a9.9,9.9,0,0,0-8.862-5.521H77.084a9.894,9.894,0,0,0,0,19.788H89.118a9.9,9.9,0,0,0,8.862-5.521h-4.7a6.023,6.023,0,0,1-4.16,1.675H77.084a6.048,6.048,0,0,1,0-12.1Z" fill="#efe66f"/>
    <path d="M159.489,231.814H147.456a6.015,6.015,0,0,0-4.16,1.675h-4.7a9.9,9.9,0,0,1,8.862-5.521h12.033a9.894,9.894,0,0,1,0,19.788H147.456a9.9,9.9,0,0,1-8.862-5.521h4.7a6.02,6.02,0,0,0,4.16,1.675h12.033a6.048,6.048,0,1,0,0-12.1Z" fill="#efe66f"/>
    <path d="M123.758,243.91H111.724a6.023,6.023,0,0,1-4.16-1.675h-4.7a9.9,9.9,0,0,0,8.862,5.521h12.034a9.9,9.9,0,0,0,8.824-5.444h-4.749A6.017,6.017,0,0,1,123.758,243.91Z" fill="#efe66f"/>
    <path d="M123.758,227.968H111.724a9.9,9.9,0,0,0-8.862,5.521h4.7a6.019,6.019,0,0,1,4.16-1.675h12.034a6.017,6.017,0,0,1,4.075,1.6h4.75A9.9,9.9,0,0,0,123.758,227.968Z" fill="#efe66f"/>
    <rect x="121.518" y="235.411" width="25.557" height="4.9" rx="2.45" fill="#efe66f"/>
  </g>
  <g>
    <rect x="222.928" y="235.411" width="25.557" height="4.9" rx="2.45" fill="#efe66f"/>
    <path d="M212.1,231.814h12.034a6.015,6.015,0,0,1,4.159,1.675H233a9.894,9.894,0,0,0-8.861-5.521H212.1a9.894,9.894,0,0,0,0,19.788h12.034A9.9,9.9,0,0,0,233,242.235h-4.7a6.019,6.019,0,0,1-4.159,1.675H212.1a6.048,6.048,0,0,1,0-12.1Z" fill="#efe66f"/>
    <path d="M294.509,231.814H282.475a6.015,6.015,0,0,0-4.159,1.675h-4.7a9.9,9.9,0,0,1,8.862-5.521h12.034a9.894,9.894,0,0,1,0,19.788H282.475a9.9,9.9,0,0,1-8.862-5.521h4.7a6.019,6.019,0,0,0,4.159,1.675h12.034a6.048,6.048,0,0,0,0-12.1Z" fill="#efe66f"/>
    <path d="M258.778,243.91H246.744a6.022,6.022,0,0,1-4.16-1.675h-4.7a9.9,9.9,0,0,0,8.862,5.521h12.034a9.9,9.9,0,0,0,8.824-5.444h-4.75A6.013,6.013,0,0,1,258.778,243.91Z" fill="#efe66f"/>
    <path d="M258.778,227.968H246.744a9.9,9.9,0,0,0-8.862,5.521h4.7a6.019,6.019,0,0,1,4.16-1.675h12.034a6.013,6.013,0,0,1,4.074,1.6h4.75A9.9,9.9,0,0,0,258.778,227.968Z" fill="#efe66f"/>
    <rect x="256.538" y="235.411" width="25.557" height="4.9" rx="2.45" fill="#efe66f"/>
  </g>
  <g>
    <rect x="339.831" y="235.411" width="25.557" height="4.9" rx="2.45" fill="#efe66f"/>
    <path d="M329.007,231.814h12.034a6.019,6.019,0,0,1,4.16,1.675h4.7a9.9,9.9,0,0,0-8.862-5.521H329.007a9.894,9.894,0,0,0,0,19.788h12.034a9.9,9.9,0,0,0,8.862-5.521h-4.7a6.023,6.023,0,0,1-4.16,1.675H329.007a6.048,6.048,0,0,1,0-12.1Z" fill="#efe66f"/>
    <path d="M411.412,231.814H399.378a6.015,6.015,0,0,0-4.159,1.675h-4.7a9.894,9.894,0,0,1,8.861-5.521h12.034a9.894,9.894,0,0,1,0,19.788H399.378a9.9,9.9,0,0,1-8.861-5.521h4.7a6.019,6.019,0,0,0,4.159,1.675h12.034a6.048,6.048,0,1,0,0-12.1Z" fill="#efe66f"/>
    <path d="M375.681,243.91H363.647a6.023,6.023,0,0,1-4.16-1.675h-4.7a9.9,9.9,0,0,0,8.862,5.521h12.034a9.9,9.9,0,0,0,8.824-5.444h-4.75A6.013,6.013,0,0,1,375.681,243.91Z" fill="#efe66f"/>
    <path d="M375.681,227.968H363.647a9.9,9.9,0,0,0-8.862,5.521h4.7a6.019,6.019,0,0,1,4.16-1.675h12.034a6.017,6.017,0,0,1,4.075,1.6h4.749A9.9,9.9,0,0,0,375.681,227.968Z" fill="#efe66f"/>
    <rect x="373.441" y="235.411" width="25.557" height="4.9" rx="2.45" fill="#efe66f"/>
  </g>
  <g>
    <rect x="161.544" y="219.869" width="53.173" height="39.752" fill="#f4ebc9"/>
    <rect x="164.158" y="219.869" width="27.56" height="35.985" rx="1.505" fill="#bfe4e3"/>
    <rect x="195.163" y="219.869" width="17.225" height="41.975" rx="1.505" fill="#78ddb2"/>
    <rect x="158.12" y="259.621" width="60.308" height="3.398" transform="translate(376.548 522.64) rotate(180)" fill="#dbcea7"/>
    <circle cx="208.8" cy="241.49" r="1.472" fill="#79af96"/>
    <rect x="172.115" y="234.835" width="6.862" height="0.744" transform="translate(-116.033 201.731) rotate(-46.715)" fill="#2b2844"/>
    <rect x="178.92" y="232.45" width="0.744" height="7.723" transform="translate(-73.16 80.566) rotate(-21.14)" fill="#2b2844"/>
    <rect x="173.156" y="235.947" width="6.466" height="10.277" transform="translate(-103.046 346.685) rotate(-74.511)" fill="#cac8bb"/>
    <circle cx="177.899" cy="232.71" r="1.056" fill="#2b2844"/>
    <g>
      <polygon points="215.833 205.515 219.279 223.119 212.386 223.119 212.386 205.515 215.833 205.515" fill="#efe4e4"/>
      <path d="M212.386,223.119h6.893c0,1.632-1.545,4.681-3.446,4.681S212.386,224.751,212.386,223.119Z" fill="#efe4e4"/>
      <path d="M216.943,200.668c.977,0,1.972.764,1.775,1.655-.122.573-2.885,3.192-2.885,3.192H160.712s-2.759-2.619-2.886-3.192c-.193-.891.8-1.655,1.775-1.655Z" fill="#efe4e4"/>
      <rect x="205.497" y="205.515" width="6.889" height="17.604" fill="#b25d5d"/>
      <path d="M205.5,223.119h6.889c0,1.632-1.541,4.681-3.442,4.681S205.5,224.751,205.5,223.119Z" fill="#b25d5d"/>
      <rect x="198.608" y="205.515" width="6.889" height="17.604" fill="#efe4e4"/>
      <path d="M198.608,223.119H205.5c0,1.632-1.541,4.681-3.443,4.681S198.608,224.751,198.608,223.119Z" fill="#efe4e4"/>
      <rect x="191.719" y="205.515" width="6.889" height="17.604" fill="#b25d5d"/>
      <path d="M191.719,223.119h6.889c0,1.632-1.541,4.681-3.446,4.681S191.719,224.751,191.719,223.119Z" fill="#b25d5d"/>
      <rect x="184.83" y="205.515" width="6.889" height="17.604" fill="#efe4e4"/>
      <path d="M184.83,223.119h6.889c0,1.632-1.541,4.681-3.447,4.681S184.83,224.751,184.83,223.119Z" fill="#efe4e4"/>
      <rect x="177.937" y="205.515" width="6.893" height="17.604" fill="#b25d5d"/>
      <path d="M177.937,223.119h6.893c0,1.632-1.545,4.681-3.447,4.681S177.937,224.751,177.937,223.119Z" fill="#b25d5d"/>
      <rect x="171.048" y="205.515" width="6.889" height="17.604" fill="#efe4e4"/>
      <path d="M171.048,223.119h6.889c0,1.632-1.542,4.681-3.443,4.681S171.048,224.751,171.048,223.119Z" fill="#efe4e4"/>
      <rect x="164.158" y="205.515" width="6.889" height="17.604" fill="#b25d5d"/>
      <path d="M164.158,223.119h6.89c0,1.632-1.542,4.681-3.443,4.681S164.158,224.751,164.158,223.119Z" fill="#b25d5d"/>
      <polygon points="164.158 205.515 164.158 223.119 157.269 223.119 160.712 205.515 164.158 205.515" fill="#efe4e4"/>
      <path d="M157.269,223.119h6.889c0,1.632-1.541,4.681-3.446,4.681S157.269,224.751,157.269,223.119Z" fill="#efe4e4"/>
    </g>
  </g>
  <g>
    <polygon points="76.045 213.147 71.176 198.312 37.883 176.118 4.252 198.426 -1.184 213.147 -1.184 262.292 76.045 262.292 76.045 213.147" fill="#b72e2e"/>
    <g>
      <rect x="-1.184" y="261.121" width="77.229" height="1.172" fill="#e24444"/>
      <rect x="-1.184" y="257.83" width="77.229" height="1.735" fill="#e24444"/>
      <rect x="-1.184" y="254.539" width="77.229" height="1.735" fill="#e24444"/>
      <rect x="-1.184" y="251.248" width="77.229" height="1.735" fill="#e24444"/>
      <rect x="-1.184" y="247.957" width="77.229" height="1.735" fill="#e24444"/>
      <rect x="-1.184" y="244.666" width="77.229" height="1.735" fill="#e24444"/>
      <rect x="-1.184" y="241.375" width="77.229" height="1.735" fill="#e24444"/>
      <rect x="-1.184" y="238.084" width="77.229" height="1.735" fill="#e24444"/>
      <rect x="-1.184" y="234.793" width="77.229" height="1.735" fill="#e24444"/>
      <rect x="-1.184" y="231.502" width="77.229" height="1.735" fill="#e24444"/>
      <rect x="-1.184" y="228.211" width="77.229" height="1.735" fill="#e24444"/>
      <rect x="-1.184" y="224.92" width="77.229" height="1.735" fill="#e24444"/>
      <rect x="-1.184" y="221.629" width="77.229" height="1.735" fill="#e24444"/>
      <rect x="-1.184" y="218.338" width="77.229" height="1.735" fill="#e24444"/>
      <rect x="-1.184" y="215.047" width="77.229" height="1.735" fill="#e24444"/>
      <rect x="-1.184" y="211.756" width="77.229" height="1.735" fill="#e24444"/>
      <rect x="-0.098" y="208.465" width="75.056" height="1.735" fill="#e24444"/>
      <rect x="1.225" y="205.174" width="72.412" height="1.735" fill="#e24444"/>
      <rect x="2.543" y="201.883" width="70.215" height="1.735" fill="#e24444"/>
      <rect x="3.86" y="198.592" width="68.019" height="1.735" fill="#e24444"/>
      <rect x="6.932" y="195.301" width="61.435" height="1.735" fill="#e24444"/>
      <rect x="12.198" y="192.01" width="51.341" height="1.735" fill="#e24444"/>
      <rect x="17.026" y="188.719" width="41.687" height="1.735" fill="#e24444"/>
      <rect x="21.853" y="185.428" width="32.033" height="1.735" fill="#e24444"/>
      <rect x="27.118" y="182.137" width="21.502" height="1.735" fill="#e24444"/>
      <rect x="31.945" y="178.846" width="11.848" height="1.735" fill="#e24444"/>
      <rect x="36.772" y="175.555" width="2.194" height="1.735" fill="#e24444"/>
    </g>
    <rect x="-3.761" y="195.605" width="3.843" height="28.922" transform="translate(92.194 22.213) rotate(26.089)" fill="#1e1e1e"/>
    <rect x="74.531" y="195.605" width="3.843" height="28.922" transform="translate(237.497 365.106) rotate(153.911)" fill="#1e1e1e"/>
    <rect x="51.579" y="165.68" width="3.843" height="41.425" transform="translate(238.408 244.819) rotate(123.551)" fill="#1e1e1e"/>
    <rect x="19.191" y="165.68" width="3.843" height="41.425" transform="matrix(0.553, 0.833, -0.833, 0.553, 164.783, 65.783)" fill="#1e1e1e"/>
    <rect x="14.67" y="206.352" width="15.853" height="11.092" fill="#e2e2e2"/>
    <rect x="16.065" y="207.329" width="13.062" height="9.138" fill="#00baff" opacity="0.39"/>
    <rect x="21.945" y="206.352" width="1.302" height="11.092" fill="#e2e2e2"/>
    <rect x="44.055" y="206.352" width="15.853" height="11.092" fill="#e2e2e2"/>
    <rect x="45.451" y="207.329" width="13.062" height="9.138" fill="#00baff" opacity="0.39"/>
    <rect x="51.331" y="206.352" width="1.302" height="11.092" fill="#e2e2e2"/>
    <g>
      <rect x="19.199" y="233.358" width="35.244" height="28.935" fill="#e2e2e2"/>
      <rect x="22.304" y="235.907" width="29.038" height="26.385" fill="#c62222"/>
      <rect x="36.128" y="233.358" width="2.604" height="28.935" fill="#e2e2e2"/>
      <polygon points="36.326 262.292 36.128 261.889 30.04 249.455 29.044 247.421 23.405 235.907 22.938 234.953 21.345 235.732 22.304 237.689 28.072 249.468 29.068 251.502 34.351 262.292 36.326 262.292" fill="#e2e2e2"/>
      <polygon points="52.717 262.292 50.743 262.292 45.361 251.3 44.365 249.267 38.733 237.766 37.822 235.907 37.737 235.732 38.733 235.245 39.329 234.953 39.797 235.907 45.337 247.22 46.333 249.253 51.342 259.482 52.717 262.292" fill="#e2e2e2"/>
      <polygon points="52.798 235.644 51.342 238.709 46.333 249.253 45.361 251.3 40.137 262.292 38.175 262.292 38.733 261.119 44.365 249.267 45.337 247.22 50.71 235.907 51.197 234.883 52.798 235.644" fill="#e2e2e2"/>
      <polygon points="36.602 235.644 36.477 235.907 36.128 236.642 30.04 249.455 29.068 251.502 23.943 262.292 21.979 262.292 22.304 261.608 28.072 249.468 29.044 247.421 34.514 235.907 35.001 234.883 36.128 235.418 36.602 235.644" fill="#e2e2e2"/>
    </g>
  </g>
  <g>
    <polygon points="395.83 260.291 469.59 260.291 469.59 219.894 459.491 202.394 432.761 184.98 409.049 199.119 395.83 219.317 395.83 260.291" fill="#e67b3a"/>
    <g>
      <rect x="395.83" y="258.22" width="73.76" height="1.881" fill="#af3e18"/>
      <rect x="395.83" y="253.003" width="73.76" height="1.881" fill="#af3e18"/>
      <rect x="395.83" y="247.785" width="73.76" height="1.881" fill="#af3e18"/>
      <rect x="395.83" y="242.567" width="73.76" height="1.881" fill="#af3e18"/>
      <rect x="395.83" y="237.349" width="73.76" height="1.881" fill="#af3e18"/>
      <rect x="395.83" y="232.131" width="73.76" height="1.881" fill="#af3e18"/>
      <rect x="395.83" y="226.913" width="73.76" height="1.881" fill="#af3e18"/>
      <rect x="395.83" y="221.695" width="73.76" height="1.881" fill="#af3e18"/>
      <rect x="395.83" y="216.477" width="73.76" height="1.881" fill="#af3e18"/>
      <rect x="398.222" y="211.259" width="67.817" height="1.881" fill="#af3e18"/>
      <rect x="402.166" y="206.041" width="61.461" height="1.881" fill="#af3e18"/>
      <rect x="406.224" y="200.823" width="53.756" height="1.881" fill="#af3e18"/>
      <rect x="410.63" y="195.605" width="43.366" height="1.881" fill="#af3e18"/>
      <rect x="419.671" y="190.388" width="25.367" height="1.881" fill="#af3e18"/>
      <rect x="428.135" y="185.17" width="8.56" height="1.881" fill="#af3e18"/>
    </g>
    <g>
      <g>
        <rect x="412.506" y="226.867" width="40.397" height="31.933" fill="#b12938"/>
        <path d="M451.411,228.358v28.951H414V228.358h37.415m2.982-2.981H411.015v34.914h43.378V225.377Z" fill="#f2f2f1"/>
      </g>
      <rect x="431.213" y="225.377" width="2.982" height="34.914" fill="#f2f2f1"/>
      <rect x="421.083" y="224.834" width="2.982" height="35.999" transform="translate(-64.629 229.791) rotate(-28.351)" fill="#f2f2f1"/>
      <rect x="440.983" y="224.834" width="2.982" height="35.999" transform="translate(-62.242 239.241) rotate(-28.351)" fill="#f2f2f1"/>
      <rect x="424.475" y="241.343" width="35.999" height="2.982" transform="translate(18.651 516.924) rotate(-61.649)" fill="#f2f2f1"/>
      <rect x="404.574" y="241.343" width="35.999" height="2.982" transform="translate(8.2 499.41) rotate(-61.649)" fill="#f2f2f1"/>
    </g>
    <polygon points="393.12 220.022 396.98 222.299 408.384 202.121 432.761 187.742 457.139 202.121 468.542 222.299 472.403 220.022 460.379 198.772 432.773 182.49 432.749 182.49 405.144 198.772 393.12 220.022" fill="#333"/>
  </g>
  <g>
    <rect x="287.924" y="200.524" width="10.458" height="18.688" fill="#fcf6ea"/>
    <g>
      <rect x="282.345" y="257.38" width="56.214" height="5.386" fill="#777"/>
      <rect x="285.94" y="260.073" width="26.718" height="2.696" fill="#a0a0a0"/>
      <rect x="289.453" y="257.377" width="19.691" height="2.696" fill="#bababa"/>
    </g>
    <polygon points="310.114 203.016 283.979 226.859 283.979 257.581 336.924 257.581 336.924 226.859 310.114 203.016" fill="#fcf6ea"/>
    <rect x="322.657" y="191.089" width="5.147" height="45.198" transform="translate(-52.631 306.736) rotate(-47.14)" fill="#ec4f3c"/>
    <rect x="293.017" y="191.07" width="5.147" height="45.198" transform="translate(340.031 575.682) rotate(-132.86)" fill="#ec4f3c"/>
    <rect x="291.7" y="230.781" width="15.197" height="26.8" fill="#ededed"/>
    <rect x="292.762" y="231.843" width="13.073" height="25.737" fill="#ad6c42"/>
    <rect x="294.968" y="233.968" width="8.661" height="8.661" fill="#ca9f68"/>
    <rect x="294.968" y="233.968" width="0.98" height="8.661" fill="#8f5b33"/>
    <rect x="298.808" y="230.128" width="0.98" height="8.661" transform="translate(533.757 -64.841) rotate(90)" fill="#8f5b33"/>
    <rect x="294.968" y="246.653" width="8.661" height="8.661" fill="#ca9f68"/>
    <rect x="294.968" y="246.653" width="0.98" height="8.661" fill="#8f5b33"/>
    <rect x="298.808" y="242.812" width="0.98" height="8.661" transform="translate(546.441 -52.156) rotate(90)" fill="#8f5b33"/>
    <circle cx="304.129" cy="244.712" r="0.991" fill="#404133"/>
    <g>
      <circle cx="310.451" cy="214.491" r="5.413" fill="#aa6a44"/>
      <circle cx="310.451" cy="214.491" r="4.187" fill="#86caed"/>
    </g>
    <g>
      <rect x="317.358" y="229.433" width="14.38" height="20.427" fill="#aa6a44"/>
      <rect x="318.502" y="230.826" width="12.093" height="17.641" fill="#86caed"/>
      <rect x="317.951" y="236.215" width="13.298" height="1.879" fill="#aa6a44"/>
    </g>
  </g>
</svg>
