<svg xmlns="http://www.w3.org/2000/svg" width="440" height="360" viewBox="0 0 440 360">
  <polygon points="414.995 285.268 330.936 320.218 278.944 349.363 12.479 349.363 12.479 320.218 13.306 319.758 96.538 285.268 414.995 285.268" fill="#b57743" stroke="#1d1d1b" stroke-linecap="round" stroke-linejoin="round" stroke-width="4"/>
  <polygon points="414.995 285.268 330.936 319.758 330.936 349.363 414.995 314.874 414.995 285.268" fill="#9b5d29" stroke="#1d1d1b" stroke-linecap="round" stroke-linejoin="round" stroke-width="4"/>
  <path d="M238.389,314.176a20.814,20.814,0,0,1-6.105-.895,21.66,21.66,0,0,1-8.589-5.1c-2.077-1.813-3.576-3.123-7.35-3.623a18.147,18.147,0,0,0-2.331-.174c-1.984,0-2.593.426-4.221,1.567-2.285,1.6-5.412,3.792-12.627,4.889a19.415,19.415,0,0,1-2.91.216c-19.706,0-43.249-28.943-49.6-52.908l-.391-1.459c-2.905-10.767-8.95-33.177,4.062-52.955,10.334-15.708,29.628-26.262,48.012-26.262a43.772,43.772,0,0,1,6.549.484,53.612,53.612,0,0,1,11.244,3.221l.527.2a34.853,34.853,0,0,1,10.107-17.41c6.772-6.2,17.744-7.5,25.755-7.5a68.373,68.373,0,0,1,8.371.481l3.858.523-.422,3.876-.07.566a78.042,78.042,0,0,1-2.646,12.016c17.572,4.26,35.525,27.558,39.566,51.65,4.769,28.437-11.067,49.875-17.029,57.945-2.317,3.139-23.233,30.657-43.757,30.657Z" fill="#1d1d1b"/>
  <path d="M238.387,313.176a19.836,19.836,0,0,1-5.81-.851,20.816,20.816,0,0,1-8.226-4.9c-2.125-1.856-3.8-3.321-7.875-3.86a19.135,19.135,0,0,0-2.462-.183c-2.3,0-3.133.584-4.8,1.748-2.2,1.543-5.218,3.657-12.2,4.719a18.306,18.306,0,0,1-2.76.2c-19.279,0-42.371-28.536-48.636-52.164l-.393-1.461c-2.867-10.629-8.833-32.746,3.932-52.147,10.157-15.439,29.116-25.812,47.177-25.812a42.809,42.809,0,0,1,6.4.472,52.964,52.964,0,0,1,11.052,3.172c.536.2,1.062.4,1.583.587a33.949,33.949,0,0,1,10.067-18c6.536-5.981,17.247-7.237,25.081-7.237a67.208,67.208,0,0,1,8.234.471l2.895.393-.316,2.908s-.022.2-.067.545a76.414,76.414,0,0,1-2.936,12.886c17.154,3.388,35.764,26.648,39.86,51.074,4.7,28.02-10.954,49.21-16.846,57.188-2.287,3.1-22.923,30.249-42.953,30.249Z" fill="#1d1d1b"/>
  <path d="M295.23,226.235c-4.22-25.157-24.7-48.916-41.007-48.992a71.83,71.83,0,0,0,4.066-15.851c.04-.308.06-.486.06-.486s-21.184-2.874-30.887,6.006c-6.531,5.977-8.94,13.67-9.745,19.744-4.906-1.462-9.351-3.825-15.432-4.748-17.755-2.695-39.592,7.26-50.62,24.022-12.624,19.189-5.725,41.463-3.146,51.192,6.534,24.64,30.889,52.372,48.046,49.761,13.155-2,9.985-7.657,20.305-6.291,8.978,1.187,8.945,6.522,16.587,8.865,15.889,4.872,36.52-16.193,45.472-28.312C284.505,273.6,299.719,253,295.23,226.235Z" fill="#1d1d1b"/>
  <path d="M202.285,181.908c-17.755-2.695-39.592,7.26-50.62,24.022-12.624,19.189-5.725,41.463-3.146,51.192,6.534,24.64,30.889,52.372,48.046,49.761,13.155-2,9.985-7.657,20.305-6.291,8.978,1.187,8.945,6.522,16.587,8.865,15.889,4.872,36.52-16.193,45.472-28.312,5.576-7.55,20.79-28.146,16.3-54.91-4.384-26.139-26.324-50.781-42.9-48.9-8.64.979-10.675,8.581-23.165,10.3C218.133,189.142,212.544,183.465,202.285,181.908Z" fill="#e76349"/>
  <path d="M295.23,226.235c-4.384-26.139-26.324-50.781-42.9-48.9-6.522.739-9.286,5.249-15.619,8.155a159.7,159.7,0,0,1,32.063,26.163C299.806,244.9,266.131,284,232.885,297.3c-3.325,1.108-16.194-3.647-22.843-.322a55.709,55.709,0,0,0-13.854,9.939c.125-.016.253-.018.377-.037,13.155-2,9.985-7.657,20.305-6.291,8.978,1.187,8.945,6.522,16.587,8.865,15.889,4.872,36.52-16.193,45.472-28.312C284.505,273.6,299.719,253,295.23,226.235Z" fill="#cd3f29"/>
  <g>
    <path d="M217.705,196.529c4,.694,15.562,2.127,26.058-4.736,11.063-7.234,14.091-27.08,14.526-30.4C241.979,168.312,229.737,182.6,217.705,196.529Z" fill="#41a300"/>
    <path d="M258.289,161.392c.04-.308.06-.486.06-.486s-21.184-2.874-30.887,6.006c-11.933,10.921-10.119,27.581-9.866,29.6l.109.018C229.737,182.6,241.979,168.312,258.289,161.392Z" fill="#46b101"/>
  </g>
  <path d="M211.842,165.757a67.94,67.94,0,0,1,4.406,8.2l2.008,4.211q.939,2.133,1.833,4.3c.591,1.444,1.285,2.866,1.917,4.322a15.146,15.146,0,0,1,1.179,4.59,21.627,21.627,0,0,1-.075,4.9,22.676,22.676,0,0,1-.56,2.507c-.291.839-.633-.695-1.116.072l-.688-.01c-.556-.762-.911.9-1.327.217s-.791-1.376-1.117-2.053a37.947,37.947,0,0,1-1.831-4.12,18.33,18.33,0,0,1-1.042-4.326c-.162-1.5-.314-3.023-.611-4.511L211.118,166Z" fill="#42280b"/>
  <path d="M204.052,190.773c-2.028.663-4.165,2.43-4,4,.348,3.4,11.306,4.746,12.3,4.862,11.779,1.372,22.2-2.655,22.021-3.718-.153-.933-8.123,2.489-17.731-1.144C211.153,192.7,208.1,189.452,204.052,190.773Z" fill="#cd3f29"/>
  <path d="M158.145,224.474c-5.817,4.378-6.853,14.95-2.408,18.152,3.334,2.4,9.615.556,12.9-3.243,4.214-4.871,4.045-13.575-.394-16.333C165.166,221.138,160.74,222.522,158.145,224.474Z" fill="#ffc5ab"/>
  <path d="M168.782,207.314c-2.8.987-4.29,7.275-1.334,10.305,1.926,1.975,5.822,2.649,7.761.693,1.885-1.9.9-5.25.1-6.829C174.012,208.927,170.951,206.549,168.782,207.314Z" fill="#ffc5ab"/>
  <path d="M282.292,173.422c.762,7.418,3.1,17.487,10.9,23.889,7.938,6.509,18.091,9.509,18.091,9.509a43.967,43.967,0,0,0-17.859,9.973c-9.61,9.315-10.669,24.121-10.669,24.121s-.793-12.309-8.581-21.106c-8.3-9.37-21.57-11.828-21.57-11.828a63.965,63.965,0,0,0,17.4-9.046C278.6,192.316,281.323,181.449,282.292,173.422Z" fill="#fae767"/>
  <path d="M167.613,262.27c-.7,4.21-.926,10.121,2.42,14.832a33.575,33.575,0,0,0,8.556,7.975,25.165,25.165,0,0,0-11.363,2.816c-6.709,3.7-9.525,11.711-9.525,11.711s1.417-6.916-1.558-12.946c-3.169-6.424-10.127-9.781-10.127-9.781a36.6,36.6,0,0,0,10.967-2.373C162.729,272.145,165.869,266.555,167.613,262.27Z" fill="#fae767"/>
  <path d="M173.866,175.01c2.585,1.974,6.482,4.241,10.848,3.673a25.582,25.582,0,0,0,8.426-2.908,19.183,19.183,0,0,0-2.166,8.655c.09,5.836,4.478,10.6,4.478,10.6a17.182,17.182,0,0,0-9.27-3.578c-5.456-.163-10.2,3.32-10.2,3.32a27.883,27.883,0,0,0,2.322-8.23C178.768,181.828,176.127,177.716,173.866,175.01Z" fill="#fae767"/>
  <g>
    <path d="M346.766,156.061a5.728,5.728,0,0,1-4.75-6.545l1.611-10.111-8.9-1.419a5.716,5.716,0,1,1,1.8-11.29l8.908,1.419L347.04,118a5.716,5.716,0,1,1,11.29,1.8l-1.61,10.112,8.742,1.392a5.716,5.716,0,1,1-1.8,11.29l-8.743-1.392-1.611,10.111A5.726,5.726,0,0,1,346.766,156.061Z" fill="#cca40d"/>
    <path d="M313.424,164.543a5.688,5.688,0,0,1-4.685-4.418l-3.077-14.306-21.1-3.361-7.363,12.63a5.717,5.717,0,1,1-9.857-5.794L296.984,98.47a5.727,5.727,0,0,1,3.732-2.688l.2-.036a5.674,5.674,0,0,1,.867-.091c.089,0,.225,0,.359.006a5.809,5.809,0,0,1,.677.062,6.239,6.239,0,0,1,.639.144c.17.048.292.084.412.129a5.391,5.391,0,0,1,.819.368l.113.065a5.72,5.72,0,0,1,2.717,3.706l12.387,57.545a5.719,5.719,0,0,1-6.483,6.863Zm-10.343-30.712-3.637-16.888-8.7,14.922Z" fill="#cca40d"/>
    <path d="M310.357,161.882a5.689,5.689,0,0,1-4.686-4.418l-3.077-14.306-21.1-3.361-7.363,12.63a5.716,5.716,0,1,1-9.856-5.794l29.642-50.824a5.722,5.722,0,0,1,3.731-2.688l.2-.036a5.688,5.688,0,0,1,.867-.091c.089,0,.225,0,.359.006a5.789,5.789,0,0,1,.677.062,6.516,6.516,0,0,1,.639.144c.17.048.292.084.412.129a5.391,5.391,0,0,1,.819.368l.113.065a5.72,5.72,0,0,1,2.717,3.706l12.388,57.545a5.719,5.719,0,0,1-6.483,6.863ZM300.013,131.17l-3.637-16.888-8.7,14.922Z" fill="#fde343"/>
    <path d="M343.613,154.174a5.728,5.728,0,0,1-4.75-6.545l1.611-10.111-8.9-1.418a5.716,5.716,0,1,1,1.8-11.29l8.908,1.419,1.61-10.112a5.716,5.716,0,1,1,11.29,1.8l-1.61,10.111,8.742,1.393a5.716,5.716,0,1,1-1.8,11.29l-8.743-1.393-1.611,10.112A5.725,5.725,0,0,1,343.613,154.174Z" fill="#fde343"/>
  </g>
  <rect x="12.479" y="319.758" width="318.457" height="29.605" fill="#d69864" stroke="#1d1d1b" stroke-linecap="round" stroke-linejoin="round" stroke-width="4"/>
</svg>
