<svg xmlns="http://www.w3.org/2000/svg" width="440" height="360" viewBox="0 0 440 360">
  <polygon points="418.462 281.227 334.403 316.177 282.412 345.322 15.946 345.322 15.946 316.177 16.773 315.717 100.005 281.227 418.462 281.227" fill="#b57743" stroke="#1d1d1b" stroke-linecap="round" stroke-linejoin="round" stroke-width="6"/>
  <polygon points="418.462 281.227 334.403 315.717 334.403 345.322 418.462 310.832 418.462 281.227" fill="#9b5d29" stroke="#1d1d1b" stroke-linecap="round" stroke-linejoin="round" stroke-width="6"/>
  <path d="M241.855,308.117a22.845,22.845,0,0,1-6.69-.982,23.671,23.671,0,0,1-9.317-5.508c-2.015-1.759-3.123-2.726-6.3-3.147a16.233,16.233,0,0,0-2.069-.157c-1.353,0-1.549.137-3.073,1.205-2.309,1.618-5.8,4.062-13.473,5.229a21.48,21.48,0,0,1-3.212.239c-20.558,0-45-29.758-51.536-54.4l-.39-1.454c-2.98-11.048-9.184-34.042,4.323-54.572,10.689-16.247,30.655-27.164,49.684-27.164a45.8,45.8,0,0,1,6.849.507,50.165,50.165,0,0,1,10.131,2.763,36.481,36.481,0,0,1,10.1-16.254c7.246-6.631,18.74-8.023,27.106-8.023a70.173,70.173,0,0,1,8.646.5l5.782.784-.633,5.812-.074.6a79.911,79.911,0,0,1-2.145,10.39c17.776,5.652,35.03,28.712,39.053,52.7,4.91,29.276-11.293,51.208-17.392,59.465-2.378,3.221-23.855,31.468-45.367,31.468Z" fill="#1d1d1b"/>
  <path d="M241.856,306.117a20.807,20.807,0,0,1-6.1-.9,21.653,21.653,0,0,1-8.589-5.1c-2.077-1.813-3.576-3.123-7.35-3.623a18.161,18.161,0,0,0-2.332-.174c-1.984,0-2.593.426-4.221,1.567-2.284,1.6-5.411,3.792-12.626,4.889a19.437,19.437,0,0,1-2.911.217c-19.705,0-43.248-28.944-49.6-52.909l-.391-1.459c-2.905-10.767-8.95-33.177,4.062-52.955,10.334-15.708,29.629-26.262,48.013-26.262a43.772,43.772,0,0,1,6.549.484,53.6,53.6,0,0,1,11.243,3.221l.528.2A34.844,34.844,0,0,1,228.23,155.9c6.773-6.2,17.744-7.5,25.756-7.5a68.345,68.345,0,0,1,8.37.481l3.858.523-.421,3.876-.071.566a77.993,77.993,0,0,1-2.645,12.016c17.571,4.26,35.524,27.558,39.565,51.65,4.77,28.437-11.066,49.875-17.028,57.945-2.318,3.139-23.234,30.657-43.758,30.657Z" fill="#1d1d1b"/>
  <path d="M241.854,305.117a19.824,19.824,0,0,1-5.809-.851,20.808,20.808,0,0,1-8.226-4.9c-2.125-1.856-3.8-3.321-7.875-3.86a19.149,19.149,0,0,0-2.463-.183c-2.3,0-3.133.584-4.794,1.748-2.2,1.543-5.219,3.657-12.2,4.719a18.306,18.306,0,0,1-2.76.206c-19.279,0-42.371-28.537-48.636-52.165l-.392-1.461c-2.867-10.629-8.833-32.746,3.932-52.147,10.156-15.439,29.116-25.812,47.177-25.812a42.806,42.806,0,0,1,6.4.472,52.929,52.929,0,0,1,11.052,3.172c.536.2,1.062.4,1.583.587a33.957,33.957,0,0,1,10.068-18c6.535-5.981,17.246-7.237,25.081-7.237a67.181,67.181,0,0,1,8.233.471l2.9.393-.317,2.908s-.022.2-.067.545a76.481,76.481,0,0,1-2.935,12.886c17.154,3.388,35.763,26.648,39.86,51.074,4.7,28.02-10.954,49.21-16.847,57.188-2.287,3.1-22.923,30.249-42.953,30.249Z" fill="#1d1d1b"/>
  <path d="M298.7,218.176c-4.219-25.157-24.7-48.916-41.007-48.992a71.77,71.77,0,0,0,4.066-15.851c.04-.308.06-.486.06-.486s-21.183-2.874-30.886,6.006c-6.532,5.977-8.941,13.67-9.746,19.744-4.906-1.462-9.35-3.825-15.432-4.748-17.755-2.695-39.591,7.26-50.619,24.022-12.625,19.189-5.726,41.463-3.146,51.192,6.534,24.64,30.888,52.372,48.045,49.761,13.156-2,9.985-7.657,20.3-6.291,8.978,1.187,8.945,6.522,16.587,8.865,15.89,4.872,36.52-16.193,45.472-28.312C287.972,265.536,303.186,244.94,298.7,218.176Z" fill="#1d1d1b"/>
  <path d="M205.752,173.849c-17.755-2.695-39.591,7.26-50.619,24.022-12.625,19.189-5.726,41.463-3.146,51.192,6.534,24.64,30.888,52.372,48.045,49.761,13.156-2,9.985-7.657,20.3-6.291,8.978,1.187,8.945,6.522,16.587,8.865,15.89,4.872,36.52-16.193,45.472-28.312,5.576-7.55,20.79-28.146,16.3-54.91-4.384-26.139-26.324-50.781-42.9-48.9-8.64.979-10.675,8.581-23.165,10.3C221.6,181.083,216.011,175.406,205.752,173.849Z" fill="#e76349"/>
  <path d="M298.7,218.176c-4.384-26.139-26.324-50.781-42.9-48.9-6.522.739-9.285,5.249-15.618,8.155a159.729,159.729,0,0,1,32.063,26.163c31.029,33.246-2.646,72.354-35.891,85.653-3.325,1.108-16.194-3.647-22.844-.322a55.7,55.7,0,0,0-13.853,9.939c.124-.016.252-.018.376-.037,13.156-2,9.985-7.657,20.3-6.291,8.978,1.187,8.945,6.522,16.587,8.865,15.89,4.872,36.52-16.193,45.472-28.312C287.972,265.536,303.186,244.94,298.7,218.176Z" fill="#cd3f29"/>
  <g>
    <path d="M221.172,188.471c4,.693,15.562,2.126,26.059-4.737,11.063-7.234,14.09-27.08,14.525-30.4C245.446,160.253,233.205,174.539,221.172,188.471Z" fill="#41a300"/>
    <path d="M261.756,153.333c.04-.308.06-.486.06-.486s-21.184-2.873-30.886,6.006c-11.933,10.921-10.119,27.581-9.867,29.6l.109.019C233.205,174.539,245.446,160.253,261.756,153.333Z" fill="#46b101"/>
  </g>
  <path d="M215.309,157.7a67.949,67.949,0,0,1,4.407,8.2l2.007,4.211q.94,2.133,1.834,4.3c.59,1.444,1.284,2.866,1.917,4.322a15.144,15.144,0,0,1,1.178,4.59,21.627,21.627,0,0,1-.074,4.9,23.141,23.141,0,0,1-.56,2.507c-.292.839-.634-.695-1.116.072l-.688-.01c-.557-.762-.912.9-1.327.217s-.791-1.376-1.117-2.053a37.763,37.763,0,0,1-1.832-4.12A18.33,18.33,0,0,1,218.9,180.5c-.162-1.5-.314-3.023-.611-4.511l-3.7-18.046Z" fill="#42280b"/>
  <path d="M207.519,182.714c-2.028.663-4.164,2.43-4,4,.348,3.4,11.306,4.746,12.3,4.862,11.779,1.373,22.2-2.655,22.021-3.718-.154-.933-8.124,2.489-17.731-1.144C214.62,184.645,211.563,181.393,207.519,182.714Z" fill="#cd3f29"/>
  <path d="M161.613,216.415c-5.818,4.378-6.854,14.95-2.409,18.152,3.335,2.4,9.615.556,12.9-3.243,4.214-4.871,4.045-13.575-.395-16.333C168.633,213.079,164.207,214.463,161.613,216.415Z" fill="#ffc5ab"/>
  <path d="M172.249,199.255c-2.8.987-4.29,7.275-1.334,10.305,1.927,1.975,5.822,2.649,7.762.693,1.885-1.9.9-5.25.1-6.829C177.48,200.868,174.418,198.49,172.249,199.255Z" fill="#ffc5ab"/>
  <path d="M285.76,165.363c.762,7.418,3.094,17.487,10.9,23.889,7.937,6.509,18.09,9.509,18.09,9.509a43.973,43.973,0,0,0-17.859,9.973c-9.609,9.315-10.668,24.121-10.668,24.121s-.793-12.308-8.582-21.1c-8.3-9.37-21.57-11.829-21.57-11.829a63.979,63.979,0,0,0,17.395-9.045C282.068,184.257,284.79,173.39,285.76,165.363Z" fill="#fae767"/>
  <path d="M171.081,254.211c-.7,4.21-.926,10.121,2.419,14.832a33.575,33.575,0,0,0,8.556,7.975,25.165,25.165,0,0,0-11.363,2.816c-6.709,3.695-9.524,11.711-9.524,11.711s1.416-6.916-1.559-12.946c-3.168-6.424-10.127-9.781-10.127-9.781a36.6,36.6,0,0,0,10.967-2.373C166.2,264.086,169.336,258.5,171.081,254.211Z" fill="#fae767"/>
  <path d="M175.652,161.2c2.585,1.974,6.481,4.241,10.848,3.673a25.593,25.593,0,0,0,8.426-2.908,19.167,19.167,0,0,0-2.166,8.654c.089,5.837,4.478,10.6,4.478,10.6a17.187,17.187,0,0,0-9.271-3.578c-5.456-.163-10.2,3.321-10.2,3.321a27.929,27.929,0,0,0,2.322-8.23C180.553,168.02,177.913,163.908,175.652,161.2Z" fill="#fae767"/>
  <g>
    <path d="M350.234,148a5.726,5.726,0,0,1-4.75-6.545l1.61-10.111-8.9-1.419a5.716,5.716,0,1,1,1.8-11.29l8.908,1.419,1.611-10.111a5.716,5.716,0,1,1,11.29,1.8l-1.611,10.112,8.743,1.392a5.717,5.717,0,0,1-1.8,11.291l-8.742-1.393-1.611,10.111A5.726,5.726,0,0,1,350.234,148Z" fill="#cca40d"/>
    <path d="M316.892,156.484a5.689,5.689,0,0,1-4.686-4.418l-3.077-14.306-21.1-3.361-7.364,12.63a5.716,5.716,0,1,1-9.856-5.794l29.642-50.824a5.725,5.725,0,0,1,3.731-2.688l.2-.036a5.688,5.688,0,0,1,.867-.091c.089,0,.225,0,.359.006a5.828,5.828,0,0,1,.678.062,6.5,6.5,0,0,1,.638.144c.171.048.292.084.412.129a5.347,5.347,0,0,1,.819.368l.113.065a5.717,5.717,0,0,1,2.717,3.706l12.388,57.545a5.719,5.719,0,0,1-6.483,6.863Zm-10.344-30.712-3.636-16.888-8.7,14.922Z" fill="#cca40d"/>
    <path d="M313.824,153.823a5.69,5.69,0,0,1-4.686-4.418L306.062,135.1l-21.1-3.361-7.363,12.63a5.717,5.717,0,1,1-9.857-5.794L297.384,87.75a5.727,5.727,0,0,1,3.732-2.688l.2-.036a5.688,5.688,0,0,1,.867-.091c.09,0,.225,0,.36.007a5.612,5.612,0,0,1,.677.061,6.5,6.5,0,0,1,.638.144c.171.048.292.085.412.129a5.355,5.355,0,0,1,.82.368l.112.065a5.716,5.716,0,0,1,2.717,3.706l12.388,57.545a5.719,5.719,0,0,1-6.483,6.863ZM303.48,123.111l-3.636-16.888-8.7,14.922Z" fill="#fde343"/>
    <path d="M347.081,146.115a5.727,5.727,0,0,1-4.75-6.545l1.61-10.111-8.9-1.418a5.716,5.716,0,1,1,1.8-11.29l8.908,1.419,1.611-10.112a5.716,5.716,0,1,1,11.29,1.8l-1.611,10.111,8.743,1.393a5.716,5.716,0,1,1-1.8,11.29l-8.742-1.393-1.611,10.112A5.725,5.725,0,0,1,347.081,146.115Z" fill="#fde343"/>
  </g>
  <rect x="15.946" y="315.717" width="318.457" height="29.605" fill="#d69864" stroke="#1d1d1b" stroke-linecap="round" stroke-linejoin="round" stroke-width="6"/>
</svg>
