<svg xmlns="http://www.w3.org/2000/svg" width="800" height="647" viewBox="0 0 800 647">
  <g>
    <path d="M156.441,98.172c-.318-.317-.712-1.116.234-.917.741.157.52.584.7.116.582-1.526,1.382-.145.737.66-.308.385.291-.109,1.094.356,1.311.759,1.219,2.986-1.6,3.993C154.488,101.3,154.581,98.605,156.441,98.172Z" fill="#3a3a3a"/>
    <path d="M171.567,98.172c-.317-.317-.715-1.116.235-.917.74.157.52.584.7.116.582-1.526,1.376-.147.734.66-.306.384.293-.107,1.094.356,1.313.76,1.221,2.986-1.6,3.993C169.614,101.3,169.7,98.605,171.567,98.172Z" fill="#3a3a3a"/>
    <path d="M186.691,98.172c-.317-.317-.712-1.116.234-.917.741.157.52.584.7.116.583-1.526,1.382-.145.738.66-.308.385.29-.109,1.093.356,1.312.759,1.219,2.986-1.6,3.993C184.738,101.3,184.831,98.605,186.691,98.172Z" fill="#3a3a3a"/>
    <path d="M201.815,98.172c-.318-.317-.712-1.116.234-.917.741.157.52.584.7.116.583-1.526,1.382-.145.738.66-.308.385.29-.109,1.093.356,1.311.759,1.219,2.986-1.6,3.993C199.862,101.3,199.955,98.605,201.815,98.172Z" fill="#3a3a3a"/>
    <path d="M216.942,98.172c-.318-.317-.716-1.116.234-.917.74.157.52.584.7.116.582-1.526,1.376-.147.734.66-.306.384.293-.107,1.094.356,1.313.76,1.222,2.986-1.6,3.993C214.989,101.3,215.078,98.605,216.942,98.172Z" fill="#3a3a3a"/>
    <path d="M232.065,98.172c-.317-.317-.712-1.116.234-.917.741.157.521.584.7.116.583-1.526,1.382-.145.738.66-.308.385.29-.109,1.094.356,1.311.759,1.218,2.986-1.6,3.993C230.112,101.3,230.205,98.605,232.065,98.172Z" fill="#3a3a3a"/>
    <path d="M247.192,98.172c-.317-.317-.715-1.116.234-.917.741.157.52.584.7.116.583-1.526,1.377-.147.735.66-.306.384.292-.107,1.093.356,1.313.76,1.222,2.986-1.6,3.993C245.239,101.3,245.329,98.605,247.192,98.172Z" fill="#3a3a3a"/>
    <path d="M262.316,98.172c-.318-.317-.712-1.116.234-.917.741.157.52.584.7.116.583-1.526,1.382-.145.737.66-.307.385.291-.109,1.094.356,1.311.759,1.219,2.986-1.6,3.993C260.363,101.3,260.456,98.605,262.316,98.172Z" fill="#3a3a3a"/>
    <path d="M277.439,98.172c-.317-.317-.712-1.116.234-.917.741.157.521.584.7.116.582-1.526,1.381-.145.737.66-.308.385.29-.109,1.094.356,1.311.759,1.218,2.986-1.6,3.993C275.486,101.3,275.579,98.605,277.439,98.172Z" fill="#3a3a3a"/>
    <path d="M292.566,98.172c-.317-.317-.715-1.116.234-.917.741.157.52.584.7.116.583-1.526,1.377-.147.735.66-.306.384.293-.107,1.093.356,1.314.76,1.222,2.986-1.6,3.993C290.613,101.3,290.7,98.605,292.566,98.172Z" fill="#3a3a3a"/>
    <path d="M307.69,98.172c-.318-.317-.712-1.116.234-.917.741.157.52.584.7.116.583-1.526,1.382-.145.738.66-.308.385.29-.109,1.093.356,1.311.759,1.219,2.986-1.6,3.993C305.737,101.3,305.83,98.605,307.69,98.172Z" fill="#3a3a3a"/>
    <path d="M322.817,98.172c-.318-.317-.716-1.116.234-.917.741.157.52.584.7.116.582-1.526,1.377-.147.734.66-.306.384.293-.107,1.094.356,1.313.76,1.222,2.986-1.6,3.993C320.864,101.3,320.953,98.605,322.817,98.172Z" fill="#3a3a3a"/>
    <path d="M337.94,98.172c-.317-.317-.712-1.116.234-.917.741.157.521.584.7.116.583-1.526,1.382-.145.738.66-.308.385.29-.109,1.094.356,1.311.759,1.218,2.986-1.6,3.993C335.987,101.3,336.08,98.605,337.94,98.172Z" fill="#3a3a3a"/>
    <path d="M353.064,98.172c-.318-.317-.712-1.116.234-.917.741.157.52.584.7.116.583-1.526,1.382-.145.738.66-.308.385.29-.109,1.093.356,1.311.759,1.219,2.986-1.6,3.993C351.111,101.3,351.2,98.605,353.064,98.172Z" fill="#3a3a3a"/>
    <path d="M368.191,98.172c-.318-.317-.715-1.116.234-.917.741.157.52.584.7.116.583-1.526,1.377-.147.734.66-.305.384.293-.107,1.094.356,1.313.76,1.222,2.986-1.6,3.993C366.238,101.3,366.328,98.605,368.191,98.172Z" fill="#3a3a3a"/>
    <path d="M383.314,98.172c-.317-.317-.712-1.116.234-.917.741.157.521.584.7.116.582-1.526,1.382-.145.737.66-.308.385.29-.109,1.094.356,1.311.759,1.218,2.986-1.6,3.993C381.361,101.3,381.454,98.605,383.314,98.172Z" fill="#3a3a3a"/>
    <path d="M398.441,98.172c-.317-.317-.715-1.116.234-.917.741.157.52.584.7.116.583-1.526,1.377-.147.735.66-.306.384.293-.107,1.093.356,1.314.76,1.222,2.986-1.6,3.993C396.488,101.3,396.578,98.605,398.441,98.172Z" fill="#3a3a3a"/>
    <path d="M413.565,98.172c-.318-.317-.712-1.116.234-.917.741.157.52.584.7.116.583-1.526,1.382-.145.738.66-.308.385.29-.109,1.093.356,1.311.759,1.219,2.986-1.6,3.993C411.612,101.3,411.705,98.605,413.565,98.172Z" fill="#3a3a3a"/>
    <path d="M428.688,98.172c-.317-.317-.711-1.116.235-.917.74.157.52.584.7.116.582-1.526,1.382-.145.737.66-.308.385.291-.109,1.094.356,1.311.759,1.218,2.986-1.6,3.993C426.735,101.3,426.828,98.605,428.688,98.172Z" fill="#3a3a3a"/>
    <path d="M443.815,98.172c-.317-.317-.715-1.116.234-.917.741.157.521.584.7.116.583-1.526,1.382-.145.738.66-.308.385.29-.109,1.094.356,1.311.759,1.218,2.986-1.6,3.993C441.862,101.3,441.952,98.605,443.815,98.172Z" fill="#3a3a3a"/>
    <path d="M458.939,98.172c-.318-.317-.715-1.116.234-.917.741.157.52.584.7.116.583-1.526,1.382-.145.738.66-.308.385.29-.109,1.093.356,1.311.759,1.219,2.986-1.6,3.993C456.986,101.3,457.076,98.605,458.939,98.172Z" fill="#3a3a3a"/>
    <path d="M474.063,98.172c-.318-.317-.716-1.116.234-.917.74.157.52.584.7.116.582-1.526,1.382-.145.737.66-.308.385.291-.109,1.094.356,1.311.759,1.218,2.986-1.6,3.993C472.11,101.3,472.2,98.605,474.063,98.172Z" fill="#3a3a3a"/>
    <path d="M489.189,98.172c-.317-.317-.715-1.116.234-.917.741.157.521.584.7.116.582-1.526,1.382-.145.737.66-.308.385.29-.109,1.094.356,1.311.759,1.218,2.986-1.6,3.993C487.236,101.3,487.326,98.605,489.189,98.172Z" fill="#3a3a3a"/>
    <path d="M504.313,98.172c-.317-.317-.715-1.116.234-.917.741.157.52.584.7.116.583-1.526,1.382-.145.738.66-.308.385.29-.109,1.093.356,1.311.759,1.219,2.986-1.6,3.993C502.36,101.3,502.45,98.605,504.313,98.172Z" fill="#3a3a3a"/>
    <path d="M519.44,98.172c-.318-.317-.715-1.116.234-.917.741.157.52.584.7.116.583-1.526,1.382-.145.738.66-.308.385.29-.109,1.093.356,1.311.759,1.219,2.986-1.6,3.993C517.487,101.3,517.577,98.605,519.44,98.172Z" fill="#3a3a3a"/>
    <path d="M534.563,98.172c-.317-.317-.715-1.116.235-.917.74.157.52.584.7.116.582-1.526,1.382-.145.737.66-.308.385.291-.109,1.094.356,1.311.759,1.218,2.986-1.6,3.993C532.61,101.3,532.7,98.605,534.563,98.172Z" fill="#3a3a3a"/>
    <path d="M549.687,98.172c-.317-.317-.715-1.116.234-.917.741.157.52.584.7.116.583-1.526,1.382-.145.738.66-.308.385.29-.109,1.093.356,1.312.759,1.219,2.986-1.6,3.993C547.734,101.3,547.824,98.605,549.687,98.172Z" fill="#3a3a3a"/>
    <path d="M603.024,102.37c-.083-.006-.157-.014-.231-.026a3.866,3.866,0,0,1-3.271-3.78,3.812,3.812,0,0,1,.189-1.152,1.774,1.774,0,0,1,.068-.211c.048-.122.091-.214.137-.308a4.427,4.427,0,0,1,.228-.417l.055-.084.051-.064a2.824,2.824,0,0,1,.269-.352l9.608-10.612h-.141l8.96-9.739V74.582l.863-.012a6.862,6.862,0,1,0-12.635-3.72v1.741h-.379a3.817,3.817,0,0,1-6.872,0h-.366l-.016-1.735a14.515,14.515,0,1,1,26.12,8.7V79.6l-.221.276-.141.16a3.179,3.179,0,0,1-.292.363L612.029,94.731h12.709a3.833,3.833,0,0,1,0,7.665H603.354A2.77,2.77,0,0,1,603.024,102.37Z" fill="#3a3a3a"/>
    <path d="M668.835,92.131a10.239,10.239,0,0,1-17.586,7.132v10.473a1.447,1.447,0,1,1-2.893,0V92.131a10.24,10.24,0,1,1,20.479,0Zm-2.895,0a7.346,7.346,0,1,0-7.344,7.346A7.354,7.354,0,0,0,665.94,92.131Z" fill="#3a3a3a"/>
    <path d="M691.8,92.163a10.24,10.24,0,1,1-10.24-10.24A10.239,10.239,0,0,1,691.8,92.163Zm-2.893,0a7.347,7.347,0,1,0-7.347,7.343A7.356,7.356,0,0,0,688.907,92.163Z" fill="#3a3a3a"/>
    <path d="M713.86,100.943a1.447,1.447,0,0,1-2.893,0V99.532a9.383,9.383,0,0,1-6.833,2.844c-5.657,0-9.291-4.585-9.291-10.239V83.353a1.447,1.447,0,0,1,2.893,0v8.784c0,4.05,2.344,7.347,6.4,7.347s6.824-3.284,6.833-7.325V83.34a1.447,1.447,0,0,1,2.893,0v17.6Z" fill="#3a3a3a"/>
    <path d="M737.338,92.147v8.783a1.447,1.447,0,0,1-2.893,0V92.147c0-4.051-2.341-7.344-6.4-7.344-4.04,0-6.821,3.28-6.834,7.321v8.822a1.446,1.446,0,1,1-2.892,0V83.34a1.446,1.446,0,0,1,2.892,0v1.411a9.391,9.391,0,0,1,6.834-2.844C733.7,81.907,737.338,86.493,737.338,92.147Z" fill="#3a3a3a"/>
    <path d="M760.87,92.163a10.245,10.245,0,1,1-2.9-7.133V74.557a1.448,1.448,0,0,1,2.9,0Zm-2.9,0a7.346,7.346,0,1,0-7.344,7.34A7.366,7.366,0,0,0,757.974,92.166Z" fill="#3a3a3a"/>
    <path d="M777.4,99.247c-.074.105-.154.212-.237.317a8.06,8.06,0,0,1-6.357,2.678,9.72,9.72,0,0,1-2.648-.359,7.079,7.079,0,0,1-4.195-3.319l-.045-.074a1.447,1.447,0,0,1,2.457-1.53l.067.109a4.225,4.225,0,0,0,2.508,2.033c1.949.555,4.723.212,5.958-1.35.045-.057.083-.112.122-.167a2.815,2.815,0,0,0,.269-2.552,3.186,3.186,0,0,0-2.126-2.04c-.439-.129-1.392-.308-2.152-.452-.676-.128-1.26-.236-1.626-.33a5.257,5.257,0,0,1-4.015-5.721,5.611,5.611,0,0,1,3.926-4.2c2.774-.918,6.744-.089,8.334,2.844a1.446,1.446,0,1,1-2.543,1.376c-.808-1.5-3.248-2.014-4.884-1.475a2.766,2.766,0,0,0-1.975,1.914,2.4,2.4,0,0,0,1.885,2.46c.27.07.86.183,1.434.292.911.17,1.854.349,2.434.519a6.049,6.049,0,0,1,4.041,3.861A5.732,5.732,0,0,1,777.4,99.247Z" fill="#3a3a3a"/>
    <path d="M145.111,229.526c-.318-.318-.712-1.116.234-.917.741.157.52.584.7.115.583-1.525,1.382-.144.738.661-.308.385.29-.109,1.093.356,1.311.758,1.219,2.985-1.6,3.992C143.158,232.653,143.251,229.959,145.111,229.526Z" fill="#3a3a3a"/>
    <path d="M160.238,229.526c-.318-.318-.716-1.116.234-.917.74.157.52.584.7.115.582-1.525,1.376-.146.734.661-.306.384.293-.108,1.094.356,1.313.76,1.222,2.985-1.6,3.992C158.285,232.653,158.374,229.959,160.238,229.526Z" fill="#3a3a3a"/>
    <path d="M175.361,229.526c-.317-.318-.712-1.116.234-.917.741.157.521.584.7.115.583-1.525,1.382-.144.738.661-.308.385.29-.109,1.094.356,1.311.758,1.218,2.985-1.6,3.992C173.408,232.653,173.5,229.959,175.361,229.526Z" fill="#3a3a3a"/>
    <path d="M190.485,229.526c-.318-.318-.712-1.116.234-.917.741.157.52.584.7.115.583-1.525,1.382-.144.738.661-.308.385.29-.109,1.093.356,1.311.758,1.219,2.985-1.6,3.992C188.532,232.653,188.625,229.959,190.485,229.526Z" fill="#3a3a3a"/>
    <path d="M205.612,229.526c-.318-.318-.715-1.116.234-.917.741.157.52.584.7.115.583-1.525,1.377-.146.734.661-.305.384.293-.108,1.094.356,1.313.76,1.222,2.985-1.6,3.992C203.659,232.653,203.748,229.959,205.612,229.526Z" fill="#3a3a3a"/>
    <path d="M220.735,229.526c-.317-.318-.712-1.116.234-.917.741.157.521.584.7.115.582-1.525,1.381-.144.737.661-.308.385.29-.109,1.094.356,1.311.758,1.218,2.985-1.6,3.992C218.782,232.653,218.875,229.959,220.735,229.526Z" fill="#3a3a3a"/>
    <path d="M235.862,229.526c-.317-.318-.715-1.116.234-.917.741.157.52.584.7.115.583-1.525,1.377-.146.735.661-.306.384.293-.108,1.093.356,1.314.76,1.222,2.985-1.6,3.992C233.909,232.653,234,229.959,235.862,229.526Z" fill="#3a3a3a"/>
    <path d="M250.986,229.526c-.318-.318-.712-1.116.234-.917.741.157.52.584.7.115.583-1.525,1.382-.144.738.661-.308.385.29-.109,1.093.356,1.311.758,1.219,2.985-1.6,3.992C249.033,232.653,249.126,229.959,250.986,229.526Z" fill="#3a3a3a"/>
    <path d="M266.109,229.526c-.317-.318-.712-1.116.235-.917.74.157.52.584.7.115.582-1.525,1.382-.144.737.661-.308.385.29-.109,1.094.356,1.311.758,1.218,2.985-1.6,3.992C264.156,232.653,264.249,229.959,266.109,229.526Z" fill="#3a3a3a"/>
    <path d="M281.236,229.526c-.317-.318-.715-1.116.234-.917.741.157.521.584.7.115.583-1.525,1.377-.146.735.661-.306.384.293-.108,1.093.356,1.314.76,1.222,2.985-1.6,3.992C279.283,232.653,279.373,229.959,281.236,229.526Z" fill="#3a3a3a"/>
    <path d="M296.36,229.526c-.318-.318-.712-1.116.234-.917.741.157.52.584.7.115.583-1.525,1.382-.144.738.661-.308.385.29-.109,1.093.356,1.311.758,1.219,2.985-1.6,3.992C294.407,232.653,294.5,229.959,296.36,229.526Z" fill="#3a3a3a"/>
    <path d="M311.487,229.526c-.318-.318-.715-1.116.234-.917.741.157.52.584.7.115.583-1.525,1.377-.146.734.661-.305.384.293-.108,1.094.356,1.313.76,1.222,2.985-1.6,3.992C309.534,232.653,309.624,229.959,311.487,229.526Z" fill="#3a3a3a"/>
    <path d="M326.61,229.526c-.317-.318-.712-1.116.234-.917.741.157.521.584.7.115.582-1.525,1.382-.144.737.661-.308.385.29-.109,1.094.356,1.311.758,1.218,2.985-1.6,3.992C324.657,232.653,324.75,229.959,326.61,229.526Z" fill="#3a3a3a"/>
    <path d="M341.734,229.526c-.317-.318-.712-1.116.234-.917.741.157.52.584.7.115.583-1.525,1.382-.144.738.661-.308.385.29-.109,1.093.356,1.311.758,1.219,2.985-1.6,3.992C339.781,232.653,339.874,229.959,341.734,229.526Z" fill="#3a3a3a"/>
    <path d="M356.861,229.526c-.318-.318-.715-1.116.234-.917.741.157.52.584.7.115.583-1.525,1.377-.146.734.661-.305.384.293-.108,1.094.356,1.313.76,1.222,2.985-1.6,3.992C354.908,232.653,355,229.959,356.861,229.526Z" fill="#3a3a3a"/>
    <path d="M371.984,229.526c-.317-.318-.711-1.116.235-.917.74.157.52.584.7.115.582-1.525,1.382-.144.737.661-.308.385.291-.109,1.094.356,1.311.758,1.218,2.985-1.6,3.992C370.031,232.653,370.124,229.959,371.984,229.526Z" fill="#3a3a3a"/>
    <path d="M387.111,229.526c-.317-.318-.715-1.116.234-.917.741.157.521.584.7.115.583-1.525,1.377-.146.735.661-.306.384.293-.108,1.093.356,1.314.76,1.222,2.985-1.6,3.992C385.158,232.653,385.248,229.959,387.111,229.526Z" fill="#3a3a3a"/>
    <path d="M402.235,229.526c-.318-.318-.712-1.116.234-.917.741.157.52.584.7.115.583-1.525,1.382-.144.738.661-.308.385.29-.109,1.093.356,1.311.758,1.219,2.985-1.6,3.992C400.282,232.653,400.375,229.959,402.235,229.526Z" fill="#3a3a3a"/>
    <path d="M417.359,229.526c-.318-.318-.712-1.116.234-.917.74.157.52.584.7.115.582-1.525,1.382-.144.737.661-.308.385.291-.109,1.094.356,1.311.758,1.218,2.985-1.6,3.992C415.406,232.653,415.5,229.959,417.359,229.526Z" fill="#3a3a3a"/>
    <path d="M432.485,229.526c-.317-.318-.715-1.116.234-.917.741.157.521.584.7.115.582-1.525,1.376-.146.734.661-.306.384.293-.108,1.094.356,1.31.759,1.218,2.985-1.6,3.992C430.532,232.653,430.622,229.959,432.485,229.526Z" fill="#3a3a3a"/>
    <path d="M447.609,229.526c-.317-.318-.715-1.116.234-.917.741.157.52.584.7.115.583-1.525,1.382-.144.738.661-.308.385.29-.109,1.093.356,1.311.758,1.219,2.985-1.6,3.992C445.656,232.653,445.746,229.959,447.609,229.526Z" fill="#3a3a3a"/>
    <path d="M462.733,229.526c-.318-.318-.715-1.116.234-.917.741.157.52.584.7.115.582-1.525,1.382-.144.737.661-.308.385.291-.109,1.094.356,1.311.758,1.219,2.985-1.6,3.992C460.78,232.653,460.869,229.959,462.733,229.526Z" fill="#3a3a3a"/>
    <path d="M477.859,229.526c-.317-.318-.715-1.116.235-.917.74.157.52.584.7.115.582-1.525,1.382-.144.737.661-.308.385.291-.109,1.094.356,1.311.758,1.218,2.985-1.6,3.992C475.906,232.653,476,229.959,477.859,229.526Z" fill="#3a3a3a"/>
    <path d="M492.983,229.526c-.317-.318-.715-1.116.234-.917.741.157.52.584.7.115.583-1.525,1.382-.144.738.661-.308.385.29-.109,1.093.356,1.312.758,1.219,2.985-1.6,3.992C491.03,232.653,491.12,229.959,492.983,229.526Z" fill="#3a3a3a"/>
    <path d="M508.11,229.526c-.318-.318-.715-1.116.234-.917.741.157.52.584.7.115.583-1.525,1.382-.144.738.661-.308.385.29-.109,1.093.356,1.311.758,1.219,2.985-1.6,3.992C506.157,232.653,506.247,229.959,508.11,229.526Z" fill="#3a3a3a"/>
    <path d="M523.234,229.526c-.318-.318-.716-1.116.234-.917.74.157.52.584.7.115.582-1.525,1.382-.144.737.661-.308.385.291-.109,1.094.356,1.311.758,1.219,2.985-1.6,3.992C521.281,232.653,521.37,229.959,523.234,229.526Z" fill="#3a3a3a"/>
    <path d="M538.357,229.526c-.317-.318-.715-1.116.234-.917.741.157.521.584.7.115.583-1.525,1.382-.144.738.661-.308.385.29-.109,1.094.356,1.311.758,1.218,2.985-1.6,3.992C536.4,232.653,536.494,229.959,538.357,229.526Z" fill="#3a3a3a"/>
    <path d="M553.484,229.526c-.317-.318-.715-1.116.234-.917.741.157.52.584.7.115.583-1.525,1.382-.144.738.661-.308.385.29-.109,1.093.356,1.312.758,1.219,2.985-1.6,3.992C551.531,232.653,551.621,229.959,553.484,229.526Z" fill="#3a3a3a"/>
    <path d="M594.888,233.749a3.836,3.836,0,0,1-3.832-3.832V197.88l-.1.052a3.88,3.88,0,0,1-1.686.394,3.834,3.834,0,0,1-1.6-7.315l5.308-2.809-.02-.061.824-.279.706-.215.032.071c.055-.01.189-.023.189-.023l.167-.006a2.111,2.111,0,0,1,.263.016l.026-.083,1.533.449-.013.073c.1.052.182.1.269.154a2.991,2.991,0,0,1,.308.225,2.772,2.772,0,0,1,.276.234,3.343,3.343,0,0,1,.266.285,3.132,3.132,0,0,1,.215.27c.081.116.155.248.231.378a2.531,2.531,0,0,1,.125.237l.048.1.019.058c.026.061.064.183.1.3a2.729,2.729,0,0,1,.086.3,2.511,2.511,0,0,1,.052.346l.009.061c.007.061.023.132.026.2v38.614A3.831,3.831,0,0,1,594.888,233.749Z" fill="#3a3a3a"/>
    <path d="M620,233.749a15,15,0,0,1-14.982-14.982,14.84,14.84,0,0,1,3.053-9.06l13.876-20.334a3.831,3.831,0,0,1,6.352,4.284l-6.952,10.188a14.982,14.982,0,0,1-1.347,29.9Zm0-22.3a7.343,7.343,0,0,0-5.9,3l-.324.477a7.186,7.186,0,0,0-1.1,3.836A7.32,7.32,0,1,0,620,211.449Z" fill="#3a3a3a"/>
    <path d="M668.791,220.863A10.24,10.24,0,0,1,651.2,228v10.473a1.446,1.446,0,1,1-2.892,0V220.863a10.24,10.24,0,0,1,20.479,0Zm-2.9,0a7.346,7.346,0,1,0-7.344,7.347A7.354,7.354,0,0,0,665.9,220.863Z" fill="#3a3a3a"/>
    <path d="M691.755,220.9a10.24,10.24,0,1,1-10.239-10.24A10.239,10.239,0,0,1,691.755,220.9Zm-2.892,0a7.347,7.347,0,1,0-7.347,7.343A7.356,7.356,0,0,0,688.863,220.9Z" fill="#3a3a3a"/>
    <path d="M713.815,229.676a1.446,1.446,0,0,1-2.892,0v-1.411a9.387,9.387,0,0,1-6.834,2.844c-5.657,0-9.29-4.585-9.29-10.239v-8.784a1.446,1.446,0,0,1,2.892,0v8.784c0,4.05,2.344,7.347,6.4,7.347s6.824-3.284,6.834-7.325v-8.819a1.446,1.446,0,0,1,2.892,0v17.6Z" fill="#3a3a3a"/>
    <path d="M737.293,220.879v8.784a1.447,1.447,0,0,1-2.893,0v-8.784c0-4.05-2.341-7.343-6.4-7.343s-6.821,3.28-6.834,7.321v8.822a1.447,1.447,0,0,1-2.893,0V212.073a1.447,1.447,0,0,1,2.893,0v1.411A9.388,9.388,0,0,1,728,210.64C733.66,210.64,737.293,215.226,737.293,220.879Z" fill="#3a3a3a"/>
    <path d="M760.825,220.9a10.245,10.245,0,1,1-2.9-7.133V203.29a1.448,1.448,0,0,1,2.9,0Zm-2.9,0a7.346,7.346,0,1,0-7.344,7.34A7.366,7.366,0,0,0,757.929,220.9Z" fill="#3a3a3a"/>
    <path d="M777.353,227.979c-.074.106-.153.213-.237.318a8.058,8.058,0,0,1-6.356,2.678,9.727,9.727,0,0,1-2.649-.359,7.079,7.079,0,0,1-4.195-3.32l-.044-.073a1.447,1.447,0,0,1,2.456-1.53l.067.109a4.232,4.232,0,0,0,2.508,2.033c1.95.555,4.723.212,5.958-1.35.046-.057.085-.111.126-.167a2.784,2.784,0,0,0,.266-2.552,3.19,3.19,0,0,0-2.126-2.04c-.439-.129-1.392-.308-2.152-.452-.677-.128-1.261-.236-1.626-.33a5.256,5.256,0,0,1-4.015-5.721,5.609,5.609,0,0,1,3.925-4.2c2.774-.918,6.745-.089,8.335,2.844a1.446,1.446,0,0,1-2.543,1.376c-.809-1.5-3.249-2.014-4.884-1.475a2.768,2.768,0,0,0-1.976,1.914,2.4,2.4,0,0,0,1.886,2.46c.269.07.859.183,1.433.292.911.17,1.854.349,2.434.519a6.047,6.047,0,0,1,4.041,3.861A5.727,5.727,0,0,1,777.353,227.979Z" fill="#3a3a3a"/>
    <path d="M145.111,360.88c-.318-.318-.712-1.116.234-.918.741.158.52.584.7.116.583-1.526,1.382-.145.738.661-.308.384.29-.109,1.093.355,1.311.759,1.219,2.986-1.6,3.993C143.158,364.006,143.251,361.313,145.111,360.88Z" fill="#3a3a3a"/>
    <path d="M160.238,360.88c-.318-.318-.716-1.116.234-.918.74.158.52.584.7.116.582-1.526,1.376-.146.734.661-.306.383.293-.108,1.094.355,1.313.761,1.222,2.986-1.6,3.993C158.285,364.006,158.374,361.313,160.238,360.88Z" fill="#3a3a3a"/>
    <path d="M175.361,360.88c-.317-.318-.712-1.116.234-.918.741.158.521.584.7.116.583-1.526,1.382-.145.738.661-.308.384.29-.109,1.094.355,1.311.759,1.218,2.986-1.6,3.993C173.408,364.006,173.5,361.313,175.361,360.88Z" fill="#3a3a3a"/>
    <path d="M190.485,360.88c-.318-.318-.712-1.116.234-.918.741.158.52.584.7.116.583-1.526,1.382-.145.738.661-.308.384.29-.109,1.093.355,1.311.759,1.219,2.986-1.6,3.993C188.532,364.006,188.625,361.313,190.485,360.88Z" fill="#3a3a3a"/>
    <path d="M205.612,360.88c-.318-.318-.715-1.116.234-.918.741.158.52.584.7.116.583-1.526,1.377-.146.734.661-.305.383.293-.108,1.094.355,1.313.761,1.222,2.986-1.6,3.993C203.659,364.006,203.748,361.313,205.612,360.88Z" fill="#3a3a3a"/>
    <path d="M220.735,360.88c-.317-.318-.712-1.116.234-.918.741.158.521.584.7.116.582-1.526,1.381-.145.737.661-.308.384.29-.109,1.094.355,1.311.759,1.218,2.986-1.6,3.993C218.782,364.006,218.875,361.313,220.735,360.88Z" fill="#3a3a3a"/>
    <path d="M235.862,360.88c-.317-.318-.715-1.116.234-.918.741.158.52.584.7.116.583-1.526,1.377-.146.735.661-.306.383.293-.108,1.093.355,1.314.761,1.222,2.986-1.6,3.993C233.909,364.006,234,361.313,235.862,360.88Z" fill="#3a3a3a"/>
    <path d="M250.986,360.88c-.318-.318-.712-1.116.234-.918.741.158.52.584.7.116.583-1.526,1.382-.145.738.661-.308.384.29-.109,1.093.355,1.311.759,1.219,2.986-1.6,3.993C249.033,364.006,249.126,361.313,250.986,360.88Z" fill="#3a3a3a"/>
    <path d="M266.109,360.88c-.317-.318-.712-1.116.235-.918.74.158.52.584.7.116.582-1.526,1.382-.145.737.661-.308.384.29-.109,1.094.355,1.311.759,1.218,2.986-1.6,3.993C264.156,364.006,264.249,361.313,266.109,360.88Z" fill="#3a3a3a"/>
    <path d="M281.236,360.88c-.317-.318-.715-1.116.234-.918.741.158.521.584.7.116.583-1.526,1.377-.146.735.661-.306.383.293-.108,1.093.355,1.314.761,1.222,2.986-1.6,3.993C279.283,364.006,279.373,361.313,281.236,360.88Z" fill="#3a3a3a"/>
    <path d="M296.36,360.88c-.318-.318-.712-1.116.234-.918.741.158.52.584.7.116.583-1.526,1.382-.145.738.661-.308.384.29-.109,1.093.355,1.311.759,1.219,2.986-1.6,3.993C294.407,364.006,294.5,361.313,296.36,360.88Z" fill="#3a3a3a"/>
    <path d="M311.487,360.88c-.318-.318-.715-1.116.234-.918.741.158.52.584.7.116.583-1.526,1.377-.146.734.661-.305.383.293-.108,1.094.355,1.313.761,1.222,2.986-1.6,3.993C309.534,364.006,309.624,361.313,311.487,360.88Z" fill="#3a3a3a"/>
    <path d="M326.61,360.88c-.317-.318-.712-1.116.234-.918.741.158.521.584.7.116.582-1.526,1.382-.145.737.661-.308.384.29-.109,1.094.355,1.311.759,1.218,2.986-1.6,3.993C324.657,364.006,324.75,361.313,326.61,360.88Z" fill="#3a3a3a"/>
    <path d="M341.734,360.88c-.317-.318-.712-1.116.234-.918.741.158.52.584.7.116.583-1.526,1.382-.145.738.661-.308.384.29-.109,1.093.355,1.311.759,1.219,2.986-1.6,3.993C339.781,364.006,339.874,361.313,341.734,360.88Z" fill="#3a3a3a"/>
    <path d="M356.861,360.88c-.318-.318-.715-1.116.234-.918.741.158.52.584.7.116.583-1.526,1.377-.146.734.661-.305.383.293-.108,1.094.355,1.313.761,1.222,2.986-1.6,3.993C354.908,364.006,355,361.313,356.861,360.88Z" fill="#3a3a3a"/>
    <path d="M371.984,360.88c-.317-.318-.711-1.116.235-.918.74.158.52.584.7.116.582-1.526,1.382-.145.737.661-.308.384.291-.109,1.094.355,1.311.759,1.218,2.986-1.6,3.993C370.031,364.006,370.124,361.313,371.984,360.88Z" fill="#3a3a3a"/>
    <path d="M387.111,360.88c-.317-.318-.715-1.116.234-.918.741.158.521.584.7.116.583-1.526,1.377-.146.735.661-.306.383.293-.108,1.093.355,1.314.761,1.222,2.986-1.6,3.993C385.158,364.006,385.248,361.313,387.111,360.88Z" fill="#3a3a3a"/>
    <path d="M402.235,360.88c-.318-.318-.712-1.116.234-.918.741.158.52.584.7.116.583-1.526,1.382-.145.738.661-.308.384.29-.109,1.093.355,1.311.759,1.219,2.986-1.6,3.993C400.282,364.006,400.375,361.313,402.235,360.88Z" fill="#3a3a3a"/>
    <path d="M417.359,360.88c-.318-.318-.712-1.116.234-.918.74.158.52.584.7.116.582-1.526,1.382-.145.737.661-.308.384.291-.109,1.094.355,1.311.759,1.218,2.986-1.6,3.993C415.406,364.006,415.5,361.313,417.359,360.88Z" fill="#3a3a3a"/>
    <path d="M432.485,360.88c-.317-.318-.715-1.116.234-.918.741.158.521.584.7.116.582-1.526,1.376-.146.734.661-.306.383.293-.109,1.094.355,1.31.76,1.218,2.986-1.6,3.993C430.532,364.006,430.622,361.313,432.485,360.88Z" fill="#3a3a3a"/>
    <path d="M447.609,360.88c-.317-.318-.715-1.116.234-.918.741.158.52.584.7.116.583-1.526,1.382-.145.738.661-.308.384.29-.109,1.093.355,1.311.759,1.219,2.986-1.6,3.993C445.656,364.006,445.746,361.313,447.609,360.88Z" fill="#3a3a3a"/>
    <path d="M462.733,360.88c-.318-.318-.715-1.116.234-.918.741.158.52.584.7.116.582-1.526,1.382-.145.737.661-.308.384.291-.109,1.094.355,1.311.759,1.219,2.986-1.6,3.993C460.78,364.006,460.869,361.313,462.733,360.88Z" fill="#3a3a3a"/>
    <path d="M477.859,360.88c-.317-.318-.715-1.116.235-.918.74.158.52.584.7.116.582-1.526,1.382-.145.737.661-.308.384.291-.109,1.094.355,1.311.759,1.218,2.986-1.6,3.993C475.906,364.006,476,361.313,477.859,360.88Z" fill="#3a3a3a"/>
    <path d="M492.983,360.88c-.317-.318-.715-1.116.234-.918.741.158.52.584.7.116.583-1.526,1.382-.145.738.661-.308.384.29-.109,1.093.355,1.312.759,1.219,2.986-1.6,3.993C491.03,364.006,491.12,361.313,492.983,360.88Z" fill="#3a3a3a"/>
    <path d="M508.11,360.88c-.318-.318-.715-1.116.234-.918.741.158.52.584.7.116.583-1.526,1.382-.145.738.661-.308.384.29-.109,1.093.355,1.311.759,1.219,2.986-1.6,3.993C506.157,364.006,506.247,361.313,508.11,360.88Z" fill="#3a3a3a"/>
    <path d="M523.234,360.88c-.318-.318-.716-1.116.234-.918.74.158.52.584.7.116.582-1.526,1.382-.145.737.661-.308.384.291-.109,1.094.355,1.311.759,1.219,2.986-1.6,3.993C521.281,364.006,521.37,361.313,523.234,360.88Z" fill="#3a3a3a"/>
    <path d="M538.357,360.88c-.317-.318-.715-1.116.234-.918.741.158.521.584.7.116.583-1.526,1.382-.145.738.661-.308.384.29-.109,1.094.355,1.311.759,1.218,2.986-1.6,3.993C536.4,364.006,536.494,361.313,538.357,360.88Z" fill="#3a3a3a"/>
    <path d="M553.484,360.88c-.317-.318-.715-1.116.234-.918.741.158.52.584.7.116.583-1.526,1.382-.145.738.661-.308.384.29-.109,1.093.355,1.312.759,1.219,2.986-1.6,3.993C551.531,364.006,551.621,361.313,553.484,360.88Z" fill="#3a3a3a"/>
    <path d="M572.523,365.077c-.083-.006-.157-.013-.231-.025a3.865,3.865,0,0,1-3.267-3.781,3.8,3.8,0,0,1,.186-1.151,1.681,1.681,0,0,1,.067-.212c.048-.122.092-.214.138-.308a4.231,4.231,0,0,1,.228-.417l.054-.083.051-.064a2.941,2.941,0,0,1,.27-.353l9.608-10.612h-.142l8.96-9.739V337.29l.863-.013a6.862,6.862,0,1,0-12.635-3.72V335.3h-.378a3.818,3.818,0,0,1-6.873,0h-.365l-.016-1.735a14.514,14.514,0,1,1,26.12,8.7v.038l-.222.276-.141.161a3.065,3.065,0,0,1-.292.362l-12.978,14.335h12.709a3.832,3.832,0,1,1,0,7.664H572.854A2.771,2.771,0,0,1,572.523,365.077Z" fill="#3a3a3a"/>
    <path d="M624.218,365.1a3.836,3.836,0,0,1-3.832-3.832v-6.85H605.06c-.1,0-.189-.01-.282-.019a3.581,3.581,0,0,1-.442-.055,2.593,2.593,0,0,1-.372-.1l-.061-.019c-.087-.026-.2-.061-.308-.106a3.1,3.1,0,0,1-.446-.228,1.861,1.861,0,0,1-.189-.106l-.064-.044a3.716,3.716,0,0,1-.542-.449l-.081-.077-.083-.106-.061.032-.25-.423c-.061-.093-.108-.184-.157-.273a3.677,3.677,0,0,1-.2-.391l-.167-.337.045-.026a3.246,3.246,0,0,1-.115-.49,3.524,3.524,0,0,1-.055-.529l0-.061a2.188,2.188,0,0,1,.019-.311,3.837,3.837,0,0,1,.052-.453,2.651,2.651,0,0,1,.093-.34l.025-.086a2.528,2.528,0,0,1,.1-.292,3.742,3.742,0,0,1,.225-.443,2.482,2.482,0,0,1,.135-.234l18.991-27.72a3.8,3.8,0,0,1,3.181-1.69c.048,0,.109-.006.173-.006a3.836,3.836,0,0,1,3.832,3.832v23.882h2.633a3.832,3.832,0,0,1,0,7.664H628.05v6.85A3.836,3.836,0,0,1,624.218,365.1Zm-3.832-18.346V335l-8.056,11.76Z" fill="#3a3a3a"/>
    <path d="M668.835,354.838a10.239,10.239,0,0,1-17.586,7.132v10.474a1.447,1.447,0,0,1-2.893,0V354.838a10.24,10.24,0,1,1,20.479,0Zm-2.895,0a7.346,7.346,0,1,0-7.344,7.347A7.354,7.354,0,0,0,665.94,354.838Z" fill="#3a3a3a"/>
    <path d="M691.8,354.87a10.24,10.24,0,1,1-10.24-10.24A10.238,10.238,0,0,1,691.8,354.87Zm-2.893,0a7.347,7.347,0,1,0-7.347,7.344A7.356,7.356,0,0,0,688.907,354.87Z" fill="#3a3a3a"/>
    <path d="M713.86,363.65a1.447,1.447,0,1,1-2.893,0v-1.411a9.384,9.384,0,0,1-6.833,2.845c-5.657,0-9.291-4.586-9.291-10.24v-8.783a1.447,1.447,0,1,1,2.893,0v8.783c0,4.051,2.344,7.347,6.4,7.347s6.824-3.284,6.833-7.324v-8.819a1.447,1.447,0,0,1,2.893,0v17.6Z" fill="#3a3a3a"/>
    <path d="M737.338,354.854v8.784a1.447,1.447,0,0,1-2.893,0v-8.784c0-4.05-2.341-7.344-6.4-7.344-4.04,0-6.821,3.281-6.834,7.321v8.823a1.446,1.446,0,1,1-2.892,0V346.048a1.446,1.446,0,1,1,2.892,0v1.411a9.388,9.388,0,0,1,6.834-2.845C733.7,344.614,737.338,349.2,737.338,354.854Z" fill="#3a3a3a"/>
    <path d="M760.87,354.87a10.247,10.247,0,1,1-2.9-7.132V337.264a1.448,1.448,0,0,1,2.9,0Zm-2.9,0a7.346,7.346,0,1,0-7.344,7.341A7.366,7.366,0,0,0,757.974,354.873Z" fill="#3a3a3a"/>
    <path d="M777.4,361.954c-.074.106-.154.212-.237.317a8.06,8.06,0,0,1-6.357,2.678,9.72,9.72,0,0,1-2.648-.359,7.072,7.072,0,0,1-4.195-3.319l-.045-.074a1.447,1.447,0,0,1,2.457-1.53l.067.109a4.226,4.226,0,0,0,2.508,2.034c1.949.554,4.723.212,5.958-1.35.045-.058.085-.112.125-.167a2.78,2.78,0,0,0,.266-2.553,3.184,3.184,0,0,0-2.126-2.039c-.439-.13-1.392-.308-2.152-.453-.676-.128-1.26-.236-1.626-.33a5.257,5.257,0,0,1-4.015-5.721A5.612,5.612,0,0,1,769.3,345c2.774-.917,6.744-.088,8.334,2.844a1.446,1.446,0,1,1-2.543,1.376c-.808-1.5-3.248-2.014-4.884-1.475a2.767,2.767,0,0,0-1.975,1.915,2.4,2.4,0,0,0,1.885,2.459c.27.07.86.183,1.434.292.911.17,1.854.349,2.434.52a6.049,6.049,0,0,1,4.041,3.861A5.73,5.73,0,0,1,777.4,361.954Z" fill="#3a3a3a"/>
    <path d="M145.111,492.233c-.318-.314-.712-1.116.234-.914.741.154.52.581.7.113.583-1.526,1.382-.145.738.66-.308.385.291-.107,1.093.356,1.313.759,1.219,2.986-1.6,4C143.158,495.36,143.251,492.666,145.111,492.233Z" fill="#3a3a3a"/>
    <path d="M160.238,492.233c-.318-.314-.716-1.116.234-.914.74.154.52.581.7.113.582-1.526,1.376-.147.734.66-.306.384.294-.106,1.094.356,1.315.761,1.222,2.986-1.6,4C158.285,495.36,158.374,492.666,160.238,492.233Z" fill="#3a3a3a"/>
    <path d="M175.361,492.233c-.317-.314-.712-1.116.234-.914.741.154.521.581.7.113.583-1.526,1.382-.145.738.66-.308.385.291-.107,1.094.356,1.313.759,1.218,2.986-1.6,4C173.408,495.36,173.5,492.666,175.361,492.233Z" fill="#3a3a3a"/>
    <path d="M190.485,492.233c-.318-.314-.712-1.116.234-.914.741.154.52.581.7.113.583-1.526,1.382-.145.738.66-.308.385.291-.107,1.093.356,1.313.759,1.219,2.986-1.6,4C188.532,495.36,188.625,492.666,190.485,492.233Z" fill="#3a3a3a"/>
    <path d="M205.612,492.233c-.318-.314-.715-1.116.234-.914.741.154.52.581.7.113.583-1.526,1.377-.147.734.66-.305.384.294-.106,1.094.356,1.315.761,1.222,2.986-1.6,4C203.659,495.36,203.748,492.666,205.612,492.233Z" fill="#3a3a3a"/>
    <path d="M220.735,492.233c-.317-.314-.712-1.116.234-.914.741.154.521.581.7.113.582-1.526,1.381-.145.737.66-.308.385.291-.107,1.094.356,1.313.759,1.218,2.986-1.6,4C218.782,495.36,218.875,492.666,220.735,492.233Z" fill="#3a3a3a"/>
    <path d="M235.862,492.233c-.317-.314-.715-1.116.234-.914.741.154.52.581.7.113.583-1.526,1.377-.147.735.66-.306.384.294-.106,1.093.356,1.315.761,1.222,2.986-1.6,4C233.909,495.36,234,492.666,235.862,492.233Z" fill="#3a3a3a"/>
    <path d="M250.986,492.233c-.318-.314-.712-1.116.234-.914.741.154.52.581.7.113.583-1.526,1.382-.145.738.66-.308.385.291-.107,1.093.356,1.313.759,1.219,2.986-1.6,4C249.033,495.36,249.126,492.666,250.986,492.233Z" fill="#3a3a3a"/>
    <path d="M266.109,492.233c-.317-.314-.712-1.116.235-.914.74.154.52.581.7.113.582-1.526,1.382-.145.737.66-.308.385.292-.107,1.094.356,1.313.759,1.218,2.986-1.6,4C264.156,495.36,264.249,492.666,266.109,492.233Z" fill="#3a3a3a"/>
    <path d="M281.236,492.233c-.317-.314-.715-1.116.234-.914.741.154.521.581.7.113.583-1.526,1.377-.147.735.66-.306.384.294-.106,1.093.356,1.316.761,1.222,2.986-1.6,4C279.283,495.36,279.373,492.666,281.236,492.233Z" fill="#3a3a3a"/>
    <path d="M296.36,492.233c-.318-.314-.712-1.116.234-.914.741.154.52.581.7.113.583-1.526,1.382-.145.738.66-.308.385.291-.107,1.093.356,1.313.759,1.219,2.986-1.6,4C294.407,495.36,294.5,492.666,296.36,492.233Z" fill="#3a3a3a"/>
    <path d="M311.487,492.233c-.318-.314-.715-1.116.234-.914.741.154.52.581.7.113.583-1.526,1.377-.147.734.66-.305.384.294-.106,1.094.356,1.315.761,1.222,2.986-1.6,4C309.534,495.36,309.624,492.666,311.487,492.233Z" fill="#3a3a3a"/>
    <path d="M326.61,492.233c-.317-.314-.712-1.116.234-.914.741.154.521.581.7.113.582-1.526,1.382-.145.737.66-.308.385.292-.107,1.094.356,1.313.759,1.218,2.986-1.6,4C324.657,495.36,324.75,492.666,326.61,492.233Z" fill="#3a3a3a"/>
    <path d="M341.734,492.233c-.317-.314-.712-1.116.234-.914.741.154.52.581.7.113.583-1.526,1.382-.145.738.66-.308.385.291-.107,1.093.356,1.313.759,1.219,2.986-1.6,4C339.781,495.36,339.874,492.666,341.734,492.233Z" fill="#3a3a3a"/>
    <path d="M356.861,492.233c-.318-.314-.715-1.116.234-.914.741.154.52.581.7.113.583-1.526,1.377-.147.734.66-.305.384.294-.106,1.094.356,1.315.761,1.222,2.986-1.6,4C354.908,495.36,355,492.666,356.861,492.233Z" fill="#3a3a3a"/>
    <path d="M371.984,492.233c-.317-.314-.711-1.116.235-.914.74.154.52.581.7.113.582-1.526,1.382-.145.737.66-.308.385.292-.107,1.094.356,1.313.759,1.218,2.986-1.6,4C370.031,495.36,370.124,492.666,371.984,492.233Z" fill="#3a3a3a"/>
    <path d="M387.111,492.233c-.317-.314-.715-1.116.234-.914.741.154.521.581.7.113.583-1.526,1.377-.147.735.66-.306.384.294-.106,1.093.356,1.316.761,1.222,2.986-1.6,4C385.158,495.36,385.248,492.666,387.111,492.233Z" fill="#3a3a3a"/>
    <path d="M402.235,492.233c-.318-.314-.712-1.116.234-.914.741.154.52.581.7.113.583-1.526,1.382-.145.738.66-.308.385.291-.107,1.093.356,1.313.759,1.219,2.986-1.6,4C400.282,495.36,400.375,492.666,402.235,492.233Z" fill="#3a3a3a"/>
    <path d="M417.359,492.233c-.318-.314-.712-1.116.234-.914.74.154.52.581.7.113.582-1.526,1.382-.145.737.66-.308.385.292-.107,1.094.356,1.313.759,1.218,2.986-1.6,4C415.406,495.36,415.5,492.666,417.359,492.233Z" fill="#3a3a3a"/>
    <path d="M432.485,492.233c-.317-.314-.715-1.116.234-.914.741.154.521.581.7.113.582-1.526,1.376-.147.734.66-.306.384.294-.107,1.094.356,1.312.76,1.218,2.986-1.6,4C430.532,495.36,430.622,492.666,432.485,492.233Z" fill="#3a3a3a"/>
    <path d="M447.609,492.233c-.317-.314-.715-1.116.234-.914.741.154.52.581.7.113.583-1.526,1.382-.145.738.66-.308.385.291-.107,1.093.356,1.313.759,1.219,2.986-1.6,4C445.656,495.36,445.746,492.666,447.609,492.233Z" fill="#3a3a3a"/>
    <path d="M462.733,492.233c-.318-.314-.715-1.116.234-.914.741.154.52.581.7.113.582-1.526,1.382-.145.737.66-.308.385.292-.107,1.094.356,1.313.759,1.219,2.986-1.6,4C460.78,495.36,460.869,492.666,462.733,492.233Z" fill="#3a3a3a"/>
    <path d="M477.859,492.233c-.317-.314-.715-1.116.235-.914.74.154.52.581.7.113.582-1.526,1.382-.145.737.66-.308.385.292-.107,1.094.356,1.313.759,1.218,2.986-1.6,4C475.906,495.36,476,492.666,477.859,492.233Z" fill="#3a3a3a"/>
    <path d="M492.983,492.233c-.317-.314-.715-1.116.234-.914.741.154.52.581.7.113.583-1.526,1.382-.145.738.66-.308.385.291-.107,1.093.356,1.313.759,1.219,2.986-1.6,4C491.03,495.36,491.12,492.666,492.983,492.233Z" fill="#3a3a3a"/>
    <path d="M508.11,492.233c-.318-.314-.715-1.116.234-.914.741.154.52.581.7.113.583-1.526,1.382-.145.738.66-.308.385.291-.107,1.093.356,1.313.759,1.219,2.986-1.6,4C506.157,495.36,506.247,492.666,508.11,492.233Z" fill="#3a3a3a"/>
    <path d="M523.234,492.233c-.318-.314-.716-1.116.234-.914.74.154.52.581.7.113.582-1.526,1.382-.145.737.66-.308.385.292-.107,1.094.356,1.313.759,1.219,2.986-1.6,4C521.281,495.36,521.37,492.666,523.234,492.233Z" fill="#3a3a3a"/>
    <path d="M538.357,492.233c-.317-.314-.715-1.116.234-.914.741.154.521.581.7.113.583-1.526,1.382-.145.738.66-.308.385.291-.107,1.094.356,1.313.759,1.218,2.986-1.6,4C536.4,495.36,536.494,492.666,538.357,492.233Z" fill="#3a3a3a"/>
    <path d="M553.484,492.233c-.317-.314-.715-1.116.234-.914.741.154.52.581.7.113.583-1.526,1.382-.145.738.66-.308.385.291-.107,1.093.356,1.313.759,1.219,2.986-1.6,4C551.531,495.36,551.621,492.666,553.484,492.233Z" fill="#3a3a3a"/>
    <path d="M585.28,496.454a14.515,14.515,0,0,1-14.485-14.515,3.818,3.818,0,0,1,7.635,0,6.852,6.852,0,1,0,6.844-6.879,3.818,3.818,0,0,1,0-7.635h0c.125,0,.229,0,.326.006a4.662,4.662,0,1,0-5.038-4.672,3.818,3.818,0,1,1-7.636.022,12.358,12.358,0,0,1,24.715-.022,12.228,12.228,0,0,1-3.008,8.068,14.348,14.348,0,0,1,5.167,11.112A14.53,14.53,0,0,1,585.28,496.454Z" fill="#3a3a3a"/>
    <path d="M620.533,496.457a15,15,0,0,1-14.982-14.983,14.827,14.827,0,0,1,3.053-9.056l13.876-20.335a3.832,3.832,0,0,1,6.353,4.285l-6.953,10.185a14.982,14.982,0,0,1-1.347,29.9Zm0-22.3a7.349,7.349,0,0,0-5.9,3.008l-.324.478a7.173,7.173,0,0,0-1.1,3.832,7.32,7.32,0,1,0,7.322-7.318Z" fill="#3a3a3a"/>
    <path d="M668.835,486.2a10.239,10.239,0,0,1-17.586,7.129V503.8a1.447,1.447,0,1,1-2.893,0V486.2a10.24,10.24,0,1,1,20.479,0Zm-2.895,0a7.346,7.346,0,1,0-7.344,7.343A7.354,7.354,0,0,0,665.94,486.2Z" fill="#3a3a3a"/>
    <path d="M691.8,486.224a10.24,10.24,0,1,1-10.24-10.24A10.242,10.242,0,0,1,691.8,486.224Zm-2.893,0a7.347,7.347,0,1,0-7.347,7.347A7.356,7.356,0,0,0,688.907,486.224Z" fill="#3a3a3a"/>
    <path d="M713.86,495.007a1.447,1.447,0,1,1-2.893,0v-1.414a9.384,9.384,0,0,1-6.833,2.845c-5.657,0-9.291-4.586-9.291-10.237v-8.783a1.447,1.447,0,1,1,2.893,0V486.2c0,4.05,2.344,7.344,6.4,7.344s6.824-3.284,6.833-7.321V477.4a1.447,1.447,0,0,1,2.893,0Z" fill="#3a3a3a"/>
    <path d="M737.338,486.208v8.783a1.447,1.447,0,1,1-2.893,0v-8.783c0-4.051-2.341-7.344-6.4-7.344-4.04,0-6.821,3.28-6.834,7.321v8.822a1.446,1.446,0,1,1-2.892,0V477.4a1.446,1.446,0,1,1,2.892,0v1.415a9.388,9.388,0,0,1,6.834-2.845C733.7,475.971,737.338,480.554,737.338,486.208Z" fill="#3a3a3a"/>
    <path d="M760.87,486.224a10.252,10.252,0,1,1-2.9-7.129V468.618a1.448,1.448,0,0,1,2.9,0Zm-2.9.006a7.346,7.346,0,1,0-7.344,7.341A7.369,7.369,0,0,0,757.974,486.23Z" fill="#3a3a3a"/>
    <path d="M777.4,493.308c-.074.105-.154.212-.237.317A8.06,8.06,0,0,1,770.8,496.3a9.8,9.8,0,0,1-2.648-.356,7.048,7.048,0,0,1-4.195-3.322l-.045-.074a1.446,1.446,0,0,1,2.457-1.527l.067.109a4.224,4.224,0,0,0,2.508,2.03c1.949.555,4.7.195,5.958-1.35.045-.055.084-.109.125-.167a2.8,2.8,0,0,0,.266-2.549,3.194,3.194,0,0,0-2.126-2.04c-.44-.13-1.392-.311-2.152-.452-.676-.128-1.26-.238-1.626-.333a5.262,5.262,0,0,1-4.015-5.718,5.614,5.614,0,0,1,3.926-4.2c2.774-.914,6.744-.085,8.334,2.847a1.446,1.446,0,1,1-2.543,1.376c-.81-1.5-3.248-2.017-4.884-1.475a2.763,2.763,0,0,0-1.975,1.911,2.4,2.4,0,0,0,1.885,2.463c.27.071.86.18,1.434.289.911.173,1.853.35,2.434.522a6.064,6.064,0,0,1,4.041,3.858A5.731,5.731,0,0,1,777.4,493.308Z" fill="#3a3a3a"/>
    <path d="M174.114,623.587c-.318-.314-.715-1.116.234-.914.741.154.52.581.7.112.583-1.525,1.377-.146.734.661-.305.384.294-.106,1.094.356,1.315.76,1.222,2.985-1.6,4C172.161,626.714,172.251,624.02,174.114,623.587Z" fill="#3a3a3a"/>
    <path d="M189.237,623.587c-.317-.314-.712-1.116.234-.914.741.154.521.581.7.112.582-1.525,1.382-.144.737.661-.308.385.292-.108,1.094.356,1.313.758,1.218,2.985-1.6,4C187.284,626.714,187.377,624.02,189.237,623.587Z" fill="#3a3a3a"/>
    <path d="M204.364,623.587c-.317-.314-.715-1.116.234-.914.741.154.52.581.7.112.583-1.525,1.377-.146.735.661-.306.384.294-.106,1.093.356,1.315.76,1.222,2.985-1.6,4C202.411,626.714,202.5,624.02,204.364,623.587Z" fill="#3a3a3a"/>
    <path d="M219.488,623.587c-.318-.314-.715-1.116.234-.914.741.154.52.581.7.112.583-1.525,1.377-.146.734.661-.305.384.294-.106,1.094.356,1.315.76,1.222,2.985-1.6,4C217.535,626.714,217.625,624.02,219.488,623.587Z" fill="#3a3a3a"/>
    <path d="M234.611,623.587c-.317-.314-.711-1.116.235-.914.74.154.52.581.7.112.582-1.525,1.382-.144.737.661-.308.385.292-.108,1.094.356,1.313.758,1.218,2.985-1.6,4C232.658,626.714,232.751,624.02,234.611,623.587Z" fill="#3a3a3a"/>
    <path d="M249.738,623.587c-.317-.314-.715-1.116.234-.914.741.154.521.581.7.112.582-1.525,1.376-.146.734.661-.306.384.294-.106,1.093.356,1.316.76,1.222,2.985-1.6,4C247.785,626.714,247.875,624.02,249.738,623.587Z" fill="#3a3a3a"/>
    <path d="M264.862,623.587c-.318-.314-.712-1.116.234-.914.741.154.52.581.7.112.583-1.525,1.382-.144.738.661-.308.385.291-.108,1.093.356,1.313.758,1.219,2.985-1.6,4C262.909,626.714,263,624.02,264.862,623.587Z" fill="#3a3a3a"/>
    <path d="M279.989,623.587c-.318-.314-.715-1.116.234-.914.741.154.52.581.7.112.583-1.525,1.377-.146.734.661-.305.384.294-.106,1.094.356,1.315.76,1.222,2.985-1.6,4C278.036,626.714,278.126,624.02,279.989,623.587Z" fill="#3a3a3a"/>
    <path d="M295.112,623.587c-.317-.314-.715-1.116.235-.914.74.154.52.581.7.112.582-1.525,1.376-.146.734.661-.306.384.294-.106,1.094.356,1.315.76,1.221,2.985-1.6,4C293.159,626.714,293.249,624.02,295.112,623.587Z" fill="#3a3a3a"/>
    <path d="M310.236,623.587c-.317-.314-.712-1.116.234-.914.741.154.52.581.7.112.583-1.525,1.382-.144.738.661-.308.385.291-.108,1.093.356,1.313.758,1.219,2.985-1.6,4C308.283,626.714,308.376,624.02,310.236,623.587Z" fill="#3a3a3a"/>
    <path d="M325.363,623.587c-.318-.314-.715-1.116.234-.914.741.154.52.581.7.112.583-1.525,1.377-.146.734.661-.3.384.294-.106,1.094.356,1.315.76,1.222,2.985-1.6,4C323.41,626.714,323.5,624.02,325.363,623.587Z" fill="#3a3a3a"/>
    <path d="M340.487,623.587c-.318-.314-.712-1.116.234-.914.74.154.52.581.7.112.582-1.525,1.382-.144.737.661-.308.385.292-.108,1.094.356,1.313.758,1.218,2.985-1.6,4C338.534,626.714,338.627,624.02,340.487,623.587Z" fill="#3a3a3a"/>
    <path d="M355.613,623.587c-.317-.314-.715-1.116.234-.914.741.154.521.581.7.112.582-1.525,1.376-.146.734.661-.306.384.294-.106,1.093.356,1.316.76,1.222,2.985-1.6,4C353.66,626.714,353.75,624.02,355.613,623.587Z" fill="#3a3a3a"/>
    <path d="M370.737,623.587c-.318-.314-.715-1.116.234-.914.741.154.52.581.7.112.583-1.525,1.377-.146.735.661-.306.384.294-.106,1.093.356,1.315.76,1.222,2.985-1.6,4C368.784,626.714,368.874,624.02,370.737,623.587Z" fill="#3a3a3a"/>
    <path d="M385.861,623.587c-.318-.314-.712-1.116.234-.914.74.154.52.581.7.112.582-1.525,1.382-.144.737.661-.308.385.292-.108,1.094.356,1.313.758,1.219,2.985-1.6,4C383.908,626.714,384,624.02,385.861,623.587Z" fill="#3a3a3a"/>
    <path d="M400.987,623.587c-.317-.314-.715-1.116.235-.914.74.154.52.581.7.112.582-1.525,1.376-.146.734.661-.306.384.294-.106,1.094.356,1.315.76,1.221,2.985-1.6,4C399.034,626.714,399.124,624.02,400.987,623.587Z" fill="#3a3a3a"/>
    <path d="M416.111,623.587c-.317-.314-.712-1.116.234-.914.741.154.52.581.7.112.583-1.525,1.382-.144.738.661-.308.385.291-.108,1.093.356,1.313.758,1.219,2.985-1.6,4C414.158,626.714,414.251,624.02,416.111,623.587Z" fill="#3a3a3a"/>
    <path d="M431.238,623.587c-.318-.314-.715-1.116.234-.914.741.154.52.581.7.112.583-1.525,1.377-.146.734.661-.3.384.3-.107,1.094.356,1.312.76,1.219,2.985-1.6,4C429.285,626.714,429.375,624.02,431.238,623.587Z" fill="#3a3a3a"/>
    <path d="M446.362,623.587c-.318-.314-.716-1.116.234-.914.74.154.52.581.7.112.582-1.525,1.382-.144.737.661-.308.385.292-.108,1.094.356,1.313.758,1.218,2.985-1.6,4C444.409,626.714,444.5,624.02,446.362,623.587Z" fill="#3a3a3a"/>
    <path d="M461.485,623.587c-.317-.314-.715-1.116.234-.914.741.154.52.581.7.112.583-1.525,1.382-.144.738.661-.308.385.291-.108,1.093.356,1.314.758,1.219,2.985-1.6,4C459.532,626.714,459.622,624.02,461.485,623.587Z" fill="#3a3a3a"/>
    <path d="M476.609,623.587c-.318-.314-.715-1.116.234-.914.741.154.52.581.7.112.583-1.525,1.382-.144.738.661-.308.385.291-.108,1.093.356,1.313.758,1.219,2.985-1.6,4C474.656,626.714,474.746,624.02,476.609,623.587Z" fill="#3a3a3a"/>
    <path d="M491.736,623.587c-.318-.314-.715-1.116.234-.914.741.154.52.581.7.112.582-1.525,1.382-.144.737.661-.308.385.292-.108,1.094.356,1.313.758,1.219,2.985-1.6,4C489.783,626.714,489.872,624.02,491.736,623.587Z" fill="#3a3a3a"/>
    <path d="M506.859,623.587c-.317-.314-.715-1.116.234-.914.741.154.521.581.7.112.583-1.525,1.382-.144.738.661-.308.385.291-.108,1.094.356,1.313.758,1.218,2.985-1.6,4C504.906,626.714,505,624.02,506.859,623.587Z" fill="#3a3a3a"/>
    <path d="M521.986,623.587c-.317-.314-.715-1.116.234-.914.741.154.52.581.7.112.583-1.525,1.382-.144.738.661-.308.385.291-.108,1.093.356,1.313.758,1.219,2.985-1.6,4C520.033,626.714,520.123,624.02,521.986,623.587Z" fill="#3a3a3a"/>
    <path d="M537.11,623.587c-.318-.314-.715-1.116.234-.914.741.154.52.581.7.112.583-1.525,1.382-.144.738.661-.308.385.291-.108,1.093.356,1.313.758,1.219,2.985-1.6,4C535.157,626.714,535.247,624.02,537.11,623.587Z" fill="#3a3a3a"/>
    <path d="M552.233,623.587c-.317-.314-.715-1.116.234-.914.741.154.521.581.7.112.582-1.525,1.382-.144.737.661-.308.385.292-.108,1.094.356,1.313.758,1.218,2.985-1.6,4C550.28,626.714,550.37,624.02,552.233,623.587Z" fill="#3a3a3a"/>
    <path d="M593.641,627.81a3.836,3.836,0,0,1-3.833-3.832V591.942l-.1.051a3.884,3.884,0,0,1-1.687.394,3.831,3.831,0,0,1-1.6-7.311l5.307-2.813-.019-.058.513-.176c.093-.035.183-.064.269-.09l.042-.013a1.966,1.966,0,0,1,.189-.057l.517-.161.032.071c.054-.007.189-.019.189-.019l.17-.01a2.081,2.081,0,0,1,.259.016l.026-.083,1.533.449-.013.073c.1.052.183.1.27.154a2.879,2.879,0,0,1,.307.225,2.956,2.956,0,0,1,.276.234,4.686,4.686,0,0,1,.481.555c.084.118.155.248.231.381a2.6,2.6,0,0,1,.125.234l.048.1.02.058c.025.061.064.183.1.308a2.4,2.4,0,0,1,.138.644l.01.061c.006.061.022.132.025.2v38.614A3.83,3.83,0,0,1,593.641,627.81Z" fill="#3a3a3a"/>
    <path d="M618.754,627.81a15,15,0,0,1-14.98-14.982,14.824,14.824,0,0,1,3.05-9.056L620.7,583.437a3.831,3.831,0,0,1,6.353,4.284L620.1,597.906a14.982,14.982,0,0,1-1.347,29.9Zm0-22.3a7.347,7.347,0,0,0-5.9,3.008l-.324.474a7.193,7.193,0,0,0-1.1,3.836,7.32,7.32,0,1,0,7.321-7.318Z" fill="#3a3a3a"/>
    <path d="M668.842,617.548a10.239,10.239,0,0,1-17.587,7.129v10.474a1.446,1.446,0,1,1-2.892,0v-17.6a10.24,10.24,0,0,1,20.479,0Zm-2.9,0a7.346,7.346,0,1,0-7.344,7.344A7.352,7.352,0,0,0,665.946,617.548Z" fill="#3a3a3a"/>
    <path d="M691.806,617.577a10.24,10.24,0,1,1-10.239-10.239A10.242,10.242,0,0,1,691.806,617.577Zm-2.892,0a7.347,7.347,0,1,0-7.347,7.347A7.357,7.357,0,0,0,688.914,617.577Z" fill="#3a3a3a"/>
    <path d="M713.866,626.361a1.446,1.446,0,0,1-2.892,0v-1.414a9.391,9.391,0,0,1-6.834,2.844c-5.657,0-9.29-4.586-9.29-10.236v-8.784a1.446,1.446,0,0,1,2.892,0v8.784c0,4.05,2.344,7.344,6.4,7.344s6.824-3.284,6.834-7.322v-8.822a1.446,1.446,0,1,1,2.892,0Z" fill="#3a3a3a"/>
    <path d="M737.344,617.561v8.784a1.447,1.447,0,0,1-2.893,0v-8.784c0-4.05-2.341-7.344-6.4-7.344-4.041,0-6.821,3.281-6.834,7.322v8.822a1.447,1.447,0,0,1-2.893,0V608.755a1.447,1.447,0,0,1,2.893,0v1.411a9.4,9.4,0,0,1,6.834-2.841C733.711,607.325,737.344,611.908,737.344,617.561Z" fill="#3a3a3a"/>
    <path d="M760.876,617.577a10.25,10.25,0,1,1-2.9-7.129V599.972a1.448,1.448,0,0,1,2.9,0Zm-2.9,0a7.346,7.346,0,1,0-7.344,7.344A7.367,7.367,0,0,0,757.98,617.58Z" fill="#3a3a3a"/>
    <path d="M777.4,624.661q-.111.159-.237.318a8.057,8.057,0,0,1-6.356,2.677,9.8,9.8,0,0,1-2.649-.355,7.045,7.045,0,0,1-4.2-3.323l-.044-.074a1.446,1.446,0,0,1,2.456-1.526l.067.109a4.23,4.23,0,0,0,2.508,2.03c1.95.555,4.7.195,5.958-1.35.045-.055.083-.11.122-.167a2.845,2.845,0,0,0,.27-2.549,3.2,3.2,0,0,0-2.126-2.04c-.44-.13-1.392-.311-2.152-.455-.677-.125-1.261-.237-1.626-.331a5.252,5.252,0,0,1-4.015-5.717,5.616,5.616,0,0,1,3.925-4.205c2.774-.917,6.745-.085,8.335,2.845a1.446,1.446,0,0,1-2.543,1.379c-.811-1.5-3.249-2.017-4.884-1.479a2.776,2.776,0,0,0-1.976,1.915,2.4,2.4,0,0,0,1.886,2.463c.269.07.859.179,1.433.288.911.174,1.854.349,2.434.52a6.051,6.051,0,0,1,4.041,3.861A5.725,5.725,0,0,1,777.4,624.661Z" fill="#3a3a3a"/>
    <g>
      <path d="M342.606,81.06a2.057,2.057,0,0,1-1.481-.631,1.6,1.6,0,0,1-.244-.3s-.081-.125-.1-.164a1.751,1.751,0,0,1-.105-.228.849.849,0,0,1-.049-.134c-.009-.032-.025-.1-.025-.1a1.908,1.908,0,0,1-.077-.539V53.093a2.074,2.074,0,0,1,.013-.208l.012-.119a2.287,2.287,0,0,1,.074-.3c.016-.045.048-.141.061-.174l.019-.057.026-.036.09-.163.045-.077c.035-.048.07-.1.109-.141a1.636,1.636,0,0,1,.106-.128,2.391,2.391,0,0,1,.208-.2c.058-.045.112-.083.167-.119l.086-.057a1.313,1.313,0,0,1,.129-.068l.311.529-.27-.551a2.068,2.068,0,0,1,.9-.2l5.734,0a15.02,15.02,0,1,1,0,30.039Zm5.125-4.159.609-.006a10.856,10.856,0,0,0,0-21.711l-.609,0h-3.04V76.9Z" fill="#3a3a3a"/>
      <path d="M388.032,70.192v8.765a2.09,2.09,0,0,1-4.179,0v-.3a10.9,10.9,0,0,1-6.837,2.383,11.022,11.022,0,1,1,11.019-11.035Zm-4.163-.176a6.855,6.855,0,1,0-6.853,6.856A6.862,6.862,0,0,0,383.869,70.016Z" fill="#3a3a3a"/>
      <path d="M391.5,54.43a2.1,2.1,0,0,1,.917-1.359.906.906,0,0,1,.033-.783.872.872,0,0,1,.737-.417c.039,0,.077,0,.116,0a1.608,1.608,0,0,1,.493.074,1.041,1.041,0,0,1,.9-.584.925.925,0,0,1,.76.42,1.437,1.437,0,0,1,.211,1.036,2.125,2.125,0,0,1,1.488,1.53,2.514,2.514,0,0,1-.8,2.444,2.762,2.762,0,0,1-1.9,1.016,2.965,2.965,0,0,1-1.771-.824A2.662,2.662,0,0,1,391.5,54.43Zm4.926,6.648V78.957a2.081,2.081,0,1,1-4.162,0V61.078a2.081,2.081,0,1,1,4.162,0Z" fill="#3a3a3a"/>
      <path d="M417.326,61.826a2.1,2.1,0,0,1-2.1,2.1,2.056,2.056,0,0,1-.866-.186,7.73,7.73,0,0,0-2.751-.539,6.938,6.938,0,0,0-5.125,2.408,7.5,7.5,0,0,0-1.664,5.067v8.293a2.083,2.083,0,1,1-4.166,0v-17.9a2.083,2.083,0,1,1,4.166,0v.263a12.263,12.263,0,0,1,6.975-2.248,11.521,11.521,0,0,1,4.13.763c.058.022.1.035.135.051l.045.023a2.04,2.04,0,0,1,.859.731s.032.048.052.083a2.16,2.16,0,0,1,.243.561l.02.077A2.129,2.129,0,0,1,417.326,61.826Z" fill="#3a3a3a"/>
      <path d="M437.139,61.752,426.2,88.661a2.076,2.076,0,0,1-1.932,1.3h0a2.077,2.077,0,0,1-1.929-2.863l3.319-8.165-6.876-17.07a2.084,2.084,0,0,1,3.865-1.562l5.269,13.084,5.361-13.193a2.083,2.083,0,0,1,3.862,1.562Z" fill="#3a3a3a"/>
    </g>
    <g>
      <path d="M326.251,215.5a2.083,2.083,0,0,1-2.081-2.081V196.752a11.021,11.021,0,1,1,11.019,10.993,10.919,10.919,0,0,1-6.853-2.389v8.059A2.084,2.084,0,0,1,326.251,215.5Zm2.085-18.77a6.834,6.834,0,1,0,0-.045Z" fill="#3a3a3a"/>
      <path d="M366.263,196.511a2.1,2.1,0,0,1-2.1,2.1,2.047,2.047,0,0,1-.866-.186,7.719,7.719,0,0,0-2.751-.538,6.949,6.949,0,0,0-5.125,2.408,7.514,7.514,0,0,0-1.661,5.067v8.293a2.085,2.085,0,0,1-4.169,0v-17.9a2.085,2.085,0,0,1,4.169,0v.263a12.262,12.262,0,0,1,6.975-2.248,11.538,11.538,0,0,1,4.13.764l.132.051.048.022a2.047,2.047,0,0,1,.859.731s.032.049.052.084a2.057,2.057,0,0,1,.24.561l.022.077A2.341,2.341,0,0,1,366.263,196.511Z" fill="#3a3a3a"/>
      <path d="M389.289,204.705a11.022,11.022,0,1,1-11.022-11.022A11.035,11.035,0,0,1,389.289,204.705Zm-4.166,0a6.857,6.857,0,1,0-6.856,6.853A6.864,6.864,0,0,0,385.123,204.705Z" fill="#3a3a3a"/>
      <path d="M404.14,213.62a2.085,2.085,0,0,1-2.049,2.084c-.061.007-.2.016-.4.016a8.011,8.011,0,0,1-5.866-2.745c-2.273-2.488-2.142-6.6-2.081-8.581v-6.613h-.737a2.085,2.085,0,0,1,0-4.169h.74v-6.763a2.083,2.083,0,1,1,4.166,0v6.779h3.21a2.083,2.083,0,0,1,0,4.166h-3.21v5.756a14.234,14.234,0,0,1,.022,1.629,7.4,7.4,0,0,0,.927,4.631,4.05,4.05,0,0,0,3.169,1.729A2.087,2.087,0,0,1,404.14,213.62Z" fill="#3a3a3a"/>
      <path d="M427.54,204.685a2.123,2.123,0,0,1-.619,1.5,2.085,2.085,0,0,1-1.481.613H410a6.865,6.865,0,0,0,6.07,4.722h3.1a2.088,2.088,0,0,1,2.085,2.083,2.059,2.059,0,0,1-.263,1.013,2.083,2.083,0,0,1-1.822,1.071s-2.44.017-2.648.017-.421-.007-.629-.02a10.793,10.793,0,0,1-1.754-.243,11.022,11.022,0,1,1,13.4-10.76Zm-4.489-2.081a6.856,6.856,0,0,0-13.065,0Z" fill="#3a3a3a"/>
      <path d="M430.173,189.116a2.1,2.1,0,0,1,.921-1.36.9.9,0,0,1,.032-.782.861.861,0,0,1,.734-.417c.042,0,.08,0,.115,0a1.628,1.628,0,0,1,.5.074,1.036,1.036,0,0,1,.9-.584.925.925,0,0,1,.76.42,1.45,1.45,0,0,1,.211,1.036,2.13,2.13,0,0,1,1.488,1.53,2.505,2.505,0,0,1-.805,2.443,2.757,2.757,0,0,1-1.9,1.017,2.966,2.966,0,0,1-1.77-.824A2.67,2.67,0,0,1,430.173,189.116Zm4.929,6.648v17.878a2.083,2.083,0,1,1-4.166,0V195.764a2.083,2.083,0,0,1,4.166,0Z" fill="#3a3a3a"/>
      <path d="M459.936,204.689v8.928a2.083,2.083,0,1,1-4.165,0v-8.928c0-3.412-1.822-6.857-5.892-6.857-3.6,0-6.323,2.938-6.333,6.834v8.967a2.083,2.083,0,1,1-4.166,0v-17.9a2.083,2.083,0,1,1,4.166,0v.067a10.247,10.247,0,0,1,6.333-2.135C455.706,193.667,459.936,198.3,459.936,204.689Z" fill="#3a3a3a"/>
    </g>
    <g>
      <path d="M348.035,351.262a2.083,2.083,0,0,1-2.081-2.084V323.3a2.083,2.083,0,0,1,2.081-2.081h16.086a2.083,2.083,0,0,1,0,4.166h-14v8.771h8.694a2.085,2.085,0,0,1,0,4.169H350.12v10.855A2.084,2.084,0,0,1,348.035,351.262Z" fill="#3a3a3a"/>
      <path d="M381.935,332.027a2.1,2.1,0,0,1-2.1,2.1,2.062,2.062,0,0,1-.866-.186,7.712,7.712,0,0,0-2.751-.539,6.944,6.944,0,0,0-5.125,2.408,7.51,7.51,0,0,0-1.664,5.067v8.293a2.083,2.083,0,1,1-4.166,0v-17.9a2.083,2.083,0,1,1,4.166,0v.262a12.27,12.27,0,0,1,6.975-2.248,11.239,11.239,0,0,1,4.133.764l.132.051.048.022a2.093,2.093,0,0,1,.859.732.761.761,0,0,1,.048.083,2.035,2.035,0,0,1,.244.561l.022.077A2.341,2.341,0,0,1,381.935,332.027Z" fill="#3a3a3a"/>
      <path d="M404.945,331.251v17.9a2.083,2.083,0,1,1-4.166,0v-.064a10.273,10.273,0,0,1-6.337,2.132c-5.827,0-10.057-4.634-10.057-11.022v-8.928a2.085,2.085,0,0,1,4.169,0V340.2c0,3.412,1.822,6.857,5.888,6.857,3.6,0,6.327-2.938,6.337-6.834v-8.967a2.083,2.083,0,1,1,4.166,0Z" fill="#3a3a3a"/>
      <path d="M408.331,324.632a2.088,2.088,0,0,1,.921-1.359.906.906,0,0,1,.032-.783.864.864,0,0,1,.734-.417c.039,0,.077,0,.115,0a1.642,1.642,0,0,1,.5.074,1.034,1.034,0,0,1,.9-.584.931.931,0,0,1,.764.42,1.467,1.467,0,0,1,.211,1.036,2.121,2.121,0,0,1,1.485,1.53,2.5,2.5,0,0,1-.8,2.443,2.757,2.757,0,0,1-1.9,1.017,2.958,2.958,0,0,1-1.77-.824A2.662,2.662,0,0,1,408.331,324.632Zm4.929,6.648v17.878a2.083,2.083,0,1,1-4.166,0V331.28a2.083,2.083,0,0,1,4.166,0Z" fill="#3a3a3a"/>
      <path d="M429.647,349.136a2.087,2.087,0,0,1-2.049,2.085c-.061.006-.2.016-.4.016a8.011,8.011,0,0,1-5.865-2.746c-2.274-2.488-2.142-6.6-2.081-8.581V333.3h-.738a2.085,2.085,0,0,1,0-4.169h.741v-6.763a2.083,2.083,0,1,1,4.166,0v6.779h3.21a2.083,2.083,0,0,1,0,4.166h-3.21v5.756a14.252,14.252,0,0,1,.022,1.63,7.391,7.391,0,0,0,.927,4.63,4.044,4.044,0,0,0,3.168,1.729A2.087,2.087,0,0,1,429.647,349.136Z" fill="#3a3a3a"/>
    </g>
    <g>
      <path d="M321.5,477.3l-7.96-25.912a2.081,2.081,0,0,1,1.921-2.886,2.088,2.088,0,0,1,1.908,1.241l6.055,19.716,6.074-19.7a2.084,2.084,0,0,1,3.829,1.645l-7.976,25.87a2.09,2.09,0,0,1-.718.866l-.039.029a.731.731,0,0,1-.106.061,1.591,1.591,0,0,1-.24.134,2.034,2.034,0,0,1-.84.18A2.083,2.083,0,0,1,321.5,477.3Z" fill="#3a3a3a"/>
      <path d="M355.6,467.479a2.127,2.127,0,0,1-.619,1.5,2.093,2.093,0,0,1-1.482.613H338.059a6.865,6.865,0,0,0,6.071,4.722h3.1a2.087,2.087,0,0,1,2.084,2.083,2.059,2.059,0,0,1-.263,1.013,2.083,2.083,0,0,1-1.821,1.071s-2.441.016-2.649.016-.42-.006-.629-.019a10.683,10.683,0,0,1-1.754-.244,11.022,11.022,0,1,1,13.4-10.759Zm-4.49-2.081a6.856,6.856,0,0,0-13.065,0Z" fill="#3a3a3a"/>
      <path d="M380.109,467.835V477.1c0,5.7-4.943,10.342-11.02,10.342a11.08,11.08,0,0,1-10.06-6.115l-.02-.036a2.18,2.18,0,0,1-.243-.564l-.02-.077a2.1,2.1,0,0,1,3.935-1.379c.016.032.032.064.045.1a7,7,0,0,0,6.363,3.823c3.777,0,6.853-2.732,6.853-6.09v-.972a11.021,11.021,0,1,1,4.167-8.633Zm-4.167-.34a6.857,6.857,0,1,0-13.334,2.248,6.759,6.759,0,0,0,1.439,2.4,6.841,6.841,0,0,0,10.076,0,6.776,6.776,0,0,0,1.44-2.4A6.9,6.9,0,0,0,375.942,467.5Z" fill="#3a3a3a"/>
      <path d="M405.485,467.835V477.1c0,5.7-4.943,10.342-11.02,10.342a11.08,11.08,0,0,1-10.06-6.115l-.02-.036a2.18,2.18,0,0,1-.243-.564l-.02-.077a2.1,2.1,0,0,1,3.935-1.379c.016.032.032.064.045.1a7,7,0,0,0,6.363,3.823c3.777,0,6.853-2.732,6.853-6.09v-.972a11.021,11.021,0,1,1,4.167-8.633Zm-4.167-.34a6.857,6.857,0,1,0-13.334,2.248,6.759,6.759,0,0,0,1.439,2.4,6.841,6.841,0,0,0,10.076,0,6.776,6.776,0,0,0,1.44-2.4A6.9,6.9,0,0,0,401.318,467.5Z" fill="#3a3a3a"/>
      <path d="M408.992,451.91a2.089,2.089,0,0,1,.92-1.36.907.907,0,0,1,.032-.782.868.868,0,0,1,.735-.417c.038,0,.077,0,.115,0a1.669,1.669,0,0,1,.5.073,1.034,1.034,0,0,1,.9-.583.929.929,0,0,1,.763.42,1.466,1.466,0,0,1,.212,1.036,2.125,2.125,0,0,1,1.485,1.529,2.5,2.5,0,0,1-.8,2.444,2.76,2.76,0,0,1-1.9,1.017,2.954,2.954,0,0,1-1.77-.825A2.661,2.661,0,0,1,408.992,451.91Zm4.929,6.648v17.878a2.083,2.083,0,1,1-4.166,0V458.558a2.083,2.083,0,0,1,4.166,0Z" fill="#3a3a3a"/>
      <path d="M439.688,467.479a2.123,2.123,0,0,1-.619,1.5,2.091,2.091,0,0,1-1.481.613H422.143a6.865,6.865,0,0,0,6.071,4.722h3.1a2.084,2.084,0,1,1,0,4.167s-2.44.016-2.649.016-.42-.006-.628-.019a10.7,10.7,0,0,1-1.755-.244,11.022,11.022,0,1,1,13.4-10.759ZM435.2,465.4a6.855,6.855,0,0,0-13.064,0Z" fill="#3a3a3a"/>
      <path d="M448.863,478.54a10.4,10.4,0,0,1-2.806-.378,7.553,7.553,0,0,1-4.5-3.56l-.044-.074a1.877,1.877,0,0,1,.606-2.581,1.873,1.873,0,0,1,2.588.6l.067.113a3.938,3.938,0,0,0,2.315,1.885,6.552,6.552,0,0,0,1.777.234,4.994,4.994,0,0,0,3.848-1.471c.041-.049.078-.1.112-.145a2.446,2.446,0,0,0,.222-2.225,2.841,2.841,0,0,0-1.892-1.815c-.43-.128-1.386-.308-2.152-.453-.7-.131-1.293-.243-1.677-.343a5.751,5.751,0,0,1-4.381-6.272,6.111,6.111,0,0,1,4.265-4.6,8,8,0,0,1,2.469-.378,7.277,7.277,0,0,1,6.491,3.466,1.877,1.877,0,0,1-.76,2.546,1.873,1.873,0,0,1-2.546-.76,3.681,3.681,0,0,0-3.2-1.494,4.143,4.143,0,0,0-1.28.189,2.442,2.442,0,0,0-1.732,1.623c-.176,1.1.965,1.873,1.617,2.043.259.067.853.179,1.423.285.94.18,1.908.36,2.521.542a6.564,6.564,0,0,1,4.377,4.182,6.2,6.2,0,0,1-.692,5.621c-.08.113-.167.228-.257.34A8.531,8.531,0,0,1,448.863,478.54Z" fill="#3a3a3a"/>
    </g>
    <g>
      <path d="M342.407,611.016c-.154,0-.314,0-.474-.01a15.016,15.016,0,0,1-10.378-25.392,14.826,14.826,0,0,1,10.378-4.634c.157,0,.317-.009.474-.009a14.97,14.97,0,0,1,10.384,4.166l.449.432-.057.061a2.079,2.079,0,0,1-1.767,3.175,2.068,2.068,0,0,1-1.1-.311l-.132-.09a2.142,2.142,0,0,1-.24-.208l-.061-.067a10.892,10.892,0,0,0-7.479-2.989c-.144,0-.282,0-.423.009a10.853,10.853,0,0,0-.013,21.688c.151.007.292.013.436.013a10.861,10.861,0,0,0,6.927-2.5v-4.8h-5.708a2.083,2.083,0,1,1,0-4.166h7.658a1.046,1.046,0,0,1,.132-.009,2.081,2.081,0,0,1,2.081,2.081v7.793a2.076,2.076,0,0,1-.478,1.321,1.879,1.879,0,0,1-.218.273l-.067.061A15.018,15.018,0,0,1,342.407,611.016Z" fill="#3a3a3a"/>
      <path d="M374.406,591.781a2.1,2.1,0,0,1-2.1,2.1,2.057,2.057,0,0,1-.866-.186,7.719,7.719,0,0,0-2.751-.538,6.955,6.955,0,0,0-5.125,2.408,7.535,7.535,0,0,0-1.661,5.067v8.293a2.085,2.085,0,0,1-4.169,0v-17.9a2.085,2.085,0,0,1,4.169,0v.263a12.259,12.259,0,0,1,6.972-2.248,11.251,11.251,0,0,1,4.136.764l.129.051.051.022a2.084,2.084,0,0,1,.859.731.755.755,0,0,1,.049.084,1.969,1.969,0,0,1,.24.561l.026.077A2.7,2.7,0,0,1,374.406,591.781Z" fill="#3a3a3a"/>
      <path d="M397.425,600.148v8.764a2.088,2.088,0,0,1-4.176,0v-.3A10.918,10.918,0,0,1,386.406,611a11.022,11.022,0,1,1,11.025-11.035Zm-4.163-.176a6.857,6.857,0,1,0-6.856,6.856A6.863,6.863,0,0,0,393.262,599.972Z" fill="#3a3a3a"/>
      <path d="M400.891,584.386a2.09,2.09,0,0,1,.921-1.36.9.9,0,0,1,.032-.782.861.861,0,0,1,.734-.417c.042,0,.08,0,.116,0a1.64,1.64,0,0,1,.5.074,1.032,1.032,0,0,1,.9-.584.931.931,0,0,1,.764.42,1.45,1.45,0,0,1,.211,1.036,2.135,2.135,0,0,1,1.488,1.53,2.505,2.505,0,0,1-.805,2.443,2.757,2.757,0,0,1-1.9,1.017,2.958,2.958,0,0,1-1.77-.824A2.662,2.662,0,0,1,400.891,584.386Zm4.929,6.648v17.878a2.083,2.083,0,1,1-4.166,0V591.034a2.083,2.083,0,0,1,4.166,0Z" fill="#3a3a3a"/>
      <path d="M430.654,599.959v8.928a2.085,2.085,0,0,1-4.169,0v-8.928c0-3.412-1.818-6.857-5.888-6.857-3.6,0-6.323,2.938-6.336,6.834V608.9a2.082,2.082,0,1,1-4.163,0v-17.9a2.082,2.082,0,1,1,4.163,0v.067a10.256,10.256,0,0,1,6.336-2.135C426.424,588.937,430.654,593.574,430.654,599.959Z" fill="#3a3a3a"/>
      <path d="M441.128,611.016a10.38,10.38,0,0,1-2.8-.378,7.546,7.546,0,0,1-4.5-3.56l-.045-.074a1.88,1.88,0,0,1,.6-2.581,1.876,1.876,0,0,1,2.591.6l.07.112a3.908,3.908,0,0,0,2.313,1.885,6.539,6.539,0,0,0,1.776.235,4.994,4.994,0,0,0,3.848-1.472c.041-.049.074-.1.113-.145a2.459,2.459,0,0,0,.218-2.225,2.834,2.834,0,0,0-1.889-1.815c-.433-.129-1.386-.308-2.152-.453-.7-.131-1.3-.243-1.677-.343a5.758,5.758,0,0,1-4.384-6.272,6.108,6.108,0,0,1,4.265-4.6,8.027,8.027,0,0,1,2.469-.378,7.291,7.291,0,0,1,6.491,3.466,1.88,1.88,0,0,1-.757,2.546,1.873,1.873,0,0,1-2.546-.76,3.677,3.677,0,0,0-3.2-1.494,4.138,4.138,0,0,0-1.277.189,2.433,2.433,0,0,0-1.731,1.623c-.18,1.1.962,1.872,1.616,2.043.256.067.853.179,1.424.285.939.18,1.908.36,2.52.542a6.569,6.569,0,0,1,4.378,4.182,6.251,6.251,0,0,1-.7,5.622c-.078.111-.165.226-.257.339A8.592,8.592,0,0,1,441.128,611.016Z" fill="#3a3a3a"/>
    </g>
    <g>
      <g>
        <path d="M130.113,91.881v61.324a11.347,11.347,0,0,1-11.335,11.335H68.846a11.348,11.348,0,0,1-11.335-11.335V92.82c0-.17,0-.34.008-.51l-.008-.429c0-9.214,1.538-20.136,4.575-32.467.024-.106.056-.219.081-.324.008-.024.008-.049.016-.073A248.921,248.921,0,0,1,72.255,27.74l.413-1h42.288l.413,1C115.969,29.2,130.113,63.673,130.113,91.881Zm-1.619,61.324V92.82c0-.316-.008-.623-.024-.939h.024c0-10.323-1.959-21.594-4.437-31.739-.065-.267-.138-.534-.194-.8a245.753,245.753,0,0,0-9.992-30.978H73.753a243.01,243.01,0,0,0-9.271,28.2c-.283,1.06-.558,2.145-.826,3.238-.04.154-.072.308-.113.47C61.082,70.385,59.13,81.606,59.13,91.881h.025c-.017.316-.025.623-.025.939v60.385a9.746,9.746,0,0,0,9.716,9.716h49.932A9.745,9.745,0,0,0,128.494,153.205Z" fill="#343434"/>
        <path d="M128.494,92.82v60.385a9.745,9.745,0,0,1-9.716,9.716H68.846a9.746,9.746,0,0,1-9.716-9.716V92.82c0-.316.008-.623.025-.939H59.13c0-10.275,1.952-21.5,4.413-31.609.041-.162.073-.316.113-.47.268-1.093.543-2.178.826-3.238a243.01,243.01,0,0,1,9.271-28.2h40.118a245.753,245.753,0,0,1,9.992,30.978c.056.267.129.534.194.8,2.478,10.145,4.437,21.416,4.437,31.739h-.024C128.486,92.2,128.494,92.5,128.494,92.82Zm-1.619,60.385V92.82c0-.291-.008-.567-.025-.858l-.089-1.7h.1a136.571,136.571,0,0,0-3.91-27.691c-.259-1.125-.527-2.234-.8-3.335a252.8,252.8,0,0,0-9.368-29.253H74.846a250.289,250.289,0,0,0-8.2,24.735c-.478,1.781-.955,3.6-1.417,5.473-.032.13-.065.259-.089.381a139.354,139.354,0,0,0-4.372,29.69h.073l-.065,1.7c-.016.291-.024.567-.024.858v60.385a8.109,8.109,0,0,0,8.1,8.1h49.932A8.11,8.11,0,0,0,126.875,153.205Z" fill="#343434"/>
        <path d="M126.875,92.82v60.385a8.11,8.11,0,0,1-8.1,8.1H68.846a8.109,8.109,0,0,1-8.1-8.1V92.82c0-.291.008-.567.024-.858l.065-1.7h-.073a139.354,139.354,0,0,1,4.372-29.69c.024-.122.057-.251.089-.381.462-1.87.939-3.692,1.417-5.473a12.253,12.253,0,0,1,9.57-2.462,18.045,18.045,0,0,1,6.761,2.777,19.533,19.533,0,0,0,6.032,2.68c2.923.672,4.931-.485,7.473-1.951,2.656-1.53,5.66-3.263,10.1-2.9,4.211.348,7.117,2.145,9.676,3.724a16,16,0,0,0,5.894,2.648c.275,1.1.543,2.21.8,3.335a136.571,136.571,0,0,1,3.91,27.691h-.1l.089,1.7C126.867,92.253,126.875,92.529,126.875,92.82Z" fill="#dfdfdf"/>
      </g>
      <g>
        <path d="M119.515,14.971v8.445a4.964,4.964,0,0,1-4.955,4.947H73.065a4.968,4.968,0,0,1-4.955-4.947V14.971a4.969,4.969,0,0,1,4.955-4.947h41.5A4.964,4.964,0,0,1,119.515,14.971Z" fill="#429cb4"/>
        <path d="M114.56,30.387H73.065a6.984,6.984,0,0,1-6.98-6.971V14.971A6.984,6.984,0,0,1,73.065,8h41.5a6.983,6.983,0,0,1,6.979,6.971v8.445A6.983,6.983,0,0,1,114.56,30.387ZM73.065,12.048a2.93,2.93,0,0,0-2.931,2.923v8.445a2.93,2.93,0,0,0,2.931,2.923h41.5a2.93,2.93,0,0,0,2.931-2.923V14.971a2.93,2.93,0,0,0-2.931-2.923Z" fill="#343434"/>
      </g>
      <path d="M124.17,62.579c-.2.009-.4.009-.6.009s-.421-.009-.623-.017c-3.433-.17-5.951-1.716-8.4-3.23-2.47-1.522-4.8-2.964-8.243-3.247s-5.748,1.061-8.21,2.478c-2.785,1.6-5.659,3.254-9.821,2.291a22.591,22.591,0,0,1-6.963-3.044A14.784,14.784,0,0,0,75.7,55.454c-3.781-.6-6.7.8-10.566,5.118-.186.194-.364.4-.542.607l-1.053-.907L62.167,59.09l-.025-.025c.017-.016.025-.032.041-.048.737-.85,1.5-1.684,2.3-2.453a21.957,21.957,0,0,1,2.162-1.846,12.253,12.253,0,0,1,9.57-2.462,18.045,18.045,0,0,1,6.761,2.777,19.522,19.522,0,0,0,6.032,2.68c2.923.672,4.931-.485,7.473-1.951,2.656-1.53,5.66-3.263,10.1-2.9,4.211.348,7.117,2.145,9.676,3.724a16.016,16.016,0,0,0,5.894,2.648,8.465,8.465,0,0,0,1.717.105.99.99,0,0,0,.154,0l.04.8Z" fill="#343434"/>
      <g>
        <path d="M181.443,114.213,78.784,126.632l30.68-15.044a9.982,9.982,0,0,0,7.243,3.2c5.823,0,10.539-5.222,10.539-11.659a2.443,2.443,0,0,0-.009-.256l23.267-11.4Z" fill="#eee418"/>
        <path d="M78.783,128.252a1.62,1.62,0,0,1-.712-3.074l30.68-15.045a1.619,1.619,0,0,1,1.884.336,8.372,8.372,0,0,0,6.072,2.7c4.918,0,8.92-4.5,8.92-10.039v-.094a1.7,1.7,0,0,1,.9-1.616l23.266-11.4a1.623,1.623,0,0,1,1.672.15L182.4,112.909a1.619,1.619,0,0,1-.765,2.912L78.978,128.24A1.607,1.607,0,0,1,78.783,128.252Zm30.382-14.715-21.084,10.34L177.19,113.1,150.336,93.354l-21.49,10.532c-.361,6.969-5.668,12.519-12.139,12.519A11.456,11.456,0,0,1,109.165,113.537Z" fill="#343434"/>
      </g>
      <g>
        <path d="M174.914,127.777c0,3.979,2.929,7.207,6.529,7.207v15.143L78.784,162.546V153.78a8.742,8.742,0,0,0,0-16.852v-10.3l102.659-12.419v6.348C177.843,120.561,174.914,123.789,174.914,127.777Z" fill="#d2c918"/>
        <path d="M78.784,164.165a1.62,1.62,0,0,1-1.619-1.62V153.78a1.619,1.619,0,0,1,1.317-1.591c2.953-.56,5.095-3.436,5.095-6.84a6.708,6.708,0,0,0-5.095-6.83,1.619,1.619,0,0,1-1.317-1.591v-10.3a1.618,1.618,0,0,1,1.424-1.608l102.659-12.419a1.618,1.618,0,0,1,1.814,1.607v6.348a1.619,1.619,0,0,1-1.619,1.619c-2.708,0-4.91,2.511-4.91,5.6s2.2,5.587,4.91,5.587a1.619,1.619,0,0,1,1.619,1.62v15.143a1.619,1.619,0,0,1-1.425,1.607L78.978,164.153A1.579,1.579,0,0,1,78.784,164.165Zm1.619-9.152v5.7l99.42-12.026V136.428a9,9,0,0,1,0-17.311v-3.076L80.4,128.068V135.7a10.48,10.48,0,0,1,0,19.318Z" fill="#343434"/>
      </g>
      <g>
        <ellipse cx="103.307" cy="142.535" rx="5.834" ry="6.448" fill="#a49c24"/>
        <ellipse cx="103.307" cy="142.535" rx="5.834" ry="6.448" fill="none"/>
      </g>
      <g>
        <ellipse cx="143.65" cy="127.489" rx="4.764" ry="5.266" fill="#a49c24"/>
        <ellipse cx="143.65" cy="127.489" rx="4.764" ry="5.266" fill="none"/>
      </g>
      <g>
        <ellipse cx="151.262" cy="102.16" rx="4.764" ry="3.642" fill="#a49c24"/>
        <ellipse cx="151.262" cy="102.16" rx="4.764" ry="3.642" fill="none"/>
      </g>
      <g>
        <ellipse cx="132.565" cy="113.094" rx="3.866" ry="3.153" fill="#a49c24"/>
        <ellipse cx="132.565" cy="113.094" rx="3.866" ry="3.153" fill="none"/>
      </g>
      <g>
        <ellipse cx="163.719" cy="140.481" rx="7.692" ry="8.502" fill="#a49c24"/>
        <ellipse cx="163.719" cy="140.481" rx="7.692" ry="8.502" fill="none"/>
      </g>
    </g>
    <g>
      <path d="M156.313,225.854v8.908c-.071.174-.133.358-.2.543a17.561,17.561,0,0,0-.645,1.955,21.381,21.381,0,0,1-6.962,11.232c-12.194,10.372-24.808,16.361-38.558,18.317a72.482,72.482,0,0,0-19.556,5.365,24.474,24.474,0,0,1-10.034,2.5,14.881,14.881,0,0,1-3.481-.4,14.336,14.336,0,0,0-3.379-.43c-4.914,0-8.017,3.092-10.177,5.785a.486.486,0,0,1-.143.143,4.725,4.725,0,0,0-1.475,5.5,10.278,10.278,0,0,1-.327,7.126c-1.26,3.42-3.778,5.611-8.4,7.29H48.941c-4.689-1.6-7.628-4.382-8.99-8.508a3.969,3.969,0,0,0-2.436-2.519c-3.512-1.29-5.836-3.891-7.516-8.437v-3.993c.062-.184.134-.358.205-.532.174-.45.348-.9.512-1.351a10.893,10.893,0,0,1,10.116-7.505,10.474,10.474,0,0,1,2.3.266,11.136,11.136,0,0,0,2.416.3,7.5,7.5,0,0,0,6.123-3.174,17.115,17.115,0,0,1,1.781-1.782,5.411,5.411,0,0,0,1.71-5.815A27.967,27.967,0,0,1,57.92,235.55,34.662,34.662,0,0,0,61.964,222.8a70.739,70.739,0,0,1,6.041-22.32c4.73-10.105,9.6-16.894,15.8-21.982,2.488-2.048,5.417-3.082,8.529-4.177.86-.3,1.751-.615,2.621-.942h9.082c.143.051.3.1.45.153.512.174,1.034.348,1.6.481,19.422,4.6,34.094,16.351,44.865,35.928,2.079,3.788,3.195,7.853,4.372,12.153.246.9.492,1.8.747,2.7A2.881,2.881,0,0,0,156.313,225.854Zm-9.952,18.031c3.461-3.656,5.212-8.857,4.915-14.672a33.935,33.935,0,0,0-1.628-9.061c-5.4-16.5-16.73-29.18-33.685-37.668A36.237,36.237,0,0,0,99.642,178.4c-.583,0-1.177.021-1.761.052-9.44.512-16.023,6.624-16.781,15.583a35.826,35.826,0,0,0,2.683,17.016A65.08,65.08,0,0,0,106.164,238.9c6.584,4.741,15.021,9.625,27.7,9.881.328.02.645.03.962.03A15.77,15.77,0,0,0,146.361,243.885Zm-21.419,13.586c1.434-.46,2.089-1.31,1.945-2.5a2.422,2.422,0,0,0-2.242-2.027,1.932,1.932,0,0,1-.256-.051c-.737-.226-1.495-.42-2.222-.615a28,28,0,0,1-3.9-1.218c-22.249-9.471-35.877-24.737-41.661-46.637-.011-.072-.021-.164-.031-.256-.184-2.007-1.331-2.447-2.263-2.467h-.051c-1.546,0-2.078,1.453-2.273,2.006-.031.082-.061.174-.092.246a50.293,50.293,0,0,0-4.126,13.925c-1.075,8.661-4,16.453-6.717,22.944-3.01,7.167-2.559,14.283,1.26,20.027a19.343,19.343,0,0,0,15.9,8.58c.369,0,.748-.01,1.116-.041.317.021.635.021.952.021a18,18,0,0,0,7.393-1.5c6.542-2.939,13.893-4.935,23.139-6.287a54.92,54.92,0,0,0,13.914-4.075C124.789,257.522,124.87,257.5,124.942,257.471ZM61.934,273.73a4.086,4.086,0,0,0,1.587-3.02,3.516,3.516,0,0,0-1.475-2.55,8.169,8.169,0,0,1-.655-.593,4.5,4.5,0,0,0-3.1-1.68,3.955,3.955,0,0,0-2.836,1.424c-1.536,1.607-3.154,3.194-4.72,4.72l-.43.419c-1.311,1.29-2.007,1.761-2.58,1.761a6.316,6.316,0,0,1-2.663-1.105,7.557,7.557,0,0,0-3.788-1.137,6.124,6.124,0,0,0-3.532,1.167,5.708,5.708,0,0,0-2.406,6.215c.583,2.642,2.4,4.3,5.406,4.935,1.679.359,2.887.615,3.215.973.338.389.512,1.638.778,3.542a6.266,6.266,0,0,0,6.163,5.744h.072a5.871,5.871,0,0,0,5.2-2.856,6.859,6.859,0,0,0-.163-6.86c-1.669-3.021-1.608-3.522.778-5.959l.2-.215C58.6,277.027,60.255,275.338,61.934,273.73Z" fill="#343434"/>
      <path d="M151.276,229.213c.3,5.815-1.454,11.016-4.915,14.672a15.77,15.77,0,0,1-11.539,4.924c-.317,0-.634-.01-.962-.03-12.675-.256-21.112-5.14-27.7-9.881a65.08,65.08,0,0,1-22.381-27.849A35.826,35.826,0,0,1,81.1,194.033c.758-8.959,7.341-15.071,16.781-15.583.584-.031,1.178-.052,1.761-.052a36.237,36.237,0,0,1,16.321,4.086c16.955,8.488,28.289,21.163,33.685,37.668A33.935,33.935,0,0,1,151.276,229.213Zm-23.15-7.362a7.712,7.712,0,0,0,1.915-5.355c-.021-7.351-8.109-16.146-15.46-16.8-.4-.031-.789-.051-1.168-.051a8.068,8.068,0,0,0-5.569,1.873,6.391,6.391,0,0,0-1.987,4.874,10.656,10.656,0,0,0,.492,3.092c2.263,7.556,7.31,12.307,15,14.129a9.053,9.053,0,0,0,2,.236A6.345,6.345,0,0,0,128.126,221.851Z" fill="#c77b80"/>
      <path d="M130.041,216.5a7.712,7.712,0,0,1-1.915,5.355,6.345,6.345,0,0,1-4.781,2,9.053,9.053,0,0,1-2-.236c-7.689-1.822-12.736-6.573-15-14.129a10.656,10.656,0,0,1-.492-3.092,6.391,6.391,0,0,1,1.987-4.874,8.068,8.068,0,0,1,5.569-1.873c.379,0,.768.02,1.168.051C121.932,200.35,130.02,209.145,130.041,216.5Zm-5.621,1.188a2.7,2.7,0,0,0,.665-1.822,4.709,4.709,0,0,0-.337-1.587,15.543,15.543,0,0,0-6.83-8.109,9.233,9.233,0,0,0-3.8-1.526l-.133-.02-.133.01a2.638,2.638,0,0,0-2.806,2.662,4.564,4.564,0,0,0,.328,1.566,15.666,15.666,0,0,0,9.481,9.481,4.291,4.291,0,0,0,1.464.307A2.729,2.729,0,0,0,124.42,217.684Z" fill="#343434"/>
      <path d="M126.887,254.973c.144,1.188-.511,2.038-1.945,2.5-.072.031-.153.051-.215.082a54.92,54.92,0,0,1-13.914,4.075c-9.246,1.352-16.6,3.348-23.139,6.287a18,18,0,0,1-7.393,1.5c-.317,0-.635,0-.952-.021-.368.031-.747.041-1.116.041a19.343,19.343,0,0,1-15.9-8.58c-3.819-5.744-4.27-12.86-1.26-20.027,2.713-6.491,5.642-14.283,6.717-22.944A50.293,50.293,0,0,1,71.9,203.954c.031-.072.061-.164.092-.246.2-.553.727-2.006,2.273-2.006h.051c.932.02,2.079.46,2.263,2.467.01.092.02.184.031.256,5.784,21.9,19.412,37.166,41.661,46.637a28,28,0,0,0,3.9,1.218c.727.195,1.485.389,2.222.615a1.932,1.932,0,0,0,.256.051A2.422,2.422,0,0,1,126.887,254.973Z" fill="#925c14"/>
      <path d="M125.085,215.862a2.758,2.758,0,0,1-2.764,2.784,4.291,4.291,0,0,1-1.464-.307,15.666,15.666,0,0,1-9.481-9.481,4.564,4.564,0,0,1-.328-1.566,2.638,2.638,0,0,1,2.806-2.662l.133-.01.133.02a9.233,9.233,0,0,1,3.8,1.526,15.543,15.543,0,0,1,6.83,8.109A4.709,4.709,0,0,1,125.085,215.862Z" fill="#fff0a6"/>
      <path d="M63.521,270.71a4.086,4.086,0,0,1-1.587,3.02c-1.679,1.608-3.338,3.3-4.946,4.925l-.2.215c-2.386,2.437-2.447,2.938-.778,5.959a6.859,6.859,0,0,1,.163,6.86,5.871,5.871,0,0,1-5.2,2.856H50.9a6.266,6.266,0,0,1-6.163-5.744c-.266-1.9-.44-3.153-.778-3.542-.328-.358-1.536-.614-3.215-.973-3.01-.635-4.823-2.293-5.406-4.935a5.708,5.708,0,0,1,2.406-6.215,6.124,6.124,0,0,1,3.532-1.167,7.557,7.557,0,0,1,3.788,1.137,6.316,6.316,0,0,0,2.663,1.105c.573,0,1.269-.471,2.58-1.761l.43-.419c1.566-1.526,3.184-3.113,4.72-4.72a3.955,3.955,0,0,1,2.836-1.424,4.5,4.5,0,0,1,3.1,1.68,8.169,8.169,0,0,0,.655.593A3.516,3.516,0,0,1,63.521,270.71Z" fill="#fff0a6"/>
    </g>
    <g>
      <path d="M101.5,330.6a.547.547,0,0,1-.148.144c-.329.207-.894.044-1.319.006a41.011,41.011,0,0,1-7.689-1.545,20.6,20.6,0,0,1-11.064-7.045,23.694,23.694,0,0,1-3.626-6.285,22.356,22.356,0,0,1-1.2-11.683,21.327,21.327,0,0,1,4.45-10.272,3.406,3.406,0,0,1,1.008-.836,3.313,3.313,0,0,1,2.905.291,22.182,22.182,0,0,1,6.247,4.405,30.106,30.106,0,0,1,6.119,10.093c.351.916.667,1.848.958,2.79a92.29,92.29,0,0,1,2.793,13.709c.2,1.4.412,2.8.507,4.208C101.475,328.993,101.732,330.257,101.5,330.6Z" fill="#009c53"/>
      <path d="M97.188,307.871a1.911,1.911,0,0,1-1.382-.514c-2.084-1.558-3.674-3.7-5.7-5.337s-4.8-2.774-7.223-1.826a8.986,8.986,0,0,0-3.662,3.275,49.94,49.94,0,0,0-3.061,4.648,22.146,22.146,0,0,1,.3-3.927,21.327,21.327,0,0,1,4.45-10.272,3.406,3.406,0,0,1,1.008-.836,3.313,3.313,0,0,1,2.905.291,22.182,22.182,0,0,1,6.247,4.405A30.106,30.106,0,0,1,97.188,307.871Z" fill="#46bc5d"/>
      <path d="M100.905,332.121a4.944,4.944,0,0,1-.737-.068c-.086-.013-.17-.026-.247-.033a42.132,42.132,0,0,1-7.933-1.591c-5.175-1.513-8.784-3.818-11.7-7.474a24.968,24.968,0,0,1-3.82-6.623A23.655,23.655,0,0,1,75.2,303.983a22.435,22.435,0,0,1,4.75-10.907,4.633,4.633,0,0,1,1.4-1.14,4.489,4.489,0,0,1,4.055.3A23.785,23.785,0,0,1,92,296.9a33.22,33.22,0,0,1,7.369,13.384,93.6,93.6,0,0,1,2.835,13.9l.018.123c.2,1.359.4,2.764.5,4.183.006.078.023.2.041.334a3.566,3.566,0,0,1-.2,2.486l0,.008a1.8,1.8,0,0,1-.492.484l-.028.019A2.07,2.07,0,0,1,100.905,332.121Zm.6-1.523ZM82.945,294.135a1.069,1.069,0,0,0-.467.094,2.289,2.289,0,0,0-.612.534,19.83,19.83,0,0,0-4.147,9.635,21.109,21.109,0,0,0,1.128,11.016,22.458,22.458,0,0,0,3.432,5.947C84.886,324.625,88,326.6,92.7,327.978a39.577,39.577,0,0,0,7.45,1.5l.118.012c-.015-.127-.031-.244-.042-.325-.027-.2-.049-.38-.057-.5-.09-1.322-.288-2.678-.48-3.989l-.017-.122a91.574,91.574,0,0,0-2.75-13.519,30.739,30.739,0,0,0-6.787-12.383,20.522,20.522,0,0,0-5.9-4.144A2.969,2.969,0,0,0,82.945,294.135Z" fill="#303030"/>
      <path d="M125.036,308.624a22.724,22.724,0,0,1-.76,5.079,23.452,23.452,0,0,1-3.093,6.875,35.8,35.8,0,0,1-9.538,9.359c-1.883,1.319-3.84,2.522-5.826,3.674q-1.484.862-2.984,1.695c-.473.265-2.694,1.114-2.844,1.587,0,0-6.764,21.351-7.118,6.406-.1-4.248-.135-8.5.1-12.746a41.709,41.709,0,0,1,.929-6.856,23.126,23.126,0,0,1,6.54-12.226,25.361,25.361,0,0,1,11.856-6.029,24.979,24.979,0,0,1,6.687-.5c1.73.108,4.73-.055,5.726,1.711A3.72,3.72,0,0,1,125.036,308.624Z" fill="#009c53"/>
      <path d="M125.036,308.624a22.724,22.724,0,0,1-.76,5.079,11.54,11.54,0,0,0-2.79-1.312,18.387,18.387,0,0,0-6.125-.342c-4.632.5-8.977,2.442-13.152,4.511-3.4,1.688-7.032,3.789-8.293,7.37l-.009-.233a23.126,23.126,0,0,1,6.54-12.226,25.361,25.361,0,0,1,11.856-6.029,24.979,24.979,0,0,1,6.687-.5c1.73.108,4.73-.055,5.726,1.711A3.72,3.72,0,0,1,125.036,308.624Z" fill="#46bc5d"/>
      <path d="M94.25,349.889a2.076,2.076,0,0,1-.294-.021c-1.836-.262-2.271-2.8-2.36-6.538-.091-3.8-.15-8.292.107-12.849a42.922,42.922,0,0,1,.959-7.067c1.24-5.482,3.57-9.817,6.924-12.885a26.747,26.747,0,0,1,19.482-6.86c.23.015.48.024.745.034,1.914.071,4.8.18,6.015,2.324a4.845,4.845,0,0,1,.483,2.646,24,24,0,0,1-.8,5.361,24.66,24.66,0,0,1-3.261,7.249,36.775,36.775,0,0,1-9.871,9.7c-1.7,1.191-3.581,2.377-5.916,3.733-.969.562-1.98,1.136-3.006,1.706-.171.1-.424.21-.774.367a16.138,16.138,0,0,0-1.563.768c-.265.817-1.089,3.293-2.1,5.782C96.866,348.618,95.521,349.889,94.25,349.889Zm23.236-43.715a24.251,24.251,0,0,0-16.177,6.239c-2.962,2.709-5.033,6.6-6.157,11.566a40.358,40.358,0,0,0-.9,6.647c-.252,4.465-.194,8.9-.1,12.643a19.257,19.257,0,0,0,.324,3.554c1.149-1.64,3.012-6.251,4.3-10.316.258-.808,1.07-1.245,2.864-2.049.222-.1.5-.223.573-.265,1.016-.565,2.014-1.132,2.969-1.686,2.271-1.318,4.093-2.467,5.734-3.616a34.3,34.3,0,0,0,9.2-9.017,22.089,22.089,0,0,0,2.924-6.5,21.466,21.466,0,0,0,.718-4.794v0a2.727,2.727,0,0,0-.158-1.3c-.506-.9-2.539-.974-3.884-1.024-.288-.011-.561-.022-.808-.037Q118.2,306.175,117.486,306.174Z" fill="#303030"/>
      <g>
        <g>
          <path d="M145.79,360.8a38.262,38.262,0,0,1-1.162,9.021,39.088,39.088,0,0,1-10.2,18.083,132.434,132.434,0,0,1-11.664,10.355C106.349,411.191,92.212,416.1,92.212,416.1c-.438-.156-4.2-1.606-4.447-1.7-11.236-4.523-22.169-10.521-30.873-18.964-.088-.085-.594-.562-.76-.725-.239-.23-1.321-1.309-1.577-1.57-.341-.351-.68-.7-1.008-1.06,0,0-.591-.638-.712-.779a49.583,49.583,0,0,1-11.246-19.746,37.925,37.925,0,0,1-1.376-9.822c0-.392,0-.791.013-1.19,0-.061,0-.122.007-.182.016-.486.038-.971.073-1.46.023-.293.084-.976.089-1.024.024-.22.045-.437.071-.657.012-.131.028-.259.047-.387s.035-.271.055-.408.034-.255.054-.383c.036-.229.067-.457.109-.687.06-.379.127-.762.2-1.142.051-.259.1-.514.159-.77a.345.345,0,0,1,.013-.051c.048-.229.1-.462.157-.692.028-.128.06-.259.095-.387.023-.105.048-.21.077-.316l.134-.507c.172-.642.376-1.276.575-1.915.054-.175.111-.348.172-.521.022-.07.045-.143.073-.213.067-.2.138-.4.214-.6s.157-.427.24-.638c.063-.169.131-.338.2-.508l0,0,.019-.057c.322-.8.67-1.587,1.047-2.359.144-.3.29-.594.44-.884.125-.24.406-.766.422-.8q.215-.393.443-.785a.627.627,0,0,1,.048-.087c.134-.229.444-.743.46-.769.153-.252.313-.5.476-.753s.338-.517.513-.773c.135-.194.559-.791.639-.9.118-.162.236-.322.357-.482.077-.1.53-.683.683-.874s.336-.406.508-.607c.182-.217.367-.427.552-.635.106-.115.559-.606.683-.737.093-.1.185-.195.281-.291.07-.073.39-.4.479-.482.227-.226.457-.443.69-.657.2-.192.408-.377.619-.559.23-.2.466-.406.7-.6.16-.131.808-.647.97-.772s.83-.616,1-.734.338-.236.51-.354c.007,0,.013-.01.023-.016.162-.108.839-.549,1.011-.661.352-.217.706-.431,1.06-.638.179-.1.361-.2.54-.3.36-.2.724-.4,1.091-.578s.738-.367,1.114-.54c.189-.086.374-.172.562-.255l.556-.239.012,0c.352-.146.706-.29,1.063-.424.457-.176.913-.338,1.376-.492.319-.108.642-.21.964-.309.029-.007.057-.017.086-.026.3-.095.61-.175.916-.258.17-.045.336-.09.505-.131.207-.055.412-.1.616-.15.131-.029.734-.163.9-.2a.343.343,0,0,1,.061-.016c.3-.055.6-.118.9-.169.207-.039.418-.074.625-.106.17-.028.342-.051.511-.076.135-.02.268-.042.4-.058q.312-.042.624-.076c.178-.019.359-.039.538-.055.153-.016.3-.032.457-.041.226-.019.456-.038.683-.051.255-.016.514-.029.769-.038s.488-.02.731-.023a43.766,43.766,0,0,1,4.8.176c.188.016,1.539.156,1.737.179.341.041,1.905.248,2.247.3.638.1,1.273.2,1.909.306.989.172,6.313,1.175,6.572,1.226a.53.53,0,0,0,.073.012c.285.055.955.186,1.047.2a.09.09,0,0,0,.026,0c.057.013.115.022.169.032l.367.07.291-.118c1.472-.578,8.165-3.128,12.564-3.39a40.313,40.313,0,0,1,13.92,1.708,39.126,39.126,0,0,1,11.061,5.289,35.262,35.262,0,0,1,14.357,24.055A36.644,36.644,0,0,1,145.79,360.8Z" fill="#eb937c"/>
          <path d="M81.692,337.214c-16.926-2.681-31.99,6.959-39.8,21.294-.262.482-1.673,2.325-1.621,2.793a13.327,13.327,0,0,1,.037-2.4c.7-9.746,5.207-19.621,12.8-25.894a34.409,34.409,0,0,1,18-7.583c7.444-.844,14.854.951,22.129,2.3l.291-.118a39.824,39.824,0,0,1,14.756,16.04c3.871,7.477,5.84,15.1,3.669,23.232C111.949,366.873,106.714,341.175,81.692,337.214Z" fill="#efa694"/>
          <path d="M86.082,333.178c5.11-4.222,11.191-7.695,17.765-8.44a43.655,43.655,0,0,1,22.362,3.154c8.95,4.063,12.5,10.7,15.67,15.165,4.874,6.865,5.161,20.783,2.99,28.917,0,0-1.822-32.131-31.954-35.755a40.905,40.905,0,0,0-10.336-.133Z" fill="#efa694"/>
        </g>
        <path d="M122.766,398.26C106.349,411.191,92.212,416.1,92.212,416.1c-.438-.156-4.2-1.606-4.447-1.7-11.236-4.523-22.169-10.521-30.873-18.964-.088-.085-.594-.562-.76-.725-.239-.23-1.321-1.309-1.577-1.57-.341-.351-.68-.7-1.008-1.06-.115-.125-.591-.638-.712-.779a49.583,49.583,0,0,1-11.246-19.746c4.785,7.013,9.723,14.144,16.58,19.146,8.427,6.148,18.609,12.57,29,13.493C98.905,405.235,110.786,402.6,122.766,398.26Z" fill="#de896e"/>
      </g>
      <path d="M111.232,367.719c.7-10.437-2.095-22.751-8.454-30.429a37.6,37.6,0,0,0-9.959-8.461s-7.954-1.479-8.172-1.527a42.538,42.538,0,0,0-10.242-.923,38.972,38.972,0,0,0-6.124.672c-.025.007-.053.013-.074.017a31.942,31.942,0,0,0-14.544,6.806,32.745,32.745,0,0,0-9.508,13.577l0,.011-.023.062A42.665,42.665,0,0,0,41.4,360.415c-.014.294-.022.556-.028.785-.22,10,4.044,20.139,12.33,29.317l.02.023c.106.123.217.245.331.364l.032.035c.075.085.153.168.232.253,0,0,.74.786,1.075,1.129.251.26,1.315,1.316,1.552,1.544.161.155.712.678.76.725,7.85,7.349,18.4,13.827,30.5,18.721,0,0,3.974,1.533,4.405,1.689a1.169,1.169,0,0,1-.8,2.2c-.44-.16-4.477-1.716-4.477-1.716-12.546-5.075-23.055-11.534-31.241-19.2,0,0-1.543-1.488-1.573-1.519-.282-.279-.545-.545-.8-.814-.346-.355-1.633-1.732-1.759-1.879-8.686-9.626-13.154-20.319-12.921-30.925.007-.248.016-.529.031-.843a45.045,45.045,0,0,1,2.884-13.631s.02-.055.029-.075A35.033,35.033,0,0,1,52.165,332.08a34.236,34.236,0,0,1,15.555-7.3c.039-.01.078-.018.116-.025a41.063,41.063,0,0,1,6.5-.714,44.989,44.989,0,0,1,10.818.976c.208.046,8.3,1.55,8.3,1.55a1.2,1.2,0,0,1,.372.138,39.952,39.952,0,0,1,10.758,9.092c6.743,8.141,9.729,21.04,8.987,32.077Zm-43-40.658-.013,0Zm0,0Z" fill="#303030"/>
      <path d="M92.21,417.267a1.163,1.163,0,0,1-.4-.07c-.44-.16-4.477-1.716-4.477-1.716-12.567-5.058-23.076-11.516-31.241-19.2,0,0-.222-.208-.267-.252-.175-.16-.347-.326-.519-.5-.221-.209-1.332-1.314-1.592-1.583-.346-.355-.691-.716-1.028-1.079-.113-.121-.224-.241-.335-.363-.139-.147-.276-.3-.406-.449-8.371-9.309-12.839-19.8-12.9-30.323,0-.49,0-.969.021-1.422.016-.513.041-1.021.075-1.5a40.361,40.361,0,0,1,2.815-12.154c.009-.026.018-.05.028-.075A36.415,36.415,0,0,1,52.363,332.1a35.427,35.427,0,0,1,15.35-7.318c.039-.01.078-.019.116-.026,1.056-.213,2.114-.381,3.143-.5,1.07-.124,2.175-.2,3.374-.218a56.962,56.962,0,0,1,10.749.965c1.634.277,8.02,1.5,8.02,1.5,1.931-.759,8.434-3.2,12.9-3.462a42.089,42.089,0,0,1,25.718,7.2A36.428,36.428,0,0,1,146.582,355.1a38.009,38.009,0,0,1,.377,5.711,40.3,40.3,0,0,1-11.7,27.921c-20.694,20.694-42.444,28.4-42.661,28.472A1.176,1.176,0,0,1,92.21,417.267ZM44.123,347.535a37.28,37.28,0,0,0-2.65,11.447c-.032.446-.056.921-.071,1.412q-.024.642-.02,1.328c.076,12.558,6.742,22.59,12.321,28.8.125.146.237.268.351.387l.347.377c.325.351.657.7.992,1.04.251.26,1.312,1.315,1.546,1.539.172.17.323.316.477.457l.024.022c.039.038.217.2.265.251,7.942,7.472,18.208,13.774,30.5,18.721,0,0,3.708,1.434,4.005,1.543,2.964-1.117,22.6-8.979,41.393-27.776a37.948,37.948,0,0,0,11.02-26.288,35.741,35.741,0,0,0-.354-5.361A34.087,34.087,0,0,0,130.4,332.165a39.651,39.651,0,0,0-24.243-6.786c-4.25.251-10.912,2.8-12.2,3.31l-.285.114a1.175,1.175,0,0,1-.65.064s-6.7-1.281-8.313-1.554a54.643,54.643,0,0,0-10.315-.933c-1.124.021-2.154.087-3.152.2-.968.11-1.963.267-2.957.468l-.061.015A33.077,33.077,0,0,0,53.851,333.9a34.069,34.069,0,0,0-9.7,13.558C44.142,347.487,44.133,347.511,44.123,347.535Zm24.1-20.474-.013,0Zm0,0Z" fill="#303030"/>
    </g>
    <g>
      <path d="M114.276,500.812c-4.032,3.284-9.234,7.55-14.95,12.153-2.666,2.151-5.445,4.378-8.27,6.6-10.253,8.112-21.05,16.288-29.067,21.322-4.977,3.124-10.282-.7-9.412-6.512.356-2.357.945-5.183,1.712-8.326v-.01c.777-3.2,1.731-6.726,2.788-10.393,4.341-15.044,10.394-32.436,12.957-39.639.768-2.152,1.217-3.4,1.217-3.4a16.453,16.453,0,0,1,3.321-5.782c6.015-6.9,17.457-9.673,25.447-5.286a1.732,1.732,0,0,1,.215.122c.365.206.73.421,1.076.664l3.293,1.852.711.4,7.671,4.313C122.874,475.665,123.557,493.234,114.276,500.812Z" fill="#f29049"/>
      <path d="M93.319,483.807a5.1,5.1,0,0,1-4.182,2.18,5.034,5.034,0,0,1-2.872-.9L71.54,474.9c.767-2.151,1.216-3.395,1.216-3.395a16.453,16.453,0,0,1,3.321-5.782l15.951,11.03A5.092,5.092,0,0,1,93.319,483.807Z" fill="#be681c"/>
      <path d="M100.832,511.854c-2.667,2.152-5.445,4.379-8.271,6.6L78.65,508.842a5.067,5.067,0,0,1,2.9-9.234,5.029,5.029,0,0,1,2.872.9Z" fill="#be681c"/>
      <path d="M64.813,525.017a5.092,5.092,0,0,1-4.182,2.18,5.034,5.034,0,0,1-2.872-.9L55.8,524.943v-.01c.776-3.2,1.73-6.726,2.788-10.394l4.949,3.424A5.081,5.081,0,0,1,64.813,525.017Z" fill="#be681c"/>
      <g>
        <path d="M100.165,460q-2.957-4.9-6.09-9.7c-2.922-4.459-7.414-8.532-8.851-13.786-.9-3.3-.165-7.6,3.212-9.231a7.9,7.9,0,0,1,6.027.03C106.557,431.649,105.693,450.977,100.165,460Z" fill="#60b463"/>
        <path d="M100.154,463.27l-1.445-2.394c-2.036-3.375-4.074-6.619-6.056-9.644-.894-1.364-1.94-2.69-3.049-4.092-2.435-3.084-4.952-6.272-6.02-10.178-1.108-4.054-.05-9.2,4.114-11.213a9.518,9.518,0,0,1,7.34-.035c4.34,1.555,7.549,4.974,9.277,9.884,3.033,8.617.871,19.459-2.7,25.288ZM91.165,428.4a4.587,4.587,0,0,0-1.99.416c-2.463,1.188-3.029,4.624-2.311,7.253.887,3.237,3.186,6.149,5.41,8.967,1.105,1.4,2.246,2.846,3.224,4.335,1.489,2.271,3.009,4.668,4.535,7.146,2.316-5.48,3.278-13.525,1.073-19.786-1.4-3.968-3.824-6.6-7.217-7.812A8.276,8.276,0,0,0,91.165,428.4Z" fill="#333"/>
      </g>
      <g>
        <path d="M104.05,463.933c1.613-.322,2.592-15.093,2.816-16.855.8-6.295,1.516-12.643,1.84-18.983.282-5.527,2.417-9,7.479-11.389,6.52-3.072,13.8,1.3,16.532,7.547,3.753,8.586-2.444,17.767-7.645,24.29C119.838,455.108,112.6,462.225,104.05,463.933Z" fill="#60b463"/>
        <path d="M104.382,465.6l-.666-3.336a1.2,1.2,0,0,0-.741.437c.609-.966,1.288-5.631,2.017-13.864.084-.958.147-1.664.187-1.975.717-5.651,1.494-12.311,1.829-18.856.32-6.275,2.926-10.234,8.451-12.84a12.332,12.332,0,0,1,9.776-.314,16.456,16.456,0,0,1,9.04,8.716c4.043,9.253-2.085,18.772-7.873,26.032-7.293,9.149-14.7,14.531-22,16A.047.047,0,0,0,104.382,465.6Zm16.259-48.2a8.66,8.66,0,0,0-3.733.843c-4.364,2.059-6.25,4.938-6.5,9.937-.339,6.658-1.125,13.4-1.85,19.112-.037.291-.094.95-.173,1.844a122.761,122.761,0,0,1-1.483,12.209c5.51-2.084,11.162-6.734,16.845-13.864,5.2-6.514,10.732-14.963,7.416-22.548a12.988,12.988,0,0,0-7.119-6.9A9.683,9.683,0,0,0,120.641,417.4Z" fill="#333"/>
      </g>
      <g>
        <path d="M110.97,467.353c1.193.758,6.314-2.957,7.514-3.59,4.3-2.272,8.065-5.154,12.171-7.691,3.353-2.073,7.791-2.85,10.5.648a7.347,7.347,0,0,1,1.029,6.28C138.864,475.89,119.286,472.776,110.97,467.353Z" fill="#60b463"/>
        <path d="M127.813,473.736a34.884,34.884,0,0,1-17.772-4.958l1.841-2.861a.8.8,0,0,0-.5-.164c.869-.059,3.764-1.906,4.854-2.6.639-.406,1.159-.733,1.455-.892a83.69,83.69,0,0,0,7.555-4.688c1.488-1,2.979-2,4.517-2.945,4.9-3.027,9.9-2.611,12.74,1.052a9.024,9.024,0,0,1,1.331,7.746,12.784,12.784,0,0,1-8.1,8.99A22.027,22.027,0,0,1,127.813,473.736Zm-12.527-6.018c5.793,2.5,13.8,3.625,19.21,1.525a9.386,9.386,0,0,0,6.043-6.668,5.629,5.629,0,0,0-.727-4.816c-2.6-3.354-6.984-1.032-8.263-.242-1.5.93-2.958,1.906-4.412,2.879a87.876,87.876,0,0,1-7.86,4.872c-.248.13-.68.408-1.214.751C117.055,466.663,116.13,467.24,115.286,467.718Z" fill="#333"/>
      </g>
      <path d="M58.335,543.714a7.277,7.277,0,0,1-4.02-1.2,8.332,8.332,0,0,1-3.42-8.387c.345-2.289.916-5.079,1.7-8.29l.044-.195c.745-3.063,1.689-6.585,2.808-10.464,4.581-15.877,11.1-34.429,12.989-39.738l1.219-3.4a18.057,18.057,0,0,1,3.639-6.323c6.755-7.754,19.115-10.29,27.546-5.656l.378.219a11.518,11.518,0,0,1,1.07.662l11.534,6.479c5.191,3.543,8.394,9.868,8.7,17,.3,7.179-2.375,13.8-7.165,17.709h0l-2.915,2.379c-3.5,2.861-7.619,6.22-12.043,9.781-2.668,2.154-5.453,4.384-8.283,6.617-12.7,10.048-22.259,17.058-29.215,21.426A8.593,8.593,0,0,1,58.335,543.714Zm-2.346-17.466-.048.209c-.779,3.194-1.345,5.943-1.682,8.175a4.979,4.979,0,0,0,1.917,5.036,4.42,4.42,0,0,0,4.909-.217C67.841,535.21,77.57,528.072,90,518.236c2.823-2.225,5.595-4.445,8.256-6.6,4.419-3.556,8.528-6.91,12.028-9.766l2.917-2.381c3.963-3.237,6.174-8.816,5.916-14.93-.257-6.065-2.908-11.4-7.093-14.26l-11.55-6.489c-.444-.3-.763-.488-1.081-.667-7.184-3.952-17.877-1.7-23.539,4.8a14.734,14.734,0,0,0-2.985,5.186l-1.233,3.444c-1.88,5.285-8.372,23.758-12.926,39.541C57.631,519.871,56.715,523.277,55.989,526.248Z" fill="#333"/>
    </g>
    <g>
      <path d="M164.71,614.835a20.225,20.225,0,0,1-.511,3.145A367.309,367.309,0,0,1,96.947,624c-40.131,0-68.247-6.048-68.65-6.129l-3.871-.94c-.08-.591-.161-1.21-.188-1.8-.564-9.811,7.257-19,13.9-24.944a61.192,61.192,0,0,1,15.428-9.73c-1.693,3.978-3.682,11.047-1.209,18.6a5.91,5.91,0,0,0,2.957,3.333,6.044,6.044,0,0,0,2.661.618,5.846,5.846,0,0,0,1.935-.322,5.927,5.927,0,0,0,3.656-7.58c-2.93-8.924,1.4-17.391,2.419-19.246a102.915,102.915,0,0,1,15.4-3.306c-1.613,3.44-4.113,11.074-2.1,22.5a6.794,6.794,0,0,0,6.666,5.645,4.554,4.554,0,0,0,.592-.027,6.609,6.609,0,0,0,4.677-2.581,6.706,6.706,0,0,0,1.344-5.215c-1.909-11.934,1.478-19.3,2.634-21.342.322-.027.618-.027.941-.027a94.269,94.269,0,0,1,18.17,1.694c-.269.349-.511.7-.753,1.075a24.855,24.855,0,0,0-2.607,21.02c.591,1.881,2.312,7.257,6.639,7.257a5.116,5.116,0,0,0,1.4-.188,5.4,5.4,0,0,0,3.817-3.548,9.8,9.8,0,0,0-.188-4.919,15.207,15.207,0,0,1-.323-1.882,24.305,24.305,0,0,1,.269-5.913,20.831,20.831,0,0,1,4.381-9.488,71.942,71.942,0,0,1,21.343,11.934C159.71,597.9,165.247,606.771,164.71,614.835Z" fill="#fabb48"/>
      <path d="M164.2,617.98c-1.855,6.774-7.876,11.746-12.956,14.891a24.514,24.514,0,0,1-12.848,3.548H47.972a20.423,20.423,0,0,1-11.8-3.628q-10.281-7.218-11.746-15.859l3.871.94c.4.081,28.519,6.129,68.65,6.129A367.309,367.309,0,0,0,164.2,617.98Z" fill="#f6a42c"/>
      <path d="M122.617,593.9a9.8,9.8,0,0,1,.188,4.919,5.4,5.4,0,0,1-3.817,3.548,5.116,5.116,0,0,1-1.4.188c-4.327,0-6.048-5.376-6.639-7.257a24.855,24.855,0,0,1,2.607-21.02c.242-.376.484-.726.753-1.075.914.161,1.855.376,2.769.565-.431.537-.861,1.155-1.371,1.908a22.525,22.525,0,0,0-2.339,18.842c1.747,5.376,3.575,5.7,5.027,5.349a2.7,2.7,0,0,0,1.935-1.828,8.006,8.006,0,0,0-.215-3.6,20.415,20.415,0,0,1-.376-2.178,25.975,25.975,0,0,1,.3-6.612,22.863,22.863,0,0,1,4.328-9.891c.833.241,1.72.564,2.58.86a20.831,20.831,0,0,0-4.381,9.488,24.305,24.305,0,0,0-.269,5.913A15.207,15.207,0,0,0,122.617,593.9Z" fill="#3d0f1c"/>
      <path d="M120.117,594.434a8.006,8.006,0,0,1,.215,3.6,2.7,2.7,0,0,1-1.935,1.828c-1.452.35-3.28.027-5.027-5.349a22.525,22.525,0,0,1,2.339-18.842c.51-.753.94-1.371,1.371-1.908,2.446.537,4.892,1.209,7.284,1.989a22.863,22.863,0,0,0-4.328,9.891,25.975,25.975,0,0,0-.3,6.612A20.415,20.415,0,0,0,120.117,594.434Z" fill="#f6a42c"/>
      <path d="M92.566,592.874a6.706,6.706,0,0,1-1.344,5.215,6.609,6.609,0,0,1-4.677,2.581,4.554,4.554,0,0,1-.592.027,6.794,6.794,0,0,1-6.666-5.645c-2.016-11.424.484-19.058,2.1-22.5,1.048-.161,2.069-.3,3.118-.4-.78,1.317-5.027,9.112-2.688,22.471a4.2,4.2,0,0,0,4.489,3.467,4.023,4.023,0,0,0,2.876-1.559,4.078,4.078,0,0,0,.833-3.252c-1.747-10.967.672-18.305,2.231-21.665.968-.081,1.989-.081,2.957-.081C94.044,573.575,90.657,580.94,92.566,592.874Z" fill="#3d0f1c"/>
      <path d="M90.012,593.278a4.078,4.078,0,0,1-.833,3.252,4.023,4.023,0,0,1-2.876,1.559,4.2,4.2,0,0,1-4.489-3.467c-2.339-13.359,1.908-21.154,2.688-22.471,2.553-.3,5.134-.457,7.741-.538C90.684,574.973,88.265,582.311,90.012,593.278Z" fill="#f6a42c"/>
      <path d="M63.563,595.106a5.927,5.927,0,0,1-3.656,7.58,5.846,5.846,0,0,1-1.935.322,6.044,6.044,0,0,1-2.661-.618,5.91,5.91,0,0,1-2.957-3.333c-2.473-7.553-.484-14.622,1.209-18.6,1.156-.538,2.339-1.049,3.575-1.533-1.1,1.989-5.295,10.456-2.338,19.3a3.361,3.361,0,0,0,1.64,1.855,3.579,3.579,0,0,0,2.634.188,3.4,3.4,0,0,0,2.069-4.327c-2.58-7.849-.3-15.187,1.452-19.031,1.1-.349,2.231-.726,3.387-1.048C64.96,577.715,60.633,586.182,63.563,595.106Z" fill="#3d0f1c"/>
      <path d="M61.143,595.939a3.4,3.4,0,0,1-2.069,4.327,3.579,3.579,0,0,1-2.634-.188,3.361,3.361,0,0,1-1.64-1.855c-2.957-8.843,1.236-17.31,2.338-19.3,1.748-.726,3.575-1.4,5.457-2.016C60.848,580.752,58.563,588.09,61.143,595.939Z" fill="#f6a42c"/>
      <path d="M149.9,586.585a76.909,76.909,0,0,0-33.922-15.617c-21.18-4.328-43.7-1.075-60.747,5.994a67.1,67.1,0,0,0-18.816,11.316c-7.069,6.317-15.4,16.155-14.756,27.014.43,7.231,4.811,13.843,13.036,19.568A22.737,22.737,0,0,0,47.972,639H138.4a27.134,27.134,0,0,0,14.192-3.952c6.344-3.924,14.058-10.536,14.676-20.025C167.882,606.073,162.022,596.5,149.9,586.585Zm-111.764,3.6a61.192,61.192,0,0,1,15.428-9.73c1.156-.538,2.339-1.049,3.575-1.533,1.748-.726,3.575-1.4,5.457-2.016,1.1-.349,2.231-.726,3.387-1.048a102.915,102.915,0,0,1,15.4-3.306c1.048-.161,2.069-.3,3.118-.4,2.553-.3,5.134-.457,7.741-.538.968-.081,1.989-.081,2.957-.081.322-.027.618-.027.941-.027a94.269,94.269,0,0,1,18.17,1.694c.914.161,1.855.376,2.769.565,2.446.537,4.892,1.209,7.284,1.989.833.241,1.72.564,2.58.86a71.942,71.942,0,0,1,21.343,11.934c11.423,9.354,16.96,18.224,16.423,26.288a20.225,20.225,0,0,1-.511,3.145c-1.855,6.774-7.876,11.746-12.956,14.891a24.514,24.514,0,0,1-12.848,3.548H47.972a20.423,20.423,0,0,1-11.8-3.628q-10.281-7.218-11.746-15.859c-.08-.591-.161-1.21-.188-1.8C23.674,605.32,31.5,596.127,38.135,590.187Z" fill="#333"/>
    </g>
  </g>
</svg>
