<svg xmlns="http://www.w3.org/2000/svg" width="600" height="490" viewBox="0 0 600 490">
  <g>
    <path d="M110.865,70.023c-.246-.247-.553-.867.182-.712.575.122.4.453.543.089.452-1.184,1.073-.112.573.513-.24.3.225-.084.849.277,1.018.589.946,2.318-1.243,3.1C109.349,72.451,109.421,70.359,110.865,70.023Z" fill="#3a3a3a"/>
    <path d="M122.612,70.023c-.247-.247-.556-.867.182-.712.575.122.4.453.543.089.452-1.184,1.069-.113.57.513-.238.3.227-.083.849.277,1.02.59.949,2.318-1.24,3.1C121.1,72.451,121.165,70.359,122.612,70.023Z" fill="#3a3a3a"/>
    <path d="M134.356,70.023c-.247-.247-.553-.867.182-.712.575.122.4.453.543.089.452-1.184,1.073-.112.572.513-.239.3.226-.084.85.277,1.018.589.946,2.318-1.243,3.1C132.839,72.451,132.912,70.359,134.356,70.023Z" fill="#3a3a3a"/>
    <path d="M146.1,70.023c-.246-.247-.553-.867.182-.712.575.122.4.453.543.089.452-1.184,1.073-.112.573.513-.24.3.225-.084.849.277,1.018.589.946,2.318-1.243,3.1C144.584,72.451,144.656,70.359,146.1,70.023Z" fill="#3a3a3a"/>
    <path d="M157.847,70.023c-.247-.247-.555-.867.182-.712.575.122.4.453.543.089.452-1.184,1.069-.113.57.513-.238.3.227-.083.849.277,1.02.59.949,2.318-1.24,3.1C156.33,72.451,156.4,70.359,157.847,70.023Z" fill="#3a3a3a"/>
    <path d="M169.591,70.023c-.246-.247-.553-.867.182-.712.575.122.4.453.543.089.452-1.184,1.073-.112.572.513-.239.3.226-.084.85.277,1.018.589.946,2.318-1.243,3.1C168.074,72.451,168.147,70.359,169.591,70.023Z" fill="#3a3a3a"/>
    <path d="M181.338,70.023c-.247-.247-.556-.867.182-.712.575.122.4.453.542.089.453-1.184,1.069-.113.571.513-.238.3.227-.083.849.277,1.02.59.949,2.318-1.24,3.1C179.821,72.451,179.891,70.359,181.338,70.023Z" fill="#3a3a3a"/>
    <path d="M193.082,70.023c-.247-.247-.553-.867.182-.712.575.122.4.453.543.089.452-1.184,1.073-.112.572.513-.239.3.226-.084.85.277,1.018.589.946,2.318-1.243,3.1C191.565,72.451,191.638,70.359,193.082,70.023Z" fill="#3a3a3a"/>
    <path d="M204.826,70.023c-.246-.247-.553-.867.182-.712.575.122.4.453.543.089.452-1.184,1.073-.112.573.513-.24.3.225-.084.849.277,1.018.589.946,2.318-1.243,3.1C203.31,72.451,203.382,70.359,204.826,70.023Z" fill="#3a3a3a"/>
    <path d="M216.573,70.023c-.247-.247-.556-.867.182-.712.575.122.4.453.542.089.453-1.184,1.07-.113.571.513-.238.3.227-.083.849.277,1.02.59.949,2.318-1.24,3.1C215.056,72.451,215.126,70.359,216.573,70.023Z" fill="#3a3a3a"/>
    <path d="M228.317,70.023c-.247-.247-.553-.867.182-.712.575.122.4.453.543.089.452-1.184,1.073-.112.572.513-.239.3.226-.084.85.277,1.018.589.946,2.318-1.243,3.1C226.8,72.451,226.873,70.359,228.317,70.023Z" fill="#3a3a3a"/>
    <path d="M240.064,70.023c-.247-.247-.556-.867.181-.712.576.122.4.453.543.089.453-1.184,1.069-.113.571.513-.238.3.227-.083.849.277,1.02.59.949,2.318-1.24,3.1C238.547,72.451,238.617,70.359,240.064,70.023Z" fill="#3a3a3a"/>
    <path d="M251.808,70.023c-.247-.247-.553-.867.182-.712.575.122.4.453.542.089.453-1.184,1.074-.112.573.513-.239.3.226-.084.849.277,1.019.589.947,2.318-1.242,3.1C250.291,72.451,250.363,70.359,251.808,70.023Z" fill="#3a3a3a"/>
    <path d="M263.552,70.023c-.247-.247-.553-.867.182-.712.575.122.4.453.543.089.452-1.184,1.073-.112.572.513-.239.3.226-.084.85.277,1.018.589.946,2.318-1.243,3.1C262.035,72.451,262.108,70.359,263.552,70.023Z" fill="#3a3a3a"/>
    <path d="M275.3,70.023c-.247-.247-.556-.867.181-.712.576.122.4.453.543.089.453-1.184,1.069-.113.571.513-.238.3.227-.083.849.277,1.02.59.949,2.318-1.24,3.1C273.782,72.451,273.852,70.359,275.3,70.023Z" fill="#3a3a3a"/>
    <path d="M287.043,70.023c-.247-.247-.553-.867.182-.712.575.122.4.453.543.089.452-1.184,1.073-.112.572.513-.239.3.226-.084.849.277,1.019.589.947,2.318-1.242,3.1C285.526,72.451,285.6,70.359,287.043,70.023Z" fill="#3a3a3a"/>
    <path d="M298.79,70.023c-.247-.247-.556-.867.181-.712.576.122.4.453.543.089.453-1.184,1.069-.113.57.513-.237.3.228-.083.85.277,1.019.59.948,2.318-1.241,3.1C297.273,72.451,297.343,70.359,298.79,70.023Z" fill="#3a3a3a"/>
    <path d="M310.534,70.023c-.247-.247-.553-.867.181-.712.576.122.4.453.543.089.453-1.184,1.074-.112.573.513-.239.3.226-.084.849.277,1.018.589.947,2.318-1.242,3.1C309.017,72.451,309.089,70.359,310.534,70.023Z" fill="#3a3a3a"/>
    <path d="M322.278,70.023c-.247-.247-.553-.867.182-.712.575.122.4.453.543.089.452-1.184,1.073-.112.572.513-.239.3.226-.084.849.277,1.019.589.947,2.318-1.242,3.1C320.761,72.451,320.834,70.359,322.278,70.023Z" fill="#3a3a3a"/>
    <path d="M334.025,70.023c-.247-.247-.556-.867.181-.712.576.122.4.453.543.089.453-1.184,1.073-.112.573.513-.239.3.225-.084.849.277,1.018.589.946,2.318-1.242,3.1C332.508,72.451,332.578,70.359,334.025,70.023Z" fill="#3a3a3a"/>
    <path d="M345.769,70.023c-.247-.247-.556-.867.182-.712.575.122.4.453.542.089.453-1.184,1.074-.112.573.513-.239.3.226-.084.849.277,1.019.589.947,2.318-1.242,3.1C344.252,72.451,344.322,70.359,345.769,70.023Z" fill="#3a3a3a"/>
    <path d="M357.513,70.023c-.247-.247-.555-.867.182-.712.575.122.4.453.543.089.452-1.184,1.073-.112.572.513-.239.3.226-.084.85.277,1.018.589.946,2.318-1.243,3.1C356,72.451,356.066,70.359,357.513,70.023Z" fill="#3a3a3a"/>
    <path d="M369.26,70.023c-.247-.247-.556-.867.181-.712.576.122.4.453.543.089.453-1.184,1.073-.112.573.513-.239.3.225-.084.849.277,1.018.589.947,2.318-1.242,3.1C367.743,72.451,367.813,70.359,369.26,70.023Z" fill="#3a3a3a"/>
    <path d="M381,70.023c-.247-.247-.556-.867.182-.712.575.122.4.453.542.089.453-1.184,1.074-.112.573.513-.239.3.226-.084.849.277,1.019.589.947,2.318-1.242,3.1C379.487,72.451,379.557,70.359,381,70.023Z" fill="#3a3a3a"/>
    <path d="M392.75,70.023c-.246-.247-.555-.867.182-.712.575.122.4.453.543.089.453-1.184,1.073-.112.573.513-.239.3.225-.084.849.277,1.018.589.946,2.318-1.243,3.1C391.234,72.451,391.3,70.359,392.75,70.023Z" fill="#3a3a3a"/>
    <path d="M404.5,70.023c-.247-.247-.556-.867.181-.712.576.122.4.453.543.089.453-1.184,1.073-.112.573.513-.239.3.225-.084.849.277,1.018.589.947,2.318-1.242,3.1C402.978,72.451,403.048,70.359,404.5,70.023Z" fill="#3a3a3a"/>
    <path d="M416.239,70.023c-.247-.247-.556-.867.182-.712.575.122.4.453.542.089.453-1.184,1.074-.112.573.513-.239.3.226-.084.849.277,1.019.589.947,2.318-1.242,3.1C414.722,72.451,414.792,70.359,416.239,70.023Z" fill="#3a3a3a"/>
    <path d="M457.657,73.283c-.065,0-.122-.011-.179-.02a3,3,0,0,1-2.54-2.936,2.954,2.954,0,0,1,.147-.894,1.291,1.291,0,0,1,.052-.165c.037-.094.071-.166.107-.239a3.43,3.43,0,0,1,.177-.324l.042-.064.04-.05a2.321,2.321,0,0,1,.209-.274l7.461-8.24h-.109l6.957-7.563V51.7l.67-.01a5.329,5.329,0,1,0-9.811-2.888v1.352h-.294a2.965,2.965,0,0,1-5.337,0h-.284l-.012-1.347a11.271,11.271,0,1,1,20.283,6.758v.03l-.172.214-.109.125a2.386,2.386,0,0,1-.227.281L464.65,67.351h9.869a2.976,2.976,0,0,1,0,5.952H457.914A2.189,2.189,0,0,1,457.657,73.283Z" fill="#3a3a3a"/>
    <path d="M508.763,65.331a7.952,7.952,0,0,1-13.657,5.539V79a1.123,1.123,0,1,1-2.246,0V65.331a7.952,7.952,0,0,1,15.9,0Zm-2.249,0a5.7,5.7,0,1,0-5.7,5.7A5.71,5.71,0,0,0,506.514,65.331Z" fill="#3a3a3a"/>
    <path d="M526.6,65.356a7.952,7.952,0,1,1-7.952-7.951A7.951,7.951,0,0,1,526.6,65.356Zm-2.246,0a5.706,5.706,0,1,0-5.706,5.7A5.713,5.713,0,0,0,524.35,65.356Z" fill="#3a3a3a"/>
    <path d="M543.726,72.174a1.123,1.123,0,1,1-2.246,0v-1.1a7.291,7.291,0,0,1-5.307,2.209c-4.392,0-7.214-3.562-7.214-7.952V58.515a1.123,1.123,0,0,1,2.246,0v6.821c0,3.145,1.821,5.7,4.968,5.7a5.383,5.383,0,0,0,5.307-5.687V58.505a1.123,1.123,0,0,1,2.246,0V72.174Z" fill="#3a3a3a"/>
    <path d="M561.958,65.344v6.82a1.123,1.123,0,1,1-2.246,0v-6.82c0-3.146-1.818-5.7-4.969-5.7a5.383,5.383,0,0,0-5.306,5.685v6.851a1.124,1.124,0,0,1-2.247,0V58.505a1.124,1.124,0,0,1,2.247,0v1.1a7.285,7.285,0,0,1,5.306-2.209C559.136,57.392,561.958,60.953,561.958,65.344Z" fill="#3a3a3a"/>
    <path d="M580.232,65.356a7.956,7.956,0,1,1-2.249-5.538V51.684a1.125,1.125,0,0,1,2.249,0Zm-2.249,0a5.7,5.7,0,1,0-5.7,5.7A5.721,5.721,0,0,0,577.983,65.359Z" fill="#3a3a3a"/>
    <path d="M593.066,70.857c-.057.082-.119.165-.184.247a6.26,6.26,0,0,1-4.936,2.079,7.556,7.556,0,0,1-2.057-.279,5.5,5.5,0,0,1-3.257-2.577l-.035-.058a1.124,1.124,0,0,1,1.908-1.187l.052.084a3.284,3.284,0,0,0,1.948,1.579c1.514.431,3.667.165,4.626-1.048.036-.045.065-.088.1-.13a2.186,2.186,0,0,0,.209-1.982A2.476,2.476,0,0,0,589.784,66c-.341-.1-1.081-.239-1.671-.351-.525-.1-.979-.184-1.262-.257a4.079,4.079,0,0,1-3.118-4.442,4.356,4.356,0,0,1,3.048-3.263c2.154-.712,5.237-.068,6.472,2.209a1.123,1.123,0,1,1-1.975,1.069c-.627-1.165-2.522-1.564-3.792-1.146a2.148,2.148,0,0,0-1.534,1.487,1.862,1.862,0,0,0,1.464,1.91c.209.054.667.142,1.113.227.707.131,1.44.271,1.89.4a4.7,4.7,0,0,1,3.138,3A4.447,4.447,0,0,1,593.066,70.857Z" fill="#3a3a3a"/>
    <path d="M102.067,172.025c-.247-.247-.553-.867.182-.712.575.122.4.453.543.089.452-1.184,1.073-.112.572.513-.239.3.226-.084.85.277,1.018.589.946,2.318-1.243,3.1C100.55,174.453,100.623,172.361,102.067,172.025Z" fill="#3a3a3a"/>
    <path d="M113.814,172.025c-.247-.247-.556-.867.181-.712.576.122.4.453.543.089.453-1.184,1.069-.113.571.513-.238.3.227-.083.849.277,1.02.59.949,2.318-1.24,3.1C112.3,174.453,112.367,172.361,113.814,172.025Z" fill="#3a3a3a"/>
    <path d="M125.558,172.025c-.247-.247-.553-.867.182-.712.575.122.4.453.543.089.452-1.184,1.073-.112.572.513-.239.3.226-.084.849.277,1.019.589.947,2.318-1.242,3.1C124.041,174.453,124.113,172.361,125.558,172.025Z" fill="#3a3a3a"/>
    <path d="M137.3,172.025c-.247-.247-.553-.867.182-.712.575.122.4.453.543.089.452-1.184,1.073-.112.572.513-.239.3.226-.084.85.277,1.018.589.946,2.318-1.243,3.1C135.785,174.453,135.858,172.361,137.3,172.025Z" fill="#3a3a3a"/>
    <path d="M149.049,172.025c-.247-.247-.556-.867.181-.712.576.122.4.453.543.089.453-1.184,1.069-.113.571.513-.238.3.227-.083.849.277,1.02.59.949,2.318-1.24,3.1C147.532,174.453,147.6,172.361,149.049,172.025Z" fill="#3a3a3a"/>
    <path d="M160.793,172.025c-.247-.247-.553-.867.182-.712.575.122.4.453.543.089.452-1.184,1.073-.112.572.513-.239.3.226-.084.849.277,1.019.589.947,2.318-1.242,3.1C159.276,174.453,159.349,172.361,160.793,172.025Z" fill="#3a3a3a"/>
    <path d="M172.54,172.025c-.247-.247-.556-.867.181-.712.576.122.4.453.543.089.453-1.184,1.069-.113.57.513-.237.3.228-.083.85.277,1.02.59.948,2.318-1.24,3.1C171.023,174.453,171.093,172.361,172.54,172.025Z" fill="#3a3a3a"/>
    <path d="M184.284,172.025c-.247-.247-.553-.867.182-.712.575.122.4.453.542.089.453-1.184,1.074-.112.573.513-.239.3.226-.084.849.277,1.019.589.947,2.318-1.242,3.1C182.767,174.453,182.839,172.361,184.284,172.025Z" fill="#3a3a3a"/>
    <path d="M196.028,172.025c-.247-.247-.553-.867.182-.712.575.122.4.453.543.089.452-1.184,1.073-.112.572.513-.239.3.226-.084.85.277,1.018.589.946,2.318-1.243,3.1C194.511,174.453,194.584,172.361,196.028,172.025Z" fill="#3a3a3a"/>
    <path d="M207.775,172.025c-.247-.247-.556-.867.181-.712.576.122.4.453.543.089.453-1.184,1.069-.113.571.513-.238.3.227-.083.849.277,1.02.59.949,2.318-1.24,3.1C206.258,174.453,206.328,172.361,207.775,172.025Z" fill="#3a3a3a"/>
    <path d="M219.519,172.025c-.247-.247-.553-.867.182-.712.575.122.4.453.542.089.453-1.184,1.074-.112.573.513-.239.3.226-.084.849.277,1.019.589.947,2.318-1.242,3.1C218,174.453,218.074,172.361,219.519,172.025Z" fill="#3a3a3a"/>
    <path d="M231.265,172.025c-.246-.247-.555-.867.182-.712.575.122.4.453.543.089.453-1.184,1.069-.113.57.513-.237.3.228-.083.85.277,1.019.59.948,2.318-1.241,3.1C229.749,174.453,229.819,172.361,231.265,172.025Z" fill="#3a3a3a"/>
    <path d="M243.01,172.025c-.247-.247-.553-.867.181-.712.576.122.4.453.543.089.453-1.184,1.073-.112.573.513-.239.3.225-.084.849.277,1.018.589.947,2.318-1.242,3.1C241.493,174.453,241.565,172.361,243.01,172.025Z" fill="#3a3a3a"/>
    <path d="M254.754,172.025c-.247-.247-.553-.867.182-.712.575.122.4.453.542.089.453-1.184,1.074-.112.573.513-.239.3.226-.084.849.277,1.019.589.947,2.318-1.242,3.1C253.237,174.453,253.309,172.361,254.754,172.025Z" fill="#3a3a3a"/>
    <path d="M266.5,172.025c-.246-.247-.555-.867.182-.712.576.122.4.453.543.089.453-1.184,1.069-.113.57.513-.237.3.228-.083.85.277,1.019.59.948,2.318-1.241,3.1C264.984,174.453,265.054,172.361,266.5,172.025Z" fill="#3a3a3a"/>
    <path d="M278.245,172.025c-.247-.247-.553-.867.181-.712.576.122.4.453.543.089.453-1.184,1.073-.112.573.513-.239.3.226-.084.849.277,1.018.589.947,2.318-1.242,3.1C276.728,174.453,276.8,172.361,278.245,172.025Z" fill="#3a3a3a"/>
    <path d="M289.991,172.025c-.246-.247-.555-.867.182-.712.575.122.4.453.543.089.452-1.184,1.069-.113.57.513-.237.3.228-.083.849.277,1.02.59.949,2.318-1.24,3.1C288.475,174.453,288.544,172.361,289.991,172.025Z" fill="#3a3a3a"/>
    <path d="M301.736,172.025c-.247-.247-.553-.867.181-.712.576.122.4.453.543.089.453-1.184,1.073-.112.573.513-.239.3.225-.084.849.277,1.018.589.946,2.318-1.243,3.1C300.219,174.453,300.291,172.361,301.736,172.025Z" fill="#3a3a3a"/>
    <path d="M313.48,172.025c-.247-.247-.553-.867.181-.712.576.122.4.453.543.089.453-1.184,1.074-.112.573.513-.239.3.226-.084.849.277,1.018.589.947,2.318-1.242,3.1C311.963,174.453,312.035,172.361,313.48,172.025Z" fill="#3a3a3a"/>
    <path d="M325.226,172.025c-.246-.247-.555-.867.182-.712.575.122.4.453.543.089.452-1.184,1.069-.113.57.513-.237.3.228-.084.85.277,1.017.59.946,2.318-1.243,3.1C323.71,174.453,323.78,172.361,325.226,172.025Z" fill="#3a3a3a"/>
    <path d="M336.971,172.025c-.247-.247-.556-.867.181-.712.576.122.4.453.543.089.453-1.184,1.073-.112.573.513-.239.3.225-.084.849.277,1.018.589.946,2.318-1.242,3.1C335.454,174.453,335.524,172.361,336.971,172.025Z" fill="#3a3a3a"/>
    <path d="M348.715,172.025c-.247-.247-.556-.867.182-.712.575.122.4.453.542.089.453-1.184,1.074-.112.573.513-.239.3.226-.084.849.277,1.019.589.947,2.318-1.242,3.1C347.2,174.453,347.268,172.361,348.715,172.025Z" fill="#3a3a3a"/>
    <path d="M360.461,172.025c-.246-.247-.555-.867.182-.712.575.122.4.453.543.089.453-1.184,1.073-.112.573.513-.239.3.225-.084.849.277,1.018.589.946,2.318-1.243,3.1C358.945,174.453,359.015,172.361,360.461,172.025Z" fill="#3a3a3a"/>
    <path d="M372.206,172.025c-.247-.247-.556-.867.181-.712.576.122.4.453.543.089.453-1.184,1.073-.112.573.513-.239.3.225-.084.849.277,1.018.589.947,2.318-1.242,3.1C370.689,174.453,370.759,172.361,372.206,172.025Z" fill="#3a3a3a"/>
    <path d="M383.952,172.025c-.246-.247-.555-.867.182-.712.575.122.4.453.543.089.452-1.184,1.073-.112.573.513-.239.3.225-.084.849.277,1.018.589.946,2.318-1.243,3.1C382.436,174.453,382.505,172.361,383.952,172.025Z" fill="#3a3a3a"/>
    <path d="M395.7,172.025c-.246-.247-.555-.867.182-.712.575.122.4.453.543.089.453-1.184,1.073-.112.573.513-.239.3.225-.084.849.277,1.018.589.946,2.318-1.243,3.1C394.18,174.453,394.25,172.361,395.7,172.025Z" fill="#3a3a3a"/>
    <path d="M407.441,172.025c-.247-.247-.556-.867.181-.712.576.122.4.453.543.089.453-1.184,1.073-.112.573.513-.239.3.225-.084.849.277,1.018.589.947,2.318-1.242,3.1C405.924,174.453,405.994,172.361,407.441,172.025Z" fill="#3a3a3a"/>
    <path d="M419.187,172.025c-.246-.247-.555-.867.182-.712.575.122.4.453.543.089.452-1.184,1.073-.112.573.513-.239.3.225-.084.849.277,1.018.589.946,2.318-1.243,3.1C417.671,174.453,417.74,172.361,419.187,172.025Z" fill="#3a3a3a"/>
    <path d="M451.339,175.305a2.979,2.979,0,0,1-2.976-2.976V147.451l-.077.04a3.017,3.017,0,0,1-1.31.306,2.977,2.977,0,0,1-1.245-5.68l4.122-2.182-.015-.047.64-.217.548-.167.024.055c.043-.007.147-.017.147-.017l.13,0a1.793,1.793,0,0,1,.2.012l.02-.065,1.19.349-.01.057c.075.04.142.077.21.12a2.278,2.278,0,0,1,.239.174,2.205,2.205,0,0,1,.214.182,2.627,2.627,0,0,1,.207.222,2.452,2.452,0,0,1,.166.209c.064.09.121.192.18.294a1.7,1.7,0,0,1,.1.184l.037.08.015.044c.02.048.05.142.08.237a2.151,2.151,0,0,1,.067.234,2.029,2.029,0,0,1,.04.269l.007.047c0,.048.018.1.02.157v29.986A2.975,2.975,0,0,1,451.339,175.305Z" fill="#3a3a3a"/>
    <path d="M470.841,175.305a11.649,11.649,0,0,1-11.635-11.635,11.518,11.518,0,0,1,2.371-7.035l10.775-15.791a2.975,2.975,0,0,1,4.934,3.327l-5.4,7.912a11.635,11.635,0,0,1-1.046,23.222Zm0-17.318a5.7,5.7,0,0,0-4.579,2.334l-.252.371a5.578,5.578,0,0,0-.854,2.978,5.684,5.684,0,1,0,5.685-5.683Z" fill="#3a3a3a"/>
    <path d="M508.728,165.3a7.951,7.951,0,0,1-13.657,5.538v8.134a1.123,1.123,0,1,1-2.246,0V165.3a7.952,7.952,0,0,1,15.9,0Zm-2.249,0a5.7,5.7,0,1,0-5.7,5.7A5.71,5.71,0,0,0,506.479,165.3Z" fill="#3a3a3a"/>
    <path d="M526.561,165.323a7.952,7.952,0,1,1-7.951-7.952A7.951,7.951,0,0,1,526.561,165.323Zm-2.246,0a5.706,5.706,0,1,0-5.705,5.7A5.712,5.712,0,0,0,524.315,165.323Z" fill="#3a3a3a"/>
    <path d="M543.692,172.141a1.123,1.123,0,1,1-2.246,0v-1.095a7.293,7.293,0,0,1-5.307,2.209c-4.393,0-7.215-3.562-7.215-7.952v-6.821a1.124,1.124,0,0,1,2.247,0V165.3c0,3.145,1.82,5.705,4.968,5.705a5.384,5.384,0,0,0,5.307-5.688v-6.848a1.123,1.123,0,0,1,2.246,0v13.669Z" fill="#3a3a3a"/>
    <path d="M561.923,165.311v6.82a1.123,1.123,0,1,1-2.246,0v-6.82c0-3.146-1.818-5.7-4.968-5.7a5.383,5.383,0,0,0-5.307,5.685v6.851a1.123,1.123,0,1,1-2.246,0V158.472a1.123,1.123,0,0,1,2.246,0v1.1a7.289,7.289,0,0,1,5.307-2.209C559.1,157.359,561.923,160.92,561.923,165.311Z" fill="#3a3a3a"/>
    <path d="M580.2,165.323a7.958,7.958,0,1,1-2.249-5.538v-8.134a1.125,1.125,0,0,1,2.249,0Zm-2.249,0a5.7,5.7,0,1,0-5.7,5.7A5.72,5.72,0,0,0,577.948,165.325Z" fill="#3a3a3a"/>
    <path d="M593.032,170.824c-.058.082-.119.165-.185.247a6.259,6.259,0,0,1-4.935,2.079,7.55,7.55,0,0,1-2.057-.279,5.494,5.494,0,0,1-3.257-2.577l-.035-.058a1.123,1.123,0,0,1,1.907-1.188l.053.085a3.278,3.278,0,0,0,1.947,1.579c1.514.431,3.668.165,4.627-1.048.035-.045.066-.087.1-.13a2.162,2.162,0,0,0,.207-1.982,2.478,2.478,0,0,0-1.651-1.584c-.341-.1-1.081-.239-1.671-.351-.526-.1-.979-.184-1.263-.257a4.081,4.081,0,0,1-3.118-4.442,4.36,4.36,0,0,1,3.048-3.263c2.154-.712,5.238-.068,6.473,2.209a1.123,1.123,0,0,1-1.975,1.069c-.628-1.165-2.523-1.564-3.793-1.146a2.152,2.152,0,0,0-1.534,1.487,1.863,1.863,0,0,0,1.464,1.91c.21.054.668.142,1.114.226.707.132,1.439.272,1.89.4a4.7,4.7,0,0,1,3.137,3A4.447,4.447,0,0,1,593.032,170.824Z" fill="#3a3a3a"/>
    <path d="M102.067,274.027c-.247-.247-.553-.867.182-.712.575.122.4.453.543.089.452-1.184,1.073-.112.572.513-.239.3.226-.084.85.277,1.018.589.946,2.318-1.243,3.1C100.55,276.455,100.623,274.363,102.067,274.027Z" fill="#3a3a3a"/>
    <path d="M113.814,274.027c-.247-.247-.556-.867.181-.712.576.122.4.453.543.089.453-1.184,1.069-.113.571.513-.238.3.227-.083.849.277,1.02.59.949,2.318-1.24,3.1C112.3,276.455,112.367,274.363,113.814,274.027Z" fill="#3a3a3a"/>
    <path d="M125.558,274.027c-.247-.247-.553-.867.182-.712.575.122.4.453.543.089.452-1.184,1.073-.112.572.513-.239.3.226-.084.849.277,1.019.589.947,2.318-1.242,3.1C124.041,276.455,124.113,274.363,125.558,274.027Z" fill="#3a3a3a"/>
    <path d="M137.3,274.027c-.247-.247-.553-.867.182-.712.575.122.4.453.543.089.452-1.184,1.073-.112.572.513-.239.3.226-.084.85.277,1.018.589.946,2.318-1.243,3.1C135.785,276.455,135.858,274.363,137.3,274.027Z" fill="#3a3a3a"/>
    <path d="M149.049,274.027c-.247-.247-.556-.867.181-.712.576.122.4.453.543.089.453-1.184,1.069-.113.571.513-.238.3.227-.083.849.277,1.02.59.949,2.318-1.24,3.1C147.532,276.455,147.6,274.363,149.049,274.027Z" fill="#3a3a3a"/>
    <path d="M160.793,274.027c-.247-.247-.553-.867.182-.712.575.122.4.453.543.089.452-1.184,1.073-.112.572.513-.239.3.226-.084.849.277,1.019.589.947,2.318-1.242,3.1C159.276,276.455,159.349,274.363,160.793,274.027Z" fill="#3a3a3a"/>
    <path d="M172.54,274.027c-.247-.247-.556-.867.181-.712.576.122.4.453.543.089.453-1.184,1.069-.113.57.513-.237.3.228-.083.85.277,1.02.59.948,2.318-1.24,3.1C171.023,276.455,171.093,274.363,172.54,274.027Z" fill="#3a3a3a"/>
    <path d="M184.284,274.027c-.247-.247-.553-.867.182-.712.575.122.4.453.542.089.453-1.184,1.074-.112.573.513-.239.3.226-.084.849.277,1.019.589.947,2.318-1.242,3.1C182.767,276.455,182.839,274.363,184.284,274.027Z" fill="#3a3a3a"/>
    <path d="M196.028,274.027c-.247-.247-.553-.867.182-.712.575.122.4.453.543.089.452-1.184,1.073-.112.572.513-.239.3.226-.084.85.277,1.018.589.946,2.318-1.243,3.1C194.511,276.455,194.584,274.363,196.028,274.027Z" fill="#3a3a3a"/>
    <path d="M207.775,274.027c-.247-.247-.556-.867.181-.712.576.122.4.453.543.089.453-1.184,1.069-.113.571.513-.238.3.227-.083.849.277,1.02.59.949,2.318-1.24,3.1C206.258,276.455,206.328,274.363,207.775,274.027Z" fill="#3a3a3a"/>
    <path d="M219.519,274.027c-.247-.247-.553-.867.182-.712.575.122.4.453.542.089.453-1.184,1.074-.112.573.513-.239.3.226-.084.849.277,1.019.589.947,2.318-1.242,3.1C218,276.455,218.074,274.363,219.519,274.027Z" fill="#3a3a3a"/>
    <path d="M231.265,274.027c-.246-.247-.555-.867.182-.712.575.122.4.453.543.089.453-1.184,1.069-.113.57.513-.237.3.228-.083.85.277,1.019.59.948,2.318-1.241,3.1C229.749,276.455,229.819,274.363,231.265,274.027Z" fill="#3a3a3a"/>
    <path d="M243.01,274.027c-.247-.247-.553-.867.181-.712.576.122.4.453.543.089.453-1.184,1.073-.112.573.513-.239.3.225-.084.849.277,1.018.589.947,2.318-1.242,3.1C241.493,276.455,241.565,274.363,243.01,274.027Z" fill="#3a3a3a"/>
    <path d="M254.754,274.027c-.247-.247-.553-.867.182-.712.575.122.4.453.542.089.453-1.184,1.074-.112.573.513-.239.3.226-.084.849.277,1.019.589.947,2.318-1.242,3.1C253.237,276.455,253.309,274.363,254.754,274.027Z" fill="#3a3a3a"/>
    <path d="M266.5,274.027c-.246-.247-.555-.867.182-.712.576.122.4.453.543.089.453-1.184,1.069-.113.57.513-.237.3.228-.083.85.277,1.019.59.948,2.318-1.241,3.1C264.984,276.455,265.054,274.363,266.5,274.027Z" fill="#3a3a3a"/>
    <path d="M278.245,274.027c-.247-.247-.553-.867.181-.712.576.122.4.453.543.089.453-1.184,1.073-.112.573.513-.239.3.226-.084.849.277,1.018.589.947,2.318-1.242,3.1C276.728,276.455,276.8,274.363,278.245,274.027Z" fill="#3a3a3a"/>
    <path d="M289.991,274.027c-.246-.247-.555-.867.182-.712.575.122.4.453.543.089.452-1.184,1.069-.113.57.513-.237.3.228-.083.849.277,1.02.59.949,2.318-1.24,3.1C288.475,276.455,288.544,274.363,289.991,274.027Z" fill="#3a3a3a"/>
    <path d="M301.736,274.027c-.247-.247-.553-.867.181-.712.576.122.4.453.543.089.453-1.184,1.073-.112.573.513-.239.3.225-.084.849.277,1.018.589.946,2.318-1.243,3.1C300.219,276.455,300.291,274.363,301.736,274.027Z" fill="#3a3a3a"/>
    <path d="M313.48,274.027c-.247-.247-.553-.867.181-.712.576.122.4.453.543.089.453-1.184,1.074-.112.573.513-.239.3.226-.084.849.277,1.018.589.947,2.318-1.242,3.1C311.963,276.455,312.035,274.363,313.48,274.027Z" fill="#3a3a3a"/>
    <path d="M325.226,274.027c-.246-.247-.555-.867.182-.712.575.122.4.453.543.089.452-1.184,1.069-.113.57.513-.237.3.228-.084.85.277,1.017.59.946,2.318-1.243,3.1C323.71,276.455,323.78,274.363,325.226,274.027Z" fill="#3a3a3a"/>
    <path d="M336.971,274.027c-.247-.247-.556-.867.181-.712.576.122.4.453.543.089.453-1.184,1.073-.112.573.513-.239.3.225-.084.849.277,1.018.589.946,2.318-1.242,3.1C335.454,276.455,335.524,274.363,336.971,274.027Z" fill="#3a3a3a"/>
    <path d="M348.715,274.027c-.247-.247-.556-.867.182-.712.575.122.4.453.542.089.453-1.184,1.074-.112.573.513-.239.3.226-.084.849.277,1.019.589.947,2.318-1.242,3.1C347.2,276.455,347.268,274.363,348.715,274.027Z" fill="#3a3a3a"/>
    <path d="M360.461,274.027c-.246-.247-.555-.867.182-.712.575.122.4.453.543.089.453-1.184,1.073-.112.573.513-.239.3.225-.084.849.277,1.018.589.946,2.318-1.243,3.1C358.945,276.455,359.015,274.363,360.461,274.027Z" fill="#3a3a3a"/>
    <path d="M372.206,274.027c-.247-.247-.556-.867.181-.712.576.122.4.453.543.089.453-1.184,1.073-.112.573.513-.239.3.225-.084.849.277,1.018.589.947,2.318-1.242,3.1C370.689,276.455,370.759,274.363,372.206,274.027Z" fill="#3a3a3a"/>
    <path d="M383.952,274.027c-.246-.247-.555-.867.182-.712.575.122.4.453.543.089.452-1.184,1.073-.112.573.513-.239.3.225-.084.849.277,1.018.589.946,2.318-1.243,3.1C382.436,276.455,382.505,274.363,383.952,274.027Z" fill="#3a3a3a"/>
    <path d="M395.7,274.027c-.246-.247-.555-.867.182-.712.575.122.4.453.543.089.453-1.184,1.073-.112.573.513-.239.3.225-.084.849.277,1.018.589.946,2.318-1.243,3.1C394.18,276.455,394.25,274.363,395.7,274.027Z" fill="#3a3a3a"/>
    <path d="M407.441,274.027c-.247-.247-.556-.867.181-.712.576.122.4.453.543.089.453-1.184,1.073-.112.573.513-.239.3.225-.084.849.277,1.018.589.947,2.318-1.242,3.1C405.924,276.455,405.994,274.363,407.441,274.027Z" fill="#3a3a3a"/>
    <path d="M419.187,274.027c-.246-.247-.555-.867.182-.712.575.122.4.453.543.089.452-1.184,1.073-.112.573.513-.239.3.225-.084.849.277,1.018.589.946,2.318-1.243,3.1C417.671,276.455,417.74,274.363,419.187,274.027Z" fill="#3a3a3a"/>
    <path d="M433.972,277.287c-.065,0-.122-.011-.179-.02a3,3,0,0,1-2.538-2.936,2.955,2.955,0,0,1,.145-.894,1.291,1.291,0,0,1,.052-.165c.037-.094.071-.166.107-.239a3.292,3.292,0,0,1,.177-.323l.042-.065.04-.05a2.321,2.321,0,0,1,.209-.274l7.461-8.24h-.109l6.957-7.563v-.81l.67-.01a5.329,5.329,0,1,0-9.811-2.888v1.352H436.9a2.965,2.965,0,0,1-5.337,0h-.284l-.012-1.347a11.271,11.271,0,1,1,20.283,6.758v.03l-.172.214-.109.125a2.386,2.386,0,0,1-.227.281l-10.078,11.132h9.869a2.976,2.976,0,0,1,0,5.952H434.229A2.173,2.173,0,0,1,433.972,277.287Z" fill="#3a3a3a"/>
    <path d="M474.116,277.307a2.979,2.979,0,0,1-2.976-2.976v-5.319h-11.9c-.075,0-.147-.008-.22-.015a2.724,2.724,0,0,1-.343-.043,2.105,2.105,0,0,1-.289-.074l-.047-.015a2.486,2.486,0,0,1-.24-.083,2.411,2.411,0,0,1-.346-.176,1.648,1.648,0,0,1-.147-.083l-.049-.034a2.87,2.87,0,0,1-.421-.349l-.063-.06L457.01,268l-.048.025-.194-.329c-.047-.072-.083-.142-.122-.212a2.776,2.776,0,0,1-.154-.3l-.13-.262.035-.02a2.618,2.618,0,0,1-.09-.381,2.889,2.889,0,0,1-.042-.411l0-.047a1.722,1.722,0,0,1,.015-.242,3.061,3.061,0,0,1,.039-.351,2.186,2.186,0,0,1,.073-.264l.02-.067a1.734,1.734,0,0,1,.074-.226,2.766,2.766,0,0,1,.175-.344,1.812,1.812,0,0,1,.1-.182l14.748-21.526a2.952,2.952,0,0,1,2.47-1.312c.037,0,.085-.005.135-.005a2.978,2.978,0,0,1,2.975,2.976V263.06h2.045a2.976,2.976,0,0,1,0,5.952h-2.045v5.319A2.978,2.978,0,0,1,474.116,277.307ZM471.14,263.06v-9.132l-6.256,9.132Z" fill="#3a3a3a"/>
    <path d="M508.763,269.335a7.952,7.952,0,0,1-13.657,5.539v8.133a1.123,1.123,0,0,1-2.246,0V269.335a7.952,7.952,0,0,1,15.9,0Zm-2.249,0a5.7,5.7,0,1,0-5.7,5.706A5.71,5.71,0,0,0,506.514,269.335Z" fill="#3a3a3a"/>
    <path d="M526.6,269.36a7.952,7.952,0,1,1-7.952-7.951A7.95,7.95,0,0,1,526.6,269.36Zm-2.246,0a5.706,5.706,0,1,0-5.706,5.7A5.713,5.713,0,0,0,524.35,269.36Z" fill="#3a3a3a"/>
    <path d="M543.726,276.179a1.123,1.123,0,1,1-2.246,0v-1.1a7.291,7.291,0,0,1-5.307,2.209c-4.392,0-7.214-3.561-7.214-7.952v-6.821a1.123,1.123,0,0,1,2.246,0v6.821c0,3.145,1.821,5.705,4.968,5.705a5.383,5.383,0,0,0,5.307-5.687v-6.849a1.123,1.123,0,0,1,2.246,0v13.67Z" fill="#3a3a3a"/>
    <path d="M561.958,269.348v6.821a1.123,1.123,0,1,1-2.246,0v-6.821c0-3.146-1.818-5.7-4.969-5.7a5.383,5.383,0,0,0-5.306,5.685v6.851a1.124,1.124,0,0,1-2.247,0V262.509a1.124,1.124,0,0,1,2.247,0v1.1a7.285,7.285,0,0,1,5.306-2.209C559.136,261.4,561.958,264.957,561.958,269.348Z" fill="#3a3a3a"/>
    <path d="M580.232,269.36a7.956,7.956,0,1,1-2.249-5.538v-8.133a1.125,1.125,0,0,1,2.249,0Zm-2.249,0a5.7,5.7,0,1,0-5.7,5.7A5.721,5.721,0,0,0,577.983,269.363Z" fill="#3a3a3a"/>
    <path d="M593.066,274.861c-.057.082-.119.165-.184.247a6.26,6.26,0,0,1-4.936,2.079,7.556,7.556,0,0,1-2.057-.279,5.5,5.5,0,0,1-3.257-2.577l-.035-.058a1.124,1.124,0,0,1,1.908-1.187l.052.084a3.284,3.284,0,0,0,1.948,1.579c1.514.431,3.667.165,4.626-1.048.036-.045.066-.087.1-.13a2.159,2.159,0,0,0,.206-1.982,2.476,2.476,0,0,0-1.651-1.584c-.341-.1-1.081-.239-1.671-.351-.525-.1-.979-.183-1.262-.256a4.081,4.081,0,0,1-3.118-4.443,4.355,4.355,0,0,1,3.048-3.262c2.154-.713,5.237-.069,6.472,2.208a1.123,1.123,0,1,1-1.975,1.069c-.627-1.164-2.522-1.564-3.792-1.146a2.148,2.148,0,0,0-1.534,1.487,1.861,1.861,0,0,0,1.464,1.91c.209.054.667.142,1.113.227.707.132,1.44.271,1.89.4a4.7,4.7,0,0,1,3.138,3A4.447,4.447,0,0,1,593.066,274.861Z" fill="#3a3a3a"/>
    <path d="M102.067,376.029c-.247-.244-.553-.867.182-.71.575.12.4.451.543.087.452-1.184,1.073-.112.572.513-.239.3.227-.083.85.277,1.019.589.946,2.318-1.243,3.1C100.55,378.457,100.623,376.365,102.067,376.029Z" fill="#3a3a3a"/>
    <path d="M113.814,376.029c-.247-.244-.556-.867.181-.71.576.12.4.451.543.087.453-1.184,1.069-.113.571.513-.238.3.228-.082.849.277,1.021.59.949,2.318-1.24,3.1C112.3,378.457,112.367,376.365,113.814,376.029Z" fill="#3a3a3a"/>
    <path d="M125.558,376.029c-.247-.244-.553-.867.182-.71.575.12.4.451.543.087.452-1.184,1.073-.112.572.513-.239.3.227-.083.849.277,1.02.589.947,2.318-1.242,3.1C124.041,378.457,124.113,376.365,125.558,376.029Z" fill="#3a3a3a"/>
    <path d="M137.3,376.029c-.247-.244-.553-.867.182-.71.575.12.4.451.543.087.452-1.184,1.073-.112.572.513-.239.3.227-.083.85.277,1.019.589.946,2.318-1.243,3.1C135.785,378.457,135.858,376.365,137.3,376.029Z" fill="#3a3a3a"/>
    <path d="M149.049,376.029c-.247-.244-.556-.867.181-.71.576.12.4.451.543.087.453-1.184,1.069-.113.571.513-.238.3.228-.082.849.277,1.021.59.949,2.318-1.24,3.1C147.532,378.457,147.6,376.365,149.049,376.029Z" fill="#3a3a3a"/>
    <path d="M160.793,376.029c-.247-.244-.553-.867.182-.71.575.12.4.451.543.087.452-1.184,1.073-.112.572.513-.239.3.227-.083.849.277,1.02.589.947,2.318-1.242,3.1C159.276,378.457,159.349,376.365,160.793,376.029Z" fill="#3a3a3a"/>
    <path d="M172.54,376.029c-.247-.244-.556-.867.181-.71.576.12.4.451.543.087.453-1.184,1.069-.113.57.513-.237.3.229-.082.85.277,1.021.59.948,2.318-1.24,3.1C171.023,378.457,171.093,376.365,172.54,376.029Z" fill="#3a3a3a"/>
    <path d="M184.284,376.029c-.247-.244-.553-.867.182-.71.575.12.4.451.542.087.453-1.184,1.074-.112.573.513-.239.3.226-.083.849.277,1.02.589.947,2.318-1.242,3.1C182.767,378.457,182.839,376.365,184.284,376.029Z" fill="#3a3a3a"/>
    <path d="M196.028,376.029c-.247-.244-.553-.867.182-.71.575.12.4.451.543.087.452-1.184,1.073-.112.572.513-.239.3.227-.083.85.277,1.019.589.946,2.318-1.243,3.1C194.511,378.457,194.584,376.365,196.028,376.029Z" fill="#3a3a3a"/>
    <path d="M207.775,376.029c-.247-.244-.556-.867.181-.71.576.12.4.451.543.087.453-1.184,1.069-.113.571.513-.238.3.228-.082.849.277,1.021.59.949,2.318-1.24,3.1C206.258,378.457,206.328,376.365,207.775,376.029Z" fill="#3a3a3a"/>
    <path d="M219.519,376.029c-.247-.244-.553-.867.182-.71.575.12.4.451.542.087.453-1.184,1.074-.112.573.513-.239.3.226-.083.849.277,1.02.589.947,2.318-1.242,3.1C218,378.457,218.074,376.365,219.519,376.029Z" fill="#3a3a3a"/>
    <path d="M231.265,376.029c-.246-.244-.555-.867.182-.71.575.12.4.451.543.087.453-1.184,1.069-.113.57.513-.237.3.229-.082.85.277,1.021.59.948,2.318-1.241,3.1C229.749,378.457,229.819,376.365,231.265,376.029Z" fill="#3a3a3a"/>
    <path d="M243.01,376.029c-.247-.244-.553-.867.181-.71.576.12.4.451.543.087.453-1.184,1.073-.112.573.513-.239.3.226-.083.849.277,1.02.589.947,2.318-1.242,3.1C241.493,378.457,241.565,376.365,243.01,376.029Z" fill="#3a3a3a"/>
    <path d="M254.754,376.029c-.247-.244-.553-.867.182-.71.575.12.4.451.542.087.453-1.184,1.074-.112.573.513-.239.3.227-.083.849.277,1.02.589.947,2.318-1.242,3.1C253.237,378.457,253.309,376.365,254.754,376.029Z" fill="#3a3a3a"/>
    <path d="M266.5,376.029c-.246-.244-.555-.867.182-.71.576.12.4.451.543.087.453-1.184,1.069-.113.57.513-.237.3.229-.082.85.277,1.021.59.948,2.318-1.241,3.1C264.984,378.457,265.054,376.365,266.5,376.029Z" fill="#3a3a3a"/>
    <path d="M278.245,376.029c-.247-.244-.553-.867.181-.71.576.12.4.451.543.087.453-1.184,1.073-.112.573.513-.239.3.226-.083.849.277,1.02.589.947,2.318-1.242,3.1C276.728,378.457,276.8,376.365,278.245,376.029Z" fill="#3a3a3a"/>
    <path d="M289.991,376.029c-.246-.244-.555-.867.182-.71.575.12.4.451.543.087.452-1.184,1.069-.113.57.513-.237.3.229-.082.849.277,1.022.59.949,2.318-1.24,3.1C288.475,378.457,288.544,376.365,289.991,376.029Z" fill="#3a3a3a"/>
    <path d="M301.736,376.029c-.247-.244-.553-.867.181-.71.576.12.4.451.543.087.453-1.184,1.073-.112.573.513-.239.3.226-.083.849.277,1.02.589.946,2.318-1.243,3.1C300.219,378.457,300.291,376.365,301.736,376.029Z" fill="#3a3a3a"/>
    <path d="M313.48,376.029c-.247-.244-.553-.867.181-.71.576.12.4.451.543.087.453-1.184,1.074-.112.573.513-.239.3.226-.083.849.277,1.02.589.947,2.318-1.242,3.1C311.963,378.457,312.035,376.365,313.48,376.029Z" fill="#3a3a3a"/>
    <path d="M325.226,376.029c-.246-.244-.555-.867.182-.71.575.12.4.451.543.087.452-1.184,1.069-.113.57.513-.237.3.229-.082.85.277,1.019.59.946,2.318-1.243,3.1C323.71,378.457,323.78,376.365,325.226,376.029Z" fill="#3a3a3a"/>
    <path d="M336.971,376.029c-.247-.244-.556-.867.181-.71.576.12.4.451.543.087.453-1.184,1.073-.112.573.513-.239.3.226-.083.849.277,1.02.589.946,2.318-1.242,3.1C335.454,378.457,335.524,376.365,336.971,376.029Z" fill="#3a3a3a"/>
    <path d="M348.715,376.029c-.247-.244-.556-.867.182-.71.575.12.4.451.542.087.453-1.184,1.074-.112.573.513-.239.3.226-.083.849.277,1.02.589.947,2.318-1.242,3.1C347.2,378.457,347.268,376.365,348.715,376.029Z" fill="#3a3a3a"/>
    <path d="M360.461,376.029c-.246-.244-.555-.867.182-.71.575.12.4.451.543.087.453-1.184,1.073-.112.573.513-.239.3.226-.083.849.277,1.02.589.946,2.318-1.243,3.1C358.945,378.457,359.015,376.365,360.461,376.029Z" fill="#3a3a3a"/>
    <path d="M372.206,376.029c-.247-.244-.556-.867.181-.71.576.12.4.451.543.087.453-1.184,1.073-.112.573.513-.239.3.226-.083.849.277,1.02.589.947,2.318-1.242,3.1C370.689,378.457,370.759,376.365,372.206,376.029Z" fill="#3a3a3a"/>
    <path d="M383.952,376.029c-.246-.244-.555-.867.182-.71.575.12.4.451.543.087.452-1.184,1.073-.112.573.513-.239.3.226-.083.849.277,1.019.589.946,2.318-1.243,3.1C382.436,378.457,382.505,376.365,383.952,376.029Z" fill="#3a3a3a"/>
    <path d="M395.7,376.029c-.246-.244-.555-.867.182-.71.575.12.4.451.543.087.453-1.184,1.073-.112.573.513-.239.3.226-.083.849.277,1.02.589.946,2.318-1.243,3.1C394.18,378.457,394.25,376.365,395.7,376.029Z" fill="#3a3a3a"/>
    <path d="M407.441,376.029c-.247-.244-.556-.867.181-.71.576.12.4.451.543.087.453-1.184,1.073-.112.573.513-.239.3.226-.083.849.277,1.02.589.947,2.318-1.242,3.1C405.924,378.457,405.994,376.365,407.441,376.029Z" fill="#3a3a3a"/>
    <path d="M419.187,376.029c-.246-.244-.555-.867.182-.71.575.12.4.451.543.087.452-1.184,1.073-.112.573.513-.239.3.226-.083.849.277,1.02.589.946,2.318-1.243,3.1C417.671,378.457,417.74,376.365,419.187,376.029Z" fill="#3a3a3a"/>
    <path d="M443.878,379.306a11.271,11.271,0,0,1-11.248-11.271,2.965,2.965,0,0,1,5.929,0,5.321,5.321,0,1,0,5.314-5.341,2.965,2.965,0,0,1,0-5.93h0c.1,0,.178,0,.253,0a3.62,3.62,0,1,0-3.913-3.628,2.965,2.965,0,1,1-5.929.017,9.6,9.6,0,0,1,19.193-.017,9.5,9.5,0,0,1-2.336,6.265,11.143,11.143,0,0,1,4.012,8.629A11.283,11.283,0,0,1,443.878,379.306Z" fill="#3a3a3a"/>
    <path d="M471.254,379.309a11.648,11.648,0,0,1-11.634-11.635,11.517,11.517,0,0,1,2.37-7.032l10.776-15.791a2.975,2.975,0,0,1,4.933,3.327l-5.4,7.909a11.635,11.635,0,0,1-1.046,23.222Zm0-17.318a5.706,5.706,0,0,0-4.58,2.336l-.251.371a5.566,5.566,0,0,0-.855,2.976,5.684,5.684,0,1,0,5.686-5.683Z" fill="#3a3a3a"/>
    <path d="M508.763,371.34a7.952,7.952,0,0,1-13.657,5.536v8.133a1.123,1.123,0,1,1-2.246,0V371.34a7.952,7.952,0,1,1,15.9,0Zm-2.249,0a5.7,5.7,0,1,0-5.7,5.7A5.71,5.71,0,0,0,506.514,371.34Z" fill="#3a3a3a"/>
    <path d="M526.6,371.362a7.952,7.952,0,1,1-7.952-7.951A7.953,7.953,0,0,1,526.6,371.362Zm-2.246,0a5.706,5.706,0,1,0-5.706,5.7A5.713,5.713,0,0,0,524.35,371.362Z" fill="#3a3a3a"/>
    <path d="M543.726,378.183a1.123,1.123,0,0,1-2.246,0v-1.1a7.287,7.287,0,0,1-5.307,2.209c-4.392,0-7.214-3.561-7.214-7.949v-6.821a1.123,1.123,0,0,1,2.246,0v6.821c0,3.145,1.821,5.7,4.968,5.7a5.384,5.384,0,0,0,5.307-5.686v-6.851a1.123,1.123,0,1,1,2.246,0Z" fill="#3a3a3a"/>
    <path d="M561.958,371.35v6.821a1.123,1.123,0,1,1-2.246,0V371.35c0-3.145-1.818-5.7-4.969-5.7a5.383,5.383,0,0,0-5.306,5.685v6.851a1.124,1.124,0,0,1-2.247,0V364.511a1.124,1.124,0,0,1,2.247,0v1.1a7.285,7.285,0,0,1,5.306-2.209C559.136,363.4,561.958,366.959,561.958,371.35Z" fill="#3a3a3a"/>
    <path d="M580.232,371.362a7.96,7.96,0,1,1-2.249-5.536v-8.135a1.125,1.125,0,0,1,2.249,0Zm-2.249,0a5.7,5.7,0,1,0-5.7,5.7A5.723,5.723,0,0,0,577.983,371.367Z" fill="#3a3a3a"/>
    <path d="M593.066,376.863c-.057.082-.119.165-.184.247a6.256,6.256,0,0,1-4.936,2.079,7.6,7.6,0,0,1-2.057-.276,5.47,5.47,0,0,1-3.257-2.58l-.035-.057a1.123,1.123,0,0,1,1.908-1.186l.052.085a3.282,3.282,0,0,0,1.948,1.576c1.514.431,3.651.151,4.626-1.048.035-.043.066-.085.1-.13a2.179,2.179,0,0,0,.206-1.979,2.48,2.48,0,0,0-1.651-1.584c-.341-.1-1.081-.242-1.671-.351-.525-.1-.978-.185-1.262-.259a4.087,4.087,0,0,1-3.118-4.441,4.357,4.357,0,0,1,3.048-3.264c2.154-.71,5.237-.066,6.472,2.211a1.123,1.123,0,1,1-1.975,1.068c-.629-1.166-2.522-1.566-3.792-1.145a2.143,2.143,0,0,0-1.534,1.484,1.866,1.866,0,0,0,1.464,1.913c.209.054.667.139,1.113.224.707.134,1.439.272,1.89.406a4.707,4.707,0,0,1,3.138,3A4.446,4.446,0,0,1,593.066,376.863Z" fill="#3a3a3a"/>
    <path d="M124.589,478.031c-.246-.244-.555-.867.182-.71.575.12.4.451.543.088.452-1.185,1.069-.114.57.513-.237.3.228-.083.849.276,1.022.59.949,2.318-1.24,3.1C123.073,480.459,123.142,478.367,124.589,478.031Z" fill="#3a3a3a"/>
    <path d="M136.333,478.031c-.246-.244-.553-.867.182-.71.575.12.4.451.543.088.452-1.185,1.073-.113.573.513-.239.3.226-.084.849.276,1.02.589.946,2.318-1.243,3.1C134.817,480.459,134.889,478.367,136.333,478.031Z" fill="#3a3a3a"/>
    <path d="M148.08,478.031c-.247-.244-.555-.867.182-.71.575.12.4.451.543.088.452-1.185,1.069-.114.57.513-.237.3.228-.083.849.276,1.021.59.949,2.318-1.24,3.1C146.563,480.459,146.633,478.367,148.08,478.031Z" fill="#3a3a3a"/>
    <path d="M159.824,478.031c-.246-.244-.555-.867.182-.71.575.12.4.451.543.088.452-1.185,1.069-.114.57.513-.237.3.228-.083.849.276,1.022.59.949,2.318-1.24,3.1C158.308,480.459,158.377,478.367,159.824,478.031Z" fill="#3a3a3a"/>
    <path d="M171.568,478.031c-.246-.244-.553-.867.182-.71.575.12.4.451.543.088.452-1.185,1.073-.113.573.513-.239.3.226-.084.849.276,1.02.589.946,2.318-1.243,3.1C170.052,480.459,170.124,478.367,171.568,478.031Z" fill="#3a3a3a"/>
    <path d="M183.315,478.031c-.247-.244-.555-.867.182-.71.575.12.4.451.543.088.452-1.185,1.069-.114.57.513-.237.3.228-.083.849.276,1.021.59.949,2.318-1.24,3.1C181.8,480.459,181.868,478.367,183.315,478.031Z" fill="#3a3a3a"/>
    <path d="M195.059,478.031c-.246-.244-.553-.867.182-.71.575.12.4.451.543.088.452-1.185,1.073-.113.573.513-.24.3.226-.084.849.276,1.019.589.946,2.318-1.243,3.1C193.543,480.459,193.615,478.367,195.059,478.031Z" fill="#3a3a3a"/>
    <path d="M206.806,478.031c-.247-.244-.555-.867.182-.71.575.12.4.451.543.088.452-1.185,1.069-.114.57.513-.238.3.228-.083.849.276,1.021.59.949,2.318-1.24,3.1C205.289,480.459,205.359,478.367,206.806,478.031Z" fill="#3a3a3a"/>
    <path d="M218.55,478.031c-.246-.244-.555-.867.182-.71.575.12.4.451.543.088.452-1.185,1.069-.114.57.513-.237.3.228-.083.849.276,1.021.59.949,2.318-1.24,3.1C217.033,480.459,217.1,478.367,218.55,478.031Z" fill="#3a3a3a"/>
    <path d="M230.294,478.031c-.246-.244-.553-.867.182-.71.575.12.4.451.543.088.452-1.185,1.073-.113.573.513-.239.3.226-.084.849.276,1.019.589.946,2.318-1.243,3.1C228.778,480.459,228.85,478.367,230.294,478.031Z" fill="#3a3a3a"/>
    <path d="M242.041,478.031c-.247-.244-.555-.867.182-.71.575.12.4.451.543.088.452-1.185,1.069-.114.57.513-.238.3.228-.083.849.276,1.021.59.949,2.318-1.24,3.1C240.524,480.459,240.594,478.367,242.041,478.031Z" fill="#3a3a3a"/>
    <path d="M253.785,478.031c-.246-.244-.553-.867.182-.71.575.12.4.451.543.088.452-1.185,1.073-.113.573.513-.24.3.226-.084.849.276,1.019.589.946,2.318-1.243,3.1C252.269,480.459,252.341,478.367,253.785,478.031Z" fill="#3a3a3a"/>
    <path d="M265.532,478.031c-.247-.244-.556-.867.182-.71.575.12.4.451.542.088.453-1.185,1.07-.114.571.513-.238.3.228-.083.849.276,1.021.59.949,2.318-1.24,3.1C264.015,480.459,264.085,478.367,265.532,478.031Z" fill="#3a3a3a"/>
    <path d="M277.276,478.031c-.247-.244-.555-.867.182-.71.575.12.4.451.543.088.452-1.185,1.069-.114.57.513-.238.3.228-.083.849.276,1.021.59.949,2.318-1.24,3.1C275.759,480.459,275.829,478.367,277.276,478.031Z" fill="#3a3a3a"/>
    <path d="M289.02,478.031c-.246-.244-.553-.867.182-.71.575.12.4.451.543.088.452-1.185,1.073-.113.573.513-.24.3.226-.084.849.276,1.019.589.946,2.318-1.243,3.1C287.5,480.459,287.576,478.367,289.02,478.031Z" fill="#3a3a3a"/>
    <path d="M300.767,478.031c-.247-.244-.556-.867.182-.71.575.12.4.451.542.088.453-1.185,1.07-.114.571.513-.238.3.228-.083.849.276,1.021.59.949,2.318-1.24,3.1C299.25,480.459,299.32,478.367,300.767,478.031Z" fill="#3a3a3a"/>
    <path d="M312.511,478.031c-.247-.244-.553-.867.182-.71.575.12.4.451.543.088.452-1.185,1.073-.113.572.513-.239.3.227-.084.85.276,1.019.589.946,2.318-1.243,3.1C310.994,480.459,311.067,478.367,312.511,478.031Z" fill="#3a3a3a"/>
    <path d="M324.258,478.031c-.247-.244-.556-.867.181-.71.576.12.4.451.543.088.453-1.185,1.069-.114.571.513-.238.3.228-.083.849.276,1.019.59.946,2.318-1.24,3.1C322.741,480.459,322.811,478.367,324.258,478.031Z" fill="#3a3a3a"/>
    <path d="M336,478.031c-.247-.244-.556-.867.182-.71.575.12.4.451.543.088.452-1.185,1.073-.113.572.513-.239.3.227-.084.849.276,1.02.589.947,2.318-1.242,3.1C334.485,480.459,334.555,478.367,336,478.031Z" fill="#3a3a3a"/>
    <path d="M347.746,478.031c-.247-.244-.555-.867.182-.71.575.12.4.451.543.088.452-1.185,1.073-.113.572.513-.239.3.227-.084.85.276,1.019.589.946,2.318-1.243,3.1C346.229,480.459,346.3,478.367,347.746,478.031Z" fill="#3a3a3a"/>
    <path d="M359.49,478.031c-.246-.244-.555-.867.182-.71.575.12.4.451.543.088.452-1.185,1.073-.113.573.513-.24.3.226-.084.849.276,1.019.589.946,2.318-1.243,3.1C357.974,480.459,358.043,478.367,359.49,478.031Z" fill="#3a3a3a"/>
    <path d="M371.237,478.031c-.247-.244-.555-.867.182-.71.575.12.4.451.543.088.452-1.185,1.073-.113.572.513-.239.3.227-.084.849.276,1.02.589.947,2.318-1.242,3.1C369.72,480.459,369.79,478.367,371.237,478.031Z" fill="#3a3a3a"/>
    <path d="M382.981,478.031c-.246-.244-.555-.867.182-.71.575.12.4.451.543.088.452-1.185,1.073-.113.572.513-.239.3.227-.084.85.276,1.019.589.946,2.318-1.243,3.1C381.464,480.459,381.534,478.367,382.981,478.031Z" fill="#3a3a3a"/>
    <path d="M394.728,478.031c-.247-.244-.556-.867.182-.71.575.12.4.451.542.088.453-1.185,1.074-.113.573.513-.239.3.226-.084.849.276,1.02.589.947,2.318-1.242,3.1C393.211,480.459,393.281,478.367,394.728,478.031Z" fill="#3a3a3a"/>
    <path d="M406.472,478.031c-.247-.244-.555-.867.182-.71.575.12.4.451.543.088.452-1.185,1.073-.113.572.513-.239.3.227-.084.85.276,1.019.589.946,2.318-1.243,3.1C404.955,480.459,405.025,478.367,406.472,478.031Z" fill="#3a3a3a"/>
    <path d="M418.216,478.031c-.246-.244-.555-.867.182-.71.575.12.4.451.543.088.452-1.185,1.073-.113.573.513-.24.3.226-.084.849.276,1.019.589.946,2.318-1.243,3.1C416.7,480.459,416.769,478.367,418.216,478.031Z" fill="#3a3a3a"/>
    <path d="M450.371,481.311a2.979,2.979,0,0,1-2.976-2.976V453.457l-.077.04a3.023,3.023,0,0,1-1.31.306,2.975,2.975,0,0,1-2.792-4.007,2.955,2.955,0,0,1,1.547-1.671l4.121-2.184-.015-.045.4-.137c.073-.027.142-.049.21-.069l.032-.01a1.192,1.192,0,0,1,.147-.045l.4-.125.025.055.147-.015.132-.007a1.781,1.781,0,0,1,.2.012l.02-.064,1.191.348-.01.057c.077.04.142.078.209.12a2.432,2.432,0,0,1,.239.174,2.557,2.557,0,0,1,.214.182,2.473,2.473,0,0,1,.207.222,2.625,2.625,0,0,1,.167.209c.065.092.12.193.179.3.029.051.067.115.1.182l.037.08.015.045c.02.047.05.142.08.239a2.132,2.132,0,0,1,.067.231,1.942,1.942,0,0,1,.04.269l.008.047c0,.048.017.1.02.157v29.986A2.975,2.975,0,0,1,450.371,481.311Z" fill="#3a3a3a"/>
    <path d="M469.872,481.311a11.646,11.646,0,0,1-11.632-11.635,11.515,11.515,0,0,1,2.368-7.032l10.776-15.791a2.975,2.975,0,0,1,4.933,3.327l-5.4,7.909a11.635,11.635,0,0,1-1.046,23.222Zm0-17.318a5.706,5.706,0,0,0-4.58,2.336l-.252.369a5.586,5.586,0,0,0-.854,2.978,5.684,5.684,0,1,0,5.686-5.683Z" fill="#3a3a3a"/>
    <path d="M508.768,473.342a7.952,7.952,0,0,1-13.657,5.536v8.133a1.123,1.123,0,1,1-2.246,0V473.342a7.952,7.952,0,1,1,15.9,0Zm-2.249,0a5.7,5.7,0,1,0-5.7,5.7A5.708,5.708,0,0,0,506.519,473.342Z" fill="#3a3a3a"/>
    <path d="M526.6,473.364a7.952,7.952,0,1,1-7.952-7.951A7.953,7.953,0,0,1,526.6,473.364Zm-2.246,0a5.706,5.706,0,1,0-5.706,5.706A5.713,5.713,0,0,0,524.355,473.364Z" fill="#3a3a3a"/>
    <path d="M543.731,480.185a1.123,1.123,0,0,1-2.246,0v-1.1a7.287,7.287,0,0,1-5.307,2.209c-4.392,0-7.214-3.561-7.214-7.949v-6.821a1.123,1.123,0,0,1,2.246,0v6.821c0,3.145,1.821,5.7,4.968,5.7a5.383,5.383,0,0,0,5.307-5.686v-6.85a1.123,1.123,0,1,1,2.246,0Z" fill="#3a3a3a"/>
    <path d="M561.963,473.352v6.821a1.123,1.123,0,1,1-2.246,0v-6.821c0-3.145-1.818-5.7-4.969-5.7a5.383,5.383,0,0,0-5.306,5.685v6.851a1.124,1.124,0,0,1-2.247,0V466.514a1.124,1.124,0,1,1,2.247,0v1.095a7.294,7.294,0,0,1,5.306-2.206C559.141,465.4,561.963,468.961,561.963,473.352Z" fill="#3a3a3a"/>
    <path d="M580.237,473.364a7.96,7.96,0,1,1-2.249-5.536v-8.135a1.125,1.125,0,0,1,2.249,0Zm-2.249,0a5.7,5.7,0,1,0-5.7,5.7A5.722,5.722,0,0,0,577.988,473.367Z" fill="#3a3a3a"/>
    <path d="M593.071,478.865c-.057.082-.119.165-.184.247a6.256,6.256,0,0,1-4.936,2.079,7.6,7.6,0,0,1-2.057-.276,5.467,5.467,0,0,1-3.257-2.58l-.035-.057a1.123,1.123,0,0,1,1.908-1.186l.052.085a3.282,3.282,0,0,0,1.948,1.576c1.514.431,3.651.151,4.626-1.048.035-.043.065-.085.1-.13a2.206,2.206,0,0,0,.209-1.979,2.48,2.48,0,0,0-1.651-1.584c-.341-.1-1.081-.242-1.671-.354-.525-.1-.979-.184-1.262-.256a4.08,4.08,0,0,1-3.118-4.441,4.357,4.357,0,0,1,3.048-3.264c2.154-.713,5.238-.067,6.472,2.209a1.123,1.123,0,1,1-1.975,1.07c-.629-1.165-2.522-1.566-3.792-1.148a2.152,2.152,0,0,0-1.534,1.487,1.866,1.866,0,0,0,1.464,1.913c.209.054.667.139,1.113.224.707.134,1.44.271,1.89.4a4.7,4.7,0,0,1,3.138,3A4.446,4.446,0,0,1,593.071,478.865Z" fill="#3a3a3a"/>
    <g>
      <path d="M255.431,56.735a1.6,1.6,0,0,1-1.15-.491,1.218,1.218,0,0,1-.19-.229s-.063-.1-.079-.127a1.237,1.237,0,0,1-.082-.177.679.679,0,0,1-.038-.1c-.007-.025-.02-.078-.02-.078a1.5,1.5,0,0,1-.06-.418V35.017c0-.052,0-.11.01-.162l.01-.092a1.7,1.7,0,0,1,.058-.234c.012-.035.037-.11.047-.135l.015-.044.02-.028.07-.127.034-.06c.028-.037.055-.074.085-.109s.055-.067.082-.1a2.16,2.16,0,0,1,.162-.152c.045-.035.087-.064.13-.092l.067-.045a1.047,1.047,0,0,1,.1-.052l.241.411-.209-.428a1.6,1.6,0,0,1,.7-.16l4.453,0a11.663,11.663,0,1,1,0,23.326Zm3.98-3.23.473-.005a8.43,8.43,0,0,0,0-16.859l-.473,0H257.05V53.505Z" fill="#3a3a3a"/>
      <path d="M290.706,48.3V55.1a1.623,1.623,0,0,1-3.245,0v-.232a8.463,8.463,0,0,1-5.309,1.851,8.559,8.559,0,1,1,8.557-8.569Zm-3.232-.137a5.323,5.323,0,1,0-5.322,5.324A5.33,5.33,0,0,0,287.474,48.158Z" fill="#3a3a3a"/>
      <path d="M293.4,36.055A1.632,1.632,0,0,1,294.11,35a.707.707,0,0,1,.025-.607.679.679,0,0,1,.573-.324c.03,0,.06,0,.09,0a1.246,1.246,0,0,1,.383.057.805.805,0,0,1,.7-.453.717.717,0,0,1,.59.326,1.114,1.114,0,0,1,.164.8,1.652,1.652,0,0,1,1.156,1.188,1.951,1.951,0,0,1-.623,1.9,2.139,2.139,0,0,1-1.479.789,2.3,2.3,0,0,1-1.375-.64A2.067,2.067,0,0,1,293.4,36.055Zm3.825,5.163V55.1a1.616,1.616,0,1,1-3.232,0V41.218a1.616,1.616,0,1,1,3.232,0Z" fill="#3a3a3a"/>
      <path d="M313.455,41.8a1.631,1.631,0,0,1-1.629,1.629,1.593,1.593,0,0,1-.672-.145,6,6,0,0,0-2.137-.418,5.387,5.387,0,0,0-3.979,1.87,5.823,5.823,0,0,0-1.293,3.935v6.44a1.618,1.618,0,1,1-3.235,0V41.21a1.618,1.618,0,1,1,3.235,0v.2a9.531,9.531,0,0,1,5.417-1.745,8.969,8.969,0,0,1,3.207.592l.1.04.034.018a1.586,1.586,0,0,1,.668.568s.025.037.04.064a1.692,1.692,0,0,1,.189.436l.015.06A1.633,1.633,0,0,1,313.455,41.8Z" fill="#3a3a3a"/>
      <path d="M328.84,41.741l-8.495,20.9a1.613,1.613,0,0,1-1.5,1.008h0a1.615,1.615,0,0,1-1.5-2.224l2.578-6.34-5.34-13.256a1.618,1.618,0,0,1,3-1.212l4.092,10.16,4.163-10.245a1.618,1.618,0,0,1,3,1.213Z" fill="#3a3a3a"/>
    </g>
    <g>
      <path d="M242.731,161.13a1.617,1.617,0,0,1-1.616-1.616v-12.94a8.553,8.553,0,1,1,3.234,6.682v6.258A1.618,1.618,0,0,1,242.731,161.13Zm1.618-14.576a5.307,5.307,0,1,0,0-.035Z" fill="#3a3a3a"/>
      <path d="M273.8,146.387a1.632,1.632,0,0,1-1.631,1.629,1.606,1.606,0,0,1-.673-.144,5.988,5.988,0,0,0-2.136-.419,5.4,5.4,0,0,0-3.98,1.87,5.844,5.844,0,0,0-1.29,3.935v6.44a1.619,1.619,0,1,1-3.237,0V145.8a1.619,1.619,0,1,1,3.237,0v.2a9.522,9.522,0,0,1,5.417-1.746,8.957,8.957,0,0,1,3.207.593c.045.017.072.027.1.04l.038.017a1.591,1.591,0,0,1,.667.568s.025.037.04.065a1.609,1.609,0,0,1,.187.436l.017.059A1.786,1.786,0,0,1,273.8,146.387Z" fill="#3a3a3a"/>
      <path d="M291.682,152.75a8.559,8.559,0,1,1-8.559-8.559A8.569,8.569,0,0,1,291.682,152.75Zm-3.235,0a5.324,5.324,0,1,0-5.324,5.322A5.33,5.33,0,0,0,288.447,152.75Z" fill="#3a3a3a"/>
      <path d="M303.215,159.673a1.62,1.62,0,0,1-1.592,1.619c-.047,0-.156.012-.311.012a6.224,6.224,0,0,1-4.555-2.131c-1.765-1.933-1.663-5.128-1.616-6.664v-5.135h-.573a1.619,1.619,0,0,1,0-3.238h.576v-5.252a1.618,1.618,0,1,1,3.235,0v5.265h2.492a1.618,1.618,0,0,1,0,3.235h-2.492v4.47a11.138,11.138,0,0,1,.017,1.265,5.742,5.742,0,0,0,.72,3.6,3.141,3.141,0,0,0,2.46,1.342A1.622,1.622,0,0,1,303.215,159.673Z" fill="#3a3a3a"/>
      <path d="M321.386,152.735a1.651,1.651,0,0,1-.48,1.168,1.627,1.627,0,0,1-1.151.476H307.762a5.332,5.332,0,0,0,4.714,3.667h2.411a1.62,1.62,0,0,1,1.618,1.617,1.619,1.619,0,0,1-1.618,1.619l-2.057.012c-.165,0-.326-.005-.488-.015a8.276,8.276,0,0,1-1.363-.189,8.559,8.559,0,1,1,10.407-8.355Zm-3.486-1.616a5.324,5.324,0,0,0-10.145,0Z" fill="#3a3a3a"/>
      <path d="M323.431,140.645a1.631,1.631,0,0,1,.715-1.056.705.705,0,0,1,.024-.608.672.672,0,0,1,.571-.323c.032,0,.062,0,.089,0a1.251,1.251,0,0,1,.386.057.809.809,0,0,1,.7-.453.718.718,0,0,1,.59.326,1.125,1.125,0,0,1,.165.8,1.652,1.652,0,0,1,1.155,1.188,1.945,1.945,0,0,1-.625,1.9,2.143,2.143,0,0,1-1.477.79,2.305,2.305,0,0,1-1.374-.64A2.072,2.072,0,0,1,323.431,140.645Zm3.827,5.162v13.884a1.617,1.617,0,1,1-3.234,0V145.807a1.617,1.617,0,0,1,3.234,0Z" fill="#3a3a3a"/>
      <path d="M346.543,152.738v6.933a1.618,1.618,0,1,1-3.235,0v-6.933c0-2.65-1.414-5.325-4.574-5.325a5.021,5.021,0,0,0-4.919,5.307v6.963a1.618,1.618,0,1,1-3.235,0v-13.9a1.618,1.618,0,1,1,3.235,0v.052a7.956,7.956,0,0,1,4.919-1.658C343.259,144.179,346.543,147.779,346.543,152.738Z" fill="#3a3a3a"/>
    </g>
    <g>
      <path d="M259.647,266.559a1.619,1.619,0,0,1-1.616-1.619V244.846a1.617,1.617,0,0,1,1.616-1.616h12.491a1.617,1.617,0,1,1,0,3.234H261.266v6.811h6.751a1.619,1.619,0,1,1,0,3.238h-6.751v8.429A1.619,1.619,0,0,1,259.647,266.559Z" fill="#3a3a3a"/>
      <path d="M285.972,251.622a1.632,1.632,0,0,1-1.631,1.629,1.6,1.6,0,0,1-.672-.145,6.007,6.007,0,0,0-2.137-.418,5.4,5.4,0,0,0-3.98,1.87,5.836,5.836,0,0,0-1.292,3.935v6.439a1.618,1.618,0,1,1-3.235,0v-13.9a1.618,1.618,0,1,1,3.235,0v.2a9.524,9.524,0,0,1,5.416-1.745,8.74,8.74,0,0,1,3.21.592l.1.04.038.018a1.619,1.619,0,0,1,.667.567.582.582,0,0,1,.037.065,1.6,1.6,0,0,1,.19.436l.017.06A1.771,1.771,0,0,1,285.972,251.622Z" fill="#3a3a3a"/>
      <path d="M303.84,251.019v13.9a1.618,1.618,0,1,1-3.235,0v-.049a7.979,7.979,0,0,1-4.921,1.656c-4.525,0-7.809-3.6-7.809-8.559v-6.933a1.619,1.619,0,1,1,3.237,0v6.933c0,2.649,1.414,5.324,4.572,5.324a5.022,5.022,0,0,0,4.921-5.307v-6.963a1.618,1.618,0,1,1,3.235,0Z" fill="#3a3a3a"/>
      <path d="M306.47,245.879a1.621,1.621,0,0,1,.714-1.056.707.707,0,0,1,.025-.607.673.673,0,0,1,.57-.324c.03,0,.06,0,.09,0a1.266,1.266,0,0,1,.386.057.8.8,0,0,1,.7-.453.721.721,0,0,1,.593.326,1.132,1.132,0,0,1,.164.8,1.646,1.646,0,0,1,1.153,1.188,1.945,1.945,0,0,1-.622,1.9,2.145,2.145,0,0,1-1.477.789,2.3,2.3,0,0,1-1.375-.64A2.068,2.068,0,0,1,306.47,245.879Zm3.827,5.163v13.883a1.618,1.618,0,1,1-3.235,0V251.042a1.618,1.618,0,0,1,3.235,0Z" fill="#3a3a3a"/>
      <path d="M323.022,264.908a1.618,1.618,0,0,1-1.591,1.618c-.047,0-.157.013-.311.013a6.223,6.223,0,0,1-4.555-2.132c-1.765-1.932-1.663-5.128-1.616-6.664v-5.135h-.573a1.619,1.619,0,0,1,0-3.237h.575v-5.252a1.618,1.618,0,1,1,3.235,0v5.264h2.493a1.618,1.618,0,0,1,0,3.235h-2.493v4.47a10.9,10.9,0,0,1,.018,1.265,5.742,5.742,0,0,0,.719,3.6,3.142,3.142,0,0,0,2.461,1.342A1.62,1.62,0,0,1,323.022,264.908Z" fill="#3a3a3a"/>
    </g>
    <g>
      <path d="M239.04,364.429l-6.181-20.121a1.619,1.619,0,0,1,2.974-1.278l4.7,15.311,4.717-15.3a1.618,1.618,0,0,1,2.973,1.277l-6.193,20.089a1.615,1.615,0,0,1-.558.673l-.03.022a.488.488,0,0,1-.082.047,1.229,1.229,0,0,1-.187.1,1.574,1.574,0,0,1-.652.14A1.618,1.618,0,0,1,239.04,364.429Z" fill="#3a3a3a"/>
      <path d="M265.524,356.807a1.65,1.65,0,0,1-.48,1.167,1.624,1.624,0,0,1-1.151.476H251.9a5.33,5.33,0,0,0,4.714,3.667h2.411a1.62,1.62,0,0,1,1.618,1.617,1.6,1.6,0,0,1-.2.787,1.618,1.618,0,0,1-1.414.832s-1.895.013-2.057.013-.327,0-.488-.015a8.383,8.383,0,0,1-1.363-.19,8.559,8.559,0,1,1,10.407-8.354Zm-3.486-1.617a5.324,5.324,0,0,0-10.146,0Z" fill="#3a3a3a"/>
      <path d="M284.554,357.083v7.194A8.317,8.317,0,0,1,276,372.309a8.6,8.6,0,0,1-7.812-4.749l-.015-.028a1.706,1.706,0,0,1-.189-.438l-.015-.06a1.631,1.631,0,0,1,3.055-1.071c.013.025.025.05.035.075A5.436,5.436,0,0,0,276,369.006c2.933,0,5.322-2.121,5.322-4.729v-.754a8.578,8.578,0,0,1-12.853-2.622,8.561,8.561,0,1,1,16.089-4.082Zm-3.236-.264a5.325,5.325,0,1,0-10.355,1.746,5.263,5.263,0,0,0,1.118,1.862,5.312,5.312,0,0,0,7.825,0,5.263,5.263,0,0,0,1.118-1.862A5.374,5.374,0,0,0,281.318,356.819Z" fill="#3a3a3a"/>
      <path d="M304.259,357.083v7.194a8.317,8.317,0,0,1-8.557,8.032,8.6,8.6,0,0,1-7.812-4.749l-.015-.028a1.674,1.674,0,0,1-.19-.438l-.015-.06a1.631,1.631,0,0,1,3.056-1.071c.012.025.025.05.035.075a5.435,5.435,0,0,0,4.941,2.968c2.933,0,5.321-2.121,5.321-4.729v-.754a8.559,8.559,0,1,1,3.236-6.7Zm-3.236-.264a5.324,5.324,0,1,0-10.354,1.746,5.248,5.248,0,0,0,1.118,1.862,5.311,5.311,0,0,0,7.824,0,5.263,5.263,0,0,0,1.118-1.862A5.347,5.347,0,0,0,301.023,356.819Z" fill="#3a3a3a"/>
      <path d="M306.983,344.716a1.621,1.621,0,0,1,.714-1.056.707.707,0,0,1,.025-.607.673.673,0,0,1,.57-.324q.045,0,.09,0a1.264,1.264,0,0,1,.386.058.8.8,0,0,1,.7-.454.722.722,0,0,1,.593.327,1.132,1.132,0,0,1,.164.8,1.65,1.65,0,0,1,1.153,1.188,1.945,1.945,0,0,1-.622,1.9,2.145,2.145,0,0,1-1.477.789,2.3,2.3,0,0,1-1.375-.64A2.068,2.068,0,0,1,306.983,344.716Zm3.827,5.163v13.883a1.618,1.618,0,1,1-3.235,0V349.879a1.618,1.618,0,0,1,3.235,0Z" fill="#3a3a3a"/>
      <path d="M330.82,356.807a1.651,1.651,0,0,1-.481,1.167,1.621,1.621,0,0,1-1.151.476H317.2a5.33,5.33,0,0,0,4.714,3.667h2.411a1.621,1.621,0,0,1,1.619,1.617,1.59,1.59,0,0,1-.205.787,1.616,1.616,0,0,1-1.414.832s-1.895.013-2.057.013-.326,0-.488-.015a8.355,8.355,0,0,1-1.362-.19,8.559,8.559,0,1,1,10.407-8.354Zm-3.487-1.617a5.324,5.324,0,0,0-10.145,0Z" fill="#3a3a3a"/>
      <path d="M337.944,365.4a8.07,8.07,0,0,1-2.179-.294,5.861,5.861,0,0,1-3.5-2.765l-.035-.057a1.459,1.459,0,0,1,.471-2,1.456,1.456,0,0,1,2.009.469l.053.087a3.055,3.055,0,0,0,1.8,1.464,5.09,5.09,0,0,0,1.379.182,3.88,3.88,0,0,0,2.989-1.143c.031-.038.06-.075.087-.112a1.9,1.9,0,0,0,.172-1.728,2.208,2.208,0,0,0-1.47-1.41c-.334-.1-1.075-.239-1.671-.351-.54-.1-1-.189-1.3-.267a4.466,4.466,0,0,1-3.4-4.871,4.748,4.748,0,0,1,3.312-3.571,6.228,6.228,0,0,1,1.918-.293,5.649,5.649,0,0,1,5.04,2.692,1.458,1.458,0,0,1-.59,1.977,1.454,1.454,0,0,1-1.977-.59,2.86,2.86,0,0,0-2.483-1.161,3.22,3.22,0,0,0-.994.147,1.9,1.9,0,0,0-1.345,1.26c-.137.854.75,1.455,1.256,1.586.2.053.662.14,1.105.222.73.14,1.482.28,1.958.421a5.1,5.1,0,0,1,3.4,3.247,4.821,4.821,0,0,1-.538,4.366c-.062.087-.129.177-.2.264A6.629,6.629,0,0,1,337.944,365.4Z" fill="#3a3a3a"/>
    </g>
    <g>
      <path d="M255.277,468.269c-.12,0-.244,0-.369-.007a11.66,11.66,0,0,1-8.058-19.718,11.507,11.507,0,0,1,8.058-3.6c.122,0,.247-.007.369-.007a11.625,11.625,0,0,1,8.063,3.235l.349.336-.045.047a1.613,1.613,0,0,1-1.372,2.465,1.607,1.607,0,0,1-.852-.241l-.1-.07a1.683,1.683,0,0,1-.187-.162l-.047-.052a8.458,8.458,0,0,0-5.807-2.321c-.112,0-.219,0-.329.008a8.427,8.427,0,0,0-.01,16.841c.117,0,.227.01.339.01a8.434,8.434,0,0,0,5.379-1.945v-3.725h-4.433a1.618,1.618,0,1,1,0-3.235h5.947a.75.75,0,0,1,.1-.007,1.615,1.615,0,0,1,1.616,1.616v6.051a1.611,1.611,0,0,1-.371,1.026,1.418,1.418,0,0,1-.169.212l-.053.047A11.657,11.657,0,0,1,255.277,468.269Z" fill="#3a3a3a"/>
      <path d="M280.125,453.332a1.632,1.632,0,0,1-1.634,1.629,1.608,1.608,0,0,1-.672-.144,6,6,0,0,0-2.137-.419,5.4,5.4,0,0,0-3.979,1.87,5.849,5.849,0,0,0-1.29,3.935v6.44a1.619,1.619,0,0,1-3.238,0v-13.9a1.619,1.619,0,0,1,3.238,0v.2a9.517,9.517,0,0,1,5.414-1.746,8.756,8.756,0,0,1,3.212.593c.043.017.07.027.1.04l.04.017a1.621,1.621,0,0,1,.667.568.5.5,0,0,1,.037.065,1.52,1.52,0,0,1,.187.436l.02.059A2.047,2.047,0,0,1,280.125,453.332Z" fill="#3a3a3a"/>
      <path d="M298,459.83v6.806a1.621,1.621,0,0,1-3.242,0V466.4a8.558,8.558,0,1,1-5.315-15.268,8.576,8.576,0,0,1,8.562,8.549Zm-3.232-.137a5.325,5.325,0,1,0-5.325,5.324A5.329,5.329,0,0,0,294.768,459.693Z" fill="#3a3a3a"/>
      <path d="M300.692,447.59a1.623,1.623,0,0,1,.715-1.056.7.7,0,0,1,.025-.608.668.668,0,0,1,.57-.323c.032,0,.062,0,.09,0a1.3,1.3,0,0,1,.386.057.8.8,0,0,1,.7-.453.725.725,0,0,1,.593.326,1.13,1.13,0,0,1,.164.805,1.656,1.656,0,0,1,1.155,1.188,1.942,1.942,0,0,1-.625,1.9,2.141,2.141,0,0,1-1.476.79,2.3,2.3,0,0,1-1.375-.64A2.067,2.067,0,0,1,300.692,447.59Zm3.828,5.162v13.884a1.618,1.618,0,1,1-3.235,0V452.752a1.618,1.618,0,0,1,3.235,0Z" fill="#3a3a3a"/>
      <path d="M323.8,459.683v6.933a1.619,1.619,0,0,1-3.237,0v-6.933c0-2.65-1.412-5.325-4.572-5.325a5.024,5.024,0,0,0-4.921,5.307v6.963a1.616,1.616,0,1,1-3.232,0v-13.9a1.616,1.616,0,1,1,3.232,0v.052A7.964,7.964,0,0,1,316,451.124C320.52,451.124,323.8,454.725,323.8,459.683Z" fill="#3a3a3a"/>
      <path d="M331.938,468.269a8.055,8.055,0,0,1-2.177-.294,5.858,5.858,0,0,1-3.5-2.764l-.035-.057a1.462,1.462,0,0,1,.468-2,1.46,1.46,0,0,1,2.012.468l.055.087a3.033,3.033,0,0,0,1.8,1.465,5.09,5.09,0,0,0,1.379.182,3.88,3.88,0,0,0,2.989-1.143c.031-.038.057-.075.087-.113a1.912,1.912,0,0,0,.169-1.728,2.2,2.2,0,0,0-1.467-1.409c-.336-.1-1.076-.239-1.671-.351-.54-.1-1.006-.19-1.3-.267a4.472,4.472,0,0,1-3.4-4.871,4.742,4.742,0,0,1,3.312-3.571,6.215,6.215,0,0,1,1.917-.294,5.664,5.664,0,0,1,5.041,2.692,1.461,1.461,0,0,1-.588,1.977,1.454,1.454,0,0,1-1.977-.59,2.858,2.858,0,0,0-2.486-1.16,3.214,3.214,0,0,0-.991.147,1.89,1.89,0,0,0-1.345,1.26c-.139.854.748,1.453,1.255,1.586.2.052.663.14,1.106.222.73.139,1.482.279,1.958.421a5.1,5.1,0,0,1,3.4,3.247,4.85,4.85,0,0,1-.541,4.365c-.06.087-.127.177-.2.264A6.673,6.673,0,0,1,331.938,468.269Z" fill="#3a3a3a"/>
    </g>
    <g>
      <g>
        <path d="M90.421,65.137v47.621a8.812,8.812,0,0,1-8.8,8.8H42.844a8.811,8.811,0,0,1-8.8-8.8V65.867c0-.132,0-.264.006-.4l-.006-.334a107.877,107.877,0,0,1,3.552-25.212c.019-.082.044-.17.063-.251.006-.019.006-.038.013-.057a193.327,193.327,0,0,1,7.821-24.288l.321-.773H78.651l.32.773C79.437,16.461,90.421,43.232,90.421,65.137Zm-1.258,47.621V65.867c0-.245-.006-.484-.019-.73h.019a107.62,107.62,0,0,0-3.445-24.646c-.05-.208-.107-.415-.151-.623a190.739,190.739,0,0,0-7.759-24.055H46.654a188.719,188.719,0,0,0-7.2,21.9c-.22.824-.434,1.666-.641,2.515-.031.119-.057.239-.088.365C36.815,48.444,35.3,57.159,35.3,65.137h.019c-.012.246-.019.485-.019.73v46.891a7.568,7.568,0,0,0,7.545,7.545H81.618A7.567,7.567,0,0,0,89.163,112.758Z" fill="#343434"/>
        <path d="M89.163,65.867v46.891a7.567,7.567,0,0,1-7.545,7.545H42.844a7.568,7.568,0,0,1-7.545-7.545V65.867c0-.245.007-.484.019-.73H35.3c0-7.978,1.516-16.693,3.427-24.545.031-.126.057-.246.088-.365.207-.849.421-1.691.641-2.515a188.719,188.719,0,0,1,7.2-21.9H77.808a190.739,190.739,0,0,1,7.759,24.055c.044.208.1.415.151.623a107.62,107.62,0,0,1,3.445,24.646h-.019C89.157,65.383,89.163,65.622,89.163,65.867Zm-1.257,46.891V65.867c0-.227-.006-.44-.019-.667l-.069-1.32h.075a106.018,106.018,0,0,0-3.037-21.5c-.2-.874-.408-1.735-.622-2.59A196.335,196.335,0,0,0,76.959,17.07H47.5a194.761,194.761,0,0,0-6.369,19.208c-.371,1.384-.742,2.8-1.1,4.251-.025.1-.051.2-.069.295a108.2,108.2,0,0,0-3.4,23.056h.057l-.05,1.32c-.013.227-.019.44-.019.667v46.891a6.3,6.3,0,0,0,6.287,6.287H81.618A6.3,6.3,0,0,0,87.906,112.758Z" fill="#343434"/>
        <path d="M87.906,65.867v46.891a6.3,6.3,0,0,1-6.288,6.287H42.844a6.3,6.3,0,0,1-6.287-6.287V65.867c0-.227.006-.44.019-.667l.05-1.32h-.057a108.2,108.2,0,0,1,3.4-23.056c.018-.094.044-.2.069-.295.358-1.453.729-2.867,1.1-4.251a9.515,9.515,0,0,1,7.432-1.911,14,14,0,0,1,5.25,2.157A15.172,15.172,0,0,0,58.5,38.6c2.27.522,3.829-.378,5.8-1.516,2.062-1.188,4.395-2.533,7.84-2.25a16.126,16.126,0,0,1,7.514,2.892,12.437,12.437,0,0,0,4.577,2.056c.214.855.421,1.716.622,2.59a106.018,106.018,0,0,1,3.037,21.5h-.075l.069,1.32C87.9,65.427,87.906,65.64,87.906,65.867Z" fill="#dfdfdf"/>
      </g>
      <g>
        <path d="M82.191,5.414v6.557a3.855,3.855,0,0,1-3.848,3.842H46.12a3.859,3.859,0,0,1-3.848-3.842V5.414A3.859,3.859,0,0,1,46.12,1.572H78.343A3.855,3.855,0,0,1,82.191,5.414Z" fill="#429cb4"/>
        <path d="M78.343,17.385H46.12a5.424,5.424,0,0,1-5.42-5.414V5.414A5.423,5.423,0,0,1,46.12,0H78.343a5.422,5.422,0,0,1,5.419,5.414v6.557A5.423,5.423,0,0,1,78.343,17.385ZM46.12,3.144a2.275,2.275,0,0,0-2.276,2.27v6.557a2.275,2.275,0,0,0,2.276,2.27H78.343a2.275,2.275,0,0,0,2.276-2.27V5.414a2.275,2.275,0,0,0-2.276-2.27Z" fill="#343434"/>
      </g>
      <path d="M85.806,42.383c-.157.007-.315.007-.465.007s-.327-.007-.485-.013c-2.665-.132-4.621-1.333-6.52-2.509a13.661,13.661,0,0,0-6.4-2.521c-2.666-.214-4.464.824-6.376,1.924-2.162,1.245-4.394,2.528-7.626,1.78a17.522,17.522,0,0,1-5.407-2.365,11.478,11.478,0,0,0-4.357-1.835c-2.937-.466-5.2.622-8.2,3.973-.145.151-.283.308-.422.472l-.817-.7-1.069-.917-.019-.019c.013-.013.019-.025.032-.038.572-.66,1.163-1.308,1.785-1.9a17.155,17.155,0,0,1,1.679-1.434,9.515,9.515,0,0,1,7.432-1.911,14,14,0,0,1,5.25,2.157A15.172,15.172,0,0,0,58.5,38.6c2.269.522,3.829-.378,5.8-1.516,2.062-1.188,4.395-2.533,7.84-2.25a16.126,16.126,0,0,1,7.514,2.892,12.437,12.437,0,0,0,4.577,2.056,6.551,6.551,0,0,0,1.333.081.676.676,0,0,0,.119,0l.032.623Z" fill="#343434"/>
      <g>
        <path d="M130.28,82.48,50.561,92.123,74.385,80.44a7.752,7.752,0,0,0,5.625,2.484c4.522,0,8.184-4.055,8.184-9.053a1.919,1.919,0,0,0-.007-.2l18.068-8.854Z" fill="#eee418"/>
        <path d="M50.56,93.381a1.258,1.258,0,0,1-.552-2.387L73.832,79.311a1.256,1.256,0,0,1,1.463.261,6.5,6.5,0,0,0,4.715,2.094c3.82,0,6.927-3.5,6.927-7.8V73.8a1.318,1.318,0,0,1,.7-1.255L105.7,63.688a1.261,1.261,0,0,1,1.3.116l24.025,17.662a1.257,1.257,0,0,1-.594,2.262L50.712,93.372A1.291,1.291,0,0,1,50.56,93.381ZM74.153,81.954l-16.372,8.03,69.2-8.372L106.124,66.281,89.437,74.46c-.281,5.412-4.4,9.721-9.427,9.721A8.9,8.9,0,0,1,74.153,81.954Z" fill="#343434"/>
      </g>
      <g>
        <path d="M125.21,93.012a5.357,5.357,0,0,0,5.07,5.6v11.759l-79.719,9.644V113.2a6.788,6.788,0,0,0,0-13.085v-8L130.28,82.48v4.929A5.358,5.358,0,0,0,125.21,93.012Z" fill="#d2c918"/>
        <path d="M50.561,121.269a1.256,1.256,0,0,1-1.257-1.258v-6.806a1.257,1.257,0,0,1,1.023-1.236,5.538,5.538,0,0,0,0-10.615,1.257,1.257,0,0,1-1.023-1.236V92.124a1.257,1.257,0,0,1,1.106-1.249l79.719-9.644a1.258,1.258,0,0,1,1.409,1.248v4.93a1.257,1.257,0,0,1-1.258,1.257,4.379,4.379,0,0,0,0,8.685,1.258,1.258,0,0,1,1.258,1.258v11.759a1.257,1.257,0,0,1-1.107,1.248L50.712,121.26A1.275,1.275,0,0,1,50.561,121.269Zm1.258-7.107v4.43l77.2-9.338V99.73a6.99,6.99,0,0,1,0-13.443V83.9l-77.2,9.34v5.923a8.139,8.139,0,0,1,0,15Z" fill="#343434"/>
      </g>
      <g>
        <ellipse cx="69.605" cy="104.472" rx="4.53" ry="5.007" fill="#a49c24"/>
        <ellipse cx="69.605" cy="104.472" rx="4.53" ry="5.007" fill="none"/>
      </g>
      <g>
        <ellipse cx="100.933" cy="92.788" rx="3.7" ry="4.089" fill="#a49c24"/>
        <ellipse cx="100.933" cy="92.788" rx="3.7" ry="4.089" fill="none"/>
      </g>
      <g>
        <ellipse cx="106.844" cy="73.12" rx="3.7" ry="2.828" fill="#a49c24"/>
        <ellipse cx="106.844" cy="73.12" rx="3.7" ry="2.828" fill="none"/>
      </g>
      <g>
        <ellipse cx="92.325" cy="81.61" rx="3.002" ry="2.449" fill="#a49c24"/>
        <ellipse cx="92.325" cy="81.61" rx="3.002" ry="2.449" fill="none"/>
      </g>
      <g>
        <ellipse cx="116.517" cy="102.878" rx="5.973" ry="6.602" fill="#a49c24"/>
        <ellipse cx="116.517" cy="102.878" rx="5.973" ry="6.602" fill="none"/>
      </g>
    </g>
    <g>
      <path d="M110.766,169.174v6.917c-.055.135-.1.278-.159.421a13.517,13.517,0,0,0-.5,1.519,16.608,16.608,0,0,1-5.406,8.722c-9.47,8.054-19.265,12.705-29.943,14.224a56.285,56.285,0,0,0-15.186,4.166,19,19,0,0,1-7.791,1.94,11.535,11.535,0,0,1-2.7-.31,11.114,11.114,0,0,0-2.623-.334c-3.817,0-6.226,2.4-7.9,4.492a.359.359,0,0,1-.112.111,3.671,3.671,0,0,0-1.145,4.27,7.981,7.981,0,0,1-.254,5.534c-.978,2.655-2.934,4.357-6.52,5.661H27.387c-3.642-1.241-5.924-3.4-6.981-6.607a3.084,3.084,0,0,0-1.892-1.956c-2.727-1-4.532-3.022-5.836-6.552v-3.1c.048-.143.1-.278.159-.413.135-.35.27-.7.4-1.049A8.459,8.459,0,0,1,21.09,201a8.147,8.147,0,0,1,1.789.206,8.622,8.622,0,0,0,1.876.231,5.818,5.818,0,0,0,4.755-2.465,13.27,13.27,0,0,1,1.383-1.383,4.2,4.2,0,0,0,1.328-4.516A21.712,21.712,0,0,1,34.36,176.7a26.936,26.936,0,0,0,3.14-9.9,54.907,54.907,0,0,1,4.691-17.333c3.673-7.848,7.458-13.119,12.268-17.07a20.792,20.792,0,0,1,6.623-3.244c.668-.231,1.36-.477,2.035-.732H70.17c.111.04.23.08.35.12.4.135.8.27,1.24.373,15.082,3.57,26.476,12.7,34.84,27.9a42.429,42.429,0,0,1,3.4,9.438c.191.7.382,1.4.58,2.1A2.23,2.23,0,0,0,110.766,169.174Zm-7.728,14a15.178,15.178,0,0,0,3.816-11.393,26.341,26.341,0,0,0-1.264-7.037c-4.19-12.816-12.991-22.659-26.158-29.251a28.155,28.155,0,0,0-12.673-3.172c-.453,0-.915.016-1.368.04-7.33.4-12.443,5.144-13.031,12.1a27.814,27.814,0,0,0,2.083,13.214A50.547,50.547,0,0,0,71.823,179.3c5.113,3.681,11.664,7.474,21.507,7.673.255.015.5.023.748.023A12.245,12.245,0,0,0,103.038,183.175ZM86.405,193.726c1.113-.358,1.622-1.018,1.511-1.94a1.884,1.884,0,0,0-1.741-1.575,1.3,1.3,0,0,1-.2-.039c-.573-.175-1.161-.326-1.726-.477a21.974,21.974,0,0,1-3.029-.946c-17.277-7.355-27.859-19.209-32.351-36.216-.008-.056-.016-.127-.024-.2-.143-1.558-1.034-1.9-1.757-1.916h-.04c-1.2,0-1.614,1.129-1.765,1.558-.024.064-.048.136-.072.191a39.1,39.1,0,0,0-3.2,10.813A67.951,67.951,0,0,1,36.792,180.8c-2.337,5.565-1.987,11.091.978,15.551a15.02,15.02,0,0,0,12.348,6.663c.286,0,.58-.008.867-.032.246.016.493.016.739.016a13.959,13.959,0,0,0,5.74-1.161,66.479,66.479,0,0,1,17.969-4.881,42.668,42.668,0,0,0,10.8-3.165C86.286,193.765,86.349,193.75,86.405,193.726ZM37.476,206.351a3.176,3.176,0,0,0,1.233-2.345,2.733,2.733,0,0,0-1.145-1.98,6.471,6.471,0,0,1-.509-.461,3.492,3.492,0,0,0-2.409-1.3,3.077,3.077,0,0,0-2.2,1.105c-1.192,1.249-2.448,2.481-3.665,3.666l-.334.326c-1.017,1-1.558,1.367-2,1.367a4.908,4.908,0,0,1-2.068-.858,5.864,5.864,0,0,0-2.941-.883,4.757,4.757,0,0,0-2.743.906,4.433,4.433,0,0,0-1.869,4.826,4.895,4.895,0,0,0,4.2,3.833,6.916,6.916,0,0,1,2.5.755,7.914,7.914,0,0,1,.6,2.751,4.865,4.865,0,0,0,4.786,4.46h.056A4.561,4.561,0,0,0,33,220.3a5.326,5.326,0,0,0-.127-5.327c-1.3-2.345-1.249-2.735.6-4.627l.159-.167C34.884,208.912,36.172,207.6,37.476,206.351Z" fill="#343434"/>
      <path d="M106.854,171.782a15.178,15.178,0,0,1-3.816,11.393A12.245,12.245,0,0,1,94.078,187c-.247,0-.493-.008-.748-.023-9.843-.2-16.394-3.992-21.507-7.673a50.547,50.547,0,0,1-17.38-21.626,27.814,27.814,0,0,1-2.083-13.214c.588-6.957,5.7-11.7,13.031-12.1.453-.024.915-.04,1.368-.04a28.155,28.155,0,0,1,12.673,3.172c13.167,6.592,21.968,16.435,26.158,29.251A26.341,26.341,0,0,1,106.854,171.782Zm-17.976-5.717a5.988,5.988,0,0,0,1.487-4.158c-.016-5.709-6.3-12.538-12.006-13.047-.31-.024-.612-.04-.906-.04a6.268,6.268,0,0,0-4.326,1.455,4.965,4.965,0,0,0-1.542,3.784,8.27,8.27,0,0,0,.382,2.4,15.073,15.073,0,0,0,11.647,10.972,7.064,7.064,0,0,0,1.551.182A4.927,4.927,0,0,0,88.878,166.065Z" fill="#c77b80"/>
      <path d="M90.365,161.907a5.988,5.988,0,0,1-1.487,4.158,4.927,4.927,0,0,1-3.713,1.55,7.064,7.064,0,0,1-1.551-.182,15.073,15.073,0,0,1-11.647-10.972,8.27,8.27,0,0,1-.382-2.4,4.965,4.965,0,0,1,1.542-3.784,6.268,6.268,0,0,1,4.326-1.455c.294,0,.6.016.906.04C84.068,149.369,90.349,156.2,90.365,161.907ZM86,162.829a2.1,2.1,0,0,0,.516-1.415,3.662,3.662,0,0,0-.262-1.232,12.065,12.065,0,0,0-5.3-6.3A7.164,7.164,0,0,0,78,152.7l-.1-.016-.1.008a2.047,2.047,0,0,0-2.178,2.067,3.55,3.55,0,0,0,.254,1.217,12.168,12.168,0,0,0,7.363,7.362,3.343,3.343,0,0,0,1.137.239A2.122,2.122,0,0,0,86,162.829Z" fill="#343434"/>
      <path d="M87.916,191.786c.111.922-.4,1.582-1.511,1.94-.056.024-.119.039-.167.063a42.668,42.668,0,0,1-10.8,3.165,66.479,66.479,0,0,0-17.969,4.881A13.959,13.959,0,0,1,51.724,203c-.246,0-.493,0-.739-.016-.287.024-.581.032-.867.032a15.02,15.02,0,0,1-12.348-6.663c-2.965-4.46-3.315-9.986-.978-15.551a67.951,67.951,0,0,0,5.216-17.818,39.1,39.1,0,0,1,3.2-10.813c.024-.055.048-.127.072-.191.151-.429.564-1.558,1.765-1.558h.04c.723.016,1.614.358,1.757,1.916.008.072.016.143.024.2,4.492,17.007,15.074,28.861,32.351,36.216a21.974,21.974,0,0,0,3.029.946c.565.151,1.153.3,1.726.477a1.3,1.3,0,0,0,.2.039A1.884,1.884,0,0,1,87.916,191.786Z" fill="#925c14"/>
      <path d="M86.516,161.414A2.1,2.1,0,0,1,86,162.829a2.122,2.122,0,0,1-1.63.748,3.343,3.343,0,0,1-1.137-.239,12.168,12.168,0,0,1-7.363-7.362,3.55,3.55,0,0,1-.254-1.217,2.047,2.047,0,0,1,2.178-2.067l.1-.008.1.016a7.164,7.164,0,0,1,2.95,1.185,12.065,12.065,0,0,1,5.3,6.3A3.662,3.662,0,0,1,86.516,161.414Z" fill="#fff0a6"/>
      <path d="M38.709,204.006a3.176,3.176,0,0,1-1.233,2.345c-1.3,1.249-2.592,2.561-3.84,3.825l-.159.167c-1.853,1.892-1.9,2.282-.6,4.627A5.326,5.326,0,0,1,33,220.3a4.561,4.561,0,0,1-4.039,2.218h-.056a4.865,4.865,0,0,1-4.786-4.46,7.914,7.914,0,0,0-.6-2.751,6.916,6.916,0,0,0-2.5-.755,4.895,4.895,0,0,1-4.2-3.833,4.433,4.433,0,0,1,1.869-4.826,4.757,4.757,0,0,1,2.743-.906,5.864,5.864,0,0,1,2.941.883,4.908,4.908,0,0,0,2.068.858c.445,0,.986-.366,2-1.367l.334-.326c1.217-1.185,2.473-2.417,3.665-3.666a3.077,3.077,0,0,1,2.2-1.105,3.492,3.492,0,0,1,2.409,1.3,6.471,6.471,0,0,0,.509.461A2.733,2.733,0,0,1,38.709,204.006Z" fill="#fff0a6"/>
    </g>
    <g>
      <path d="M68.2,250.512a.436.436,0,0,1-.115.112c-.256.161-.694.034-1.024,0a31.914,31.914,0,0,1-5.971-1.2,16,16,0,0,1-8.592-5.471,18.431,18.431,0,0,1-2.816-4.881,17.353,17.353,0,0,1-.929-9.072,16.554,16.554,0,0,1,3.455-7.976,2.621,2.621,0,0,1,.784-.65,2.572,2.572,0,0,1,2.255.226,17.247,17.247,0,0,1,4.851,3.42,23.4,23.4,0,0,1,4.752,7.838c.273.712.518,1.435.744,2.167a71.827,71.827,0,0,1,2.169,10.646c.158,1.086.319,2.171.394,3.267C68.182,249.265,68.381,250.247,68.2,250.512Z" fill="#009c53"/>
      <path d="M64.853,232.863a1.477,1.477,0,0,1-1.073-.4c-1.619-1.209-2.853-2.87-4.425-4.144s-3.726-2.154-5.609-1.418a6.973,6.973,0,0,0-2.844,2.543,38.93,38.93,0,0,0-2.377,3.609,17.125,17.125,0,0,1,.231-3.049,16.554,16.554,0,0,1,3.455-7.976,2.621,2.621,0,0,1,.784-.65,2.572,2.572,0,0,1,2.255.226,17.247,17.247,0,0,1,4.851,3.42A23.4,23.4,0,0,1,64.853,232.863Z" fill="#46bc5d"/>
      <path d="M67.739,251.7a3.836,3.836,0,0,1-.572-.053c-.067-.01-.132-.021-.192-.026a32.785,32.785,0,0,1-6.16-1.235,16.946,16.946,0,0,1-9.089-5.8,19.435,19.435,0,0,1-2.966-5.143,18.369,18.369,0,0,1-.982-9.59,17.411,17.411,0,0,1,3.688-8.47,3.611,3.611,0,0,1,1.091-.885,3.483,3.483,0,0,1,3.148.235,18.447,18.447,0,0,1,5.118,3.621,25.8,25.8,0,0,1,5.722,10.394,72.731,72.731,0,0,1,2.2,10.793l.013.095c.155,1.056.314,2.147.389,3.249,0,.06.017.152.032.259a2.771,2.771,0,0,1-.156,1.93l-.005.007a1.406,1.406,0,0,1-.381.376l-.022.014A1.607,1.607,0,0,1,67.739,251.7Zm.464-1.183ZM53.793,222.2a.828.828,0,0,0-.363.074,1.776,1.776,0,0,0-.475.415,15.39,15.39,0,0,0-3.221,7.481,16.4,16.4,0,0,0,.877,8.555,17.421,17.421,0,0,0,2.664,4.618,14.9,14.9,0,0,0,8.1,5.138,30.705,30.705,0,0,0,5.785,1.164l.092.01c-.012-.1-.024-.19-.033-.253-.021-.159-.038-.295-.044-.387-.07-1.026-.224-2.079-.373-3.1l-.013-.095a71.117,71.117,0,0,0-2.136-10.5,23.862,23.862,0,0,0-5.27-9.616,15.952,15.952,0,0,0-4.58-3.218A2.311,2.311,0,0,0,53.793,222.2Z" fill="#303030"/>
      <path d="M86.478,233.448a17.66,17.66,0,0,1-.59,3.944,18.218,18.218,0,0,1-2.4,5.339A27.79,27.79,0,0,1,76.079,250c-1.462,1.024-2.982,1.958-4.523,2.853q-1.153.669-2.318,1.316c-.367.206-2.092.865-2.209,1.232,0,0-5.252,16.581-5.527,4.975-.08-3.3-.1-6.6.081-9.9a32.4,32.4,0,0,1,.722-5.324,17.95,17.95,0,0,1,5.079-9.494,19.685,19.685,0,0,1,9.206-4.682,19.43,19.43,0,0,1,5.193-.387c1.343.084,3.673-.042,4.447,1.329A2.887,2.887,0,0,1,86.478,233.448Z" fill="#009c53"/>
      <path d="M86.478,233.448a17.66,17.66,0,0,1-.59,3.944,8.962,8.962,0,0,0-2.167-1.019,14.268,14.268,0,0,0-4.756-.265,30.921,30.921,0,0,0-10.213,3.5c-2.64,1.312-5.461,2.943-6.44,5.724l-.007-.181a17.95,17.95,0,0,1,5.079-9.494,19.685,19.685,0,0,1,9.206-4.682,19.43,19.43,0,0,1,5.193-.387c1.343.084,3.673-.042,4.447,1.329A2.887,2.887,0,0,1,86.478,233.448Z" fill="#46bc5d"/>
      <path d="M62.571,265.492a1.747,1.747,0,0,1-.228-.016c-1.426-.2-1.764-2.177-1.833-5.077-.071-2.948-.116-6.439.084-9.978a33.4,33.4,0,0,1,.744-5.488,18.8,18.8,0,0,1,5.377-10,20.572,20.572,0,0,1,9.671-4.921,20.359,20.359,0,0,1,5.458-.406c.178.011.373.018.579.026,1.485.055,3.73.139,4.67,1.8a3.761,3.761,0,0,1,.375,2.054,18.562,18.562,0,0,1-.623,4.163,19.122,19.122,0,0,1-2.532,5.629,28.563,28.563,0,0,1-7.665,7.533c-1.321.925-2.781,1.846-4.595,2.9-.752.436-1.537.882-2.333,1.325-.134.075-.33.163-.6.284a12.746,12.746,0,0,0-1.214.6c-.206.634-.846,2.557-1.633,4.49C64.6,264.505,63.558,265.492,62.571,265.492Zm18.044-33.946a18.825,18.825,0,0,0-12.562,4.845,16.88,16.88,0,0,0-4.781,8.981,31.4,31.4,0,0,0-.7,5.161c-.2,3.468-.15,6.909-.08,9.818a15.107,15.107,0,0,0,.251,2.761,39.379,39.379,0,0,0,3.34-8.011c.2-.628.831-.967,2.224-1.591.172-.077.386-.174.445-.207.789-.438,1.564-.878,2.305-1.308,1.764-1.024,3.179-1.917,4.453-2.808a26.653,26.653,0,0,0,7.148-7,17.176,17.176,0,0,0,2.271-5.048,16.693,16.693,0,0,0,.557-3.723v0a2.124,2.124,0,0,0-.122-1.008c-.394-.7-1.972-.756-3.017-.795-.223-.008-.435-.016-.627-.028Q81.169,231.545,80.615,231.546Z" fill="#303030"/>
      <g>
        <g>
          <path d="M102.6,273.966a29.763,29.763,0,0,1-.9,7,30.348,30.348,0,0,1-7.919,14.042,102.891,102.891,0,0,1-9.058,8.041C71.967,313.1,60.989,316.906,60.989,316.906c-.34-.122-3.265-1.247-3.453-1.321-8.726-3.513-17.216-8.17-23.975-14.727-.068-.066-.461-.436-.59-.562-.186-.179-1.026-1.017-1.224-1.22-.266-.273-.528-.545-.784-.823,0,0-.458-.5-.553-.6a38.508,38.508,0,0,1-8.732-15.333,29.437,29.437,0,0,1-1.069-7.628c0-.3,0-.614.01-.924,0-.047,0-.094,0-.141.013-.377.03-.754.058-1.133.017-.229.065-.759.069-.8.018-.171.034-.339.054-.511.01-.1.023-.2.037-.3s.027-.211.043-.318.026-.2.042-.3c.028-.178.052-.355.084-.533.047-.3.1-.593.159-.888.039-.2.079-.4.124-.6a.167.167,0,0,1,.01-.04c.037-.178.079-.359.121-.537.022-.1.047-.2.074-.3q.027-.123.06-.246l.1-.394c.134-.5.292-.991.446-1.487.042-.136.087-.27.134-.4.017-.055.035-.112.057-.166.052-.156.107-.31.166-.466s.122-.332.186-.5c.05-.131.1-.263.154-.394l0,0,.015-.044q.375-.93.813-1.832c.112-.231.226-.461.342-.687.1-.186.315-.6.327-.617.112-.2.226-.406.345-.61a.5.5,0,0,1,.037-.067c.1-.178.345-.577.357-.6.119-.2.243-.392.369-.585s.263-.4.4-.6c.1-.151.434-.615.5-.7.092-.127.184-.251.278-.375.059-.077.411-.53.53-.679s.26-.315.394-.471.285-.332.429-.493c.082-.089.434-.471.531-.573.071-.077.143-.151.218-.225.054-.057.3-.308.372-.375.176-.176.354-.344.535-.51.159-.149.317-.293.481-.434.178-.159.362-.315.545-.467.124-.1.627-.5.754-.6s.644-.478.776-.57.262-.183.4-.275l.018-.012c.126-.085.651-.427.785-.514.273-.168.548-.334.823-.5.139-.08.28-.159.419-.236.28-.156.563-.307.848-.448s.572-.286.865-.419c.146-.067.29-.134.436-.2l.432-.186.009,0c.273-.114.548-.226.826-.33.354-.136.709-.262,1.068-.381.248-.085.5-.164.749-.241.022-.005.044-.013.067-.02.234-.073.473-.136.711-.2.132-.034.26-.069.392-.1.161-.042.32-.079.478-.117.1-.022.57-.126.7-.153a.412.412,0,0,1,.047-.013c.231-.043.463-.091.7-.131.161-.03.325-.057.486-.082.132-.022.266-.04.4-.059.1-.016.208-.033.312-.045.161-.022.323-.042.484-.059.139-.015.28-.03.418-.043.119-.012.236-.024.355-.032.176-.015.354-.03.53-.04.2-.012.4-.022.6-.029s.379-.015.567-.018a34.167,34.167,0,0,1,3.731.137c.146.012,1.2.121,1.348.139.266.032,1.48.193,1.745.233.5.074.989.153,1.483.237.768.134,4.9.913,5.1.952a.357.357,0,0,0,.057.01c.221.042.742.144.813.156a.054.054,0,0,0,.02,0c.045.01.09.017.132.025l.285.054.226-.091c1.143-.449,6.34-2.43,9.756-2.633a31.3,31.3,0,0,1,10.81,1.326,30.409,30.409,0,0,1,8.589,4.107,27.382,27.382,0,0,1,11.149,18.68A28.493,28.493,0,0,1,102.6,273.966Z" fill="#eb937c"/>
          <path d="M52.82,255.649c-13.145-2.081-24.843,5.4-30.908,16.536-.2.375-1.3,1.806-1.26,2.169a10.392,10.392,0,0,1,.03-1.865c.542-7.569,4.043-15.237,9.939-20.109A26.722,26.722,0,0,1,44.6,246.492c5.781-.656,11.535.738,17.185,1.784l.226-.091a30.918,30.918,0,0,1,11.458,12.456c3.006,5.805,4.535,11.724,2.849,18.04C76.315,278.681,72.251,258.726,52.82,255.649Z" fill="#efa694"/>
          <path d="M56.229,252.515c3.968-3.278,8.69-5.975,13.8-6.554a33.893,33.893,0,0,1,17.365,2.45c6.95,3.154,9.706,8.308,12.168,11.776,3.785,5.331,4.008,16.139,2.322,22.456,0,0-1.414-24.952-24.813-27.766a31.772,31.772,0,0,0-8.027-.1Z" fill="#efa694"/>
        </g>
        <path d="M84.715,303.054C71.967,313.1,60.989,316.906,60.989,316.906c-.34-.122-3.265-1.247-3.453-1.321-8.726-3.513-17.216-8.17-23.975-14.727-.068-.066-.461-.436-.59-.562-.186-.179-1.026-1.017-1.224-1.22-.266-.273-.528-.545-.784-.823-.089-.1-.458-.5-.553-.6a38.508,38.508,0,0,1-8.732-15.333c3.715,5.445,7.55,10.983,12.874,14.867C41.1,301.956,49,306.944,57.07,307.66,66.187,308.471,75.412,306.421,84.715,303.054Z" fill="#de896e"/>
      </g>
      <path d="M75.759,279.338c.545-8.105-1.627-17.667-6.565-23.629a29.186,29.186,0,0,0-7.734-6.57s-6.177-1.149-6.346-1.187a33.048,33.048,0,0,0-7.953-.716,30.137,30.137,0,0,0-4.756.522l-.057.013a24.805,24.805,0,0,0-11.295,5.285A25.417,25.417,0,0,0,23.671,263.6l0,.009-.018.047a33.151,33.151,0,0,0-2.117,10.011c-.011.228-.018.432-.022.61-.171,7.765,3.14,15.639,9.575,22.766l.015.017c.083.1.169.191.257.283l.025.027c.058.066.119.131.18.2,0,0,.575.61.835.877.2.2,1.022,1.022,1.2,1.2.125.121.553.527.591.564a77.269,77.269,0,0,0,23.683,14.538s3.087,1.19,3.421,1.311a.907.907,0,0,1-.619,1.706c-.342-.124-3.477-1.333-3.477-1.333-9.742-3.941-17.9-8.956-24.26-14.908,0,0-1.2-1.155-1.221-1.179-.219-.217-.423-.424-.625-.633-.269-.275-1.268-1.345-1.366-1.458-6.746-7.475-10.215-15.779-10.034-24.016,0-.192.012-.41.024-.654a34.991,34.991,0,0,1,2.24-10.585l.022-.058a27.208,27.208,0,0,1,7.91-11.273A26.578,26.578,0,0,1,41.97,246c.03-.008.06-.015.09-.02a31.872,31.872,0,0,1,5.043-.554,34.941,34.941,0,0,1,8.4.757c.161.036,6.445,1.2,6.445,1.2a.9.9,0,0,1,.288.107,31.009,31.009,0,0,1,8.355,7.06c5.236,6.322,7.554,16.338,6.978,24.909Zm-33.4-31.573-.01,0Zm0,0Z" fill="#303030"/>
      <path d="M60.987,317.814a.914.914,0,0,1-.309-.054c-.342-.124-3.477-1.333-3.477-1.333-9.758-3.927-17.919-8.942-24.26-14.908,0,0-.172-.161-.207-.195q-.2-.187-.4-.387c-.171-.163-1.034-1.021-1.236-1.23-.269-.275-.537-.555-.8-.837l-.259-.282c-.109-.114-.215-.23-.316-.349-6.5-7.228-9.97-15.377-10.019-23.547,0-.38,0-.752.017-1.1.012-.4.031-.793.058-1.165a31.352,31.352,0,0,1,2.185-9.438c.008-.02.015-.039.023-.058a28.27,28.27,0,0,1,8.059-11.247A27.5,27.5,0,0,1,41.964,246c.03-.008.06-.015.09-.02.82-.166,1.642-.3,2.441-.386.831-.1,1.689-.152,2.62-.169a44.244,44.244,0,0,1,8.347.749c1.269.215,6.228,1.164,6.228,1.164,1.5-.59,6.549-2.483,10.021-2.688a32.68,32.68,0,0,1,19.971,5.593,28.294,28.294,0,0,1,11.528,19.3,29.531,29.531,0,0,1,.292,4.435,31.291,31.291,0,0,1-9.089,21.682c-16.07,16.07-32.959,22.051-33.128,22.109A.892.892,0,0,1,60.987,317.814Zm-37.342-54.15a28.982,28.982,0,0,0-2.058,8.889c-.025.347-.043.716-.054,1.1-.013.332-.018.677-.016,1.031.059,9.752,5.235,17.542,9.568,22.361.1.113.184.208.272.3.006.006.184.2.27.293.252.272.51.541.77.808.2.2,1.019,1.021,1.2,1.194.133.133.25.246.37.355l.019.018c.03.03.168.158.206.195,6.167,5.8,14.139,10.7,23.683,14.538,0,0,2.879,1.113,3.11,1.2A97.707,97.707,0,0,0,93.13,294.371a29.464,29.464,0,0,0,8.557-20.414,27.634,27.634,0,0,0-.274-4.163,26.471,26.471,0,0,0-10.77-18.065,30.783,30.783,0,0,0-18.825-5.27c-3.3.195-8.474,2.175-9.477,2.57l-.222.089a.917.917,0,0,1-.505.05s-5.2-1-6.455-1.207a42.452,42.452,0,0,0-8.01-.725c-.872.017-1.673.068-2.447.158-.752.085-1.525.208-2.3.364l-.047.011a25.691,25.691,0,0,0-11.158,5.31,26.453,26.453,0,0,0-7.533,10.529C23.66,263.627,23.653,263.646,23.645,263.664Zm18.718-15.9-.01,0Zm0,0Z" fill="#303030"/>
    </g>
    <g>
      <path d="M78.123,382.691c-3.132,2.55-7.171,5.862-11.61,9.437-2.07,1.671-4.228,3.4-6.422,5.129-7.962,6.3-16.346,12.648-22.572,16.557-3.865,2.426-7.984-.545-7.308-5.057.276-1.831.733-4.025,1.329-6.466v-.007c.6-2.484,1.344-5.223,2.165-8.071,3.371-11.682,8.071-25.188,10.062-30.782.6-1.671.944-2.637.944-2.637a12.773,12.773,0,0,1,2.579-4.489c4.672-5.362,13.557-7.512,19.761-4.105a1.286,1.286,0,0,1,.167.094c.283.16.567.327.835.516l2.558,1.439.552.312,5.957,3.349C84.8,363.163,85.329,376.806,78.123,382.691Z" fill="#f29049"/>
      <path d="M61.849,369.485a3.957,3.957,0,0,1-3.248,1.693,3.907,3.907,0,0,1-2.23-.7l-11.435-7.912c.6-1.671.944-2.637.944-2.637a12.786,12.786,0,0,1,2.579-4.49l12.387,8.566A3.954,3.954,0,0,1,61.849,369.485Z" fill="#be681c"/>
      <path d="M67.682,391.266c-2.07,1.671-4.228,3.4-6.422,5.129l-10.8-7.469a3.937,3.937,0,0,1,4.483-6.473Z" fill="#be681c"/>
      <path d="M39.712,401.487a3.954,3.954,0,0,1-3.247,1.693,3.907,3.907,0,0,1-2.23-.7l-1.526-1.054v-.007c.6-2.485,1.344-5.223,2.165-8.071l3.843,2.659A3.945,3.945,0,0,1,39.712,401.487Z" fill="#be681c"/>
      <g>
        <path d="M67.164,351q-2.3-3.807-4.728-7.53c-2.27-3.463-5.758-6.626-6.873-10.707-.7-2.559-.129-5.9,2.493-7.168a6.144,6.144,0,0,1,4.68.023C72.128,328.982,71.457,343.991,67.164,351Z" fill="#60b463"/>
        <path d="M67.156,353.538l-1.122-1.859c-1.581-2.621-3.163-5.14-4.7-7.489-.694-1.059-1.507-2.089-2.368-3.178-1.89-2.395-3.845-4.87-4.674-7.9-.86-3.148-.039-7.147,3.2-8.707a7.392,7.392,0,0,1,5.7-.028,11.924,11.924,0,0,1,7.2,7.676c2.355,6.691.677,15.111-2.1,19.638Zm-6.98-27.082a3.566,3.566,0,0,0-1.546.324c-1.912.922-2.352,3.591-1.794,5.632.688,2.513,2.474,4.775,4.2,6.963.858,1.085,1.744,2.21,2.5,3.367,1.157,1.763,2.337,3.624,3.522,5.548,1.8-4.255,2.546-10.5.834-15.364a9.253,9.253,0,0,0-5.605-6.067A6.442,6.442,0,0,0,60.176,326.456Z" fill="#333"/>
      </g>
      <g>
        <path d="M70.181,354.053c1.253-.25,2.014-11.721,2.187-13.089.62-4.888,1.178-9.818,1.429-14.741.219-4.292,1.877-6.992,5.808-8.844,5.063-2.386,10.719,1.013,12.837,5.86,2.915,6.668-1.9,13.8-5.936,18.863C82.442,347.2,76.821,352.726,70.181,354.053Z" fill="#60b463"/>
        <path d="M70.439,355.349l-.517-2.591a.928.928,0,0,0-.575.339c.473-.75,1-4.372,1.566-10.766.065-.744.114-1.291.145-1.533.557-4.389,1.16-9.561,1.42-14.643.249-4.872,2.273-7.947,6.563-9.971a9.577,9.577,0,0,1,7.592-.244,12.784,12.784,0,0,1,7.02,6.769c3.139,7.185-1.619,14.577-6.115,20.215-5.662,7.1-11.41,11.284-17.086,12.423Zm12.626-37.431a6.73,6.73,0,0,0-2.9.655c-3.39,1.6-4.854,3.834-5.052,7.717-.263,5.17-.874,10.4-1.437,14.841-.028.226-.073.738-.134,1.432a95.2,95.2,0,0,1-1.152,9.481c4.279-1.619,8.668-5.23,13.081-10.766,4.034-5.059,8.334-11.62,5.759-17.51a10.081,10.081,0,0,0-5.529-5.354A7.5,7.5,0,0,0,83.065,317.918Z" fill="#333"/>
      </g>
      <g>
        <path d="M75.555,356.708c.927.589,4.9-2.3,5.835-2.788,3.34-1.764,6.263-4,9.451-5.972,2.605-1.61,6.05-2.213,8.156.5a5.7,5.7,0,0,1,.8,4.877C97.216,363.338,82.013,360.919,75.555,356.708Z" fill="#60b463"/>
        <path d="M88.635,361.665a27.079,27.079,0,0,1-13.8-3.85l1.429-2.222a.614.614,0,0,0-.389-.127c.674-.046,2.923-1.48,3.769-2.022.5-.315.9-.569,1.13-.692a65.166,65.166,0,0,0,5.867-3.64c1.155-.774,2.313-1.55,3.507-2.288,3.8-2.35,7.689-2.027,9.894.818a7.011,7.011,0,0,1,1.033,6.015,9.928,9.928,0,0,1-6.294,6.981A17.112,17.112,0,0,1,88.635,361.665Zm-9.728-4.673c4.5,1.94,10.719,2.815,14.917,1.184A7.29,7.29,0,0,0,98.517,353a4.37,4.37,0,0,0-.564-3.739c-2.021-2.605-5.424-.8-6.417-.189-1.167.722-2.3,1.48-3.426,2.236a68.378,68.378,0,0,1-6.1,3.783c-.193.1-.528.317-.943.583C80.281,356.172,79.563,356.621,78.907,356.992Z" fill="#333"/>
      </g>
      <path d="M34.681,416.006a5.646,5.646,0,0,1-3.121-.932,6.469,6.469,0,0,1-2.655-6.513c.267-1.777.711-3.944,1.317-6.437l.035-.151c.578-2.379,1.311-5.115,2.18-8.126,3.557-12.329,8.619-26.736,10.087-30.858l.946-2.643a14.005,14.005,0,0,1,2.826-4.91c5.245-6.021,14.844-7.991,21.39-4.392l.294.171a8.9,8.9,0,0,1,.831.513l8.956,5.031c4.031,2.752,6.519,7.664,6.754,13.2.236,5.574-1.844,10.714-5.564,13.752h0l-2.263,1.847c-2.721,2.221-5.917,4.83-9.352,7.6-2.072,1.672-4.234,3.4-6.432,5.138a279.9,279.9,0,0,1-22.687,16.638A6.677,6.677,0,0,1,34.681,416.006ZM32.86,402.443l-.037.163c-.6,2.479-1.045,4.614-1.307,6.348a3.867,3.867,0,0,0,1.489,3.91,3.43,3.43,0,0,0,3.812-.169c5.246-3.293,12.8-8.836,22.455-16.473,2.192-1.728,4.345-3.452,6.411-5.123,3.432-2.761,6.623-5.366,9.341-7.584l2.264-1.849c3.078-2.513,4.8-6.846,4.595-11.593-.2-4.71-2.259-8.85-5.509-11.074l-8.968-5.039c-.346-.234-.594-.379-.841-.518-5.578-3.069-13.881-1.317-18.278,3.73a11.461,11.461,0,0,0-2.319,4.027l-.957,2.674c-1.46,4.105-6.5,18.45-10.037,30.706C34.135,397.491,33.424,400.136,32.86,402.443Z" fill="#333"/>
    </g>
    <g>
      <path d="M117.287,471.235a15.7,15.7,0,0,1-.4,2.442,285.222,285.222,0,0,1-52.224,4.676c-31.164,0-53-4.7-53.31-4.759l-3.006-.731c-.063-.459-.125-.939-.146-1.4-.438-7.618,5.636-14.757,10.791-19.37a47.562,47.562,0,0,1,11.981-7.556,20.792,20.792,0,0,0-.939,14.444,4.59,4.59,0,0,0,2.3,2.589,4.7,4.7,0,0,0,2.067.48,4.54,4.54,0,0,0,1.5-.251,4.6,4.6,0,0,0,2.839-5.886c-2.275-6.93,1.086-13.5,1.879-14.945A79.785,79.785,0,0,1,52.58,438.4c-1.252,2.671-3.194,8.6-1.628,17.47a5.275,5.275,0,0,0,5.176,4.384,3.522,3.522,0,0,0,.46-.021,5.131,5.131,0,0,0,3.632-2,5.2,5.2,0,0,0,1.043-4.05c-1.482-9.267,1.148-14.986,2.046-16.573.25-.021.48-.021.73-.021A73.261,73.261,0,0,1,78.15,438.9c-.209.272-.4.543-.585.835A19.3,19.3,0,0,0,75.54,456.06c.46,1.461,1.8,5.636,5.156,5.636a4.008,4.008,0,0,0,1.086-.146,4.189,4.189,0,0,0,2.963-2.755,7.6,7.6,0,0,0-.146-3.82,12,12,0,0,1-.25-1.461,18.867,18.867,0,0,1,.209-4.592,16.165,16.165,0,0,1,3.4-7.369,55.889,55.889,0,0,1,16.573,9.268C113.4,458.085,117.7,464.973,117.287,471.235Z" fill="#fabb48"/>
      <path d="M116.89,473.677c-1.44,5.26-6.116,9.122-10.061,11.564A19.039,19.039,0,0,1,96.852,488H26.635a15.857,15.857,0,0,1-9.164-2.818q-7.983-5.6-9.121-12.315l3.006.731c.313.062,22.146,4.759,53.31,4.759A285.222,285.222,0,0,0,116.89,473.677Z" fill="#f6a42c"/>
      <path d="M84.6,454.975a7.6,7.6,0,0,1,.146,3.82,4.189,4.189,0,0,1-2.963,2.755,4.008,4.008,0,0,1-1.086.146c-3.36,0-4.7-4.175-5.156-5.636a19.3,19.3,0,0,1,2.025-16.323c.188-.292.376-.563.585-.835.709.126,1.44.293,2.149.439-.334.417-.667.9-1.064,1.482a17.5,17.5,0,0,0-1.816,14.632c1.357,4.175,2.776,4.425,3.9,4.154a2.1,2.1,0,0,0,1.5-1.42,6.216,6.216,0,0,0-.167-2.8,16.033,16.033,0,0,1-.292-1.691,20.2,20.2,0,0,1,.229-5.134,17.746,17.746,0,0,1,3.361-7.681c.647.187,1.336.438,2,.667a16.165,16.165,0,0,0-3.4,7.369,18.867,18.867,0,0,0-.209,4.592A12,12,0,0,0,84.6,454.975Z" fill="#3d0f1c"/>
      <path d="M82.658,455.392a6.216,6.216,0,0,1,.167,2.8,2.1,2.1,0,0,1-1.5,1.42c-1.127.271-2.546.021-3.9-4.154a17.5,17.5,0,0,1,1.816-14.632c.4-.585.73-1.065,1.064-1.482,1.9.417,3.8.939,5.657,1.545a17.746,17.746,0,0,0-3.361,7.681,20.2,20.2,0,0,0-.229,5.134A16.033,16.033,0,0,0,82.658,455.392Z" fill="#f6a42c"/>
      <path d="M61.263,454.181a5.2,5.2,0,0,1-1.043,4.05,5.131,5.131,0,0,1-3.632,2,3.522,3.522,0,0,1-.46.021,5.275,5.275,0,0,1-5.176-4.384c-1.566-8.871.376-14.8,1.628-17.47.814-.126,1.607-.23,2.421-.314-.6,1.023-3.9,7.076-2.087,17.451a3.261,3.261,0,0,0,3.486,2.692,3.123,3.123,0,0,0,2.233-1.211,3.162,3.162,0,0,0,.647-2.525c-1.357-8.517.522-14.215,1.733-16.824.751-.063,1.544-.063,2.3-.063C62.411,439.2,59.781,444.914,61.263,454.181Z" fill="#3d0f1c"/>
      <path d="M59.28,454.5a3.162,3.162,0,0,1-.647,2.525,3.123,3.123,0,0,1-2.233,1.211,3.261,3.261,0,0,1-3.486-2.692C51.1,445.164,54.4,439.111,55,438.088c1.983-.229,3.987-.354,6.012-.417C59.8,440.28,57.923,445.978,59.28,454.5Z" fill="#f6a42c"/>
      <path d="M38.741,455.914A4.6,4.6,0,0,1,35.9,461.8a4.54,4.54,0,0,1-1.5.251,4.7,4.7,0,0,1-2.067-.48,4.59,4.59,0,0,1-2.3-2.589,20.792,20.792,0,0,1,.939-14.444c.9-.417,1.816-.814,2.777-1.19-.856,1.545-4.113,8.12-1.816,14.987a2.611,2.611,0,0,0,1.273,1.441,2.786,2.786,0,0,0,2.045.146,2.639,2.639,0,0,0,1.608-3.361,20.685,20.685,0,0,1,1.127-14.778c.856-.271,1.732-.564,2.63-.814C39.827,442.409,36.466,448.984,38.741,455.914Z" fill="#3d0f1c"/>
      <path d="M36.863,456.561a2.639,2.639,0,0,1-1.608,3.361,2.786,2.786,0,0,1-2.045-.146,2.611,2.611,0,0,1-1.273-1.441c-2.3-6.867.96-13.442,1.816-14.987,1.356-.563,2.776-1.085,4.237-1.565A20.685,20.685,0,0,0,36.863,456.561Z" fill="#f6a42c"/>
      <path d="M105.786,449.3A59.726,59.726,0,0,0,79.444,437.17a83.694,83.694,0,0,0-47.173,4.655,52.1,52.1,0,0,0-14.612,8.787C12.17,455.518,5.7,463.157,6.2,471.59c.334,5.615,3.736,10.749,10.123,15.2A17.654,17.654,0,0,0,26.635,490H96.852a21.073,21.073,0,0,0,11.021-3.069c4.926-3.047,10.916-8.182,11.4-15.55C119.75,464.43,115.2,457,105.786,449.3ZM19,452.094a47.562,47.562,0,0,1,11.981-7.556c.9-.417,1.816-.814,2.777-1.19,1.356-.563,2.776-1.085,4.237-1.565.856-.271,1.732-.564,2.63-.814A79.785,79.785,0,0,1,52.58,438.4c.814-.126,1.607-.23,2.421-.314,1.983-.229,3.987-.354,6.012-.417.751-.063,1.544-.063,2.3-.063.25-.021.48-.021.73-.021A73.261,73.261,0,0,1,78.15,438.9c.709.126,1.44.293,2.149.439,1.9.417,3.8.939,5.657,1.545.647.187,1.336.438,2,.667a55.889,55.889,0,0,1,16.573,9.268c8.871,7.264,13.171,14.152,12.754,20.414a15.7,15.7,0,0,1-.4,2.442c-1.44,5.26-6.116,9.122-10.061,11.564A19.039,19.039,0,0,1,96.852,488H26.635a15.857,15.857,0,0,1-9.164-2.818q-7.983-5.6-9.121-12.315c-.063-.459-.125-.939-.146-1.4C7.766,463.846,13.84,456.707,19,452.094Z" fill="#333"/>
    </g>
  </g>
  <g>
    <rect x="258.445" y="-176.147" width="70.839" height="855.482" transform="translate(-65.508 394.796) rotate(-62.295)" fill="#802509"/>
    <rect x="-136.12" y="202.631" width="855.482" height="70.839" transform="translate(144.108 -108.289) rotate(27.705)" fill="#af5438"/>
    <g>
      <path d="M39.335,121.562A16.086,16.086,0,1,1,61.771,101.4a2.778,2.778,0,0,1-3.876,3.482,2.783,2.783,0,0,1-1.292-1.439,10.529,10.529,0,1,0-7.484,14.15,2.779,2.779,0,0,1,1.221,5.423A16.1,16.1,0,0,1,39.335,121.562Z" fill="#e8e8e8"/>
      <path d="M78.717,128.73a11.992,11.992,0,1,1-5.042-16.194A12.007,12.007,0,0,1,78.717,128.73ZM73.8,126.146a6.435,6.435,0,1,0-8.689,2.706A6.442,6.442,0,0,0,73.8,126.146Z" fill="#e8e8e8"/>
      <path d="M111.627,146.01l-4.279,8.149a2.779,2.779,0,0,1-4.921-2.584l3.985-7.59.282-.555c2.017-3.841,1.736-6.366-.856-7.726-1.728-.907-3.671-1.125-6.167,3.393l-4.54,8.647a2.779,2.779,0,0,1-4.921-2.584l4.279-8.149c2.013-3.833,1.732-6.357-.859-7.718-2.069-1.086-3.955-.841-6.438,3.887l-4.279,8.149a2.779,2.779,0,1,1-4.921-2.584l8.577-16.333a2.779,2.779,0,0,1,5.2.807,9.3,9.3,0,0,1,4.448,1.153,9.072,9.072,0,0,1,4.611,5.163q.115.342.206.7a7.769,7.769,0,0,1,1.113-.364,8.648,8.648,0,0,1,6.279.912,9.076,9.076,0,0,1,4.616,5.171C114.02,138.836,113.518,142.406,111.627,146.01Z" fill="#e8e8e8"/>
      <path d="M124.742,142.491l-8.568,16.317a2.779,2.779,0,1,1-4.921-2.585l8.567-16.316a2.782,2.782,0,0,1,3.548-1.262,4.023,4.023,0,0,1-1.215-1.726,3.356,3.356,0,0,1,.222-3.542,2.753,2.753,0,0,1,1.485-.961,1.47,1.47,0,0,1,.565-.679,1.528,1.528,0,0,1,1.47-.073c.053.024.1.046.143.069a2.131,2.131,0,0,1,.213.126,1.61,1.61,0,0,1,1.306.079,1.573,1.573,0,0,1,.826,1.236,2.008,2.008,0,0,1-.16,1.039,2.845,2.845,0,0,1,.468,2.335,3.2,3.2,0,0,1-2.342,2.3,3.626,3.626,0,0,1-2.488.063A2.781,2.781,0,0,1,124.742,142.491Z" fill="#e8e8e8"/>
      <path d="M144.39,163.2l-4.28,8.149a2.779,2.779,0,0,1-4.921-2.584l4.28-8.15c1.489-2.835,1.5-6.477-1.826-8.225-2.968-1.559-6.5-.3-8.2,2.935l-4.3,8.182a2.779,2.779,0,0,1-4.921-2.584l8.577-16.334a2.779,2.779,0,0,1,5.223,1.6,11.205,11.205,0,0,1,6.2,1.283C145.87,150.431,147.62,157.046,144.39,163.2Z" fill="#e8e8e8"/>
      <path d="M168.612,176.624h-.006l-4.316,8.221c-2.894,5.511-10.013,7.5-15.868,4.422a12.062,12.062,0,0,1-6.586-10.964v-.033a2.706,2.706,0,0,1,.063-.773l.037-.164.02-.037a2.794,2.794,0,0,1,5.461.9c0,.018,0,.072,0,.128a6.583,6.583,0,0,0,3.636,5.944c3.064,1.608,6.691.791,8.211-1.809a11.986,11.986,0,0,1-12.318-8.036,11.783,11.783,0,0,1-.665-3.76,12,12,0,1,1,22.617,5.417Zm-4.641-3.127a6.436,6.436,0,1,0-12.062-3.951,6.364,6.364,0,0,0,.151,2.621,6.417,6.417,0,0,0,8.371,4.4,6.366,6.366,0,0,0,2.245-1.365A6.473,6.473,0,0,0,163.971,173.5Z" fill="#e8e8e8"/>
      <path d="M186.419,198.832a10.317,10.317,0,0,1-1.432-.909,10.191,10.191,0,0,1-3.962-7.108,5.091,5.091,0,0,1,.568-3.553,2.817,2.817,0,0,1,3.521-.8,2.944,2.944,0,0,1,1.455,3.125,4.437,4.437,0,0,0,.23,1.719,4.6,4.6,0,0,0,8.452.662,4.5,4.5,0,0,0,.494-1.589c.013-.105.021-.19.025-.278a5.262,5.262,0,0,0-2.586-4.51,8.4,8.4,0,0,1-3.1-4.276,8.664,8.664,0,0,1-.434-3.285c.014-.21.033-.418.065-.63a8.591,8.591,0,0,1,.9-2.862l.055-.1a8.791,8.791,0,0,1,11.742-3.669l.1.053a8.761,8.761,0,0,1,4.64,8.209,3.066,3.066,0,0,1-.97,2.269,2.842,2.842,0,0,1-2.458.63,2.779,2.779,0,0,1-1.954-1.654,3.549,3.549,0,0,1-.216-1.516,3.289,3.289,0,0,0-1.641-3.024l-.08-.041a3.213,3.213,0,0,0-4.252,1.341l-.042.079a3.193,3.193,0,0,0-.312,1c-.011.085-.019.162-.024.24a3.289,3.289,0,0,0,1.209,2.741q.243.146.473.3l.092.049.061.057c.024.017.047.034.068.051a9.995,9.995,0,0,1,3.24,3.874l.033.059.012.036a10.23,10.23,0,0,1,.931,4.893c-.01.2-.028.415-.053.624a10.079,10.079,0,0,1-1.094,3.513A10.2,10.2,0,0,1,186.419,198.832Z" fill="#e8e8e8"/>
      <path d="M225.064,205.58a11.993,11.993,0,1,1-5.043-16.193A12.006,12.006,0,0,1,225.064,205.58ZM220.143,203a6.434,6.434,0,1,0-8.689,2.7A6.441,6.441,0,0,0,220.143,203Z" fill="#e8e8e8"/>
      <path d="M248.879,218.087a11.992,11.992,0,1,1-5.042-16.194A12.007,12.007,0,0,1,248.879,218.087Zm-4.92-2.584a6.435,6.435,0,1,0-8.689,2.7A6.444,6.444,0,0,0,243.959,215.5Z" fill="#e8e8e8"/>
      <path d="M272.322,230.379l-4.28,8.148a2.779,2.779,0,1,1-4.921-2.584L267.4,227.8c1.49-2.836,1.5-6.479-1.825-8.227-2.969-1.558-6.494-.3-8.2,2.936l-4.3,8.182a2.78,2.78,0,0,1-4.922-2.584l8.577-16.334a2.781,2.781,0,0,1,5.225,1.6,11.212,11.212,0,0,1,6.2,1.283C273.8,217.611,275.552,224.226,272.322,230.379Z" fill="#e8e8e8"/>
      <path d="M278.266,245a4.314,4.314,0,0,1-4.4,1.55l-.441-.063-.3-.325c-1.813-1.932-1.7-3.884-1.061-4.966a2.767,2.767,0,0,1,1.717-1.287,1.52,1.52,0,0,1,.425-.572,1.542,1.542,0,0,1,1.731-.137,2.372,2.372,0,0,1,.261.162,1.569,1.569,0,0,1,2.143,1.584,2.188,2.188,0,0,1-.176.77c.045.06.088.122.129.185A2.855,2.855,0,0,1,278.266,245ZM276.4,234.76l10.079-19.193a2.779,2.779,0,0,1,4.921,2.584l-10.079,19.194a2.779,2.779,0,0,1-4.921-2.585Z" fill="#e8e8e8"/>
    </g>
    <g>
      <path d="M340,281.881a16.087,16.087,0,1,1,22.437-20.162,2.779,2.779,0,0,1-5.169,2.043,10.529,10.529,0,1,0-7.484,14.149A2.779,2.779,0,0,1,351,283.334,16.1,16.1,0,0,1,340,281.881Z" fill="#e8e8e8"/>
      <path d="M379.381,289.049a11.993,11.993,0,1,1-5.043-16.195A12.009,12.009,0,0,1,379.381,289.049Zm-4.922-2.584a6.435,6.435,0,1,0-8.688,2.705A6.443,6.443,0,0,0,374.459,286.465Z" fill="#e8e8e8"/>
      <path d="M412.29,306.328l-4.279,8.15a2.779,2.779,0,0,1-4.921-2.584l3.985-7.59.282-.556c2.017-3.841,1.736-6.365-.855-7.726-1.729-.907-3.672-1.125-6.168,3.393l-4.54,8.647a2.779,2.779,0,0,1-4.921-2.583l4.279-8.15c2.013-3.833,1.732-6.356-.859-7.718-2.068-1.086-3.955-.84-6.438,3.887l-4.279,8.149a2.779,2.779,0,1,1-4.921-2.584l8.577-16.333a2.779,2.779,0,0,1,5.2.807,9.306,9.306,0,0,1,4.448,1.153,9.07,9.07,0,0,1,4.611,5.164c.077.227.146.46.2.7a7.744,7.744,0,0,1,1.114-.365,8.644,8.644,0,0,1,6.279.913,9.074,9.074,0,0,1,4.616,5.17C414.683,299.154,414.181,302.725,412.29,306.328Z" fill="#e8e8e8"/>
      <path d="M425.405,302.81l-8.568,16.316a2.779,2.779,0,0,1-4.921-2.585l8.567-16.315a2.782,2.782,0,0,1,3.548-1.263,4.031,4.031,0,0,1-1.215-1.726,3.358,3.358,0,0,1,.222-3.542,2.767,2.767,0,0,1,1.485-.961,1.466,1.466,0,0,1,.565-.678,1.527,1.527,0,0,1,1.471-.074c.052.025.1.046.142.07a2.131,2.131,0,0,1,.213.126,1.61,1.61,0,0,1,1.306.078,1.573,1.573,0,0,1,.826,1.236,2.007,2.007,0,0,1-.16,1.039,2.845,2.845,0,0,1,.468,2.335,3.192,3.192,0,0,1-2.342,2.3,3.629,3.629,0,0,1-2.489.063A2.781,2.781,0,0,1,425.405,302.81Z" fill="#e8e8e8"/>
      <path d="M445.053,323.518l-4.28,8.148a2.779,2.779,0,1,1-4.92-2.584l4.279-8.149c1.489-2.835,1.5-6.478-1.825-8.226-2.969-1.559-6.5-.3-8.2,2.936l-4.3,8.181a2.779,2.779,0,0,1-4.921-2.584l8.577-16.334a2.78,2.78,0,0,1,5.224,1.6,11.212,11.212,0,0,1,6.2,1.283C446.533,310.749,448.283,317.364,445.053,323.518Z" fill="#e8e8e8"/>
      <path d="M469.275,336.942h0l-4.317,8.221c-2.894,5.512-10.014,7.5-15.867,4.422a12.062,12.062,0,0,1-6.587-10.964v-.032a2.71,2.71,0,0,1,.063-.774l.037-.164.019-.037a2.794,2.794,0,0,1,5.461.9,1.272,1.272,0,0,1,0,.128,6.579,6.579,0,0,0,3.636,5.943c3.064,1.608,6.691.791,8.211-1.809a11.986,11.986,0,0,1-12.318-8.036,11.811,11.811,0,0,1-.665-3.76,12,12,0,1,1,22.617,5.417Zm-4.641-3.127a6.436,6.436,0,1,0-12.062-3.951,6.347,6.347,0,0,0,.151,2.621,6.432,6.432,0,0,0,11.911,1.33Z" fill="#e8e8e8"/>
      <path d="M487.082,359.15a10.169,10.169,0,0,1-5.394-8.016,5.093,5.093,0,0,1,.568-3.554,2.817,2.817,0,0,1,3.521-.8,2.944,2.944,0,0,1,1.455,3.125,4.438,4.438,0,0,0,.231,1.719,4.6,4.6,0,0,0,8.451.662,4.5,4.5,0,0,0,.494-1.589c.013-.1.021-.19.025-.278a5.263,5.263,0,0,0-2.586-4.51,8.4,8.4,0,0,1-3.1-4.276,8.679,8.679,0,0,1-.434-3.284c.014-.21.033-.418.065-.63a8.576,8.576,0,0,1,.9-2.862l.055-.1a8.791,8.791,0,0,1,11.742-3.669l.1.054a8.758,8.758,0,0,1,4.64,8.209,3.064,3.064,0,0,1-.97,2.268,2.839,2.839,0,0,1-2.458.63,2.779,2.779,0,0,1-1.954-1.654,3.547,3.547,0,0,1-.216-1.516,3.286,3.286,0,0,0-1.641-3.023l-.08-.042a3.212,3.212,0,0,0-4.252,1.342l-.042.079a3.176,3.176,0,0,0-.311,1c-.012.085-.02.162-.025.239a3.29,3.29,0,0,0,1.209,2.741c.161.1.321.2.473.3l.092.049.061.056.069.051a10.008,10.008,0,0,1,3.239,3.874l.033.06.012.036a10.2,10.2,0,0,1,.93,4.892c-.009.2-.027.415-.052.624a10.052,10.052,0,0,1-1.094,3.513A10.2,10.2,0,0,1,487.082,359.15Z" fill="#e8e8e8"/>
      <path d="M525.727,365.9a11.993,11.993,0,1,1-5.042-16.193A12.005,12.005,0,0,1,525.727,365.9Zm-4.92-2.584a6.435,6.435,0,1,0-8.69,2.706A6.442,6.442,0,0,0,520.807,363.314Z" fill="#e8e8e8"/>
      <path d="M549.543,378.405a11.993,11.993,0,1,1-5.043-16.194A12.008,12.008,0,0,1,549.543,378.405Zm-4.921-2.584a6.435,6.435,0,1,0-8.689,2.7A6.443,6.443,0,0,0,544.622,375.821Z" fill="#e8e8e8"/>
      <path d="M572.984,390.7l-4.279,8.149a2.779,2.779,0,1,1-4.921-2.584l4.279-8.149c1.49-2.836,1.5-6.478-1.825-8.226-2.968-1.559-6.494-.3-8.2,2.935l-4.3,8.182a2.78,2.78,0,0,1-4.922-2.584l8.578-16.334a2.78,2.78,0,0,1,5.224,1.6,11.2,11.2,0,0,1,6.2,1.283C574.465,377.93,576.215,384.544,572.984,390.7Z" fill="#e8e8e8"/>
      <path d="M578.93,405.313a4.313,4.313,0,0,1-4.4,1.55l-.441-.062-.3-.325c-1.812-1.933-1.7-3.884-1.059-4.966a2.758,2.758,0,0,1,1.716-1.287,1.5,1.5,0,0,1,2.156-.709,2.229,2.229,0,0,1,.261.162A1.567,1.567,0,0,1,579,401.26a2.183,2.183,0,0,1-.176.769q.068.09.129.186A2.853,2.853,0,0,1,578.93,405.313Zm-1.869-10.235,10.078-19.192a2.78,2.78,0,0,1,4.922,2.584l-10.08,19.193a2.779,2.779,0,1,1-4.92-2.585Z" fill="#e8e8e8"/>
    </g>
  </g>
</svg>
