<svg xmlns="http://www.w3.org/2000/svg" width="440" height="360" viewBox="0 0 440 360">
  <g>
    <g>
      <rect x="83.726" y="118.953" width="271.083" height="202.663" fill="#f4ebc9"/>
      <path d="M357.649,324.456H80.885V116.114H357.649Zm-271.084-5.68h265.4V121.794H86.565Z" fill="#1d1d1b"/>
    </g>
    <g>
      <rect x="97.053" y="118.953" width="140.508" height="183.458" rx="7.671" fill="#bfe4e3"/>
      <path d="M229.89,305.252H104.724A10.523,10.523,0,0,1,94.213,294.74V126.625a10.523,10.523,0,0,1,10.511-10.511H229.89A10.522,10.522,0,0,1,240.4,126.625V294.74A10.523,10.523,0,0,1,229.89,305.252ZM104.724,121.794a4.836,4.836,0,0,0-4.831,4.831V294.74a4.836,4.836,0,0,0,4.831,4.832H229.89a4.836,4.836,0,0,0,4.831-4.832V126.625a4.836,4.836,0,0,0-4.831-4.831Z" fill="#1d1d1b"/>
    </g>
    <g>
      <rect x="255.122" y="118.953" width="87.815" height="213.996" rx="7.671" fill="#78ddb2"/>
      <path d="M335.266,335.79H262.793a10.523,10.523,0,0,1-10.511-10.512V126.625a10.522,10.522,0,0,1,10.511-10.511h72.473a10.523,10.523,0,0,1,10.511,10.511V325.278A10.523,10.523,0,0,1,335.266,335.79Zm-72.473-214a4.836,4.836,0,0,0-4.83,4.831V325.278a4.836,4.836,0,0,0,4.83,4.832h72.473a4.836,4.836,0,0,0,4.831-4.832V126.625a4.836,4.836,0,0,0-4.831-4.831Z" fill="#1d1d1b"/>
    </g>
    <g>
      <rect x="66.271" y="321.616" width="307.458" height="17.322" transform="translate(440 660.554) rotate(180)" fill="#dbcea7"/>
      <path d="M376.569,341.777H63.431v-23H376.569ZM69.111,336.1H370.889V324.456H69.111Z" fill="#1d1d1b"/>
    </g>
    <g>
      <circle cx="324.645" cy="229.18" r="7.504" fill="#79af96"/>
      <path d="M324.645,239.524a10.344,10.344,0,1,1,10.344-10.344A10.355,10.355,0,0,1,324.645,239.524Zm0-15.007a4.663,4.663,0,1,0,4.664,4.663A4.668,4.668,0,0,0,324.645,224.517Z" fill="#1d1d1b"/>
    </g>
    <rect x="137.618" y="195.251" width="34.984" height="3.794" transform="translate(-94.752 174.89) rotate(-46.715)" fill="#2b2844"/>
    <rect x="172.309" y="183.093" width="3.794" height="39.373" transform="translate(-61.409 76.475) rotate(-21.14)" fill="#2b2844"/>
    <rect x="142.923" y="200.92" width="32.963" height="52.391" transform="translate(-102.032 320.079) rotate(-74.511)" fill="#cac8bb"/>
    <circle cx="167.106" cy="184.417" r="5.386" fill="#2b2844"/>
    <g>
      <rect x="171.186" y="246.52" width="9.489" height="1.668" fill="#1d1d1b"/>
      <rect x="153.475" y="241.46" width="29.098" height="1.668" fill="#1d1d1b"/>
      <rect x="135.131" y="236.401" width="48.709" height="1.668" fill="#1d1d1b"/>
      <rect x="130.681" y="231.341" width="54.424" height="1.668" fill="#1d1d1b"/>
      <rect x="131.962" y="226.282" width="54.412" height="1.668" fill="#1d1d1b"/>
      <rect x="133.23" y="221.222" width="54.416" height="1.668" fill="#1d1d1b"/>
      <rect x="135.131" y="216.162" width="51.243" height="1.668" fill="#1d1d1b"/>
      <rect x="136.396" y="211.103" width="31.628" height="1.668" fill="#1d1d1b"/>
      <rect x="137.662" y="206.043" width="12.65" height="1.668" fill="#1d1d1b"/>
    </g>
    <path d="M181.57,252.328l-54.146-15,9.817-35.424,54.145,15Zm-49.476-17.647,46.832,12.978,7.79-28.109-46.832-12.979Z" fill="#2b2844"/>
    <g>
      <g>
        <polygon points="360.498 45.772 378.069 135.521 342.928 135.521 342.928 45.772 360.498 45.772" fill="#efe4e4"/>
        <path d="M342.928,135.521h35.141c0,8.323-7.877,23.865-17.571,23.865S342.928,143.844,342.928,135.521Z" fill="#efe4e4"/>
        <path d="M366.159,21.063c4.98,0,10.054,3.893,9.051,8.436-.625,2.92-14.712,16.273-14.712,16.273H79.483S65.415,32.419,64.771,29.5c-.984-4.543,4.071-8.436,9.05-8.436Z" fill="#efe4e4"/>
        <rect x="307.805" y="45.772" width="35.122" height="89.75" fill="#b25d5d"/>
        <path d="M307.805,135.521h35.123c0,8.323-7.858,23.865-17.552,23.865S307.805,143.844,307.805,135.521Z" fill="#b25d5d"/>
        <rect x="272.683" y="45.772" width="35.122" height="89.75" fill="#efe4e4"/>
        <path d="M272.683,135.521h35.122c0,8.323-7.857,23.865-17.551,23.865C280.541,159.386,272.683,143.844,272.683,135.521Z" fill="#efe4e4"/>
        <rect x="237.561" y="45.772" width="35.122" height="89.75" fill="#b25d5d"/>
        <path d="M237.561,135.521h35.122c0,8.323-7.857,23.865-17.57,23.865C245.419,159.386,237.561,143.844,237.561,135.521Z" fill="#b25d5d"/>
        <rect x="202.439" y="45.772" width="35.122" height="89.75" fill="#efe4e4"/>
        <path d="M202.439,135.521h35.122c0,8.323-7.858,23.865-17.571,23.865C210.3,159.386,202.439,143.844,202.439,135.521Z" fill="#efe4e4"/>
        <rect x="167.298" y="45.772" width="35.141" height="89.75" fill="#b25d5d"/>
        <path d="M167.3,135.521h35.141c0,8.323-7.877,23.865-17.571,23.865S167.3,143.844,167.3,135.521Z" fill="#b25d5d"/>
        <rect x="132.175" y="45.772" width="35.122" height="89.75" fill="#efe4e4"/>
        <path d="M132.175,135.521H167.3c0,8.323-7.858,23.865-17.552,23.865S132.175,143.844,132.175,135.521Z" fill="#efe4e4"/>
        <rect x="97.053" y="45.772" width="35.122" height="89.75" fill="#b25d5d"/>
        <path d="M97.053,135.521h35.122c0,8.323-7.857,23.865-17.551,23.865C104.911,159.386,97.053,143.844,97.053,135.521Z" fill="#b25d5d"/>
        <polygon points="97.053 45.772 97.053 135.521 61.931 135.521 79.483 45.772 97.053 45.772" fill="#efe4e4"/>
        <path d="M61.931,135.521H97.053c0,8.323-7.857,23.865-17.57,23.865C69.789,159.386,61.931,143.844,61.931,135.521Z" fill="#efe4e4"/>
      </g>
      <g>
        <path d="M255.113,162.227c-11.78,0-20.391-17.564-20.391-26.706a2.84,2.84,0,0,1,2.84-2.84h35.122a2.84,2.84,0,0,1,2.84,2.84C275.524,144.663,266.9,162.227,255.113,162.227ZM240.69,138.361c1.435,7.651,7.975,18.186,14.423,18.186,6.6,0,13.063-10.435,14.455-18.186Z" fill="#1d1d1b"/>
        <path d="M272.684,138.361a2.84,2.84,0,0,1-2.84-2.84V45.771a2.84,2.84,0,1,1,5.68,0v89.75A2.84,2.84,0,0,1,272.684,138.361Z" fill="#1d1d1b"/>
        <path d="M290.255,162.227c-11.791,0-20.411-17.564-20.411-26.706a2.84,2.84,0,0,1,2.84-2.84h35.121a2.841,2.841,0,0,1,2.841,2.84C310.646,144.663,302.035,162.227,290.255,162.227ZM275.8,138.361c1.392,7.751,7.857,18.186,14.456,18.186,6.447,0,12.987-10.535,14.422-18.186Z" fill="#1d1d1b"/>
        <path d="M307.805,138.361a2.84,2.84,0,0,1-2.84-2.84V45.771a2.841,2.841,0,0,1,5.681,0v89.75A2.841,2.841,0,0,1,307.805,138.361Z" fill="#1d1d1b"/>
        <path d="M325.377,162.227c-11.792,0-20.412-17.564-20.412-26.706a2.84,2.84,0,0,1,2.84-2.84h35.122a2.84,2.84,0,0,1,2.84,2.84C345.767,144.663,337.157,162.227,325.377,162.227Zm-14.443-23.866c1.437,7.651,7.986,18.186,14.443,18.186s12.987-10.535,14.422-18.186Z" fill="#1d1d1b"/>
        <path d="M378.066,138.362a2.839,2.839,0,0,1-2.783-2.3L357.712,46.317a2.839,2.839,0,1,1,5.573-1.091l17.571,89.749a2.839,2.839,0,0,1-2.241,3.333A2.869,2.869,0,0,1,378.066,138.362Z" fill="#1d1d1b"/>
        <path d="M342.927,138.361a2.84,2.84,0,0,1-2.84-2.84V45.771a2.84,2.84,0,1,1,5.68,0v89.75A2.84,2.84,0,0,1,342.927,138.361Z" fill="#1d1d1b"/>
        <path d="M360.5,162.227c-11.791,0-20.411-17.564-20.411-26.706a2.84,2.84,0,0,1,2.84-2.84h35.142a2.841,2.841,0,0,1,2.841,2.84C380.91,144.663,372.289,162.227,360.5,162.227Zm-14.442-23.866c1.436,7.651,7.986,18.186,14.442,18.186s13.006-10.535,14.443-18.186Z" fill="#1d1d1b"/>
        <path d="M61.934,138.362a2.846,2.846,0,0,1-2.79-3.387L76.7,45.226a2.84,2.84,0,1,1,5.574,1.091L64.719,136.066A2.842,2.842,0,0,1,61.934,138.362Z" fill="#1d1d1b"/>
        <path d="M79.483,162.227c-11.781,0-20.392-17.564-20.392-26.706a2.839,2.839,0,0,1,2.84-2.84H97.053a2.839,2.839,0,0,1,2.84,2.84C99.893,144.663,91.274,162.227,79.483,162.227ZM65.061,138.361c1.434,7.651,7.974,18.186,14.422,18.186,6.6,0,13.063-10.435,14.455-18.186Z" fill="#1d1d1b"/>
        <path d="M97.053,138.361a2.839,2.839,0,0,1-2.84-2.84V45.771a2.84,2.84,0,0,1,5.68,0v89.75A2.839,2.839,0,0,1,97.053,138.361Z" fill="#1d1d1b"/>
        <path d="M114.624,162.227c-11.792,0-20.411-17.564-20.411-26.706a2.839,2.839,0,0,1,2.84-2.84h35.123a2.839,2.839,0,0,1,2.84,2.84C135.016,144.663,126.405,162.227,114.624,162.227Zm-14.456-23.866c1.393,7.751,7.857,18.186,14.456,18.186,6.449,0,12.989-10.535,14.422-18.186Z" fill="#1d1d1b"/>
        <path d="M132.176,138.361a2.839,2.839,0,0,1-2.84-2.84V45.771a2.84,2.84,0,1,1,5.68,0v89.75A2.839,2.839,0,0,1,132.176,138.361Z" fill="#1d1d1b"/>
        <path d="M149.746,162.227c-11.791,0-20.41-17.564-20.41-26.706a2.839,2.839,0,0,1,2.84-2.84H167.3a2.839,2.839,0,0,1,2.84,2.84C170.138,144.663,161.527,162.227,149.746,162.227Zm-14.441-23.866c1.436,7.651,7.985,18.186,14.441,18.186s12.988-10.535,14.422-18.186Z" fill="#1d1d1b"/>
        <path d="M167.3,138.361a2.839,2.839,0,0,1-2.84-2.84V45.771a2.84,2.84,0,0,1,5.68,0v89.75A2.839,2.839,0,0,1,167.3,138.361Z" fill="#1d1d1b"/>
        <path d="M184.868,162.227c-11.791,0-20.41-17.564-20.41-26.706a2.839,2.839,0,0,1,2.84-2.84h35.141a2.839,2.839,0,0,1,2.84,2.84C205.279,144.663,196.66,162.227,184.868,162.227Zm-14.441-23.866c1.436,7.651,7.985,18.186,14.441,18.186s13.006-10.535,14.442-18.186Z" fill="#1d1d1b"/>
        <path d="M202.439,138.361a2.839,2.839,0,0,1-2.84-2.84V45.771a2.84,2.84,0,1,1,5.68,0v89.75A2.839,2.839,0,0,1,202.439,138.361Z" fill="#1d1d1b"/>
        <path d="M237.562,138.361a2.84,2.84,0,0,1-2.84-2.84V45.771a2.84,2.84,0,1,1,5.68,0v89.75A2.84,2.84,0,0,1,237.562,138.361Z" fill="#1d1d1b"/>
        <path d="M219.991,162.227c-11.781,0-20.392-17.564-20.392-26.706a2.839,2.839,0,0,1,2.84-2.84h35.123a2.84,2.84,0,0,1,2.84,2.84C240.4,144.663,231.782,162.227,219.991,162.227Zm-14.423-23.866c1.434,7.651,7.974,18.186,14.423,18.186,6.6,0,13.063-10.435,14.455-18.186Z" fill="#1d1d1b"/>
        <path d="M360.5,48.611H79.483a2.839,2.839,0,0,1-1.955-.78C70.822,41.467,62.685,33.227,62,30.11a8.56,8.56,0,0,1,1.853-7.282,13.028,13.028,0,0,1,9.97-4.605H366.16a13.212,13.212,0,0,1,9.992,4.623,8.525,8.525,0,0,1,1.831,7.266c-.666,3.107-8.813,11.353-15.53,17.721A2.85,2.85,0,0,1,360.5,48.611ZM80.62,42.931H359.361c5.923-5.67,12.413-12.483,13.119-14.2a2.907,2.907,0,0,0-.756-2.332,7.437,7.437,0,0,0-5.564-2.5H73.821a7.428,7.428,0,0,0-5.548,2.491,2.918,2.918,0,0,0-.726,2.5C68.209,30.442,74.7,37.255,80.62,42.931Z" fill="#1d1d1b"/>
      </g>
    </g>
  </g>
</svg>
