<svg xmlns="http://www.w3.org/2000/svg" width="440" height="360" viewBox="0 0 440 360">
  <path d="M194.91,245.16c.65,4.57-1.32,8.44-2.87,11.49-3.89,7.62-7.52,6.93-9.59,11.98-2.54,6.2,1.75,10.17,3.02,18.72a270.888,270.888,0,0,1-50-39.18c-1.08-1.08-2.13-2.19-3.13-3.32a13.282,13.282,0,0,1,.77-1.13c5.07-6.72,14.67-8.17,14.85-13.89.13-3.91-4.24-6.24-3.35-7.67,1.44-2.32,11.6,5.95,22.04,2.88,6.94-2.05,12.29-8.61,13.89-7.19a1.451,1.451,0,0,1,.33,1.16c-.04,3.06,2.1,6.65,6.38,13.69C193.29,242.65,194.45,241.92,194.91,245.16Z" fill="#90be6d"/>
  <path d="M277.8,252.51c.06,7.42-4.22,14.85-10.25,17.93-4.27,2.18-6.14.49-14.09,3.2-2.71.92-4.2,1.7-9.6,4.48-17.75,9.13-19.35,9.81-21.13,8.97-4.31-2.05-5.35-10.95-3.84-17.29,1.95-8.23,7.6-9.76,7.04-15.37-.65-6.41-8.33-7.48-8.33-12.81.01-5.48,8.14-11.88,16.01-12.17,8.91-.32,10.22,7.43,21.77,8.97,8.48,1.13,11.91-2.49,16.65.64C277.71,242.81,277.79,251.32,277.8,252.51Z" fill="#90be6d"/>
  <path d="M253.69,77.45a44.281,44.281,0,0,1,.61,8,45.3,45.3,0,0,1-3.05,15.82c-3.18,8.27-9,16.31-16.7,21.33a127.151,127.151,0,0,1,19.03-2.24c-.92,7.62-1.73,13.18-7.08,18.08-6.21,5.68-16.26,8.36-19.62,5.16-2.32-2.21-.36-6.19-3.09-8.26-2.65-2-5.78,1.6-10.84.52-8.89-1.91-13.93-9.4-15.49-8.26-1.46,1.08,3.95,7.07,2.07,12.9-2.03,6.29-11.89,10.44-16.52,7.74-2.74-1.59-1.95-4.62-5.16-8.77a20.211,20.211,0,0,0-10.23-6.68c-.76-1.96-3.07-7.46-4.69-10.42q3.555-1.17,7.36-2.05c-15.4-15.38-17.06-34.19-15.01-37.85,2.78-4.92,30.42-7.63,49.49,9.82a36.3,36.3,0,0,1,3.27,3.42c.44-1.7.91-3.39,1.43-5.07.59-1.92,1.23-3.82,1.95-5.69A61.4,61.4,0,0,1,223.9,64.37a45.548,45.548,0,0,1,12.74-8.99c1.83-.94,4.07-1.49,5.92-.59a6.926,6.926,0,0,1,2.06,1.71C249.53,62.09,252.5,70.21,253.69,77.45Z" fill="#90be6d"/>
  <path d="M168.34,147.81c8.91,9.9,16.8,18.68,12.85,23.2-2.48,2.84-7.12,1.14-12.17,5.04a14.152,14.152,0,0,0-5.41,11.1c-.07,7.44,6.37,10.64,4.05,13.11-1.9,2.04-7.77,1.51-18.93.51-7.37-.67-7.23-1.18-10.15-1.01-9.34.53-12.25,5.83-18.94,7.06a15.86,15.86,0,0,1-6.05-.11c-5.49-29.23,5.7-60.4,33.13-76.96,2.04,1.22,4.13,2.57,6.06,3.94A93.626,93.626,0,0,1,168.34,147.81Z" fill="#90be6d"/>
  <path d="M285.27,126.35c28.58,13.07,33.85,34.41,36.57,38.58l.01.01c7.39,18.66,7.51,36.45,2.3,52.87l-13.31,5.79c-8.61,2.5-13.96,1.18-17.25-.48-8.92-4.5-8.27-14.32-18.2-18.68-1.46-.65-7.63-3.14-13.89-.96-9.3,3.24-11.67,14.32-15.81,13.41-2.46-.54-1.91-4.51-6.23-9.1a22.11,22.11,0,0,0-9.58-5.75c-10.12-2.61-15.84,6.56-22.51,3.35-3.75-1.8-5.1-6.21-6.71-11.49-1.26-4.12-3.4-11.15,0-15.81,2.02-2.77,3.85-1.76,11.02-6.23a37.984,37.984,0,0,0,8.14-6.23c5.57-5.88,3.79-9.12,7.67-11.49,3.75-2.31,5.98.4,17.24-.48,5.12-.4,7.72-.64,9.58-2.4,3.58-3.39,1.21-8.09,3.83-12.45,1.75-2.9,5.85-5.9,16.29-6.23Z" fill="#90be6d"/>
  <path d="M284.09,125.82a.031.031,0,0,0,.02.01c.39.17.78.35,1.16.52l-10.84,6.23c-10.44.33-14.54,3.33-16.29,6.23-2.62,4.36-.25,9.06-3.83,12.45-1.86,1.76-4.46,2-9.58,2.4-11.26.88-13.49-1.83-17.24.48-3.88,2.37-2.1,5.61-7.67,11.49a37.984,37.984,0,0,1-8.14,6.23c-7.17,4.47-9,3.46-11.02,6.23-3.4,4.66-1.26,11.69,0,15.81,1.61,5.28,2.96,9.69,6.71,11.49,6.67,3.21,12.39-5.96,22.51-3.35a22.11,22.11,0,0,1,9.58,5.75c4.32,4.59,3.77,8.56,6.23,9.1,4.14.91,6.51-10.17,15.81-13.41,6.26-2.18,12.43.31,13.89.96,9.93,4.36,9.28,14.18,18.2,18.68,3.29,1.66,8.64,2.98,17.25.48l13.31-5.79c-11.69,36.95-50.3,66.99-93.51,84.38-.5.2-8.18,3.15-9.07,3.47-.06-.04-15.29-5.59-36.1-18.31-1.27-8.55-5.56-12.52-3.02-18.72,2.07-5.05,5.7-4.36,9.59-11.98,1.55-3.05,3.52-6.92,2.87-11.49-.46-3.24-1.62-2.51-7.66-12.46-4.28-7.04-6.42-10.63-6.38-13.69a1.451,1.451,0,0,0-.33-1.16c-1.6-1.42-6.95,5.14-13.89,7.19-10.44,3.07-20.6-5.2-22.04-2.88-.89,1.43,3.48,3.76,3.35,7.67-.18,5.72-9.78,7.17-14.85,13.89a13.282,13.282,0,0,0-.77,1.13,79.1,79.1,0,0,1-18.75-38.14,15.86,15.86,0,0,0,6.05.11c6.69-1.23,9.6-6.53,18.94-7.06,2.92-.17,2.78.34,10.15,1.01,11.16,1,17.03,1.53,18.93-.51,2.32-2.47-4.12-5.67-4.05-13.11a14.152,14.152,0,0,1,5.41-11.1c5.05-3.9,9.69-2.2,12.17-5.04,3.95-4.52-3.94-13.3-12.85-23.2a93.626,93.626,0,0,0-15.56-14.12c-1.93-1.37-4.02-2.72-6.06-3.94a77.733,77.733,0,0,1,16.21-7.38c1.62,2.96,3.93,8.46,4.69,10.42l-.09-.03a6.775,6.775,0,0,0,.35.75,5.9,5.9,0,0,0-.26-.72,20.211,20.211,0,0,1,10.23,6.68c3.21,4.15,2.42,7.18,5.16,8.77,4.63,2.7,14.49-1.45,16.52-7.74,1.88-5.83-3.53-11.82-2.07-12.9,1.56-1.14,6.6,6.35,15.49,8.26,5.06,1.08,8.19-2.52,10.84-.52,2.73,2.07.77,6.05,3.09,8.26,3.36,3.2,13.41.52,19.62-5.16,5.35-4.9,6.16-10.46,7.08-18.08A70.611,70.611,0,0,1,284.09,125.82ZM267.55,270.44c6.03-3.08,10.31-10.51,10.25-17.93-.01-1.19-.09-9.7-5.77-13.45-4.74-3.13-8.17.49-16.65-.64-11.55-1.54-12.86-9.29-21.77-8.97-7.87.29-16,6.69-16.01,12.17,0,5.33,7.68,6.4,8.33,12.81.56,5.61-5.09,7.14-7.04,15.37-1.51,6.34-.47,15.24,3.84,17.29,1.78.84,3.38.16,21.13-8.97,5.4-2.78,6.89-3.56,9.6-4.48C261.41,270.93,263.28,272.62,267.55,270.44Z" fill="#219ebc"/>
  <path d="M285.269,128.851a2.479,2.479,0,0,1-1.02-.219l-.428-.193c-.235-.106-.472-.214-.71-.317h0l-.03-.013a68.071,68.071,0,0,0-29.418-5.25,2.5,2.5,0,1,1-.166-5,72.877,72.877,0,0,1,31.556,5.652c.037.015.072.031.108.048.242.106.484.215.724.324l.405.183a2.5,2.5,0,0,1-1.021,4.783Z" fill="#1d1d1b"/>
  <path d="M146.723,132.25a2.5,2.5,0,0,1-1.3-4.639,80.539,80.539,0,0,1,16.729-7.618,2.5,2.5,0,1,1,1.55,4.754,75.482,75.482,0,0,0-15.69,7.142A2.487,2.487,0,0,1,146.723,132.25Z" fill="#1d1d1b"/>
  <path d="M132.341,247.35a2.5,2.5,0,0,1-1.866-.835,81.692,81.692,0,0,1-19.342-39.344,2.5,2.5,0,1,1,4.914-.922,76.708,76.708,0,0,0,18.158,36.936,2.5,2.5,0,0,1-1.864,4.165Z" fill="#1d1d1b"/>
  <path d="M221.57,308.16a2.5,2.5,0,0,1-.953-.188l-.093-.036a233.753,233.753,0,0,1-36.357-18.454,2.5,2.5,0,1,1,2.607-4.265,232.407,232.407,0,0,0,34.812,17.767c2.22-.839,7.657-2.928,8.128-3.116,47.249-19.015,81.664-49.975,92.053-82.812a2.5,2.5,0,1,1,4.767,1.507C315.7,252.81,280.2,284.939,231.573,304.51c-.606.241-8.272,3.184-9.156,3.5A2.521,2.521,0,0,1,221.57,308.16Z" fill="#1d1d1b"/>
  <path d="M302,227.484a20.912,20.912,0,0,1-9.537-2.131c-4.91-2.478-7.325-6.41-9.456-9.879-2.237-3.643-4.17-6.789-8.623-8.745-1.515-.674-6.821-2.713-12.063-.887-4.339,1.511-6.948,5.063-9.251,8.2-2.286,3.113-4.445,6.055-7.918,5.291-2.463-.54-3.359-2.6-4.15-4.422a17.119,17.119,0,0,0-3.363-5.405,19.5,19.5,0,0,0-8.383-5.043c-4.4-1.132-7.9.423-11.281,1.928-3.652,1.624-7.429,3.3-11.69,1.254-4.743-2.277-6.333-7.493-8.017-13.013-1.318-4.31-3.773-12.334.372-18.014a9.589,9.589,0,0,1,4.929-3.43,39.394,39.394,0,0,0,6.787-3.448A35.829,35.829,0,0,0,218,163.912a17.649,17.649,0,0,0,4.015-6.4c.768-1.925,1.564-3.916,4.169-5.507,2.71-1.669,4.964-1.409,7.818-1.076a49.244,49.244,0,0,0,10.53.238c4.712-.369,6.847-.58,8.055-1.724s1.365-2.514,1.551-4.849A15.088,15.088,0,0,1,256,137.522c2.777-4.6,8.577-7.03,17.723-7.418l10.3-5.921a2.5,2.5,0,0,1,2.287-.106c24.825,11.353,32.8,29.028,36.208,36.576a30.916,30.916,0,0,0,1.386,2.866,2.472,2.472,0,0,1,.27.5c7.245,18.292,8.039,36.645,2.359,54.545a2.5,2.5,0,0,1-1.386,1.538l-13.31,5.79a2.431,2.431,0,0,1-.3.107A34.354,34.354,0,0,1,302,227.484Zm-35.155-27.375a24.536,24.536,0,0,1,9.561,2.048c5.872,2.577,8.523,6.893,10.862,10.7,2.041,3.323,3.8,6.193,7.447,8.031,3.966,2,9.105,2.122,15.275.354l12.111-5.267c4.93-16.36,4.1-33.136-2.487-49.886a33.094,33.094,0,0,1-1.655-3.38c-3.386-7.5-10.369-22.978-32.57-33.544l-9.714,5.583a2.512,2.512,0,0,1-1.167.331c-7.574.239-12.363,1.929-14.229,5.023a10.62,10.62,0,0,0-1.154,4.889c-.207,2.611-.442,5.571-3.1,8.084-2.543,2.408-5.765,2.66-11.1,3.077a53.471,53.471,0,0,1-11.5-.256c-2.629-.3-3.439-.36-4.627.373s-1.49,1.471-2.14,3.1a22.523,22.523,0,0,1-5.027,7.981,40.387,40.387,0,0,1-8.618,6.623,44.508,44.508,0,0,1-7.572,3.849c-1.716.694-2.144.89-2.765,1.742-2.671,3.661-.767,9.886.371,13.606,1.472,4.827,2.634,8.639,5.4,9.967,2.074,1,4.1.195,7.492-1.316,3.777-1.679,8.482-3.77,14.56-2.2a24.537,24.537,0,0,1,10.781,6.463,21.722,21.722,0,0,1,4.3,6.834,15.244,15.244,0,0,0,.685,1.447,18.285,18.285,0,0,0,2.767-3.283c2.461-3.351,5.832-7.938,11.637-9.961A18.7,18.7,0,0,1,266.846,200.109Zm57.3,17.7h0Z" fill="#1d1d1b"/>
  <path d="M116.962,209.561a19.5,19.5,0,0,1-3.864-.4,2.5,2.5,0,0,1-1.965-1.989c-6.031-32.114,7.43-63.343,34.3-79.562A2.5,2.5,0,0,1,148,127.6c2.177,1.3,4.329,2.7,6.223,4.047A99.507,99.507,0,0,1,170.2,146.139c9.813,10.9,18.289,20.32,12.873,26.516-1.735,1.988-4,2.434-6.19,2.865a13.685,13.685,0,0,0-6.334,2.508,11.616,11.616,0,0,0-4.438,9.137c-.03,3.183,1.411,5.41,2.682,7.377,1.245,1.926,3.126,4.836.69,7.43-2.724,2.924-8.423,2.411-20.91,1.294-3.555-.324-5.432-.611-6.675-.8a12.018,12.018,0,0,0-3.172-.209c-4.784.271-7.6,1.906-10.577,3.638a24.118,24.118,0,0,1-8.056,3.385A17.443,17.443,0,0,1,116.962,209.561Zm-1.223-5.058a12.8,12.8,0,0,0,3.455-.143,19.6,19.6,0,0,0,6.442-2.789c3.2-1.86,6.827-3.967,12.8-4.307a16.754,16.754,0,0,1,4.215.258c1.253.192,2.969.455,6.3.758,7.593.681,14.744,1.322,16.559.489-.218-.422-.612-1.033-.923-1.513-1.4-2.172-3.526-5.455-3.482-10.129a16.6,16.6,0,0,1,6.381-13.055,18.56,18.56,0,0,1,8.425-3.458c1.774-.349,2.807-.579,3.391-1.248,2.5-2.858-6-12.3-12.826-19.884a94.3,94.3,0,0,0-15.14-13.747c-1.422-1.01-2.993-2.049-4.611-3.052C123,147.721,110.982,175.6,115.739,204.5Zm50.092-5.947h0Z" fill="#1d1d1b"/>
  <path d="M185.47,289.85a2.491,2.491,0,0,1-1.3-.368A272.035,272.035,0,0,1,133.7,249.938c-1.151-1.15-2.239-2.3-3.236-3.432a2.5,2.5,0,0,1-.266-2.951,15.679,15.679,0,0,1,.915-1.343c2.533-3.358,5.914-5.447,8.9-7.291,3.342-2.067,5.393-3.422,5.448-5.17.042-1.274-.872-2.438-1.755-3.563-1.011-1.286-2.538-3.229-1.219-5.349,1.641-2.644,4.812-1.457,8.168-.2,4.1,1.536,9.726,3.639,15.289,2,3.175-.938,6.087-3.021,8.428-4.695,2.859-2.047,5.564-3.977,7.827-1.968a3.832,3.832,0,0,1,1.17,3.112c-.029,2.26,1.933,5.592,6.017,12.31a87.2,87.2,0,0,0,5.524,8.2c1.378,1.825,2.137,2.831,2.475,5.211.76,5.343-1.476,9.745-3.109,12.96a23.158,23.158,0,0,1-6.428,8.023,9,9,0,0,0-3.085,3.786c-1.216,2.97-.391,5.3.858,8.827a43.561,43.561,0,0,1,2.322,8.577,2.5,2.5,0,0,1-2.473,2.868Zm-49.917-45.186q.811.864,1.685,1.738a265.486,265.486,0,0,0,44.321,35.546c-.214-.637-.434-1.259-.652-1.874-1.394-3.937-2.71-7.656-.77-12.391a13.745,13.745,0,0,1,4.476-5.7,18.291,18.291,0,0,0,5.2-6.466c1.484-2.921,3.16-6.22,2.622-10-.156-1.1-.285-1.272-1.516-2.9A91.8,91.8,0,0,1,185.113,234c-3.588-5.9-5.856-9.632-6.531-12.9-.44.3-.9.632-1.3.919-2.506,1.792-5.937,4.247-9.922,5.424-6.964,2.046-13.577-.294-18.069-1.973a8.36,8.36,0,0,1,1.169,4.448c-.142,4.516-4.043,6.928-7.816,9.261A28.351,28.351,0,0,0,135.553,244.664Z" fill="#1d1d1b"/>
  <path d="M223.8,289.883a4.763,4.763,0,0,1-2.135-.532c-6.13-2.915-6.728-13.735-5.205-20.13a23.646,23.646,0,0,1,4.751-9.4c1.638-2.177,2.417-3.305,2.233-5.142-.232-2.289-1.838-3.68-3.7-5.289-2.07-1.793-4.646-4.025-4.646-7.77v0c.012-6.927,9.307-14.327,18.419-14.663,5.31-.2,8.423,2.066,11.436,4.249,2.75,1.992,5.595,4.053,10.755,4.74a26.063,26.063,0,0,0,8.14-.287c3.143-.493,6.112-.957,9.558,1.32,6.139,4.052,6.864,12.2,6.892,15.515.068,8.354-4.707,16.651-11.613,20.178a15.767,15.767,0,0,1-6.421,1.649,30.613,30.613,0,0,0-8,1.69c-2.466.837-3.818,1.533-8.845,4.122l-.417.215C230.854,287.622,226.458,289.883,223.8,289.883Zm-3.7-48.263c0,1.394,1.055,2.375,2.92,3.989,2.211,1.917,4.964,4.3,5.4,8.569.386,3.864-1.442,6.3-3.211,8.648a18.83,18.83,0,0,0-3.883,7.55c-1.407,5.908-.155,13.2,2.481,14.456,1.358.123,9.086-3.88,18.913-8.936l.416-.213c5.153-2.655,6.709-3.455,9.523-4.411a35.358,35.358,0,0,1,9.141-1.933,10.927,10.927,0,0,0,4.616-1.125c5.2-2.657,8.94-9.253,8.887-15.684-.016-1.962-.4-8.579-4.648-11.384-1.756-1.16-3.119-1.007-6.03-.552a30.925,30.925,0,0,1-9.572.3c-6.412-.855-10.08-3.512-13.029-5.648-2.75-1.991-4.757-3.428-8.321-3.3-6.735.249-13.588,5.835-13.6,9.672Z" fill="#1d1d1b"/>
  <path d="M167.882,136.018a2.48,2.48,0,0,1-1.731-.7,2.39,2.39,0,0,1-.219-.24,5.317,5.317,0,0,1-.695-1.32,2.5,2.5,0,0,1,3.095-3.364,2.7,2.7,0,0,1,1.618,1.491,5.394,5.394,0,0,1,.415,1.337,2.5,2.5,0,0,1-2.483,2.8Zm-2.5-2.493c0,.047,0,.092,0,.135h0C165.382,133.615,165.38,133.57,165.38,133.525Zm0,0v0Zm0,0v0Zm0,0v0Zm0,0v0Z" fill="#1d1d1b"/>
  <path d="M186.561,151.583a9.5,9.5,0,0,1-4.811-1.183c-2.229-1.3-2.953-3.262-3.592-5a14.808,14.808,0,0,0-2.285-4.4,17.567,17.567,0,0,0-9-5.823,2.5,2.5,0,0,1-1.588-1.483c-.813-2.094-3.054-7.384-4.553-10.124A2.5,2.5,0,0,1,162.148,120q1.679-.553,3.447-1.052c-13.281-15.338-14.976-33.268-12.5-37.7,1.539-2.724,5.915-3.939,9.316-4.479,12.339-1.96,30.743,1.505,44.043,13.676q.18.165.357.331.133-.443.267-.876c.656-2.134,1.312-4.049,2-5.849a63.5,63.5,0,0,1,12.994-21.4,47.972,47.972,0,0,1,13.416-9.5c2.954-1.517,5.851-1.736,8.156-.614a9.31,9.31,0,0,1,2.843,2.306c4.7,5.351,8.222,13.441,9.661,22.2a46.921,46.921,0,0,1,.643,8.444,47.777,47.777,0,0,1-3.217,16.68,49.8,49.8,0,0,1-10.493,16.551c3.716-.477,7.131-.756,10.413-.858a2.551,2.551,0,0,1,1.922.811,2.5,2.5,0,0,1,.637,1.988c-.867,7.176-1.685,13.955-7.874,19.624-6.7,6.131-18.223,9.706-23.032,5.127-1.789-1.7-1.991-3.932-2.138-5.559-.136-1.5-.241-2.143-.739-2.52-.29-.221-.855-.1-2.4.351a14.348,14.348,0,0,1-7.451.622,27.937,27.937,0,0,1-10.824-5.228,13.154,13.154,0,0,1,.3,8.191c-1.245,3.858-4.95,7.377-9.669,9.182A16.027,16.027,0,0,1,186.561,151.583Zm-17.05-20.8a21.935,21.935,0,0,1,10.321,7.16,19.813,19.813,0,0,1,3.019,5.731c.59,1.6.806,2.049,1.414,2.4,1.3.759,3.731.642,6.188-.3,3.289-1.258,5.918-3.632,6.7-6.048.845-2.619-.377-5.515-1.358-7.842-.883-2.094-1.982-4.7.181-6.3s4.36.135,6.67,1.967c2.579,2.044,6.111,4.844,10.832,5.859a9.52,9.52,0,0,0,4.988-.529c2-.587,4.475-1.321,6.833.457,2.31,1.753,2.536,4.24,2.7,6.056.111,1.229.2,2,.607,2.39,1.94,1.847,10.511.016,16.208-5.195,3.985-3.65,5.083-7.578,5.912-13.6A132.654,132.654,0,0,0,235,125.059a2.5,2.5,0,0,1-1.817-4.553c6.777-4.419,12.511-11.757,15.732-20.133a42.812,42.812,0,0,0,2.883-14.95,41.96,41.96,0,0,0-.575-7.56C249.932,70,246.84,62.815,242.742,58.15a4.746,4.746,0,0,0-1.289-1.118c-.829-.4-2.173-.2-3.671.572a43.376,43.376,0,0,0-12.062,8.481,58.638,58.638,0,0,0-11.965,19.757c-.653,1.7-1.272,3.5-1.895,5.533-.475,1.533-.932,3.154-1.4,4.961a2.5,2.5,0,0,1-4.333.984,33.634,33.634,0,0,0-3.045-3.186c-12.073-11.047-28.133-13.718-38.214-12.646-4.77.506-7.061,1.721-7.423,2.231-1.42,2.552-.213,20.027,14.612,34.832a2.5,2.5,0,0,1-1.2,4.2c-1.488.346-2.947.724-4.363,1.133C167.645,126.318,168.818,129.084,169.511,130.785Z" fill="#1d1d1b"/>
  <g>
    <path d="M303.812,308.154a9,9,0,0,0-12.318-3.206A142.8,142.8,0,0,1,77.131,195.039l7.336.561c.179.013.357.02.534.02a7,7,0,0,0,6.11-10.414l-15.46-27.67a7,7,0,0,0-11.632-.888l-19.48,25a7,7,0,0,0,4.988,11.283l9.422.72A160.777,160.777,0,0,0,300.605,320.472,9,9,0,0,0,303.812,308.154Z" fill="#219ebc"/>
    <path d="M219.4,345.553A163.847,163.847,0,0,1,56.168,196.445l-6.87-.524A10,10,0,0,1,42.172,179.8l19.48-25a10,10,0,0,1,16.618,1.269l15.46,27.67a10,10,0,0,1-9.492,14.848l-3.744-.286A139.806,139.806,0,0,0,289.976,302.361a12,12,0,0,1,12.148,20.7A163.564,163.564,0,0,1,219.4,345.553ZM69.535,156.95a3.989,3.989,0,0,0-3.151,1.543l-19.479,25a4,4,0,0,0,2.85,6.447l11.995.916.191,2.574A157.777,157.777,0,0,0,299.087,317.885a6,6,0,0,0,2.138-8.212h0a6,6,0,0,0-8.211-2.138A145.8,145.8,0,0,1,74.144,195.317l-.33-3.54,10.881.831a4,4,0,0,0,3.8-5.938L73.032,159a3.99,3.99,0,0,0-3.187-2.038C69.741,156.954,69.638,156.95,69.535,156.95Z" fill="#1d1d1b"/>
  </g>
  <g>
    <path d="M393.554,191.814a7,7,0,0,0-5.037-5.127l-8.482-2.214A160.773,160.773,0,0,0,105.6,68.036c-3.021,3.021-5.937,6.172-8.667,9.366a9,9,0,1,0,13.682,11.7c2.427-2.839,5.022-5.643,7.714-8.335a142.769,142.769,0,0,1,243.716,99.014l-7.433-1.94a7,7,0,0,0-8.389,9.046l10.29,29.979a7,7,0,0,0,11.288,2.945l23.62-21.13A7,7,0,0,0,393.554,191.814Z" fill="#90be6d"/>
    <path d="M363.13,224.59a10.087,10.087,0,0,1-2.524-.323,9.978,9.978,0,0,1-6.935-6.431l-10.29-29.98a10,10,0,0,1,11.984-12.921l3.563.929a141.112,141.112,0,0,0-40.8-92.979,139.771,139.771,0,0,0-197.679,0c-2.636,2.637-5.178,5.383-7.554,8.163A12,12,0,1,1,94.648,75.453c2.783-3.255,5.753-6.465,8.827-9.538a163.768,163.768,0,0,1,231.621,0,164.736,164.736,0,0,1,47.961,116.245l6.217,1.623a10,10,0,0,1,4.143,17.129l-23.62,21.13A9.983,9.983,0,0,1,363.13,224.59Zm-10.292-43.98a4,4,0,0,0-3.781,5.3l10.29,29.98a3.987,3.987,0,0,0,2.773,2.571,4.047,4.047,0,0,0,3.677-.889l23.62-21.131a4,4,0,0,0-1.658-6.851L377,186.78l.039-2.357A158.687,158.687,0,0,0,330.854,70.158a157.77,157.77,0,0,0-223.136,0c-2.965,2.965-5.827,6.058-8.509,9.2a6,6,0,1,0,9.122,7.8c2.478-2.9,5.126-5.76,7.873-8.506A145.769,145.769,0,0,1,365.041,179.734l.056,3.941-11.246-2.935A4.033,4.033,0,0,0,352.838,180.61Z" fill="#1d1d1b"/>
  </g>
</svg>
